<?xml version="1.0" encoding="UTF-8" standalone="no"?>
<!DOCTYPE svg PUBLIC "-//W3C//DTD SVG 1.1//EN"
 "http://www.w3.org/Graphics/SVG/1.1/DTD/svg11.dtd">
<!-- Generated by graphviz version 2.43.0 (0)
 -->
<!-- Title: AABBox.hpp Pages: 1 -->
<svg width="188pt" height="196pt"
 viewBox="0.00 0.00 187.50 196.00" xmlns="http://www.w3.org/2000/svg" xmlns:xlink="http://www.w3.org/1999/xlink">
<g id="graph0" class="graph" transform="scale(1 1) rotate(0) translate(4 192)">
<title>AABBox.hpp</title>
<polygon fill="white" stroke="transparent" points="-4,4 -4,-192 183.5,-192 183.5,4 -4,4"/>
<!-- Node1 -->
<g id="node1" class="node">
<title>Node1</title>
<g id="a_node1"><a xlink:title=" ">
<polygon fill="#bfbfbf" stroke="black" points="22.5,-168.5 22.5,-187.5 99.5,-187.5 99.5,-168.5 22.5,-168.5"/>
<text text-anchor="middle" x="61" y="-175.5" font-family="Helvetica,sans-Serif" font-size="10.00">AABBox.hpp</text>
</a>
</g>
</g>
<!-- Node2 -->
<g id="node2" class="node">
<title>Node2</title>
<g id="a_node2"><a xlink:href="AABBoxNode_8hpp.html" target="_top" xlink:title=" ">
<polygon fill="white" stroke="black" points="0,-0.5 0,-19.5 102,-19.5 102,-0.5 0,-0.5"/>
<text text-anchor="middle" x="51" y="-7.5" font-family="Helvetica,sans-Serif" font-size="10.00">AABBoxNode.hpp</text>
</a>
</g>
</g>
<!-- Node1&#45;&gt;Node2 -->
<g id="edge1" class="edge">
<title>Node1&#45;&gt;Node2</title>
<path fill="none" stroke="midnightblue" d="M47.01,-160.37C41.15,-152.34 35.01,-142.24 32,-132 19.93,-91 38.53,-39.79 47.07,-19.68"/>
<polygon fill="midnightblue" stroke="midnightblue" points="44.41,-162.73 53.33,-168.46 49.93,-158.42 44.41,-162.73"/>
</g>
<!-- Node3 -->
<g id="node3" class="node">
<title>Node3</title>
<g id="a_node3"><a xlink:href="AbsBoundableObject_8hpp.html" target="_top" xlink:title=" ">
<polygon fill="white" stroke="black" points="40.5,-112.5 40.5,-131.5 179.5,-131.5 179.5,-112.5 40.5,-112.5"/>
<text text-anchor="middle" x="110" y="-119.5" font-family="Helvetica,sans-Serif" font-size="10.00">AbsBoundableObject.hpp</text>
</a>
</g>
</g>
<!-- Node1&#45;&gt;Node3 -->
<g id="edge2" class="edge">
<title>Node1&#45;&gt;Node3</title>
<path fill="none" stroke="midnightblue" d="M76.03,-160.43C84.62,-150.97 95.04,-139.48 102.06,-131.75"/>
<polygon fill="midnightblue" stroke="midnightblue" points="73.22,-158.33 69.09,-168.08 78.4,-163.03 73.22,-158.33"/>
</g>
<!-- Node4 -->
<g id="node4" class="node">
<title>Node4</title>
<g id="a_node4"><a xlink:href="boundingBox_8hpp.html" target="_top" xlink:title=" ">
<polygon fill="white" stroke="black" points="49.5,-56.5 49.5,-75.5 150.5,-75.5 150.5,-56.5 49.5,-56.5"/>
<text text-anchor="middle" x="100" y="-63.5" font-family="Helvetica,sans-Serif" font-size="10.00">boundingBox.hpp</text>
</a>
</g>
</g>
<!-- Node3&#45;&gt;Node4 -->
<g id="edge3" class="edge">
<title>Node3&#45;&gt;Node4</title>
<path fill="none" stroke="midnightblue" d="M106.5,-102.1C104.84,-93.14 102.94,-82.86 101.62,-75.75"/>
<polygon fill="midnightblue" stroke="midnightblue" points="103.09,-102.89 108.35,-112.08 109.97,-101.61 103.09,-102.89"/>
</g>
<!-- Node4&#45;&gt;Node2 -->
<g id="edge4" class="edge">
<title>Node4&#45;&gt;Node2</title>
<path fill="none" stroke="midnightblue" d="M84.97,-48.43C76.38,-38.97 65.96,-27.48 58.94,-19.75"/>
<polygon fill="midnightblue" stroke="midnightblue" points="82.6,-51.03 91.91,-56.08 87.78,-46.33 82.6,-51.03"/>
</g>
</g>
</svg>
