<?xml version="1.0" encoding="UTF-8" standalone="no"?>
<!DOCTYPE svg PUBLIC "-//W3C//DTD SVG 1.1//EN"
 "http://www.w3.org/Graphics/SVG/1.1/DTD/svg11.dtd">
<!-- Generated by graphviz version 2.43.0 (0)
 -->
<!-- Title: AABBox.hpp Pages: 1 -->
<svg width="901pt" height="452pt"
 viewBox="0.00 0.00 901.00 452.00" xmlns="http://www.w3.org/2000/svg" xmlns:xlink="http://www.w3.org/1999/xlink">
<g id="graph0" class="graph" transform="scale(1 1) rotate(0) translate(4 448)">
<title>AABBox.hpp</title>
<polygon fill="white" stroke="transparent" points="-4,4 -4,-448 897,-448 897,4 -4,4"/>
<!-- Node1 -->
<g id="node1" class="node">
<title>Node1</title>
<g id="a_node1"><a xlink:title=" ">
<polygon fill="#bfbfbf" stroke="black" points="580,-424.5 580,-443.5 657,-443.5 657,-424.5 580,-424.5"/>
<text text-anchor="middle" x="618.5" y="-431.5" font-family="Helvetica,sans-Serif" font-size="10.00">AABBox.hpp</text>
</a>
</g>
</g>
<!-- Node2 -->
<g id="node2" class="node">
<title>Node2</title>
<g id="a_node2"><a xlink:href="Box_8hpp.html" target="_top" xlink:title=" ">
<polygon fill="white" stroke="black" points="491,-357.5 491,-387.5 606,-387.5 606,-357.5 491,-357.5"/>
<text text-anchor="start" x="499" y="-375.5" font-family="Helvetica,sans-Serif" font-size="10.00">packages/primitives</text>
<text text-anchor="middle" x="548.5" y="-364.5" font-family="Helvetica,sans-Serif" font-size="10.00">/inc/Box.hpp</text>
</a>
</g>
</g>
<!-- Node1&#45;&gt;Node2 -->
<g id="edge1" class="edge">
<title>Node1&#45;&gt;Node2</title>
<path fill="none" stroke="midnightblue" d="M608.47,-424.48C599.17,-416.57 584.95,-404.48 572.7,-394.07"/>
<polygon fill="midnightblue" stroke="midnightblue" points="574.88,-391.33 565,-387.52 570.35,-396.67 574.88,-391.33"/>
</g>
<!-- Node17 -->
<g id="node17" class="node">
<title>Node17</title>
<g id="a_node17"><a xlink:title=" ">
<polygon fill="white" stroke="#bfbfbf" points="624,-357.5 624,-387.5 755,-387.5 755,-357.5 624,-357.5"/>
<text text-anchor="start" x="632" y="-375.5" font-family="Helvetica,sans-Serif" font-size="10.00">packages/partitioning</text>
<text text-anchor="middle" x="689.5" y="-364.5" font-family="Helvetica,sans-Serif" font-size="10.00">/impl/AABBox_impl.hpp</text>
</a>
</g>
</g>
<!-- Node1&#45;&gt;Node17 -->
<g id="edge23" class="edge">
<title>Node1&#45;&gt;Node17</title>
<path fill="none" stroke="midnightblue" d="M628.67,-424.48C638.11,-416.57 652.53,-404.48 664.96,-394.07"/>
<polygon fill="midnightblue" stroke="midnightblue" points="667.35,-396.63 672.77,-387.52 662.85,-391.26 667.35,-396.63"/>
</g>
<!-- Node3 -->
<g id="node3" class="node">
<title>Node3</title>
<g id="a_node3"><a target="_parent" xlink:href="../../../cieutils/docs/html/container__concepts_8hpp.html.html" xlink:title=" ">
<polygon fill="white" stroke="black" points="0,-0.5 0,-41.5 135,-41.5 135,-0.5 0,-0.5"/>
<text text-anchor="start" x="8" y="-29.5" font-family="Helvetica,sans-Serif" font-size="10.00">packages/compile_time</text>
<text text-anchor="start" x="8" y="-18.5" font-family="Helvetica,sans-Serif" font-size="10.00">/packages/concepts/inc</text>
<text text-anchor="middle" x="67.5" y="-7.5" font-family="Helvetica,sans-Serif" font-size="10.00">/container_concepts.hpp</text>
</a>
</g>
</g>
<!-- Node2&#45;&gt;Node3 -->
<g id="edge2" class="edge">
<title>Node2&#45;&gt;Node3</title>
<path fill="none" stroke="midnightblue" d="M490.92,-369.52C352.14,-363.17 10.5,-337.6 10.5,-239.5 10.5,-239.5 10.5,-239.5 10.5,-165 10.5,-122.98 32,-78.63 48.59,-50.67"/>
<polygon fill="midnightblue" stroke="midnightblue" points="51.76,-52.2 53.99,-41.84 45.79,-48.55 51.76,-52.2"/>
</g>
<!-- Node4 -->
<g id="node4" class="node">
<title>Node4</title>
<g id="a_node4"><a xlink:href="Primitive_8hpp.html" target="_top" xlink:title=" ">
<polygon fill="white" stroke="black" points="314,-223.5 314,-253.5 429,-253.5 429,-223.5 314,-223.5"/>
<text text-anchor="start" x="322" y="-241.5" font-family="Helvetica,sans-Serif" font-size="10.00">packages/primitives</text>
<text text-anchor="middle" x="371.5" y="-230.5" font-family="Helvetica,sans-Serif" font-size="10.00">/inc/Primitive.hpp</text>
</a>
</g>
</g>
<!-- Node2&#45;&gt;Node4 -->
<g id="edge3" class="edge">
<title>Node2&#45;&gt;Node4</title>
<path fill="none" stroke="midnightblue" d="M529.56,-357.37C498.02,-333.85 434.64,-286.59 398.45,-259.6"/>
<polygon fill="midnightblue" stroke="midnightblue" points="400.41,-256.7 390.31,-253.52 396.23,-262.31 400.41,-256.7"/>
</g>
<!-- Node11 -->
<g id="node11" class="node">
<title>Node11</title>
<g id="a_node11"><a xlink:title=" ">
<polygon fill="white" stroke="#bfbfbf" points="631.5,-11.5 631.5,-30.5 673.5,-30.5 673.5,-11.5 631.5,-11.5"/>
<text text-anchor="middle" x="652.5" y="-18.5" font-family="Helvetica,sans-Serif" font-size="10.00">array</text>
</a>
</g>
</g>
<!-- Node2&#45;&gt;Node11 -->
<g id="edge21" class="edge">
<title>Node2&#45;&gt;Node11</title>
<path fill="none" stroke="midnightblue" d="M583.24,-357.4C625.28,-337.77 690.5,-297.9 690.5,-239.5 690.5,-239.5 690.5,-239.5 690.5,-165 690.5,-118.74 671.69,-66.79 660.54,-40.06"/>
<polygon fill="midnightblue" stroke="midnightblue" points="663.73,-38.62 656.57,-30.82 657.3,-41.39 663.73,-38.62"/>
</g>
<!-- Node14 -->
<g id="node14" class="node">
<title>Node14</title>
<g id="a_node14"><a xlink:href="primitives_2inc_2concepts_8hpp.html" target="_top" xlink:title=" ">
<polygon fill="white" stroke="black" points="314,-290.5 314,-320.5 429,-320.5 429,-290.5 314,-290.5"/>
<text text-anchor="start" x="322" y="-308.5" font-family="Helvetica,sans-Serif" font-size="10.00">packages/primitives</text>
<text text-anchor="middle" x="371.5" y="-297.5" font-family="Helvetica,sans-Serif" font-size="10.00">/inc/concepts.hpp</text>
</a>
</g>
</g>
<!-- Node2&#45;&gt;Node14 -->
<g id="edge17" class="edge">
<title>Node2&#45;&gt;Node14</title>
<path fill="none" stroke="midnightblue" d="M510.09,-357.4C483.54,-347.64 448,-334.59 419.57,-324.15"/>
<polygon fill="midnightblue" stroke="midnightblue" points="420.43,-320.74 409.83,-320.58 418.01,-327.31 420.43,-320.74"/>
</g>
<!-- Node15 -->
<g id="node15" class="node">
<title>Node15</title>
<g id="a_node15"><a xlink:title=" ">
<polygon fill="white" stroke="#bfbfbf" points="719,-296 719,-315 760,-315 760,-296 719,-296"/>
<text text-anchor="middle" x="739.5" y="-303" font-family="Helvetica,sans-Serif" font-size="10.00">tuple</text>
</a>
</g>
</g>
<!-- Node2&#45;&gt;Node15 -->
<g id="edge20" class="edge">
<title>Node2&#45;&gt;Node15</title>
<path fill="none" stroke="midnightblue" d="M595.25,-357.43C626.41,-347.8 668.17,-334.38 704.5,-321 706.35,-320.32 708.25,-319.6 710.16,-318.85"/>
<polygon fill="midnightblue" stroke="midnightblue" points="711.64,-322.03 719.62,-315.06 709.03,-315.53 711.64,-322.03"/>
</g>
<!-- Node16 -->
<g id="node16" class="node">
<title>Node16</title>
<g id="a_node16"><a xlink:title=" ">
<polygon fill="white" stroke="#bfbfbf" points="778,-290.5 778,-320.5 893,-320.5 893,-290.5 778,-290.5"/>
<text text-anchor="start" x="786" y="-308.5" font-family="Helvetica,sans-Serif" font-size="10.00">packages/primitives</text>
<text text-anchor="middle" x="835.5" y="-297.5" font-family="Helvetica,sans-Serif" font-size="10.00">/impl/Box_impl.hpp</text>
</a>
</g>
</g>
<!-- Node2&#45;&gt;Node16 -->
<g id="edge22" class="edge">
<title>Node2&#45;&gt;Node16</title>
<path fill="none" stroke="midnightblue" d="M606.23,-358.42C652.94,-347.85 718.8,-332.93 767.95,-321.8"/>
<polygon fill="midnightblue" stroke="midnightblue" points="768.88,-325.18 777.86,-319.55 767.33,-318.35 768.88,-325.18"/>
</g>
<!-- Node5 -->
<g id="node5" class="node">
<title>Node5</title>
<g id="a_node5"><a target="_parent" xlink:href="../../../cieutils/docs/html/basic__concepts_8hpp.html.html" xlink:title=" ">
<polygon fill="white" stroke="black" points="163.5,-145.5 163.5,-186.5 295.5,-186.5 295.5,-145.5 163.5,-145.5"/>
<text text-anchor="start" x="171.5" y="-174.5" font-family="Helvetica,sans-Serif" font-size="10.00">packages/compile_time</text>
<text text-anchor="start" x="171.5" y="-163.5" font-family="Helvetica,sans-Serif" font-size="10.00">/packages/concepts/inc</text>
<text text-anchor="middle" x="229.5" y="-152.5" font-family="Helvetica,sans-Serif" font-size="10.00">/basic_concepts.hpp</text>
</a>
</g>
</g>
<!-- Node4&#45;&gt;Node5 -->
<g id="edge4" class="edge">
<title>Node4&#45;&gt;Node5</title>
<path fill="none" stroke="midnightblue" d="M343.11,-223.4C324.48,-214.16 299.65,-201.83 277.95,-191.05"/>
<polygon fill="midnightblue" stroke="midnightblue" points="279.38,-187.86 268.87,-186.55 276.27,-194.13 279.38,-187.86"/>
</g>
<!-- Node6 -->
<g id="node6" class="node">
<title>Node6</title>
<g id="a_node6"><a xlink:href="Object_8hpp.html" target="_top" xlink:title=" ">
<polygon fill="white" stroke="black" points="314,-151 314,-181 429,-181 429,-151 314,-151"/>
<text text-anchor="start" x="322" y="-169" font-family="Helvetica,sans-Serif" font-size="10.00">packages/primitives</text>
<text text-anchor="middle" x="371.5" y="-158" font-family="Helvetica,sans-Serif" font-size="10.00">/inc/Object.hpp</text>
</a>
</g>
</g>
<!-- Node4&#45;&gt;Node6 -->
<g id="edge5" class="edge">
<title>Node4&#45;&gt;Node6</title>
<path fill="none" stroke="midnightblue" d="M371.5,-223.23C371.5,-214.16 371.5,-202.16 371.5,-191.58"/>
<polygon fill="midnightblue" stroke="midnightblue" points="375,-191.25 371.5,-181.25 368,-191.25 375,-191.25"/>
</g>
<!-- Node6&#45;&gt;Node3 -->
<g id="edge6" class="edge">
<title>Node6&#45;&gt;Node3</title>
<path fill="none" stroke="midnightblue" d="M327,-150.97C319.52,-148.83 311.82,-146.75 304.5,-145 217.52,-124.18 176.91,-164.16 106.5,-109 88.5,-94.89 78.57,-70.67 73.24,-51.36"/>
<polygon fill="midnightblue" stroke="midnightblue" points="76.6,-50.38 70.79,-41.51 69.81,-52.06 76.6,-50.38"/>
</g>
<!-- Node7 -->
<g id="node7" class="node">
<title>Node7</title>
<g id="a_node7"><a target="_parent" xlink:href="../../../cieutils/docs/html/typedefs_8hpp.html.html" xlink:title=" ">
<polygon fill="white" stroke="black" points="115,-78.5 115,-108.5 234,-108.5 234,-78.5 115,-78.5"/>
<text text-anchor="start" x="123" y="-96.5" font-family="Helvetica,sans-Serif" font-size="10.00">packages/macros/inc</text>
<text text-anchor="middle" x="174.5" y="-85.5" font-family="Helvetica,sans-Serif" font-size="10.00">/typedefs.hpp</text>
</a>
</g>
</g>
<!-- Node6&#45;&gt;Node7 -->
<g id="edge7" class="edge">
<title>Node6&#45;&gt;Node7</title>
<path fill="none" stroke="midnightblue" d="M332.11,-150.9C300.84,-139.71 256.95,-124.01 223.43,-112.01"/>
<polygon fill="midnightblue" stroke="midnightblue" points="224.42,-108.65 213.82,-108.57 222.06,-115.24 224.42,-108.65"/>
</g>
<!-- Node8 -->
<g id="node8" class="node">
<title>Node8</title>
<g id="a_node8"><a target="_parent" xlink:href="../../../cieutils/docs/html/types_8hpp.html.html" xlink:title=" ">
<polygon fill="white" stroke="black" points="218.5,-6 218.5,-36 328.5,-36 328.5,-6 218.5,-6"/>
<text text-anchor="start" x="226.5" y="-24" font-family="Helvetica,sans-Serif" font-size="10.00">packages/types/inc</text>
<text text-anchor="middle" x="273.5" y="-13" font-family="Helvetica,sans-Serif" font-size="10.00">/types.hpp</text>
</a>
</g>
</g>
<!-- Node6&#45;&gt;Node8 -->
<g id="edge8" class="edge">
<title>Node6&#45;&gt;Node8</title>
<path fill="none" stroke="midnightblue" d="M333.49,-150.96C314.63,-141.94 293.39,-128.26 281.5,-109 269.91,-90.23 268.91,-64.7 270.21,-46.16"/>
<polygon fill="midnightblue" stroke="midnightblue" points="273.69,-46.44 271.17,-36.15 266.73,-45.77 273.69,-46.44"/>
</g>
<!-- Node9 -->
<g id="node9" class="node">
<title>Node9</title>
<g id="a_node9"><a xlink:href="Traits_8hpp.html" target="_top" xlink:title=" ">
<polygon fill="white" stroke="black" points="367,-78.5 367,-108.5 482,-108.5 482,-78.5 367,-78.5"/>
<text text-anchor="start" x="375" y="-96.5" font-family="Helvetica,sans-Serif" font-size="10.00">packages/primitives</text>
<text text-anchor="middle" x="424.5" y="-85.5" font-family="Helvetica,sans-Serif" font-size="10.00">/inc/Traits.hpp</text>
</a>
</g>
</g>
<!-- Node6&#45;&gt;Node9 -->
<g id="edge9" class="edge">
<title>Node6&#45;&gt;Node9</title>
<path fill="none" stroke="midnightblue" d="M382.23,-150.73C389.55,-140.99 399.41,-127.87 407.76,-116.76"/>
<polygon fill="midnightblue" stroke="midnightblue" points="410.58,-118.84 413.79,-108.75 404.98,-114.64 410.58,-118.84"/>
</g>
<!-- Node6&#45;&gt;Node11 -->
<g id="edge15" class="edge">
<title>Node6&#45;&gt;Node11</title>
<path fill="none" stroke="midnightblue" d="M429.05,-159.92C497.26,-152.71 605.23,-137.14 633.5,-109 651.45,-91.13 654.21,-60.5 653.86,-40.76"/>
<polygon fill="midnightblue" stroke="midnightblue" points="657.35,-40.4 653.4,-30.57 650.36,-40.72 657.35,-40.4"/>
</g>
<!-- Node12 -->
<g id="node12" class="node">
<title>Node12</title>
<g id="a_node12"><a xlink:title=" ">
<polygon fill="white" stroke="#bfbfbf" points="290.5,-84 290.5,-103 348.5,-103 348.5,-84 290.5,-84"/>
<text text-anchor="middle" x="319.5" y="-91" font-family="Helvetica,sans-Serif" font-size="10.00">memory</text>
</a>
</g>
</g>
<!-- Node6&#45;&gt;Node12 -->
<g id="edge14" class="edge">
<title>Node6&#45;&gt;Node12</title>
<path fill="none" stroke="midnightblue" d="M360.98,-150.73C352.65,-139.45 341,-123.65 332.17,-111.67"/>
<polygon fill="midnightblue" stroke="midnightblue" points="334.81,-109.36 326.06,-103.39 329.18,-113.52 334.81,-109.36"/>
</g>
<!-- Node13 -->
<g id="node13" class="node">
<title>Node13</title>
<g id="a_node13"><a xlink:title=" ">
<polygon fill="white" stroke="#bfbfbf" points="500.5,-78.5 500.5,-108.5 624.5,-108.5 624.5,-78.5 500.5,-78.5"/>
<text text-anchor="start" x="508.5" y="-96.5" font-family="Helvetica,sans-Serif" font-size="10.00">packages/primitives</text>
<text text-anchor="middle" x="562.5" y="-85.5" font-family="Helvetica,sans-Serif" font-size="10.00">/impl/Object_impl.hpp</text>
</a>
</g>
</g>
<!-- Node6&#45;&gt;Node13 -->
<g id="edge16" class="edge">
<title>Node6&#45;&gt;Node13</title>
<path fill="none" stroke="midnightblue" d="M409.69,-150.9C439.88,-139.76 482.2,-124.14 514.64,-112.16"/>
<polygon fill="midnightblue" stroke="midnightblue" points="516.2,-115.32 524.37,-108.57 513.78,-108.75 516.2,-115.32"/>
</g>
<!-- Node9&#45;&gt;Node3 -->
<g id="edge11" class="edge">
<title>Node9&#45;&gt;Node3</title>
<path fill="none" stroke="midnightblue" d="M366.77,-79.92C363.64,-79.26 360.53,-78.62 357.5,-78 285.67,-63.29 203.62,-47.55 145.16,-36.51"/>
<polygon fill="midnightblue" stroke="midnightblue" points="145.74,-33.06 135.26,-34.64 144.44,-39.93 145.74,-33.06"/>
</g>
<!-- Node9&#45;&gt;Node8 -->
<g id="edge10" class="edge">
<title>Node9&#45;&gt;Node8</title>
<path fill="none" stroke="midnightblue" d="M394.31,-78.4C370.95,-67.5 338.42,-52.31 313,-40.44"/>
<polygon fill="midnightblue" stroke="midnightblue" points="314.18,-37.13 303.64,-36.07 311.22,-43.47 314.18,-37.13"/>
</g>
<!-- Node10 -->
<g id="node10" class="node">
<title>Node10</title>
<g id="a_node10"><a target="_parent" xlink:href="../../../cieutils/docs/html/StaticArray_8hpp.html.html" xlink:title=" ">
<polygon fill="white" stroke="black" points="359,-6 359,-36 490,-36 490,-6 359,-6"/>
<text text-anchor="start" x="367" y="-24" font-family="Helvetica,sans-Serif" font-size="10.00">packages/stl_extension</text>
<text text-anchor="middle" x="424.5" y="-13" font-family="Helvetica,sans-Serif" font-size="10.00">/inc/StaticArray.hpp</text>
</a>
</g>
</g>
<!-- Node9&#45;&gt;Node10 -->
<g id="edge12" class="edge">
<title>Node9&#45;&gt;Node10</title>
<path fill="none" stroke="midnightblue" d="M424.5,-78.23C424.5,-69.16 424.5,-57.16 424.5,-46.58"/>
<polygon fill="midnightblue" stroke="midnightblue" points="428,-46.25 424.5,-36.25 421,-46.25 428,-46.25"/>
</g>
<!-- Node9&#45;&gt;Node11 -->
<g id="edge13" class="edge">
<title>Node9&#45;&gt;Node11</title>
<path fill="none" stroke="midnightblue" d="M469.82,-78.49C514.76,-64.59 582.41,-43.67 621.54,-31.57"/>
<polygon fill="midnightblue" stroke="midnightblue" points="622.79,-34.85 631.31,-28.55 620.72,-28.16 622.79,-34.85"/>
</g>
<!-- Node14&#45;&gt;Node3 -->
<g id="edge18" class="edge">
<title>Node14&#45;&gt;Node3</title>
<path fill="none" stroke="midnightblue" d="M338.37,-290.46C294.11,-270.86 214.33,-232.54 154.5,-187 116.23,-157.87 100.48,-152.27 79.5,-109 70.91,-91.28 67.93,-69.28 67.09,-51.85"/>
<polygon fill="midnightblue" stroke="midnightblue" points="70.58,-51.56 66.81,-41.66 63.59,-51.75 70.58,-51.56"/>
</g>
<!-- Node14&#45;&gt;Node4 -->
<g id="edge19" class="edge">
<title>Node14&#45;&gt;Node4</title>
<path fill="none" stroke="midnightblue" d="M371.5,-290.4C371.5,-282.64 371.5,-272.81 371.5,-263.86"/>
<polygon fill="midnightblue" stroke="midnightblue" points="375,-263.58 371.5,-253.58 368,-263.58 375,-263.58"/>
</g>
</g>
</svg>
