<?xml version="1.0" encoding="UTF-8" standalone="no"?>
<!DOCTYPE svg PUBLIC "-//W3C//DTD SVG 1.1//EN"
 "http://www.w3.org/Graphics/SVG/1.1/DTD/svg11.dtd">
<!-- Generated by graphviz version 2.43.0 (0)
 -->
<!-- Title: AbsBoundableObject.hpp Pages: 1 -->
<svg width="878pt" height="530pt"
 viewBox="0.00 0.00 877.50 530.00" xmlns="http://www.w3.org/2000/svg" xmlns:xlink="http://www.w3.org/1999/xlink">
<g id="graph0" class="graph" transform="scale(1 1) rotate(0) translate(4 526)">
<title>AbsBoundableObject.hpp</title>
<polygon fill="white" stroke="transparent" points="-4,4 -4,-526 873.5,-526 873.5,4 -4,4"/>
<!-- Node1 -->
<g id="node1" class="node">
<title>Node1</title>
<g id="a_node1"><a xlink:title=" ">
<polygon fill="#bfbfbf" stroke="black" points="328.5,-502.5 328.5,-521.5 467.5,-521.5 467.5,-502.5 328.5,-502.5"/>
<text text-anchor="middle" x="398" y="-509.5" font-family="Helvetica,sans-Serif" font-size="10.00">AbsBoundableObject.hpp</text>
</a>
</g>
</g>
<!-- Node2 -->
<g id="node2" class="node">
<title>Node2</title>
<g id="a_node2"><a target="_parent" xlink:href="../../../cieutils/docs/html/basic__concepts_8hpp.html.html" xlink:title=" ">
<polygon fill="white" stroke="black" points="0,-145.5 0,-186.5 132,-186.5 132,-145.5 0,-145.5"/>
<text text-anchor="start" x="8" y="-174.5" font-family="Helvetica,sans-Serif" font-size="10.00">packages/compile_time</text>
<text text-anchor="start" x="8" y="-163.5" font-family="Helvetica,sans-Serif" font-size="10.00">/packages/concepts/inc</text>
<text text-anchor="middle" x="66" y="-152.5" font-family="Helvetica,sans-Serif" font-size="10.00">/basic_concepts.hpp</text>
</a>
</g>
</g>
<!-- Node1&#45;&gt;Node2 -->
<g id="edge1" class="edge">
<title>Node1&#45;&gt;Node2</title>
<path fill="none" stroke="midnightblue" d="M328.26,-509.03C238.51,-502.36 94,-475.74 94,-373.5 94,-373.5 94,-373.5 94,-304.5 94,-266.7 83.71,-224.2 75.61,-196.59"/>
<polygon fill="midnightblue" stroke="midnightblue" points="78.89,-195.34 72.64,-186.78 72.19,-197.37 78.89,-195.34"/>
</g>
<!-- Node3 -->
<g id="node3" class="node">
<title>Node3</title>
<g id="a_node3"><a xlink:href="AABBox_8hpp.html" target="_top" xlink:title=" ">
<polygon fill="white" stroke="black" points="283,-430 283,-460 405,-460 405,-430 283,-430"/>
<text text-anchor="start" x="291" y="-448" font-family="Helvetica,sans-Serif" font-size="10.00">packages/partitioning</text>
<text text-anchor="middle" x="344" y="-437" font-family="Helvetica,sans-Serif" font-size="10.00">/inc/AABBox.hpp</text>
</a>
</g>
</g>
<!-- Node1&#45;&gt;Node3 -->
<g id="edge2" class="edge">
<title>Node1&#45;&gt;Node3</title>
<path fill="none" stroke="midnightblue" d="M390.72,-502.23C383.42,-493.45 371.9,-479.58 362.12,-467.81"/>
<polygon fill="midnightblue" stroke="midnightblue" points="364.79,-465.54 355.7,-460.09 359.4,-470.02 364.79,-465.54"/>
</g>
<!-- Node19 -->
<g id="node19" class="node">
<title>Node19</title>
<g id="a_node19"><a xlink:title=" ">
<polygon fill="white" stroke="#bfbfbf" points="423,-435.5 423,-454.5 483,-454.5 483,-435.5 423,-435.5"/>
<text text-anchor="middle" x="453" y="-442.5" font-family="Helvetica,sans-Serif" font-size="10.00">concepts</text>
</a>
</g>
</g>
<!-- Node1&#45;&gt;Node19 -->
<g id="edge26" class="edge">
<title>Node1&#45;&gt;Node19</title>
<path fill="none" stroke="midnightblue" d="M405.42,-502.23C413.99,-492.1 428.3,-475.19 438.99,-462.56"/>
<polygon fill="midnightblue" stroke="midnightblue" points="441.91,-464.52 445.7,-454.63 436.57,-460 441.91,-464.52"/>
</g>
<!-- Node20 -->
<g id="node20" class="node">
<title>Node20</title>
<g id="a_node20"><a xlink:title=" ">
<polygon fill="white" stroke="#bfbfbf" points="501,-424.5 501,-465.5 647,-465.5 647,-424.5 501,-424.5"/>
<text text-anchor="start" x="509" y="-453.5" font-family="Helvetica,sans-Serif" font-size="10.00">packages/partitioning</text>
<text text-anchor="start" x="509" y="-442.5" font-family="Helvetica,sans-Serif" font-size="10.00">/impl/AbsBoundableObject</text>
<text text-anchor="middle" x="574" y="-431.5" font-family="Helvetica,sans-Serif" font-size="10.00">_impl.hpp</text>
</a>
</g>
</g>
<!-- Node1&#45;&gt;Node20 -->
<g id="edge27" class="edge">
<title>Node1&#45;&gt;Node20</title>
<path fill="none" stroke="midnightblue" d="M421.37,-502.37C444.25,-493.92 480.12,-480.67 511.34,-469.14"/>
<polygon fill="midnightblue" stroke="midnightblue" points="512.69,-472.37 520.86,-465.63 510.27,-465.81 512.69,-472.37"/>
</g>
<!-- Node4 -->
<g id="node4" class="node">
<title>Node4</title>
<g id="a_node4"><a xlink:href="Box_8hpp.html" target="_top" xlink:title=" ">
<polygon fill="white" stroke="black" points="286.5,-357.5 286.5,-387.5 401.5,-387.5 401.5,-357.5 286.5,-357.5"/>
<text text-anchor="start" x="294.5" y="-375.5" font-family="Helvetica,sans-Serif" font-size="10.00">packages/primitives</text>
<text text-anchor="middle" x="344" y="-364.5" font-family="Helvetica,sans-Serif" font-size="10.00">/inc/Box.hpp</text>
</a>
</g>
</g>
<!-- Node3&#45;&gt;Node4 -->
<g id="edge3" class="edge">
<title>Node3&#45;&gt;Node4</title>
<path fill="none" stroke="midnightblue" d="M344,-429.73C344,-420.66 344,-408.66 344,-398.08"/>
<polygon fill="midnightblue" stroke="midnightblue" points="347.5,-397.75 344,-387.75 340.5,-397.75 347.5,-397.75"/>
</g>
<!-- Node18 -->
<g id="node18" class="node">
<title>Node18</title>
<g id="a_node18"><a xlink:title=" ">
<polygon fill="white" stroke="#bfbfbf" points="419.5,-357.5 419.5,-387.5 550.5,-387.5 550.5,-357.5 419.5,-357.5"/>
<text text-anchor="start" x="427.5" y="-375.5" font-family="Helvetica,sans-Serif" font-size="10.00">packages/partitioning</text>
<text text-anchor="middle" x="485" y="-364.5" font-family="Helvetica,sans-Serif" font-size="10.00">/impl/AABBox_impl.hpp</text>
</a>
</g>
</g>
<!-- Node3&#45;&gt;Node18 -->
<g id="edge25" class="edge">
<title>Node3&#45;&gt;Node18</title>
<path fill="none" stroke="midnightblue" d="M372.19,-429.9C393.9,-419.05 424.11,-403.95 447.8,-392.1"/>
<polygon fill="midnightblue" stroke="midnightblue" points="449.48,-395.18 456.85,-387.57 446.34,-388.91 449.48,-395.18"/>
</g>
<!-- Node5 -->
<g id="node5" class="node">
<title>Node5</title>
<g id="a_node5"><a target="_parent" xlink:href="../../../cieutils/docs/html/container__concepts_8hpp.html.html" xlink:title=" ">
<polygon fill="white" stroke="black" points="734.5,-0.5 734.5,-41.5 869.5,-41.5 869.5,-0.5 734.5,-0.5"/>
<text text-anchor="start" x="742.5" y="-29.5" font-family="Helvetica,sans-Serif" font-size="10.00">packages/compile_time</text>
<text text-anchor="start" x="742.5" y="-18.5" font-family="Helvetica,sans-Serif" font-size="10.00">/packages/concepts/inc</text>
<text text-anchor="middle" x="802" y="-7.5" font-family="Helvetica,sans-Serif" font-size="10.00">/container_concepts.hpp</text>
</a>
</g>
</g>
<!-- Node4&#45;&gt;Node5 -->
<g id="edge4" class="edge">
<title>Node4&#45;&gt;Node5</title>
<path fill="none" stroke="midnightblue" d="M401.7,-358.79C404.84,-358.17 407.96,-357.57 411,-357 508.17,-338.86 840,-338.34 840,-239.5 840,-239.5 840,-239.5 840,-165 840,-124.56 825.63,-79.77 814.56,-51.28"/>
<polygon fill="midnightblue" stroke="midnightblue" points="817.78,-49.9 810.81,-41.92 811.28,-52.51 817.78,-49.9"/>
</g>
<!-- Node6 -->
<g id="node6" class="node">
<title>Node6</title>
<g id="a_node6"><a xlink:href="Primitive_8hpp.html" target="_top" xlink:title=" ">
<polygon fill="white" stroke="black" points="340.5,-223.5 340.5,-253.5 455.5,-253.5 455.5,-223.5 340.5,-223.5"/>
<text text-anchor="start" x="348.5" y="-241.5" font-family="Helvetica,sans-Serif" font-size="10.00">packages/primitives</text>
<text text-anchor="middle" x="398" y="-230.5" font-family="Helvetica,sans-Serif" font-size="10.00">/inc/Primitive.hpp</text>
</a>
</g>
</g>
<!-- Node4&#45;&gt;Node6 -->
<g id="edge5" class="edge">
<title>Node4&#45;&gt;Node6</title>
<path fill="none" stroke="midnightblue" d="M331.61,-357.34C318.55,-340.59 301.46,-312.18 314,-290 321.77,-276.27 334.92,-265.86 348.54,-258.17"/>
<polygon fill="midnightblue" stroke="midnightblue" points="350.26,-261.22 357.51,-253.5 347.03,-255.02 350.26,-261.22"/>
</g>
<!-- Node12 -->
<g id="node12" class="node">
<title>Node12</title>
<g id="a_node12"><a xlink:title=" ">
<polygon fill="white" stroke="#bfbfbf" points="177,-11.5 177,-30.5 219,-30.5 219,-11.5 177,-11.5"/>
<text text-anchor="middle" x="198" y="-18.5" font-family="Helvetica,sans-Serif" font-size="10.00">array</text>
</a>
</g>
</g>
<!-- Node4&#45;&gt;Node12 -->
<g id="edge23" class="edge">
<title>Node4&#45;&gt;Node12</title>
<path fill="none" stroke="midnightblue" d="M289.29,-357.43C235.05,-339.79 160,-303.78 160,-239.5 160,-239.5 160,-239.5 160,-165 160,-118.74 178.81,-66.79 189.96,-40.06"/>
<polygon fill="midnightblue" stroke="midnightblue" points="193.2,-41.39 193.93,-30.82 186.77,-38.62 193.2,-41.39"/>
</g>
<!-- Node15 -->
<g id="node15" class="node">
<title>Node15</title>
<g id="a_node15"><a xlink:href="primitives_2inc_2concepts_8hpp.html" target="_top" xlink:title=" ">
<polygon fill="white" stroke="black" points="515.5,-290.5 515.5,-320.5 630.5,-320.5 630.5,-290.5 515.5,-290.5"/>
<text text-anchor="start" x="523.5" y="-308.5" font-family="Helvetica,sans-Serif" font-size="10.00">packages/primitives</text>
<text text-anchor="middle" x="573" y="-297.5" font-family="Helvetica,sans-Serif" font-size="10.00">/inc/concepts.hpp</text>
</a>
</g>
</g>
<!-- Node4&#45;&gt;Node15 -->
<g id="edge19" class="edge">
<title>Node4&#45;&gt;Node15</title>
<path fill="none" stroke="midnightblue" d="M393.41,-357.48C428.65,-347.47 476.22,-333.97 513.54,-323.38"/>
<polygon fill="midnightblue" stroke="midnightblue" points="514.62,-326.71 523.29,-320.61 512.71,-319.97 514.62,-326.71"/>
</g>
<!-- Node16 -->
<g id="node16" class="node">
<title>Node16</title>
<g id="a_node16"><a xlink:title=" ">
<polygon fill="white" stroke="#bfbfbf" points="323.5,-296 323.5,-315 364.5,-315 364.5,-296 323.5,-296"/>
<text text-anchor="middle" x="344" y="-303" font-family="Helvetica,sans-Serif" font-size="10.00">tuple</text>
</a>
</g>
</g>
<!-- Node4&#45;&gt;Node16 -->
<g id="edge22" class="edge">
<title>Node4&#45;&gt;Node16</title>
<path fill="none" stroke="midnightblue" d="M344,-357.4C344,-348.06 344,-335.71 344,-325.52"/>
<polygon fill="midnightblue" stroke="midnightblue" points="347.5,-325.19 344,-315.19 340.5,-325.19 347.5,-325.19"/>
</g>
<!-- Node17 -->
<g id="node17" class="node">
<title>Node17</title>
<g id="a_node17"><a xlink:title=" ">
<polygon fill="white" stroke="#bfbfbf" points="382.5,-290.5 382.5,-320.5 497.5,-320.5 497.5,-290.5 382.5,-290.5"/>
<text text-anchor="start" x="390.5" y="-308.5" font-family="Helvetica,sans-Serif" font-size="10.00">packages/primitives</text>
<text text-anchor="middle" x="440" y="-297.5" font-family="Helvetica,sans-Serif" font-size="10.00">/impl/Box_impl.hpp</text>
</a>
</g>
</g>
<!-- Node4&#45;&gt;Node17 -->
<g id="edge24" class="edge">
<title>Node4&#45;&gt;Node17</title>
<path fill="none" stroke="midnightblue" d="M364.83,-357.4C378.29,-348.28 396,-336.29 410.85,-326.24"/>
<polygon fill="midnightblue" stroke="midnightblue" points="412.89,-329.08 419.21,-320.58 408.97,-323.28 412.89,-329.08"/>
</g>
<!-- Node6&#45;&gt;Node2 -->
<g id="edge6" class="edge">
<title>Node6&#45;&gt;Node2</title>
<path fill="none" stroke="midnightblue" d="M340.17,-225.22C285.26,-213.56 202.39,-195.96 142.13,-183.17"/>
<polygon fill="midnightblue" stroke="midnightblue" points="142.8,-179.73 132.29,-181.08 141.34,-186.58 142.8,-179.73"/>
</g>
<!-- Node7 -->
<g id="node7" class="node">
<title>Node7</title>
<g id="a_node7"><a xlink:href="Object_8hpp.html" target="_top" xlink:title=" ">
<polygon fill="white" stroke="black" points="389.5,-151 389.5,-181 504.5,-181 504.5,-151 389.5,-151"/>
<text text-anchor="start" x="397.5" y="-169" font-family="Helvetica,sans-Serif" font-size="10.00">packages/primitives</text>
<text text-anchor="middle" x="447" y="-158" font-family="Helvetica,sans-Serif" font-size="10.00">/inc/Object.hpp</text>
</a>
</g>
</g>
<!-- Node6&#45;&gt;Node7 -->
<g id="edge7" class="edge">
<title>Node6&#45;&gt;Node7</title>
<path fill="none" stroke="midnightblue" d="M407.92,-223.23C414.62,-213.58 423.63,-200.63 431.3,-189.59"/>
<polygon fill="midnightblue" stroke="midnightblue" points="434.27,-191.45 437.1,-181.25 428.52,-187.46 434.27,-191.45"/>
</g>
<!-- Node7&#45;&gt;Node5 -->
<g id="edge8" class="edge">
<title>Node7&#45;&gt;Node5</title>
<path fill="none" stroke="midnightblue" d="M504.53,-163.81C563.27,-160.3 655.33,-148.29 724,-109 749,-94.7 770.26,-69.5 784.24,-49.89"/>
<polygon fill="midnightblue" stroke="midnightblue" points="787.16,-51.82 789.96,-41.6 781.4,-47.84 787.16,-51.82"/>
</g>
<!-- Node8 -->
<g id="node8" class="node">
<title>Node8</title>
<g id="a_node8"><a target="_parent" xlink:href="../../../cieutils/docs/html/typedefs_8hpp.html.html" xlink:title=" ">
<polygon fill="white" stroke="black" points="226.5,-78.5 226.5,-108.5 345.5,-108.5 345.5,-78.5 226.5,-78.5"/>
<text text-anchor="start" x="234.5" y="-96.5" font-family="Helvetica,sans-Serif" font-size="10.00">packages/macros/inc</text>
<text text-anchor="middle" x="286" y="-85.5" font-family="Helvetica,sans-Serif" font-size="10.00">/typedefs.hpp</text>
</a>
</g>
</g>
<!-- Node7&#45;&gt;Node8 -->
<g id="edge9" class="edge">
<title>Node7&#45;&gt;Node8</title>
<path fill="none" stroke="midnightblue" d="M414.81,-150.9C389.69,-139.9 354.61,-124.54 327.4,-112.63"/>
<polygon fill="midnightblue" stroke="midnightblue" points="328.7,-109.38 318.14,-108.57 325.89,-115.79 328.7,-109.38"/>
</g>
<!-- Node9 -->
<g id="node9" class="node">
<title>Node9</title>
<g id="a_node9"><a target="_parent" xlink:href="../../../cieutils/docs/html/types_8hpp.html.html" xlink:title=" ">
<polygon fill="white" stroke="black" points="606,-6 606,-36 716,-36 716,-6 606,-6"/>
<text text-anchor="start" x="614" y="-24" font-family="Helvetica,sans-Serif" font-size="10.00">packages/types/inc</text>
<text text-anchor="middle" x="661" y="-13" font-family="Helvetica,sans-Serif" font-size="10.00">/types.hpp</text>
</a>
</g>
</g>
<!-- Node7&#45;&gt;Node9 -->
<g id="edge10" class="edge">
<title>Node7&#45;&gt;Node9</title>
<path fill="none" stroke="midnightblue" d="M504.55,-160.85C573.26,-154.55 682.05,-139.89 707,-109 723.25,-88.88 704.2,-62.13 685.91,-43.63"/>
<polygon fill="midnightblue" stroke="midnightblue" points="687.86,-40.66 678.23,-36.25 683.02,-45.7 687.86,-40.66"/>
</g>
<!-- Node10 -->
<g id="node10" class="node">
<title>Node10</title>
<g id="a_node10"><a xlink:href="Traits_8hpp.html" target="_top" xlink:title=" ">
<polygon fill="white" stroke="black" points="582.5,-78.5 582.5,-108.5 697.5,-108.5 697.5,-78.5 582.5,-78.5"/>
<text text-anchor="start" x="590.5" y="-96.5" font-family="Helvetica,sans-Serif" font-size="10.00">packages/primitives</text>
<text text-anchor="middle" x="640" y="-85.5" font-family="Helvetica,sans-Serif" font-size="10.00">/inc/Traits.hpp</text>
</a>
</g>
</g>
<!-- Node7&#45;&gt;Node10 -->
<g id="edge11" class="edge">
<title>Node7&#45;&gt;Node10</title>
<path fill="none" stroke="midnightblue" d="M485.59,-150.9C516.23,-139.71 559.22,-124.01 592.07,-112.01"/>
<polygon fill="midnightblue" stroke="midnightblue" points="593.28,-115.29 601.47,-108.57 590.88,-108.72 593.28,-115.29"/>
</g>
<!-- Node7&#45;&gt;Node12 -->
<g id="edge17" class="edge">
<title>Node7&#45;&gt;Node12</title>
<path fill="none" stroke="midnightblue" d="M389.45,-158C329.39,-149.51 240.69,-133.26 217,-109 199.3,-90.88 196.48,-60.31 196.73,-40.66"/>
<polygon fill="midnightblue" stroke="midnightblue" points="200.24,-40.66 197.15,-30.52 193.24,-40.37 200.24,-40.66"/>
</g>
<!-- Node13 -->
<g id="node13" class="node">
<title>Node13</title>
<g id="a_node13"><a xlink:title=" ">
<polygon fill="white" stroke="#bfbfbf" points="364,-84 364,-103 422,-103 422,-84 364,-84"/>
<text text-anchor="middle" x="393" y="-91" font-family="Helvetica,sans-Serif" font-size="10.00">memory</text>
</a>
</g>
</g>
<!-- Node7&#45;&gt;Node13 -->
<g id="edge16" class="edge">
<title>Node7&#45;&gt;Node13</title>
<path fill="none" stroke="midnightblue" d="M436.07,-150.73C427.43,-139.45 415.33,-123.65 406.15,-111.67"/>
<polygon fill="midnightblue" stroke="midnightblue" points="408.67,-109.2 399.81,-103.39 403.11,-113.46 408.67,-109.2"/>
</g>
<!-- Node14 -->
<g id="node14" class="node">
<title>Node14</title>
<g id="a_node14"><a xlink:title=" ">
<polygon fill="white" stroke="#bfbfbf" points="440,-78.5 440,-108.5 564,-108.5 564,-78.5 440,-78.5"/>
<text text-anchor="start" x="448" y="-96.5" font-family="Helvetica,sans-Serif" font-size="10.00">packages/primitives</text>
<text text-anchor="middle" x="502" y="-85.5" font-family="Helvetica,sans-Serif" font-size="10.00">/impl/Object_impl.hpp</text>
</a>
</g>
</g>
<!-- Node7&#45;&gt;Node14 -->
<g id="edge18" class="edge">
<title>Node7&#45;&gt;Node14</title>
<path fill="none" stroke="midnightblue" d="M458.13,-150.73C465.73,-140.99 475.96,-127.87 484.63,-116.76"/>
<polygon fill="midnightblue" stroke="midnightblue" points="487.5,-118.78 490.89,-108.75 481.98,-114.48 487.5,-118.78"/>
</g>
<!-- Node10&#45;&gt;Node5 -->
<g id="edge13" class="edge">
<title>Node10&#45;&gt;Node5</title>
<path fill="none" stroke="midnightblue" d="M672.39,-78.4C693.93,-69.03 722.73,-56.5 747.72,-45.62"/>
<polygon fill="midnightblue" stroke="midnightblue" points="749.31,-48.75 757.08,-41.55 746.52,-42.33 749.31,-48.75"/>
</g>
<!-- Node10&#45;&gt;Node9 -->
<g id="edge12" class="edge">
<title>Node10&#45;&gt;Node9</title>
<path fill="none" stroke="midnightblue" d="M644.25,-78.23C647.01,-68.96 650.68,-56.65 653.88,-45.91"/>
<polygon fill="midnightblue" stroke="midnightblue" points="657.26,-46.83 656.76,-36.25 650.55,-44.83 657.26,-46.83"/>
</g>
<!-- Node11 -->
<g id="node11" class="node">
<title>Node11</title>
<g id="a_node11"><a target="_parent" xlink:href="../../../cieutils/docs/html/StaticArray_8hpp.html.html" xlink:title=" ">
<polygon fill="white" stroke="black" points="456.5,-6 456.5,-36 587.5,-36 587.5,-6 456.5,-6"/>
<text text-anchor="start" x="464.5" y="-24" font-family="Helvetica,sans-Serif" font-size="10.00">packages/stl_extension</text>
<text text-anchor="middle" x="522" y="-13" font-family="Helvetica,sans-Serif" font-size="10.00">/inc/StaticArray.hpp</text>
</a>
</g>
</g>
<!-- Node10&#45;&gt;Node11 -->
<g id="edge14" class="edge">
<title>Node10&#45;&gt;Node11</title>
<path fill="none" stroke="midnightblue" d="M616.4,-78.4C598.56,-67.74 573.85,-52.98 554.19,-41.23"/>
<polygon fill="midnightblue" stroke="midnightblue" points="555.93,-38.2 545.55,-36.07 552.34,-44.21 555.93,-38.2"/>
</g>
<!-- Node10&#45;&gt;Node12 -->
<g id="edge15" class="edge">
<title>Node10&#45;&gt;Node12</title>
<path fill="none" stroke="midnightblue" d="M582.3,-79.76C579.16,-79.15 576.04,-78.56 573,-78 446.03,-54.8 293.56,-34.29 229.14,-25.96"/>
<polygon fill="midnightblue" stroke="midnightblue" points="229.59,-22.48 219.22,-24.68 228.7,-29.43 229.59,-22.48"/>
</g>
<!-- Node15&#45;&gt;Node5 -->
<g id="edge20" class="edge">
<title>Node15&#45;&gt;Node5</title>
<path fill="none" stroke="midnightblue" d="M588.69,-290.48C622.31,-259.91 702.56,-183.95 756,-109 769.06,-90.69 780.85,-68.21 789.22,-50.69"/>
<polygon fill="midnightblue" stroke="midnightblue" points="792.44,-52.06 793.51,-41.52 786.1,-49.09 792.44,-52.06"/>
</g>
<!-- Node15&#45;&gt;Node6 -->
<g id="edge21" class="edge">
<title>Node15&#45;&gt;Node6</title>
<path fill="none" stroke="midnightblue" d="M535.03,-290.4C508.77,-280.64 473.64,-267.59 445.52,-257.15"/>
<polygon fill="midnightblue" stroke="midnightblue" points="446.49,-253.78 435.9,-253.58 444.05,-260.34 446.49,-253.78"/>
</g>
</g>
</svg>
