<?xml version="1.0" encoding="UTF-8" standalone="no"?>
<!DOCTYPE svg PUBLIC "-//W3C//DTD SVG 1.1//EN"
 "http://www.w3.org/Graphics/SVG/1.1/DTD/svg11.dtd">
<!-- Generated by graphviz version 2.43.0 (0)
 -->
<!-- Title: AbsCell.hpp Pages: 1 -->
<!--zoomable 396 -->
<svg id="main" version="1.1" xmlns="http://www.w3.org/2000/svg" xmlns:xlink="http://www.w3.org/1999/xlink" xml:space="preserve" onload="init(evt)">
<style type="text/css"><![CDATA[
.edge:hover path { stroke: red; }
.edge:hover polygon { stroke: red; fill: red; }
]]></style>
<script type="text/javascript"><![CDATA[
var edges = document.getElementsByTagName('g');
if (edges && edges.length) {
  for (var i=0;i<edges.length;i++) {
    if (edges[i].id.substr(0,4)=='edge') {
      edges[i].setAttribute('class','edge');
    }
  }
}
]]></script>
        <defs>
                <circle id="rim" cx="0" cy="0" r="7"/>
                <circle id="rim2" cx="0" cy="0" r="3.5"/>
                <g id="zoomPlus">
                        <use xlink:href="#rim" fill="#404040">
                                <set attributeName="fill" to="#808080" begin="zoomplus.mouseover" end="zoomplus.mouseout"/>
                        </use>
                        <path d="M-4,0h8M0,-4v8" fill="none" stroke="white" stroke-width="1.5" pointer-events="none"/>
                </g>
                <g id="zoomMin">
                        <use xlink:href="#rim" fill="#404040">
                                <set attributeName="fill" to="#808080" begin="zoomminus.mouseover" end="zoomminus.mouseout"/>
                        </use>
                        <path d="M-4,0h8" fill="none" stroke="white" stroke-width="1.5" pointer-events="none"/>
                </g>
                <g id="dirArrow">
                        <path fill="none" stroke="white" stroke-width="1.5" d="M0,-3.0v7 M-2.5,-0.5L0,-3.0L2.5,-0.5"/>
                </g>
               <g id="resetDef">
                       <use xlink:href="#rim2" fill="#404040">
                               <set attributeName="fill" to="#808080" begin="reset.mouseover" end="reset.mouseout"/>
                       </use>
               </g>
        </defs>

<script type="text/javascript">
var viewWidth = 801;
var viewHeight = 396;
var sectionId = 'dynsection-0';
</script>
<script xlink:href="svgpan.js"/>
<svg id="graph" class="graph">
<g id="viewport">
<title>AbsCell.hpp</title>
<polygon fill="white" stroke="transparent" points="-4,4 -4,-392 796.55,-392 796.55,4 -4,4"/>
<!-- Node1 -->
<g id="node1" class="node">
<title>Node1</title>
<g id="a_node1"><a xlink:title=" ">
<polygon fill="#bfbfbf" stroke="black" points="212.05,-368.5 212.05,-387.5 286.05,-387.5 286.05,-368.5 212.05,-368.5"/>
<text text-anchor="middle" x="249.05" y="-375.5" font-family="Helvetica,sans-Serif" font-size="10.00">AbsCell.hpp</text>
</a>
</g>
</g>
<!-- Node2 -->
<g id="node2" class="node">
<title>Node2</title>
<g id="a_node2"><a xlink:href="Primitive_8hpp.html" target="_top" xlink:title=" ">
<polygon fill="white" stroke="black" points="172.55,-223.5 172.55,-253.5 287.55,-253.5 287.55,-223.5 172.55,-223.5"/>
<text text-anchor="start" x="180.55" y="-241.5" font-family="Helvetica,sans-Serif" font-size="10.00">packages/primitives</text>
<text text-anchor="middle" x="230.05" y="-230.5" font-family="Helvetica,sans-Serif" font-size="10.00">/inc/Primitive.hpp</text>
</a>
</g>
</g>
<!-- Node1&#45;&gt;Node2 -->
<g id="edge1" class="edge">
<title>Node1&#45;&gt;Node2</title>
<path fill="none" stroke="midnightblue" d="M226.59,-368.38C211.28,-361.18 192.19,-349.29 183.05,-332 174.33,-315.5 176.22,-307.37 183.05,-290 187.42,-278.91 195.49,-268.81 203.73,-260.6"/>
<polygon fill="midnightblue" stroke="midnightblue" points="206.3,-263 211.24,-253.63 201.53,-257.87 206.3,-263"/>
</g>
<!-- Node3 -->
<g id="node3" class="node">
<title>Node3</title>
<g id="a_node3"><a target="_parent" xlink:href="../../../cieutils/docs/html/basic__concepts_8hpp.html.html" xlink:title=" ">
<polygon fill="white" stroke="black" points="87.05,-145.5 87.05,-186.5 219.05,-186.5 219.05,-145.5 87.05,-145.5"/>
<text text-anchor="start" x="95.05" y="-174.5" font-family="Helvetica,sans-Serif" font-size="10.00">packages/compile_time</text>
<text text-anchor="start" x="95.05" y="-163.5" font-family="Helvetica,sans-Serif" font-size="10.00">/packages/concepts/inc</text>
<text text-anchor="middle" x="153.05" y="-152.5" font-family="Helvetica,sans-Serif" font-size="10.00">/basic_concepts.hpp</text>
</a>
</g>
</g>
<!-- Node1&#45;&gt;Node3 -->
<g id="edge19" class="edge">
<title>Node1&#45;&gt;Node3</title>
<path fill="none" stroke="midnightblue" d="M222.87,-368.43C205.8,-361.41 184.62,-349.72 173.05,-332 146.32,-291.05 146.21,-232.01 149.2,-196.78"/>
<polygon fill="midnightblue" stroke="midnightblue" points="152.7,-196.95 150.2,-186.65 145.73,-196.26 152.7,-196.95"/>
</g>
<!-- Node7 -->
<g id="node7" class="node">
<title>Node7</title>
<g id="a_node7"><a target="_parent" xlink:href="../../../cieutils/docs/html/types_8hpp.html.html" xlink:title=" ">
<polygon fill="white" stroke="black" points="60.05,-6 60.05,-36 170.05,-36 170.05,-6 60.05,-6"/>
<text text-anchor="start" x="68.05" y="-24" font-family="Helvetica,sans-Serif" font-size="10.00">packages/types/inc</text>
<text text-anchor="middle" x="115.05" y="-13" font-family="Helvetica,sans-Serif" font-size="10.00">/types.hpp</text>
</a>
</g>
</g>
<!-- Node1&#45;&gt;Node7 -->
<g id="edge21" class="edge">
<title>Node1&#45;&gt;Node7</title>
<path fill="none" stroke="midnightblue" d="M211.92,-373.45C142.74,-364.57 1.05,-334.76 1.05,-239.5 1.05,-239.5 1.05,-239.5 1.05,-165 1.05,-125.42 -3.16,-110.06 20.05,-78 31.7,-61.91 49.52,-49.66 66.59,-40.78"/>
<polygon fill="midnightblue" stroke="midnightblue" points="68.51,-43.74 75.95,-36.19 65.43,-37.45 68.51,-43.74"/>
</g>
<!-- Node11 -->
<g id="node11" class="node">
<title>Node11</title>
<g id="a_node11"><a xlink:title=" ">
<polygon fill="white" stroke="#bfbfbf" points="29.05,-84 29.05,-103 87.05,-103 87.05,-84 29.05,-84"/>
<text text-anchor="middle" x="58.05" y="-91" font-family="Helvetica,sans-Serif" font-size="10.00">memory</text>
</a>
</g>
</g>
<!-- Node1&#45;&gt;Node11 -->
<g id="edge22" class="edge">
<title>Node1&#45;&gt;Node11</title>
<path fill="none" stroke="midnightblue" d="M217.18,-368.41C196.28,-361.44 169.51,-349.81 151.05,-332 86.55,-269.78 65.91,-157.5 60.09,-113.2"/>
<polygon fill="midnightblue" stroke="midnightblue" points="63.57,-112.76 58.89,-103.26 56.62,-113.6 63.57,-112.76"/>
</g>
<!-- Node13 -->
<g id="node13" class="node">
<title>Node13</title>
<g id="a_node13"><a xlink:href="primitives_2inc_2concepts_8hpp.html" target="_top" xlink:title=" ">
<polygon fill="white" stroke="black" points="191.55,-296 191.55,-326 306.55,-326 306.55,-296 191.55,-296"/>
<text text-anchor="start" x="199.55" y="-314" font-family="Helvetica,sans-Serif" font-size="10.00">packages/primitives</text>
<text text-anchor="middle" x="249.05" y="-303" font-family="Helvetica,sans-Serif" font-size="10.00">/inc/concepts.hpp</text>
</a>
</g>
</g>
<!-- Node1&#45;&gt;Node13 -->
<g id="edge15" class="edge">
<title>Node1&#45;&gt;Node13</title>
<path fill="none" stroke="midnightblue" d="M249.05,-368.23C249.05,-360.04 249.05,-347.42 249.05,-336.21"/>
<polygon fill="midnightblue" stroke="midnightblue" points="252.55,-336.09 249.05,-326.09 245.55,-336.09 252.55,-336.09"/>
</g>
<!-- Node14 -->
<g id="node14" class="node">
<title>Node14</title>
<g id="a_node14"><a target="_parent" xlink:href="../../../cieutils/docs/html/abstree_8hpp.html.html" xlink:title=" ">
<polygon fill="white" stroke="black" points="324.55,-296 324.55,-326 431.55,-326 431.55,-296 324.55,-296"/>
<text text-anchor="start" x="332.55" y="-314" font-family="Helvetica,sans-Serif" font-size="10.00">packages/trees/inc</text>
<text text-anchor="middle" x="378.05" y="-303" font-family="Helvetica,sans-Serif" font-size="10.00">/abstree.hpp</text>
</a>
</g>
</g>
<!-- Node1&#45;&gt;Node14 -->
<g id="edge18" class="edge">
<title>Node1&#45;&gt;Node14</title>
<path fill="none" stroke="midnightblue" d="M266.18,-368.37C285.14,-358.81 316.28,-343.13 340.89,-330.72"/>
<polygon fill="midnightblue" stroke="midnightblue" points="342.61,-333.78 349.97,-326.15 339.46,-327.53 342.61,-333.78"/>
</g>
<!-- Node15 -->
<g id="node15" class="node">
<title>Node15</title>
<g id="a_node15"><a target="_parent" xlink:href="../../../cieutils/docs/html/partial__specialization_8hpp.html.html" xlink:title=" ">
<polygon fill="white" stroke="black" points="449.55,-290.5 449.55,-331.5 594.55,-331.5 594.55,-290.5 449.55,-290.5"/>
<text text-anchor="start" x="457.55" y="-319.5" font-family="Helvetica,sans-Serif" font-size="10.00">packages/compile_time</text>
<text text-anchor="start" x="457.55" y="-308.5" font-family="Helvetica,sans-Serif" font-size="10.00">/packages/concepts/inc</text>
<text text-anchor="middle" x="522.05" y="-297.5" font-family="Helvetica,sans-Serif" font-size="10.00">/partial_specialization.hpp</text>
</a>
</g>
</g>
<!-- Node1&#45;&gt;Node15 -->
<g id="edge20" class="edge">
<title>Node1&#45;&gt;Node15</title>
<path fill="none" stroke="midnightblue" d="M286.25,-368.42C322.91,-359.93 380.78,-346.45 439.41,-332.38"/>
<polygon fill="midnightblue" stroke="midnightblue" points="440.3,-335.77 449.2,-330.03 438.66,-328.96 440.3,-335.77"/>
</g>
<!-- Node16 -->
<g id="node16" class="node">
<title>Node16</title>
<g id="a_node16"><a xlink:title=" ">
<polygon fill="white" stroke="#bfbfbf" points="612.55,-301.5 612.55,-320.5 659.55,-320.5 659.55,-301.5 612.55,-301.5"/>
<text text-anchor="middle" x="636.05" y="-308.5" font-family="Helvetica,sans-Serif" font-size="10.00">vector</text>
</a>
</g>
</g>
<!-- Node1&#45;&gt;Node16 -->
<g id="edge23" class="edge">
<title>Node1&#45;&gt;Node16</title>
<path fill="none" stroke="midnightblue" d="M286.28,-377.47C352.29,-377.17 493.3,-371.47 604.05,-332 608.22,-330.52 612.41,-328.42 616.33,-326.15"/>
<polygon fill="midnightblue" stroke="midnightblue" points="618.29,-329.04 624.82,-320.7 614.52,-323.15 618.29,-329.04"/>
</g>
<!-- Node17 -->
<g id="node17" class="node">
<title>Node17</title>
<g id="a_node17"><a xlink:title=" ">
<polygon fill="white" stroke="#bfbfbf" points="677.55,-296 677.55,-326 792.55,-326 792.55,-296 677.55,-296"/>
<text text-anchor="start" x="685.55" y="-314" font-family="Helvetica,sans-Serif" font-size="10.00">packages/trees/impl</text>
<text text-anchor="middle" x="735.05" y="-303" font-family="Helvetica,sans-Serif" font-size="10.00">/AbsCell_impl.hpp</text>
</a>
</g>
</g>
<!-- Node1&#45;&gt;Node17 -->
<g id="edge24" class="edge">
<title>Node1&#45;&gt;Node17</title>
<path fill="none" stroke="midnightblue" d="M286.21,-375.36C359.89,-371.59 529.45,-360.37 669.05,-332 673.53,-331.09 678.14,-330.01 682.74,-328.82"/>
<polygon fill="midnightblue" stroke="midnightblue" points="684.02,-332.1 692.75,-326.1 682.18,-325.35 684.02,-332.1"/>
</g>
<!-- Node2&#45;&gt;Node3 -->
<g id="edge2" class="edge">
<title>Node2&#45;&gt;Node3</title>
<path fill="none" stroke="midnightblue" d="M214.47,-223.23C205.12,-214.67 192.92,-203.5 181.87,-193.38"/>
<polygon fill="midnightblue" stroke="midnightblue" points="184.19,-190.76 174.45,-186.59 179.46,-195.92 184.19,-190.76"/>
</g>
<!-- Node4 -->
<g id="node4" class="node">
<title>Node4</title>
<g id="a_node4"><a xlink:href="Object_8hpp.html" target="_top" xlink:title=" ">
<polygon fill="white" stroke="black" points="237.55,-151 237.55,-181 352.55,-181 352.55,-151 237.55,-151"/>
<text text-anchor="start" x="245.55" y="-169" font-family="Helvetica,sans-Serif" font-size="10.00">packages/primitives</text>
<text text-anchor="middle" x="295.05" y="-158" font-family="Helvetica,sans-Serif" font-size="10.00">/inc/Object.hpp</text>
</a>
</g>
</g>
<!-- Node2&#45;&gt;Node4 -->
<g id="edge3" class="edge">
<title>Node2&#45;&gt;Node4</title>
<path fill="none" stroke="midnightblue" d="M243.21,-223.23C252.37,-213.3 264.76,-199.86 275.13,-188.61"/>
<polygon fill="midnightblue" stroke="midnightblue" points="277.71,-190.97 281.92,-181.25 272.57,-186.23 277.71,-190.97"/>
</g>
<!-- Node5 -->
<g id="node5" class="node">
<title>Node5</title>
<g id="a_node5"><a target="_parent" xlink:href="../../../cieutils/docs/html/container__concepts_8hpp.html.html" xlink:title=" ">
<polygon fill="white" stroke="black" points="536.55,-0.5 536.55,-41.5 671.55,-41.5 671.55,-0.5 536.55,-0.5"/>
<text text-anchor="start" x="544.55" y="-29.5" font-family="Helvetica,sans-Serif" font-size="10.00">packages/compile_time</text>
<text text-anchor="start" x="544.55" y="-18.5" font-family="Helvetica,sans-Serif" font-size="10.00">/packages/concepts/inc</text>
<text text-anchor="middle" x="604.05" y="-7.5" font-family="Helvetica,sans-Serif" font-size="10.00">/container_concepts.hpp</text>
</a>
</g>
</g>
<!-- Node4&#45;&gt;Node5 -->
<g id="edge4" class="edge">
<title>Node4&#45;&gt;Node5</title>
<path fill="none" stroke="midnightblue" d="M352.85,-161.25C427.8,-155.17 552.76,-140.52 585.05,-109 600.01,-94.4 604.47,-70.95 605.35,-52.07"/>
<polygon fill="midnightblue" stroke="midnightblue" points="608.85,-51.92 605.5,-41.87 601.85,-51.81 608.85,-51.92"/>
</g>
<!-- Node6 -->
<g id="node6" class="node">
<title>Node6</title>
<g id="a_node6"><a target="_parent" xlink:href="../../../cieutils/docs/html/typedefs_8hpp.html.html" xlink:title=" ">
<polygon fill="white" stroke="black" points="456.55,-78.5 456.55,-108.5 575.55,-108.5 575.55,-78.5 456.55,-78.5"/>
<text text-anchor="start" x="464.55" y="-96.5" font-family="Helvetica,sans-Serif" font-size="10.00">packages/macros/inc</text>
<text text-anchor="middle" x="516.05" y="-85.5" font-family="Helvetica,sans-Serif" font-size="10.00">/typedefs.hpp</text>
</a>
</g>
</g>
<!-- Node4&#45;&gt;Node6 -->
<g id="edge5" class="edge">
<title>Node4&#45;&gt;Node6</title>
<path fill="none" stroke="midnightblue" d="M338.98,-150.99C374.34,-139.71 424.2,-123.8 462,-111.74"/>
<polygon fill="midnightblue" stroke="midnightblue" points="463.37,-114.98 471.83,-108.61 461.24,-108.31 463.37,-114.98"/>
</g>
<!-- Node4&#45;&gt;Node7 -->
<g id="edge6" class="edge">
<title>Node4&#45;&gt;Node7</title>
<path fill="none" stroke="midnightblue" d="M251.27,-150.94C205.01,-135.91 138.14,-113.61 134.05,-109 118.89,-91.9 114.9,-65.55 114.24,-46.32"/>
<polygon fill="midnightblue" stroke="midnightblue" points="117.74,-46.19 114.17,-36.21 110.74,-46.24 117.74,-46.19"/>
</g>
<!-- Node8 -->
<g id="node8" class="node">
<title>Node8</title>
<g id="a_node8"><a xlink:href="Traits_8hpp.html" target="_top" xlink:title=" ">
<polygon fill="white" stroke="black" points="323.55,-78.5 323.55,-108.5 438.55,-108.5 438.55,-78.5 323.55,-78.5"/>
<text text-anchor="start" x="331.55" y="-96.5" font-family="Helvetica,sans-Serif" font-size="10.00">packages/primitives</text>
<text text-anchor="middle" x="381.05" y="-85.5" font-family="Helvetica,sans-Serif" font-size="10.00">/inc/Traits.hpp</text>
</a>
</g>
</g>
<!-- Node4&#45;&gt;Node8 -->
<g id="edge7" class="edge">
<title>Node4&#45;&gt;Node8</title>
<path fill="none" stroke="midnightblue" d="M312.46,-150.73C325.01,-140.44 342.14,-126.4 356.14,-114.92"/>
<polygon fill="midnightblue" stroke="midnightblue" points="358.45,-117.55 363.97,-108.5 354.02,-112.14 358.45,-117.55"/>
</g>
<!-- Node10 -->
<g id="node10" class="node">
<title>Node10</title>
<g id="a_node10"><a xlink:title=" ">
<polygon fill="white" stroke="#bfbfbf" points="274.05,-11.5 274.05,-30.5 316.05,-30.5 316.05,-11.5 274.05,-11.5"/>
<text text-anchor="middle" x="295.05" y="-18.5" font-family="Helvetica,sans-Serif" font-size="10.00">array</text>
</a>
</g>
</g>
<!-- Node4&#45;&gt;Node10 -->
<g id="edge13" class="edge">
<title>Node4&#45;&gt;Node10</title>
<path fill="none" stroke="midnightblue" d="M295.05,-150.77C295.05,-124.82 295.05,-69.85 295.05,-40.84"/>
<polygon fill="midnightblue" stroke="midnightblue" points="298.55,-40.78 295.05,-30.78 291.55,-40.78 298.55,-40.78"/>
</g>
<!-- Node4&#45;&gt;Node11 -->
<g id="edge12" class="edge">
<title>Node4&#45;&gt;Node11</title>
<path fill="none" stroke="midnightblue" d="M248.22,-150.93C241.46,-148.92 234.58,-146.9 228.05,-145 171.72,-128.61 157.09,-126.38 101.05,-109 98.3,-108.15 95.46,-107.24 92.61,-106.32"/>
<polygon fill="midnightblue" stroke="midnightblue" points="93.59,-102.96 83,-103.14 91.39,-109.6 93.59,-102.96"/>
</g>
<!-- Node12 -->
<g id="node12" class="node">
<title>Node12</title>
<g id="a_node12"><a xlink:title=" ">
<polygon fill="white" stroke="#bfbfbf" points="143.05,-78.5 143.05,-108.5 267.05,-108.5 267.05,-78.5 143.05,-78.5"/>
<text text-anchor="start" x="151.05" y="-96.5" font-family="Helvetica,sans-Serif" font-size="10.00">packages/primitives</text>
<text text-anchor="middle" x="205.05" y="-85.5" font-family="Helvetica,sans-Serif" font-size="10.00">/impl/Object_impl.hpp</text>
</a>
</g>
</g>
<!-- Node4&#45;&gt;Node12 -->
<g id="edge14" class="edge">
<title>Node4&#45;&gt;Node12</title>
<path fill="none" stroke="midnightblue" d="M276.84,-150.73C263.7,-140.44 245.77,-126.4 231.12,-114.92"/>
<polygon fill="midnightblue" stroke="midnightblue" points="232.96,-111.92 222.93,-108.5 228.64,-117.43 232.96,-111.92"/>
</g>
<!-- Node8&#45;&gt;Node5 -->
<g id="edge9" class="edge">
<title>Node8&#45;&gt;Node5</title>
<path fill="none" stroke="midnightblue" d="M425.38,-78.49C455.91,-68.83 497.16,-55.79 532.34,-44.67"/>
<polygon fill="midnightblue" stroke="midnightblue" points="533.6,-47.94 542.08,-41.59 531.49,-41.27 533.6,-47.94"/>
</g>
<!-- Node8&#45;&gt;Node7 -->
<g id="edge8" class="edge">
<title>Node8&#45;&gt;Node7</title>
<path fill="none" stroke="midnightblue" d="M328.18,-78.49C284.99,-67.04 223.82,-50.83 178.08,-38.71"/>
<polygon fill="midnightblue" stroke="midnightblue" points="178.84,-35.29 168.28,-36.11 177.05,-42.05 178.84,-35.29"/>
</g>
<!-- Node9 -->
<g id="node9" class="node">
<title>Node9</title>
<g id="a_node9"><a target="_parent" xlink:href="../../../cieutils/docs/html/StaticArray_8hpp.html.html" xlink:title=" ">
<polygon fill="white" stroke="black" points="334.55,-6 334.55,-36 465.55,-36 465.55,-6 334.55,-6"/>
<text text-anchor="start" x="342.55" y="-24" font-family="Helvetica,sans-Serif" font-size="10.00">packages/stl_extension</text>
<text text-anchor="middle" x="400.05" y="-13" font-family="Helvetica,sans-Serif" font-size="10.00">/inc/StaticArray.hpp</text>
</a>
</g>
</g>
<!-- Node8&#45;&gt;Node9 -->
<g id="edge10" class="edge">
<title>Node8&#45;&gt;Node9</title>
<path fill="none" stroke="midnightblue" d="M384.9,-78.23C387.39,-68.96 390.71,-56.65 393.61,-45.91"/>
<polygon fill="midnightblue" stroke="midnightblue" points="396.99,-46.81 396.21,-36.25 390.23,-44.99 396.99,-46.81"/>
</g>
<!-- Node8&#45;&gt;Node10 -->
<g id="edge11" class="edge">
<title>Node8&#45;&gt;Node10</title>
<path fill="none" stroke="midnightblue" d="M363.65,-78.23C349.21,-66.39 328.71,-49.59 313.88,-37.44"/>
<polygon fill="midnightblue" stroke="midnightblue" points="315.85,-34.53 305.9,-30.89 311.42,-39.94 315.85,-34.53"/>
</g>
<!-- Node13&#45;&gt;Node2 -->
<g id="edge17" class="edge">
<title>Node13&#45;&gt;Node2</title>
<path fill="none" stroke="midnightblue" d="M245.21,-295.73C242.71,-286.46 239.39,-274.15 236.5,-263.41"/>
<polygon fill="midnightblue" stroke="midnightblue" points="239.87,-262.49 233.89,-253.75 233.11,-264.31 239.87,-262.49"/>
</g>
<!-- Node13&#45;&gt;Node5 -->
<g id="edge16" class="edge">
<title>Node13&#45;&gt;Node5</title>
<path fill="none" stroke="midnightblue" d="M283.73,-295.88C366.31,-261.46 570.46,-171.51 607.05,-109 617.07,-91.88 616.03,-69.45 612.63,-51.65"/>
<polygon fill="midnightblue" stroke="midnightblue" points="616.03,-50.78 610.43,-41.78 609.19,-52.31 616.03,-50.78"/>
</g>
</g>
</svg>
        <g id="navigator" transform="translate(0 0)" fill="#404254">
                <rect fill="#f2f5e9" fill-opacity="0.5" stroke="#606060" stroke-width=".5" x="0" y="0" width="60" height="60"/>
                <use id="zoomplus" xlink:href="#zoomPlus" x="17" y="9" onmousedown="handleZoom(evt,'in')"/>
                <use id="zoomminus" xlink:href="#zoomMin" x="42" y="9" onmousedown="handleZoom(evt,'out')"/>
                <use id="reset" xlink:href="#resetDef" x="30" y="36" onmousedown="handleReset()"/>
                <g id="arrowUp" xlink:href="#dirArrow" transform="translate(30 24)" onmousedown="handlePan(0,-1)">
                  <use xlink:href="#rim" fill="#404040">
                        <set attributeName="fill" to="#808080" begin="arrowUp.mouseover" end="arrowUp.mouseout"/>
                  </use>
                  <path fill="none" stroke="white" stroke-width="1.5" d="M0,-3.0v7 M-2.5,-0.5L0,-3.0L2.5,-0.5"/>
                </g>
                <g id="arrowRight" xlink:href="#dirArrow" transform="rotate(90) translate(36 -43)" onmousedown="handlePan(1,0)">
                  <use xlink:href="#rim" fill="#404040">
                        <set attributeName="fill" to="#808080" begin="arrowRight.mouseover" end="arrowRight.mouseout"/>
                  </use>
                  <path fill="none" stroke="white" stroke-width="1.5" d="M0,-3.0v7 M-2.5,-0.5L0,-3.0L2.5,-0.5"/>
                </g>
                <g id="arrowDown" xlink:href="#dirArrow" transform="rotate(180) translate(-30 -48)" onmousedown="handlePan(0,1)">
                  <use xlink:href="#rim" fill="#404040">
                        <set attributeName="fill" to="#808080" begin="arrowDown.mouseover" end="arrowDown.mouseout"/>
                  </use>
                  <path fill="none" stroke="white" stroke-width="1.5" d="M0,-3.0v7 M-2.5,-0.5L0,-3.0L2.5,-0.5"/>
                </g>
                <g id="arrowLeft" xlink:href="#dirArrow" transform="rotate(270) translate(-36 17)" onmousedown="handlePan(-1,0)">
                  <use xlink:href="#rim" fill="#404040">
                        <set attributeName="fill" to="#808080" begin="arrowLeft.mouseover" end="arrowLeft.mouseout"/>
                  </use>
                  <path fill="none" stroke="white" stroke-width="1.5" d="M0,-3.0v7 M-2.5,-0.5L0,-3.0L2.5,-0.5"/>
                </g>
        </g>
        <svg viewBox="0 0 15 15" width="100%" height="30px" preserveAspectRatio="xMaxYMin meet">
         <g id="arrow_out" transform="scale(0.3 0.3)">
          <a xlink:href="AbsCell_8hpp__incl_org.svg" target="_base">
           <rect id="button" ry="5" rx="5" y="6" x="6" height="38" width="38"
                fill="#f2f5e9" fill-opacity="0.5" stroke="#606060" stroke-width="1.0"/>
           <path id="arrow"
             d="M 11.500037,31.436501 C 11.940474,20.09759 22.043105,11.32322 32.158766,21.979434 L 37.068811,17.246167 C 37.068811,17.246167 37.088388,32 37.088388,32 L 22.160133,31.978069 C 22.160133,31.978069 26.997745,27.140456 26.997745,27.140456 C 18.528582,18.264221 13.291696,25.230495 11.500037,31.436501 z"
             style="fill:#404040;"/>
          </a>
         </g>
        </svg>
</svg>
