<?xml version="1.0" encoding="UTF-8" standalone="no"?>
<!DOCTYPE svg PUBLIC "-//W3C//DTD SVG 1.1//EN"
 "http://www.w3.org/Graphics/SVG/1.1/DTD/svg11.dtd">
<!-- Generated by graphviz version 2.43.0 (0)
 -->
<!-- Title: AbsMarchingPrimitives.hpp Pages: 1 -->
<svg width="1274pt" height="396pt"
 viewBox="0.00 0.00 1274.00 396.00" xmlns="http://www.w3.org/2000/svg" xmlns:xlink="http://www.w3.org/1999/xlink">
<g id="graph0" class="graph" transform="scale(1 1) rotate(0) translate(4 392)">
<title>AbsMarchingPrimitives.hpp</title>
<polygon fill="white" stroke="transparent" points="-4,4 -4,-392 1270,-392 1270,4 -4,4"/>
<!-- Node1 -->
<g id="node1" class="node">
<title>Node1</title>
<g id="a_node1"><a xlink:title=" ">
<polygon fill="#bfbfbf" stroke="black" points="564.5,-368.5 564.5,-387.5 714.5,-387.5 714.5,-368.5 564.5,-368.5"/>
<text text-anchor="middle" x="639.5" y="-375.5" font-family="Helvetica,sans-Serif" font-size="10.00">AbsMarchingPrimitives.hpp</text>
</a>
</g>
</g>
<!-- Node2 -->
<g id="node2" class="node">
<title>Node2</title>
<g id="a_node2"><a target="_parent" xlink:href="../../../cieutils/docs/html/MarchingContainer_8hpp.html.html" xlink:title=" ">
<polygon fill="white" stroke="black" points="0,-296 0,-326 149,-326 149,-296 0,-296"/>
<text text-anchor="start" x="8" y="-314" font-family="Helvetica,sans-Serif" font-size="10.00">packages/stl_extension</text>
<text text-anchor="middle" x="74.5" y="-303" font-family="Helvetica,sans-Serif" font-size="10.00">/inc/MarchingContainer.hpp</text>
</a>
</g>
</g>
<!-- Node1&#45;&gt;Node2 -->
<g id="edge1" class="edge">
<title>Node1&#45;&gt;Node2</title>
<path fill="none" stroke="midnightblue" d="M564.35,-373.33C469.15,-367.91 300.31,-355.75 157.5,-332 151.17,-330.95 144.6,-329.68 138.06,-328.3"/>
<polygon fill="midnightblue" stroke="midnightblue" points="138.37,-324.78 127.85,-326.05 136.86,-331.61 138.37,-324.78"/>
</g>
<!-- Node3 -->
<g id="node3" class="node">
<title>Node3</title>
<g id="a_node3"><a target="_parent" xlink:href="../../../cieutils/docs/html/ThreadPool_8hpp.html.html" xlink:title=" ">
<polygon fill="white" stroke="black" points="167,-296 167,-326 292,-326 292,-296 167,-296"/>
<text text-anchor="start" x="175" y="-314" font-family="Helvetica,sans-Serif" font-size="10.00">packages/concurrency</text>
<text text-anchor="middle" x="229.5" y="-303" font-family="Helvetica,sans-Serif" font-size="10.00">/inc/ThreadPool.hpp</text>
</a>
</g>
</g>
<!-- Node1&#45;&gt;Node3 -->
<g id="edge2" class="edge">
<title>Node1&#45;&gt;Node3</title>
<path fill="none" stroke="midnightblue" d="M564.25,-370.12C495.21,-363.07 390.34,-350.52 300.5,-332 295.73,-331.02 290.82,-329.89 285.9,-328.67"/>
<polygon fill="midnightblue" stroke="midnightblue" points="286.42,-325.19 275.86,-326.08 284.67,-331.97 286.42,-325.19"/>
</g>
<!-- Node4 -->
<g id="node4" class="node">
<title>Node4</title>
<g id="a_node4"><a target="_parent" xlink:href="../../../cieutils/docs/html/StaticArray_8hpp.html.html" xlink:title=" ">
<polygon fill="white" stroke="black" points="675,-6 675,-36 806,-36 806,-6 675,-6"/>
<text text-anchor="start" x="683" y="-24" font-family="Helvetica,sans-Serif" font-size="10.00">packages/stl_extension</text>
<text text-anchor="middle" x="740.5" y="-13" font-family="Helvetica,sans-Serif" font-size="10.00">/inc/StaticArray.hpp</text>
</a>
</g>
</g>
<!-- Node1&#45;&gt;Node4 -->
<g id="edge3" class="edge">
<title>Node1&#45;&gt;Node4</title>
<path fill="none" stroke="midnightblue" d="M691.51,-368.49C791.88,-350.59 1002.5,-305.21 1002.5,-239.5 1002.5,-239.5 1002.5,-239.5 1002.5,-165 1002.5,-125.42 1011.47,-106 983.5,-78 930.76,-25.2 892.12,-59.16 819.5,-42 814.84,-40.9 810.03,-39.74 805.2,-38.56"/>
<polygon fill="midnightblue" stroke="midnightblue" points="805.81,-35.1 795.27,-36.11 804.14,-41.9 805.81,-35.1"/>
</g>
<!-- Node5 -->
<g id="node5" class="node">
<title>Node5</title>
<g id="a_node5"><a xlink:href="Primitive_8hpp.html" target="_top" xlink:title=" ">
<polygon fill="white" stroke="black" points="458,-223.5 458,-253.5 573,-253.5 573,-223.5 458,-223.5"/>
<text text-anchor="start" x="466" y="-241.5" font-family="Helvetica,sans-Serif" font-size="10.00">packages/primitives</text>
<text text-anchor="middle" x="515.5" y="-230.5" font-family="Helvetica,sans-Serif" font-size="10.00">/inc/Primitive.hpp</text>
</a>
</g>
</g>
<!-- Node1&#45;&gt;Node5 -->
<g id="edge4" class="edge">
<title>Node1&#45;&gt;Node5</title>
<path fill="none" stroke="midnightblue" d="M628.18,-368.28C617.25,-359.62 600.49,-345.68 587.5,-332 566.24,-309.6 544.88,-281.25 531.02,-261.88"/>
<polygon fill="midnightblue" stroke="midnightblue" points="533.83,-259.8 525.2,-253.66 528.12,-263.85 533.83,-259.8"/>
</g>
<!-- Node7 -->
<g id="node7" class="node">
<title>Node7</title>
<g id="a_node7"><a xlink:href="Object_8hpp.html" target="_top" xlink:title=" ">
<polygon fill="white" stroke="black" points="308,-151 308,-181 423,-181 423,-151 308,-151"/>
<text text-anchor="start" x="316" y="-169" font-family="Helvetica,sans-Serif" font-size="10.00">packages/primitives</text>
<text text-anchor="middle" x="365.5" y="-158" font-family="Helvetica,sans-Serif" font-size="10.00">/inc/Object.hpp</text>
</a>
</g>
</g>
<!-- Node1&#45;&gt;Node7 -->
<g id="edge18" class="edge">
<title>Node1&#45;&gt;Node7</title>
<path fill="none" stroke="midnightblue" d="M619.35,-368.46C600.48,-360.14 571.78,-346.62 548.5,-332 500.77,-302.02 490.29,-291.83 448.5,-254 425.42,-233.1 401.06,-207.02 384.74,-188.89"/>
<polygon fill="midnightblue" stroke="midnightblue" points="387.12,-186.3 377.85,-181.17 381.9,-190.96 387.12,-186.3"/>
</g>
<!-- Node11 -->
<g id="node11" class="node">
<title>Node11</title>
<g id="a_node11"><a xlink:href="Traits_8hpp.html" target="_top" xlink:title=" ">
<polygon fill="white" stroke="black" points="540,-78.5 540,-108.5 655,-108.5 655,-78.5 540,-78.5"/>
<text text-anchor="start" x="548" y="-96.5" font-family="Helvetica,sans-Serif" font-size="10.00">packages/primitives</text>
<text text-anchor="middle" x="597.5" y="-85.5" font-family="Helvetica,sans-Serif" font-size="10.00">/inc/Traits.hpp</text>
</a>
</g>
</g>
<!-- Node1&#45;&gt;Node11 -->
<g id="edge19" class="edge">
<title>Node1&#45;&gt;Node11</title>
<path fill="none" stroke="midnightblue" d="M639.35,-368.45C638.66,-337.81 634.91,-230.7 615.5,-145 613.48,-136.09 610.37,-126.6 607.29,-118.27"/>
<polygon fill="midnightblue" stroke="midnightblue" points="610.51,-116.88 603.64,-108.81 603.98,-119.4 610.51,-116.88"/>
</g>
<!-- Node13 -->
<g id="node13" class="node">
<title>Node13</title>
<g id="a_node13"><a xlink:title=" ">
<polygon fill="white" stroke="#bfbfbf" points="463.5,-84 463.5,-103 521.5,-103 521.5,-84 463.5,-84"/>
<text text-anchor="middle" x="492.5" y="-91" font-family="Helvetica,sans-Serif" font-size="10.00">memory</text>
</a>
</g>
</g>
<!-- Node1&#45;&gt;Node13 -->
<g id="edge32" class="edge">
<title>Node1&#45;&gt;Node13</title>
<path fill="none" stroke="midnightblue" d="M637.82,-368.43C629.95,-328.71 596.62,-163.57 582.5,-145 574.25,-134.16 544.05,-118.38 520.89,-107.35"/>
<polygon fill="midnightblue" stroke="midnightblue" points="522.33,-104.16 511.79,-103.09 519.36,-110.5 522.33,-104.16"/>
</g>
<!-- Node15 -->
<g id="node15" class="node">
<title>Node15</title>
<g id="a_node15"><a xlink:href="primitives_2inc_2concepts_8hpp.html" target="_top" xlink:title=" ">
<polygon fill="white" stroke="black" points="310,-296 310,-326 425,-326 425,-296 310,-296"/>
<text text-anchor="start" x="318" y="-314" font-family="Helvetica,sans-Serif" font-size="10.00">packages/primitives</text>
<text text-anchor="middle" x="367.5" y="-303" font-family="Helvetica,sans-Serif" font-size="10.00">/inc/concepts.hpp</text>
</a>
</g>
</g>
<!-- Node1&#45;&gt;Node15 -->
<g id="edge20" class="edge">
<title>Node1&#45;&gt;Node15</title>
<path fill="none" stroke="midnightblue" d="M598.76,-368.45C558.24,-359.81 494.38,-345.79 439.5,-332 435.4,-330.97 431.17,-329.88 426.91,-328.75"/>
<polygon fill="midnightblue" stroke="midnightblue" points="427.56,-325.3 416.99,-326.1 425.74,-332.06 427.56,-325.3"/>
</g>
<!-- Node16 -->
<g id="node16" class="node">
<title>Node16</title>
<g id="a_node16"><a xlink:href="connectivitytables_8hpp.html" target="_top" xlink:title=" ">
<polygon fill="white" stroke="black" points="813,-78.5 813,-108.5 974,-108.5 974,-78.5 813,-78.5"/>
<text text-anchor="start" x="821" y="-96.5" font-family="Helvetica,sans-Serif" font-size="10.00">packages/marchingprimitives</text>
<text text-anchor="middle" x="893.5" y="-85.5" font-family="Helvetica,sans-Serif" font-size="10.00">/inc/connectivitytables.hpp</text>
</a>
</g>
</g>
<!-- Node1&#45;&gt;Node16 -->
<g id="edge23" class="edge">
<title>Node1&#45;&gt;Node16</title>
<path fill="none" stroke="midnightblue" d="M660.09,-368.4C677.22,-360.58 701.62,-347.86 719.5,-332 793.94,-265.99 855.78,-163.05 881.14,-117.51"/>
<polygon fill="midnightblue" stroke="midnightblue" points="884.23,-119.14 885.99,-108.69 878.1,-115.77 884.23,-119.14"/>
</g>
<!-- Node18 -->
<g id="node18" class="node">
<title>Node18</title>
<g id="a_node18"><a xlink:href="MeshTraits_8hpp.html" target="_top" xlink:title=" ">
<polygon fill="white" stroke="black" points="667.5,-151 667.5,-181 775.5,-181 775.5,-151 667.5,-151"/>
<text text-anchor="start" x="675.5" y="-169" font-family="Helvetica,sans-Serif" font-size="10.00">packages/traits/inc</text>
<text text-anchor="middle" x="721.5" y="-158" font-family="Helvetica,sans-Serif" font-size="10.00">/MeshTraits.hpp</text>
</a>
</g>
</g>
<!-- Node1&#45;&gt;Node18 -->
<g id="edge27" class="edge">
<title>Node1&#45;&gt;Node18</title>
<path fill="none" stroke="midnightblue" d="M642.92,-368.24C654.73,-338.01 694.05,-237.29 712.19,-190.84"/>
<polygon fill="midnightblue" stroke="midnightblue" points="715.54,-191.88 715.92,-181.29 709.02,-189.33 715.54,-191.88"/>
</g>
<!-- Node19 -->
<g id="node19" class="node">
<title>Node19</title>
<g id="a_node19"><a xlink:title=" ">
<polygon fill="white" stroke="#bfbfbf" points="750,-84 750,-103 795,-103 795,-84 750,-84"/>
<text text-anchor="middle" x="772.5" y="-91" font-family="Helvetica,sans-Serif" font-size="10.00">utility</text>
</a>
</g>
</g>
<!-- Node1&#45;&gt;Node19 -->
<g id="edge33" class="edge">
<title>Node1&#45;&gt;Node19</title>
<path fill="none" stroke="midnightblue" d="M649.63,-368.47C677.9,-343.89 757.4,-269.38 784.5,-187 792.7,-162.07 785.71,-131.62 779.47,-112.64"/>
<polygon fill="midnightblue" stroke="midnightblue" points="782.75,-111.4 776.1,-103.15 776.15,-113.75 782.75,-111.4"/>
</g>
<!-- Node20 -->
<g id="node20" class="node">
<title>Node20</title>
<g id="a_node20"><a xlink:title=" ">
<polygon fill="white" stroke="#bfbfbf" points="1030.5,-301.5 1030.5,-320.5 1086.5,-320.5 1086.5,-301.5 1030.5,-301.5"/>
<text text-anchor="middle" x="1058.5" y="-308.5" font-family="Helvetica,sans-Serif" font-size="10.00">optional</text>
</a>
</g>
</g>
<!-- Node1&#45;&gt;Node20 -->
<g id="edge34" class="edge">
<title>Node1&#45;&gt;Node20</title>
<path fill="none" stroke="midnightblue" d="M714.6,-375.19C791.73,-371.69 914.56,-361.49 1016.5,-332 1022.46,-330.27 1028.63,-327.78 1034.35,-325.14"/>
<polygon fill="midnightblue" stroke="midnightblue" points="1036,-328.22 1043.42,-320.66 1032.9,-321.95 1036,-328.22"/>
</g>
<!-- Node21 -->
<g id="node21" class="node">
<title>Node21</title>
<g id="a_node21"><a xlink:title=" ">
<polygon fill="white" stroke="#bfbfbf" points="1105,-290.5 1105,-331.5 1266,-331.5 1266,-290.5 1105,-290.5"/>
<text text-anchor="start" x="1113" y="-319.5" font-family="Helvetica,sans-Serif" font-size="10.00">packages/marchingprimitives</text>
<text text-anchor="start" x="1113" y="-308.5" font-family="Helvetica,sans-Serif" font-size="10.00">/impl/AbsMarchingPrimitives</text>
<text text-anchor="middle" x="1185.5" y="-297.5" font-family="Helvetica,sans-Serif" font-size="10.00">_impl.hpp</text>
</a>
</g>
</g>
<!-- Node1&#45;&gt;Node21 -->
<g id="edge35" class="edge">
<title>Node1&#45;&gt;Node21</title>
<path fill="none" stroke="midnightblue" d="M714.9,-372.35C803.49,-366.26 955.04,-353.88 1094.61,-332.04"/>
<polygon fill="midnightblue" stroke="midnightblue" points="1095.31,-335.47 1104.64,-330.45 1094.21,-328.56 1095.31,-335.47"/>
</g>
<!-- Node6 -->
<g id="node6" class="node">
<title>Node6</title>
<g id="a_node6"><a target="_parent" xlink:href="../../../cieutils/docs/html/basic__concepts_8hpp.html.html" xlink:title=" ">
<polygon fill="white" stroke="black" points="441.5,-145.5 441.5,-186.5 573.5,-186.5 573.5,-145.5 441.5,-145.5"/>
<text text-anchor="start" x="449.5" y="-174.5" font-family="Helvetica,sans-Serif" font-size="10.00">packages/compile_time</text>
<text text-anchor="start" x="449.5" y="-163.5" font-family="Helvetica,sans-Serif" font-size="10.00">/packages/concepts/inc</text>
<text text-anchor="middle" x="507.5" y="-152.5" font-family="Helvetica,sans-Serif" font-size="10.00">/basic_concepts.hpp</text>
</a>
</g>
</g>
<!-- Node5&#45;&gt;Node6 -->
<g id="edge5" class="edge">
<title>Node5&#45;&gt;Node6</title>
<path fill="none" stroke="midnightblue" d="M513.88,-223.23C513.01,-215.57 511.91,-205.84 510.86,-196.63"/>
<polygon fill="midnightblue" stroke="midnightblue" points="514.33,-196.13 509.72,-186.59 507.37,-196.92 514.33,-196.13"/>
</g>
<!-- Node5&#45;&gt;Node7 -->
<g id="edge6" class="edge">
<title>Node5&#45;&gt;Node7</title>
<path fill="none" stroke="midnightblue" d="M485.51,-223.4C462.31,-212.5 429.99,-197.31 404.74,-185.44"/>
<polygon fill="midnightblue" stroke="midnightblue" points="405.98,-182.16 395.44,-181.07 403,-188.49 405.98,-182.16"/>
</g>
<!-- Node8 -->
<g id="node8" class="node">
<title>Node8</title>
<g id="a_node8"><a target="_parent" xlink:href="../../../cieutils/docs/html/container__concepts_8hpp.html.html" xlink:title=" ">
<polygon fill="white" stroke="black" points="292,-0.5 292,-41.5 427,-41.5 427,-0.5 292,-0.5"/>
<text text-anchor="start" x="300" y="-29.5" font-family="Helvetica,sans-Serif" font-size="10.00">packages/compile_time</text>
<text text-anchor="start" x="300" y="-18.5" font-family="Helvetica,sans-Serif" font-size="10.00">/packages/concepts/inc</text>
<text text-anchor="middle" x="359.5" y="-7.5" font-family="Helvetica,sans-Serif" font-size="10.00">/container_concepts.hpp</text>
</a>
</g>
</g>
<!-- Node7&#45;&gt;Node8 -->
<g id="edge7" class="edge">
<title>Node7&#45;&gt;Node8</title>
<path fill="none" stroke="midnightblue" d="M364.9,-150.77C363.94,-127.76 362.01,-81.94 360.74,-51.62"/>
<polygon fill="midnightblue" stroke="midnightblue" points="364.24,-51.46 360.32,-41.61 357.25,-51.75 364.24,-51.46"/>
</g>
<!-- Node9 -->
<g id="node9" class="node">
<title>Node9</title>
<g id="a_node9"><a target="_parent" xlink:href="../../../cieutils/docs/html/typedefs_8hpp.html.html" xlink:title=" ">
<polygon fill="white" stroke="black" points="212,-78.5 212,-108.5 331,-108.5 331,-78.5 212,-78.5"/>
<text text-anchor="start" x="220" y="-96.5" font-family="Helvetica,sans-Serif" font-size="10.00">packages/macros/inc</text>
<text text-anchor="middle" x="271.5" y="-85.5" font-family="Helvetica,sans-Serif" font-size="10.00">/typedefs.hpp</text>
</a>
</g>
</g>
<!-- Node7&#45;&gt;Node9 -->
<g id="edge8" class="edge">
<title>Node7&#45;&gt;Node9</title>
<path fill="none" stroke="midnightblue" d="M346.48,-150.73C332.63,-140.35 313.68,-126.13 298.3,-114.6"/>
<polygon fill="midnightblue" stroke="midnightblue" points="300.27,-111.7 290.17,-108.5 296.07,-117.3 300.27,-111.7"/>
</g>
<!-- Node10 -->
<g id="node10" class="node">
<title>Node10</title>
<g id="a_node10"><a target="_parent" xlink:href="../../../cieutils/docs/html/types_8hpp.html.html" xlink:title=" ">
<polygon fill="white" stroke="black" points="544.5,-6 544.5,-36 654.5,-36 654.5,-6 544.5,-6"/>
<text text-anchor="start" x="552.5" y="-24" font-family="Helvetica,sans-Serif" font-size="10.00">packages/types/inc</text>
<text text-anchor="middle" x="599.5" y="-13" font-family="Helvetica,sans-Serif" font-size="10.00">/types.hpp</text>
</a>
</g>
</g>
<!-- Node7&#45;&gt;Node10 -->
<g id="edge9" class="edge">
<title>Node7&#45;&gt;Node10</title>
<path fill="none" stroke="midnightblue" d="M379.72,-150.81C403.74,-126.86 450.21,-80.76 454.5,-78 470.53,-67.7 513,-51.72 547.86,-39.46"/>
<polygon fill="midnightblue" stroke="midnightblue" points="549.17,-42.71 557.46,-36.11 546.87,-36.1 549.17,-42.71"/>
</g>
<!-- Node7&#45;&gt;Node11 -->
<g id="edge10" class="edge">
<title>Node7&#45;&gt;Node11</title>
<path fill="none" stroke="midnightblue" d="M411.61,-150.99C448.89,-139.66 501.52,-123.67 541.27,-111.59"/>
<polygon fill="midnightblue" stroke="midnightblue" points="542.53,-114.86 551.08,-108.61 540.49,-108.17 542.53,-114.86"/>
</g>
<!-- Node12 -->
<g id="node12" class="node">
<title>Node12</title>
<g id="a_node12"><a xlink:title=" ">
<polygon fill="white" stroke="#bfbfbf" points="484.5,-11.5 484.5,-30.5 526.5,-30.5 526.5,-11.5 484.5,-11.5"/>
<text text-anchor="middle" x="505.5" y="-18.5" font-family="Helvetica,sans-Serif" font-size="10.00">array</text>
</a>
</g>
</g>
<!-- Node7&#45;&gt;Node12 -->
<g id="edge16" class="edge">
<title>Node7&#45;&gt;Node12</title>
<path fill="none" stroke="midnightblue" d="M372.31,-150.8C381.59,-132.46 399.58,-100.28 421.5,-78 438.51,-60.71 461.67,-45.75 479.37,-35.65"/>
<polygon fill="midnightblue" stroke="midnightblue" points="481.51,-38.47 488.56,-30.56 478.12,-32.35 481.51,-38.47"/>
</g>
<!-- Node7&#45;&gt;Node13 -->
<g id="edge15" class="edge">
<title>Node7&#45;&gt;Node13</title>
<path fill="none" stroke="midnightblue" d="M390.9,-150.9C413.44,-138.39 446.16,-120.22 468.33,-107.92"/>
<polygon fill="midnightblue" stroke="midnightblue" points="470.08,-110.95 477.13,-103.03 466.69,-104.83 470.08,-110.95"/>
</g>
<!-- Node14 -->
<g id="node14" class="node">
<title>Node14</title>
<g id="a_node14"><a xlink:title=" ">
<polygon fill="white" stroke="#bfbfbf" points="69.5,-78.5 69.5,-108.5 193.5,-108.5 193.5,-78.5 69.5,-78.5"/>
<text text-anchor="start" x="77.5" y="-96.5" font-family="Helvetica,sans-Serif" font-size="10.00">packages/primitives</text>
<text text-anchor="middle" x="131.5" y="-85.5" font-family="Helvetica,sans-Serif" font-size="10.00">/impl/Object_impl.hpp</text>
</a>
</g>
</g>
<!-- Node7&#45;&gt;Node14 -->
<g id="edge17" class="edge">
<title>Node7&#45;&gt;Node14</title>
<path fill="none" stroke="midnightblue" d="M318.99,-150.99C281.31,-139.64 228.08,-123.6 187.96,-111.51"/>
<polygon fill="midnightblue" stroke="midnightblue" points="188.91,-108.14 178.32,-108.61 186.89,-114.84 188.91,-108.14"/>
</g>
<!-- Node11&#45;&gt;Node4 -->
<g id="edge13" class="edge">
<title>Node11&#45;&gt;Node4</title>
<path fill="none" stroke="midnightblue" d="M626.09,-78.4C648.11,-67.55 678.74,-52.45 702.77,-40.6"/>
<polygon fill="midnightblue" stroke="midnightblue" points="704.53,-43.63 711.96,-36.07 701.44,-37.36 704.53,-43.63"/>
</g>
<!-- Node11&#45;&gt;Node8 -->
<g id="edge12" class="edge">
<title>Node11&#45;&gt;Node8</title>
<path fill="none" stroke="midnightblue" d="M550.19,-78.49C517.47,-68.79 473.2,-55.68 435.56,-44.53"/>
<polygon fill="midnightblue" stroke="midnightblue" points="436.22,-41.08 425.64,-41.59 434.23,-47.79 436.22,-41.08"/>
</g>
<!-- Node11&#45;&gt;Node10 -->
<g id="edge11" class="edge">
<title>Node11&#45;&gt;Node10</title>
<path fill="none" stroke="midnightblue" d="M597.9,-78.23C598.16,-69.06 598.51,-56.91 598.81,-46.24"/>
<polygon fill="midnightblue" stroke="midnightblue" points="602.31,-46.34 599.1,-36.25 595.31,-46.14 602.31,-46.34"/>
</g>
<!-- Node11&#45;&gt;Node12 -->
<g id="edge14" class="edge">
<title>Node11&#45;&gt;Node12</title>
<path fill="none" stroke="midnightblue" d="M578.88,-78.23C563.2,-66.22 540.84,-49.08 524.93,-36.89"/>
<polygon fill="midnightblue" stroke="midnightblue" points="526.91,-34 516.84,-30.69 522.65,-39.55 526.91,-34"/>
</g>
<!-- Node15&#45;&gt;Node5 -->
<g id="edge22" class="edge">
<title>Node15&#45;&gt;Node5</title>
<path fill="none" stroke="midnightblue" d="M397.09,-295.9C419.98,-285 451.87,-269.81 476.78,-257.94"/>
<polygon fill="midnightblue" stroke="midnightblue" points="478.43,-261.03 485.96,-253.57 475.42,-254.71 478.43,-261.03"/>
</g>
<!-- Node15&#45;&gt;Node8 -->
<g id="edge21" class="edge">
<title>Node15&#45;&gt;Node8</title>
<path fill="none" stroke="midnightblue" d="M337.9,-295.89C252.67,-254.38 15.54,-132.17 60.5,-78 88.06,-44.8 202.27,-31.17 281.27,-25.65"/>
<polygon fill="midnightblue" stroke="midnightblue" points="281.95,-29.11 291.69,-24.95 281.48,-22.13 281.95,-29.11"/>
</g>
<!-- Node16&#45;&gt;Node4 -->
<g id="edge26" class="edge">
<title>Node16&#45;&gt;Node4</title>
<path fill="none" stroke="midnightblue" d="M862.91,-78.4C839.14,-67.45 805.99,-52.18 780.19,-40.29"/>
<polygon fill="midnightblue" stroke="midnightblue" points="781.59,-37.08 771.04,-36.07 778.66,-43.44 781.59,-37.08"/>
</g>
<!-- Node16&#45;&gt;Node10 -->
<g id="edge24" class="edge">
<title>Node16&#45;&gt;Node10</title>
<path fill="none" stroke="midnightblue" d="M824.4,-78.46C779.27,-68.97 719.15,-55.7 666.5,-42 662.71,-41.01 658.81,-39.96 654.89,-38.87"/>
<polygon fill="midnightblue" stroke="midnightblue" points="655.73,-35.47 645.15,-36.1 653.81,-42.2 655.73,-35.47"/>
</g>
<!-- Node17 -->
<g id="node17" class="node">
<title>Node17</title>
<g id="a_node17"><a target="_parent" xlink:href="../../../cieutils/docs/html/DynamicArray_8hpp.html.html" xlink:title=" ">
<polygon fill="white" stroke="black" points="828,-6 828,-36 959,-36 959,-6 828,-6"/>
<text text-anchor="start" x="836" y="-24" font-family="Helvetica,sans-Serif" font-size="10.00">packages/stl_extension</text>
<text text-anchor="middle" x="893.5" y="-13" font-family="Helvetica,sans-Serif" font-size="10.00">/inc/DynamicArray.hpp</text>
</a>
</g>
</g>
<!-- Node16&#45;&gt;Node17 -->
<g id="edge25" class="edge">
<title>Node16&#45;&gt;Node17</title>
<path fill="none" stroke="midnightblue" d="M893.5,-78.23C893.5,-69.16 893.5,-57.16 893.5,-46.58"/>
<polygon fill="midnightblue" stroke="midnightblue" points="897,-46.25 893.5,-36.25 890,-46.25 897,-46.25"/>
</g>
<!-- Node18&#45;&gt;Node4 -->
<g id="edge29" class="edge">
<title>Node18&#45;&gt;Node4</title>
<path fill="none" stroke="midnightblue" d="M723.39,-150.77C726.63,-126.35 733.29,-76.24 737.28,-46.24"/>
<polygon fill="midnightblue" stroke="midnightblue" points="740.77,-46.55 738.62,-36.18 733.83,-45.63 740.77,-46.55"/>
</g>
<!-- Node18&#45;&gt;Node11 -->
<g id="edge28" class="edge">
<title>Node18&#45;&gt;Node11</title>
<path fill="none" stroke="midnightblue" d="M696.7,-150.9C677.87,-140.19 651.75,-125.35 631.05,-113.57"/>
<polygon fill="midnightblue" stroke="midnightblue" points="632.68,-110.47 622.25,-108.57 629.22,-116.56 632.68,-110.47"/>
</g>
<!-- Node18&#45;&gt;Node12 -->
<g id="edge30" class="edge">
<title>Node18&#45;&gt;Node12</title>
<path fill="none" stroke="midnightblue" d="M715.91,-150.98C707.47,-131.64 689.64,-97 663.5,-78 615.7,-43.26 589.19,-66.69 535.5,-42 532,-40.39 528.44,-38.39 525.06,-36.29"/>
<polygon fill="midnightblue" stroke="midnightblue" points="526.94,-33.34 516.68,-30.68 523.04,-39.15 526.94,-33.34"/>
</g>
<!-- Node18&#45;&gt;Node19 -->
<g id="edge31" class="edge">
<title>Node18&#45;&gt;Node19</title>
<path fill="none" stroke="midnightblue" d="M731.82,-150.73C739.98,-139.45 751.41,-123.65 760.08,-111.67"/>
<polygon fill="midnightblue" stroke="midnightblue" points="763.04,-113.55 766.07,-103.39 757.37,-109.44 763.04,-113.55"/>
</g>
</g>
</svg>
