<?xml version="1.0" encoding="UTF-8" standalone="no"?>
<!DOCTYPE svg PUBLIC "-//W3C//DTD SVG 1.1//EN"
 "http://www.w3.org/Graphics/SVG/1.1/DTD/svg11.dtd">
<!-- Generated by graphviz version 2.43.0 (0)
 -->
<!-- Title: BinaryOperator.hpp Pages: 1 -->
<svg width="755pt" height="329pt"
 viewBox="0.00 0.00 754.50 329.00" xmlns="http://www.w3.org/2000/svg" xmlns:xlink="http://www.w3.org/1999/xlink">
<g id="graph0" class="graph" transform="scale(1 1) rotate(0) translate(4 325)">
<title>BinaryOperator.hpp</title>
<polygon fill="white" stroke="transparent" points="-4,4 -4,-325 750.5,-325 750.5,4 -4,4"/>
<!-- Node1 -->
<g id="node1" class="node">
<title>Node1</title>
<g id="a_node1"><a xlink:title=" ">
<polygon fill="#bfbfbf" stroke="black" points="463,-301.5 463,-320.5 574,-320.5 574,-301.5 463,-301.5"/>
<text text-anchor="middle" x="518.5" y="-308.5" font-family="Helvetica,sans-Serif" font-size="10.00">BinaryOperator.hpp</text>
</a>
</g>
</g>
<!-- Node2 -->
<g id="node2" class="node">
<title>Node2</title>
<g id="a_node2"><a xlink:href="UnaryOperator_8hpp.html" target="_top" xlink:title=" ">
<polygon fill="white" stroke="black" points="383,-229 383,-259 512,-259 512,-229 383,-229"/>
<text text-anchor="start" x="391" y="-247" font-family="Helvetica,sans-Serif" font-size="10.00">packages/operators</text>
<text text-anchor="middle" x="447.5" y="-236" font-family="Helvetica,sans-Serif" font-size="10.00">/inc/UnaryOperator.hpp</text>
</a>
</g>
</g>
<!-- Node1&#45;&gt;Node2 -->
<g id="edge1" class="edge">
<title>Node1&#45;&gt;Node2</title>
<path fill="none" stroke="midnightblue" d="M508.92,-301.23C499.14,-292.28 483.59,-278.04 470.59,-266.13"/>
<polygon fill="midnightblue" stroke="midnightblue" points="472.63,-263.26 462.89,-259.09 467.9,-268.42 472.63,-263.26"/>
</g>
<!-- Node13 -->
<g id="node13" class="node">
<title>Node13</title>
<g id="a_node13"><a xlink:title=" ">
<polygon fill="white" stroke="#bfbfbf" points="530,-223.5 530,-264.5 649,-264.5 649,-223.5 530,-223.5"/>
<text text-anchor="start" x="538" y="-252.5" font-family="Helvetica,sans-Serif" font-size="10.00">packages/operators</text>
<text text-anchor="start" x="538" y="-241.5" font-family="Helvetica,sans-Serif" font-size="10.00">/impl/BinaryOperator</text>
<text text-anchor="middle" x="589.5" y="-230.5" font-family="Helvetica,sans-Serif" font-size="10.00">_impl.hpp</text>
</a>
</g>
</g>
<!-- Node1&#45;&gt;Node13 -->
<g id="edge15" class="edge">
<title>Node1&#45;&gt;Node13</title>
<path fill="none" stroke="midnightblue" d="M528.08,-301.23C536.46,-293.56 549.08,-282 560.71,-271.36"/>
<polygon fill="midnightblue" stroke="midnightblue" points="563.14,-273.88 568.15,-264.54 558.41,-268.71 563.14,-273.88"/>
</g>
<!-- Node3 -->
<g id="node3" class="node">
<title>Node3</title>
<g id="a_node3"><a xlink:href="Object_8hpp.html" target="_top" xlink:title=" ">
<polygon fill="white" stroke="black" points="323,-151 323,-181 438,-181 438,-151 323,-151"/>
<text text-anchor="start" x="331" y="-169" font-family="Helvetica,sans-Serif" font-size="10.00">packages/primitives</text>
<text text-anchor="middle" x="380.5" y="-158" font-family="Helvetica,sans-Serif" font-size="10.00">/inc/Object.hpp</text>
</a>
</g>
</g>
<!-- Node2&#45;&gt;Node3 -->
<g id="edge2" class="edge">
<title>Node2&#45;&gt;Node3</title>
<path fill="none" stroke="midnightblue" d="M434.9,-228.7C424.98,-217.45 410.99,-201.58 399.68,-188.76"/>
<polygon fill="midnightblue" stroke="midnightblue" points="402.28,-186.42 393.05,-181.23 397.03,-191.05 402.28,-186.42"/>
</g>
<!-- Node12 -->
<g id="node12" class="node">
<title>Node12</title>
<g id="a_node12"><a xlink:title=" ">
<polygon fill="white" stroke="#bfbfbf" points="456.5,-145.5 456.5,-186.5 572.5,-186.5 572.5,-145.5 456.5,-145.5"/>
<text text-anchor="start" x="464.5" y="-174.5" font-family="Helvetica,sans-Serif" font-size="10.00">packages/operators</text>
<text text-anchor="start" x="464.5" y="-163.5" font-family="Helvetica,sans-Serif" font-size="10.00">/impl/UnaryOperator</text>
<text text-anchor="middle" x="514.5" y="-152.5" font-family="Helvetica,sans-Serif" font-size="10.00">_impl.hpp</text>
</a>
</g>
</g>
<!-- Node2&#45;&gt;Node12 -->
<g id="edge14" class="edge">
<title>Node2&#45;&gt;Node12</title>
<path fill="none" stroke="midnightblue" d="M460.1,-228.7C468.6,-219.06 480.09,-206.03 490.32,-194.43"/>
<polygon fill="midnightblue" stroke="midnightblue" points="493.16,-196.5 497.15,-186.68 487.91,-191.87 493.16,-196.5"/>
</g>
<!-- Node4 -->
<g id="node4" class="node">
<title>Node4</title>
<g id="a_node4"><a target="_parent" xlink:href="../../../cieutils/docs/html/container__concepts_8hpp.html.html" xlink:title=" ">
<polygon fill="white" stroke="black" points="0,-0.5 0,-41.5 135,-41.5 135,-0.5 0,-0.5"/>
<text text-anchor="start" x="8" y="-29.5" font-family="Helvetica,sans-Serif" font-size="10.00">packages/compile_time</text>
<text text-anchor="start" x="8" y="-18.5" font-family="Helvetica,sans-Serif" font-size="10.00">/packages/concepts/inc</text>
<text text-anchor="middle" x="67.5" y="-7.5" font-family="Helvetica,sans-Serif" font-size="10.00">/container_concepts.hpp</text>
</a>
</g>
</g>
<!-- Node3&#45;&gt;Node4 -->
<g id="edge3" class="edge">
<title>Node3&#45;&gt;Node4</title>
<path fill="none" stroke="midnightblue" d="M326.17,-150.91C291.68,-141.09 246.54,-126.62 208.5,-109 170.94,-91.6 131.04,-66.27 103.31,-47.42"/>
<polygon fill="midnightblue" stroke="midnightblue" points="104.98,-44.32 94.76,-41.55 101.02,-50.09 104.98,-44.32"/>
</g>
<!-- Node5 -->
<g id="node5" class="node">
<title>Node5</title>
<g id="a_node5"><a target="_parent" xlink:href="../../../cieutils/docs/html/typedefs_8hpp.html.html" xlink:title=" ">
<polygon fill="white" stroke="black" points="409,-78.5 409,-108.5 528,-108.5 528,-78.5 409,-78.5"/>
<text text-anchor="start" x="417" y="-96.5" font-family="Helvetica,sans-Serif" font-size="10.00">packages/macros/inc</text>
<text text-anchor="middle" x="468.5" y="-85.5" font-family="Helvetica,sans-Serif" font-size="10.00">/typedefs.hpp</text>
</a>
</g>
</g>
<!-- Node3&#45;&gt;Node5 -->
<g id="edge4" class="edge">
<title>Node3&#45;&gt;Node5</title>
<path fill="none" stroke="midnightblue" d="M398.31,-150.73C411.15,-140.44 428.69,-126.4 443.01,-114.92"/>
<polygon fill="midnightblue" stroke="midnightblue" points="445.4,-117.49 451.02,-108.5 441.03,-112.03 445.4,-117.49"/>
</g>
<!-- Node6 -->
<g id="node6" class="node">
<title>Node6</title>
<g id="a_node6"><a target="_parent" xlink:href="../../../cieutils/docs/html/types_8hpp.html.html" xlink:title=" ">
<polygon fill="white" stroke="black" points="153.5,-6 153.5,-36 263.5,-36 263.5,-6 153.5,-6"/>
<text text-anchor="start" x="161.5" y="-24" font-family="Helvetica,sans-Serif" font-size="10.00">packages/types/inc</text>
<text text-anchor="middle" x="208.5" y="-13" font-family="Helvetica,sans-Serif" font-size="10.00">/types.hpp</text>
</a>
</g>
</g>
<!-- Node3&#45;&gt;Node6 -->
<g id="edge5" class="edge">
<title>Node3&#45;&gt;Node6</title>
<path fill="none" stroke="midnightblue" d="M322.72,-157.35C290.58,-150.13 252.38,-136.12 228.5,-109 213.36,-91.81 209.04,-65.46 208.09,-46.27"/>
<polygon fill="midnightblue" stroke="midnightblue" points="211.58,-46.1 207.86,-36.18 204.59,-46.26 211.58,-46.1"/>
</g>
<!-- Node7 -->
<g id="node7" class="node">
<title>Node7</title>
<g id="a_node7"><a xlink:href="Traits_8hpp.html" target="_top" xlink:title=" ">
<polygon fill="white" stroke="black" points="237,-78.5 237,-108.5 352,-108.5 352,-78.5 237,-78.5"/>
<text text-anchor="start" x="245" y="-96.5" font-family="Helvetica,sans-Serif" font-size="10.00">packages/primitives</text>
<text text-anchor="middle" x="294.5" y="-85.5" font-family="Helvetica,sans-Serif" font-size="10.00">/inc/Traits.hpp</text>
</a>
</g>
</g>
<!-- Node3&#45;&gt;Node7 -->
<g id="edge6" class="edge">
<title>Node3&#45;&gt;Node7</title>
<path fill="none" stroke="midnightblue" d="M363.1,-150.73C350.54,-140.44 333.41,-126.4 319.41,-114.92"/>
<polygon fill="midnightblue" stroke="midnightblue" points="321.54,-112.14 311.58,-108.5 317.1,-117.55 321.54,-112.14"/>
</g>
<!-- Node9 -->
<g id="node9" class="node">
<title>Node9</title>
<g id="a_node9"><a xlink:title=" ">
<polygon fill="white" stroke="#bfbfbf" points="431.5,-11.5 431.5,-30.5 473.5,-30.5 473.5,-11.5 431.5,-11.5"/>
<text text-anchor="middle" x="452.5" y="-18.5" font-family="Helvetica,sans-Serif" font-size="10.00">array</text>
</a>
</g>
</g>
<!-- Node3&#45;&gt;Node9 -->
<g id="edge12" class="edge">
<title>Node3&#45;&gt;Node9</title>
<path fill="none" stroke="midnightblue" d="M381.49,-150.97C383.23,-133.09 387.95,-101.69 400.5,-78 408.8,-62.34 422.59,-47.78 433.89,-37.43"/>
<polygon fill="midnightblue" stroke="midnightblue" points="436.36,-39.91 441.56,-30.68 431.74,-34.66 436.36,-39.91"/>
</g>
<!-- Node10 -->
<g id="node10" class="node">
<title>Node10</title>
<g id="a_node10"><a xlink:title=" ">
<polygon fill="white" stroke="#bfbfbf" points="546.5,-84 546.5,-103 604.5,-103 604.5,-84 546.5,-84"/>
<text text-anchor="middle" x="575.5" y="-91" font-family="Helvetica,sans-Serif" font-size="10.00">memory</text>
</a>
</g>
</g>
<!-- Node3&#45;&gt;Node10 -->
<g id="edge11" class="edge">
<title>Node3&#45;&gt;Node10</title>
<path fill="none" stroke="midnightblue" d="M420.6,-150.97C452.37,-139.79 497.86,-123.63 537.5,-109 539.6,-108.23 541.76,-107.42 543.94,-106.6"/>
<polygon fill="midnightblue" stroke="midnightblue" points="545.31,-109.83 553.43,-103.02 542.84,-103.28 545.31,-109.83"/>
</g>
<!-- Node11 -->
<g id="node11" class="node">
<title>Node11</title>
<g id="a_node11"><a xlink:title=" ">
<polygon fill="white" stroke="#bfbfbf" points="622.5,-78.5 622.5,-108.5 746.5,-108.5 746.5,-78.5 622.5,-78.5"/>
<text text-anchor="start" x="630.5" y="-96.5" font-family="Helvetica,sans-Serif" font-size="10.00">packages/primitives</text>
<text text-anchor="middle" x="684.5" y="-85.5" font-family="Helvetica,sans-Serif" font-size="10.00">/impl/Object_impl.hpp</text>
</a>
</g>
</g>
<!-- Node3&#45;&gt;Node11 -->
<g id="edge13" class="edge">
<title>Node3&#45;&gt;Node11</title>
<path fill="none" stroke="midnightblue" d="M425.77,-150.95C433.01,-148.86 440.44,-146.8 447.5,-145 463.46,-140.92 548.6,-122.93 612.3,-109.58"/>
<polygon fill="midnightblue" stroke="midnightblue" points="613.25,-112.96 622.32,-107.48 611.82,-106.1 613.25,-112.96"/>
</g>
<!-- Node7&#45;&gt;Node4 -->
<g id="edge8" class="edge">
<title>Node7&#45;&gt;Node4</title>
<path fill="none" stroke="midnightblue" d="M249.38,-78.49C218.3,-68.83 176.31,-55.79 140.5,-44.67"/>
<polygon fill="midnightblue" stroke="midnightblue" points="141.17,-41.22 130.58,-41.59 139.1,-47.9 141.17,-41.22"/>
</g>
<!-- Node7&#45;&gt;Node6 -->
<g id="edge7" class="edge">
<title>Node7&#45;&gt;Node6</title>
<path fill="none" stroke="midnightblue" d="M277.1,-78.23C264.54,-67.94 247.41,-53.9 233.41,-42.42"/>
<polygon fill="midnightblue" stroke="midnightblue" points="235.54,-39.64 225.58,-36 231.1,-45.05 235.54,-39.64"/>
</g>
<!-- Node8 -->
<g id="node8" class="node">
<title>Node8</title>
<g id="a_node8"><a target="_parent" xlink:href="../../../cieutils/docs/html/StaticArray_8hpp.html.html" xlink:title=" ">
<polygon fill="white" stroke="black" points="282,-6 282,-36 413,-36 413,-6 282,-6"/>
<text text-anchor="start" x="290" y="-24" font-family="Helvetica,sans-Serif" font-size="10.00">packages/stl_extension</text>
<text text-anchor="middle" x="347.5" y="-13" font-family="Helvetica,sans-Serif" font-size="10.00">/inc/StaticArray.hpp</text>
</a>
</g>
</g>
<!-- Node7&#45;&gt;Node8 -->
<g id="edge9" class="edge">
<title>Node7&#45;&gt;Node8</title>
<path fill="none" stroke="midnightblue" d="M305.23,-78.23C312.55,-68.49 322.41,-55.37 330.76,-44.26"/>
<polygon fill="midnightblue" stroke="midnightblue" points="333.58,-46.34 336.79,-36.25 327.98,-42.14 333.58,-46.34"/>
</g>
<!-- Node7&#45;&gt;Node9 -->
<g id="edge10" class="edge">
<title>Node7&#45;&gt;Node9</title>
<path fill="none" stroke="midnightblue" d="M336.71,-78.41C362.15,-69.29 394.87,-56.45 422.5,-42 425.76,-40.29 429.11,-38.32 432.32,-36.28"/>
<polygon fill="midnightblue" stroke="midnightblue" points="434.5,-39.04 440.89,-30.58 430.62,-33.21 434.5,-39.04"/>
</g>
</g>
</svg>
