<?xml version="1.0" encoding="UTF-8" standalone="no"?>
<!DOCTYPE svg PUBLIC "-//W3C//DTD SVG 1.1//EN"
 "http://www.w3.org/Graphics/SVG/1.1/DTD/svg11.dtd">
<!-- Generated by graphviz version 2.43.0 (0)
 -->
<!-- Title: BinaryOperator.hpp Pages: 1 -->
<svg width="299pt" height="140pt"
 viewBox="0.00 0.00 298.50 140.00" xmlns="http://www.w3.org/2000/svg" xmlns:xlink="http://www.w3.org/1999/xlink">
<g id="graph0" class="graph" transform="scale(1 1) rotate(0) translate(4 136)">
<title>BinaryOperator.hpp</title>
<polygon fill="white" stroke="transparent" points="-4,4 -4,-136 294.5,-136 294.5,4 -4,4"/>
<!-- Node1 -->
<g id="node1" class="node">
<title>Node1</title>
<g id="a_node1"><a xlink:title=" ">
<polygon fill="#bfbfbf" stroke="black" points="104,-112.5 104,-131.5 215,-131.5 215,-112.5 104,-112.5"/>
<text text-anchor="middle" x="159.5" y="-119.5" font-family="Helvetica,sans-Serif" font-size="10.00">BinaryOperator.hpp</text>
</a>
</g>
</g>
<!-- Node2 -->
<g id="node2" class="node">
<title>Node2</title>
<g id="a_node2"><a xlink:href="Intersection_8hpp.html" target="_top" xlink:title=" ">
<polygon fill="white" stroke="black" points="0,-56.5 0,-75.5 95,-75.5 95,-56.5 0,-56.5"/>
<text text-anchor="middle" x="47.5" y="-63.5" font-family="Helvetica,sans-Serif" font-size="10.00">Intersection.hpp</text>
</a>
</g>
</g>
<!-- Node1&#45;&gt;Node2 -->
<g id="edge1" class="edge">
<title>Node1&#45;&gt;Node2</title>
<path fill="none" stroke="midnightblue" d="M132.25,-107.86C111.48,-97.85 83.48,-84.35 65.45,-75.65"/>
<polygon fill="midnightblue" stroke="midnightblue" points="130.98,-111.13 141.51,-112.32 134.02,-104.83 130.98,-111.13"/>
</g>
<!-- Node4 -->
<g id="node4" class="node">
<title>Node4</title>
<g id="a_node4"><a xlink:href="Subtraction_8hpp.html" target="_top" xlink:title=" ">
<polygon fill="white" stroke="black" points="113,-56.5 113,-75.5 206,-75.5 206,-56.5 113,-56.5"/>
<text text-anchor="middle" x="159.5" y="-63.5" font-family="Helvetica,sans-Serif" font-size="10.00">Subtraction.hpp</text>
</a>
</g>
</g>
<!-- Node1&#45;&gt;Node4 -->
<g id="edge3" class="edge">
<title>Node1&#45;&gt;Node4</title>
<path fill="none" stroke="midnightblue" d="M159.5,-101.8C159.5,-92.91 159.5,-82.78 159.5,-75.75"/>
<polygon fill="midnightblue" stroke="midnightblue" points="156,-102.08 159.5,-112.08 163,-102.08 156,-102.08"/>
</g>
<!-- Node5 -->
<g id="node5" class="node">
<title>Node5</title>
<g id="a_node5"><a xlink:href="Union_8hpp.html" target="_top" xlink:title=" ">
<polygon fill="white" stroke="black" points="224.5,-56.5 224.5,-75.5 290.5,-75.5 290.5,-56.5 224.5,-56.5"/>
<text text-anchor="middle" x="257.5" y="-63.5" font-family="Helvetica,sans-Serif" font-size="10.00">Union.hpp</text>
</a>
</g>
</g>
<!-- Node1&#45;&gt;Node5 -->
<g id="edge5" class="edge">
<title>Node1&#45;&gt;Node5</title>
<path fill="none" stroke="midnightblue" d="M184.09,-107.45C202.18,-97.48 226.23,-84.23 241.79,-75.65"/>
<polygon fill="midnightblue" stroke="midnightblue" points="182.31,-104.43 175.25,-112.32 185.69,-110.56 182.31,-104.43"/>
</g>
<!-- Node3 -->
<g id="node3" class="node">
<title>Node3</title>
<g id="a_node3"><a xlink:href="overloads_8hpp.html" target="_top" xlink:title=" ">
<polygon fill="white" stroke="black" points="116.5,-0.5 116.5,-19.5 202.5,-19.5 202.5,-0.5 116.5,-0.5"/>
<text text-anchor="middle" x="159.5" y="-7.5" font-family="Helvetica,sans-Serif" font-size="10.00">overloads.hpp</text>
</a>
</g>
</g>
<!-- Node2&#45;&gt;Node3 -->
<g id="edge2" class="edge">
<title>Node2&#45;&gt;Node3</title>
<path fill="none" stroke="midnightblue" d="M74.75,-51.86C95.52,-41.85 123.52,-28.35 141.55,-19.65"/>
<polygon fill="midnightblue" stroke="midnightblue" points="72.98,-48.83 65.49,-56.32 76.02,-55.13 72.98,-48.83"/>
</g>
<!-- Node4&#45;&gt;Node3 -->
<g id="edge4" class="edge">
<title>Node4&#45;&gt;Node3</title>
<path fill="none" stroke="midnightblue" d="M159.5,-45.8C159.5,-36.91 159.5,-26.78 159.5,-19.75"/>
<polygon fill="midnightblue" stroke="midnightblue" points="156,-46.08 159.5,-56.08 163,-46.08 156,-46.08"/>
</g>
<!-- Node5&#45;&gt;Node3 -->
<g id="edge6" class="edge">
<title>Node5&#45;&gt;Node3</title>
<path fill="none" stroke="midnightblue" d="M232.91,-51.45C214.82,-41.48 190.77,-28.23 175.21,-19.65"/>
<polygon fill="midnightblue" stroke="midnightblue" points="231.31,-54.56 241.75,-56.32 234.69,-48.43 231.31,-54.56"/>
</g>
</g>
</svg>
