<?xml version="1.0" encoding="UTF-8" standalone="no"?>
<!DOCTYPE svg PUBLIC "-//W3C//DTD SVG 1.1//EN"
 "http://www.w3.org/Graphics/SVG/1.1/DTD/svg11.dtd">
<!-- Generated by graphviz version 2.43.0 (0)
 -->
<!-- Title: boundingBox.hpp Pages: 1 -->
<svg width="1009pt" height="597pt"
 viewBox="0.00 0.00 1009.00 597.00" xmlns="http://www.w3.org/2000/svg" xmlns:xlink="http://www.w3.org/1999/xlink">
<g id="graph0" class="graph" transform="scale(1 1) rotate(0) translate(4 593)">
<title>boundingBox.hpp</title>
<polygon fill="white" stroke="transparent" points="-4,4 -4,-593 1005,-593 1005,4 -4,4"/>
<!-- Node1 -->
<g id="node1" class="node">
<title>Node1</title>
<g id="a_node1"><a xlink:title=" ">
<polygon fill="#bfbfbf" stroke="black" points="444.5,-569.5 444.5,-588.5 545.5,-588.5 545.5,-569.5 444.5,-569.5"/>
<text text-anchor="middle" x="495" y="-576.5" font-family="Helvetica,sans-Serif" font-size="10.00">boundingBox.hpp</text>
</a>
</g>
</g>
<!-- Node2 -->
<g id="node2" class="node">
<title>Node2</title>
<g id="a_node2"><a target="_parent" xlink:href="../../../cieutils/docs/html/container__concepts_8hpp.html.html" xlink:title=" ">
<polygon fill="white" stroke="black" points="300.5,-0.5 300.5,-41.5 435.5,-41.5 435.5,-0.5 300.5,-0.5"/>
<text text-anchor="start" x="308.5" y="-29.5" font-family="Helvetica,sans-Serif" font-size="10.00">packages/compile_time</text>
<text text-anchor="start" x="308.5" y="-18.5" font-family="Helvetica,sans-Serif" font-size="10.00">/packages/concepts/inc</text>
<text text-anchor="middle" x="368" y="-7.5" font-family="Helvetica,sans-Serif" font-size="10.00">/container_concepts.hpp</text>
</a>
</g>
</g>
<!-- Node1&#45;&gt;Node2 -->
<g id="edge1" class="edge">
<title>Node1&#45;&gt;Node2</title>
<path fill="none" stroke="midnightblue" d="M444.35,-575.26C318.19,-567.04 0,-537.28 0,-446 0,-446 0,-446 0,-165 0,-103.27 182.19,-57.61 290.18,-35.97"/>
<polygon fill="midnightblue" stroke="midnightblue" points="290.94,-39.39 300.07,-34.01 289.59,-32.52 290.94,-39.39"/>
</g>
<!-- Node3 -->
<g id="node3" class="node">
<title>Node3</title>
<g id="a_node3"><a xlink:href="AbsBoundableObject_8hpp.html" target="_top" xlink:title=" ">
<polygon fill="white" stroke="black" points="200.5,-502.5 200.5,-532.5 359.5,-532.5 359.5,-502.5 200.5,-502.5"/>
<text text-anchor="start" x="208.5" y="-520.5" font-family="Helvetica,sans-Serif" font-size="10.00">packages/partitioning</text>
<text text-anchor="middle" x="280" y="-509.5" font-family="Helvetica,sans-Serif" font-size="10.00">/inc/AbsBoundableObject.hpp</text>
</a>
</g>
</g>
<!-- Node1&#45;&gt;Node3 -->
<g id="edge2" class="edge">
<title>Node1&#45;&gt;Node3</title>
<path fill="none" stroke="midnightblue" d="M464.2,-569.48C432.02,-560.57 380.7,-546.37 340.4,-535.22"/>
<polygon fill="midnightblue" stroke="midnightblue" points="341.24,-531.82 330.67,-532.52 339.38,-538.56 341.24,-531.82"/>
</g>
<!-- Node8 -->
<g id="node8" class="node">
<title>Node8</title>
<g id="a_node8"><a xlink:href="Object_8hpp.html" target="_top" xlink:title=" ">
<polygon fill="white" stroke="black" points="604.5,-151 604.5,-181 719.5,-181 719.5,-151 604.5,-151"/>
<text text-anchor="start" x="612.5" y="-169" font-family="Helvetica,sans-Serif" font-size="10.00">packages/primitives</text>
<text text-anchor="middle" x="662" y="-158" font-family="Helvetica,sans-Serif" font-size="10.00">/inc/Object.hpp</text>
</a>
</g>
</g>
<!-- Node1&#45;&gt;Node8 -->
<g id="edge30" class="edge">
<title>Node1&#45;&gt;Node8</title>
<path fill="none" stroke="midnightblue" d="M545.55,-574.52C620.93,-566.28 754,-538.61 754,-446 754,-446 754,-446 754,-304.5 754,-256.66 715.06,-212.87 687.84,-188.11"/>
<polygon fill="midnightblue" stroke="midnightblue" points="689.99,-185.33 680.18,-181.34 685.36,-190.58 689.99,-185.33"/>
</g>
<!-- Node22 -->
<g id="node22" class="node">
<title>Node22</title>
<g id="a_node22"><a xlink:title=" ">
<polygon fill="white" stroke="#bfbfbf" points="782,-502.5 782,-532.5 938,-532.5 938,-502.5 782,-502.5"/>
<text text-anchor="start" x="790" y="-520.5" font-family="Helvetica,sans-Serif" font-size="10.00">packages/partitioning</text>
<text text-anchor="middle" x="860" y="-509.5" font-family="Helvetica,sans-Serif" font-size="10.00">/impl/boundingBox_impl.hpp</text>
</a>
</g>
</g>
<!-- Node1&#45;&gt;Node22 -->
<g id="edge31" class="edge">
<title>Node1&#45;&gt;Node22</title>
<path fill="none" stroke="midnightblue" d="M545.75,-569.73C604.1,-560.22 700.91,-544.43 771.68,-532.9"/>
<polygon fill="midnightblue" stroke="midnightblue" points="772.62,-536.29 781.93,-531.23 771.5,-529.38 772.62,-536.29"/>
</g>
<!-- Node4 -->
<g id="node4" class="node">
<title>Node4</title>
<g id="a_node4"><a target="_parent" xlink:href="../../../cieutils/docs/html/basic__concepts_8hpp.html.html" xlink:title=" ">
<polygon fill="white" stroke="black" points="373,-145.5 373,-186.5 505,-186.5 505,-145.5 373,-145.5"/>
<text text-anchor="start" x="381" y="-174.5" font-family="Helvetica,sans-Serif" font-size="10.00">packages/compile_time</text>
<text text-anchor="start" x="381" y="-163.5" font-family="Helvetica,sans-Serif" font-size="10.00">/packages/concepts/inc</text>
<text text-anchor="middle" x="439" y="-152.5" font-family="Helvetica,sans-Serif" font-size="10.00">/basic_concepts.hpp</text>
</a>
</g>
</g>
<!-- Node3&#45;&gt;Node4 -->
<g id="edge3" class="edge">
<title>Node3&#45;&gt;Node4</title>
<path fill="none" stroke="midnightblue" d="M276.57,-502.26C268.39,-465.02 250.97,-362.6 287,-290 308.84,-245.99 354.57,-212.43 390.2,-191.57"/>
<polygon fill="midnightblue" stroke="midnightblue" points="392.06,-194.53 399.02,-186.54 388.6,-188.45 392.06,-194.53"/>
</g>
<!-- Node5 -->
<g id="node5" class="node">
<title>Node5</title>
<g id="a_node5"><a xlink:href="AABBox_8hpp.html" target="_top" xlink:title=" ">
<polygon fill="white" stroke="black" points="332,-430 332,-460 454,-460 454,-430 332,-430"/>
<text text-anchor="start" x="340" y="-448" font-family="Helvetica,sans-Serif" font-size="10.00">packages/partitioning</text>
<text text-anchor="middle" x="393" y="-437" font-family="Helvetica,sans-Serif" font-size="10.00">/inc/AABBox.hpp</text>
</a>
</g>
</g>
<!-- Node3&#45;&gt;Node5 -->
<g id="edge4" class="edge">
<title>Node3&#45;&gt;Node5</title>
<path fill="none" stroke="midnightblue" d="M302.6,-502.4C319.61,-491.79 343.13,-477.11 361.92,-465.39"/>
<polygon fill="midnightblue" stroke="midnightblue" points="363.81,-468.34 370.44,-460.07 360.11,-462.4 363.81,-468.34"/>
</g>
<!-- Node20 -->
<g id="node20" class="node">
<title>Node20</title>
<g id="a_node20"><a xlink:title=" ">
<polygon fill="white" stroke="#bfbfbf" points="28,-435.5 28,-454.5 88,-454.5 88,-435.5 28,-435.5"/>
<text text-anchor="middle" x="58" y="-442.5" font-family="Helvetica,sans-Serif" font-size="10.00">concepts</text>
</a>
</g>
</g>
<!-- Node3&#45;&gt;Node20 -->
<g id="edge28" class="edge">
<title>Node3&#45;&gt;Node20</title>
<path fill="none" stroke="midnightblue" d="M216.71,-502.43C180.99,-493.65 135.85,-481.14 97,-466 91.99,-464.05 86.77,-461.65 81.84,-459.2"/>
<polygon fill="midnightblue" stroke="midnightblue" points="83.34,-456.03 72.86,-454.53 80.11,-462.24 83.34,-456.03"/>
</g>
<!-- Node21 -->
<g id="node21" class="node">
<title>Node21</title>
<g id="a_node21"><a xlink:title=" ">
<polygon fill="white" stroke="#bfbfbf" points="106,-424.5 106,-465.5 252,-465.5 252,-424.5 106,-424.5"/>
<text text-anchor="start" x="114" y="-453.5" font-family="Helvetica,sans-Serif" font-size="10.00">packages/partitioning</text>
<text text-anchor="start" x="114" y="-442.5" font-family="Helvetica,sans-Serif" font-size="10.00">/impl/AbsBoundableObject</text>
<text text-anchor="middle" x="179" y="-431.5" font-family="Helvetica,sans-Serif" font-size="10.00">_impl.hpp</text>
</a>
</g>
</g>
<!-- Node3&#45;&gt;Node21 -->
<g id="edge29" class="edge">
<title>Node3&#45;&gt;Node21</title>
<path fill="none" stroke="midnightblue" d="M259.56,-502.23C246.94,-493.42 230.37,-481.86 215.55,-471.51"/>
<polygon fill="midnightblue" stroke="midnightblue" points="217.27,-468.44 207.06,-465.59 213.26,-474.18 217.27,-468.44"/>
</g>
<!-- Node6 -->
<g id="node6" class="node">
<title>Node6</title>
<g id="a_node6"><a xlink:href="Box_8hpp.html" target="_top" xlink:title=" ">
<polygon fill="white" stroke="black" points="488.5,-357.5 488.5,-387.5 603.5,-387.5 603.5,-357.5 488.5,-357.5"/>
<text text-anchor="start" x="496.5" y="-375.5" font-family="Helvetica,sans-Serif" font-size="10.00">packages/primitives</text>
<text text-anchor="middle" x="546" y="-364.5" font-family="Helvetica,sans-Serif" font-size="10.00">/inc/Box.hpp</text>
</a>
</g>
</g>
<!-- Node5&#45;&gt;Node6 -->
<g id="edge5" class="edge">
<title>Node5&#45;&gt;Node6</title>
<path fill="none" stroke="midnightblue" d="M423.59,-429.9C447.36,-418.95 480.51,-403.68 506.31,-391.79"/>
<polygon fill="midnightblue" stroke="midnightblue" points="507.84,-394.94 515.46,-387.57 504.91,-388.58 507.84,-394.94"/>
</g>
<!-- Node19 -->
<g id="node19" class="node">
<title>Node19</title>
<g id="a_node19"><a xlink:title=" ">
<polygon fill="white" stroke="#bfbfbf" points="327.5,-357.5 327.5,-387.5 458.5,-387.5 458.5,-357.5 327.5,-357.5"/>
<text text-anchor="start" x="335.5" y="-375.5" font-family="Helvetica,sans-Serif" font-size="10.00">packages/partitioning</text>
<text text-anchor="middle" x="393" y="-364.5" font-family="Helvetica,sans-Serif" font-size="10.00">/impl/AABBox_impl.hpp</text>
</a>
</g>
</g>
<!-- Node5&#45;&gt;Node19 -->
<g id="edge27" class="edge">
<title>Node5&#45;&gt;Node19</title>
<path fill="none" stroke="midnightblue" d="M393,-429.73C393,-420.66 393,-408.66 393,-398.08"/>
<polygon fill="midnightblue" stroke="midnightblue" points="396.5,-397.75 393,-387.75 389.5,-397.75 396.5,-397.75"/>
</g>
<!-- Node6&#45;&gt;Node2 -->
<g id="edge6" class="edge">
<title>Node6&#45;&gt;Node2</title>
<path fill="none" stroke="midnightblue" d="M586.02,-357.38C602.39,-349.4 619.66,-337.62 629,-321 635.75,-308.99 633.53,-303.01 629,-290 601.94,-212.33 582.23,-190.93 514,-145 466.75,-113.19 430.74,-149.8 391,-109 376.26,-93.87 370.67,-70.45 368.68,-51.72"/>
<polygon fill="midnightblue" stroke="midnightblue" points="372.16,-51.31 367.9,-41.61 365.18,-51.85 372.16,-51.31"/>
</g>
<!-- Node7 -->
<g id="node7" class="node">
<title>Node7</title>
<g id="a_node7"><a xlink:href="Primitive_8hpp.html" target="_top" xlink:title=" ">
<polygon fill="white" stroke="black" points="446.5,-223.5 446.5,-253.5 561.5,-253.5 561.5,-223.5 446.5,-223.5"/>
<text text-anchor="start" x="454.5" y="-241.5" font-family="Helvetica,sans-Serif" font-size="10.00">packages/primitives</text>
<text text-anchor="middle" x="504" y="-230.5" font-family="Helvetica,sans-Serif" font-size="10.00">/inc/Primitive.hpp</text>
</a>
</g>
</g>
<!-- Node6&#45;&gt;Node7 -->
<g id="edge7" class="edge">
<title>Node6&#45;&gt;Node7</title>
<path fill="none" stroke="midnightblue" d="M575.69,-357.34C589.74,-348.92 605.14,-336.77 613,-321 619.15,-308.67 620.42,-301.61 613,-290 603.2,-274.65 587.4,-263.9 570.83,-256.39"/>
<polygon fill="midnightblue" stroke="midnightblue" points="572.16,-253.15 561.59,-252.55 569.47,-259.62 572.16,-253.15"/>
</g>
<!-- Node13 -->
<g id="node13" class="node">
<title>Node13</title>
<g id="a_node13"><a xlink:title=" ">
<polygon fill="white" stroke="#bfbfbf" points="959,-11.5 959,-30.5 1001,-30.5 1001,-11.5 959,-11.5"/>
<text text-anchor="middle" x="980" y="-18.5" font-family="Helvetica,sans-Serif" font-size="10.00">array</text>
</a>
</g>
</g>
<!-- Node6&#45;&gt;Node13 -->
<g id="edge25" class="edge">
<title>Node6&#45;&gt;Node13</title>
<path fill="none" stroke="midnightblue" d="M597.92,-357.4C692.45,-328.65 890.67,-253.39 975,-109 987.25,-88.02 986.1,-59.13 983.54,-40.51"/>
<polygon fill="midnightblue" stroke="midnightblue" points="986.99,-39.93 981.92,-30.63 980.09,-41.07 986.99,-39.93"/>
</g>
<!-- Node16 -->
<g id="node16" class="node">
<title>Node16</title>
<g id="a_node16"><a xlink:href="primitives_2inc_2concepts_8hpp.html" target="_top" xlink:title=" ">
<polygon fill="white" stroke="black" points="296.5,-290.5 296.5,-320.5 411.5,-320.5 411.5,-290.5 296.5,-290.5"/>
<text text-anchor="start" x="304.5" y="-308.5" font-family="Helvetica,sans-Serif" font-size="10.00">packages/primitives</text>
<text text-anchor="middle" x="354" y="-297.5" font-family="Helvetica,sans-Serif" font-size="10.00">/inc/concepts.hpp</text>
</a>
</g>
</g>
<!-- Node6&#45;&gt;Node16 -->
<g id="edge21" class="edge">
<title>Node6&#45;&gt;Node16</title>
<path fill="none" stroke="midnightblue" d="M504.34,-357.4C475.28,-347.56 436.31,-334.37 405.33,-323.88"/>
<polygon fill="midnightblue" stroke="midnightblue" points="406.17,-320.47 395.58,-320.58 403.93,-327.1 406.17,-320.47"/>
</g>
<!-- Node17 -->
<g id="node17" class="node">
<title>Node17</title>
<g id="a_node17"><a xlink:title=" ">
<polygon fill="white" stroke="#bfbfbf" points="429.5,-296 429.5,-315 470.5,-315 470.5,-296 429.5,-296"/>
<text text-anchor="middle" x="450" y="-303" font-family="Helvetica,sans-Serif" font-size="10.00">tuple</text>
</a>
</g>
</g>
<!-- Node6&#45;&gt;Node17 -->
<g id="edge24" class="edge">
<title>Node6&#45;&gt;Node17</title>
<path fill="none" stroke="midnightblue" d="M525.17,-357.4C509.22,-346.6 487.3,-331.76 471.25,-320.89"/>
<polygon fill="midnightblue" stroke="midnightblue" points="472.81,-317.72 462.56,-315.01 468.88,-323.51 472.81,-317.72"/>
</g>
<!-- Node18 -->
<g id="node18" class="node">
<title>Node18</title>
<g id="a_node18"><a xlink:title=" ">
<polygon fill="white" stroke="#bfbfbf" points="488.5,-290.5 488.5,-320.5 603.5,-320.5 603.5,-290.5 488.5,-290.5"/>
<text text-anchor="start" x="496.5" y="-308.5" font-family="Helvetica,sans-Serif" font-size="10.00">packages/primitives</text>
<text text-anchor="middle" x="546" y="-297.5" font-family="Helvetica,sans-Serif" font-size="10.00">/impl/Box_impl.hpp</text>
</a>
</g>
</g>
<!-- Node6&#45;&gt;Node18 -->
<g id="edge26" class="edge">
<title>Node6&#45;&gt;Node18</title>
<path fill="none" stroke="midnightblue" d="M546,-357.4C546,-349.64 546,-339.81 546,-330.86"/>
<polygon fill="midnightblue" stroke="midnightblue" points="549.5,-330.58 546,-320.58 542.5,-330.58 549.5,-330.58"/>
</g>
<!-- Node7&#45;&gt;Node4 -->
<g id="edge8" class="edge">
<title>Node7&#45;&gt;Node4</title>
<path fill="none" stroke="midnightblue" d="M490.85,-223.23C483.1,-214.83 473.05,-203.93 463.86,-193.97"/>
<polygon fill="midnightblue" stroke="midnightblue" points="466.41,-191.57 457.06,-186.59 461.27,-196.31 466.41,-191.57"/>
</g>
<!-- Node7&#45;&gt;Node8 -->
<g id="edge9" class="edge">
<title>Node7&#45;&gt;Node8</title>
<path fill="none" stroke="midnightblue" d="M535.59,-223.4C560.14,-212.45 594.37,-197.18 621.02,-185.29"/>
<polygon fill="midnightblue" stroke="midnightblue" points="622.75,-188.34 630.46,-181.07 619.9,-181.95 622.75,-188.34"/>
</g>
<!-- Node8&#45;&gt;Node2 -->
<g id="edge10" class="edge">
<title>Node8&#45;&gt;Node2</title>
<path fill="none" stroke="midnightblue" d="M604.32,-151.51C534.46,-135.15 425.94,-109.66 425,-109 404.51,-94.64 389.5,-70.33 380.04,-51.05"/>
<polygon fill="midnightblue" stroke="midnightblue" points="383.12,-49.37 375.72,-41.78 376.77,-52.33 383.12,-49.37"/>
</g>
<!-- Node9 -->
<g id="node9" class="node">
<title>Node9</title>
<g id="a_node9"><a target="_parent" xlink:href="../../../cieutils/docs/html/typedefs_8hpp.html.html" xlink:title=" ">
<polygon fill="white" stroke="black" points="690.5,-78.5 690.5,-108.5 809.5,-108.5 809.5,-78.5 690.5,-78.5"/>
<text text-anchor="start" x="698.5" y="-96.5" font-family="Helvetica,sans-Serif" font-size="10.00">packages/macros/inc</text>
<text text-anchor="middle" x="750" y="-85.5" font-family="Helvetica,sans-Serif" font-size="10.00">/typedefs.hpp</text>
</a>
</g>
</g>
<!-- Node8&#45;&gt;Node9 -->
<g id="edge11" class="edge">
<title>Node8&#45;&gt;Node9</title>
<path fill="none" stroke="midnightblue" d="M679.81,-150.73C692.65,-140.44 710.19,-126.4 724.51,-114.92"/>
<polygon fill="midnightblue" stroke="midnightblue" points="726.9,-117.49 732.52,-108.5 722.53,-112.03 726.9,-117.49"/>
</g>
<!-- Node10 -->
<g id="node10" class="node">
<title>Node10</title>
<g id="a_node10"><a target="_parent" xlink:href="../../../cieutils/docs/html/types_8hpp.html.html" xlink:title=" ">
<polygon fill="white" stroke="black" points="639,-6 639,-36 749,-36 749,-6 639,-6"/>
<text text-anchor="start" x="647" y="-24" font-family="Helvetica,sans-Serif" font-size="10.00">packages/types/inc</text>
<text text-anchor="middle" x="694" y="-13" font-family="Helvetica,sans-Serif" font-size="10.00">/types.hpp</text>
</a>
</g>
</g>
<!-- Node8&#45;&gt;Node10 -->
<g id="edge12" class="edge">
<title>Node8&#45;&gt;Node10</title>
<path fill="none" stroke="midnightblue" d="M665.19,-150.77C670.65,-126.35 681.86,-76.24 688.58,-46.24"/>
<polygon fill="midnightblue" stroke="midnightblue" points="692.06,-46.7 690.83,-36.18 685.23,-45.17 692.06,-46.7"/>
</g>
<!-- Node11 -->
<g id="node11" class="node">
<title>Node11</title>
<g id="a_node11"><a xlink:href="Traits_8hpp.html" target="_top" xlink:title=" ">
<polygon fill="white" stroke="black" points="827.5,-78.5 827.5,-108.5 942.5,-108.5 942.5,-78.5 827.5,-78.5"/>
<text text-anchor="start" x="835.5" y="-96.5" font-family="Helvetica,sans-Serif" font-size="10.00">packages/primitives</text>
<text text-anchor="middle" x="885" y="-85.5" font-family="Helvetica,sans-Serif" font-size="10.00">/inc/Traits.hpp</text>
</a>
</g>
</g>
<!-- Node8&#45;&gt;Node11 -->
<g id="edge13" class="edge">
<title>Node8&#45;&gt;Node11</title>
<path fill="none" stroke="midnightblue" d="M706.32,-150.99C742,-139.71 792.31,-123.8 830.46,-111.74"/>
<polygon fill="midnightblue" stroke="midnightblue" points="831.9,-114.96 840.38,-108.61 829.79,-108.28 831.9,-114.96"/>
</g>
<!-- Node8&#45;&gt;Node13 -->
<g id="edge19" class="edge">
<title>Node8&#45;&gt;Node13</title>
<path fill="none" stroke="midnightblue" d="M719.68,-160.75C794.18,-154.13 918.28,-138.88 952,-109 971.55,-91.68 977.53,-60.66 979.32,-40.72"/>
<polygon fill="midnightblue" stroke="midnightblue" points="982.81,-40.9 979.94,-30.7 975.83,-40.46 982.81,-40.9"/>
</g>
<!-- Node14 -->
<g id="node14" class="node">
<title>Node14</title>
<g id="a_node14"><a xlink:title=" ">
<polygon fill="white" stroke="#bfbfbf" points="434,-84 434,-103 492,-103 492,-84 434,-84"/>
<text text-anchor="middle" x="463" y="-91" font-family="Helvetica,sans-Serif" font-size="10.00">memory</text>
</a>
</g>
</g>
<!-- Node8&#45;&gt;Node14 -->
<g id="edge18" class="edge">
<title>Node8&#45;&gt;Node14</title>
<path fill="none" stroke="midnightblue" d="M620.52,-150.95C587.93,-139.82 541.45,-123.75 501,-109 498.9,-108.23 496.73,-107.43 494.56,-106.62"/>
<polygon fill="midnightblue" stroke="midnightblue" points="495.65,-103.3 485.06,-103.05 493.19,-109.85 495.65,-103.3"/>
</g>
<!-- Node15 -->
<g id="node15" class="node">
<title>Node15</title>
<g id="a_node15"><a xlink:title=" ">
<polygon fill="white" stroke="#bfbfbf" points="510,-78.5 510,-108.5 634,-108.5 634,-78.5 510,-78.5"/>
<text text-anchor="start" x="518" y="-96.5" font-family="Helvetica,sans-Serif" font-size="10.00">packages/primitives</text>
<text text-anchor="middle" x="572" y="-85.5" font-family="Helvetica,sans-Serif" font-size="10.00">/impl/Object_impl.hpp</text>
</a>
</g>
</g>
<!-- Node8&#45;&gt;Node15 -->
<g id="edge20" class="edge">
<title>Node8&#45;&gt;Node15</title>
<path fill="none" stroke="midnightblue" d="M643.79,-150.73C630.65,-140.44 612.72,-126.4 598.07,-114.92"/>
<polygon fill="midnightblue" stroke="midnightblue" points="599.91,-111.92 589.88,-108.5 595.59,-117.43 599.91,-111.92"/>
</g>
<!-- Node11&#45;&gt;Node2 -->
<g id="edge15" class="edge">
<title>Node11&#45;&gt;Node2</title>
<path fill="none" stroke="midnightblue" d="M827.47,-79.53C824.61,-78.99 821.78,-78.48 819,-78 688.71,-55.65 535.79,-38.57 445.66,-29.43"/>
<polygon fill="midnightblue" stroke="midnightblue" points="445.83,-25.93 435.53,-28.41 445.13,-32.9 445.83,-25.93"/>
</g>
<!-- Node11&#45;&gt;Node10 -->
<g id="edge14" class="edge">
<title>Node11&#45;&gt;Node10</title>
<path fill="none" stroke="midnightblue" d="M846.81,-78.4C816.62,-67.26 774.3,-51.64 741.86,-39.66"/>
<polygon fill="midnightblue" stroke="midnightblue" points="742.72,-36.25 732.13,-36.07 740.3,-42.82 742.72,-36.25"/>
</g>
<!-- Node12 -->
<g id="node12" class="node">
<title>Node12</title>
<g id="a_node12"><a target="_parent" xlink:href="../../../cieutils/docs/html/StaticArray_8hpp.html.html" xlink:title=" ">
<polygon fill="white" stroke="black" points="809.5,-6 809.5,-36 940.5,-36 940.5,-6 809.5,-6"/>
<text text-anchor="start" x="817.5" y="-24" font-family="Helvetica,sans-Serif" font-size="10.00">packages/stl_extension</text>
<text text-anchor="middle" x="875" y="-13" font-family="Helvetica,sans-Serif" font-size="10.00">/inc/StaticArray.hpp</text>
</a>
</g>
</g>
<!-- Node11&#45;&gt;Node12 -->
<g id="edge16" class="edge">
<title>Node11&#45;&gt;Node12</title>
<path fill="none" stroke="midnightblue" d="M882.98,-78.23C881.68,-69.06 879.95,-56.91 878.44,-46.24"/>
<polygon fill="midnightblue" stroke="midnightblue" points="881.89,-45.65 877.02,-36.25 874.96,-46.64 881.89,-45.65"/>
</g>
<!-- Node11&#45;&gt;Node13 -->
<g id="edge17" class="edge">
<title>Node11&#45;&gt;Node13</title>
<path fill="none" stroke="midnightblue" d="M904.22,-78.23C920.42,-66.22 943.51,-49.08 959.93,-36.89"/>
<polygon fill="midnightblue" stroke="midnightblue" points="962.34,-39.46 968.29,-30.69 958.17,-33.84 962.34,-39.46"/>
</g>
<!-- Node16&#45;&gt;Node2 -->
<g id="edge22" class="edge">
<title>Node16&#45;&gt;Node2</title>
<path fill="none" stroke="midnightblue" d="M352.81,-290.38C350.05,-254.65 344.17,-157.81 354,-78 355.07,-69.3 357.04,-60.01 359.18,-51.55"/>
<polygon fill="midnightblue" stroke="midnightblue" points="362.6,-52.3 361.81,-41.73 355.84,-50.49 362.6,-52.3"/>
</g>
<!-- Node16&#45;&gt;Node7 -->
<g id="edge23" class="edge">
<title>Node16&#45;&gt;Node7</title>
<path fill="none" stroke="midnightblue" d="M386.55,-290.4C408.76,-280.77 438.38,-267.94 462.31,-257.56"/>
<polygon fill="midnightblue" stroke="midnightblue" points="463.73,-260.76 471.52,-253.58 460.95,-254.34 463.73,-260.76"/>
</g>
</g>
</svg>
