<?xml version="1.0" encoding="UTF-8" standalone="no"?>
<!DOCTYPE svg PUBLIC "-//W3C//DTD SVG 1.1//EN"
 "http://www.w3.org/Graphics/SVG/1.1/DTD/svg11.dtd">
<!-- Generated by graphviz version 2.43.0 (0)
 -->
<!-- Title: Box.hpp Pages: 1 -->
<svg width="833pt" height="252pt"
 viewBox="0.00 0.00 832.50 252.00" xmlns="http://www.w3.org/2000/svg" xmlns:xlink="http://www.w3.org/1999/xlink">
<g id="graph0" class="graph" transform="scale(1 1) rotate(0) translate(4 248)">
<title>Box.hpp</title>
<polygon fill="white" stroke="transparent" points="-4,4 -4,-248 828.5,-248 828.5,4 -4,4"/>
<!-- Node1 -->
<g id="node1" class="node">
<title>Node1</title>
<g id="a_node1"><a xlink:title=" ">
<polygon fill="#bfbfbf" stroke="black" points="398.5,-224.5 398.5,-243.5 454.5,-243.5 454.5,-224.5 398.5,-224.5"/>
<text text-anchor="middle" x="426.5" y="-231.5" font-family="Helvetica,sans-Serif" font-size="10.00">Box.hpp</text>
</a>
</g>
</g>
<!-- Node2 -->
<g id="node2" class="node">
<title>Node2</title>
<g id="a_node2"><a xlink:href="MarchingCubes_8hpp.html" target="_top" xlink:title=" ">
<polygon fill="white" stroke="black" points="0,-168.5 0,-187.5 113,-187.5 113,-168.5 0,-168.5"/>
<text text-anchor="middle" x="56.5" y="-175.5" font-family="Helvetica,sans-Serif" font-size="10.00">MarchingCubes.hpp</text>
</a>
</g>
</g>
<!-- Node1&#45;&gt;Node2 -->
<g id="edge1" class="edge">
<title>Node1&#45;&gt;Node2</title>
<path fill="none" stroke="midnightblue" d="M388.12,-227.4C322.74,-217.86 189.48,-198.41 113.29,-187.29"/>
<polygon fill="midnightblue" stroke="midnightblue" points="387.99,-230.92 398.39,-228.9 389,-223.99 387.99,-230.92"/>
</g>
<!-- Node3 -->
<g id="node3" class="node">
<title>Node3</title>
<g id="a_node3"><a xlink:href="AABBox_8hpp.html" target="_top" xlink:title=" ">
<polygon fill="white" stroke="black" points="131,-168.5 131,-187.5 208,-187.5 208,-168.5 131,-168.5"/>
<text text-anchor="middle" x="169.5" y="-175.5" font-family="Helvetica,sans-Serif" font-size="10.00">AABBox.hpp</text>
</a>
</g>
</g>
<!-- Node1&#45;&gt;Node3 -->
<g id="edge2" class="edge">
<title>Node1&#45;&gt;Node3</title>
<path fill="none" stroke="midnightblue" d="M388.22,-224.96C339.77,-214.78 256.76,-197.34 208.14,-187.12"/>
<polygon fill="midnightblue" stroke="midnightblue" points="387.51,-228.38 398.01,-227.01 388.95,-221.53 387.51,-228.38"/>
</g>
<!-- Node7 -->
<g id="node7" class="node">
<title>Node7</title>
<g id="a_node7"><a xlink:href="cartesianmesh_8hpp.html" target="_top" xlink:title=" ">
<polygon fill="white" stroke="black" points="226.5,-168.5 226.5,-187.5 336.5,-187.5 336.5,-168.5 226.5,-168.5"/>
<text text-anchor="middle" x="281.5" y="-175.5" font-family="Helvetica,sans-Serif" font-size="10.00">cartesianmesh.hpp</text>
</a>
</g>
</g>
<!-- Node1&#45;&gt;Node7 -->
<g id="edge7" class="edge">
<title>Node1&#45;&gt;Node7</title>
<path fill="none" stroke="midnightblue" d="M394.02,-220.91C366.76,-210.75 328.51,-196.51 304.37,-187.52"/>
<polygon fill="midnightblue" stroke="midnightblue" points="392.93,-224.23 403.52,-224.44 395.37,-217.67 392.93,-224.23"/>
</g>
<!-- Node8 -->
<g id="node8" class="node">
<title>Node8</title>
<g id="a_node8"><a xlink:href="CartesianGridSampler_8hpp.html" target="_top" xlink:title=" ">
<polygon fill="white" stroke="black" points="354.5,-168.5 354.5,-187.5 498.5,-187.5 498.5,-168.5 354.5,-168.5"/>
<text text-anchor="middle" x="426.5" y="-175.5" font-family="Helvetica,sans-Serif" font-size="10.00">CartesianGridSampler.hpp</text>
</a>
</g>
</g>
<!-- Node1&#45;&gt;Node8 -->
<g id="edge8" class="edge">
<title>Node1&#45;&gt;Node8</title>
<path fill="none" stroke="midnightblue" d="M426.5,-213.8C426.5,-204.91 426.5,-194.78 426.5,-187.75"/>
<polygon fill="midnightblue" stroke="midnightblue" points="423,-214.08 426.5,-224.08 430,-214.08 423,-214.08"/>
</g>
<!-- Node9 -->
<g id="node9" class="node">
<title>Node9</title>
<g id="a_node9"><a xlink:href="Cell_8hpp.html" target="_top" xlink:title=" ">
<polygon fill="white" stroke="black" points="426.5,-112.5 426.5,-131.5 482.5,-131.5 482.5,-112.5 426.5,-112.5"/>
<text text-anchor="middle" x="454.5" y="-119.5" font-family="Helvetica,sans-Serif" font-size="10.00">Cell.hpp</text>
</a>
</g>
</g>
<!-- Node1&#45;&gt;Node9 -->
<g id="edge9" class="edge">
<title>Node1&#45;&gt;Node9</title>
<path fill="none" stroke="midnightblue" d="M464.11,-221.81C480.46,-214.87 498.02,-204.11 507.5,-188 520.5,-165.91 490.57,-143.47 470.6,-131.6"/>
<polygon fill="midnightblue" stroke="midnightblue" points="462.74,-218.59 454.69,-225.47 465.28,-225.11 462.74,-218.59"/>
</g>
<!-- Node10 -->
<g id="node10" class="node">
<title>Node10</title>
<g id="a_node10"><a xlink:href="ContiguousSpaceTree_8hpp.html" target="_top" xlink:title=" ">
<polygon fill="white" stroke="black" points="554.5,-168.5 554.5,-187.5 696.5,-187.5 696.5,-168.5 554.5,-168.5"/>
<text text-anchor="middle" x="625.5" y="-175.5" font-family="Helvetica,sans-Serif" font-size="10.00">ContiguousSpaceTree.hpp</text>
</a>
</g>
</g>
<!-- Node1&#45;&gt;Node10 -->
<g id="edge11" class="edge">
<title>Node1&#45;&gt;Node10</title>
<path fill="none" stroke="midnightblue" d="M464.64,-222.65C502.18,-212.46 558.85,-197.09 593.94,-187.56"/>
<polygon fill="midnightblue" stroke="midnightblue" points="463.32,-219.38 454.59,-225.38 465.16,-226.14 463.32,-219.38"/>
</g>
<!-- Node11 -->
<g id="node11" class="node">
<title>Node11</title>
<g id="a_node11"><a xlink:href="CornerSampler_8hpp.html" target="_top" xlink:title=" ">
<polygon fill="white" stroke="black" points="714.5,-168.5 714.5,-187.5 824.5,-187.5 824.5,-168.5 714.5,-168.5"/>
<text text-anchor="middle" x="769.5" y="-175.5" font-family="Helvetica,sans-Serif" font-size="10.00">CornerSampler.hpp</text>
</a>
</g>
</g>
<!-- Node1&#45;&gt;Node11 -->
<g id="edge12" class="edge">
<title>Node1&#45;&gt;Node11</title>
<path fill="none" stroke="midnightblue" d="M464.55,-227.01C525.58,-217.4 645.58,-198.51 715.47,-187.51"/>
<polygon fill="midnightblue" stroke="midnightblue" points="463.9,-223.57 454.57,-228.58 464.99,-230.48 463.9,-223.57"/>
</g>
<!-- Node4 -->
<g id="node4" class="node">
<title>Node4</title>
<g id="a_node4"><a xlink:href="AABBoxNode_8hpp.html" target="_top" xlink:title=" ">
<polygon fill="white" stroke="black" points="216.5,-0.5 216.5,-19.5 318.5,-19.5 318.5,-0.5 216.5,-0.5"/>
<text text-anchor="middle" x="267.5" y="-7.5" font-family="Helvetica,sans-Serif" font-size="10.00">AABBoxNode.hpp</text>
</a>
</g>
</g>
<!-- Node3&#45;&gt;Node4 -->
<g id="edge3" class="edge">
<title>Node3&#45;&gt;Node4</title>
<path fill="none" stroke="midnightblue" d="M171.65,-158.15C175.32,-132.82 184.75,-87.38 207.5,-56 218.96,-40.19 237.59,-27.45 251.05,-19.62"/>
<polygon fill="midnightblue" stroke="midnightblue" points="168.15,-157.88 170.34,-168.24 175.1,-158.78 168.15,-157.88"/>
</g>
<!-- Node5 -->
<g id="node5" class="node">
<title>Node5</title>
<g id="a_node5"><a xlink:href="AbsBoundableObject_8hpp.html" target="_top" xlink:title=" ">
<polygon fill="white" stroke="black" points="198,-112.5 198,-131.5 337,-131.5 337,-112.5 198,-112.5"/>
<text text-anchor="middle" x="267.5" y="-119.5" font-family="Helvetica,sans-Serif" font-size="10.00">AbsBoundableObject.hpp</text>
</a>
</g>
</g>
<!-- Node3&#45;&gt;Node5 -->
<g id="edge4" class="edge">
<title>Node3&#45;&gt;Node5</title>
<path fill="none" stroke="midnightblue" d="M194.09,-163.45C212.18,-153.48 236.23,-140.23 251.79,-131.65"/>
<polygon fill="midnightblue" stroke="midnightblue" points="192.31,-160.43 185.25,-168.32 195.69,-166.56 192.31,-160.43"/>
</g>
<!-- Node6 -->
<g id="node6" class="node">
<title>Node6</title>
<g id="a_node6"><a xlink:href="boundingBox_8hpp.html" target="_top" xlink:title=" ">
<polygon fill="white" stroke="black" points="217,-56.5 217,-75.5 318,-75.5 318,-56.5 217,-56.5"/>
<text text-anchor="middle" x="267.5" y="-63.5" font-family="Helvetica,sans-Serif" font-size="10.00">boundingBox.hpp</text>
</a>
</g>
</g>
<!-- Node5&#45;&gt;Node6 -->
<g id="edge5" class="edge">
<title>Node5&#45;&gt;Node6</title>
<path fill="none" stroke="midnightblue" d="M267.5,-101.8C267.5,-92.91 267.5,-82.78 267.5,-75.75"/>
<polygon fill="midnightblue" stroke="midnightblue" points="264,-102.08 267.5,-112.08 271,-102.08 264,-102.08"/>
</g>
<!-- Node6&#45;&gt;Node4 -->
<g id="edge6" class="edge">
<title>Node6&#45;&gt;Node4</title>
<path fill="none" stroke="midnightblue" d="M267.5,-45.8C267.5,-36.91 267.5,-26.78 267.5,-19.75"/>
<polygon fill="midnightblue" stroke="midnightblue" points="264,-46.08 267.5,-56.08 271,-46.08 264,-46.08"/>
</g>
<!-- Node9&#45;&gt;Node4 -->
<g id="edge10" class="edge">
<title>Node9&#45;&gt;Node4</title>
<path fill="none" stroke="midnightblue" d="M430.71,-107.01C391.46,-83.92 314.27,-38.51 282.11,-19.59"/>
<polygon fill="midnightblue" stroke="midnightblue" points="429.43,-110.32 439.83,-112.37 432.98,-104.28 429.43,-110.32"/>
</g>
</g>
</svg>
