<?xml version="1.0" encoding="UTF-8" standalone="no"?>
<!DOCTYPE svg PUBLIC "-//W3C//DTD SVG 1.1//EN"
 "http://www.w3.org/Graphics/SVG/1.1/DTD/svg11.dtd">
<!-- Generated by graphviz version 2.43.0 (0)
 -->
<!-- Title: cartesianmesh.hpp Pages: 1 -->
<svg width="1157pt" height="463pt"
 viewBox="0.00 0.00 1157.19 463.00" xmlns="http://www.w3.org/2000/svg" xmlns:xlink="http://www.w3.org/1999/xlink">
<g id="graph0" class="graph" transform="scale(1 1) rotate(0) translate(4 459)">
<title>cartesianmesh.hpp</title>
<polygon fill="white" stroke="transparent" points="-4,4 -4,-459 1153.19,-459 1153.19,4 -4,4"/>
<!-- Node1 -->
<g id="node1" class="node">
<title>Node1</title>
<g id="a_node1"><a xlink:title=" ">
<polygon fill="#bfbfbf" stroke="black" points="801.19,-435.5 801.19,-454.5 911.19,-454.5 911.19,-435.5 801.19,-435.5"/>
<text text-anchor="middle" x="856.19" y="-442.5" font-family="Helvetica,sans-Serif" font-size="10.00">cartesianmesh.hpp</text>
</a>
</g>
</g>
<!-- Node2 -->
<g id="node2" class="node">
<title>Node2</title>
<g id="a_node2"><a xlink:href="Cube_8hpp.html" target="_top" xlink:title=" ">
<polygon fill="white" stroke="black" points="366.69,-363 366.69,-393 481.69,-393 481.69,-363 366.69,-363"/>
<text text-anchor="start" x="374.69" y="-381" font-family="Helvetica,sans-Serif" font-size="10.00">packages/primitives</text>
<text text-anchor="middle" x="424.19" y="-370" font-family="Helvetica,sans-Serif" font-size="10.00">/inc/Cube.hpp</text>
</a>
</g>
</g>
<!-- Node1&#45;&gt;Node2 -->
<g id="edge1" class="edge">
<title>Node1&#45;&gt;Node2</title>
<path fill="none" stroke="midnightblue" d="M801.04,-435.7C722.13,-423.83 577.15,-402.02 491.86,-389.18"/>
<polygon fill="midnightblue" stroke="midnightblue" points="492.17,-385.69 481.76,-387.66 491.13,-392.61 492.17,-385.69"/>
</g>
<!-- Node3 -->
<g id="node3" class="node">
<title>Node3</title>
<g id="a_node3"><a target="_parent" xlink:href="../../../cieutils/docs/html/container__concepts_8hpp.html.html" xlink:title=" ">
<polygon fill="white" stroke="black" points="7.69,-0.5 7.69,-41.5 142.69,-41.5 142.69,-0.5 7.69,-0.5"/>
<text text-anchor="start" x="15.69" y="-29.5" font-family="Helvetica,sans-Serif" font-size="10.00">packages/compile_time</text>
<text text-anchor="start" x="15.69" y="-18.5" font-family="Helvetica,sans-Serif" font-size="10.00">/packages/concepts/inc</text>
<text text-anchor="middle" x="75.19" y="-7.5" font-family="Helvetica,sans-Serif" font-size="10.00">/container_concepts.hpp</text>
</a>
</g>
</g>
<!-- Node1&#45;&gt;Node3 -->
<g id="edge30" class="edge">
<title>Node1&#45;&gt;Node3</title>
<path fill="none" stroke="midnightblue" d="M800.88,-440.79C614.08,-429.22 18.19,-386.07 18.19,-306.5 18.19,-306.5 18.19,-306.5 18.19,-165 18.19,-122.98 39.69,-78.63 56.28,-50.67"/>
<polygon fill="midnightblue" stroke="midnightblue" points="59.45,-52.2 61.68,-41.84 53.48,-48.55 59.45,-52.2"/>
</g>
<!-- Node17 -->
<g id="node17" class="node">
<title>Node17</title>
<g id="a_node17"><a xlink:href="Box_8hpp.html" target="_top" xlink:title=" ">
<polygon fill="white" stroke="black" points="588.69,-363 588.69,-393 703.69,-393 703.69,-363 588.69,-363"/>
<text text-anchor="start" x="596.69" y="-381" font-family="Helvetica,sans-Serif" font-size="10.00">packages/primitives</text>
<text text-anchor="middle" x="646.19" y="-370" font-family="Helvetica,sans-Serif" font-size="10.00">/inc/Box.hpp</text>
</a>
</g>
</g>
<!-- Node1&#45;&gt;Node17 -->
<g id="edge23" class="edge">
<title>Node1&#45;&gt;Node17</title>
<path fill="none" stroke="midnightblue" d="M828.3,-435.37C796.04,-425.38 742.13,-408.7 701.32,-396.06"/>
<polygon fill="midnightblue" stroke="midnightblue" points="702.1,-392.64 691.51,-393.03 700.03,-399.33 702.1,-392.64"/>
</g>
<!-- Node19 -->
<g id="node19" class="node">
<title>Node19</title>
<g id="a_node19"><a xlink:href="MeshTraits_8hpp.html" target="_top" xlink:title=" ">
<polygon fill="white" stroke="black" points="796.19,-151 796.19,-181 904.19,-181 904.19,-151 796.19,-151"/>
<text text-anchor="start" x="804.19" y="-169" font-family="Helvetica,sans-Serif" font-size="10.00">packages/traits/inc</text>
<text text-anchor="middle" x="850.19" y="-158" font-family="Helvetica,sans-Serif" font-size="10.00">/MeshTraits.hpp</text>
</a>
</g>
</g>
<!-- Node1&#45;&gt;Node19 -->
<g id="edge31" class="edge">
<title>Node1&#45;&gt;Node19</title>
<path fill="none" stroke="midnightblue" d="M856,-435.41C855.2,-398.17 851.99,-250.03 850.71,-191.23"/>
<polygon fill="midnightblue" stroke="midnightblue" points="854.21,-190.95 850.49,-181.03 847.21,-191.1 854.21,-190.95"/>
</g>
<!-- Node21 -->
<g id="node21" class="node">
<title>Node21</title>
<g id="a_node21"><a xlink:title=" ">
<polygon fill="white" stroke="#bfbfbf" points="884.69,-368.5 884.69,-387.5 931.69,-387.5 931.69,-368.5 884.69,-368.5"/>
<text text-anchor="middle" x="908.19" y="-375.5" font-family="Helvetica,sans-Serif" font-size="10.00">vector</text>
</a>
</g>
</g>
<!-- Node1&#45;&gt;Node21 -->
<g id="edge36" class="edge">
<title>Node1&#45;&gt;Node21</title>
<path fill="none" stroke="midnightblue" d="M863.2,-435.23C871.31,-425.1 884.84,-408.19 894.94,-395.56"/>
<polygon fill="midnightblue" stroke="midnightblue" points="897.77,-397.62 901.29,-387.63 892.31,-393.25 897.77,-397.62"/>
</g>
<!-- Node22 -->
<g id="node22" class="node">
<title>Node22</title>
<g id="a_node22"><a xlink:title=" ">
<polygon fill="white" stroke="#bfbfbf" points="949.69,-368.5 949.69,-387.5 1014.69,-387.5 1014.69,-368.5 949.69,-368.5"/>
<text text-anchor="middle" x="982.19" y="-375.5" font-family="Helvetica,sans-Serif" font-size="10.00">functional</text>
</a>
</g>
</g>
<!-- Node1&#45;&gt;Node22 -->
<g id="edge37" class="edge">
<title>Node1&#45;&gt;Node22</title>
<path fill="none" stroke="midnightblue" d="M872.92,-435.37C894.29,-424.34 931.49,-405.16 956.47,-392.27"/>
<polygon fill="midnightblue" stroke="midnightblue" points="958.11,-395.36 965.39,-387.67 954.9,-389.14 958.11,-395.36"/>
</g>
<!-- Node23 -->
<g id="node23" class="node">
<title>Node23</title>
<g id="a_node23"><a xlink:title=" ">
<polygon fill="white" stroke="#bfbfbf" points="1033.19,-357.5 1033.19,-398.5 1149.19,-398.5 1149.19,-357.5 1033.19,-357.5"/>
<text text-anchor="start" x="1041.19" y="-386.5" font-family="Helvetica,sans-Serif" font-size="10.00">packages/structured</text>
<text text-anchor="start" x="1041.19" y="-375.5" font-family="Helvetica,sans-Serif" font-size="10.00">/impl/cartesianmesh</text>
<text text-anchor="middle" x="1091.19" y="-364.5" font-family="Helvetica,sans-Serif" font-size="10.00">_impl.hpp</text>
</a>
</g>
</g>
<!-- Node1&#45;&gt;Node23 -->
<g id="edge38" class="edge">
<title>Node1&#45;&gt;Node23</title>
<path fill="none" stroke="midnightblue" d="M889.1,-435.48C921.04,-427.15 971.11,-413.91 1023.34,-399.21"/>
<polygon fill="midnightblue" stroke="midnightblue" points="1024.44,-402.53 1033.11,-396.45 1022.54,-395.8 1024.44,-402.53"/>
</g>
<!-- Node2&#45;&gt;Node3 -->
<g id="edge2" class="edge">
<title>Node2&#45;&gt;Node3</title>
<path fill="none" stroke="midnightblue" d="M366.52,-373.83C315.12,-368.73 239.53,-355.46 183.19,-321 77.99,-256.65 46.54,-224.81 4.19,-109 -0.54,-96.06 -1.82,-90.4 4.19,-78 9.92,-66.18 19.48,-56.11 29.76,-47.91"/>
<polygon fill="midnightblue" stroke="midnightblue" points="32.15,-50.49 38.1,-41.73 27.99,-44.87 32.15,-50.49"/>
</g>
<!-- Node4 -->
<g id="node4" class="node">
<title>Node4</title>
<g id="a_node4"><a xlink:href="Primitive_8hpp.html" target="_top" xlink:title=" ">
<polygon fill="white" stroke="black" points="366.69,-223.5 366.69,-253.5 481.69,-253.5 481.69,-223.5 366.69,-223.5"/>
<text text-anchor="start" x="374.69" y="-241.5" font-family="Helvetica,sans-Serif" font-size="10.00">packages/primitives</text>
<text text-anchor="middle" x="424.19" y="-230.5" font-family="Helvetica,sans-Serif" font-size="10.00">/inc/Primitive.hpp</text>
</a>
</g>
</g>
<!-- Node2&#45;&gt;Node4 -->
<g id="edge3" class="edge">
<title>Node2&#45;&gt;Node4</title>
<path fill="none" stroke="midnightblue" d="M397.88,-362.85C382.95,-353.23 365.6,-338.99 357.19,-321 351.35,-308.52 351.04,-302.33 357.19,-290 363.45,-277.43 374.51,-267.17 385.85,-259.25"/>
<polygon fill="midnightblue" stroke="midnightblue" points="388,-262.03 394.5,-253.66 384.2,-256.15 388,-262.03"/>
</g>
<!-- Node11 -->
<g id="node11" class="node">
<title>Node11</title>
<g id="a_node11"><a xlink:title=" ">
<polygon fill="white" stroke="#bfbfbf" points="715.19,-11.5 715.19,-30.5 757.19,-30.5 757.19,-11.5 715.19,-11.5"/>
<text text-anchor="middle" x="736.19" y="-18.5" font-family="Helvetica,sans-Serif" font-size="10.00">array</text>
</a>
</g>
</g>
<!-- Node2&#45;&gt;Node11 -->
<g id="edge21" class="edge">
<title>Node2&#45;&gt;Node11</title>
<path fill="none" stroke="midnightblue" d="M441.44,-362.68C496.82,-316.41 668.77,-170.37 707.19,-109 720.62,-87.54 728.56,-59.18 732.64,-40.76"/>
<polygon fill="midnightblue" stroke="midnightblue" points="736.12,-41.24 734.7,-30.74 729.26,-39.83 736.12,-41.24"/>
</g>
<!-- Node14 -->
<g id="node14" class="node">
<title>Node14</title>
<g id="a_node14"><a xlink:href="primitives_2inc_2concepts_8hpp.html" target="_top" xlink:title=" ">
<polygon fill="white" stroke="black" points="366.69,-290.5 366.69,-320.5 481.69,-320.5 481.69,-290.5 366.69,-290.5"/>
<text text-anchor="start" x="374.69" y="-308.5" font-family="Helvetica,sans-Serif" font-size="10.00">packages/primitives</text>
<text text-anchor="middle" x="424.19" y="-297.5" font-family="Helvetica,sans-Serif" font-size="10.00">/inc/concepts.hpp</text>
</a>
</g>
</g>
<!-- Node2&#45;&gt;Node14 -->
<g id="edge17" class="edge">
<title>Node2&#45;&gt;Node14</title>
<path fill="none" stroke="midnightblue" d="M424.19,-362.73C424.19,-353.66 424.19,-341.66 424.19,-331.08"/>
<polygon fill="midnightblue" stroke="midnightblue" points="427.69,-330.75 424.19,-320.75 420.69,-330.75 427.69,-330.75"/>
</g>
<!-- Node15 -->
<g id="node15" class="node">
<title>Node15</title>
<g id="a_node15"><a xlink:title=" ">
<polygon fill="white" stroke="#bfbfbf" points="538.69,-296 538.69,-315 579.69,-315 579.69,-296 538.69,-296"/>
<text text-anchor="middle" x="559.19" y="-303" font-family="Helvetica,sans-Serif" font-size="10.00">tuple</text>
</a>
</g>
</g>
<!-- Node2&#45;&gt;Node15 -->
<g id="edge20" class="edge">
<title>Node2&#45;&gt;Node15</title>
<path fill="none" stroke="midnightblue" d="M451.18,-362.9C475.26,-350.33 510.24,-332.06 533.81,-319.75"/>
<polygon fill="midnightblue" stroke="midnightblue" points="535.6,-322.77 542.85,-315.03 532.36,-316.56 535.6,-322.77"/>
</g>
<!-- Node16 -->
<g id="node16" class="node">
<title>Node16</title>
<g id="a_node16"><a xlink:title=" ">
<polygon fill="white" stroke="#bfbfbf" points="192.69,-290.5 192.69,-320.5 309.69,-320.5 309.69,-290.5 192.69,-290.5"/>
<text text-anchor="start" x="200.69" y="-308.5" font-family="Helvetica,sans-Serif" font-size="10.00">packages/primitives</text>
<text text-anchor="middle" x="251.19" y="-297.5" font-family="Helvetica,sans-Serif" font-size="10.00">/impl/Cube_impl.hpp</text>
</a>
</g>
</g>
<!-- Node2&#45;&gt;Node16 -->
<g id="edge22" class="edge">
<title>Node2&#45;&gt;Node16</title>
<path fill="none" stroke="midnightblue" d="M389.6,-362.9C362.49,-351.86 324.58,-336.41 295.3,-324.47"/>
<polygon fill="midnightblue" stroke="midnightblue" points="296.3,-321.11 285.72,-320.57 293.66,-327.59 296.3,-321.11"/>
</g>
<!-- Node5 -->
<g id="node5" class="node">
<title>Node5</title>
<g id="a_node5"><a target="_parent" xlink:href="../../../cieutils/docs/html/basic__concepts_8hpp.html.html" xlink:title=" ">
<polygon fill="white" stroke="black" points="223.19,-145.5 223.19,-186.5 355.19,-186.5 355.19,-145.5 223.19,-145.5"/>
<text text-anchor="start" x="231.19" y="-174.5" font-family="Helvetica,sans-Serif" font-size="10.00">packages/compile_time</text>
<text text-anchor="start" x="231.19" y="-163.5" font-family="Helvetica,sans-Serif" font-size="10.00">/packages/concepts/inc</text>
<text text-anchor="middle" x="289.19" y="-152.5" font-family="Helvetica,sans-Serif" font-size="10.00">/basic_concepts.hpp</text>
</a>
</g>
</g>
<!-- Node4&#45;&gt;Node5 -->
<g id="edge4" class="edge">
<title>Node4&#45;&gt;Node5</title>
<path fill="none" stroke="midnightblue" d="M397.19,-223.4C379.57,-214.2 356.09,-201.94 335.53,-191.2"/>
<polygon fill="midnightblue" stroke="midnightblue" points="337.1,-188.07 326.62,-186.55 333.86,-194.28 337.1,-188.07"/>
</g>
<!-- Node6 -->
<g id="node6" class="node">
<title>Node6</title>
<g id="a_node6"><a xlink:href="Object_8hpp.html" target="_top" xlink:title=" ">
<polygon fill="white" stroke="black" points="373.69,-151 373.69,-181 488.69,-181 488.69,-151 373.69,-151"/>
<text text-anchor="start" x="381.69" y="-169" font-family="Helvetica,sans-Serif" font-size="10.00">packages/primitives</text>
<text text-anchor="middle" x="431.19" y="-158" font-family="Helvetica,sans-Serif" font-size="10.00">/inc/Object.hpp</text>
</a>
</g>
</g>
<!-- Node4&#45;&gt;Node6 -->
<g id="edge5" class="edge">
<title>Node4&#45;&gt;Node6</title>
<path fill="none" stroke="midnightblue" d="M425.61,-223.23C426.52,-214.06 427.72,-201.91 428.78,-191.24"/>
<polygon fill="midnightblue" stroke="midnightblue" points="432.27,-191.54 429.77,-181.25 425.3,-190.85 432.27,-191.54"/>
</g>
<!-- Node6&#45;&gt;Node3 -->
<g id="edge6" class="edge">
<title>Node6&#45;&gt;Node3</title>
<path fill="none" stroke="midnightblue" d="M387.46,-150.94C379.76,-148.75 371.78,-146.67 364.19,-145 254.12,-120.82 202.86,-177.27 113.19,-109 95.07,-95.21 85.44,-70.96 80.41,-51.56"/>
<polygon fill="midnightblue" stroke="midnightblue" points="83.79,-50.62 78.13,-41.66 76.97,-52.19 83.79,-50.62"/>
</g>
<!-- Node7 -->
<g id="node7" class="node">
<title>Node7</title>
<g id="a_node7"><a target="_parent" xlink:href="../../../cieutils/docs/html/typedefs_8hpp.html.html" xlink:title=" ">
<polygon fill="white" stroke="black" points="264.69,-78.5 264.69,-108.5 383.69,-108.5 383.69,-78.5 264.69,-78.5"/>
<text text-anchor="start" x="272.69" y="-96.5" font-family="Helvetica,sans-Serif" font-size="10.00">packages/macros/inc</text>
<text text-anchor="middle" x="324.19" y="-85.5" font-family="Helvetica,sans-Serif" font-size="10.00">/typedefs.hpp</text>
</a>
</g>
</g>
<!-- Node6&#45;&gt;Node7 -->
<g id="edge7" class="edge">
<title>Node6&#45;&gt;Node7</title>
<path fill="none" stroke="midnightblue" d="M409.79,-150.9C393.9,-140.43 372.01,-126.01 354.35,-114.37"/>
<polygon fill="midnightblue" stroke="midnightblue" points="355.82,-111.15 345.55,-108.57 351.97,-117 355.82,-111.15"/>
</g>
<!-- Node8 -->
<g id="node8" class="node">
<title>Node8</title>
<g id="a_node8"><a target="_parent" xlink:href="../../../cieutils/docs/html/types_8hpp.html.html" xlink:title=" ">
<polygon fill="white" stroke="black" points="495.19,-6 495.19,-36 605.19,-36 605.19,-6 495.19,-6"/>
<text text-anchor="start" x="503.19" y="-24" font-family="Helvetica,sans-Serif" font-size="10.00">packages/types/inc</text>
<text text-anchor="middle" x="550.19" y="-13" font-family="Helvetica,sans-Serif" font-size="10.00">/types.hpp</text>
</a>
</g>
</g>
<!-- Node6&#45;&gt;Node8 -->
<g id="edge8" class="edge">
<title>Node6&#45;&gt;Node8</title>
<path fill="none" stroke="midnightblue" d="M443.03,-150.77C463.88,-125.71 507.26,-73.58 531.96,-43.91"/>
<polygon fill="midnightblue" stroke="midnightblue" points="534.69,-46.1 538.39,-36.18 529.3,-41.62 534.69,-46.1"/>
</g>
<!-- Node9 -->
<g id="node9" class="node">
<title>Node9</title>
<g id="a_node9"><a xlink:href="Traits_8hpp.html" target="_top" xlink:title=" ">
<polygon fill="white" stroke="black" points="554.69,-78.5 554.69,-108.5 669.69,-108.5 669.69,-78.5 554.69,-78.5"/>
<text text-anchor="start" x="562.69" y="-96.5" font-family="Helvetica,sans-Serif" font-size="10.00">packages/primitives</text>
<text text-anchor="middle" x="612.19" y="-85.5" font-family="Helvetica,sans-Serif" font-size="10.00">/inc/Traits.hpp</text>
</a>
</g>
</g>
<!-- Node6&#45;&gt;Node9 -->
<g id="edge9" class="edge">
<title>Node6&#45;&gt;Node9</title>
<path fill="none" stroke="midnightblue" d="M467.38,-150.9C495.87,-139.81 535.74,-124.28 566.44,-112.32"/>
<polygon fill="midnightblue" stroke="midnightblue" points="568.01,-115.46 576.06,-108.57 565.47,-108.94 568.01,-115.46"/>
</g>
<!-- Node6&#45;&gt;Node11 -->
<g id="edge15" class="edge">
<title>Node6&#45;&gt;Node11</title>
<path fill="none" stroke="midnightblue" d="M488.78,-154.27C556.78,-141.25 662.64,-119.71 678.19,-109 703.27,-91.73 720.39,-59.74 729.21,-39.73"/>
<polygon fill="midnightblue" stroke="midnightblue" points="732.44,-41.08 733.06,-30.5 725.98,-38.38 732.44,-41.08"/>
</g>
<!-- Node12 -->
<g id="node12" class="node">
<title>Node12</title>
<g id="a_node12"><a xlink:title=" ">
<polygon fill="white" stroke="#bfbfbf" points="402.19,-84 402.19,-103 460.19,-103 460.19,-84 402.19,-84"/>
<text text-anchor="middle" x="431.19" y="-91" font-family="Helvetica,sans-Serif" font-size="10.00">memory</text>
</a>
</g>
</g>
<!-- Node6&#45;&gt;Node12 -->
<g id="edge14" class="edge">
<title>Node6&#45;&gt;Node12</title>
<path fill="none" stroke="midnightblue" d="M431.19,-150.73C431.19,-140 431.19,-125.19 431.19,-113.46"/>
<polygon fill="midnightblue" stroke="midnightblue" points="434.69,-113.39 431.19,-103.39 427.69,-113.39 434.69,-113.39"/>
</g>
<!-- Node13 -->
<g id="node13" class="node">
<title>Node13</title>
<g id="a_node13"><a xlink:title=" ">
<polygon fill="white" stroke="#bfbfbf" points="122.19,-78.5 122.19,-108.5 246.19,-108.5 246.19,-78.5 122.19,-78.5"/>
<text text-anchor="start" x="130.19" y="-96.5" font-family="Helvetica,sans-Serif" font-size="10.00">packages/primitives</text>
<text text-anchor="middle" x="184.19" y="-85.5" font-family="Helvetica,sans-Serif" font-size="10.00">/impl/Object_impl.hpp</text>
</a>
</g>
</g>
<!-- Node6&#45;&gt;Node13 -->
<g id="edge16" class="edge">
<title>Node6&#45;&gt;Node13</title>
<path fill="none" stroke="midnightblue" d="M384.36,-150.91C377.6,-148.91 370.72,-146.89 364.19,-145 324.61,-133.54 280.01,-121.03 245.11,-111.32"/>
<polygon fill="midnightblue" stroke="midnightblue" points="245.64,-107.84 235.07,-108.53 243.77,-114.58 245.64,-107.84"/>
</g>
<!-- Node9&#45;&gt;Node3 -->
<g id="edge11" class="edge">
<title>Node9&#45;&gt;Node3</title>
<path fill="none" stroke="midnightblue" d="M554.49,-80.46C549.66,-79.58 544.85,-78.75 540.19,-78 404.58,-56.21 245.47,-38.8 152.93,-29.47"/>
<polygon fill="midnightblue" stroke="midnightblue" points="153.1,-25.97 142.8,-28.45 152.4,-32.93 153.1,-25.97"/>
</g>
<!-- Node9&#45;&gt;Node8 -->
<g id="edge10" class="edge">
<title>Node9&#45;&gt;Node8</title>
<path fill="none" stroke="midnightblue" d="M599.64,-78.23C590.99,-68.39 579.31,-55.12 569.48,-43.94"/>
<polygon fill="midnightblue" stroke="midnightblue" points="571.95,-41.44 562.72,-36.25 566.69,-46.07 571.95,-41.44"/>
</g>
<!-- Node10 -->
<g id="node10" class="node">
<title>Node10</title>
<g id="a_node10"><a target="_parent" xlink:href="../../../cieutils/docs/html/StaticArray_8hpp.html.html" xlink:title=" ">
<polygon fill="white" stroke="black" points="779.69,-6 779.69,-36 910.69,-36 910.69,-6 779.69,-6"/>
<text text-anchor="start" x="787.69" y="-24" font-family="Helvetica,sans-Serif" font-size="10.00">packages/stl_extension</text>
<text text-anchor="middle" x="845.19" y="-13" font-family="Helvetica,sans-Serif" font-size="10.00">/inc/StaticArray.hpp</text>
</a>
</g>
</g>
<!-- Node9&#45;&gt;Node10 -->
<g id="edge12" class="edge">
<title>Node9&#45;&gt;Node10</title>
<path fill="none" stroke="midnightblue" d="M658.5,-78.49C696.02,-67.14 749.02,-51.1 788.97,-39.01"/>
<polygon fill="midnightblue" stroke="midnightblue" points="790.01,-42.35 798.57,-36.11 787.98,-35.65 790.01,-42.35"/>
</g>
<!-- Node9&#45;&gt;Node11 -->
<g id="edge13" class="edge">
<title>Node9&#45;&gt;Node11</title>
<path fill="none" stroke="midnightblue" d="M636.98,-78.4C658.9,-65.94 690.66,-47.88 712.3,-35.58"/>
<polygon fill="midnightblue" stroke="midnightblue" points="714.22,-38.52 721.18,-30.53 710.76,-32.43 714.22,-38.52"/>
</g>
<!-- Node14&#45;&gt;Node3 -->
<g id="edge18" class="edge">
<title>Node14&#45;&gt;Node3</title>
<path fill="none" stroke="midnightblue" d="M371.01,-290.41C293.84,-266.92 152.79,-211.85 86.19,-109 75.31,-92.2 72.7,-69.71 72.74,-51.81"/>
<polygon fill="midnightblue" stroke="midnightblue" points="76.25,-51.71 73.04,-41.61 69.25,-51.5 76.25,-51.71"/>
</g>
<!-- Node14&#45;&gt;Node4 -->
<g id="edge19" class="edge">
<title>Node14&#45;&gt;Node4</title>
<path fill="none" stroke="midnightblue" d="M424.19,-290.4C424.19,-282.64 424.19,-272.81 424.19,-263.86"/>
<polygon fill="midnightblue" stroke="midnightblue" points="427.69,-263.58 424.19,-253.58 420.69,-263.58 427.69,-263.58"/>
</g>
<!-- Node17&#45;&gt;Node3 -->
<g id="edge24" class="edge">
<title>Node17&#45;&gt;Node3</title>
<path fill="none" stroke="midnightblue" d="M642.79,-362.74C630.08,-313.01 580.33,-146.58 469.19,-78 417.67,-46.21 252.08,-31.7 152.71,-25.71"/>
<polygon fill="midnightblue" stroke="midnightblue" points="152.91,-22.22 142.72,-25.13 152.5,-29.21 152.91,-22.22"/>
</g>
<!-- Node17&#45;&gt;Node4 -->
<g id="edge25" class="edge">
<title>Node17&#45;&gt;Node4</title>
<path fill="none" stroke="midnightblue" d="M640.39,-362.75C631.81,-343.44 613.95,-309.21 588.19,-290 560.17,-269.11 523.4,-256.76 491.77,-249.51"/>
<polygon fill="midnightblue" stroke="midnightblue" points="492.22,-246.03 481.7,-247.33 490.74,-252.87 492.22,-246.03"/>
</g>
<!-- Node17&#45;&gt;Node11 -->
<g id="edge28" class="edge">
<title>Node17&#45;&gt;Node11</title>
<path fill="none" stroke="midnightblue" d="M653.92,-362.75C674.64,-323.64 731.13,-210.79 750.19,-109 754.62,-85.34 748.31,-57.9 742.8,-40.26"/>
<polygon fill="midnightblue" stroke="midnightblue" points="746.08,-39.03 739.57,-30.67 739.44,-41.26 746.08,-39.03"/>
</g>
<!-- Node17&#45;&gt;Node14 -->
<g id="edge26" class="edge">
<title>Node17&#45;&gt;Node14</title>
<path fill="none" stroke="midnightblue" d="M602.06,-362.99C566.54,-351.71 516.46,-335.8 478.48,-323.74"/>
<polygon fill="midnightblue" stroke="midnightblue" points="479.2,-320.3 468.61,-320.61 477.08,-326.97 479.2,-320.3"/>
</g>
<!-- Node17&#45;&gt;Node15 -->
<g id="edge27" class="edge">
<title>Node17&#45;&gt;Node15</title>
<path fill="none" stroke="midnightblue" d="M628.58,-362.73C613.97,-350.89 593.24,-334.09 578.24,-321.94"/>
<polygon fill="midnightblue" stroke="midnightblue" points="580.14,-318.97 570.16,-315.39 575.73,-324.41 580.14,-318.97"/>
</g>
<!-- Node18 -->
<g id="node18" class="node">
<title>Node18</title>
<g id="a_node18"><a xlink:title=" ">
<polygon fill="white" stroke="#bfbfbf" points="712.69,-290.5 712.69,-320.5 827.69,-320.5 827.69,-290.5 712.69,-290.5"/>
<text text-anchor="start" x="720.69" y="-308.5" font-family="Helvetica,sans-Serif" font-size="10.00">packages/primitives</text>
<text text-anchor="middle" x="770.19" y="-297.5" font-family="Helvetica,sans-Serif" font-size="10.00">/impl/Box_impl.hpp</text>
</a>
</g>
</g>
<!-- Node17&#45;&gt;Node18 -->
<g id="edge29" class="edge">
<title>Node17&#45;&gt;Node18</title>
<path fill="none" stroke="midnightblue" d="M670.98,-362.9C689.82,-352.19 715.93,-337.35 736.64,-325.57"/>
<polygon fill="midnightblue" stroke="midnightblue" points="738.47,-328.56 745.44,-320.57 735.01,-322.47 738.47,-328.56"/>
</g>
<!-- Node19&#45;&gt;Node9 -->
<g id="edge32" class="edge">
<title>Node19&#45;&gt;Node9</title>
<path fill="none" stroke="midnightblue" d="M802.88,-150.99C764.56,-139.64 710.42,-123.6 669.62,-111.51"/>
<polygon fill="midnightblue" stroke="midnightblue" points="670.39,-108.09 659.81,-108.61 668.41,-114.8 670.39,-108.09"/>
</g>
<!-- Node19&#45;&gt;Node10 -->
<g id="edge33" class="edge">
<title>Node19&#45;&gt;Node10</title>
<path fill="none" stroke="midnightblue" d="M849.69,-150.77C848.84,-126.35 847.09,-76.24 846.04,-46.24"/>
<polygon fill="midnightblue" stroke="midnightblue" points="849.53,-46.05 845.68,-36.18 842.54,-46.29 849.53,-46.05"/>
</g>
<!-- Node19&#45;&gt;Node11 -->
<g id="edge34" class="edge">
<title>Node19&#45;&gt;Node11</title>
<path fill="none" stroke="midnightblue" d="M840.85,-150.73C829.16,-133.14 808.22,-102.59 788.19,-78 776.72,-63.93 762.66,-48.91 752.05,-37.97"/>
<polygon fill="midnightblue" stroke="midnightblue" points="754.53,-35.49 745.03,-30.79 749.53,-40.39 754.53,-35.49"/>
</g>
<!-- Node20 -->
<g id="node20" class="node">
<title>Node20</title>
<g id="a_node20"><a xlink:title=" ">
<polygon fill="white" stroke="#bfbfbf" points="878.69,-84 878.69,-103 923.69,-103 923.69,-84 878.69,-84"/>
<text text-anchor="middle" x="901.19" y="-91" font-family="Helvetica,sans-Serif" font-size="10.00">utility</text>
</a>
</g>
</g>
<!-- Node19&#45;&gt;Node20 -->
<g id="edge35" class="edge">
<title>Node19&#45;&gt;Node20</title>
<path fill="none" stroke="midnightblue" d="M860.51,-150.73C868.67,-139.45 880.1,-123.65 888.77,-111.67"/>
<polygon fill="midnightblue" stroke="midnightblue" points="891.73,-113.55 894.76,-103.39 886.06,-109.44 891.73,-113.55"/>
</g>
</g>
</svg>
