<?xml version="1.0" encoding="UTF-8" standalone="no"?>
<!DOCTYPE svg PUBLIC "-//W3C//DTD SVG 1.1//EN"
 "http://www.w3.org/Graphics/SVG/1.1/DTD/svg11.dtd">
<!-- Generated by graphviz version 2.43.0 (0)
 -->
<!-- Title: CartesianGridSampler.hpp Pages: 1 -->
<!--zoomable 463 -->
<svg id="main" version="1.1" xmlns="http://www.w3.org/2000/svg" xmlns:xlink="http://www.w3.org/1999/xlink" xml:space="preserve" onload="init(evt)">
<style type="text/css"><![CDATA[
.edge:hover path { stroke: red; }
.edge:hover polygon { stroke: red; fill: red; }
]]></style>
<script type="text/javascript"><![CDATA[
var edges = document.getElementsByTagName('g');
if (edges && edges.length) {
  for (var i=0;i<edges.length;i++) {
    if (edges[i].id.substr(0,4)=='edge') {
      edges[i].setAttribute('class','edge');
    }
  }
}
]]></script>
        <defs>
                <circle id="rim" cx="0" cy="0" r="7"/>
                <circle id="rim2" cx="0" cy="0" r="3.5"/>
                <g id="zoomPlus">
                        <use xlink:href="#rim" fill="#404040">
                                <set attributeName="fill" to="#808080" begin="zoomplus.mouseover" end="zoomplus.mouseout"/>
                        </use>
                        <path d="M-4,0h8M0,-4v8" fill="none" stroke="white" stroke-width="1.5" pointer-events="none"/>
                </g>
                <g id="zoomMin">
                        <use xlink:href="#rim" fill="#404040">
                                <set attributeName="fill" to="#808080" begin="zoomminus.mouseover" end="zoomminus.mouseout"/>
                        </use>
                        <path d="M-4,0h8" fill="none" stroke="white" stroke-width="1.5" pointer-events="none"/>
                </g>
                <g id="dirArrow">
                        <path fill="none" stroke="white" stroke-width="1.5" d="M0,-3.0v7 M-2.5,-0.5L0,-3.0L2.5,-0.5"/>
                </g>
               <g id="resetDef">
                       <use xlink:href="#rim2" fill="#404040">
                               <set attributeName="fill" to="#808080" begin="reset.mouseover" end="reset.mouseout"/>
                       </use>
               </g>
        </defs>

<script type="text/javascript">
var viewWidth = 1689;
var viewHeight = 463;
var sectionId = 'dynsection-0';
</script>
<script xlink:href="svgpan.js"/>
<svg id="graph" class="graph">
<g id="viewport">
<title>CartesianGridSampler.hpp</title>
<polygon fill="white" stroke="transparent" points="-4,4 -4,-459 1685.15,-459 1685.15,4 -4,4"/>
<!-- Node1 -->
<g id="node1" class="node">
<title>Node1</title>
<g id="a_node1"><a xlink:title=" ">
<polygon fill="#bfbfbf" stroke="black" points="880.34,-435.5 880.34,-454.5 1024.34,-454.5 1024.34,-435.5 880.34,-435.5"/>
<text text-anchor="middle" x="952.34" y="-442.5" font-family="Helvetica,sans-Serif" font-size="10.00">CartesianGridSampler.hpp</text>
</a>
</g>
</g>
<!-- Node2 -->
<g id="node2" class="node">
<title>Node2</title>
<g id="a_node2"><a target="_parent" xlink:href="../../../cieutils/docs/html/partial__specialization_8hpp.html.html" xlink:title=" ">
<polygon fill="white" stroke="black" points="649.84,-357.5 649.84,-398.5 794.84,-398.5 794.84,-357.5 649.84,-357.5"/>
<text text-anchor="start" x="657.84" y="-386.5" font-family="Helvetica,sans-Serif" font-size="10.00">packages/compile_time</text>
<text text-anchor="start" x="657.84" y="-375.5" font-family="Helvetica,sans-Serif" font-size="10.00">/packages/concepts/inc</text>
<text text-anchor="middle" x="722.34" y="-364.5" font-family="Helvetica,sans-Serif" font-size="10.00">/partial_specialization.hpp</text>
</a>
</g>
</g>
<!-- Node1&#45;&gt;Node2 -->
<g id="edge1" class="edge">
<title>Node1&#45;&gt;Node2</title>
<path fill="none" stroke="midnightblue" d="M921.79,-435.37C891.25,-426.74 842.99,-413.1 801.59,-401.4"/>
<polygon fill="midnightblue" stroke="midnightblue" points="802.36,-397.98 791.78,-398.63 800.45,-404.71 802.36,-397.98"/>
</g>
<!-- Node3 -->
<g id="node3" class="node">
<title>Node3</title>
<g id="a_node3"><a target="_parent" xlink:href="../../../cieutils/docs/html/typedefs_8hpp.html.html" xlink:title=" ">
<polygon fill="white" stroke="black" points="703.84,-84 703.84,-114 822.84,-114 822.84,-84 703.84,-84"/>
<text text-anchor="start" x="711.84" y="-102" font-family="Helvetica,sans-Serif" font-size="10.00">packages/macros/inc</text>
<text text-anchor="middle" x="763.34" y="-91" font-family="Helvetica,sans-Serif" font-size="10.00">/typedefs.hpp</text>
</a>
</g>
</g>
<!-- Node1&#45;&gt;Node3 -->
<g id="edge2" class="edge">
<title>Node1&#45;&gt;Node3</title>
<path fill="none" stroke="midnightblue" d="M929.33,-435.4C913.13,-428.15 892.28,-416.19 880.34,-399 856.38,-364.54 861.34,-348.47 861.34,-306.5 861.34,-306.5 861.34,-306.5 861.34,-237.5 861.34,-188.47 819.5,-144.8 790.49,-120.43"/>
<polygon fill="midnightblue" stroke="midnightblue" points="792.66,-117.68 782.7,-114.08 788.24,-123.11 792.66,-117.68"/>
</g>
<!-- Node4 -->
<g id="node4" class="node">
<title>Node4</title>
<g id="a_node4"><a xlink:href="PrimitiveSampler_8hpp.html" target="_top" xlink:title=" ">
<polygon fill="white" stroke="black" points="889.84,-363 889.84,-393 1014.84,-393 1014.84,-363 889.84,-363"/>
<text text-anchor="start" x="897.84" y="-381" font-family="Helvetica,sans-Serif" font-size="10.00">packages/trees/inc</text>
<text text-anchor="middle" x="952.34" y="-370" font-family="Helvetica,sans-Serif" font-size="10.00">/PrimitiveSampler.hpp</text>
</a>
</g>
</g>
<!-- Node1&#45;&gt;Node4 -->
<g id="edge3" class="edge">
<title>Node1&#45;&gt;Node4</title>
<path fill="none" stroke="midnightblue" d="M952.34,-435.23C952.34,-427.04 952.34,-414.42 952.34,-403.21"/>
<polygon fill="midnightblue" stroke="midnightblue" points="955.84,-403.09 952.34,-393.09 948.84,-403.09 955.84,-403.09"/>
</g>
<!-- Node16 -->
<g id="node16" class="node">
<title>Node16</title>
<g id="a_node16"><a xlink:href="Box_8hpp.html" target="_top" xlink:title=" ">
<polygon fill="white" stroke="black" points="1187.84,-363 1187.84,-393 1302.84,-393 1302.84,-363 1187.84,-363"/>
<text text-anchor="start" x="1195.84" y="-381" font-family="Helvetica,sans-Serif" font-size="10.00">packages/primitives</text>
<text text-anchor="middle" x="1245.34" y="-370" font-family="Helvetica,sans-Serif" font-size="10.00">/inc/Box.hpp</text>
</a>
</g>
</g>
<!-- Node1&#45;&gt;Node16 -->
<g id="edge22" class="edge">
<title>Node1&#45;&gt;Node16</title>
<path fill="none" stroke="midnightblue" d="M990.94,-435.44C1038.46,-424.89 1119.97,-406.81 1177.91,-393.96"/>
<polygon fill="midnightblue" stroke="midnightblue" points="1178.72,-397.36 1187.72,-391.78 1177.2,-390.53 1178.72,-397.36"/>
</g>
<!-- Node19 -->
<g id="node19" class="node">
<title>Node19</title>
<g id="a_node19"><a xlink:href="Cube_8hpp.html" target="_top" xlink:title=" ">
<polygon fill="white" stroke="black" points="1384.84,-363 1384.84,-393 1499.84,-393 1499.84,-363 1384.84,-363"/>
<text text-anchor="start" x="1392.84" y="-381" font-family="Helvetica,sans-Serif" font-size="10.00">packages/primitives</text>
<text text-anchor="middle" x="1442.34" y="-370" font-family="Helvetica,sans-Serif" font-size="10.00">/inc/Cube.hpp</text>
</a>
</g>
</g>
<!-- Node1&#45;&gt;Node19 -->
<g id="edge29" class="edge">
<title>Node1&#45;&gt;Node19</title>
<path fill="none" stroke="midnightblue" d="M1024.48,-435.59C1097.21,-426.97 1212.68,-412.89 1312.34,-399 1332.65,-396.17 1354.72,-392.86 1374.8,-389.76"/>
<polygon fill="midnightblue" stroke="midnightblue" points="1375.45,-393.2 1384.79,-388.21 1374.37,-386.29 1375.45,-393.2"/>
</g>
<!-- Node21 -->
<g id="node21" class="node">
<title>Node21</title>
<g id="a_node21"><a xlink:href="CartesianIndexConverter_8hpp.html" target="_top" xlink:title=" ">
<polygon fill="white" stroke="black" points="422.84,-156.5 422.84,-186.5 583.84,-186.5 583.84,-156.5 422.84,-156.5"/>
<text text-anchor="start" x="430.84" y="-174.5" font-family="Helvetica,sans-Serif" font-size="10.00">packages/trees/inc</text>
<text text-anchor="middle" x="503.34" y="-163.5" font-family="Helvetica,sans-Serif" font-size="10.00">/CartesianIndexConverter.hpp</text>
</a>
</g>
</g>
<!-- Node1&#45;&gt;Node21 -->
<g id="edge36" class="edge">
<title>Node1&#45;&gt;Node21</title>
<path fill="none" stroke="midnightblue" d="M925.12,-435.37C903.1,-427.69 871.83,-415.17 847.34,-399 824.78,-384.1 824.75,-373.51 803.34,-357 713.89,-288.04 597.33,-222.54 539.36,-191.41"/>
<polygon fill="midnightblue" stroke="midnightblue" points="540.7,-188.16 530.23,-186.53 537.41,-194.33 540.7,-188.16"/>
</g>
<!-- Node27 -->
<g id="node27" class="node">
<title>Node27</title>
<g id="a_node27"><a xlink:title=" ">
<polygon fill="white" stroke="#bfbfbf" points="1517.84,-357.5 1517.84,-398.5 1644.84,-398.5 1644.84,-357.5 1517.84,-357.5"/>
<text text-anchor="start" x="1525.84" y="-386.5" font-family="Helvetica,sans-Serif" font-size="10.00">packages/trees/impl</text>
<text text-anchor="start" x="1525.84" y="-375.5" font-family="Helvetica,sans-Serif" font-size="10.00">/CartesianGridSampler</text>
<text text-anchor="middle" x="1581.34" y="-364.5" font-family="Helvetica,sans-Serif" font-size="10.00">_impl.hpp</text>
</a>
</g>
</g>
<!-- Node1&#45;&gt;Node27 -->
<g id="edge47" class="edge">
<title>Node1&#45;&gt;Node27</title>
<path fill="none" stroke="midnightblue" d="M1024.56,-442.54C1129.32,-439.47 1329.55,-429.94 1507.43,-399.18"/>
<polygon fill="midnightblue" stroke="midnightblue" points="1508.25,-402.59 1517.49,-397.41 1507.04,-395.7 1508.25,-402.59"/>
</g>
<!-- Node4&#45;&gt;Node3 -->
<g id="edge21" class="edge">
<title>Node4&#45;&gt;Node3</title>
<path fill="none" stroke="midnightblue" d="M948.89,-362.83C938.08,-319.29 903.84,-188.42 875.34,-156 860.47,-139.09 839.29,-126.69 819.35,-117.93"/>
<polygon fill="midnightblue" stroke="midnightblue" points="820.57,-114.65 810,-114.03 817.88,-121.11 820.57,-114.65"/>
</g>
<!-- Node5 -->
<g id="node5" class="node">
<title>Node5</title>
<g id="a_node5"><a target="_parent" xlink:href="../../../cieutils/docs/html/basic__concepts_8hpp.html.html" xlink:title=" ">
<polygon fill="white" stroke="black" points="841.34,-78.5 841.34,-119.5 973.34,-119.5 973.34,-78.5 841.34,-78.5"/>
<text text-anchor="start" x="849.34" y="-107.5" font-family="Helvetica,sans-Serif" font-size="10.00">packages/compile_time</text>
<text text-anchor="start" x="849.34" y="-96.5" font-family="Helvetica,sans-Serif" font-size="10.00">/packages/concepts/inc</text>
<text text-anchor="middle" x="907.34" y="-85.5" font-family="Helvetica,sans-Serif" font-size="10.00">/basic_concepts.hpp</text>
</a>
</g>
</g>
<!-- Node4&#45;&gt;Node5 -->
<g id="edge4" class="edge">
<title>Node4&#45;&gt;Node5</title>
<path fill="none" stroke="midnightblue" d="M950.72,-362.97C946.6,-327.91 934.96,-233.72 920.34,-156 918.71,-147.35 916.66,-138.02 914.68,-129.5"/>
<polygon fill="midnightblue" stroke="midnightblue" points="918.04,-128.53 912.32,-119.61 911.23,-130.15 918.04,-128.53"/>
</g>
<!-- Node6 -->
<g id="node6" class="node">
<title>Node6</title>
<g id="a_node6"><a xlink:href="primitives_2inc_2concepts_8hpp.html" target="_top" xlink:title=" ">
<polygon fill="white" stroke="black" points="1187.84,-290.5 1187.84,-320.5 1302.84,-320.5 1302.84,-290.5 1187.84,-290.5"/>
<text text-anchor="start" x="1195.84" y="-308.5" font-family="Helvetica,sans-Serif" font-size="10.00">packages/primitives</text>
<text text-anchor="middle" x="1245.34" y="-297.5" font-family="Helvetica,sans-Serif" font-size="10.00">/inc/concepts.hpp</text>
</a>
</g>
</g>
<!-- Node4&#45;&gt;Node6 -->
<g id="edge5" class="edge">
<title>Node4&#45;&gt;Node6</title>
<path fill="none" stroke="midnightblue" d="M1010.57,-362.99C1058.76,-351.39 1127.27,-334.91 1177.84,-322.74"/>
<polygon fill="midnightblue" stroke="midnightblue" points="1178.81,-326.11 1187.71,-320.37 1177.17,-319.3 1178.81,-326.11"/>
</g>
<!-- Node7 -->
<g id="node7" class="node">
<title>Node7</title>
<g id="a_node7"><a target="_parent" xlink:href="../../../cieutils/docs/html/container__concepts_8hpp.html.html" xlink:title=" ">
<polygon fill="white" stroke="black" points="1361.84,-0.5 1361.84,-41.5 1496.84,-41.5 1496.84,-0.5 1361.84,-0.5"/>
<text text-anchor="start" x="1369.84" y="-29.5" font-family="Helvetica,sans-Serif" font-size="10.00">packages/compile_time</text>
<text text-anchor="start" x="1369.84" y="-18.5" font-family="Helvetica,sans-Serif" font-size="10.00">/packages/concepts/inc</text>
<text text-anchor="middle" x="1429.34" y="-7.5" font-family="Helvetica,sans-Serif" font-size="10.00">/container_concepts.hpp</text>
</a>
</g>
</g>
<!-- Node6&#45;&gt;Node7 -->
<g id="edge6" class="edge">
<title>Node6&#45;&gt;Node7</title>
<path fill="none" stroke="midnightblue" d="M1263.16,-290.42C1297.63,-262.13 1373.28,-194.68 1410.34,-120 1420.91,-98.68 1425.61,-72.04 1427.69,-51.91"/>
<polygon fill="midnightblue" stroke="midnightblue" points="1431.2,-52.03 1428.58,-41.76 1424.22,-51.42 1431.2,-52.03"/>
</g>
<!-- Node8 -->
<g id="node8" class="node">
<title>Node8</title>
<g id="a_node8"><a xlink:href="Primitive_8hpp.html" target="_top" xlink:title=" ">
<polygon fill="white" stroke="black" points="1105.84,-223.5 1105.84,-253.5 1220.84,-253.5 1220.84,-223.5 1105.84,-223.5"/>
<text text-anchor="start" x="1113.84" y="-241.5" font-family="Helvetica,sans-Serif" font-size="10.00">packages/primitives</text>
<text text-anchor="middle" x="1163.34" y="-230.5" font-family="Helvetica,sans-Serif" font-size="10.00">/inc/Primitive.hpp</text>
</a>
</g>
</g>
<!-- Node6&#45;&gt;Node8 -->
<g id="edge7" class="edge">
<title>Node6&#45;&gt;Node8</title>
<path fill="none" stroke="midnightblue" d="M1227.54,-290.4C1216.26,-281.45 1201.48,-269.74 1188.95,-259.8"/>
<polygon fill="midnightblue" stroke="midnightblue" points="1191.11,-257.05 1181.09,-253.58 1186.76,-262.53 1191.11,-257.05"/>
</g>
<!-- Node8&#45;&gt;Node5 -->
<g id="edge8" class="edge">
<title>Node8&#45;&gt;Node5</title>
<path fill="none" stroke="midnightblue" d="M1136.9,-223.3C1093.43,-199.95 1006.33,-153.17 952.8,-124.42"/>
<polygon fill="midnightblue" stroke="midnightblue" points="954.33,-121.27 943.86,-119.62 951.02,-127.43 954.33,-121.27"/>
</g>
<!-- Node9 -->
<g id="node9" class="node">
<title>Node9</title>
<g id="a_node9"><a xlink:href="Object_8hpp.html" target="_top" xlink:title=" ">
<polygon fill="white" stroke="black" points="1105.84,-156.5 1105.84,-186.5 1220.84,-186.5 1220.84,-156.5 1105.84,-156.5"/>
<text text-anchor="start" x="1113.84" y="-174.5" font-family="Helvetica,sans-Serif" font-size="10.00">packages/primitives</text>
<text text-anchor="middle" x="1163.34" y="-163.5" font-family="Helvetica,sans-Serif" font-size="10.00">/inc/Object.hpp</text>
</a>
</g>
</g>
<!-- Node8&#45;&gt;Node9 -->
<g id="edge9" class="edge">
<title>Node8&#45;&gt;Node9</title>
<path fill="none" stroke="midnightblue" d="M1163.34,-223.4C1163.34,-215.64 1163.34,-205.81 1163.34,-196.86"/>
<polygon fill="midnightblue" stroke="midnightblue" points="1166.84,-196.58 1163.34,-186.58 1159.84,-196.58 1166.84,-196.58"/>
</g>
<!-- Node9&#45;&gt;Node3 -->
<g id="edge11" class="edge">
<title>Node9&#45;&gt;Node3</title>
<path fill="none" stroke="midnightblue" d="M1105.81,-164.04C1039.45,-156.05 927.28,-140.91 832.34,-120 827.9,-119.02 823.33,-117.92 818.75,-116.74"/>
<polygon fill="midnightblue" stroke="midnightblue" points="819.34,-113.28 808.77,-114.08 817.53,-120.04 819.34,-113.28"/>
</g>
<!-- Node9&#45;&gt;Node7 -->
<g id="edge10" class="edge">
<title>Node9&#45;&gt;Node7</title>
<path fill="none" stroke="midnightblue" d="M1183.68,-156.31C1197.1,-146.63 1214.82,-133.2 1229.34,-120 1248.19,-102.87 1247.01,-91.93 1268.34,-78 1293.6,-61.5 1324.29,-49.26 1352.06,-40.5"/>
<polygon fill="midnightblue" stroke="midnightblue" points="1353.21,-43.81 1361.75,-37.55 1351.17,-37.11 1353.21,-43.81"/>
</g>
<!-- Node10 -->
<g id="node10" class="node">
<title>Node10</title>
<g id="a_node10"><a target="_parent" xlink:href="../../../cieutils/docs/html/types_8hpp.html.html" xlink:title=" ">
<polygon fill="white" stroke="black" points="1022.34,-6 1022.34,-36 1132.34,-36 1132.34,-6 1022.34,-6"/>
<text text-anchor="start" x="1030.34" y="-24" font-family="Helvetica,sans-Serif" font-size="10.00">packages/types/inc</text>
<text text-anchor="middle" x="1077.34" y="-13" font-family="Helvetica,sans-Serif" font-size="10.00">/types.hpp</text>
</a>
</g>
</g>
<!-- Node9&#45;&gt;Node10 -->
<g id="edge12" class="edge">
<title>Node9&#45;&gt;Node10</title>
<path fill="none" stroke="midnightblue" d="M1136.24,-156.49C1122.18,-147.85 1105.98,-135.44 1096.34,-120 1082.34,-97.59 1078.28,-67.12 1077.28,-46.14"/>
<polygon fill="midnightblue" stroke="midnightblue" points="1080.78,-46.02 1077,-36.12 1073.78,-46.22 1080.78,-46.02"/>
</g>
<!-- Node11 -->
<g id="node11" class="node">
<title>Node11</title>
<g id="a_node11"><a xlink:href="Traits_8hpp.html" target="_top" xlink:title=" ">
<polygon fill="white" stroke="black" points="1105.84,-84 1105.84,-114 1220.84,-114 1220.84,-84 1105.84,-84"/>
<text text-anchor="start" x="1113.84" y="-102" font-family="Helvetica,sans-Serif" font-size="10.00">packages/primitives</text>
<text text-anchor="middle" x="1163.34" y="-91" font-family="Helvetica,sans-Serif" font-size="10.00">/inc/Traits.hpp</text>
</a>
</g>
</g>
<!-- Node9&#45;&gt;Node11 -->
<g id="edge13" class="edge">
<title>Node9&#45;&gt;Node11</title>
<path fill="none" stroke="midnightblue" d="M1163.34,-156.23C1163.34,-147.16 1163.34,-135.16 1163.34,-124.58"/>
<polygon fill="midnightblue" stroke="midnightblue" points="1166.84,-124.25 1163.34,-114.25 1159.84,-124.25 1166.84,-124.25"/>
</g>
<!-- Node13 -->
<g id="node13" class="node">
<title>Node13</title>
<g id="a_node13"><a xlink:title=" ">
<polygon fill="white" stroke="#bfbfbf" points="1541.34,-11.5 1541.34,-30.5 1583.34,-30.5 1583.34,-11.5 1541.34,-11.5"/>
<text text-anchor="middle" x="1562.34" y="-18.5" font-family="Helvetica,sans-Serif" font-size="10.00">array</text>
</a>
</g>
</g>
<!-- Node9&#45;&gt;Node13 -->
<g id="edge19" class="edge">
<title>Node9&#45;&gt;Node13</title>
<path fill="none" stroke="midnightblue" d="M1221,-164.83C1272.21,-158.38 1348.33,-145.28 1410.34,-120 1462.81,-98.61 1516.84,-58.67 1544.15,-36.97"/>
<polygon fill="midnightblue" stroke="midnightblue" points="1546.45,-39.61 1552.05,-30.61 1542.06,-34.16 1546.45,-39.61"/>
</g>
<!-- Node14 -->
<g id="node14" class="node">
<title>Node14</title>
<g id="a_node14"><a xlink:title=" ">
<polygon fill="white" stroke="#bfbfbf" points="991.34,-89.5 991.34,-108.5 1049.34,-108.5 1049.34,-89.5 991.34,-89.5"/>
<text text-anchor="middle" x="1020.34" y="-96.5" font-family="Helvetica,sans-Serif" font-size="10.00">memory</text>
</a>
</g>
</g>
<!-- Node9&#45;&gt;Node14 -->
<g id="edge18" class="edge">
<title>Node9&#45;&gt;Node14</title>
<path fill="none" stroke="midnightblue" d="M1134.74,-156.4C1109.13,-143.77 1071.85,-125.4 1046.88,-113.09"/>
<polygon fill="midnightblue" stroke="midnightblue" points="1048.16,-109.82 1037.65,-108.53 1045.07,-116.09 1048.16,-109.82"/>
</g>
<!-- Node15 -->
<g id="node15" class="node">
<title>Node15</title>
<g id="a_node15"><a xlink:title=" ">
<polygon fill="white" stroke="#bfbfbf" points="1277.34,-84 1277.34,-114 1401.34,-114 1401.34,-84 1277.34,-84"/>
<text text-anchor="start" x="1285.34" y="-102" font-family="Helvetica,sans-Serif" font-size="10.00">packages/primitives</text>
<text text-anchor="middle" x="1339.34" y="-91" font-family="Helvetica,sans-Serif" font-size="10.00">/impl/Object_impl.hpp</text>
</a>
</g>
</g>
<!-- Node9&#45;&gt;Node15 -->
<g id="edge20" class="edge">
<title>Node9&#45;&gt;Node15</title>
<path fill="none" stroke="midnightblue" d="M1198.53,-156.4C1226.23,-145.31 1265,-129.78 1294.85,-117.82"/>
<polygon fill="midnightblue" stroke="midnightblue" points="1296.22,-121.04 1304.2,-114.07 1293.62,-114.54 1296.22,-121.04"/>
</g>
<!-- Node11&#45;&gt;Node7 -->
<g id="edge15" class="edge">
<title>Node11&#45;&gt;Node7</title>
<path fill="none" stroke="midnightblue" d="M1212.44,-83.97C1251.52,-72.8 1306.96,-56.97 1352,-44.1"/>
<polygon fill="midnightblue" stroke="midnightblue" points="1353.08,-47.43 1361.73,-41.32 1351.16,-40.7 1353.08,-47.43"/>
</g>
<!-- Node11&#45;&gt;Node10 -->
<g id="edge14" class="edge">
<title>Node11&#45;&gt;Node10</title>
<path fill="none" stroke="midnightblue" d="M1147.16,-83.7C1134.19,-72.24 1115.79,-55.98 1101.14,-43.03"/>
<polygon fill="midnightblue" stroke="midnightblue" points="1103.25,-40.23 1093.44,-36.23 1098.62,-45.48 1103.25,-40.23"/>
</g>
<!-- Node12 -->
<g id="node12" class="node">
<title>Node12</title>
<g id="a_node12"><a target="_parent" xlink:href="../../../cieutils/docs/html/StaticArray_8hpp.html.html" xlink:title=" ">
<polygon fill="white" stroke="black" points="396.84,-6 396.84,-36 527.84,-36 527.84,-6 396.84,-6"/>
<text text-anchor="start" x="404.84" y="-24" font-family="Helvetica,sans-Serif" font-size="10.00">packages/stl_extension</text>
<text text-anchor="middle" x="462.34" y="-13" font-family="Helvetica,sans-Serif" font-size="10.00">/inc/StaticArray.hpp</text>
</a>
</g>
</g>
<!-- Node11&#45;&gt;Node12 -->
<g id="edge16" class="edge">
<title>Node11&#45;&gt;Node12</title>
<path fill="none" stroke="midnightblue" d="M1105.73,-86.01C1090.38,-83.1 1073.77,-80.19 1058.34,-78 872.31,-51.6 651.78,-34.56 538.26,-26.82"/>
<polygon fill="midnightblue" stroke="midnightblue" points="538.49,-23.33 528.28,-26.15 538.02,-30.32 538.49,-23.33"/>
</g>
<!-- Node11&#45;&gt;Node13 -->
<g id="edge17" class="edge">
<title>Node11&#45;&gt;Node13</title>
<path fill="none" stroke="midnightblue" d="M1221.03,-86.6C1236.38,-83.68 1252.97,-80.62 1268.34,-78 1373.79,-59.99 1402.59,-68.11 1506.34,-42 1514.74,-39.89 1523.64,-37.01 1531.82,-34.1"/>
<polygon fill="midnightblue" stroke="midnightblue" points="1533.19,-37.32 1541.36,-30.58 1530.77,-30.76 1533.19,-37.32"/>
</g>
<!-- Node16&#45;&gt;Node6 -->
<g id="edge25" class="edge">
<title>Node16&#45;&gt;Node6</title>
<path fill="none" stroke="midnightblue" d="M1245.34,-362.73C1245.34,-353.66 1245.34,-341.66 1245.34,-331.08"/>
<polygon fill="midnightblue" stroke="midnightblue" points="1248.84,-330.75 1245.34,-320.75 1241.84,-330.75 1248.84,-330.75"/>
</g>
<!-- Node16&#45;&gt;Node7 -->
<g id="edge23" class="edge">
<title>Node16&#45;&gt;Node7</title>
<path fill="none" stroke="midnightblue" d="M1265.68,-362.89C1279.85,-352.41 1298.6,-337.18 1312.34,-321 1379.36,-242.01 1403.35,-220.01 1430.34,-120 1436.39,-97.58 1435.7,-71.21 1433.74,-51.48"/>
<polygon fill="midnightblue" stroke="midnightblue" points="1437.22,-51.08 1432.6,-41.54 1430.27,-51.88 1437.22,-51.08"/>
</g>
<!-- Node16&#45;&gt;Node8 -->
<g id="edge24" class="edge">
<title>Node16&#45;&gt;Node8</title>
<path fill="none" stroke="midnightblue" d="M1187.42,-368.64C1134.7,-359.71 1062.55,-343.7 1045.34,-321 1024.05,-292.93 1062.35,-270.99 1100.87,-256.98"/>
<polygon fill="midnightblue" stroke="midnightblue" points="1102.33,-260.18 1110.63,-253.59 1100.03,-253.56 1102.33,-260.18"/>
</g>
<!-- Node16&#45;&gt;Node13 -->
<g id="edge27" class="edge">
<title>Node16&#45;&gt;Node13</title>
<path fill="none" stroke="midnightblue" d="M1274.33,-362.95C1293.61,-352.82 1318.88,-337.97 1338.34,-321 1440.55,-231.86 1525.23,-88.86 1552.83,-39.46"/>
<polygon fill="midnightblue" stroke="midnightblue" points="1555.93,-41.07 1557.71,-30.63 1549.81,-37.69 1555.93,-41.07"/>
</g>
<!-- Node17 -->
<g id="node17" class="node">
<title>Node17</title>
<g id="a_node17"><a xlink:title=" ">
<polygon fill="white" stroke="#bfbfbf" points="1397.84,-296 1397.84,-315 1438.84,-315 1438.84,-296 1397.84,-296"/>
<text text-anchor="middle" x="1418.34" y="-303" font-family="Helvetica,sans-Serif" font-size="10.00">tuple</text>
</a>
</g>
</g>
<!-- Node16&#45;&gt;Node17 -->
<g id="edge26" class="edge">
<title>Node16&#45;&gt;Node17</title>
<path fill="none" stroke="midnightblue" d="M1280.25,-362.92C1308.16,-351.63 1348.29,-335.37 1383.34,-321 1384.93,-320.35 1386.56,-319.68 1388.2,-319"/>
<polygon fill="midnightblue" stroke="midnightblue" points="1389.71,-322.16 1397.62,-315.11 1387.04,-315.69 1389.71,-322.16"/>
</g>
<!-- Node18 -->
<g id="node18" class="node">
<title>Node18</title>
<g id="a_node18"><a xlink:title=" ">
<polygon fill="white" stroke="#bfbfbf" points="1054.84,-290.5 1054.84,-320.5 1169.84,-320.5 1169.84,-290.5 1054.84,-290.5"/>
<text text-anchor="start" x="1062.84" y="-308.5" font-family="Helvetica,sans-Serif" font-size="10.00">packages/primitives</text>
<text text-anchor="middle" x="1112.34" y="-297.5" font-family="Helvetica,sans-Serif" font-size="10.00">/impl/Box_impl.hpp</text>
</a>
</g>
</g>
<!-- Node16&#45;&gt;Node18 -->
<g id="edge28" class="edge">
<title>Node16&#45;&gt;Node18</title>
<path fill="none" stroke="midnightblue" d="M1218.74,-362.9C1198.35,-352.1 1170.03,-337.08 1147.72,-325.26"/>
<polygon fill="midnightblue" stroke="midnightblue" points="1149.36,-322.16 1138.89,-320.57 1146.08,-328.35 1149.36,-322.16"/>
</g>
<!-- Node19&#45;&gt;Node6 -->
<g id="edge32" class="edge">
<title>Node19&#45;&gt;Node6</title>
<path fill="none" stroke="midnightblue" d="M1402.94,-362.9C1371.67,-351.71 1327.79,-336.01 1294.26,-324.01"/>
<polygon fill="midnightblue" stroke="midnightblue" points="1295.26,-320.65 1284.66,-320.57 1292.9,-327.24 1295.26,-320.65"/>
</g>
<!-- Node19&#45;&gt;Node7 -->
<g id="edge30" class="edge">
<title>Node19&#45;&gt;Node7</title>
<path fill="none" stroke="midnightblue" d="M1453.89,-362.74C1472.08,-338.79 1505.34,-288.34 1505.34,-239.5 1505.34,-239.5 1505.34,-239.5 1505.34,-170.5 1505.34,-128.03 1501.74,-115.25 1481.34,-78 1475.57,-67.47 1467.38,-57.39 1459.21,-48.75"/>
<polygon fill="midnightblue" stroke="midnightblue" points="1461.61,-46.2 1452.08,-41.56 1456.63,-51.13 1461.61,-46.2"/>
</g>
<!-- Node19&#45;&gt;Node8 -->
<g id="edge31" class="edge">
<title>Node19&#45;&gt;Node8</title>
<path fill="none" stroke="midnightblue" d="M1448.74,-362.8C1456.2,-343.88 1465.46,-310.42 1448.34,-290 1421.2,-257.64 1306.83,-246 1231.47,-241.83"/>
<polygon fill="midnightblue" stroke="midnightblue" points="1231.28,-238.31 1221.11,-241.29 1230.92,-245.3 1231.28,-238.31"/>
</g>
<!-- Node19&#45;&gt;Node13 -->
<g id="edge34" class="edge">
<title>Node19&#45;&gt;Node13</title>
<path fill="none" stroke="midnightblue" d="M1488.01,-362.99C1495.13,-360.92 1502.42,-358.86 1509.34,-357 1575.97,-339.13 1611.67,-369.91 1660.34,-321 1686.57,-294.63 1679.34,-276.69 1679.34,-239.5 1679.34,-239.5 1679.34,-239.5 1679.34,-170.5 1679.34,-110.24 1619.16,-60.04 1585.12,-36.46"/>
<polygon fill="midnightblue" stroke="midnightblue" points="1586.94,-33.46 1576.68,-30.79 1583.03,-39.27 1586.94,-33.46"/>
</g>
<!-- Node19&#45;&gt;Node17 -->
<g id="edge33" class="edge">
<title>Node19&#45;&gt;Node17</title>
<path fill="none" stroke="midnightblue" d="M1437.48,-362.73C1433.79,-351.89 1428.68,-336.88 1424.67,-325.1"/>
<polygon fill="midnightblue" stroke="midnightblue" points="1427.9,-323.73 1421.36,-315.39 1421.27,-325.99 1427.9,-323.73"/>
</g>
<!-- Node20 -->
<g id="node20" class="node">
<title>Node20</title>
<g id="a_node20"><a xlink:title=" ">
<polygon fill="white" stroke="#bfbfbf" points="1533.84,-290.5 1533.84,-320.5 1650.84,-320.5 1650.84,-290.5 1533.84,-290.5"/>
<text text-anchor="start" x="1541.84" y="-308.5" font-family="Helvetica,sans-Serif" font-size="10.00">packages/primitives</text>
<text text-anchor="middle" x="1592.34" y="-297.5" font-family="Helvetica,sans-Serif" font-size="10.00">/impl/Cube_impl.hpp</text>
</a>
</g>
</g>
<!-- Node19&#45;&gt;Node20 -->
<g id="edge35" class="edge">
<title>Node19&#45;&gt;Node20</title>
<path fill="none" stroke="midnightblue" d="M1472.33,-362.9C1495.53,-352 1527.84,-336.81 1553.1,-324.94"/>
<polygon fill="midnightblue" stroke="midnightblue" points="1554.83,-327.99 1562.39,-320.57 1551.86,-321.66 1554.83,-327.99"/>
</g>
<!-- Node21&#45;&gt;Node3 -->
<g id="edge43" class="edge">
<title>Node21&#45;&gt;Node3</title>
<path fill="none" stroke="midnightblue" d="M557.77,-156.47C596.03,-146.52 648.39,-132.73 694.34,-120 698.08,-118.96 701.94,-117.88 705.83,-116.78"/>
<polygon fill="midnightblue" stroke="midnightblue" points="706.84,-120.13 715.5,-114.03 704.92,-113.4 706.84,-120.13"/>
</g>
<!-- Node21&#45;&gt;Node5 -->
<g id="edge40" class="edge">
<title>Node21&#45;&gt;Node5</title>
<path fill="none" stroke="midnightblue" d="M583.96,-160.48C650.62,-151.62 747.57,-137.42 831.34,-120 831.44,-119.98 831.54,-119.96 831.64,-119.94"/>
<polygon fill="midnightblue" stroke="midnightblue" points="832.09,-123.42 841.11,-117.86 830.6,-116.58 832.09,-123.42"/>
</g>
<!-- Node21&#45;&gt;Node10 -->
<g id="edge37" class="edge">
<title>Node21&#45;&gt;Node10</title>
<path fill="none" stroke="midnightblue" d="M422.62,-167.41C297.18,-161.77 67.21,-147.75 42.34,-120 29.88,-106.1 29.5,-91.55 42.34,-78 59.08,-60.33 787.24,-32.51 1011.98,-24.33"/>
<polygon fill="midnightblue" stroke="midnightblue" points="1012.11,-27.83 1021.98,-23.97 1011.86,-20.84 1012.11,-27.83"/>
</g>
<!-- Node21&#45;&gt;Node12 -->
<g id="edge38" class="edge">
<title>Node21&#45;&gt;Node12</title>
<path fill="none" stroke="midnightblue" d="M422.77,-168.06C289.84,-163.19 36.47,-150.05 9.34,-120 -3.17,-106.15 -3.03,-91.99 9.34,-78 33.87,-50.24 264.26,-33.16 386.68,-25.96"/>
<polygon fill="midnightblue" stroke="midnightblue" points="386.96,-29.45 396.75,-25.38 386.56,-22.46 386.96,-29.45"/>
</g>
<!-- Node21&#45;&gt;Node14 -->
<g id="edge45" class="edge">
<title>Node21&#45;&gt;Node14</title>
<path fill="none" stroke="midnightblue" d="M583.99,-171.2C680.7,-169.96 846.71,-161.18 982.34,-120 987.64,-118.39 993.07,-116.03 998.1,-113.49"/>
<polygon fill="midnightblue" stroke="midnightblue" points="1000.06,-116.4 1007.16,-108.53 996.7,-110.26 1000.06,-116.4"/>
</g>
<!-- Node22 -->
<g id="node22" class="node">
<title>Node22</title>
<g id="a_node22"><a target="_parent" xlink:href="../../../cieutils/docs/html/DynamicArray_8hpp.html.html" xlink:title=" ">
<polygon fill="white" stroke="black" points="51.84,-84 51.84,-114 182.84,-114 182.84,-84 51.84,-84"/>
<text text-anchor="start" x="59.84" y="-102" font-family="Helvetica,sans-Serif" font-size="10.00">packages/stl_extension</text>
<text text-anchor="middle" x="117.34" y="-91" font-family="Helvetica,sans-Serif" font-size="10.00">/inc/DynamicArray.hpp</text>
</a>
</g>
</g>
<!-- Node21&#45;&gt;Node22 -->
<g id="edge39" class="edge">
<title>Node21&#45;&gt;Node22</title>
<path fill="none" stroke="midnightblue" d="M422.7,-159.66C359.68,-150.64 270.03,-136.62 192.34,-120 187.36,-118.93 182.22,-117.75 177.07,-116.5"/>
<polygon fill="midnightblue" stroke="midnightblue" points="177.74,-113.06 167.19,-114.04 176.05,-119.85 177.74,-113.06"/>
</g>
<!-- Node23 -->
<g id="node23" class="node">
<title>Node23</title>
<g id="a_node23"><a target="_parent" xlink:href="../../../cieutils/docs/html/iterator__concepts_8hpp.html.html" xlink:title=" ">
<polygon fill="white" stroke="black" points="201.34,-78.5 201.34,-119.5 333.34,-119.5 333.34,-78.5 201.34,-78.5"/>
<text text-anchor="start" x="209.34" y="-107.5" font-family="Helvetica,sans-Serif" font-size="10.00">packages/compile_time</text>
<text text-anchor="start" x="209.34" y="-96.5" font-family="Helvetica,sans-Serif" font-size="10.00">/packages/concepts/inc</text>
<text text-anchor="middle" x="267.34" y="-85.5" font-family="Helvetica,sans-Serif" font-size="10.00">/iterator_concepts.hpp</text>
</a>
</g>
</g>
<!-- Node21&#45;&gt;Node23 -->
<g id="edge41" class="edge">
<title>Node21&#45;&gt;Node23</title>
<path fill="none" stroke="midnightblue" d="M456.43,-156.49C423.98,-146.79 380.08,-133.68 342.76,-122.53"/>
<polygon fill="midnightblue" stroke="midnightblue" points="343.5,-119.1 332.92,-119.59 341.5,-125.81 343.5,-119.1"/>
</g>
<!-- Node24 -->
<g id="node24" class="node">
<title>Node24</title>
<g id="a_node24"><a target="_parent" xlink:href="../../../cieutils/docs/html/tags_8hpp.html.html" xlink:title=" ">
<polygon fill="white" stroke="black" points="351.34,-84 351.34,-114 461.34,-114 461.34,-84 351.34,-84"/>
<text text-anchor="start" x="359.34" y="-102" font-family="Helvetica,sans-Serif" font-size="10.00">packages/types/inc</text>
<text text-anchor="middle" x="406.34" y="-91" font-family="Helvetica,sans-Serif" font-size="10.00">/tags.hpp</text>
</a>
</g>
</g>
<!-- Node21&#45;&gt;Node24 -->
<g id="edge42" class="edge">
<title>Node21&#45;&gt;Node24</title>
<path fill="none" stroke="midnightblue" d="M483.71,-156.23C469.41,-145.85 449.86,-131.63 433.99,-120.1"/>
<polygon fill="midnightblue" stroke="midnightblue" points="435.75,-117.05 425.61,-114 431.64,-122.72 435.75,-117.05"/>
</g>
<!-- Node25 -->
<g id="node25" class="node">
<title>Node25</title>
<g id="a_node25"><a xlink:title=" ">
<polygon fill="white" stroke="#bfbfbf" points="479.84,-89.5 479.84,-108.5 526.84,-108.5 526.84,-89.5 479.84,-89.5"/>
<text text-anchor="middle" x="503.34" y="-96.5" font-family="Helvetica,sans-Serif" font-size="10.00">vector</text>
</a>
</g>
</g>
<!-- Node21&#45;&gt;Node25 -->
<g id="edge44" class="edge">
<title>Node21&#45;&gt;Node25</title>
<path fill="none" stroke="midnightblue" d="M503.34,-156.23C503.34,-145.5 503.34,-130.69 503.34,-118.96"/>
<polygon fill="midnightblue" stroke="midnightblue" points="506.84,-118.89 503.34,-108.89 499.84,-118.89 506.84,-118.89"/>
</g>
<!-- Node26 -->
<g id="node26" class="node">
<title>Node26</title>
<g id="a_node26"><a xlink:title=" ">
<polygon fill="white" stroke="#bfbfbf" points="544.84,-78.5 544.84,-119.5 685.84,-119.5 685.84,-78.5 544.84,-78.5"/>
<text text-anchor="start" x="552.84" y="-107.5" font-family="Helvetica,sans-Serif" font-size="10.00">packages/trees/impl</text>
<text text-anchor="start" x="552.84" y="-96.5" font-family="Helvetica,sans-Serif" font-size="10.00">/CartesianIndexConverter</text>
<text text-anchor="middle" x="615.34" y="-85.5" font-family="Helvetica,sans-Serif" font-size="10.00">_impl.hpp</text>
</a>
</g>
</g>
<!-- Node21&#45;&gt;Node26 -->
<g id="edge46" class="edge">
<title>Node21&#45;&gt;Node26</title>
<path fill="none" stroke="midnightblue" d="M525.73,-156.4C539.97,-147.44 558.82,-135.58 575.55,-125.04"/>
<polygon fill="midnightblue" stroke="midnightblue" points="577.47,-127.97 584.07,-119.68 573.74,-122.05 577.47,-127.97"/>
</g>
</g>
</svg>
        <g id="navigator" transform="translate(0 0)" fill="#404254">
                <rect fill="#f2f5e9" fill-opacity="0.5" stroke="#606060" stroke-width=".5" x="0" y="0" width="60" height="60"/>
                <use id="zoomplus" xlink:href="#zoomPlus" x="17" y="9" onmousedown="handleZoom(evt,'in')"/>
                <use id="zoomminus" xlink:href="#zoomMin" x="42" y="9" onmousedown="handleZoom(evt,'out')"/>
                <use id="reset" xlink:href="#resetDef" x="30" y="36" onmousedown="handleReset()"/>
                <g id="arrowUp" xlink:href="#dirArrow" transform="translate(30 24)" onmousedown="handlePan(0,-1)">
                  <use xlink:href="#rim" fill="#404040">
                        <set attributeName="fill" to="#808080" begin="arrowUp.mouseover" end="arrowUp.mouseout"/>
                  </use>
                  <path fill="none" stroke="white" stroke-width="1.5" d="M0,-3.0v7 M-2.5,-0.5L0,-3.0L2.5,-0.5"/>
                </g>
                <g id="arrowRight" xlink:href="#dirArrow" transform="rotate(90) translate(36 -43)" onmousedown="handlePan(1,0)">
                  <use xlink:href="#rim" fill="#404040">
                        <set attributeName="fill" to="#808080" begin="arrowRight.mouseover" end="arrowRight.mouseout"/>
                  </use>
                  <path fill="none" stroke="white" stroke-width="1.5" d="M0,-3.0v7 M-2.5,-0.5L0,-3.0L2.5,-0.5"/>
                </g>
                <g id="arrowDown" xlink:href="#dirArrow" transform="rotate(180) translate(-30 -48)" onmousedown="handlePan(0,1)">
                  <use xlink:href="#rim" fill="#404040">
                        <set attributeName="fill" to="#808080" begin="arrowDown.mouseover" end="arrowDown.mouseout"/>
                  </use>
                  <path fill="none" stroke="white" stroke-width="1.5" d="M0,-3.0v7 M-2.5,-0.5L0,-3.0L2.5,-0.5"/>
                </g>
                <g id="arrowLeft" xlink:href="#dirArrow" transform="rotate(270) translate(-36 17)" onmousedown="handlePan(-1,0)">
                  <use xlink:href="#rim" fill="#404040">
                        <set attributeName="fill" to="#808080" begin="arrowLeft.mouseover" end="arrowLeft.mouseout"/>
                  </use>
                  <path fill="none" stroke="white" stroke-width="1.5" d="M0,-3.0v7 M-2.5,-0.5L0,-3.0L2.5,-0.5"/>
                </g>
        </g>
        <svg viewBox="0 0 15 15" width="100%" height="30px" preserveAspectRatio="xMaxYMin meet">
         <g id="arrow_out" transform="scale(0.3 0.3)">
          <a xlink:href="CartesianGridSampler_8hpp__incl_org.svg" target="_base">
           <rect id="button" ry="5" rx="5" y="6" x="6" height="38" width="38"
                fill="#f2f5e9" fill-opacity="0.5" stroke="#606060" stroke-width="1.0"/>
           <path id="arrow"
             d="M 11.500037,31.436501 C 11.940474,20.09759 22.043105,11.32322 32.158766,21.979434 L 37.068811,17.246167 C 37.068811,17.246167 37.088388,32 37.088388,32 L 22.160133,31.978069 C 22.160133,31.978069 26.997745,27.140456 26.997745,27.140456 C 18.528582,18.264221 13.291696,25.230495 11.500037,31.436501 z"
             style="fill:#404040;"/>
          </a>
         </g>
        </svg>
</svg>
