<?xml version="1.0" encoding="UTF-8" standalone="no"?>
<!DOCTYPE svg PUBLIC "-//W3C//DTD SVG 1.1//EN"
 "http://www.w3.org/Graphics/SVG/1.1/DTD/svg11.dtd">
<!-- Generated by graphviz version 2.43.0 (0)
 -->
<!-- Title: CartesianGrid.hpp Pages: 1 -->
<svg width="1284pt" height="184pt"
 viewBox="0.00 0.00 1283.50 184.00" xmlns="http://www.w3.org/2000/svg" xmlns:xlink="http://www.w3.org/1999/xlink">
<g id="graph0" class="graph" transform="scale(1 1) rotate(0) translate(4 180)">
<title>CartesianGrid.hpp</title>
<polygon fill="white" stroke="transparent" points="-4,4 -4,-180 1279.5,-180 1279.5,4 -4,4"/>
<!-- Node1 -->
<g id="node1" class="node">
<title>Node1</title>
<g id="a_node1"><a xlink:title=" ">
<polygon fill="#bfbfbf" stroke="black" points="663,-156.5 663,-175.5 767,-175.5 767,-156.5 663,-156.5"/>
<text text-anchor="middle" x="715" y="-163.5" font-family="Helvetica,sans-Serif" font-size="10.00">CartesianGrid.hpp</text>
</a>
</g>
</g>
<!-- Node2 -->
<g id="node2" class="node">
<title>Node2</title>
<g id="a_node2"><a xlink:href="CartesianIndexConverter_8hpp.html" target="_top" xlink:title=" ">
<polygon fill="white" stroke="black" points="525.5,-84 525.5,-114 686.5,-114 686.5,-84 525.5,-84"/>
<text text-anchor="start" x="533.5" y="-102" font-family="Helvetica,sans-Serif" font-size="10.00">packages/trees/inc</text>
<text text-anchor="middle" x="606" y="-91" font-family="Helvetica,sans-Serif" font-size="10.00">/CartesianIndexConverter.hpp</text>
</a>
</g>
</g>
<!-- Node1&#45;&gt;Node2 -->
<g id="edge1" class="edge">
<title>Node1&#45;&gt;Node2</title>
<path fill="none" stroke="midnightblue" d="M700.3,-156.23C684.51,-146.82 658.91,-131.55 638.37,-119.3"/>
<polygon fill="midnightblue" stroke="midnightblue" points="640.01,-116.2 629.63,-114.09 636.42,-122.22 640.01,-116.2"/>
</g>
<!-- Node3 -->
<g id="node3" class="node">
<title>Node3</title>
<g id="a_node3"><a target="_parent" xlink:href="../../../cieutils/docs/html/types_8hpp.html.html" xlink:title=" ">
<polygon fill="white" stroke="black" points="0,-6 0,-36 110,-36 110,-6 0,-6"/>
<text text-anchor="start" x="8" y="-24" font-family="Helvetica,sans-Serif" font-size="10.00">packages/types/inc</text>
<text text-anchor="middle" x="55" y="-13" font-family="Helvetica,sans-Serif" font-size="10.00">/types.hpp</text>
</a>
</g>
</g>
<!-- Node1&#45;&gt;Node3 -->
<g id="edge17" class="edge">
<title>Node1&#45;&gt;Node3</title>
<path fill="none" stroke="midnightblue" d="M662.72,-163.58C584.36,-160.49 432.28,-150.71 307,-120 228.35,-100.72 141.28,-62.93 92.84,-40.32"/>
<polygon fill="midnightblue" stroke="midnightblue" points="94.22,-37.11 83.68,-36.02 91.24,-43.44 94.22,-37.11"/>
</g>
<!-- Node4 -->
<g id="node4" class="node">
<title>Node4</title>
<g id="a_node4"><a target="_parent" xlink:href="../../../cieutils/docs/html/StaticArray_8hpp.html.html" xlink:title=" ">
<polygon fill="white" stroke="black" points="128.5,-6 128.5,-36 259.5,-36 259.5,-6 128.5,-6"/>
<text text-anchor="start" x="136.5" y="-24" font-family="Helvetica,sans-Serif" font-size="10.00">packages/stl_extension</text>
<text text-anchor="middle" x="194" y="-13" font-family="Helvetica,sans-Serif" font-size="10.00">/inc/StaticArray.hpp</text>
</a>
</g>
</g>
<!-- Node1&#45;&gt;Node4 -->
<g id="edge16" class="edge">
<title>Node1&#45;&gt;Node4</title>
<path fill="none" stroke="midnightblue" d="M662.96,-161.33C602.78,-156.12 501.18,-144.39 417,-120 347.75,-99.94 271.83,-63.13 228.84,-40.78"/>
<polygon fill="midnightblue" stroke="midnightblue" points="230.41,-37.65 219.92,-36.11 227.16,-43.85 230.41,-37.65"/>
</g>
<!-- Node6 -->
<g id="node6" class="node">
<title>Node6</title>
<g id="a_node6"><a target="_parent" xlink:href="../../../cieutils/docs/html/basic__concepts_8hpp.html.html" xlink:title=" ">
<polygon fill="white" stroke="black" points="278,-0.5 278,-41.5 410,-41.5 410,-0.5 278,-0.5"/>
<text text-anchor="start" x="286" y="-29.5" font-family="Helvetica,sans-Serif" font-size="10.00">packages/compile_time</text>
<text text-anchor="start" x="286" y="-18.5" font-family="Helvetica,sans-Serif" font-size="10.00">/packages/concepts/inc</text>
<text text-anchor="middle" x="344" y="-7.5" font-family="Helvetica,sans-Serif" font-size="10.00">/basic_concepts.hpp</text>
</a>
</g>
</g>
<!-- Node1&#45;&gt;Node6 -->
<g id="edge12" class="edge">
<title>Node1&#45;&gt;Node6</title>
<path fill="none" stroke="midnightblue" d="M662.67,-160.09C616.61,-154.44 548.45,-142.85 493,-120 449.23,-101.96 404.59,-70.51 375.73,-48.1"/>
<polygon fill="midnightblue" stroke="midnightblue" points="377.69,-45.19 367.67,-41.75 373.36,-50.69 377.69,-45.19"/>
</g>
<!-- Node7 -->
<g id="node7" class="node">
<title>Node7</title>
<g id="a_node7"><a target="_parent" xlink:href="../../../cieutils/docs/html/iterator__concepts_8hpp.html.html" xlink:title=" ">
<polygon fill="white" stroke="black" points="428,-0.5 428,-41.5 560,-41.5 560,-0.5 428,-0.5"/>
<text text-anchor="start" x="436" y="-29.5" font-family="Helvetica,sans-Serif" font-size="10.00">packages/compile_time</text>
<text text-anchor="start" x="436" y="-18.5" font-family="Helvetica,sans-Serif" font-size="10.00">/packages/concepts/inc</text>
<text text-anchor="middle" x="494" y="-7.5" font-family="Helvetica,sans-Serif" font-size="10.00">/iterator_concepts.hpp</text>
</a>
</g>
</g>
<!-- Node1&#45;&gt;Node7 -->
<g id="edge13" class="edge">
<title>Node1&#45;&gt;Node7</title>
<path fill="none" stroke="midnightblue" d="M662.89,-159.53C611.04,-153.01 536.33,-140.37 516,-120 498.32,-102.29 493.55,-73.64 492.77,-51.88"/>
<polygon fill="midnightblue" stroke="midnightblue" points="496.27,-51.79 492.67,-41.83 489.27,-51.86 496.27,-51.79"/>
</g>
<!-- Node8 -->
<g id="node8" class="node">
<title>Node8</title>
<g id="a_node8"><a target="_parent" xlink:href="../../../cieutils/docs/html/tags_8hpp.html.html" xlink:title=" ">
<polygon fill="white" stroke="black" points="1028,-6 1028,-36 1138,-36 1138,-6 1028,-6"/>
<text text-anchor="start" x="1036" y="-24" font-family="Helvetica,sans-Serif" font-size="10.00">packages/types/inc</text>
<text text-anchor="middle" x="1083" y="-13" font-family="Helvetica,sans-Serif" font-size="10.00">/tags.hpp</text>
</a>
</g>
</g>
<!-- Node1&#45;&gt;Node8 -->
<g id="edge18" class="edge">
<title>Node1&#45;&gt;Node8</title>
<path fill="none" stroke="midnightblue" d="M714.52,-156.49C714.04,-138.84 715.69,-98.23 739,-78 786.38,-36.88 957.72,-55.41 1019,-42 1023.16,-41.09 1027.43,-40.03 1031.71,-38.89"/>
<polygon fill="midnightblue" stroke="midnightblue" points="1032.95,-42.17 1041.63,-36.09 1031.05,-35.44 1032.95,-42.17"/>
</g>
<!-- Node9 -->
<g id="node9" class="node">
<title>Node9</title>
<g id="a_node9"><a target="_parent" xlink:href="../../../cieutils/docs/html/typedefs_8hpp.html.html" xlink:title=" ">
<polygon fill="white" stroke="black" points="1156.5,-6 1156.5,-36 1275.5,-36 1275.5,-6 1156.5,-6"/>
<text text-anchor="start" x="1164.5" y="-24" font-family="Helvetica,sans-Serif" font-size="10.00">packages/macros/inc</text>
<text text-anchor="middle" x="1216" y="-13" font-family="Helvetica,sans-Serif" font-size="10.00">/typedefs.hpp</text>
</a>
</g>
</g>
<!-- Node1&#45;&gt;Node9 -->
<g id="edge15" class="edge">
<title>Node1&#45;&gt;Node9</title>
<path fill="none" stroke="midnightblue" d="M719.55,-156.28C730.25,-136.14 757.27,-87.42 773,-78 844.64,-35.12 1064.99,-57.69 1147,-42 1152,-41.04 1157.16,-39.88 1162.31,-38.61"/>
<polygon fill="midnightblue" stroke="midnightblue" points="1163.34,-41.96 1172.13,-36.04 1161.57,-35.18 1163.34,-41.96"/>
</g>
<!-- Node13 -->
<g id="node13" class="node">
<title>Node13</title>
<g id="a_node13"><a target="_parent" xlink:href="../../../cieutils/docs/html/container__concepts_8hpp.html.html" xlink:title=" ">
<polygon fill="white" stroke="black" points="781.5,-78.5 781.5,-119.5 916.5,-119.5 916.5,-78.5 781.5,-78.5"/>
<text text-anchor="start" x="789.5" y="-107.5" font-family="Helvetica,sans-Serif" font-size="10.00">packages/compile_time</text>
<text text-anchor="start" x="789.5" y="-96.5" font-family="Helvetica,sans-Serif" font-size="10.00">/packages/concepts/inc</text>
<text text-anchor="middle" x="849" y="-85.5" font-family="Helvetica,sans-Serif" font-size="10.00">/container_concepts.hpp</text>
</a>
</g>
</g>
<!-- Node1&#45;&gt;Node13 -->
<g id="edge14" class="edge">
<title>Node1&#45;&gt;Node13</title>
<path fill="none" stroke="midnightblue" d="M732.79,-156.37C749.76,-148.14 776.12,-135.35 799.44,-124.04"/>
<polygon fill="midnightblue" stroke="midnightblue" points="801.07,-127.14 808.54,-119.63 798.02,-120.84 801.07,-127.14"/>
</g>
<!-- Node14 -->
<g id="node14" class="node">
<title>Node14</title>
<g id="a_node14"><a xlink:title=" ">
<polygon fill="white" stroke="#bfbfbf" points="934.5,-89.5 934.5,-108.5 987.5,-108.5 987.5,-89.5 934.5,-89.5"/>
<text text-anchor="middle" x="961" y="-96.5" font-family="Helvetica,sans-Serif" font-size="10.00">iterator</text>
</a>
</g>
</g>
<!-- Node1&#45;&gt;Node14 -->
<g id="edge19" class="edge">
<title>Node1&#45;&gt;Node14</title>
<path fill="none" stroke="midnightblue" d="M767.01,-158.48C810.51,-151.96 873.69,-139.97 926,-120 930.46,-118.3 935.03,-116.08 939.33,-113.75"/>
<polygon fill="midnightblue" stroke="midnightblue" points="941.29,-116.66 948.18,-108.6 937.78,-110.6 941.29,-116.66"/>
</g>
<!-- Node15 -->
<g id="node15" class="node">
<title>Node15</title>
<g id="a_node15"><a xlink:title=" ">
<polygon fill="white" stroke="#bfbfbf" points="1006,-89.5 1006,-108.5 1056,-108.5 1056,-89.5 1006,-89.5"/>
<text text-anchor="middle" x="1031" y="-96.5" font-family="Helvetica,sans-Serif" font-size="10.00">ranges</text>
</a>
</g>
</g>
<!-- Node1&#45;&gt;Node15 -->
<g id="edge20" class="edge">
<title>Node1&#45;&gt;Node15</title>
<path fill="none" stroke="midnightblue" d="M767.12,-162.49C824.83,-158.39 919.9,-147.71 997,-120 1001.47,-118.39 1006.02,-116.19 1010.27,-113.83"/>
<polygon fill="midnightblue" stroke="midnightblue" points="1012.2,-116.75 1018.96,-108.58 1008.59,-110.75 1012.2,-116.75"/>
</g>
<!-- Node16 -->
<g id="node16" class="node">
<title>Node16</title>
<g id="a_node16"><a xlink:title=" ">
<polygon fill="white" stroke="#bfbfbf" points="1074.5,-78.5 1074.5,-119.5 1189.5,-119.5 1189.5,-78.5 1074.5,-78.5"/>
<text text-anchor="start" x="1082.5" y="-107.5" font-family="Helvetica,sans-Serif" font-size="10.00">packages/structured</text>
<text text-anchor="start" x="1082.5" y="-96.5" font-family="Helvetica,sans-Serif" font-size="10.00">/impl/CartesianGrid</text>
<text text-anchor="middle" x="1132" y="-85.5" font-family="Helvetica,sans-Serif" font-size="10.00">_impl.hpp</text>
</a>
</g>
</g>
<!-- Node1&#45;&gt;Node16 -->
<g id="edge21" class="edge">
<title>Node1&#45;&gt;Node16</title>
<path fill="none" stroke="midnightblue" d="M767.04,-160.97C833.78,-155.2 953.17,-142.93 1064.37,-119.95"/>
<polygon fill="midnightblue" stroke="midnightblue" points="1065.34,-123.32 1074.41,-117.84 1063.9,-116.47 1065.34,-123.32"/>
</g>
<!-- Node2&#45;&gt;Node3 -->
<g id="edge2" class="edge">
<title>Node2&#45;&gt;Node3</title>
<path fill="none" stroke="midnightblue" d="M525.11,-93.38C427.86,-86.75 260.12,-71.89 119,-42 114.65,-41.08 110.18,-39.99 105.72,-38.8"/>
<polygon fill="midnightblue" stroke="midnightblue" points="106.59,-35.41 96.01,-36.07 104.69,-42.15 106.59,-35.41"/>
</g>
<!-- Node2&#45;&gt;Node4 -->
<g id="edge3" class="edge">
<title>Node2&#45;&gt;Node4</title>
<path fill="none" stroke="midnightblue" d="M525.24,-86.8C456.71,-76.77 355.96,-60.77 269,-42 264.02,-40.93 258.88,-39.73 253.73,-38.48"/>
<polygon fill="midnightblue" stroke="midnightblue" points="254.41,-35.04 243.86,-36.01 252.72,-41.83 254.41,-35.04"/>
</g>
<!-- Node5 -->
<g id="node5" class="node">
<title>Node5</title>
<g id="a_node5"><a target="_parent" xlink:href="../../../cieutils/docs/html/DynamicArray_8hpp.html.html" xlink:title=" ">
<polygon fill="white" stroke="black" points="813.5,-6 813.5,-36 944.5,-36 944.5,-6 813.5,-6"/>
<text text-anchor="start" x="821.5" y="-24" font-family="Helvetica,sans-Serif" font-size="10.00">packages/stl_extension</text>
<text text-anchor="middle" x="879" y="-13" font-family="Helvetica,sans-Serif" font-size="10.00">/inc/DynamicArray.hpp</text>
</a>
</g>
</g>
<!-- Node2&#45;&gt;Node5 -->
<g id="edge4" class="edge">
<title>Node2&#45;&gt;Node5</title>
<path fill="none" stroke="midnightblue" d="M656.39,-83.97C702.23,-71.21 769.96,-52.36 818.66,-38.8"/>
<polygon fill="midnightblue" stroke="midnightblue" points="819.75,-42.13 828.44,-36.07 817.87,-35.39 819.75,-42.13"/>
</g>
<!-- Node2&#45;&gt;Node6 -->
<g id="edge5" class="edge">
<title>Node2&#45;&gt;Node6</title>
<path fill="none" stroke="midnightblue" d="M557.64,-83.97C519.15,-72.81 464.57,-56.98 420.22,-44.11"/>
<polygon fill="midnightblue" stroke="midnightblue" points="420.92,-40.67 410.34,-41.24 418.97,-47.39 420.92,-40.67"/>
</g>
<!-- Node2&#45;&gt;Node7 -->
<g id="edge6" class="edge">
<title>Node2&#45;&gt;Node7</title>
<path fill="none" stroke="midnightblue" d="M585.2,-83.88C570.19,-73.7 549.52,-59.67 531.65,-47.55"/>
<polygon fill="midnightblue" stroke="midnightblue" points="533.38,-44.49 523.14,-41.77 529.45,-50.28 533.38,-44.49"/>
</g>
<!-- Node2&#45;&gt;Node8 -->
<g id="edge7" class="edge">
<title>Node2&#45;&gt;Node8</title>
<path fill="none" stroke="midnightblue" d="M668.44,-83.98C679.26,-81.8 690.43,-79.71 701,-78 841.42,-55.32 879.82,-71.35 1019,-42 1023.35,-41.08 1027.82,-40 1032.28,-38.81"/>
<polygon fill="midnightblue" stroke="midnightblue" points="1033.31,-42.16 1041.99,-36.08 1031.42,-35.42 1033.31,-42.16"/>
</g>
<!-- Node2&#45;&gt;Node9 -->
<g id="edge8" class="edge">
<title>Node2&#45;&gt;Node9</title>
<path fill="none" stroke="midnightblue" d="M686.78,-85.04C703.99,-82.51 722.07,-80.02 739,-78 919.76,-56.46 968.07,-75.5 1147,-42 1152.01,-41.06 1157.17,-39.92 1162.31,-38.65"/>
<polygon fill="midnightblue" stroke="midnightblue" points="1163.34,-42 1172.14,-36.09 1161.58,-35.23 1163.34,-42"/>
</g>
<!-- Node10 -->
<g id="node10" class="node">
<title>Node10</title>
<g id="a_node10"><a xlink:title=" ">
<polygon fill="white" stroke="#bfbfbf" points="962.5,-11.5 962.5,-30.5 1009.5,-30.5 1009.5,-11.5 962.5,-11.5"/>
<text text-anchor="middle" x="986" y="-18.5" font-family="Helvetica,sans-Serif" font-size="10.00">vector</text>
</a>
</g>
</g>
<!-- Node2&#45;&gt;Node10 -->
<g id="edge9" class="edge">
<title>Node2&#45;&gt;Node10</title>
<path fill="none" stroke="midnightblue" d="M669.76,-83.97C680.18,-81.85 690.87,-79.78 701,-78 812.85,-58.29 847.31,-80.94 954,-42 958.15,-40.48 962.34,-38.38 966.26,-36.1"/>
<polygon fill="midnightblue" stroke="midnightblue" points="968.22,-38.99 974.75,-30.65 964.45,-33.1 968.22,-38.99"/>
</g>
<!-- Node11 -->
<g id="node11" class="node">
<title>Node11</title>
<g id="a_node11"><a xlink:title=" ">
<polygon fill="white" stroke="#bfbfbf" points="578,-11.5 578,-30.5 636,-30.5 636,-11.5 578,-11.5"/>
<text text-anchor="middle" x="607" y="-18.5" font-family="Helvetica,sans-Serif" font-size="10.00">memory</text>
</a>
</g>
</g>
<!-- Node2&#45;&gt;Node11 -->
<g id="edge10" class="edge">
<title>Node2&#45;&gt;Node11</title>
<path fill="none" stroke="midnightblue" d="M606.19,-83.7C606.35,-71.6 606.58,-54.15 606.75,-40.89"/>
<polygon fill="midnightblue" stroke="midnightblue" points="610.26,-40.61 606.89,-30.56 603.26,-40.52 610.26,-40.61"/>
</g>
<!-- Node12 -->
<g id="node12" class="node">
<title>Node12</title>
<g id="a_node12"><a xlink:title=" ">
<polygon fill="white" stroke="#bfbfbf" points="654.5,-0.5 654.5,-41.5 795.5,-41.5 795.5,-0.5 654.5,-0.5"/>
<text text-anchor="start" x="662.5" y="-29.5" font-family="Helvetica,sans-Serif" font-size="10.00">packages/trees/impl</text>
<text text-anchor="start" x="662.5" y="-18.5" font-family="Helvetica,sans-Serif" font-size="10.00">/CartesianIndexConverter</text>
<text text-anchor="middle" x="725" y="-7.5" font-family="Helvetica,sans-Serif" font-size="10.00">_impl.hpp</text>
</a>
</g>
</g>
<!-- Node2&#45;&gt;Node12 -->
<g id="edge11" class="edge">
<title>Node2&#45;&gt;Node12</title>
<path fill="none" stroke="midnightblue" d="M628.1,-83.88C644.19,-73.61 666.41,-59.42 685.52,-47.22"/>
<polygon fill="midnightblue" stroke="midnightblue" points="687.5,-50.1 694.04,-41.77 683.73,-44.2 687.5,-50.1"/>
</g>
</g>
</svg>
