<?xml version="1.0" encoding="UTF-8" standalone="no"?>
<!DOCTYPE svg PUBLIC "-//W3C//DTD SVG 1.1//EN"
 "http://www.w3.org/Graphics/SVG/1.1/DTD/svg11.dtd">
<!-- Generated by graphviz version 2.43.0 (0)
 -->
<!-- Title: CartesianIndexConverter.hpp Pages: 1 -->
<!--zoomable 106 -->
<svg id="main" version="1.1" xmlns="http://www.w3.org/2000/svg" xmlns:xlink="http://www.w3.org/1999/xlink" xml:space="preserve" onload="init(evt)">
<style type="text/css"><![CDATA[
.edge:hover path { stroke: red; }
.edge:hover polygon { stroke: red; fill: red; }
]]></style>
<script type="text/javascript"><![CDATA[
var edges = document.getElementsByTagName('g');
if (edges && edges.length) {
  for (var i=0;i<edges.length;i++) {
    if (edges[i].id.substr(0,4)=='edge') {
      edges[i].setAttribute('class','edge');
    }
  }
}
]]></script>
        <defs>
                <circle id="rim" cx="0" cy="0" r="7"/>
                <circle id="rim2" cx="0" cy="0" r="3.5"/>
                <g id="zoomPlus">
                        <use xlink:href="#rim" fill="#404040">
                                <set attributeName="fill" to="#808080" begin="zoomplus.mouseover" end="zoomplus.mouseout"/>
                        </use>
                        <path d="M-4,0h8M0,-4v8" fill="none" stroke="white" stroke-width="1.5" pointer-events="none"/>
                </g>
                <g id="zoomMin">
                        <use xlink:href="#rim" fill="#404040">
                                <set attributeName="fill" to="#808080" begin="zoomminus.mouseover" end="zoomminus.mouseout"/>
                        </use>
                        <path d="M-4,0h8" fill="none" stroke="white" stroke-width="1.5" pointer-events="none"/>
                </g>
                <g id="dirArrow">
                        <path fill="none" stroke="white" stroke-width="1.5" d="M0,-3.0v7 M-2.5,-0.5L0,-3.0L2.5,-0.5"/>
                </g>
               <g id="resetDef">
                       <use xlink:href="#rim2" fill="#404040">
                               <set attributeName="fill" to="#808080" begin="reset.mouseover" end="reset.mouseout"/>
                       </use>
               </g>
        </defs>

<script type="text/javascript">
var viewWidth = 1284;
var viewHeight = 106;
var sectionId = 'dynsection-0';
</script>
<script xlink:href="svgpan.js"/>
<svg id="graph" class="graph">
<g id="viewport">
<title>CartesianIndexConverter.hpp</title>
<polygon fill="white" stroke="transparent" points="-4,4 -4,-102 1279.5,-102 1279.5,4 -4,4"/>
<!-- Node1 -->
<g id="node1" class="node">
<title>Node1</title>
<g id="a_node1"><a xlink:title=" ">
<polygon fill="#bfbfbf" stroke="black" points="633,-78.5 633,-97.5 791,-97.5 791,-78.5 633,-78.5"/>
<text text-anchor="middle" x="712" y="-85.5" font-family="Helvetica,sans-Serif" font-size="10.00">CartesianIndexConverter.hpp</text>
</a>
</g>
</g>
<!-- Node2 -->
<g id="node2" class="node">
<title>Node2</title>
<g id="a_node2"><a target="_parent" xlink:href="../../../cieutils/docs/html/types_8hpp.html.html" xlink:title=" ">
<polygon fill="white" stroke="black" points="0,-6 0,-36 110,-36 110,-6 0,-6"/>
<text text-anchor="start" x="8" y="-24" font-family="Helvetica,sans-Serif" font-size="10.00">packages/types/inc</text>
<text text-anchor="middle" x="55" y="-13" font-family="Helvetica,sans-Serif" font-size="10.00">/types.hpp</text>
</a>
</g>
</g>
<!-- Node1&#45;&gt;Node2 -->
<g id="edge1" class="edge">
<title>Node1&#45;&gt;Node2</title>
<path fill="none" stroke="midnightblue" d="M632.59,-86.67C518.11,-84.92 300.51,-76.78 119,-42 114.32,-41.1 109.49,-39.98 104.69,-38.73"/>
<polygon fill="midnightblue" stroke="midnightblue" points="105.5,-35.32 94.93,-36 103.62,-42.06 105.5,-35.32"/>
</g>
<!-- Node3 -->
<g id="node3" class="node">
<title>Node3</title>
<g id="a_node3"><a target="_parent" xlink:href="../../../cieutils/docs/html/StaticArray_8hpp.html.html" xlink:title=" ">
<polygon fill="white" stroke="black" points="128.5,-6 128.5,-36 259.5,-36 259.5,-6 128.5,-6"/>
<text text-anchor="start" x="136.5" y="-24" font-family="Helvetica,sans-Serif" font-size="10.00">packages/stl_extension</text>
<text text-anchor="middle" x="194" y="-13" font-family="Helvetica,sans-Serif" font-size="10.00">/inc/StaticArray.hpp</text>
</a>
</g>
</g>
<!-- Node1&#45;&gt;Node3 -->
<g id="edge2" class="edge">
<title>Node1&#45;&gt;Node3</title>
<path fill="none" stroke="midnightblue" d="M632.85,-82.88C543.62,-77.33 394.48,-65.34 268,-42 262.6,-41 257.02,-39.81 251.46,-38.51"/>
<polygon fill="midnightblue" stroke="midnightblue" points="252.05,-35.05 241.51,-36.06 250.38,-41.85 252.05,-35.05"/>
</g>
<!-- Node4 -->
<g id="node4" class="node">
<title>Node4</title>
<g id="a_node4"><a target="_parent" xlink:href="../../../cieutils/docs/html/DynamicArray_8hpp.html.html" xlink:title=" ">
<polygon fill="white" stroke="black" points="277.5,-6 277.5,-36 408.5,-36 408.5,-6 277.5,-6"/>
<text text-anchor="start" x="285.5" y="-24" font-family="Helvetica,sans-Serif" font-size="10.00">packages/stl_extension</text>
<text text-anchor="middle" x="343" y="-13" font-family="Helvetica,sans-Serif" font-size="10.00">/inc/DynamicArray.hpp</text>
</a>
</g>
</g>
<!-- Node1&#45;&gt;Node4 -->
<g id="edge3" class="edge">
<title>Node1&#45;&gt;Node4</title>
<path fill="none" stroke="midnightblue" d="M642.12,-78.48C582.31,-70.67 494.07,-57.91 418,-42 413.02,-40.96 407.87,-39.79 402.72,-38.55"/>
<polygon fill="midnightblue" stroke="midnightblue" points="403.39,-35.11 392.84,-36.1 401.71,-41.9 403.39,-35.11"/>
</g>
<!-- Node5 -->
<g id="node5" class="node">
<title>Node5</title>
<g id="a_node5"><a target="_parent" xlink:href="../../../cieutils/docs/html/basic__concepts_8hpp.html.html" xlink:title=" ">
<polygon fill="white" stroke="black" points="427,-0.5 427,-41.5 559,-41.5 559,-0.5 427,-0.5"/>
<text text-anchor="start" x="435" y="-29.5" font-family="Helvetica,sans-Serif" font-size="10.00">packages/compile_time</text>
<text text-anchor="start" x="435" y="-18.5" font-family="Helvetica,sans-Serif" font-size="10.00">/packages/concepts/inc</text>
<text text-anchor="middle" x="493" y="-7.5" font-family="Helvetica,sans-Serif" font-size="10.00">/basic_concepts.hpp</text>
</a>
</g>
</g>
<!-- Node1&#45;&gt;Node5 -->
<g id="edge4" class="edge">
<title>Node1&#45;&gt;Node5</title>
<path fill="none" stroke="midnightblue" d="M682.92,-78.37C653.96,-69.77 608.27,-56.21 568.96,-44.55"/>
<polygon fill="midnightblue" stroke="midnightblue" points="569.71,-41.12 559.12,-41.63 567.71,-47.83 569.71,-41.12"/>
</g>
<!-- Node6 -->
<g id="node6" class="node">
<title>Node6</title>
<g id="a_node6"><a target="_parent" xlink:href="../../../cieutils/docs/html/iterator__concepts_8hpp.html.html" xlink:title=" ">
<polygon fill="white" stroke="black" points="577,-0.5 577,-41.5 709,-41.5 709,-0.5 577,-0.5"/>
<text text-anchor="start" x="585" y="-29.5" font-family="Helvetica,sans-Serif" font-size="10.00">packages/compile_time</text>
<text text-anchor="start" x="585" y="-18.5" font-family="Helvetica,sans-Serif" font-size="10.00">/packages/concepts/inc</text>
<text text-anchor="middle" x="643" y="-7.5" font-family="Helvetica,sans-Serif" font-size="10.00">/iterator_concepts.hpp</text>
</a>
</g>
</g>
<!-- Node1&#45;&gt;Node6 -->
<g id="edge5" class="edge">
<title>Node1&#45;&gt;Node6</title>
<path fill="none" stroke="midnightblue" d="M702.69,-78.23C694.62,-70.63 682.51,-59.22 671.3,-48.66"/>
<polygon fill="midnightblue" stroke="midnightblue" points="673.42,-45.85 663.74,-41.54 668.62,-50.95 673.42,-45.85"/>
</g>
<!-- Node7 -->
<g id="node7" class="node">
<title>Node7</title>
<g id="a_node7"><a target="_parent" xlink:href="../../../cieutils/docs/html/tags_8hpp.html.html" xlink:title=" ">
<polygon fill="white" stroke="black" points="727,-6 727,-36 837,-36 837,-6 727,-6"/>
<text text-anchor="start" x="735" y="-24" font-family="Helvetica,sans-Serif" font-size="10.00">packages/types/inc</text>
<text text-anchor="middle" x="782" y="-13" font-family="Helvetica,sans-Serif" font-size="10.00">/tags.hpp</text>
</a>
</g>
</g>
<!-- Node1&#45;&gt;Node7 -->
<g id="edge6" class="edge">
<title>Node1&#45;&gt;Node7</title>
<path fill="none" stroke="midnightblue" d="M721.44,-78.23C731.08,-69.28 746.42,-55.04 759.24,-43.13"/>
<polygon fill="midnightblue" stroke="midnightblue" points="761.88,-45.46 766.83,-36.09 757.12,-40.33 761.88,-45.46"/>
</g>
<!-- Node8 -->
<g id="node8" class="node">
<title>Node8</title>
<g id="a_node8"><a target="_parent" xlink:href="../../../cieutils/docs/html/typedefs_8hpp.html.html" xlink:title=" ">
<polygon fill="white" stroke="black" points="855.5,-6 855.5,-36 974.5,-36 974.5,-6 855.5,-6"/>
<text text-anchor="start" x="863.5" y="-24" font-family="Helvetica,sans-Serif" font-size="10.00">packages/macros/inc</text>
<text text-anchor="middle" x="915" y="-13" font-family="Helvetica,sans-Serif" font-size="10.00">/typedefs.hpp</text>
</a>
</g>
</g>
<!-- Node1&#45;&gt;Node8 -->
<g id="edge7" class="edge">
<title>Node1&#45;&gt;Node8</title>
<path fill="none" stroke="midnightblue" d="M738.96,-78.37C770.08,-68.4 822.03,-51.77 861.46,-39.14"/>
<polygon fill="midnightblue" stroke="midnightblue" points="862.73,-42.41 871.19,-36.03 860.6,-35.74 862.73,-42.41"/>
</g>
<!-- Node9 -->
<g id="node9" class="node">
<title>Node9</title>
<g id="a_node9"><a xlink:title=" ">
<polygon fill="white" stroke="#bfbfbf" points="992.5,-11.5 992.5,-30.5 1039.5,-30.5 1039.5,-11.5 992.5,-11.5"/>
<text text-anchor="middle" x="1016" y="-18.5" font-family="Helvetica,sans-Serif" font-size="10.00">vector</text>
</a>
</g>
</g>
<!-- Node1&#45;&gt;Node9 -->
<g id="edge8" class="edge">
<title>Node1&#45;&gt;Node9</title>
<path fill="none" stroke="midnightblue" d="M791.21,-82.16C846.65,-76.8 921.65,-65.56 984,-42 988.14,-40.44 992.32,-38.31 996.23,-36.02"/>
<polygon fill="midnightblue" stroke="midnightblue" points="998.19,-38.92 1004.73,-30.58 994.42,-33.02 998.19,-38.92"/>
</g>
<!-- Node10 -->
<g id="node10" class="node">
<title>Node10</title>
<g id="a_node10"><a xlink:title=" ">
<polygon fill="white" stroke="#bfbfbf" points="1058,-11.5 1058,-30.5 1116,-30.5 1116,-11.5 1058,-11.5"/>
<text text-anchor="middle" x="1087" y="-18.5" font-family="Helvetica,sans-Serif" font-size="10.00">memory</text>
</a>
</g>
</g>
<!-- Node1&#45;&gt;Node10 -->
<g id="edge9" class="edge">
<title>Node1&#45;&gt;Node10</title>
<path fill="none" stroke="midnightblue" d="M791.34,-84.25C860.74,-80.01 963.52,-69.25 1049,-42 1054.19,-40.34 1059.52,-38 1064.48,-35.5"/>
<polygon fill="midnightblue" stroke="midnightblue" points="1066.32,-38.49 1073.44,-30.64 1062.98,-32.33 1066.32,-38.49"/>
</g>
<!-- Node11 -->
<g id="node11" class="node">
<title>Node11</title>
<g id="a_node11"><a xlink:title=" ">
<polygon fill="white" stroke="#bfbfbf" points="1134.5,-0.5 1134.5,-41.5 1275.5,-41.5 1275.5,-0.5 1134.5,-0.5"/>
<text text-anchor="start" x="1142.5" y="-29.5" font-family="Helvetica,sans-Serif" font-size="10.00">packages/trees/impl</text>
<text text-anchor="start" x="1142.5" y="-18.5" font-family="Helvetica,sans-Serif" font-size="10.00">/CartesianIndexConverter</text>
<text text-anchor="middle" x="1205" y="-7.5" font-family="Helvetica,sans-Serif" font-size="10.00">_impl.hpp</text>
</a>
</g>
</g>
<!-- Node1&#45;&gt;Node11 -->
<g id="edge10" class="edge">
<title>Node1&#45;&gt;Node11</title>
<path fill="none" stroke="midnightblue" d="M791.25,-81.59C872.53,-75.32 1002.71,-63.24 1124.56,-41.94"/>
<polygon fill="midnightblue" stroke="midnightblue" points="1125.21,-45.38 1134.44,-40.19 1123.99,-38.49 1125.21,-45.38"/>
</g>
</g>
</svg>
        <g id="navigator" transform="translate(0 0)" fill="#404254">
                <rect fill="#f2f5e9" fill-opacity="0.5" stroke="#606060" stroke-width=".5" x="0" y="0" width="60" height="60"/>
                <use id="zoomplus" xlink:href="#zoomPlus" x="17" y="9" onmousedown="handleZoom(evt,'in')"/>
                <use id="zoomminus" xlink:href="#zoomMin" x="42" y="9" onmousedown="handleZoom(evt,'out')"/>
                <use id="reset" xlink:href="#resetDef" x="30" y="36" onmousedown="handleReset()"/>
                <g id="arrowUp" xlink:href="#dirArrow" transform="translate(30 24)" onmousedown="handlePan(0,-1)">
                  <use xlink:href="#rim" fill="#404040">
                        <set attributeName="fill" to="#808080" begin="arrowUp.mouseover" end="arrowUp.mouseout"/>
                  </use>
                  <path fill="none" stroke="white" stroke-width="1.5" d="M0,-3.0v7 M-2.5,-0.5L0,-3.0L2.5,-0.5"/>
                </g>
                <g id="arrowRight" xlink:href="#dirArrow" transform="rotate(90) translate(36 -43)" onmousedown="handlePan(1,0)">
                  <use xlink:href="#rim" fill="#404040">
                        <set attributeName="fill" to="#808080" begin="arrowRight.mouseover" end="arrowRight.mouseout"/>
                  </use>
                  <path fill="none" stroke="white" stroke-width="1.5" d="M0,-3.0v7 M-2.5,-0.5L0,-3.0L2.5,-0.5"/>
                </g>
                <g id="arrowDown" xlink:href="#dirArrow" transform="rotate(180) translate(-30 -48)" onmousedown="handlePan(0,1)">
                  <use xlink:href="#rim" fill="#404040">
                        <set attributeName="fill" to="#808080" begin="arrowDown.mouseover" end="arrowDown.mouseout"/>
                  </use>
                  <path fill="none" stroke="white" stroke-width="1.5" d="M0,-3.0v7 M-2.5,-0.5L0,-3.0L2.5,-0.5"/>
                </g>
                <g id="arrowLeft" xlink:href="#dirArrow" transform="rotate(270) translate(-36 17)" onmousedown="handlePan(-1,0)">
                  <use xlink:href="#rim" fill="#404040">
                        <set attributeName="fill" to="#808080" begin="arrowLeft.mouseover" end="arrowLeft.mouseout"/>
                  </use>
                  <path fill="none" stroke="white" stroke-width="1.5" d="M0,-3.0v7 M-2.5,-0.5L0,-3.0L2.5,-0.5"/>
                </g>
        </g>
        <svg viewBox="0 0 15 15" width="100%" height="30px" preserveAspectRatio="xMaxYMin meet">
         <g id="arrow_out" transform="scale(0.3 0.3)">
          <a xlink:href="CartesianIndexConverter_8hpp__incl_org.svg" target="_base">
           <rect id="button" ry="5" rx="5" y="6" x="6" height="38" width="38"
                fill="#f2f5e9" fill-opacity="0.5" stroke="#606060" stroke-width="1.0"/>
           <path id="arrow"
             d="M 11.500037,31.436501 C 11.940474,20.09759 22.043105,11.32322 32.158766,21.979434 L 37.068811,17.246167 C 37.068811,17.246167 37.088388,32 37.088388,32 L 22.160133,31.978069 C 22.160133,31.978069 26.997745,27.140456 26.997745,27.140456 C 18.528582,18.264221 13.291696,25.230495 11.500037,31.436501 z"
             style="fill:#404040;"/>
          </a>
         </g>
        </svg>
</svg>
