<?xml version="1.0" encoding="UTF-8" standalone="no"?>
<!DOCTYPE svg PUBLIC "-//W3C//DTD SVG 1.1//EN"
 "http://www.w3.org/Graphics/SVG/1.1/DTD/svg11.dtd">
<!-- Generated by graphviz version 2.43.0 (0)
 -->
<!-- Title: Cell.hpp Pages: 1 -->
<svg width="1658pt" height="463pt"
 viewBox="0.00 0.00 1658.46 463.00" xmlns="http://www.w3.org/2000/svg" xmlns:xlink="http://www.w3.org/1999/xlink">
<g id="graph0" class="graph" transform="scale(1 1) rotate(0) translate(4 459)">
<title>Cell.hpp</title>
<polygon fill="white" stroke="transparent" points="-4,4 -4,-459 1654.46,-459 1654.46,4 -4,4"/>
<!-- Node1 -->
<g id="node1" class="node">
<title>Node1</title>
<g id="a_node1"><a xlink:title=" ">
<polygon fill="#bfbfbf" stroke="black" points="666.46,-435.5 666.46,-454.5 722.46,-454.5 722.46,-435.5 666.46,-435.5"/>
<text text-anchor="middle" x="694.46" y="-442.5" font-family="Helvetica,sans-Serif" font-size="10.00">Cell.hpp</text>
</a>
</g>
</g>
<!-- Node2 -->
<g id="node2" class="node">
<title>Node2</title>
<g id="a_node2"><a xlink:href="AbsCell_8hpp.html" target="_top" xlink:title=" ">
<polygon fill="white" stroke="black" points="798.96,-368.5 798.96,-398.5 905.96,-398.5 905.96,-368.5 798.96,-368.5"/>
<text text-anchor="start" x="806.96" y="-386.5" font-family="Helvetica,sans-Serif" font-size="10.00">packages/trees/inc</text>
<text text-anchor="middle" x="852.46" y="-375.5" font-family="Helvetica,sans-Serif" font-size="10.00">/AbsCell.hpp</text>
</a>
</g>
</g>
<!-- Node1&#45;&gt;Node2 -->
<g id="edge1" class="edge">
<title>Node1&#45;&gt;Node2</title>
<path fill="none" stroke="midnightblue" d="M717.1,-435.48C740.1,-426.81 776.39,-413.15 805.61,-402.14"/>
<polygon fill="midnightblue" stroke="midnightblue" points="807.1,-405.32 815.22,-398.52 804.63,-398.77 807.1,-405.32"/>
</g>
<!-- Node19 -->
<g id="node19" class="node">
<title>Node19</title>
<g id="a_node19"><a xlink:href="Cube_8hpp.html" target="_top" xlink:title=" ">
<polygon fill="white" stroke="black" points="426.96,-368.5 426.96,-398.5 541.96,-398.5 541.96,-368.5 426.96,-368.5"/>
<text text-anchor="start" x="434.96" y="-386.5" font-family="Helvetica,sans-Serif" font-size="10.00">packages/primitives</text>
<text text-anchor="middle" x="484.46" y="-375.5" font-family="Helvetica,sans-Serif" font-size="10.00">/inc/Cube.hpp</text>
</a>
</g>
</g>
<!-- Node1&#45;&gt;Node19 -->
<g id="edge26" class="edge">
<title>Node1&#45;&gt;Node19</title>
<path fill="none" stroke="midnightblue" d="M666.14,-435.98C634.9,-427.13 583.76,-412.64 543.68,-401.28"/>
<polygon fill="midnightblue" stroke="midnightblue" points="544.59,-397.9 534.01,-398.54 542.68,-404.63 544.59,-397.9"/>
</g>
<!-- Node22 -->
<g id="node22" class="node">
<title>Node22</title>
<g id="a_node22"><a xlink:href="Box_8hpp.html" target="_top" xlink:title=" ">
<polygon fill="white" stroke="black" points="154.96,-368.5 154.96,-398.5 269.96,-398.5 269.96,-368.5 154.96,-368.5"/>
<text text-anchor="start" x="162.96" y="-386.5" font-family="Helvetica,sans-Serif" font-size="10.00">packages/primitives</text>
<text text-anchor="middle" x="212.46" y="-375.5" font-family="Helvetica,sans-Serif" font-size="10.00">/inc/Box.hpp</text>
</a>
</g>
</g>
<!-- Node1&#45;&gt;Node22 -->
<g id="edge33" class="edge">
<title>Node1&#45;&gt;Node22</title>
<path fill="none" stroke="midnightblue" d="M666.11,-440.5C591.33,-431.27 387.18,-406.07 280.08,-392.85"/>
<polygon fill="midnightblue" stroke="midnightblue" points="280.38,-389.36 270.03,-391.61 279.52,-396.31 280.38,-389.36"/>
</g>
<!-- Node24 -->
<g id="node24" class="node">
<title>Node24</title>
<g id="a_node24"><a xlink:href="CartesianIndexConverter_8hpp.html" target="_top" xlink:title=" ">
<polygon fill="white" stroke="black" points="1214.96,-223.5 1214.96,-253.5 1375.96,-253.5 1375.96,-223.5 1214.96,-223.5"/>
<text text-anchor="start" x="1222.96" y="-241.5" font-family="Helvetica,sans-Serif" font-size="10.00">packages/trees/inc</text>
<text text-anchor="middle" x="1295.46" y="-230.5" font-family="Helvetica,sans-Serif" font-size="10.00">/CartesianIndexConverter.hpp</text>
</a>
</g>
</g>
<!-- Node1&#45;&gt;Node24 -->
<g id="edge40" class="edge">
<title>Node1&#45;&gt;Node24</title>
<path fill="none" stroke="midnightblue" d="M696.8,-435.43C704.63,-408.53 732.72,-325.47 789.46,-290 856.6,-248.02 1078.12,-240.08 1204.68,-239.08"/>
<polygon fill="midnightblue" stroke="midnightblue" points="1204.77,-242.58 1214.75,-239.02 1204.72,-235.58 1204.77,-242.58"/>
</g>
<!-- Node29 -->
<g id="node29" class="node">
<title>Node29</title>
<g id="a_node29"><a xlink:title=" ">
<polygon fill="white" stroke="#bfbfbf" points="923.96,-368.5 923.96,-398.5 1038.96,-398.5 1038.96,-368.5 923.96,-368.5"/>
<text text-anchor="start" x="931.96" y="-386.5" font-family="Helvetica,sans-Serif" font-size="10.00">packages/trees/impl</text>
<text text-anchor="middle" x="981.46" y="-375.5" font-family="Helvetica,sans-Serif" font-size="10.00">/Cell_impl.hpp</text>
</a>
</g>
</g>
<!-- Node1&#45;&gt;Node29 -->
<g id="edge51" class="edge">
<title>Node1&#45;&gt;Node29</title>
<path fill="none" stroke="midnightblue" d="M722.61,-438.35C762.67,-430.28 838.7,-414.89 913.64,-399.16"/>
<polygon fill="midnightblue" stroke="midnightblue" points="914.66,-402.52 923.72,-397.04 913.22,-395.67 914.66,-402.52"/>
</g>
<!-- Node3 -->
<g id="node3" class="node">
<title>Node3</title>
<g id="a_node3"><a xlink:href="Primitive_8hpp.html" target="_top" xlink:title=" ">
<polygon fill="white" stroke="black" points="555.96,-223.5 555.96,-253.5 670.96,-253.5 670.96,-223.5 555.96,-223.5"/>
<text text-anchor="start" x="563.96" y="-241.5" font-family="Helvetica,sans-Serif" font-size="10.00">packages/primitives</text>
<text text-anchor="middle" x="613.46" y="-230.5" font-family="Helvetica,sans-Serif" font-size="10.00">/inc/Primitive.hpp</text>
</a>
</g>
</g>
<!-- Node2&#45;&gt;Node3 -->
<g id="edge2" class="edge">
<title>Node2&#45;&gt;Node3</title>
<path fill="none" stroke="midnightblue" d="M823.95,-368.35C804.66,-358.57 778.73,-345.03 756.46,-332 715.98,-308.33 670.77,-278.48 642.23,-259.2"/>
<polygon fill="midnightblue" stroke="midnightblue" points="644.17,-256.29 633.93,-253.58 640.25,-262.08 644.17,-256.29"/>
</g>
<!-- Node4 -->
<g id="node4" class="node">
<title>Node4</title>
<g id="a_node4"><a target="_parent" xlink:href="../../../cieutils/docs/html/basic__concepts_8hpp.html.html" xlink:title=" ">
<polygon fill="white" stroke="black" points="646.46,-145.5 646.46,-186.5 778.46,-186.5 778.46,-145.5 646.46,-145.5"/>
<text text-anchor="start" x="654.46" y="-174.5" font-family="Helvetica,sans-Serif" font-size="10.00">packages/compile_time</text>
<text text-anchor="start" x="654.46" y="-163.5" font-family="Helvetica,sans-Serif" font-size="10.00">/packages/concepts/inc</text>
<text text-anchor="middle" x="712.46" y="-152.5" font-family="Helvetica,sans-Serif" font-size="10.00">/basic_concepts.hpp</text>
</a>
</g>
</g>
<!-- Node2&#45;&gt;Node4 -->
<g id="edge20" class="edge">
<title>Node2&#45;&gt;Node4</title>
<path fill="none" stroke="midnightblue" d="M830.18,-368.47C817.03,-359.33 800.8,-346.44 789.46,-332 756.31,-289.8 733.27,-231.02 721.5,-196.2"/>
<polygon fill="midnightblue" stroke="midnightblue" points="724.8,-195.03 718.35,-186.63 718.16,-197.22 724.8,-195.03"/>
</g>
<!-- Node8 -->
<g id="node8" class="node">
<title>Node8</title>
<g id="a_node8"><a target="_parent" xlink:href="../../../cieutils/docs/html/types_8hpp.html.html" xlink:title=" ">
<polygon fill="white" stroke="black" points="1195.46,-6 1195.46,-36 1305.46,-36 1305.46,-6 1195.46,-6"/>
<text text-anchor="start" x="1203.46" y="-24" font-family="Helvetica,sans-Serif" font-size="10.00">packages/types/inc</text>
<text text-anchor="middle" x="1250.46" y="-13" font-family="Helvetica,sans-Serif" font-size="10.00">/types.hpp</text>
</a>
</g>
</g>
<!-- Node2&#45;&gt;Node8 -->
<g id="edge22" class="edge">
<title>Node2&#45;&gt;Node8</title>
<path fill="none" stroke="midnightblue" d="M905.96,-369.56C909.17,-368.98 912.35,-368.45 915.46,-368 1165.32,-331.56 1240.02,-402.6 1482.46,-332 1564.3,-308.17 1650.46,-324.74 1650.46,-239.5 1650.46,-239.5 1650.46,-239.5 1650.46,-165 1650.46,-94.75 1428.96,-49.87 1315.62,-31.5"/>
<polygon fill="midnightblue" stroke="midnightblue" points="1316.08,-28.03 1305.66,-29.91 1314.98,-34.94 1316.08,-28.03"/>
</g>
<!-- Node12 -->
<g id="node12" class="node">
<title>Node12</title>
<g id="a_node12"><a xlink:title=" ">
<polygon fill="white" stroke="#bfbfbf" points="1422.46,-84 1422.46,-103 1480.46,-103 1480.46,-84 1422.46,-84"/>
<text text-anchor="middle" x="1451.46" y="-91" font-family="Helvetica,sans-Serif" font-size="10.00">memory</text>
</a>
</g>
</g>
<!-- Node2&#45;&gt;Node12 -->
<g id="edge23" class="edge">
<title>Node2&#45;&gt;Node12</title>
<path fill="none" stroke="midnightblue" d="M905.98,-369.69C909.18,-369.08 912.36,-368.51 915.46,-368 1223.22,-317.45 1424.92,-449.43 1593.46,-187 1603.55,-171.29 1604.22,-160.25 1593.46,-145 1570.45,-112.4 1524.47,-100.72 1491.04,-96.6"/>
<polygon fill="midnightblue" stroke="midnightblue" points="1490.99,-93.08 1480.68,-95.52 1490.26,-100.04 1490.99,-93.08"/>
</g>
<!-- Node14 -->
<g id="node14" class="node">
<title>Node14</title>
<g id="a_node14"><a xlink:href="primitives_2inc_2concepts_8hpp.html" target="_top" xlink:title=" ">
<polygon fill="white" stroke="black" points="512.96,-296 512.96,-326 627.96,-326 627.96,-296 512.96,-296"/>
<text text-anchor="start" x="520.96" y="-314" font-family="Helvetica,sans-Serif" font-size="10.00">packages/primitives</text>
<text text-anchor="middle" x="570.46" y="-303" font-family="Helvetica,sans-Serif" font-size="10.00">/inc/concepts.hpp</text>
</a>
</g>
</g>
<!-- Node2&#45;&gt;Node14 -->
<g id="edge16" class="edge">
<title>Node2&#45;&gt;Node14</title>
<path fill="none" stroke="midnightblue" d="M798.75,-369.07C752.71,-357.56 686.18,-340.93 636.81,-328.59"/>
<polygon fill="midnightblue" stroke="midnightblue" points="637.41,-325.13 626.86,-326.1 635.72,-331.92 637.41,-325.13"/>
</g>
<!-- Node15 -->
<g id="node15" class="node">
<title>Node15</title>
<g id="a_node15"><a target="_parent" xlink:href="../../../cieutils/docs/html/abstree_8hpp.html.html" xlink:title=" ">
<polygon fill="white" stroke="black" points="798.96,-296 798.96,-326 905.96,-326 905.96,-296 798.96,-296"/>
<text text-anchor="start" x="806.96" y="-314" font-family="Helvetica,sans-Serif" font-size="10.00">packages/trees/inc</text>
<text text-anchor="middle" x="852.46" y="-303" font-family="Helvetica,sans-Serif" font-size="10.00">/abstree.hpp</text>
</a>
</g>
</g>
<!-- Node2&#45;&gt;Node15 -->
<g id="edge19" class="edge">
<title>Node2&#45;&gt;Node15</title>
<path fill="none" stroke="midnightblue" d="M852.46,-368.23C852.46,-359.16 852.46,-347.16 852.46,-336.58"/>
<polygon fill="midnightblue" stroke="midnightblue" points="855.96,-336.25 852.46,-326.25 848.96,-336.25 855.96,-336.25"/>
</g>
<!-- Node16 -->
<g id="node16" class="node">
<title>Node16</title>
<g id="a_node16"><a target="_parent" xlink:href="../../../cieutils/docs/html/partial__specialization_8hpp.html.html" xlink:title=" ">
<polygon fill="white" stroke="black" points="923.96,-290.5 923.96,-331.5 1068.96,-331.5 1068.96,-290.5 923.96,-290.5"/>
<text text-anchor="start" x="931.96" y="-319.5" font-family="Helvetica,sans-Serif" font-size="10.00">packages/compile_time</text>
<text text-anchor="start" x="931.96" y="-308.5" font-family="Helvetica,sans-Serif" font-size="10.00">/packages/concepts/inc</text>
<text text-anchor="middle" x="996.46" y="-297.5" font-family="Helvetica,sans-Serif" font-size="10.00">/partial_specialization.hpp</text>
</a>
</g>
</g>
<!-- Node2&#45;&gt;Node16 -->
<g id="edge21" class="edge">
<title>Node2&#45;&gt;Node16</title>
<path fill="none" stroke="midnightblue" d="M881.25,-368.4C900.14,-359.16 925.32,-346.83 947.33,-336.05"/>
<polygon fill="midnightblue" stroke="midnightblue" points="949.09,-339.09 956.53,-331.55 946.01,-332.8 949.09,-339.09"/>
</g>
<!-- Node17 -->
<g id="node17" class="node">
<title>Node17</title>
<g id="a_node17"><a xlink:title=" ">
<polygon fill="white" stroke="#bfbfbf" points="1536.96,-156.5 1536.96,-175.5 1583.96,-175.5 1583.96,-156.5 1536.96,-156.5"/>
<text text-anchor="middle" x="1560.46" y="-163.5" font-family="Helvetica,sans-Serif" font-size="10.00">vector</text>
</a>
</g>
</g>
<!-- Node2&#45;&gt;Node17 -->
<g id="edge24" class="edge">
<title>Node2&#45;&gt;Node17</title>
<path fill="none" stroke="midnightblue" d="M906,-369.77C909.19,-369.14 912.36,-368.54 915.46,-368 1045.99,-345.11 1083.78,-367.5 1211.46,-332 1293.11,-309.3 1308.83,-290.2 1385.46,-254 1438.79,-228.8 1500.39,-197.71 1534.43,-180.35"/>
<polygon fill="midnightblue" stroke="midnightblue" points="1536.36,-183.29 1543.67,-175.62 1533.18,-177.06 1536.36,-183.29"/>
</g>
<!-- Node18 -->
<g id="node18" class="node">
<title>Node18</title>
<g id="a_node18"><a xlink:title=" ">
<polygon fill="white" stroke="#bfbfbf" points="1086.96,-296 1086.96,-326 1201.96,-326 1201.96,-296 1086.96,-296"/>
<text text-anchor="start" x="1094.96" y="-314" font-family="Helvetica,sans-Serif" font-size="10.00">packages/trees/impl</text>
<text text-anchor="middle" x="1144.46" y="-303" font-family="Helvetica,sans-Serif" font-size="10.00">/AbsCell_impl.hpp</text>
</a>
</g>
</g>
<!-- Node2&#45;&gt;Node18 -->
<g id="edge25" class="edge">
<title>Node2&#45;&gt;Node18</title>
<path fill="none" stroke="midnightblue" d="M906.07,-370.13C909.24,-369.4 912.39,-368.69 915.46,-368 987.83,-351.68 1006.68,-350.77 1078.46,-332 1082.26,-331.01 1086.17,-329.94 1090.1,-328.83"/>
<polygon fill="midnightblue" stroke="midnightblue" points="1091.22,-332.15 1099.86,-326.02 1089.28,-325.43 1091.22,-332.15"/>
</g>
<!-- Node3&#45;&gt;Node4 -->
<g id="edge3" class="edge">
<title>Node3&#45;&gt;Node4</title>
<path fill="none" stroke="midnightblue" d="M633.49,-223.23C645.87,-214.42 662.1,-202.86 676.64,-192.51"/>
<polygon fill="midnightblue" stroke="midnightblue" points="678.84,-195.24 684.95,-186.59 674.78,-189.54 678.84,-195.24"/>
</g>
<!-- Node5 -->
<g id="node5" class="node">
<title>Node5</title>
<g id="a_node5"><a xlink:href="Object_8hpp.html" target="_top" xlink:title=" ">
<polygon fill="white" stroke="black" points="512.96,-151 512.96,-181 627.96,-181 627.96,-151 512.96,-151"/>
<text text-anchor="start" x="520.96" y="-169" font-family="Helvetica,sans-Serif" font-size="10.00">packages/primitives</text>
<text text-anchor="middle" x="570.46" y="-158" font-family="Helvetica,sans-Serif" font-size="10.00">/inc/Object.hpp</text>
</a>
</g>
</g>
<!-- Node3&#45;&gt;Node5 -->
<g id="edge4" class="edge">
<title>Node3&#45;&gt;Node5</title>
<path fill="none" stroke="midnightblue" d="M604.76,-223.23C598.93,-213.68 591.13,-200.89 584.44,-189.92"/>
<polygon fill="midnightblue" stroke="midnightblue" points="587.34,-187.96 579.15,-181.25 581.37,-191.61 587.34,-187.96"/>
</g>
<!-- Node6 -->
<g id="node6" class="node">
<title>Node6</title>
<g id="a_node6"><a target="_parent" xlink:href="../../../cieutils/docs/html/container__concepts_8hpp.html.html" xlink:title=" ">
<polygon fill="white" stroke="black" points="280.96,-0.5 280.96,-41.5 415.96,-41.5 415.96,-0.5 280.96,-0.5"/>
<text text-anchor="start" x="288.96" y="-29.5" font-family="Helvetica,sans-Serif" font-size="10.00">packages/compile_time</text>
<text text-anchor="start" x="288.96" y="-18.5" font-family="Helvetica,sans-Serif" font-size="10.00">/packages/concepts/inc</text>
<text text-anchor="middle" x="348.46" y="-7.5" font-family="Helvetica,sans-Serif" font-size="10.00">/container_concepts.hpp</text>
</a>
</g>
</g>
<!-- Node5&#45;&gt;Node6 -->
<g id="edge5" class="edge">
<title>Node5&#45;&gt;Node6</title>
<path fill="none" stroke="midnightblue" d="M548.36,-150.77C510.86,-126.61 434.28,-77.28 387.55,-47.18"/>
<polygon fill="midnightblue" stroke="midnightblue" points="389.21,-44.08 378.91,-41.61 385.42,-49.97 389.21,-44.08"/>
</g>
<!-- Node7 -->
<g id="node7" class="node">
<title>Node7</title>
<g id="a_node7"><a target="_parent" xlink:href="../../../cieutils/docs/html/typedefs_8hpp.html.html" xlink:title=" ">
<polygon fill="white" stroke="black" points="1149.96,-78.5 1149.96,-108.5 1268.96,-108.5 1268.96,-78.5 1149.96,-78.5"/>
<text text-anchor="start" x="1157.96" y="-96.5" font-family="Helvetica,sans-Serif" font-size="10.00">packages/macros/inc</text>
<text text-anchor="middle" x="1209.46" y="-85.5" font-family="Helvetica,sans-Serif" font-size="10.00">/typedefs.hpp</text>
</a>
</g>
</g>
<!-- Node5&#45;&gt;Node7 -->
<g id="edge6" class="edge">
<title>Node5&#45;&gt;Node7</title>
<path fill="none" stroke="midnightblue" d="M612.67,-150.99C620.82,-148.69 629.35,-146.55 637.46,-145 685.64,-135.78 997.86,-110.89 1139.62,-99.87"/>
<polygon fill="midnightblue" stroke="midnightblue" points="1140.24,-103.33 1149.94,-99.07 1139.7,-96.35 1140.24,-103.33"/>
</g>
<!-- Node5&#45;&gt;Node8 -->
<g id="edge7" class="edge">
<title>Node5&#45;&gt;Node8</title>
<path fill="none" stroke="midnightblue" d="M615.35,-150.98C622.71,-148.86 630.27,-146.79 637.46,-145 741.5,-119.09 1050.02,-59.92 1185.47,-34.25"/>
<polygon fill="midnightblue" stroke="midnightblue" points="1186.13,-37.69 1195.3,-32.39 1184.83,-30.81 1186.13,-37.69"/>
</g>
<!-- Node9 -->
<g id="node9" class="node">
<title>Node9</title>
<g id="a_node9"><a xlink:href="Traits_8hpp.html" target="_top" xlink:title=" ">
<polygon fill="white" stroke="black" points="528.96,-78.5 528.96,-108.5 643.96,-108.5 643.96,-78.5 528.96,-78.5"/>
<text text-anchor="start" x="536.96" y="-96.5" font-family="Helvetica,sans-Serif" font-size="10.00">packages/primitives</text>
<text text-anchor="middle" x="586.46" y="-85.5" font-family="Helvetica,sans-Serif" font-size="10.00">/inc/Traits.hpp</text>
</a>
</g>
</g>
<!-- Node5&#45;&gt;Node9 -->
<g id="edge8" class="edge">
<title>Node5&#45;&gt;Node9</title>
<path fill="none" stroke="midnightblue" d="M573.7,-150.73C575.78,-141.56 578.54,-129.41 580.96,-118.74"/>
<polygon fill="midnightblue" stroke="midnightblue" points="584.43,-119.27 583.23,-108.75 577.6,-117.72 584.43,-119.27"/>
</g>
<!-- Node11 -->
<g id="node11" class="node">
<title>Node11</title>
<g id="a_node11"><a xlink:title=" ">
<polygon fill="white" stroke="#bfbfbf" points="460.46,-11.5 460.46,-30.5 502.46,-30.5 502.46,-11.5 460.46,-11.5"/>
<text text-anchor="middle" x="481.46" y="-18.5" font-family="Helvetica,sans-Serif" font-size="10.00">array</text>
</a>
</g>
</g>
<!-- Node5&#45;&gt;Node11 -->
<g id="edge14" class="edge">
<title>Node5&#45;&gt;Node11</title>
<path fill="none" stroke="midnightblue" d="M555.17,-150.9C544.2,-140.18 529.62,-124.67 519.46,-109 505.13,-86.91 493.89,-58.51 487.46,-40.28"/>
<polygon fill="midnightblue" stroke="midnightblue" points="490.71,-38.95 484.17,-30.62 484.08,-41.21 490.71,-38.95"/>
</g>
<!-- Node5&#45;&gt;Node12 -->
<g id="edge13" class="edge">
<title>Node5&#45;&gt;Node12</title>
<path fill="none" stroke="midnightblue" d="M611.91,-150.99C620.29,-148.62 629.09,-146.46 637.46,-145 918.53,-95.86 993.82,-128.92 1278.46,-109 1324.37,-105.79 1377.07,-101.25 1412.11,-98.11"/>
<polygon fill="midnightblue" stroke="midnightblue" points="1412.75,-101.56 1422.4,-97.18 1412.12,-94.59 1412.75,-101.56"/>
</g>
<!-- Node13 -->
<g id="node13" class="node">
<title>Node13</title>
<g id="a_node13"><a xlink:title=" ">
<polygon fill="white" stroke="#bfbfbf" points="662.46,-78.5 662.46,-108.5 786.46,-108.5 786.46,-78.5 662.46,-78.5"/>
<text text-anchor="start" x="670.46" y="-96.5" font-family="Helvetica,sans-Serif" font-size="10.00">packages/primitives</text>
<text text-anchor="middle" x="724.46" y="-85.5" font-family="Helvetica,sans-Serif" font-size="10.00">/impl/Object_impl.hpp</text>
</a>
</g>
</g>
<!-- Node5&#45;&gt;Node13 -->
<g id="edge15" class="edge">
<title>Node5&#45;&gt;Node13</title>
<path fill="none" stroke="midnightblue" d="M601.25,-150.9C625.17,-139.95 658.54,-124.68 684.51,-112.79"/>
<polygon fill="midnightblue" stroke="midnightblue" points="686.08,-115.92 693.72,-108.57 683.17,-109.55 686.08,-115.92"/>
</g>
<!-- Node9&#45;&gt;Node6 -->
<g id="edge10" class="edge">
<title>Node9&#45;&gt;Node6</title>
<path fill="none" stroke="midnightblue" d="M539.15,-78.49C506.43,-68.79 462.16,-55.68 424.52,-44.53"/>
<polygon fill="midnightblue" stroke="midnightblue" points="425.18,-41.08 414.6,-41.59 423.19,-47.79 425.18,-41.08"/>
</g>
<!-- Node9&#45;&gt;Node8 -->
<g id="edge9" class="edge">
<title>Node9&#45;&gt;Node8</title>
<path fill="none" stroke="midnightblue" d="M644.12,-79.56C647.27,-79 650.4,-78.47 653.46,-78 845.56,-48.31 1075.04,-32.14 1185.17,-25.56"/>
<polygon fill="midnightblue" stroke="midnightblue" points="1185.68,-29.04 1195.45,-24.95 1185.26,-22.05 1185.68,-29.04"/>
</g>
<!-- Node10 -->
<g id="node10" class="node">
<title>Node10</title>
<g id="a_node10"><a target="_parent" xlink:href="../../../cieutils/docs/html/StaticArray_8hpp.html.html" xlink:title=" ">
<polygon fill="white" stroke="black" points="661.96,-6 661.96,-36 792.96,-36 792.96,-6 661.96,-6"/>
<text text-anchor="start" x="669.96" y="-24" font-family="Helvetica,sans-Serif" font-size="10.00">packages/stl_extension</text>
<text text-anchor="middle" x="727.46" y="-13" font-family="Helvetica,sans-Serif" font-size="10.00">/inc/StaticArray.hpp</text>
</a>
</g>
</g>
<!-- Node9&#45;&gt;Node10 -->
<g id="edge11" class="edge">
<title>Node9&#45;&gt;Node10</title>
<path fill="none" stroke="midnightblue" d="M614.65,-78.4C636.36,-67.55 666.57,-52.45 690.26,-40.6"/>
<polygon fill="midnightblue" stroke="midnightblue" points="691.93,-43.68 699.31,-36.07 688.8,-37.41 691.93,-43.68"/>
</g>
<!-- Node9&#45;&gt;Node11 -->
<g id="edge12" class="edge">
<title>Node9&#45;&gt;Node11</title>
<path fill="none" stroke="midnightblue" d="M565.46,-78.4C547.24,-66.17 520.97,-48.53 502.68,-36.25"/>
<polygon fill="midnightblue" stroke="midnightblue" points="504.42,-33.2 494.17,-30.53 500.52,-39.01 504.42,-33.2"/>
</g>
<!-- Node14&#45;&gt;Node3 -->
<g id="edge18" class="edge">
<title>Node14&#45;&gt;Node3</title>
<path fill="none" stroke="midnightblue" d="M579.16,-295.73C584.99,-286.18 592.79,-273.39 599.48,-262.42"/>
<polygon fill="midnightblue" stroke="midnightblue" points="602.55,-264.11 604.77,-253.75 596.57,-260.46 602.55,-264.11"/>
</g>
<!-- Node14&#45;&gt;Node6 -->
<g id="edge17" class="edge">
<title>Node14&#45;&gt;Node6</title>
<path fill="none" stroke="midnightblue" d="M559.45,-295.72C524.61,-250.51 416.3,-110.02 369.91,-49.83"/>
<polygon fill="midnightblue" stroke="midnightblue" points="372.66,-47.67 363.79,-41.89 367.12,-51.94 372.66,-47.67"/>
</g>
<!-- Node19&#45;&gt;Node3 -->
<g id="edge28" class="edge">
<title>Node19&#45;&gt;Node3</title>
<path fill="none" stroke="midnightblue" d="M542.16,-379.33C575.54,-374.17 615.06,-361.65 636.46,-332 651.25,-311.49 640.19,-282.51 628.87,-262.48"/>
<polygon fill="midnightblue" stroke="midnightblue" points="631.74,-260.46 623.57,-253.7 625.75,-264.07 631.74,-260.46"/>
</g>
<!-- Node19&#45;&gt;Node6 -->
<g id="edge27" class="edge">
<title>Node19&#45;&gt;Node6</title>
<path fill="none" stroke="midnightblue" d="M426.59,-377.78C393.56,-372.03 353.97,-359.44 329.46,-332 301.5,-300.7 310.46,-281.47 310.46,-239.5 310.46,-239.5 310.46,-239.5 310.46,-165 310.46,-124.56 324.83,-79.77 335.9,-51.28"/>
<polygon fill="midnightblue" stroke="midnightblue" points="339.18,-52.51 339.65,-41.92 332.68,-49.9 339.18,-52.51"/>
</g>
<!-- Node19&#45;&gt;Node11 -->
<g id="edge31" class="edge">
<title>Node19&#45;&gt;Node11</title>
<path fill="none" stroke="midnightblue" d="M484.34,-368.37C483.87,-312.24 482.15,-105.01 481.62,-40.98"/>
<polygon fill="midnightblue" stroke="midnightblue" points="485.12,-40.73 481.53,-30.76 478.12,-40.79 485.12,-40.73"/>
</g>
<!-- Node19&#45;&gt;Node14 -->
<g id="edge29" class="edge">
<title>Node19&#45;&gt;Node14</title>
<path fill="none" stroke="midnightblue" d="M501.86,-368.23C514.42,-357.94 531.55,-343.9 545.55,-332.42"/>
<polygon fill="midnightblue" stroke="midnightblue" points="547.86,-335.05 553.37,-326 543.42,-329.64 547.86,-335.05"/>
</g>
<!-- Node20 -->
<g id="node20" class="node">
<title>Node20</title>
<g id="a_node20"><a xlink:title=" ">
<polygon fill="white" stroke="#bfbfbf" points="240.96,-301.5 240.96,-320.5 281.96,-320.5 281.96,-301.5 240.96,-301.5"/>
<text text-anchor="middle" x="261.46" y="-308.5" font-family="Helvetica,sans-Serif" font-size="10.00">tuple</text>
</a>
</g>
</g>
<!-- Node19&#45;&gt;Node20 -->
<g id="edge30" class="edge">
<title>Node19&#45;&gt;Node20</title>
<path fill="none" stroke="midnightblue" d="M426.85,-371.06C388.99,-362.57 338.8,-349.44 296.46,-332 292.12,-330.21 287.65,-327.99 283.42,-325.68"/>
<polygon fill="midnightblue" stroke="midnightblue" points="285.09,-322.6 274.68,-320.63 281.58,-328.66 285.09,-322.6"/>
</g>
<!-- Node21 -->
<g id="node21" class="node">
<title>Node21</title>
<g id="a_node21"><a xlink:title=" ">
<polygon fill="white" stroke="#bfbfbf" points="338.96,-296 338.96,-326 455.96,-326 455.96,-296 338.96,-296"/>
<text text-anchor="start" x="346.96" y="-314" font-family="Helvetica,sans-Serif" font-size="10.00">packages/primitives</text>
<text text-anchor="middle" x="397.46" y="-303" font-family="Helvetica,sans-Serif" font-size="10.00">/impl/Cube_impl.hpp</text>
</a>
</g>
</g>
<!-- Node19&#45;&gt;Node21 -->
<g id="edge32" class="edge">
<title>Node19&#45;&gt;Node21</title>
<path fill="none" stroke="midnightblue" d="M466.85,-368.23C454.15,-357.94 436.82,-343.9 422.66,-332.42"/>
<polygon fill="midnightblue" stroke="midnightblue" points="424.71,-329.58 414.74,-326 420.31,-335.02 424.71,-329.58"/>
</g>
<!-- Node22&#45;&gt;Node3 -->
<g id="edge35" class="edge">
<title>Node22&#45;&gt;Node3</title>
<path fill="none" stroke="midnightblue" d="M210.78,-368.2C209.24,-347.67 209.86,-310.11 231.46,-290 254.02,-268.99 442.2,-252.05 545.76,-244.21"/>
<polygon fill="midnightblue" stroke="midnightblue" points="546.1,-247.7 555.81,-243.46 545.58,-240.72 546.1,-247.7"/>
</g>
<!-- Node22&#45;&gt;Node6 -->
<g id="edge34" class="edge">
<title>Node22&#45;&gt;Node6</title>
<path fill="none" stroke="midnightblue" d="M154.78,-374.06C105.46,-365.66 39.66,-351.25 21.46,-332 -7.38,-301.51 2.46,-281.47 2.46,-239.5 2.46,-239.5 2.46,-239.5 2.46,-165 2.46,-107.29 168.96,-60.83 270.96,-37.79"/>
<polygon fill="midnightblue" stroke="midnightblue" points="271.93,-41.16 280.93,-35.56 270.4,-34.32 271.93,-41.16"/>
</g>
<!-- Node22&#45;&gt;Node11 -->
<g id="edge38" class="edge">
<title>Node22&#45;&gt;Node11</title>
<path fill="none" stroke="midnightblue" d="M208.24,-368.37C203.44,-349.64 197.57,-315.94 208.46,-290 260.56,-165.85 401.33,-70.27 457.67,-35.86"/>
<polygon fill="midnightblue" stroke="midnightblue" points="459.5,-38.85 466.27,-30.69 455.89,-32.85 459.5,-38.85"/>
</g>
<!-- Node22&#45;&gt;Node14 -->
<g id="edge36" class="edge">
<title>Node22&#45;&gt;Node14</title>
<path fill="none" stroke="midnightblue" d="M269.98,-371.17C333.43,-358.68 435.44,-338.59 502.71,-325.34"/>
<polygon fill="midnightblue" stroke="midnightblue" points="503.65,-328.72 512.79,-323.36 502.3,-321.86 503.65,-328.72"/>
</g>
<!-- Node22&#45;&gt;Node20 -->
<g id="edge37" class="edge">
<title>Node22&#45;&gt;Node20</title>
<path fill="none" stroke="midnightblue" d="M222.37,-368.23C230.22,-356.95 241.2,-341.15 249.52,-329.17"/>
<polygon fill="midnightblue" stroke="midnightblue" points="252.44,-331.1 255.28,-320.89 246.7,-327.11 252.44,-331.1"/>
</g>
<!-- Node23 -->
<g id="node23" class="node">
<title>Node23</title>
<g id="a_node23"><a xlink:title=" ">
<polygon fill="white" stroke="#bfbfbf" points="30.96,-296 30.96,-326 145.96,-326 145.96,-296 30.96,-296"/>
<text text-anchor="start" x="38.96" y="-314" font-family="Helvetica,sans-Serif" font-size="10.00">packages/primitives</text>
<text text-anchor="middle" x="88.46" y="-303" font-family="Helvetica,sans-Serif" font-size="10.00">/impl/Box_impl.hpp</text>
</a>
</g>
</g>
<!-- Node22&#45;&gt;Node23 -->
<g id="edge39" class="edge">
<title>Node22&#45;&gt;Node23</title>
<path fill="none" stroke="midnightblue" d="M187.66,-368.4C168.82,-357.69 142.71,-342.85 122.01,-331.07"/>
<polygon fill="midnightblue" stroke="midnightblue" points="123.63,-327.97 113.21,-326.07 120.17,-334.06 123.63,-327.97"/>
</g>
<!-- Node24&#45;&gt;Node4 -->
<g id="edge44" class="edge">
<title>Node24&#45;&gt;Node4</title>
<path fill="none" stroke="midnightblue" d="M1214.84,-233.51C1116.33,-227.74 944.58,-214.76 788.82,-187.1"/>
<polygon fill="midnightblue" stroke="midnightblue" points="789.04,-183.58 778.58,-185.25 787.8,-190.47 789.04,-183.58"/>
</g>
<!-- Node24&#45;&gt;Node7 -->
<g id="edge47" class="edge">
<title>Node24&#45;&gt;Node7</title>
<path fill="none" stroke="midnightblue" d="M1333.23,-223.47C1349.27,-215.41 1366.34,-203.54 1375.46,-187 1384.47,-170.65 1386.57,-160 1375.46,-145 1353.34,-115.15 1314.01,-102.34 1279.18,-97.08"/>
<polygon fill="midnightblue" stroke="midnightblue" points="1279.39,-93.58 1269.02,-95.74 1278.47,-100.52 1279.39,-93.58"/>
</g>
<!-- Node24&#45;&gt;Node8 -->
<g id="edge41" class="edge">
<title>Node24&#45;&gt;Node8</title>
<path fill="none" stroke="midnightblue" d="M1376.26,-230.27C1408.06,-223.56 1442.61,-210.86 1466.46,-187 1501.46,-151.98 1520.22,-116.8 1489.46,-78 1468.14,-51.11 1379.07,-35.89 1315.92,-28.3"/>
<polygon fill="midnightblue" stroke="midnightblue" points="1315.97,-24.78 1305.63,-27.1 1315.16,-31.74 1315.97,-24.78"/>
</g>
<!-- Node24&#45;&gt;Node10 -->
<g id="edge42" class="edge">
<title>Node24&#45;&gt;Node10</title>
<path fill="none" stroke="midnightblue" d="M1345.84,-223.42C1363.77,-215.71 1382.07,-204.12 1392.46,-187 1402.14,-171.04 1401.73,-161.2 1392.46,-145 1363.27,-93.99 1334.31,-96.28 1278.46,-78 1192.16,-49.75 933.25,-32.7 803.42,-25.7"/>
<polygon fill="midnightblue" stroke="midnightblue" points="803.34,-22.19 793.16,-25.16 802.96,-29.19 803.34,-22.19"/>
</g>
<!-- Node24&#45;&gt;Node12 -->
<g id="edge49" class="edge">
<title>Node24&#45;&gt;Node12</title>
<path fill="none" stroke="midnightblue" d="M1376.28,-228.7C1402.74,-221.63 1429.62,-209.1 1446.46,-187 1462.58,-165.84 1459.96,-133.42 1456.08,-113.11"/>
<polygon fill="midnightblue" stroke="midnightblue" points="1459.48,-112.25 1453.91,-103.23 1452.64,-113.75 1459.48,-112.25"/>
</g>
<!-- Node24&#45;&gt;Node17 -->
<g id="edge48" class="edge">
<title>Node24&#45;&gt;Node17</title>
<path fill="none" stroke="midnightblue" d="M1376,-224.97C1420.07,-216.78 1475.18,-204.35 1522.46,-187 1527.49,-185.15 1532.7,-182.77 1537.58,-180.29"/>
<polygon fill="midnightblue" stroke="midnightblue" points="1539.28,-183.34 1546.44,-175.53 1535.97,-177.18 1539.28,-183.34"/>
</g>
<!-- Node25 -->
<g id="node25" class="node">
<title>Node25</title>
<g id="a_node25"><a target="_parent" xlink:href="../../../cieutils/docs/html/DynamicArray_8hpp.html.html" xlink:title=" ">
<polygon fill="white" stroke="black" points="796.96,-151 796.96,-181 927.96,-181 927.96,-151 796.96,-151"/>
<text text-anchor="start" x="804.96" y="-169" font-family="Helvetica,sans-Serif" font-size="10.00">packages/stl_extension</text>
<text text-anchor="middle" x="862.46" y="-158" font-family="Helvetica,sans-Serif" font-size="10.00">/inc/DynamicArray.hpp</text>
</a>
</g>
</g>
<!-- Node24&#45;&gt;Node25 -->
<g id="edge43" class="edge">
<title>Node24&#45;&gt;Node25</title>
<path fill="none" stroke="midnightblue" d="M1214.65,-228.92C1141.78,-220.51 1031.88,-206.18 937.46,-187 932.39,-185.97 927.15,-184.8 921.91,-183.55"/>
<polygon fill="midnightblue" stroke="midnightblue" points="922.43,-180.08 911.88,-181.08 920.75,-186.87 922.43,-180.08"/>
</g>
<!-- Node26 -->
<g id="node26" class="node">
<title>Node26</title>
<g id="a_node26"><a target="_parent" xlink:href="../../../cieutils/docs/html/iterator__concepts_8hpp.html.html" xlink:title=" ">
<polygon fill="white" stroke="black" points="946.46,-145.5 946.46,-186.5 1078.46,-186.5 1078.46,-145.5 946.46,-145.5"/>
<text text-anchor="start" x="954.46" y="-174.5" font-family="Helvetica,sans-Serif" font-size="10.00">packages/compile_time</text>
<text text-anchor="start" x="954.46" y="-163.5" font-family="Helvetica,sans-Serif" font-size="10.00">/packages/concepts/inc</text>
<text text-anchor="middle" x="1012.46" y="-152.5" font-family="Helvetica,sans-Serif" font-size="10.00">/iterator_concepts.hpp</text>
</a>
</g>
</g>
<!-- Node24&#45;&gt;Node26 -->
<g id="edge45" class="edge">
<title>Node24&#45;&gt;Node26</title>
<path fill="none" stroke="midnightblue" d="M1236.2,-223.49C1196.89,-214.1 1143.92,-201.3 1088.67,-187.28"/>
<polygon fill="midnightblue" stroke="midnightblue" points="1089.25,-183.82 1078.69,-184.75 1087.52,-190.6 1089.25,-183.82"/>
</g>
<!-- Node27 -->
<g id="node27" class="node">
<title>Node27</title>
<g id="a_node27"><a target="_parent" xlink:href="../../../cieutils/docs/html/tags_8hpp.html.html" xlink:title=" ">
<polygon fill="white" stroke="black" points="1096.46,-151 1096.46,-181 1206.46,-181 1206.46,-151 1096.46,-151"/>
<text text-anchor="start" x="1104.46" y="-169" font-family="Helvetica,sans-Serif" font-size="10.00">packages/types/inc</text>
<text text-anchor="middle" x="1151.46" y="-158" font-family="Helvetica,sans-Serif" font-size="10.00">/tags.hpp</text>
</a>
</g>
</g>
<!-- Node24&#45;&gt;Node27 -->
<g id="edge46" class="edge">
<title>Node24&#45;&gt;Node27</title>
<path fill="none" stroke="midnightblue" d="M1266.66,-223.4C1244.49,-212.55 1213.65,-197.45 1189.45,-185.6"/>
<polygon fill="midnightblue" stroke="midnightblue" points="1190.72,-182.33 1180.2,-181.07 1187.65,-188.61 1190.72,-182.33"/>
</g>
<!-- Node28 -->
<g id="node28" class="node">
<title>Node28</title>
<g id="a_node28"><a xlink:title=" ">
<polygon fill="white" stroke="#bfbfbf" points="1224.96,-145.5 1224.96,-186.5 1365.96,-186.5 1365.96,-145.5 1224.96,-145.5"/>
<text text-anchor="start" x="1232.96" y="-174.5" font-family="Helvetica,sans-Serif" font-size="10.00">packages/trees/impl</text>
<text text-anchor="start" x="1232.96" y="-163.5" font-family="Helvetica,sans-Serif" font-size="10.00">/CartesianIndexConverter</text>
<text text-anchor="middle" x="1295.46" y="-152.5" font-family="Helvetica,sans-Serif" font-size="10.00">_impl.hpp</text>
</a>
</g>
</g>
<!-- Node24&#45;&gt;Node28 -->
<g id="edge50" class="edge">
<title>Node24&#45;&gt;Node28</title>
<path fill="none" stroke="midnightblue" d="M1295.46,-223.23C1295.46,-215.57 1295.46,-205.84 1295.46,-196.63"/>
<polygon fill="midnightblue" stroke="midnightblue" points="1298.96,-196.59 1295.46,-186.59 1291.96,-196.59 1298.96,-196.59"/>
</g>
</g>
</svg>
