<?xml version="1.0" encoding="UTF-8" standalone="no"?>
<!DOCTYPE svg PUBLIC "-//W3C//DTD SVG 1.1//EN"
 "http://www.w3.org/Graphics/SVG/1.1/DTD/svg11.dtd">
<!-- Generated by graphviz version 2.43.0 (0)
 -->
<!-- Title: cie::geo::AABBox&lt; Dimension, CoordinateType &gt; Pages: 1 -->
<svg width="700pt" height="1224pt"
 viewBox="0.00 0.00 700.00 1224.00" xmlns="http://www.w3.org/2000/svg" xmlns:xlink="http://www.w3.org/1999/xlink">
<g id="graph0" class="graph" transform="scale(1 1) rotate(0) translate(4 1220)">
<title>cie::geo::AABBox&lt; Dimension, CoordinateType &gt;</title>
<polygon fill="white" stroke="transparent" points="-4,4 -4,-1220 696,-1220 696,4 -4,4"/>
<!-- Node1 -->
<g id="node1" class="node">
<title>Node1</title>
<g id="a_node1"><a xlink:title=" ">
<polygon fill="#bfbfbf" stroke="black" points="169,-0.5 169,-134.5 336,-134.5 336,-0.5 169,-0.5"/>
<text text-anchor="start" x="177" y="-122.5" font-family="Helvetica,sans-Serif" font-size="10.00">cie::geo::AABBox&lt; Dimension,</text>
<text text-anchor="middle" x="252.5" y="-111.5" font-family="Helvetica,sans-Serif" font-size="10.00"> CoordinateType &gt;</text>
<polyline fill="none" stroke="black" points="169,-104.5 336,-104.5 "/>
<text text-anchor="middle" x="252.5" y="-92.5" font-family="Helvetica,sans-Serif" font-size="10.00"> </text>
<polyline fill="none" stroke="black" points="169,-85.5 336,-85.5 "/>
<text text-anchor="start" x="177" y="-73.5" font-family="Helvetica,sans-Serif" font-size="10.00">+ AABBox()</text>
<text text-anchor="start" x="177" y="-62.5" font-family="Helvetica,sans-Serif" font-size="10.00">+ AABBox()</text>
<text text-anchor="start" x="177" y="-51.5" font-family="Helvetica,sans-Serif" font-size="10.00">+ AABBox()</text>
<text text-anchor="start" x="177" y="-40.5" font-family="Helvetica,sans-Serif" font-size="10.00">+ operator=()</text>
<text text-anchor="start" x="177" y="-29.5" font-family="Helvetica,sans-Serif" font-size="10.00">+ contains()</text>
<text text-anchor="start" x="177" y="-18.5" font-family="Helvetica,sans-Serif" font-size="10.00">+ intersects()</text>
<text text-anchor="start" x="177" y="-7.5" font-family="Helvetica,sans-Serif" font-size="10.00">+ include()</text>
</a>
</g>
</g>
<!-- Node1&#45;&gt;Node1 -->
<g id="edge19" class="edge">
<title>Node1&#45;&gt;Node1</title>
<path fill="none" stroke="orange" d="M346.15,-72.68C351.08,-71.41 354,-69.68 354,-67.5 354,-64.1 346.89,-61.8 336.12,-60.6"/>
<polygon fill="orange" stroke="orange" points="345.39,-69.26 336.12,-74.4 346.57,-76.16 345.39,-69.26"/>
<text text-anchor="middle" x="434" y="-65" font-family="Helvetica,sans-Serif" font-size="10.00"> &lt; Dimension, CoordinateType &gt;</text>
</g>
<!-- Node1&#45;&gt;Node1 -->
<g id="edge20" class="edge">
<title>Node1&#45;&gt;Node1</title>
<path fill="none" stroke="orange" d="M346.32,-81.96C422.35,-85.82 514,-81 514,-67.5 514,-53.39 413.94,-48.76 336.19,-53.61"/>
<polygon fill="orange" stroke="orange" points="346.37,-78.46 336.19,-81.39 345.97,-85.45 346.37,-78.46"/>
<text text-anchor="middle" x="594" y="-65" font-family="Helvetica,sans-Serif" font-size="10.00"> &lt; Dimension, CoordinateType &gt;</text>
</g>
<!-- Node2 -->
<g id="node2" class="node">
<title>Node2</title>
<g id="a_node2"><a xlink:href="classcie_1_1geo_1_1boolean_1_1Box.html" target="_top" xlink:title=" ">
<polygon fill="white" stroke="black" points="177,-172.5 177,-262.5 328,-262.5 328,-172.5 177,-172.5"/>
<text text-anchor="start" x="185" y="-250.5" font-family="Helvetica,sans-Serif" font-size="10.00">cie::geo::boolean::</text>
<text text-anchor="middle" x="252.5" y="-239.5" font-family="Helvetica,sans-Serif" font-size="10.00">Box&lt; Dimension, Double &gt;</text>
<polyline fill="none" stroke="black" points="177,-232.5 328,-232.5 "/>
<text text-anchor="middle" x="252.5" y="-220.5" font-family="Helvetica,sans-Serif" font-size="10.00"> </text>
<polyline fill="none" stroke="black" points="177,-213.5 328,-213.5 "/>
<text text-anchor="start" x="185" y="-201.5" font-family="Helvetica,sans-Serif" font-size="10.00">+ Box()</text>
<text text-anchor="start" x="185" y="-190.5" font-family="Helvetica,sans-Serif" font-size="10.00">+ Box()</text>
<text text-anchor="start" x="185" y="-179.5" font-family="Helvetica,sans-Serif" font-size="10.00"># at()</text>
</a>
</g>
</g>
<!-- Node2&#45;&gt;Node1 -->
<g id="edge1" class="edge">
<title>Node2&#45;&gt;Node1</title>
<path fill="none" stroke="midnightblue" d="M252.5,-162.46C252.5,-153.38 252.5,-143.87 252.5,-134.53"/>
<polygon fill="none" stroke="midnightblue" points="249,-162.5 252.5,-172.5 256,-162.5 249,-162.5"/>
</g>
<!-- Node3 -->
<g id="node3" class="node">
<title>Node3</title>
<g id="a_node3"><a xlink:href="classcie_1_1geo_1_1Box.html" target="_top" xlink:title=" ">
<polygon fill="white" stroke="black" points="24.5,-449.5 24.5,-627.5 170.5,-627.5 170.5,-449.5 24.5,-449.5"/>
<text text-anchor="start" x="32.5" y="-615.5" font-family="Helvetica,sans-Serif" font-size="10.00">cie::geo::Box&lt; Dimension,</text>
<text text-anchor="middle" x="97.5" y="-604.5" font-family="Helvetica,sans-Serif" font-size="10.00"> CoordinateType &gt;</text>
<polyline fill="none" stroke="black" points="24.5,-597.5 170.5,-597.5 "/>
<text text-anchor="start" x="32.5" y="-585.5" font-family="Helvetica,sans-Serif" font-size="10.00"># _base</text>
<text text-anchor="start" x="32.5" y="-574.5" font-family="Helvetica,sans-Serif" font-size="10.00"># _lengths</text>
<polyline fill="none" stroke="black" points="24.5,-567.5 170.5,-567.5 "/>
<text text-anchor="start" x="32.5" y="-555.5" font-family="Helvetica,sans-Serif" font-size="10.00">+ Box()</text>
<text text-anchor="start" x="32.5" y="-544.5" font-family="Helvetica,sans-Serif" font-size="10.00">+ Box()</text>
<text text-anchor="start" x="32.5" y="-533.5" font-family="Helvetica,sans-Serif" font-size="10.00">+ Box()</text>
<text text-anchor="start" x="32.5" y="-522.5" font-family="Helvetica,sans-Serif" font-size="10.00">+ Box()</text>
<text text-anchor="start" x="32.5" y="-511.5" font-family="Helvetica,sans-Serif" font-size="10.00">+ operator=()</text>
<text text-anchor="start" x="32.5" y="-500.5" font-family="Helvetica,sans-Serif" font-size="10.00">+ isDegenerate()</text>
<text text-anchor="start" x="32.5" y="-489.5" font-family="Helvetica,sans-Serif" font-size="10.00">+ base()</text>
<text text-anchor="start" x="32.5" y="-478.5" font-family="Helvetica,sans-Serif" font-size="10.00">+ lengths()</text>
<text text-anchor="start" x="32.5" y="-467.5" font-family="Helvetica,sans-Serif" font-size="10.00">+ base()</text>
<text text-anchor="start" x="32.5" y="-456.5" font-family="Helvetica,sans-Serif" font-size="10.00">+ lengths()</text>
</a>
</g>
</g>
<!-- Node3&#45;&gt;Node2 -->
<g id="edge2" class="edge">
<title>Node3&#45;&gt;Node2</title>
<path fill="none" stroke="midnightblue" d="M115.52,-439.36C125.88,-397.62 141.53,-349.55 164.5,-310 174.35,-293.04 187.99,-276.81 201.59,-262.86"/>
<polygon fill="none" stroke="midnightblue" points="112.07,-438.73 113.13,-449.27 118.87,-440.37 112.07,-438.73"/>
</g>
<!-- Node12 -->
<g id="node12" class="node">
<title>Node12</title>
<g id="a_node12"><a xlink:href="classcie_1_1geo_1_1boolean_1_1Box.html" target="_top" xlink:title=" ">
<polygon fill="white" stroke="black" points="173.5,-310.5 173.5,-411.5 331.5,-411.5 331.5,-310.5 173.5,-310.5"/>
<text text-anchor="start" x="181.5" y="-399.5" font-family="Helvetica,sans-Serif" font-size="10.00">cie::geo::boolean::</text>
<text text-anchor="start" x="181.5" y="-388.5" font-family="Helvetica,sans-Serif" font-size="10.00">Box&lt; Dimension, Coordinate</text>
<text text-anchor="middle" x="252.5" y="-377.5" font-family="Helvetica,sans-Serif" font-size="10.00">Type &gt;</text>
<polyline fill="none" stroke="black" points="173.5,-370.5 331.5,-370.5 "/>
<text text-anchor="middle" x="252.5" y="-358.5" font-family="Helvetica,sans-Serif" font-size="10.00"> </text>
<polyline fill="none" stroke="black" points="173.5,-351.5 331.5,-351.5 "/>
<text text-anchor="start" x="181.5" y="-339.5" font-family="Helvetica,sans-Serif" font-size="10.00">+ Box()</text>
<text text-anchor="start" x="181.5" y="-328.5" font-family="Helvetica,sans-Serif" font-size="10.00">+ Box()</text>
<text text-anchor="start" x="181.5" y="-317.5" font-family="Helvetica,sans-Serif" font-size="10.00"># at()</text>
</a>
</g>
</g>
<!-- Node3&#45;&gt;Node12 -->
<g id="edge15" class="edge">
<title>Node3&#45;&gt;Node12</title>
<path fill="none" stroke="midnightblue" d="M177.4,-447.03C188.19,-434.82 198.91,-422.67 208.74,-411.55"/>
<polygon fill="none" stroke="midnightblue" points="174.68,-444.82 170.69,-454.63 179.93,-449.45 174.68,-444.82"/>
</g>
<!-- Node4 -->
<g id="node4" class="node">
<title>Node4</title>
<g id="a_node4"><a xlink:href="classcie_1_1geo_1_1AbsPrimitive.html" target="_top" xlink:title=" ">
<polygon fill="white" stroke="black" points="31.5,-703 31.5,-782 163.5,-782 163.5,-703 31.5,-703"/>
<text text-anchor="start" x="39.5" y="-770" font-family="Helvetica,sans-Serif" font-size="10.00">cie::geo::AbsPrimitive</text>
<text text-anchor="middle" x="97.5" y="-759" font-family="Helvetica,sans-Serif" font-size="10.00">&lt; Dimension, Double &gt;</text>
<polyline fill="none" stroke="black" points="31.5,-752 163.5,-752 "/>
<text text-anchor="middle" x="97.5" y="-740" font-family="Helvetica,sans-Serif" font-size="10.00"> </text>
<polyline fill="none" stroke="black" points="31.5,-733 163.5,-733 "/>
<text text-anchor="start" x="39.5" y="-721" font-family="Helvetica,sans-Serif" font-size="10.00">+ ~AbsPrimitive()</text>
<text text-anchor="start" x="39.5" y="-710" font-family="Helvetica,sans-Serif" font-size="10.00">+ isDegenerate()</text>
</a>
</g>
</g>
<!-- Node4&#45;&gt;Node3 -->
<g id="edge3" class="edge">
<title>Node4&#45;&gt;Node3</title>
<path fill="none" stroke="midnightblue" d="M97.5,-692.41C97.5,-672.92 97.5,-649.89 97.5,-627.7"/>
<polygon fill="none" stroke="midnightblue" points="94,-692.55 97.5,-702.55 101,-692.55 94,-692.55"/>
</g>
<!-- Node5 -->
<g id="node5" class="node">
<title>Node5</title>
<g id="a_node5"><a xlink:href="classcie_1_1geo_1_1Traits.html" target="_top" xlink:title=" ">
<polygon fill="white" stroke="black" points="144.5,-944.5 144.5,-1012.5 298.5,-1012.5 298.5,-944.5 144.5,-944.5"/>
<text text-anchor="start" x="152.5" y="-1000.5" font-family="Helvetica,sans-Serif" font-size="10.00">cie::geo::Traits&lt; Dimension,</text>
<text text-anchor="middle" x="221.5" y="-989.5" font-family="Helvetica,sans-Serif" font-size="10.00"> CoordinateType &gt;</text>
<polyline fill="none" stroke="black" points="144.5,-982.5 298.5,-982.5 "/>
<text text-anchor="start" x="152.5" y="-970.5" font-family="Helvetica,sans-Serif" font-size="10.00">+ Dimension</text>
<polyline fill="none" stroke="black" points="144.5,-963.5 298.5,-963.5 "/>
<text text-anchor="middle" x="221.5" y="-951.5" font-family="Helvetica,sans-Serif" font-size="10.00"> </text>
</a>
</g>
</g>
<!-- Node5&#45;&gt;Node4 -->
<g id="edge4" class="edge">
<title>Node5&#45;&gt;Node4</title>
<path fill="none" stroke="midnightblue" d="M227.08,-934.1C229.31,-899.93 227.46,-852.34 206.5,-817 196.31,-799.82 180.35,-785.8 163.76,-774.79"/>
<polygon fill="none" stroke="midnightblue" points="223.58,-934 226.27,-944.24 230.56,-934.55 223.58,-934"/>
</g>
<!-- Node6 -->
<g id="node6" class="node">
<title>Node6</title>
<g id="a_node6"><a xlink:href="classcie_1_1geo_1_1Traits.html" target="_top" xlink:title="Basic templated traits that every object has in GEO.">
<polygon fill="white" stroke="black" points="161.5,-1147.5 161.5,-1215.5 283.5,-1215.5 283.5,-1147.5 161.5,-1147.5"/>
<text text-anchor="start" x="169.5" y="-1203.5" font-family="Helvetica,sans-Serif" font-size="10.00">cie::geo::Traits&lt; Dim,</text>
<text text-anchor="middle" x="222.5" y="-1192.5" font-family="Helvetica,sans-Serif" font-size="10.00"> TCoordinate &gt;</text>
<polyline fill="none" stroke="black" points="161.5,-1185.5 283.5,-1185.5 "/>
<text text-anchor="start" x="169.5" y="-1173.5" font-family="Helvetica,sans-Serif" font-size="10.00">+ Dimension</text>
<polyline fill="none" stroke="black" points="161.5,-1166.5 283.5,-1166.5 "/>
<text text-anchor="middle" x="222.5" y="-1154.5" font-family="Helvetica,sans-Serif" font-size="10.00"> </text>
</a>
</g>
</g>
<!-- Node6&#45;&gt;Node5 -->
<g id="edge5" class="edge">
<title>Node6&#45;&gt;Node5</title>
<path fill="none" stroke="orange" d="M222.28,-1137.23C222.1,-1099.91 221.83,-1046.8 221.67,-1012.74"/>
<polygon fill="orange" stroke="orange" points="218.79,-1137.33 222.33,-1147.31 225.78,-1137.29 218.79,-1137.33"/>
<text text-anchor="middle" x="301.5" y="-1121" font-family="Helvetica,sans-Serif" font-size="10.00"> &lt; Dimension, CoordinateType &gt;</text>
</g>
<!-- Node8 -->
<g id="node8" class="node">
<title>Node8</title>
<g id="a_node8"><a xlink:href="classcie_1_1geo_1_1Traits.html" target="_top" xlink:title=" ">
<polygon fill="white" stroke="black" points="6.5,-1031.5 6.5,-1099.5 160.5,-1099.5 160.5,-1031.5 6.5,-1031.5"/>
<text text-anchor="start" x="14.5" y="-1087.5" font-family="Helvetica,sans-Serif" font-size="10.00">cie::geo::Traits&lt; Dimension,</text>
<text text-anchor="middle" x="83.5" y="-1076.5" font-family="Helvetica,sans-Serif" font-size="10.00"> Double &gt;</text>
<polyline fill="none" stroke="black" points="6.5,-1069.5 160.5,-1069.5 "/>
<text text-anchor="start" x="14.5" y="-1057.5" font-family="Helvetica,sans-Serif" font-size="10.00">+ Dimension</text>
<polyline fill="none" stroke="black" points="6.5,-1050.5 160.5,-1050.5 "/>
<text text-anchor="middle" x="83.5" y="-1038.5" font-family="Helvetica,sans-Serif" font-size="10.00"> </text>
</a>
</g>
</g>
<!-- Node6&#45;&gt;Node8 -->
<g id="edge8" class="edge">
<title>Node6&#45;&gt;Node8</title>
<path fill="none" stroke="orange" d="M151.26,-1171.75C124.89,-1164.67 97.53,-1151.91 81.5,-1129 75.59,-1120.55 74.34,-1109.76 75.11,-1099.54"/>
<polygon fill="orange" stroke="orange" points="150.76,-1175.23 161.3,-1174.2 152.41,-1168.43 150.76,-1175.23"/>
<text text-anchor="middle" x="141" y="-1121" font-family="Helvetica,sans-Serif" font-size="10.00"> &lt; Dimension, Double &gt;</text>
</g>
<!-- Node10 -->
<g id="node10" class="node">
<title>Node10</title>
<g id="a_node10"><a xlink:href="classcie_1_1geo_1_1Traits.html" target="_top" xlink:title=" ">
<polygon fill="white" stroke="black" points="343,-852 343,-920 452,-920 452,-852 343,-852"/>
<text text-anchor="start" x="351" y="-908" font-family="Helvetica,sans-Serif" font-size="10.00">cie::geo::Traits&lt; N,</text>
<text text-anchor="middle" x="397.5" y="-897" font-family="Helvetica,sans-Serif" font-size="10.00"> TCoordinate &gt;</text>
<polyline fill="none" stroke="black" points="343,-890 452,-890 "/>
<text text-anchor="start" x="351" y="-878" font-family="Helvetica,sans-Serif" font-size="10.00">+ Dimension</text>
<polyline fill="none" stroke="black" points="343,-871 452,-871 "/>
<text text-anchor="middle" x="397.5" y="-859" font-family="Helvetica,sans-Serif" font-size="10.00"> </text>
</a>
</g>
</g>
<!-- Node6&#45;&gt;Node10 -->
<g id="edge11" class="edge">
<title>Node6&#45;&gt;Node10</title>
<path fill="none" stroke="orange" d="M293.7,-1175.64C326.26,-1169.51 362.23,-1156.43 383.5,-1129 430.56,-1068.3 417.64,-971.16 406.34,-920.38"/>
<polygon fill="orange" stroke="orange" points="293,-1172.21 283.72,-1177.33 294.17,-1179.11 293,-1172.21"/>
<text text-anchor="middle" x="464.5" y="-1063" font-family="Helvetica,sans-Serif" font-size="10.00"> &lt; N, TCoordinate &gt;</text>
</g>
<!-- Node7 -->
<g id="node7" class="node">
<title>Node7</title>
<g id="a_node7"><a xlink:href="classcie_1_1geo_1_1AbsPrimitive.html" target="_top" xlink:title=" ">
<polygon fill="white" stroke="black" points="0,-846.5 0,-925.5 173,-925.5 173,-846.5 0,-846.5"/>
<text text-anchor="start" x="8" y="-913.5" font-family="Helvetica,sans-Serif" font-size="10.00">cie::geo::AbsPrimitive</text>
<text text-anchor="middle" x="86.5" y="-902.5" font-family="Helvetica,sans-Serif" font-size="10.00">&lt; Dimension, CoordinateType &gt;</text>
<polyline fill="none" stroke="black" points="0,-895.5 173,-895.5 "/>
<text text-anchor="middle" x="86.5" y="-883.5" font-family="Helvetica,sans-Serif" font-size="10.00"> </text>
<polyline fill="none" stroke="black" points="0,-876.5 173,-876.5 "/>
<text text-anchor="start" x="8" y="-864.5" font-family="Helvetica,sans-Serif" font-size="10.00">+ ~AbsPrimitive()</text>
<text text-anchor="start" x="8" y="-853.5" font-family="Helvetica,sans-Serif" font-size="10.00">+ isDegenerate()</text>
</a>
</g>
</g>
<!-- Node7&#45;&gt;Node4 -->
<g id="edge6" class="edge">
<title>Node7&#45;&gt;Node4</title>
<path fill="none" stroke="orange" d="M86.5,-836.37C86.71,-829.85 87.03,-823.26 87.5,-817 88.35,-805.7 89.8,-793.48 91.33,-782.32"/>
<polygon fill="orange" stroke="orange" points="83,-836.4 86.26,-846.48 90,-836.57 83,-836.4"/>
<text text-anchor="middle" x="147" y="-820" font-family="Helvetica,sans-Serif" font-size="10.00"> &lt; Dimension, Double &gt;</text>
</g>
<!-- Node8&#45;&gt;Node7 -->
<g id="edge7" class="edge">
<title>Node8&#45;&gt;Node7</title>
<path fill="none" stroke="midnightblue" d="M84.24,-1020.83C84.73,-991.73 85.37,-953.83 85.84,-925.8"/>
<polygon fill="none" stroke="midnightblue" points="80.73,-1021.06 84.06,-1031.11 87.73,-1021.17 80.73,-1021.06"/>
</g>
<!-- Node9 -->
<g id="node9" class="node">
<title>Node9</title>
<g id="a_node9"><a xlink:href="classcie_1_1geo_1_1Object.html" target="_top" xlink:title=" ">
<polygon fill="white" stroke="black" points="366,-482.5 366,-594.5 525,-594.5 525,-482.5 366,-482.5"/>
<text text-anchor="start" x="374" y="-582.5" font-family="Helvetica,sans-Serif" font-size="10.00">cie::geo::Object&lt; Dimension,</text>
<text text-anchor="middle" x="445.5" y="-571.5" font-family="Helvetica,sans-Serif" font-size="10.00"> Bool, CoordinateType &gt;</text>
<polyline fill="none" stroke="black" points="366,-564.5 525,-564.5 "/>
<text text-anchor="middle" x="445.5" y="-552.5" font-family="Helvetica,sans-Serif" font-size="10.00"> </text>
<polyline fill="none" stroke="black" points="366,-545.5 525,-545.5 "/>
<text text-anchor="start" x="374" y="-533.5" font-family="Helvetica,sans-Serif" font-size="10.00">+ ~Object()</text>
<text text-anchor="start" x="374" y="-522.5" font-family="Helvetica,sans-Serif" font-size="10.00">+ evaluate()</text>
<text text-anchor="start" x="374" y="-511.5" font-family="Helvetica,sans-Serif" font-size="10.00">+ evaluate()</text>
<text text-anchor="start" x="374" y="-500.5" font-family="Helvetica,sans-Serif" font-size="10.00">+ evaluate()</text>
<text text-anchor="start" x="374" y="-489.5" font-family="Helvetica,sans-Serif" font-size="10.00">+ at()</text>
</a>
</g>
</g>
<!-- Node9&#45;&gt;Node2 -->
<g id="edge9" class="edge">
<title>Node9&#45;&gt;Node2</title>
<path fill="none" stroke="midnightblue" d="M442.2,-472.13C436.24,-415.91 419.89,-335.5 375.5,-281 363.02,-265.68 345.81,-253.74 328.21,-244.6"/>
<polygon fill="none" stroke="midnightblue" points="438.74,-472.73 443.2,-482.34 445.71,-472.05 438.74,-472.73"/>
</g>
<!-- Node10&#45;&gt;Node9 -->
<g id="edge10" class="edge">
<title>Node10&#45;&gt;Node9</title>
<path fill="none" stroke="midnightblue" d="M439.22,-844.22C450.89,-830.8 462.55,-815.16 470.5,-799 496.78,-745.58 492.24,-727.21 498.5,-668 499.53,-658.28 500.74,-655.52 498.5,-646 494.39,-628.51 486.95,-610.61 478.92,-594.59"/>
<polygon fill="none" stroke="midnightblue" points="436.44,-842.07 432.37,-851.85 441.65,-846.75 436.44,-842.07"/>
</g>
<!-- Node11 -->
<g id="node11" class="node">
<title>Node11</title>
<g id="a_node11"><a xlink:href="classcie_1_1geo_1_1Object.html" target="_top" xlink:title="Interface for point&#45;queriable objects.">
<polygon fill="white" stroke="black" points="333.5,-686.5 333.5,-798.5 461.5,-798.5 461.5,-686.5 333.5,-686.5"/>
<text text-anchor="start" x="341.5" y="-786.5" font-family="Helvetica,sans-Serif" font-size="10.00">cie::geo::Object&lt; N,</text>
<text text-anchor="middle" x="397.5" y="-775.5" font-family="Helvetica,sans-Serif" font-size="10.00"> TValue, TCoordinate &gt;</text>
<polyline fill="none" stroke="black" points="333.5,-768.5 461.5,-768.5 "/>
<text text-anchor="middle" x="397.5" y="-756.5" font-family="Helvetica,sans-Serif" font-size="10.00"> </text>
<polyline fill="none" stroke="black" points="333.5,-749.5 461.5,-749.5 "/>
<text text-anchor="start" x="341.5" y="-737.5" font-family="Helvetica,sans-Serif" font-size="10.00">+ ~Object()</text>
<text text-anchor="start" x="341.5" y="-726.5" font-family="Helvetica,sans-Serif" font-size="10.00">+ evaluate()</text>
<text text-anchor="start" x="341.5" y="-715.5" font-family="Helvetica,sans-Serif" font-size="10.00">+ evaluate()</text>
<text text-anchor="start" x="341.5" y="-704.5" font-family="Helvetica,sans-Serif" font-size="10.00">+ evaluate()</text>
<text text-anchor="start" x="341.5" y="-693.5" font-family="Helvetica,sans-Serif" font-size="10.00">+ at()</text>
</a>
</g>
</g>
<!-- Node10&#45;&gt;Node11 -->
<g id="edge13" class="edge">
<title>Node10&#45;&gt;Node11</title>
<path fill="none" stroke="midnightblue" d="M397.5,-841.77C397.5,-828.16 397.5,-812.94 397.5,-798.61"/>
<polygon fill="none" stroke="midnightblue" points="394,-841.82 397.5,-851.82 401,-841.82 394,-841.82"/>
</g>
<!-- Node13 -->
<g id="node13" class="node">
<title>Node13</title>
<g id="a_node13"><a xlink:href="classcie_1_1geo_1_1Object.html" target="_top" xlink:title=" ">
<polygon fill="white" stroke="black" points="189,-482.5 189,-594.5 348,-594.5 348,-482.5 189,-482.5"/>
<text text-anchor="start" x="197" y="-582.5" font-family="Helvetica,sans-Serif" font-size="10.00">cie::geo::Object&lt; Dimension,</text>
<text text-anchor="middle" x="268.5" y="-571.5" font-family="Helvetica,sans-Serif" font-size="10.00"> Bool, Double &gt;</text>
<polyline fill="none" stroke="black" points="189,-564.5 348,-564.5 "/>
<text text-anchor="middle" x="268.5" y="-552.5" font-family="Helvetica,sans-Serif" font-size="10.00"> </text>
<polyline fill="none" stroke="black" points="189,-545.5 348,-545.5 "/>
<text text-anchor="start" x="197" y="-533.5" font-family="Helvetica,sans-Serif" font-size="10.00">+ ~Object()</text>
<text text-anchor="start" x="197" y="-522.5" font-family="Helvetica,sans-Serif" font-size="10.00">+ evaluate()</text>
<text text-anchor="start" x="197" y="-511.5" font-family="Helvetica,sans-Serif" font-size="10.00">+ evaluate()</text>
<text text-anchor="start" x="197" y="-500.5" font-family="Helvetica,sans-Serif" font-size="10.00">+ evaluate()</text>
<text text-anchor="start" x="197" y="-489.5" font-family="Helvetica,sans-Serif" font-size="10.00">+ at()</text>
</a>
</g>
</g>
<!-- Node10&#45;&gt;Node13 -->
<g id="edge17" class="edge">
<title>Node10&#45;&gt;Node13</title>
<path fill="none" stroke="midnightblue" d="M357.21,-844C345.48,-830.48 333.43,-814.82 324.5,-799 294.31,-745.52 293.22,-728.09 280.5,-668 275.47,-644.22 272.54,-617.51 270.85,-594.63"/>
<polygon fill="none" stroke="midnightblue" points="354.8,-846.55 364.06,-851.7 360.03,-841.9 354.8,-846.55"/>
</g>
<!-- Node11&#45;&gt;Node9 -->
<g id="edge12" class="edge">
<title>Node11&#45;&gt;Node9</title>
<path fill="none" stroke="orange" d="M396.35,-676.18C397.09,-666 398.38,-655.66 400.5,-646 404.28,-628.75 410.78,-610.77 417.68,-594.61"/>
<polygon fill="orange" stroke="orange" points="392.85,-676.1 395.79,-686.28 399.84,-676.49 392.85,-676.1"/>
<text text-anchor="start" x="400.5" y="-660" font-family="Helvetica,sans-Serif" font-size="10.00"> &lt; Dimension, Bool,</text>
<text text-anchor="middle" x="449.5" y="-649" font-family="Helvetica,sans-Serif" font-size="10.00"> CoordinateType &gt;</text>
</g>
<!-- Node11&#45;&gt;Node13 -->
<g id="edge18" class="edge">
<title>Node11&#45;&gt;Node13</title>
<path fill="none" stroke="orange" d="M325.08,-700.67C313.39,-691.28 302.51,-680.35 294.5,-668 280.51,-646.42 273.8,-618.85 270.67,-594.79"/>
<polygon fill="orange" stroke="orange" points="323.21,-703.65 333.29,-706.93 327.46,-698.08 323.21,-703.65"/>
<text text-anchor="start" x="294.5" y="-660" font-family="Helvetica,sans-Serif" font-size="10.00"> &lt; Dimension, Bool,</text>
<text text-anchor="middle" x="343.5" y="-649" font-family="Helvetica,sans-Serif" font-size="10.00"> Double &gt;</text>
</g>
<!-- Node12&#45;&gt;Node2 -->
<g id="edge14" class="edge">
<title>Node12&#45;&gt;Node2</title>
<path fill="none" stroke="orange" d="M252.5,-299.81C252.5,-287.38 252.5,-274.5 252.5,-262.76"/>
<polygon fill="orange" stroke="orange" points="249,-300.11 252.5,-310.11 256,-300.11 249,-300.11"/>
<text text-anchor="middle" x="312" y="-284" font-family="Helvetica,sans-Serif" font-size="10.00"> &lt; Dimension, Double &gt;</text>
</g>
<!-- Node13&#45;&gt;Node12 -->
<g id="edge16" class="edge">
<title>Node13&#45;&gt;Node12</title>
<path fill="none" stroke="midnightblue" d="M262.57,-472.46C260.74,-452.4 258.76,-430.65 257.04,-411.79"/>
<polygon fill="none" stroke="midnightblue" points="259.09,-472.81 263.48,-482.45 266.06,-472.18 259.09,-472.81"/>
</g>
</g>
</svg>
