<?xml version="1.0" encoding="UTF-8" standalone="no"?>
<!DOCTYPE svg PUBLIC "-//W3C//DTD SVG 1.1//EN"
 "http://www.w3.org/Graphics/SVG/1.1/DTD/svg11.dtd">
<!-- Generated by graphviz version 2.43.0 (0)
 -->
<!-- Title: cie::geo::LinearSplitPolicy&lt; PointIterator, ValueIterator &gt; Pages: 1 -->
<svg width="177pt" height="193pt"
 viewBox="0.00 0.00 177.00 193.00" xmlns="http://www.w3.org/2000/svg" xmlns:xlink="http://www.w3.org/1999/xlink">
<g id="graph0" class="graph" transform="scale(1 1) rotate(0) translate(4 189)">
<title>cie::geo::LinearSplitPolicy&lt; PointIterator, ValueIterator &gt;</title>
<polygon fill="white" stroke="transparent" points="-4,4 -4,-189 173,-189 173,4 -4,4"/>
<!-- Node1 -->
<g id="node1" class="node">
<title>Node1</title>
<g id="a_node1"><a xlink:title=" ">
<polygon fill="#bfbfbf" stroke="black" points="0,-0.5 0,-68.5 169,-68.5 169,-0.5 0,-0.5"/>
<text text-anchor="start" x="8" y="-56.5" font-family="Helvetica,sans-Serif" font-size="10.00">cie::geo::LinearSplitPolicy</text>
<text text-anchor="middle" x="84.5" y="-45.5" font-family="Helvetica,sans-Serif" font-size="10.00">&lt; PointIterator, ValueIterator &gt;</text>
<polyline fill="none" stroke="black" points="0,-38.5 169,-38.5 "/>
<text text-anchor="middle" x="84.5" y="-26.5" font-family="Helvetica,sans-Serif" font-size="10.00"> </text>
<polyline fill="none" stroke="black" points="0,-19.5 169,-19.5 "/>
<text text-anchor="start" x="8" y="-7.5" font-family="Helvetica,sans-Serif" font-size="10.00">+ operator()()</text>
</a>
</g>
</g>
<!-- Node2 -->
<g id="node2" class="node">
<title>Node2</title>
<g id="a_node2"><a xlink:href="classcie_1_1geo_1_1SplitPolicy.html" target="_top" xlink:title=" ">
<polygon fill="white" stroke="black" points="0,-105.5 0,-184.5 169,-184.5 169,-105.5 0,-105.5"/>
<text text-anchor="start" x="8" y="-172.5" font-family="Helvetica,sans-Serif" font-size="10.00">cie::geo::SplitPolicy</text>
<text text-anchor="middle" x="84.5" y="-161.5" font-family="Helvetica,sans-Serif" font-size="10.00">&lt; PointIterator, ValueIterator &gt;</text>
<polyline fill="none" stroke="black" points="0,-154.5 169,-154.5 "/>
<text text-anchor="middle" x="84.5" y="-142.5" font-family="Helvetica,sans-Serif" font-size="10.00"> </text>
<polyline fill="none" stroke="black" points="0,-135.5 169,-135.5 "/>
<text text-anchor="start" x="8" y="-123.5" font-family="Helvetica,sans-Serif" font-size="10.00">+ ~SplitPolicy()</text>
<text text-anchor="start" x="8" y="-112.5" font-family="Helvetica,sans-Serif" font-size="10.00">+ operator()()</text>
</a>
</g>
</g>
<!-- Node2&#45;&gt;Node1 -->
<g id="edge1" class="edge">
<title>Node2&#45;&gt;Node1</title>
<path fill="none" stroke="midnightblue" d="M84.5,-95.35C84.5,-86.28 84.5,-77 84.5,-68.54"/>
<polygon fill="none" stroke="midnightblue" points="81,-95.44 84.5,-105.44 88,-95.44 81,-95.44"/>
</g>
</g>
</svg>
