<?xml version="1.0" encoding="UTF-8" standalone="no"?>
<!DOCTYPE svg PUBLIC "-//W3C//DTD SVG 1.1//EN"
 "http://www.w3.org/Graphics/SVG/1.1/DTD/svg11.dtd">
<!-- Generated by graphviz version 2.43.0 (0)
 -->
<!-- Title: cie::geo::BinaryOperator&lt; Dimension, ValueType, CoordinateType &gt; Pages: 1 -->
<svg width="644pt" height="1209pt"
 viewBox="0.00 0.00 643.72 1209.00" xmlns="http://www.w3.org/2000/svg" xmlns:xlink="http://www.w3.org/1999/xlink">
<g id="graph0" class="graph" transform="scale(1 1) rotate(0) translate(4 1205)">
<title>cie::geo::BinaryOperator&lt; Dimension, ValueType, CoordinateType &gt;</title>
<polygon fill="white" stroke="transparent" points="-4,4 -4,-1205 639.72,-1205 639.72,4 -4,4"/>
<!-- Node1 -->
<g id="node1" class="node">
<title>Node1</title>
<g id="a_node1"><a xlink:title=" ">
<polygon fill="#bfbfbf" stroke="black" points="389,-0.5 389,-145.5 528,-145.5 528,-0.5 389,-0.5"/>
<text text-anchor="start" x="397" y="-133.5" font-family="Helvetica,sans-Serif" font-size="10.00">cie::geo::BinaryOperator</text>
<text text-anchor="start" x="397" y="-122.5" font-family="Helvetica,sans-Serif" font-size="10.00">&lt; Dimension, ValueType,</text>
<text text-anchor="middle" x="458.5" y="-111.5" font-family="Helvetica,sans-Serif" font-size="10.00"> CoordinateType &gt;</text>
<polyline fill="none" stroke="black" points="389,-104.5 528,-104.5 "/>
<text text-anchor="middle" x="458.5" y="-92.5" font-family="Helvetica,sans-Serif" font-size="10.00"> </text>
<polyline fill="none" stroke="black" points="389,-85.5 528,-85.5 "/>
<text text-anchor="start" x="397" y="-73.5" font-family="Helvetica,sans-Serif" font-size="10.00">+ BinaryOperator()</text>
<text text-anchor="start" x="397" y="-62.5" font-family="Helvetica,sans-Serif" font-size="10.00">+ BinaryOperator()</text>
<text text-anchor="start" x="397" y="-51.5" font-family="Helvetica,sans-Serif" font-size="10.00">+ BinaryOperator()</text>
<text text-anchor="start" x="397" y="-40.5" font-family="Helvetica,sans-Serif" font-size="10.00">+ operator=()</text>
<text text-anchor="start" x="397" y="-29.5" font-family="Helvetica,sans-Serif" font-size="10.00">+ bindLhs()</text>
<text text-anchor="start" x="397" y="-18.5" font-family="Helvetica,sans-Serif" font-size="10.00">+ lhs()</text>
<text text-anchor="start" x="397" y="-7.5" font-family="Helvetica,sans-Serif" font-size="10.00">+ at()</text>
</a>
</g>
</g>
<!-- Node2 -->
<g id="node2" class="node">
<title>Node2</title>
<g id="a_node2"><a xlink:href="classcie_1_1geo_1_1UnaryOperator.html" target="_top" xlink:title=" ">
<polygon fill="white" stroke="black" points="237.5,-193.5 237.5,-338.5 397.5,-338.5 397.5,-193.5 237.5,-193.5"/>
<text text-anchor="start" x="245.5" y="-326.5" font-family="Helvetica,sans-Serif" font-size="10.00">cie::geo::UnaryOperator</text>
<text text-anchor="middle" x="317.5" y="-315.5" font-family="Helvetica,sans-Serif" font-size="10.00">&lt; Dimension, Bool, Double &gt;</text>
<polyline fill="none" stroke="black" points="237.5,-308.5 397.5,-308.5 "/>
<text text-anchor="start" x="245.5" y="-296.5" font-family="Helvetica,sans-Serif" font-size="10.00">+ rhs</text>
<text text-anchor="start" x="245.5" y="-285.5" font-family="Helvetica,sans-Serif" font-size="10.00"># _p_rhs</text>
<polyline fill="none" stroke="black" points="237.5,-278.5 397.5,-278.5 "/>
<text text-anchor="start" x="245.5" y="-266.5" font-family="Helvetica,sans-Serif" font-size="10.00">+ rhs()</text>
<text text-anchor="start" x="245.5" y="-255.5" font-family="Helvetica,sans-Serif" font-size="10.00">+ UnaryOperator()</text>
<text text-anchor="start" x="245.5" y="-244.5" font-family="Helvetica,sans-Serif" font-size="10.00">+ UnaryOperator()</text>
<text text-anchor="start" x="245.5" y="-233.5" font-family="Helvetica,sans-Serif" font-size="10.00">+ UnaryOperator()</text>
<text text-anchor="start" x="245.5" y="-222.5" font-family="Helvetica,sans-Serif" font-size="10.00">+ operator=()</text>
<text text-anchor="start" x="245.5" y="-211.5" font-family="Helvetica,sans-Serif" font-size="10.00">+ bindRhs()</text>
<text text-anchor="start" x="245.5" y="-200.5" font-family="Helvetica,sans-Serif" font-size="10.00">+ at()</text>
</a>
</g>
</g>
<!-- Node2&#45;&gt;Node1 -->
<g id="edge1" class="edge">
<title>Node2&#45;&gt;Node1</title>
<path fill="none" stroke="midnightblue" d="M376.38,-185.24C386.05,-172.14 396.02,-158.64 405.53,-145.75"/>
<polygon fill="none" stroke="midnightblue" points="373.53,-183.21 370.4,-193.34 379.16,-187.37 373.53,-183.21"/>
</g>
<!-- Node3 -->
<g id="node3" class="node">
<title>Node3</title>
<g id="a_node3"><a xlink:href="classcie_1_1geo_1_1Object.html" target="_top" xlink:title=" ">
<polygon fill="white" stroke="black" points="467.5,-590.5 467.5,-702.5 629.5,-702.5 629.5,-590.5 467.5,-590.5"/>
<text text-anchor="start" x="475.5" y="-690.5" font-family="Helvetica,sans-Serif" font-size="10.00">cie::geo::Object&lt; Dimension,</text>
<text text-anchor="middle" x="548.5" y="-679.5" font-family="Helvetica,sans-Serif" font-size="10.00"> ValueType, CoordinateType &gt;</text>
<polyline fill="none" stroke="black" points="467.5,-672.5 629.5,-672.5 "/>
<text text-anchor="middle" x="548.5" y="-660.5" font-family="Helvetica,sans-Serif" font-size="10.00"> </text>
<polyline fill="none" stroke="black" points="467.5,-653.5 629.5,-653.5 "/>
<text text-anchor="start" x="475.5" y="-641.5" font-family="Helvetica,sans-Serif" font-size="10.00">+ ~Object()</text>
<text text-anchor="start" x="475.5" y="-630.5" font-family="Helvetica,sans-Serif" font-size="10.00">+ evaluate()</text>
<text text-anchor="start" x="475.5" y="-619.5" font-family="Helvetica,sans-Serif" font-size="10.00">+ evaluate()</text>
<text text-anchor="start" x="475.5" y="-608.5" font-family="Helvetica,sans-Serif" font-size="10.00">+ evaluate()</text>
<text text-anchor="start" x="475.5" y="-597.5" font-family="Helvetica,sans-Serif" font-size="10.00">+ at()</text>
</a>
</g>
</g>
<!-- Node3&#45;&gt;Node2 -->
<g id="edge2" class="edge">
<title>Node3&#45;&gt;Node2</title>
<path fill="none" stroke="midnightblue" d="M510.99,-581.62C476.34,-522.92 423.17,-433.66 375.5,-357 371.77,-351 367.87,-344.8 363.93,-338.59"/>
<polygon fill="none" stroke="midnightblue" points="508.08,-583.58 516.18,-590.41 514.11,-580.02 508.08,-583.58"/>
</g>
<!-- Node4 -->
<g id="node4" class="node">
<title>Node4</title>
<g id="a_node4"><a xlink:href="classcie_1_1geo_1_1Traits.html" target="_top" xlink:title=" ">
<polygon fill="white" stroke="black" points="421,-911.5 421,-979.5 530,-979.5 530,-911.5 421,-911.5"/>
<text text-anchor="start" x="429" y="-967.5" font-family="Helvetica,sans-Serif" font-size="10.00">cie::geo::Traits&lt; N,</text>
<text text-anchor="middle" x="475.5" y="-956.5" font-family="Helvetica,sans-Serif" font-size="10.00"> TCoordinate &gt;</text>
<polyline fill="none" stroke="black" points="421,-949.5 530,-949.5 "/>
<text text-anchor="start" x="429" y="-937.5" font-family="Helvetica,sans-Serif" font-size="10.00">+ Dimension</text>
<polyline fill="none" stroke="black" points="421,-930.5 530,-930.5 "/>
<text text-anchor="middle" x="475.5" y="-918.5" font-family="Helvetica,sans-Serif" font-size="10.00"> </text>
</a>
</g>
</g>
<!-- Node4&#45;&gt;Node3 -->
<g id="edge3" class="edge">
<title>Node4&#45;&gt;Node3</title>
<path fill="none" stroke="midnightblue" d="M522.78,-904.09C561.98,-866.95 614.28,-807.94 633.5,-743 637.82,-728.42 633.74,-714.81 625.44,-702.68"/>
<polygon fill="none" stroke="midnightblue" points="520.06,-901.84 515.13,-911.22 524.83,-906.96 520.06,-901.84"/>
</g>
<!-- Node7 -->
<g id="node7" class="node">
<title>Node7</title>
<g id="a_node7"><a xlink:href="classcie_1_1geo_1_1Object.html" target="_top" xlink:title="Interface for point&#45;queriable objects.">
<polygon fill="white" stroke="black" points="411.5,-761.5 411.5,-873.5 539.5,-873.5 539.5,-761.5 411.5,-761.5"/>
<text text-anchor="start" x="419.5" y="-861.5" font-family="Helvetica,sans-Serif" font-size="10.00">cie::geo::Object&lt; N,</text>
<text text-anchor="middle" x="475.5" y="-850.5" font-family="Helvetica,sans-Serif" font-size="10.00"> TValue, TCoordinate &gt;</text>
<polyline fill="none" stroke="black" points="411.5,-843.5 539.5,-843.5 "/>
<text text-anchor="middle" x="475.5" y="-831.5" font-family="Helvetica,sans-Serif" font-size="10.00"> </text>
<polyline fill="none" stroke="black" points="411.5,-824.5 539.5,-824.5 "/>
<text text-anchor="start" x="419.5" y="-812.5" font-family="Helvetica,sans-Serif" font-size="10.00">+ ~Object()</text>
<text text-anchor="start" x="419.5" y="-801.5" font-family="Helvetica,sans-Serif" font-size="10.00">+ evaluate()</text>
<text text-anchor="start" x="419.5" y="-790.5" font-family="Helvetica,sans-Serif" font-size="10.00">+ evaluate()</text>
<text text-anchor="start" x="419.5" y="-779.5" font-family="Helvetica,sans-Serif" font-size="10.00">+ evaluate()</text>
<text text-anchor="start" x="419.5" y="-768.5" font-family="Helvetica,sans-Serif" font-size="10.00">+ at()</text>
</a>
</g>
</g>
<!-- Node4&#45;&gt;Node7 -->
<g id="edge7" class="edge">
<title>Node4&#45;&gt;Node7</title>
<path fill="none" stroke="midnightblue" d="M475.5,-901.31C475.5,-892.45 475.5,-883.01 475.5,-873.79"/>
<polygon fill="none" stroke="midnightblue" points="472,-901.39 475.5,-911.39 479,-901.4 472,-901.39"/>
</g>
<!-- Node9 -->
<g id="node9" class="node">
<title>Node9</title>
<g id="a_node9"><a xlink:href="classcie_1_1geo_1_1Object.html" target="_top" xlink:title=" ">
<polygon fill="white" stroke="black" points="290,-590.5 290,-702.5 449,-702.5 449,-590.5 290,-590.5"/>
<text text-anchor="start" x="298" y="-690.5" font-family="Helvetica,sans-Serif" font-size="10.00">cie::geo::Object&lt; Dimension,</text>
<text text-anchor="middle" x="369.5" y="-679.5" font-family="Helvetica,sans-Serif" font-size="10.00"> Bool, Double &gt;</text>
<polyline fill="none" stroke="black" points="290,-672.5 449,-672.5 "/>
<text text-anchor="middle" x="369.5" y="-660.5" font-family="Helvetica,sans-Serif" font-size="10.00"> </text>
<polyline fill="none" stroke="black" points="290,-653.5 449,-653.5 "/>
<text text-anchor="start" x="298" y="-641.5" font-family="Helvetica,sans-Serif" font-size="10.00">+ ~Object()</text>
<text text-anchor="start" x="298" y="-630.5" font-family="Helvetica,sans-Serif" font-size="10.00">+ evaluate()</text>
<text text-anchor="start" x="298" y="-619.5" font-family="Helvetica,sans-Serif" font-size="10.00">+ evaluate()</text>
<text text-anchor="start" x="298" y="-608.5" font-family="Helvetica,sans-Serif" font-size="10.00">+ evaluate()</text>
<text text-anchor="start" x="298" y="-597.5" font-family="Helvetica,sans-Serif" font-size="10.00">+ at()</text>
</a>
</g>
</g>
<!-- Node4&#45;&gt;Node9 -->
<g id="edge10" class="edge">
<title>Node4&#45;&gt;Node9</title>
<path fill="none" stroke="midnightblue" d="M424.63,-904.13C416.03,-895.08 408.09,-884.9 402.5,-874 374.94,-820.25 368.48,-750.48 367.77,-702.66"/>
<polygon fill="none" stroke="midnightblue" points="422.42,-906.87 431.97,-911.45 427.36,-901.91 422.42,-906.87"/>
</g>
<!-- Node5 -->
<g id="node5" class="node">
<title>Node5</title>
<g id="a_node5"><a xlink:href="classcie_1_1geo_1_1Traits.html" target="_top" xlink:title="Basic templated traits that every object has in GEO.">
<polygon fill="white" stroke="black" points="414.5,-1027.5 414.5,-1095.5 536.5,-1095.5 536.5,-1027.5 414.5,-1027.5"/>
<text text-anchor="start" x="422.5" y="-1083.5" font-family="Helvetica,sans-Serif" font-size="10.00">cie::geo::Traits&lt; Dim,</text>
<text text-anchor="middle" x="475.5" y="-1072.5" font-family="Helvetica,sans-Serif" font-size="10.00"> TCoordinate &gt;</text>
<polyline fill="none" stroke="black" points="414.5,-1065.5 536.5,-1065.5 "/>
<text text-anchor="middle" x="475.5" y="-1053.5" font-family="Helvetica,sans-Serif" font-size="10.00"> </text>
<polyline fill="none" stroke="black" points="414.5,-1046.5 536.5,-1046.5 "/>
<text text-anchor="middle" x="475.5" y="-1034.5" font-family="Helvetica,sans-Serif" font-size="10.00"> </text>
</a>
</g>
</g>
<!-- Node5&#45;&gt;Node4 -->
<g id="edge4" class="edge">
<title>Node5&#45;&gt;Node4</title>
<path fill="none" stroke="orange" d="M475.5,-1017.06C475.5,-1004.64 475.5,-991.32 475.5,-979.62"/>
<polygon fill="orange" stroke="orange" points="472,-1017.22 475.5,-1027.22 479,-1017.22 472,-1017.22"/>
<text text-anchor="middle" x="524.5" y="-1001" font-family="Helvetica,sans-Serif" font-size="10.00"> &lt; N, TCoordinate &gt;</text>
</g>
<!-- Node6 -->
<g id="node6" class="node">
<title>Node6</title>
<g id="a_node6"><a xlink:title=" ">
<polygon fill="white" stroke="#bfbfbf" points="453,-1143.5 453,-1200.5 498,-1200.5 498,-1143.5 453,-1143.5"/>
<text text-anchor="middle" x="475.5" y="-1188.5" font-family="Helvetica,sans-Serif" font-size="10.00">size_t</text>
<polyline fill="none" stroke="#bfbfbf" points="453,-1181.5 498,-1181.5 "/>
<text text-anchor="middle" x="475.5" y="-1169.5" font-family="Helvetica,sans-Serif" font-size="10.00"> </text>
<polyline fill="none" stroke="#bfbfbf" points="453,-1162.5 498,-1162.5 "/>
<text text-anchor="middle" x="475.5" y="-1150.5" font-family="Helvetica,sans-Serif" font-size="10.00"> </text>
</a>
</g>
</g>
<!-- Node6&#45;&gt;Node5 -->
<g id="edge5" class="edge">
<title>Node6&#45;&gt;Node5</title>
<path fill="none" stroke="#404040" d="M475.5,-1143.34C475.5,-1132.53 475.5,-1119.85 475.5,-1107.77"/>
<polygon fill="none" stroke="#404040" points="475.5,-1107.52 471.5,-1101.52 475.5,-1095.52 479.5,-1101.52 475.5,-1107.52"/>
<text text-anchor="middle" x="507.5" y="-1117" font-family="Helvetica,sans-Serif" font-size="10.00"> +Dimension</text>
</g>
<!-- Node7&#45;&gt;Node3 -->
<g id="edge6" class="edge">
<title>Node7&#45;&gt;Node3</title>
<path fill="none" stroke="orange" d="M495.37,-751.79C499.08,-741.37 503.17,-730.8 507.5,-721 510.16,-714.99 513.15,-708.81 516.27,-702.73"/>
<polygon fill="orange" stroke="orange" points="492.04,-750.7 492.06,-761.29 498.65,-753 492.04,-750.7"/>
<text text-anchor="start" x="507.5" y="-735" font-family="Helvetica,sans-Serif" font-size="10.00"> &lt; Dimension, ValueType,</text>
<text text-anchor="middle" x="570.5" y="-724" font-family="Helvetica,sans-Serif" font-size="10.00"> CoordinateType &gt;</text>
</g>
<!-- Node7&#45;&gt;Node9 -->
<g id="edge11" class="edge">
<title>Node7&#45;&gt;Node9</title>
<path fill="none" stroke="orange" d="M404.86,-753.77C402.22,-750.25 399.74,-746.66 397.5,-743 390,-730.78 384.42,-716.44 380.31,-702.65"/>
<polygon fill="orange" stroke="orange" points="402.32,-756.2 411.3,-761.81 407.78,-751.82 402.32,-756.2"/>
<text text-anchor="start" x="397.5" y="-735" font-family="Helvetica,sans-Serif" font-size="10.00"> &lt; Dimension, Bool,</text>
<text text-anchor="middle" x="446.5" y="-724" font-family="Helvetica,sans-Serif" font-size="10.00"> Double &gt;</text>
</g>
<!-- Node8 -->
<g id="node8" class="node">
<title>Node8</title>
<g id="a_node8"><a xlink:href="classcie_1_1geo_1_1UnaryOperator.html" target="_top" xlink:title=" ">
<polygon fill="white" stroke="black" points="154,-397.5 154,-542.5 293,-542.5 293,-397.5 154,-397.5"/>
<text text-anchor="start" x="162" y="-530.5" font-family="Helvetica,sans-Serif" font-size="10.00">cie::geo::UnaryOperator</text>
<text text-anchor="start" x="162" y="-519.5" font-family="Helvetica,sans-Serif" font-size="10.00">&lt; Dimension, ValueType,</text>
<text text-anchor="middle" x="223.5" y="-508.5" font-family="Helvetica,sans-Serif" font-size="10.00"> CoordinateType &gt;</text>
<polyline fill="none" stroke="black" points="154,-501.5 293,-501.5 "/>
<text text-anchor="middle" x="223.5" y="-489.5" font-family="Helvetica,sans-Serif" font-size="10.00"> </text>
<polyline fill="none" stroke="black" points="154,-482.5 293,-482.5 "/>
<text text-anchor="start" x="162" y="-470.5" font-family="Helvetica,sans-Serif" font-size="10.00">+ UnaryOperator()</text>
<text text-anchor="start" x="162" y="-459.5" font-family="Helvetica,sans-Serif" font-size="10.00">+ UnaryOperator()</text>
<text text-anchor="start" x="162" y="-448.5" font-family="Helvetica,sans-Serif" font-size="10.00">+ UnaryOperator()</text>
<text text-anchor="start" x="162" y="-437.5" font-family="Helvetica,sans-Serif" font-size="10.00">+ operator=()</text>
<text text-anchor="start" x="162" y="-426.5" font-family="Helvetica,sans-Serif" font-size="10.00">+ bindRhs()</text>
<text text-anchor="start" x="162" y="-415.5" font-family="Helvetica,sans-Serif" font-size="10.00">+ rhs()</text>
<text text-anchor="start" x="162" y="-404.5" font-family="Helvetica,sans-Serif" font-size="10.00">+ at()</text>
</a>
</g>
</g>
<!-- Node8&#45;&gt;Node2 -->
<g id="edge8" class="edge">
<title>Node8&#45;&gt;Node2</title>
<path fill="none" stroke="orange" d="M261.19,-388C268.77,-371.71 276.69,-354.7 284.11,-338.75"/>
<polygon fill="orange" stroke="orange" points="257.82,-386.95 256.77,-397.5 264.17,-389.91 257.82,-386.95"/>
<text text-anchor="start" x="273.5" y="-371" font-family="Helvetica,sans-Serif" font-size="10.00"> &lt; Dimension, Bool,</text>
<text text-anchor="middle" x="322.5" y="-360" font-family="Helvetica,sans-Serif" font-size="10.00"> Double &gt;</text>
</g>
<!-- Node9&#45;&gt;Node8 -->
<g id="edge9" class="edge">
<title>Node9&#45;&gt;Node8</title>
<path fill="none" stroke="midnightblue" d="M316.7,-582.39C305.94,-569.54 294.55,-555.93 283.57,-542.79"/>
<polygon fill="none" stroke="midnightblue" points="314.2,-584.86 323.3,-590.29 319.57,-580.37 314.2,-584.86"/>
</g>
<!-- Node10 -->
<g id="node10" class="node">
<title>Node10</title>
<g id="a_node10"><a xlink:title=" ">
<polygon fill="white" stroke="#bfbfbf" points="137,-607 137,-686 272,-686 272,-607 137,-607"/>
<text text-anchor="start" x="145" y="-674" font-family="Helvetica,sans-Serif" font-size="10.00">void emplaceRhs(Args</text>
<text text-anchor="start" x="145" y="-663" font-family="Helvetica,sans-Serif" font-size="10.00"> &amp;&amp;... args) requires</text>
<text text-anchor="middle" x="204.5" y="-652" font-family="Helvetica,sans-Serif" font-size="10.00"> concepts operand_ptr &amp;</text>
<polyline fill="none" stroke="#bfbfbf" points="137,-645 272,-645 "/>
<text text-anchor="middle" x="204.5" y="-633" font-family="Helvetica,sans-Serif" font-size="10.00"> </text>
<polyline fill="none" stroke="#bfbfbf" points="137,-626 272,-626 "/>
<text text-anchor="middle" x="204.5" y="-614" font-family="Helvetica,sans-Serif" font-size="10.00"> </text>
</a>
</g>
</g>
<!-- Node10&#45;&gt;Node8 -->
<g id="edge12" class="edge">
<title>Node10&#45;&gt;Node8</title>
<path fill="none" stroke="#404040" d="M208.72,-606.77C210.4,-591.29 212.41,-572.81 214.4,-554.55"/>
<polygon fill="none" stroke="#404040" points="214.4,-554.55 211.08,-548.15 215.7,-542.62 219.03,-549.02 214.4,-554.55"/>
<text text-anchor="middle" x="227" y="-564" font-family="Helvetica,sans-Serif" font-size="10.00"> +rhs</text>
</g>
<!-- Node11 -->
<g id="node11" class="node">
<title>Node11</title>
<g id="a_node11"><a xlink:title=" ">
<polygon fill="white" stroke="#bfbfbf" points="0,-612.5 0,-680.5 119,-680.5 119,-612.5 0,-612.5"/>
<text text-anchor="start" x="8" y="-668.5" font-family="Helvetica,sans-Serif" font-size="10.00">shared_ptr&lt; operand</text>
<text text-anchor="middle" x="59.5" y="-657.5" font-family="Helvetica,sans-Serif" font-size="10.00">_type &gt;</text>
<polyline fill="none" stroke="#bfbfbf" points="0,-650.5 119,-650.5 "/>
<text text-anchor="middle" x="59.5" y="-638.5" font-family="Helvetica,sans-Serif" font-size="10.00"> </text>
<polyline fill="none" stroke="#bfbfbf" points="0,-631.5 119,-631.5 "/>
<text text-anchor="middle" x="59.5" y="-619.5" font-family="Helvetica,sans-Serif" font-size="10.00"> </text>
</a>
</g>
</g>
<!-- Node11&#45;&gt;Node8 -->
<g id="edge13" class="edge">
<title>Node11&#45;&gt;Node8</title>
<path fill="none" stroke="#404040" d="M90.73,-612.27C106.99,-594.97 127.63,-573.01 147.77,-551.58"/>
<polygon fill="none" stroke="#404040" points="147.83,-551.52 149.02,-544.4 156.05,-542.77 154.85,-549.88 147.83,-551.52"/>
<text text-anchor="middle" x="159" y="-564" font-family="Helvetica,sans-Serif" font-size="10.00"> #_p_rhs</text>
</g>
<!-- Node12 -->
<g id="node12" class="node">
<title>Node12</title>
<g id="a_node12"><a xlink:title=" ">
<polygon fill="white" stroke="#bfbfbf" points="415.5,-237.5 415.5,-294.5 501.5,-294.5 501.5,-237.5 415.5,-237.5"/>
<text text-anchor="middle" x="458.5" y="-282.5" font-family="Helvetica,sans-Serif" font-size="10.00">operand_ptr &amp;</text>
<polyline fill="none" stroke="#bfbfbf" points="415.5,-275.5 501.5,-275.5 "/>
<text text-anchor="middle" x="458.5" y="-263.5" font-family="Helvetica,sans-Serif" font-size="10.00"> </text>
<polyline fill="none" stroke="#bfbfbf" points="415.5,-256.5 501.5,-256.5 "/>
<text text-anchor="middle" x="458.5" y="-244.5" font-family="Helvetica,sans-Serif" font-size="10.00"> </text>
</a>
</g>
</g>
<!-- Node12&#45;&gt;Node1 -->
<g id="edge14" class="edge">
<title>Node12&#45;&gt;Node1</title>
<path fill="none" stroke="#404040" d="M458.5,-237.23C458.5,-216.22 458.5,-186.22 458.5,-157.65"/>
<polygon fill="none" stroke="#404040" points="458.5,-157.52 454.5,-151.52 458.5,-145.52 462.5,-151.52 458.5,-157.52"/>
<text text-anchor="middle" x="471.5" y="-167" font-family="Helvetica,sans-Serif" font-size="10.00"> +lhs</text>
</g>
<!-- Node13 -->
<g id="node13" class="node">
<title>Node13</title>
<g id="a_node13"><a xlink:title=" ">
<polygon fill="white" stroke="#bfbfbf" points="520,-237.5 520,-294.5 595,-294.5 595,-237.5 520,-237.5"/>
<text text-anchor="middle" x="557.5" y="-282.5" font-family="Helvetica,sans-Serif" font-size="10.00">operand_ptr</text>
<polyline fill="none" stroke="#bfbfbf" points="520,-275.5 595,-275.5 "/>
<text text-anchor="middle" x="557.5" y="-263.5" font-family="Helvetica,sans-Serif" font-size="10.00"> </text>
<polyline fill="none" stroke="#bfbfbf" points="520,-256.5 595,-256.5 "/>
<text text-anchor="middle" x="557.5" y="-244.5" font-family="Helvetica,sans-Serif" font-size="10.00"> </text>
</a>
</g>
</g>
<!-- Node13&#45;&gt;Node1 -->
<g id="edge15" class="edge">
<title>Node13&#45;&gt;Node1</title>
<path fill="none" stroke="#404040" d="M543.1,-237.23C532.07,-215.94 516.25,-185.41 501.26,-156.5"/>
<polygon fill="none" stroke="#404040" points="501.09,-156.17 494.78,-152.69 495.57,-145.52 501.88,-149.01 501.09,-156.17"/>
<text text-anchor="middle" x="530" y="-167" font-family="Helvetica,sans-Serif" font-size="10.00"> #_p_lhs</text>
</g>
</g>
</svg>
