<?xml version="1.0" encoding="UTF-8" standalone="no"?>
<!DOCTYPE svg PUBLIC "-//W3C//DTD SVG 1.1//EN"
 "http://www.w3.org/Graphics/SVG/1.1/DTD/svg11.dtd">
<!-- Generated by graphviz version 2.43.0 (0)
 -->
<!-- Title: cie::geo::AbsMarchingPrimitives&lt; TTarget &gt; Pages: 1 -->
<svg width="743pt" height="314pt"
 viewBox="0.00 0.00 743.00 314.00" xmlns="http://www.w3.org/2000/svg" xmlns:xlink="http://www.w3.org/1999/xlink">
<g id="graph0" class="graph" transform="scale(1 1) rotate(0) translate(4 310)">
<title>cie::geo::AbsMarchingPrimitives&lt; TTarget &gt;</title>
<polygon fill="white" stroke="transparent" points="-4,4 -4,-310 739,-310 739,4 -4,4"/>
<!-- Node1 -->
<g id="node1" class="node">
<title>Node1</title>
<g id="a_node1"><a xlink:title=" ">
<polygon fill="#bfbfbf" stroke="black" points="253.5,-0.5 253.5,-189.5 439.5,-189.5 439.5,-0.5 253.5,-0.5"/>
<text text-anchor="start" x="261.5" y="-177.5" font-family="Helvetica,sans-Serif" font-size="10.00">cie::geo::AbsMarchingPrimitives</text>
<text text-anchor="middle" x="346.5" y="-166.5" font-family="Helvetica,sans-Serif" font-size="10.00">&lt; TTarget &gt;</text>
<polyline fill="none" stroke="black" points="253.5,-159.5 439.5,-159.5 "/>
<text text-anchor="middle" x="346.5" y="-147.5" font-family="Helvetica,sans-Serif" font-size="10.00"> </text>
<polyline fill="none" stroke="black" points="253.5,-140.5 439.5,-140.5 "/>
<text text-anchor="start" x="261.5" y="-128.5" font-family="Helvetica,sans-Serif" font-size="10.00">+ AbsMarchingPrimitives()</text>
<text text-anchor="start" x="261.5" y="-117.5" font-family="Helvetica,sans-Serif" font-size="10.00">+ ~AbsMarchingPrimitives()</text>
<text text-anchor="start" x="261.5" y="-106.5" font-family="Helvetica,sans-Serif" font-size="10.00">+ execute()</text>
<text text-anchor="start" x="261.5" y="-95.5" font-family="Helvetica,sans-Serif" font-size="10.00">+ execute()</text>
<text text-anchor="start" x="261.5" y="-84.5" font-family="Helvetica,sans-Serif" font-size="10.00">+ setOutputFunctor()</text>
<text text-anchor="start" x="261.5" y="-73.5" font-family="Helvetica,sans-Serif" font-size="10.00"># AbsMarchingPrimitives()</text>
<text text-anchor="start" x="261.5" y="-62.5" font-family="Helvetica,sans-Serif" font-size="10.00"># AbsMarchingPrimitives()</text>
<text text-anchor="start" x="261.5" y="-51.5" font-family="Helvetica,sans-Serif" font-size="10.00"># operator=()</text>
<text text-anchor="start" x="261.5" y="-40.5" font-family="Helvetica,sans-Serif" font-size="10.00"># getVertex()</text>
<text text-anchor="start" x="261.5" y="-29.5" font-family="Helvetica,sans-Serif" font-size="10.00"># getVertices()</text>
<text text-anchor="start" x="261.5" y="-18.5" font-family="Helvetica,sans-Serif" font-size="10.00"># primitiveVertexCount()</text>
<text text-anchor="start" x="261.5" y="-7.5" font-family="Helvetica,sans-Serif" font-size="10.00"># numberOfRemainingPrimitives()</text>
</a>
</g>
</g>
<!-- Node2 -->
<g id="node2" class="node">
<title>Node2</title>
<g id="a_node2"><a xlink:href="classGetTraitsT.html" target="_top" xlink:title=" ">
<polygon fill="white" stroke="black" points="0,-243 0,-300 125,-300 125,-243 0,-243"/>
<text text-anchor="middle" x="62.5" y="-288" font-family="Helvetica,sans-Serif" font-size="10.00">GetTraitsT&lt; TTarget &gt;</text>
<polyline fill="none" stroke="black" points="0,-281 125,-281 "/>
<text text-anchor="middle" x="62.5" y="-269" font-family="Helvetica,sans-Serif" font-size="10.00"> </text>
<polyline fill="none" stroke="black" points="0,-262 125,-262 "/>
<text text-anchor="middle" x="62.5" y="-250" font-family="Helvetica,sans-Serif" font-size="10.00"> </text>
</a>
</g>
</g>
<!-- Node2&#45;&gt;Node1 -->
<g id="edge1" class="edge">
<title>Node2&#45;&gt;Node1</title>
<path fill="none" stroke="midnightblue" d="M116.49,-237.33C155.05,-213.64 207.9,-181.16 253.22,-153.31"/>
<polygon fill="none" stroke="midnightblue" points="114.19,-234.63 107.5,-242.85 117.85,-240.6 114.19,-234.63"/>
</g>
<!-- Node3 -->
<g id="node3" class="node">
<title>Node3</title>
<g id="a_node3"><a xlink:title=" ">
<polygon fill="white" stroke="#bfbfbf" points="143,-237.5 143,-305.5 274,-305.5 274,-237.5 143,-237.5"/>
<text text-anchor="start" x="151" y="-293.5" font-family="Helvetica,sans-Serif" font-size="10.00">Ptr&lt; const connectivity</text>
<text text-anchor="middle" x="208.5" y="-282.5" font-family="Helvetica,sans-Serif" font-size="10.00">_table &gt;</text>
<polyline fill="none" stroke="#bfbfbf" points="143,-275.5 274,-275.5 "/>
<text text-anchor="middle" x="208.5" y="-263.5" font-family="Helvetica,sans-Serif" font-size="10.00"> </text>
<polyline fill="none" stroke="#bfbfbf" points="143,-256.5 274,-256.5 "/>
<text text-anchor="middle" x="208.5" y="-244.5" font-family="Helvetica,sans-Serif" font-size="10.00"> </text>
</a>
</g>
</g>
<!-- Node3&#45;&gt;Node1 -->
<g id="edge2" class="edge">
<title>Node3&#45;&gt;Node1</title>
<path fill="none" stroke="#404040" d="M215.75,-237.34C218.78,-227.45 222.93,-216.88 228.5,-208 233.57,-199.92 239.36,-192.03 245.58,-184.4"/>
<polygon fill="none" stroke="#404040" points="245.6,-184.39 246.44,-177.23 253.38,-175.25 252.53,-182.41 245.6,-184.39"/>
<text text-anchor="middle" x="285.5" y="-211" font-family="Helvetica,sans-Serif" font-size="10.00"> #_p_connectivityTable</text>
</g>
<!-- Node4 -->
<g id="node4" class="node">
<title>Node4</title>
<g id="a_node4"><a xlink:title=" ">
<polygon fill="white" stroke="#bfbfbf" points="292,-237.5 292,-305.5 401,-305.5 401,-237.5 292,-237.5"/>
<text text-anchor="start" x="300" y="-293.5" font-family="Helvetica,sans-Serif" font-size="10.00">shared_ptr&lt; target</text>
<text text-anchor="middle" x="346.5" y="-282.5" font-family="Helvetica,sans-Serif" font-size="10.00">_type &gt;</text>
<polyline fill="none" stroke="#bfbfbf" points="292,-275.5 401,-275.5 "/>
<text text-anchor="middle" x="346.5" y="-263.5" font-family="Helvetica,sans-Serif" font-size="10.00"> </text>
<polyline fill="none" stroke="#bfbfbf" points="292,-256.5 401,-256.5 "/>
<text text-anchor="middle" x="346.5" y="-244.5" font-family="Helvetica,sans-Serif" font-size="10.00"> </text>
</a>
</g>
</g>
<!-- Node4&#45;&gt;Node1 -->
<g id="edge3" class="edge">
<title>Node4&#45;&gt;Node1</title>
<path fill="none" stroke="#404040" d="M346.5,-237.27C346.5,-226.85 346.5,-214.74 346.5,-202.08"/>
<polygon fill="none" stroke="#404040" points="346.5,-201.8 342.5,-195.8 346.5,-189.8 350.5,-195.8 346.5,-201.8"/>
<text text-anchor="middle" x="375.5" y="-211" font-family="Helvetica,sans-Serif" font-size="10.00"> #_p_target</text>
</g>
<!-- Node5 -->
<g id="node5" class="node">
<title>Node5</title>
<g id="a_node5"><a xlink:title=" ">
<polygon fill="white" stroke="#bfbfbf" points="419.5,-243 419.5,-300 555.5,-300 555.5,-243 419.5,-243"/>
<text text-anchor="middle" x="487.5" y="-288" font-family="Helvetica,sans-Serif" font-size="10.00">Ptr&lt; const edge_table &gt;</text>
<polyline fill="none" stroke="#bfbfbf" points="419.5,-281 555.5,-281 "/>
<text text-anchor="middle" x="487.5" y="-269" font-family="Helvetica,sans-Serif" font-size="10.00"> </text>
<polyline fill="none" stroke="#bfbfbf" points="419.5,-262 555.5,-262 "/>
<text text-anchor="middle" x="487.5" y="-250" font-family="Helvetica,sans-Serif" font-size="10.00"> </text>
</a>
</g>
</g>
<!-- Node5&#45;&gt;Node1 -->
<g id="edge4" class="edge">
<title>Node5&#45;&gt;Node1</title>
<path fill="none" stroke="#404040" d="M465.16,-242.85C455.23,-230.56 442.85,-215.24 429.88,-199.18"/>
<polygon fill="none" stroke="#404040" points="429.72,-198.99 422.84,-196.84 422.18,-189.66 429.06,-191.81 429.72,-198.99"/>
<text text-anchor="middle" x="484.5" y="-211" font-family="Helvetica,sans-Serif" font-size="10.00"> #_p_edgeTable</text>
</g>
<!-- Node6 -->
<g id="node6" class="node">
<title>Node6</title>
<g id="a_node6"><a xlink:title=" ">
<polygon fill="white" stroke="#bfbfbf" points="574,-237.5 574,-305.5 735,-305.5 735,-237.5 574,-237.5"/>
<text text-anchor="start" x="582" y="-293.5" font-family="Helvetica,sans-Serif" font-size="10.00">function&lt; void(Size,</text>
<text text-anchor="middle" x="654.5" y="-282.5" font-family="Helvetica,sans-Serif" font-size="10.00"> const output_arguments &amp;)&gt;</text>
<polyline fill="none" stroke="#bfbfbf" points="574,-275.5 735,-275.5 "/>
<text text-anchor="middle" x="654.5" y="-263.5" font-family="Helvetica,sans-Serif" font-size="10.00"> </text>
<polyline fill="none" stroke="#bfbfbf" points="574,-256.5 735,-256.5 "/>
<text text-anchor="middle" x="654.5" y="-244.5" font-family="Helvetica,sans-Serif" font-size="10.00"> </text>
</a>
</g>
</g>
<!-- Node6&#45;&gt;Node1 -->
<g id="edge5" class="edge">
<title>Node6&#45;&gt;Node1</title>
<path fill="none" stroke="#404040" d="M596.21,-237.47C555.1,-214.18 498.92,-182.35 450.26,-154.78"/>
<polygon fill="none" stroke="#404040" points="450.12,-154.7 442.92,-155.23 439.67,-148.79 446.87,-148.27 450.12,-154.7"/>
<text text-anchor="middle" x="605" y="-211" font-family="Helvetica,sans-Serif" font-size="10.00"> #_outputFunctor</text>
</g>
</g>
</svg>
