<?xml version="1.0" encoding="UTF-8" standalone="no"?>
<!DOCTYPE svg PUBLIC "-//W3C//DTD SVG 1.1//EN"
 "http://www.w3.org/Graphics/SVG/1.1/DTD/svg11.dtd">
<!-- Generated by graphviz version 2.43.0 (0)
 -->
<!-- Title: cie::geo::Cell&lt; PrimitiveType &gt; Pages: 1 -->
<svg width="304pt" height="409pt"
 viewBox="0.00 0.00 304.00 409.00" xmlns="http://www.w3.org/2000/svg" xmlns:xlink="http://www.w3.org/1999/xlink">
<g id="graph0" class="graph" transform="scale(1 1) rotate(0) translate(4 405)">
<title>cie::geo::Cell&lt; PrimitiveType &gt;</title>
<polygon fill="white" stroke="transparent" points="-4,4 -4,-405 300,-405 300,4 -4,4"/>
<!-- Node1 -->
<g id="node1" class="node">
<title>Node1</title>
<g id="a_node1"><a xlink:title=" ">
<polygon fill="#bfbfbf" stroke="black" points="0,-0.5 0,-123.5 135,-123.5 135,-0.5 0,-0.5"/>
<text text-anchor="start" x="8" y="-111.5" font-family="Helvetica,sans-Serif" font-size="10.00">cie::geo::Cell&lt; Primitive</text>
<text text-anchor="middle" x="67.5" y="-100.5" font-family="Helvetica,sans-Serif" font-size="10.00">Type &gt;</text>
<polyline fill="none" stroke="black" points="0,-93.5 135,-93.5 "/>
<text text-anchor="middle" x="67.5" y="-81.5" font-family="Helvetica,sans-Serif" font-size="10.00"> </text>
<polyline fill="none" stroke="black" points="0,-74.5 135,-74.5 "/>
<text text-anchor="start" x="8" y="-62.5" font-family="Helvetica,sans-Serif" font-size="10.00">+ Cell()</text>
<text text-anchor="start" x="8" y="-51.5" font-family="Helvetica,sans-Serif" font-size="10.00">+ split()</text>
<text text-anchor="start" x="8" y="-40.5" font-family="Helvetica,sans-Serif" font-size="10.00">+ split()</text>
<text text-anchor="start" x="8" y="-29.5" font-family="Helvetica,sans-Serif" font-size="10.00">+ Cell()</text>
<text text-anchor="start" x="8" y="-18.5" font-family="Helvetica,sans-Serif" font-size="10.00"># split_internal()</text>
<text text-anchor="start" x="8" y="-7.5" font-family="Helvetica,sans-Serif" font-size="10.00"># split_internal()</text>
</a>
</g>
</g>
<!-- Node2 -->
<g id="node2" class="node">
<title>Node2</title>
<g id="a_node2"><a xlink:href="classcie_1_1geo_1_1AbsCell.html" target="_top" xlink:title=" ">
<polygon fill="white" stroke="black" points="14.5,-177 14.5,-300 120.5,-300 120.5,-177 14.5,-177"/>
<text text-anchor="start" x="22.5" y="-288" font-family="Helvetica,sans-Serif" font-size="10.00">cie::geo::AbsCell&lt;</text>
<text text-anchor="middle" x="67.5" y="-277" font-family="Helvetica,sans-Serif" font-size="10.00"> PrimitiveType &gt;</text>
<polyline fill="none" stroke="black" points="14.5,-270 120.5,-270 "/>
<text text-anchor="middle" x="67.5" y="-258" font-family="Helvetica,sans-Serif" font-size="10.00"> </text>
<polyline fill="none" stroke="black" points="14.5,-251 120.5,-251 "/>
<text text-anchor="start" x="22.5" y="-239" font-family="Helvetica,sans-Serif" font-size="10.00">+ AbsCell()</text>
<text text-anchor="start" x="22.5" y="-228" font-family="Helvetica,sans-Serif" font-size="10.00">+ AbsCell()</text>
<text text-anchor="start" x="22.5" y="-217" font-family="Helvetica,sans-Serif" font-size="10.00">+ AbsCell()</text>
<text text-anchor="start" x="22.5" y="-206" font-family="Helvetica,sans-Serif" font-size="10.00">+ ~AbsCell()</text>
<text text-anchor="start" x="22.5" y="-195" font-family="Helvetica,sans-Serif" font-size="10.00">+ split()</text>
<text text-anchor="start" x="22.5" y="-184" font-family="Helvetica,sans-Serif" font-size="10.00"># split_internal()</text>
</a>
</g>
</g>
<!-- Node2&#45;&gt;Node1 -->
<g id="edge1" class="edge">
<title>Node2&#45;&gt;Node1</title>
<path fill="none" stroke="midnightblue" d="M60.86,-166.71C60.67,-152.46 60.73,-137.6 61.04,-123.73"/>
<polygon fill="none" stroke="midnightblue" points="57.36,-167.02 61.04,-176.96 64.36,-166.9 57.36,-167.02"/>
</g>
<!-- Node2&#45;&gt;Node1 -->
<g id="edge3" class="edge">
<title>Node2&#45;&gt;Node1</title>
<path fill="none" stroke="midnightblue" d="M74.14,-166.71C74.33,-152.46 74.27,-137.6 73.96,-123.73"/>
<polygon fill="none" stroke="midnightblue" points="70.64,-166.9 73.96,-176.96 77.64,-167.02 70.64,-166.9"/>
</g>
<!-- Node3 -->
<g id="node3" class="node">
<title>Node3</title>
<g id="a_node3"><a xlink:href="classcie_1_1geo_1_1PrimitiveType.html" target="_top" xlink:title=" ">
<polygon fill="white" stroke="black" points="26,-343.5 26,-400.5 109,-400.5 109,-343.5 26,-343.5"/>
<text text-anchor="middle" x="67.5" y="-388.5" font-family="Helvetica,sans-Serif" font-size="10.00">PrimitiveType</text>
<polyline fill="none" stroke="black" points="26,-381.5 109,-381.5 "/>
<text text-anchor="middle" x="67.5" y="-369.5" font-family="Helvetica,sans-Serif" font-size="10.00"> </text>
<polyline fill="none" stroke="black" points="26,-362.5 109,-362.5 "/>
<text text-anchor="middle" x="67.5" y="-350.5" font-family="Helvetica,sans-Serif" font-size="10.00"> </text>
</a>
</g>
</g>
<!-- Node3&#45;&gt;Node2 -->
<g id="edge2" class="edge">
<title>Node3&#45;&gt;Node2</title>
<path fill="none" stroke="midnightblue" d="M67.5,-333.13C67.5,-322.79 67.5,-311.33 67.5,-300.07"/>
<polygon fill="none" stroke="midnightblue" points="64,-333.43 67.5,-343.43 71,-333.43 64,-333.43"/>
</g>
<!-- Node4 -->
<g id="node4" class="node">
<title>Node4</title>
<g id="a_node4"><a xlink:href="classcie_1_1geo_1_1CartesianIndexConverter.html" target="_top" xlink:title="Map flat grid indices to k&#45;dimensional ones.">
<polygon fill="white" stroke="black" points="139,-171.5 139,-305.5 296,-305.5 296,-171.5 139,-171.5"/>
<text text-anchor="start" x="147" y="-293.5" font-family="Helvetica,sans-Serif" font-size="10.00">cie::geo::CartesianIndex</text>
<text text-anchor="start" x="147" y="-282.5" font-family="Helvetica,sans-Serif" font-size="10.00">Converter&lt; Dim, TIndex,</text>
<text text-anchor="middle" x="217.5" y="-271.5" font-family="Helvetica,sans-Serif" font-size="10.00"> TFlat, ExecutionTag &gt;</text>
<polyline fill="none" stroke="black" points="139,-264.5 296,-264.5 "/>
<text text-anchor="middle" x="217.5" y="-252.5" font-family="Helvetica,sans-Serif" font-size="10.00"> </text>
<polyline fill="none" stroke="black" points="139,-245.5 296,-245.5 "/>
<text text-anchor="start" x="147" y="-233.5" font-family="Helvetica,sans-Serif" font-size="10.00">+ CartesianIndexConverter()</text>
<text text-anchor="start" x="147" y="-222.5" font-family="Helvetica,sans-Serif" font-size="10.00">+ CartesianIndexConverter()</text>
<text text-anchor="start" x="147" y="-211.5" font-family="Helvetica,sans-Serif" font-size="10.00">+ convert()</text>
<text text-anchor="start" x="147" y="-200.5" font-family="Helvetica,sans-Serif" font-size="10.00">+ size()</text>
<text text-anchor="start" x="147" y="-189.5" font-family="Helvetica,sans-Serif" font-size="10.00">+ setResolution()</text>
<text text-anchor="start" x="147" y="-178.5" font-family="Helvetica,sans-Serif" font-size="10.00">+ setResolution()</text>
</a>
</g>
</g>
<!-- Node4&#45;&gt;Node1 -->
<g id="edge4" class="edge">
<title>Node4&#45;&gt;Node1</title>
<path fill="none" stroke="#404040" d="M160.36,-171.03C149.57,-158.48 138.25,-145.31 127.38,-132.66"/>
<polygon fill="none" stroke="#404040" points="127.38,-132.66 120.43,-130.71 119.55,-123.56 126.5,-125.5 127.38,-132.66"/>
<text text-anchor="middle" x="200" y="-145" font-family="Helvetica,sans-Serif" font-size="10.00"> #_childIndexConverter</text>
</g>
</g>
</svg>
