<?xml version="1.0" encoding="UTF-8" standalone="no"?>
<!DOCTYPE svg PUBLIC "-//W3C//DTD SVG 1.1//EN"
 "http://www.w3.org/Graphics/SVG/1.1/DTD/svg11.dtd">
<!-- Generated by graphviz version 2.43.0 (0)
 -->
<!-- Title: cie::geo::CornerSampler&lt; TPrimitive &gt; Pages: 1 -->
<svg width="255pt" height="642pt"
 viewBox="0.00 0.00 255.00 642.00" xmlns="http://www.w3.org/2000/svg" xmlns:xlink="http://www.w3.org/1999/xlink">
<g id="graph0" class="graph" transform="scale(1 1) rotate(0) translate(4 638)">
<title>cie::geo::CornerSampler&lt; TPrimitive &gt;</title>
<polygon fill="white" stroke="transparent" points="-4,4 -4,-638 251,-638 251,4 -4,4"/>
<!-- Node1 -->
<g id="node1" class="node">
<title>Node1</title>
<g id="a_node1"><a xlink:title=" ">
<polygon fill="#bfbfbf" stroke="black" points="22,-0.5 22,-123.5 156,-123.5 156,-0.5 22,-0.5"/>
<text text-anchor="start" x="30" y="-111.5" font-family="Helvetica,sans-Serif" font-size="10.00">cie::geo::CornerSampler</text>
<text text-anchor="middle" x="89" y="-100.5" font-family="Helvetica,sans-Serif" font-size="10.00">&lt; TPrimitive &gt;</text>
<polyline fill="none" stroke="black" points="22,-93.5 156,-93.5 "/>
<text text-anchor="start" x="30" y="-81.5" font-family="Helvetica,sans-Serif" font-size="10.00"># _p_indexConverter</text>
<polyline fill="none" stroke="black" points="22,-74.5 156,-74.5 "/>
<text text-anchor="start" x="30" y="-62.5" font-family="Helvetica,sans-Serif" font-size="10.00">+ CornerSampler()</text>
<text text-anchor="start" x="30" y="-51.5" font-family="Helvetica,sans-Serif" font-size="10.00">+ getSamplePoint()</text>
<text text-anchor="start" x="30" y="-40.5" font-family="Helvetica,sans-Serif" font-size="10.00">+ size()</text>
<text text-anchor="start" x="30" y="-29.5" font-family="Helvetica,sans-Serif" font-size="10.00">+ CornerSampler()</text>
<text text-anchor="start" x="30" y="-18.5" font-family="Helvetica,sans-Serif" font-size="10.00">+ getSamplePoint()</text>
<text text-anchor="start" x="30" y="-7.5" font-family="Helvetica,sans-Serif" font-size="10.00">+ size()</text>
</a>
</g>
</g>
<!-- Node2 -->
<g id="node2" class="node">
<title>Node2</title>
<g id="a_node2"><a xlink:href="classcie_1_1geo_1_1PrimitiveSampler.html" target="_top" xlink:title=" ">
<polygon fill="white" stroke="black" points="16,-161.5 16,-251.5 162,-251.5 162,-161.5 16,-161.5"/>
<text text-anchor="start" x="24" y="-239.5" font-family="Helvetica,sans-Serif" font-size="10.00">cie::geo::PrimitiveSampler</text>
<text text-anchor="middle" x="89" y="-228.5" font-family="Helvetica,sans-Serif" font-size="10.00">&lt; TPrimitive &gt;</text>
<polyline fill="none" stroke="black" points="16,-221.5 162,-221.5 "/>
<text text-anchor="middle" x="89" y="-209.5" font-family="Helvetica,sans-Serif" font-size="10.00"> </text>
<polyline fill="none" stroke="black" points="16,-202.5 162,-202.5 "/>
<text text-anchor="start" x="24" y="-190.5" font-family="Helvetica,sans-Serif" font-size="10.00">+ ~PrimitiveSampler()</text>
<text text-anchor="start" x="24" y="-179.5" font-family="Helvetica,sans-Serif" font-size="10.00">+ getSamplePoint()</text>
<text text-anchor="start" x="24" y="-168.5" font-family="Helvetica,sans-Serif" font-size="10.00">+ size()</text>
</a>
</g>
</g>
<!-- Node2&#45;&gt;Node1 -->
<g id="edge1" class="edge">
<title>Node2&#45;&gt;Node1</title>
<path fill="none" stroke="midnightblue" d="M82.42,-151.18C82.23,-142.13 82.2,-132.7 82.32,-123.51"/>
<polygon fill="none" stroke="midnightblue" points="78.92,-151.29 82.7,-161.19 85.92,-151.1 78.92,-151.29"/>
</g>
<!-- Node2&#45;&gt;Node1 -->
<g id="edge6" class="edge">
<title>Node2&#45;&gt;Node1</title>
<path fill="none" stroke="midnightblue" d="M95.58,-151.18C95.77,-142.13 95.8,-132.7 95.68,-123.51"/>
<polygon fill="none" stroke="midnightblue" points="92.08,-151.1 95.3,-161.19 99.08,-151.29 92.08,-151.1"/>
</g>
<!-- Node3 -->
<g id="node3" class="node">
<title>Node3</title>
<g id="a_node3"><a xlink:href="classcie_1_1geo_1_1Traits.html" target="_top" xlink:title=" ">
<polygon fill="white" stroke="black" points="0,-427.5 0,-506.5 170,-506.5 170,-427.5 0,-427.5"/>
<text text-anchor="start" x="8" y="-494.5" font-family="Helvetica,sans-Serif" font-size="10.00">cie::geo::Traits&lt; Primitive</text>
<text text-anchor="start" x="8" y="-483.5" font-family="Helvetica,sans-Serif" font-size="10.00">Type::Dimension, PrimitiveType</text>
<text text-anchor="middle" x="85" y="-472.5" font-family="Helvetica,sans-Serif" font-size="10.00">::Coordinate &gt;</text>
<polyline fill="none" stroke="black" points="0,-465.5 170,-465.5 "/>
<text text-anchor="start" x="8" y="-453.5" font-family="Helvetica,sans-Serif" font-size="10.00">+ Dimension</text>
<polyline fill="none" stroke="black" points="0,-446.5 170,-446.5 "/>
<text text-anchor="middle" x="85" y="-434.5" font-family="Helvetica,sans-Serif" font-size="10.00"> </text>
</a>
</g>
</g>
<!-- Node3&#45;&gt;Node2 -->
<g id="edge2" class="edge">
<title>Node3&#45;&gt;Node2</title>
<path fill="none" stroke="midnightblue" d="M85.75,-417.22C86.49,-369.57 87.6,-297.68 88.32,-251.67"/>
<polygon fill="none" stroke="midnightblue" points="82.25,-417.25 85.6,-427.3 89.25,-417.36 82.25,-417.25"/>
</g>
<!-- Node5 -->
<g id="node5" class="node">
<title>Node5</title>
<g id="a_node5"><a xlink:href="classcie_1_1geo_1_1PrimitiveSampler.html" target="_top" xlink:title="Interface for computing sample points on primitives.">
<polygon fill="white" stroke="black" points="101,-299.5 101,-389.5 247,-389.5 247,-299.5 101,-299.5"/>
<text text-anchor="start" x="109" y="-377.5" font-family="Helvetica,sans-Serif" font-size="10.00">cie::geo::PrimitiveSampler</text>
<text text-anchor="middle" x="174" y="-366.5" font-family="Helvetica,sans-Serif" font-size="10.00">&lt; PrimitiveType &gt;</text>
<polyline fill="none" stroke="black" points="101,-359.5 247,-359.5 "/>
<text text-anchor="middle" x="174" y="-347.5" font-family="Helvetica,sans-Serif" font-size="10.00"> </text>
<polyline fill="none" stroke="black" points="101,-340.5 247,-340.5 "/>
<text text-anchor="start" x="109" y="-328.5" font-family="Helvetica,sans-Serif" font-size="10.00">+ ~PrimitiveSampler()</text>
<text text-anchor="start" x="109" y="-317.5" font-family="Helvetica,sans-Serif" font-size="10.00">+ getSamplePoint()</text>
<text text-anchor="start" x="109" y="-306.5" font-family="Helvetica,sans-Serif" font-size="10.00">+ size()</text>
</a>
</g>
</g>
<!-- Node3&#45;&gt;Node5 -->
<g id="edge5" class="edge">
<title>Node3&#45;&gt;Node5</title>
<path fill="none" stroke="midnightblue" d="M119.79,-418.9C126.9,-409.27 134.35,-399.18 141.38,-389.66"/>
<polygon fill="none" stroke="midnightblue" points="116.78,-417.09 113.65,-427.21 122.41,-421.25 116.78,-417.09"/>
</g>
<!-- Node4 -->
<g id="node4" class="node">
<title>Node4</title>
<g id="a_node4"><a xlink:href="classcie_1_1geo_1_1Traits.html" target="_top" xlink:title="Basic templated traits that every object has in GEO.">
<polygon fill="white" stroke="black" points="24,-565.5 24,-633.5 146,-633.5 146,-565.5 24,-565.5"/>
<text text-anchor="start" x="32" y="-621.5" font-family="Helvetica,sans-Serif" font-size="10.00">cie::geo::Traits&lt; Dim,</text>
<text text-anchor="middle" x="85" y="-610.5" font-family="Helvetica,sans-Serif" font-size="10.00"> TCoordinate &gt;</text>
<polyline fill="none" stroke="black" points="24,-603.5 146,-603.5 "/>
<text text-anchor="start" x="32" y="-591.5" font-family="Helvetica,sans-Serif" font-size="10.00">+ Dimension</text>
<polyline fill="none" stroke="black" points="24,-584.5 146,-584.5 "/>
<text text-anchor="middle" x="85" y="-572.5" font-family="Helvetica,sans-Serif" font-size="10.00"> </text>
</a>
</g>
</g>
<!-- Node4&#45;&gt;Node3 -->
<g id="edge3" class="edge">
<title>Node4&#45;&gt;Node3</title>
<path fill="none" stroke="orange" d="M85,-554.81C85,-539.26 85,-521.87 85,-506.77"/>
<polygon fill="orange" stroke="orange" points="81.5,-555.23 85,-565.23 88.5,-555.23 81.5,-555.23"/>
<text text-anchor="start" x="85" y="-539" font-family="Helvetica,sans-Serif" font-size="10.00"> &lt; PrimitiveType::Dimension,</text>
<text text-anchor="middle" x="156.5" y="-528" font-family="Helvetica,sans-Serif" font-size="10.00"> PrimitiveType::Coordinate &gt;</text>
</g>
<!-- Node5&#45;&gt;Node2 -->
<g id="edge4" class="edge">
<title>Node5&#45;&gt;Node2</title>
<path fill="none" stroke="orange" d="M140.95,-290.63C132.95,-277.82 124.48,-264.27 116.75,-251.9"/>
<polygon fill="orange" stroke="orange" points="138.13,-292.72 146.4,-299.34 144.07,-289.01 138.13,-292.72"/>
<text text-anchor="middle" x="172" y="-273" font-family="Helvetica,sans-Serif" font-size="10.00"> &lt; TPrimitive &gt;</text>
</g>
</g>
</svg>
