<?xml version="1.0" encoding="UTF-8" standalone="no"?>
<!DOCTYPE svg PUBLIC "-//W3C//DTD SVG 1.1//EN"
 "http://www.w3.org/Graphics/SVG/1.1/DTD/svg11.dtd">
<!-- Generated by graphviz version 2.43.0 (0)
 -->
<!-- Title: cie::geo::boolean::Box&lt; Dimension, CoordinateType &gt; Pages: 1 -->
<svg width="490pt" height="1052pt"
 viewBox="0.00 0.00 490.00 1052.00" xmlns="http://www.w3.org/2000/svg" xmlns:xlink="http://www.w3.org/1999/xlink">
<g id="graph0" class="graph" transform="scale(1 1) rotate(0) translate(4 1048)">
<title>cie::geo::boolean::Box&lt; Dimension, CoordinateType &gt;</title>
<polygon fill="white" stroke="transparent" points="-4,4 -4,-1048 486,-1048 486,4 -4,4"/>
<!-- Node1 -->
<g id="node1" class="node">
<title>Node1</title>
<g id="a_node1"><a xlink:title=" ">
<polygon fill="#bfbfbf" stroke="black" points="207,-0.5 207,-101.5 365,-101.5 365,-0.5 207,-0.5"/>
<text text-anchor="start" x="215" y="-89.5" font-family="Helvetica,sans-Serif" font-size="10.00">cie::geo::boolean::</text>
<text text-anchor="start" x="215" y="-78.5" font-family="Helvetica,sans-Serif" font-size="10.00">Box&lt; Dimension, Coordinate</text>
<text text-anchor="middle" x="286" y="-67.5" font-family="Helvetica,sans-Serif" font-size="10.00">Type &gt;</text>
<polyline fill="none" stroke="black" points="207,-60.5 365,-60.5 "/>
<text text-anchor="middle" x="286" y="-48.5" font-family="Helvetica,sans-Serif" font-size="10.00"> </text>
<polyline fill="none" stroke="black" points="207,-41.5 365,-41.5 "/>
<text text-anchor="start" x="215" y="-29.5" font-family="Helvetica,sans-Serif" font-size="10.00">+ Box()</text>
<text text-anchor="start" x="215" y="-18.5" font-family="Helvetica,sans-Serif" font-size="10.00">+ Box()</text>
<text text-anchor="start" x="215" y="-7.5" font-family="Helvetica,sans-Serif" font-size="10.00"># at()</text>
</a>
</g>
</g>
<!-- Node2 -->
<g id="node2" class="node">
<title>Node2</title>
<g id="a_node2"><a xlink:href="classcie_1_1geo_1_1Box.html" target="_top" xlink:title=" ">
<polygon fill="white" stroke="black" points="155,-139.5 155,-306.5 301,-306.5 301,-139.5 155,-139.5"/>
<text text-anchor="start" x="163" y="-294.5" font-family="Helvetica,sans-Serif" font-size="10.00">cie::geo::Box&lt; Dimension,</text>
<text text-anchor="middle" x="228" y="-283.5" font-family="Helvetica,sans-Serif" font-size="10.00"> CoordinateType &gt;</text>
<polyline fill="none" stroke="black" points="155,-276.5 301,-276.5 "/>
<text text-anchor="middle" x="228" y="-264.5" font-family="Helvetica,sans-Serif" font-size="10.00"> </text>
<polyline fill="none" stroke="black" points="155,-257.5 301,-257.5 "/>
<text text-anchor="start" x="163" y="-245.5" font-family="Helvetica,sans-Serif" font-size="10.00">+ Box()</text>
<text text-anchor="start" x="163" y="-234.5" font-family="Helvetica,sans-Serif" font-size="10.00">+ Box()</text>
<text text-anchor="start" x="163" y="-223.5" font-family="Helvetica,sans-Serif" font-size="10.00">+ Box()</text>
<text text-anchor="start" x="163" y="-212.5" font-family="Helvetica,sans-Serif" font-size="10.00">+ Box()</text>
<text text-anchor="start" x="163" y="-201.5" font-family="Helvetica,sans-Serif" font-size="10.00">+ operator=()</text>
<text text-anchor="start" x="163" y="-190.5" font-family="Helvetica,sans-Serif" font-size="10.00">+ isDegenerate()</text>
<text text-anchor="start" x="163" y="-179.5" font-family="Helvetica,sans-Serif" font-size="10.00">+ base()</text>
<text text-anchor="start" x="163" y="-168.5" font-family="Helvetica,sans-Serif" font-size="10.00">+ lengths()</text>
<text text-anchor="start" x="163" y="-157.5" font-family="Helvetica,sans-Serif" font-size="10.00">+ base()</text>
<text text-anchor="start" x="163" y="-146.5" font-family="Helvetica,sans-Serif" font-size="10.00">+ lengths()</text>
</a>
</g>
</g>
<!-- Node2&#45;&gt;Node1 -->
<g id="edge1" class="edge">
<title>Node2&#45;&gt;Node1</title>
<path fill="none" stroke="midnightblue" d="M259.44,-129.85C262.72,-120.23 265.96,-110.74 268.99,-101.86"/>
<polygon fill="none" stroke="midnightblue" points="256.07,-128.9 256.15,-139.49 262.69,-131.16 256.07,-128.9"/>
</g>
<!-- Node3 -->
<g id="node3" class="node">
<title>Node3</title>
<g id="a_node3"><a xlink:href="classcie_1_1geo_1_1AbsPrimitive.html" target="_top" xlink:title=" ">
<polygon fill="white" stroke="black" points="57,-382 57,-461 189,-461 189,-382 57,-382"/>
<text text-anchor="start" x="65" y="-449" font-family="Helvetica,sans-Serif" font-size="10.00">cie::geo::AbsPrimitive</text>
<text text-anchor="middle" x="123" y="-438" font-family="Helvetica,sans-Serif" font-size="10.00">&lt; Dimension, Double &gt;</text>
<polyline fill="none" stroke="black" points="57,-431 189,-431 "/>
<text text-anchor="middle" x="123" y="-419" font-family="Helvetica,sans-Serif" font-size="10.00"> </text>
<polyline fill="none" stroke="black" points="57,-412 189,-412 "/>
<text text-anchor="start" x="65" y="-400" font-family="Helvetica,sans-Serif" font-size="10.00">+ ~AbsPrimitive()</text>
<text text-anchor="start" x="65" y="-389" font-family="Helvetica,sans-Serif" font-size="10.00">+ isDegenerate()</text>
</a>
</g>
</g>
<!-- Node3&#45;&gt;Node2 -->
<g id="edge2" class="edge">
<title>Node3&#45;&gt;Node2</title>
<path fill="none" stroke="midnightblue" d="M148.48,-372.82C159.11,-352.91 171.78,-329.2 183.85,-306.62"/>
<polygon fill="none" stroke="midnightblue" points="145.37,-371.21 143.74,-381.68 151.54,-374.51 145.37,-371.21"/>
</g>
<!-- Node4 -->
<g id="node4" class="node">
<title>Node4</title>
<g id="a_node4"><a xlink:href="classcie_1_1geo_1_1Traits.html" target="_top" xlink:title=" ">
<polygon fill="white" stroke="black" points="0,-667.5 0,-735.5 154,-735.5 154,-667.5 0,-667.5"/>
<text text-anchor="start" x="8" y="-723.5" font-family="Helvetica,sans-Serif" font-size="10.00">cie::geo::Traits&lt; Dimension,</text>
<text text-anchor="middle" x="77" y="-712.5" font-family="Helvetica,sans-Serif" font-size="10.00"> CoordinateType &gt;</text>
<polyline fill="none" stroke="black" points="0,-705.5 154,-705.5 "/>
<text text-anchor="start" x="8" y="-693.5" font-family="Helvetica,sans-Serif" font-size="10.00">+ Dimension</text>
<polyline fill="none" stroke="black" points="0,-686.5 154,-686.5 "/>
<text text-anchor="middle" x="77" y="-674.5" font-family="Helvetica,sans-Serif" font-size="10.00"> </text>
</a>
</g>
</g>
<!-- Node4&#45;&gt;Node3 -->
<g id="edge3" class="edge">
<title>Node4&#45;&gt;Node3</title>
<path fill="none" stroke="midnightblue" d="M83.21,-657.09C88.05,-623.89 95.09,-577 102,-536 106.21,-511 111.39,-483 115.55,-461.06"/>
<polygon fill="none" stroke="midnightblue" points="79.69,-656.97 81.72,-667.37 86.62,-657.97 79.69,-656.97"/>
</g>
<!-- Node5 -->
<g id="node5" class="node">
<title>Node5</title>
<g id="a_node5"><a xlink:href="classcie_1_1geo_1_1Traits.html" target="_top" xlink:title="Basic templated traits that every object has in GEO.">
<polygon fill="white" stroke="black" points="169,-870.5 169,-938.5 291,-938.5 291,-870.5 169,-870.5"/>
<text text-anchor="start" x="177" y="-926.5" font-family="Helvetica,sans-Serif" font-size="10.00">cie::geo::Traits&lt; Dim,</text>
<text text-anchor="middle" x="230" y="-915.5" font-family="Helvetica,sans-Serif" font-size="10.00"> TCoordinate &gt;</text>
<polyline fill="none" stroke="black" points="169,-908.5 291,-908.5 "/>
<text text-anchor="middle" x="230" y="-896.5" font-family="Helvetica,sans-Serif" font-size="10.00"> </text>
<polyline fill="none" stroke="black" points="169,-889.5 291,-889.5 "/>
<text text-anchor="middle" x="230" y="-877.5" font-family="Helvetica,sans-Serif" font-size="10.00"> </text>
</a>
</g>
</g>
<!-- Node5&#45;&gt;Node4 -->
<g id="edge4" class="edge">
<title>Node5&#45;&gt;Node4</title>
<path fill="none" stroke="orange" d="M158.76,-891.71C115.47,-882.93 66.1,-869.45 53,-852 27.75,-818.36 43.44,-768.37 58.76,-735.61"/>
<polygon fill="orange" stroke="orange" points="158.25,-895.18 168.74,-893.67 159.6,-888.31 158.25,-895.18"/>
<text text-anchor="middle" x="133" y="-844" font-family="Helvetica,sans-Serif" font-size="10.00"> &lt; Dimension, CoordinateType &gt;</text>
</g>
<!-- Node8 -->
<g id="node8" class="node">
<title>Node8</title>
<g id="a_node8"><a xlink:href="classcie_1_1geo_1_1Traits.html" target="_top" xlink:title=" ">
<polygon fill="white" stroke="black" points="130,-754.5 130,-822.5 284,-822.5 284,-754.5 130,-754.5"/>
<text text-anchor="start" x="138" y="-810.5" font-family="Helvetica,sans-Serif" font-size="10.00">cie::geo::Traits&lt; Dimension,</text>
<text text-anchor="middle" x="207" y="-799.5" font-family="Helvetica,sans-Serif" font-size="10.00"> Double &gt;</text>
<polyline fill="none" stroke="black" points="130,-792.5 284,-792.5 "/>
<text text-anchor="start" x="138" y="-780.5" font-family="Helvetica,sans-Serif" font-size="10.00">+ Dimension</text>
<polyline fill="none" stroke="black" points="130,-773.5 284,-773.5 "/>
<text text-anchor="middle" x="207" y="-761.5" font-family="Helvetica,sans-Serif" font-size="10.00"> </text>
</a>
</g>
</g>
<!-- Node5&#45;&gt;Node8 -->
<g id="edge8" class="edge">
<title>Node5&#45;&gt;Node8</title>
<path fill="none" stroke="orange" d="M221.24,-860.06C218.73,-847.64 216.04,-834.32 213.68,-822.62"/>
<polygon fill="orange" stroke="orange" points="217.88,-861.11 223.29,-870.22 224.74,-859.73 217.88,-861.11"/>
<text text-anchor="middle" x="278.5" y="-844" font-family="Helvetica,sans-Serif" font-size="10.00"> &lt; Dimension, Double &gt;</text>
</g>
<!-- Node11 -->
<g id="node11" class="node">
<title>Node11</title>
<g id="a_node11"><a xlink:href="classcie_1_1geo_1_1Traits.html" target="_top" xlink:title=" ">
<polygon fill="white" stroke="black" points="317.5,-754.5 317.5,-822.5 426.5,-822.5 426.5,-754.5 317.5,-754.5"/>
<text text-anchor="start" x="325.5" y="-810.5" font-family="Helvetica,sans-Serif" font-size="10.00">cie::geo::Traits&lt; N,</text>
<text text-anchor="middle" x="372" y="-799.5" font-family="Helvetica,sans-Serif" font-size="10.00"> TCoordinate &gt;</text>
<polyline fill="none" stroke="black" points="317.5,-792.5 426.5,-792.5 "/>
<text text-anchor="start" x="325.5" y="-780.5" font-family="Helvetica,sans-Serif" font-size="10.00">+ Dimension</text>
<polyline fill="none" stroke="black" points="317.5,-773.5 426.5,-773.5 "/>
<text text-anchor="middle" x="372" y="-761.5" font-family="Helvetica,sans-Serif" font-size="10.00"> </text>
</a>
</g>
</g>
<!-- Node5&#45;&gt;Node11 -->
<g id="edge12" class="edge">
<title>Node5&#45;&gt;Node11</title>
<path fill="none" stroke="orange" d="M300.46,-880.13C315.43,-872.82 330.25,-863.56 342,-852 350.24,-843.9 356.52,-833.08 361.15,-822.73"/>
<polygon fill="orange" stroke="orange" points="298.75,-877.06 291.14,-884.43 301.68,-883.42 298.75,-877.06"/>
<text text-anchor="middle" x="399" y="-844" font-family="Helvetica,sans-Serif" font-size="10.00"> &lt; N, TCoordinate &gt;</text>
</g>
<!-- Node6 -->
<g id="node6" class="node">
<title>Node6</title>
<g id="a_node6"><a xlink:title=" ">
<polygon fill="white" stroke="#bfbfbf" points="207.5,-986.5 207.5,-1043.5 252.5,-1043.5 252.5,-986.5 207.5,-986.5"/>
<text text-anchor="middle" x="230" y="-1031.5" font-family="Helvetica,sans-Serif" font-size="10.00">size_t</text>
<polyline fill="none" stroke="#bfbfbf" points="207.5,-1024.5 252.5,-1024.5 "/>
<text text-anchor="middle" x="230" y="-1012.5" font-family="Helvetica,sans-Serif" font-size="10.00"> </text>
<polyline fill="none" stroke="#bfbfbf" points="207.5,-1005.5 252.5,-1005.5 "/>
<text text-anchor="middle" x="230" y="-993.5" font-family="Helvetica,sans-Serif" font-size="10.00"> </text>
</a>
</g>
</g>
<!-- Node6&#45;&gt;Node5 -->
<g id="edge5" class="edge">
<title>Node6&#45;&gt;Node5</title>
<path fill="none" stroke="#404040" d="M230,-986.34C230,-975.53 230,-962.85 230,-950.77"/>
<polygon fill="none" stroke="#404040" points="230,-950.52 226,-944.52 230,-938.52 234,-944.52 230,-950.52"/>
<text text-anchor="middle" x="262" y="-960" font-family="Helvetica,sans-Serif" font-size="10.00"> +Dimension</text>
</g>
<!-- Node7 -->
<g id="node7" class="node">
<title>Node7</title>
<g id="a_node7"><a xlink:href="classcie_1_1geo_1_1AbsPrimitive.html" target="_top" xlink:title=" ">
<polygon fill="white" stroke="black" points="111.5,-553 111.5,-632 284.5,-632 284.5,-553 111.5,-553"/>
<text text-anchor="start" x="119.5" y="-620" font-family="Helvetica,sans-Serif" font-size="10.00">cie::geo::AbsPrimitive</text>
<text text-anchor="middle" x="198" y="-609" font-family="Helvetica,sans-Serif" font-size="10.00">&lt; Dimension, CoordinateType &gt;</text>
<polyline fill="none" stroke="black" points="111.5,-602 284.5,-602 "/>
<text text-anchor="middle" x="198" y="-590" font-family="Helvetica,sans-Serif" font-size="10.00"> </text>
<polyline fill="none" stroke="black" points="111.5,-583 284.5,-583 "/>
<text text-anchor="start" x="119.5" y="-571" font-family="Helvetica,sans-Serif" font-size="10.00">+ ~AbsPrimitive()</text>
<text text-anchor="start" x="119.5" y="-560" font-family="Helvetica,sans-Serif" font-size="10.00">+ isDegenerate()</text>
</a>
</g>
</g>
<!-- Node7&#45;&gt;Node3 -->
<g id="edge6" class="edge">
<title>Node7&#45;&gt;Node3</title>
<path fill="none" stroke="orange" d="M176.66,-543.4C165.08,-517.33 150.97,-485.53 140.13,-461.09"/>
<polygon fill="orange" stroke="orange" points="173.54,-545.01 180.79,-552.73 179.94,-542.17 173.54,-545.01"/>
<text text-anchor="middle" x="224.5" y="-504.5" font-family="Helvetica,sans-Serif" font-size="10.00"> &lt; Dimension, Double &gt;</text>
</g>
<!-- Node8&#45;&gt;Node7 -->
<g id="edge7" class="edge">
<title>Node8&#45;&gt;Node7</title>
<path fill="none" stroke="midnightblue" d="M204.99,-744.15C203.43,-710.55 201.29,-664.41 199.79,-632.07"/>
<polygon fill="none" stroke="midnightblue" points="201.49,-744.32 205.45,-754.15 208.49,-744 201.49,-744.32"/>
</g>
<!-- Node9 -->
<g id="node9" class="node">
<title>Node9</title>
<g id="a_node9"><a xlink:title=" ">
<polygon fill="white" stroke="#bfbfbf" points="207.5,-393 207.5,-450 248.5,-450 248.5,-393 207.5,-393"/>
<text text-anchor="middle" x="228" y="-438" font-family="Helvetica,sans-Serif" font-size="10.00">Point</text>
<polyline fill="none" stroke="#bfbfbf" points="207.5,-431 248.5,-431 "/>
<text text-anchor="middle" x="228" y="-419" font-family="Helvetica,sans-Serif" font-size="10.00"> </text>
<polyline fill="none" stroke="#bfbfbf" points="207.5,-412 248.5,-412 "/>
<text text-anchor="middle" x="228" y="-400" font-family="Helvetica,sans-Serif" font-size="10.00"> </text>
</a>
</g>
</g>
<!-- Node9&#45;&gt;Node2 -->
<g id="edge9" class="edge">
<title>Node9&#45;&gt;Node2</title>
<path fill="none" stroke="#404040" d="M228,-392.76C228,-373.31 228,-346.07 228,-319.14"/>
<polygon fill="none" stroke="#404040" points="228,-318.82 224,-312.82 228,-306.82 232,-312.82 228,-318.82"/>
<text text-anchor="middle" x="253" y="-339" font-family="Helvetica,sans-Serif" font-size="10.00"> #_base</text>
<text text-anchor="middle" x="253" y="-328" font-family="Helvetica,sans-Serif" font-size="10.00">#_lengths</text>
</g>
<!-- Node10 -->
<g id="node10" class="node">
<title>Node10</title>
<g id="a_node10"><a xlink:href="classcie_1_1geo_1_1Object.html" target="_top" xlink:title=" ">
<polygon fill="white" stroke="black" points="266.5,-365.5 266.5,-477.5 425.5,-477.5 425.5,-365.5 266.5,-365.5"/>
<text text-anchor="start" x="274.5" y="-465.5" font-family="Helvetica,sans-Serif" font-size="10.00">cie::geo::Object&lt; Dimension,</text>
<text text-anchor="middle" x="346" y="-454.5" font-family="Helvetica,sans-Serif" font-size="10.00"> Bool, Double &gt;</text>
<polyline fill="none" stroke="black" points="266.5,-447.5 425.5,-447.5 "/>
<text text-anchor="middle" x="346" y="-435.5" font-family="Helvetica,sans-Serif" font-size="10.00"> </text>
<polyline fill="none" stroke="black" points="266.5,-428.5 425.5,-428.5 "/>
<text text-anchor="start" x="274.5" y="-416.5" font-family="Helvetica,sans-Serif" font-size="10.00">+ ~Object()</text>
<text text-anchor="start" x="274.5" y="-405.5" font-family="Helvetica,sans-Serif" font-size="10.00">+ evaluate()</text>
<text text-anchor="start" x="274.5" y="-394.5" font-family="Helvetica,sans-Serif" font-size="10.00">+ evaluate()</text>
<text text-anchor="start" x="274.5" y="-383.5" font-family="Helvetica,sans-Serif" font-size="10.00">+ evaluate()</text>
<text text-anchor="start" x="274.5" y="-372.5" font-family="Helvetica,sans-Serif" font-size="10.00">+ at()</text>
</a>
</g>
</g>
<!-- Node10&#45;&gt;Node1 -->
<g id="edge10" class="edge">
<title>Node10&#45;&gt;Node1</title>
<path fill="none" stroke="midnightblue" d="M340.32,-355.36C334.69,-298.03 324.76,-212.48 310,-139 307.56,-126.86 304.34,-113.93 301.06,-101.85"/>
<polygon fill="none" stroke="midnightblue" points="336.84,-355.75 341.28,-365.37 343.81,-355.08 336.84,-355.75"/>
</g>
<!-- Node11&#45;&gt;Node10 -->
<g id="edge11" class="edge">
<title>Node11&#45;&gt;Node10</title>
<path fill="none" stroke="midnightblue" d="M359.76,-744.32C352.72,-717.21 344.58,-681.36 341,-649 335.48,-599.08 339.89,-586.21 341,-536 341.42,-516.97 342.23,-496.16 343.08,-477.62"/>
<polygon fill="none" stroke="midnightblue" points="356.45,-745.49 362.39,-754.26 363.22,-743.7 356.45,-745.49"/>
</g>
<!-- Node12 -->
<g id="node12" class="node">
<title>Node12</title>
<g id="a_node12"><a xlink:href="classcie_1_1geo_1_1Object.html" target="_top" xlink:title="Interface for point&#45;queriable objects.">
<polygon fill="white" stroke="black" points="350,-536.5 350,-648.5 478,-648.5 478,-536.5 350,-536.5"/>
<text text-anchor="start" x="358" y="-636.5" font-family="Helvetica,sans-Serif" font-size="10.00">cie::geo::Object&lt; N,</text>
<text text-anchor="middle" x="414" y="-625.5" font-family="Helvetica,sans-Serif" font-size="10.00"> TValue, TCoordinate &gt;</text>
<polyline fill="none" stroke="black" points="350,-618.5 478,-618.5 "/>
<text text-anchor="middle" x="414" y="-606.5" font-family="Helvetica,sans-Serif" font-size="10.00"> </text>
<polyline fill="none" stroke="black" points="350,-599.5 478,-599.5 "/>
<text text-anchor="start" x="358" y="-587.5" font-family="Helvetica,sans-Serif" font-size="10.00">+ ~Object()</text>
<text text-anchor="start" x="358" y="-576.5" font-family="Helvetica,sans-Serif" font-size="10.00">+ evaluate()</text>
<text text-anchor="start" x="358" y="-565.5" font-family="Helvetica,sans-Serif" font-size="10.00">+ evaluate()</text>
<text text-anchor="start" x="358" y="-554.5" font-family="Helvetica,sans-Serif" font-size="10.00">+ evaluate()</text>
<text text-anchor="start" x="358" y="-543.5" font-family="Helvetica,sans-Serif" font-size="10.00">+ at()</text>
</a>
</g>
</g>
<!-- Node11&#45;&gt;Node12 -->
<g id="edge14" class="edge">
<title>Node11&#45;&gt;Node12</title>
<path fill="none" stroke="midnightblue" d="M381.37,-744.2C387.47,-716.04 395.48,-679.06 402.03,-648.78"/>
<polygon fill="none" stroke="midnightblue" points="377.92,-743.64 379.22,-754.15 384.76,-745.12 377.92,-743.64"/>
</g>
<!-- Node12&#45;&gt;Node10 -->
<g id="edge13" class="edge">
<title>Node12&#45;&gt;Node10</title>
<path fill="none" stroke="orange" d="M387.95,-526.77C381.44,-510.57 374.51,-493.35 368.2,-477.67"/>
<polygon fill="orange" stroke="orange" points="384.75,-528.19 391.73,-536.16 391.25,-525.58 384.75,-528.19"/>
<text text-anchor="start" x="384" y="-510" font-family="Helvetica,sans-Serif" font-size="10.00"> &lt; Dimension, Bool,</text>
<text text-anchor="middle" x="433" y="-499" font-family="Helvetica,sans-Serif" font-size="10.00"> Double &gt;</text>
</g>
</g>
</svg>
