<?xml version="1.0" encoding="UTF-8" standalone="no"?>
<!DOCTYPE svg PUBLIC "-//W3C//DTD SVG 1.1//EN"
 "http://www.w3.org/Graphics/SVG/1.1/DTD/svg11.dtd">
<!-- Generated by graphviz version 2.43.0 (0)
 -->
<!-- Title: cie::geo::Box&lt; Dimension, CoordinateType &gt; Pages: 1 -->
<svg width="485pt" height="1170pt"
 viewBox="0.00 0.00 484.50 1170.00" xmlns="http://www.w3.org/2000/svg" xmlns:xlink="http://www.w3.org/1999/xlink">
<g id="graph0" class="graph" transform="scale(1 1) rotate(0) translate(4 1166)">
<title>cie::geo::Box&lt; Dimension, CoordinateType &gt;</title>
<polygon fill="white" stroke="transparent" points="-4,4 -4,-1166 480.5,-1166 480.5,4 -4,4"/>
<!-- Node1 -->
<g id="node1" class="node">
<title>Node1</title>
<g id="a_node1"><a xlink:title=" ">
<polygon fill="#bfbfbf" stroke="black" points="54,-449.5 54,-627.5 200,-627.5 200,-449.5 54,-449.5"/>
<text text-anchor="start" x="62" y="-615.5" font-family="Helvetica,sans-Serif" font-size="10.00">cie::geo::Box&lt; Dimension,</text>
<text text-anchor="middle" x="127" y="-604.5" font-family="Helvetica,sans-Serif" font-size="10.00"> CoordinateType &gt;</text>
<polyline fill="none" stroke="black" points="54,-597.5 200,-597.5 "/>
<text text-anchor="start" x="62" y="-585.5" font-family="Helvetica,sans-Serif" font-size="10.00"># _base</text>
<text text-anchor="start" x="62" y="-574.5" font-family="Helvetica,sans-Serif" font-size="10.00"># _lengths</text>
<polyline fill="none" stroke="black" points="54,-567.5 200,-567.5 "/>
<text text-anchor="start" x="62" y="-555.5" font-family="Helvetica,sans-Serif" font-size="10.00">+ Box()</text>
<text text-anchor="start" x="62" y="-544.5" font-family="Helvetica,sans-Serif" font-size="10.00">+ Box()</text>
<text text-anchor="start" x="62" y="-533.5" font-family="Helvetica,sans-Serif" font-size="10.00">+ Box()</text>
<text text-anchor="start" x="62" y="-522.5" font-family="Helvetica,sans-Serif" font-size="10.00">+ Box()</text>
<text text-anchor="start" x="62" y="-511.5" font-family="Helvetica,sans-Serif" font-size="10.00">+ operator=()</text>
<text text-anchor="start" x="62" y="-500.5" font-family="Helvetica,sans-Serif" font-size="10.00">+ isDegenerate()</text>
<text text-anchor="start" x="62" y="-489.5" font-family="Helvetica,sans-Serif" font-size="10.00">+ base()</text>
<text text-anchor="start" x="62" y="-478.5" font-family="Helvetica,sans-Serif" font-size="10.00">+ lengths()</text>
<text text-anchor="start" x="62" y="-467.5" font-family="Helvetica,sans-Serif" font-size="10.00">+ base()</text>
<text text-anchor="start" x="62" y="-456.5" font-family="Helvetica,sans-Serif" font-size="10.00">+ lengths()</text>
</a>
</g>
</g>
<!-- Node7 -->
<g id="node7" class="node">
<title>Node7</title>
<g id="a_node7"><a xlink:href="classcie_1_1geo_1_1boolean_1_1Box.html" target="_top" xlink:title=" ">
<polygon fill="white" stroke="black" points="72.5,-172.5 72.5,-262.5 223.5,-262.5 223.5,-172.5 72.5,-172.5"/>
<text text-anchor="start" x="80.5" y="-250.5" font-family="Helvetica,sans-Serif" font-size="10.00">cie::geo::boolean::</text>
<text text-anchor="middle" x="148" y="-239.5" font-family="Helvetica,sans-Serif" font-size="10.00">Box&lt; Dimension, Double &gt;</text>
<polyline fill="none" stroke="black" points="72.5,-232.5 223.5,-232.5 "/>
<text text-anchor="middle" x="148" y="-220.5" font-family="Helvetica,sans-Serif" font-size="10.00"> </text>
<polyline fill="none" stroke="black" points="72.5,-213.5 223.5,-213.5 "/>
<text text-anchor="start" x="80.5" y="-201.5" font-family="Helvetica,sans-Serif" font-size="10.00">+ Box()</text>
<text text-anchor="start" x="80.5" y="-190.5" font-family="Helvetica,sans-Serif" font-size="10.00">+ Box()</text>
<text text-anchor="start" x="80.5" y="-179.5" font-family="Helvetica,sans-Serif" font-size="10.00"># at()</text>
</a>
</g>
</g>
<!-- Node1&#45;&gt;Node7 -->
<g id="edge7" class="edge">
<title>Node1&#45;&gt;Node7</title>
<path fill="none" stroke="midnightblue" d="M127.43,-439.25C128.28,-399.1 130.13,-352.26 134,-310 135.42,-294.48 137.78,-277.58 140.15,-262.58"/>
<polygon fill="none" stroke="midnightblue" points="123.93,-439.23 127.23,-449.3 130.93,-439.37 123.93,-439.23"/>
</g>
<!-- Node9 -->
<g id="node9" class="node">
<title>Node9</title>
<g id="a_node9"><a xlink:href="classcie_1_1geo_1_1boolean_1_1Box.html" target="_top" xlink:title=" ">
<polygon fill="white" stroke="black" points="143,-310.5 143,-411.5 301,-411.5 301,-310.5 143,-310.5"/>
<text text-anchor="start" x="151" y="-399.5" font-family="Helvetica,sans-Serif" font-size="10.00">cie::geo::boolean::</text>
<text text-anchor="start" x="151" y="-388.5" font-family="Helvetica,sans-Serif" font-size="10.00">Box&lt; Dimension, Coordinate</text>
<text text-anchor="middle" x="222" y="-377.5" font-family="Helvetica,sans-Serif" font-size="10.00">Type &gt;</text>
<polyline fill="none" stroke="black" points="143,-370.5 301,-370.5 "/>
<text text-anchor="middle" x="222" y="-358.5" font-family="Helvetica,sans-Serif" font-size="10.00"> </text>
<polyline fill="none" stroke="black" points="143,-351.5 301,-351.5 "/>
<text text-anchor="start" x="151" y="-339.5" font-family="Helvetica,sans-Serif" font-size="10.00">+ Box()</text>
<text text-anchor="start" x="151" y="-328.5" font-family="Helvetica,sans-Serif" font-size="10.00">+ Box()</text>
<text text-anchor="start" x="151" y="-317.5" font-family="Helvetica,sans-Serif" font-size="10.00"># at()</text>
</a>
</g>
</g>
<!-- Node1&#45;&gt;Node9 -->
<g id="edge10" class="edge">
<title>Node1&#45;&gt;Node9</title>
<path fill="none" stroke="midnightblue" d="M179.41,-440.67C184.83,-430.66 190.16,-420.82 195.12,-411.66"/>
<polygon fill="none" stroke="midnightblue" points="176.32,-439.03 174.64,-449.49 182.48,-442.36 176.32,-439.03"/>
</g>
<!-- Node2 -->
<g id="node2" class="node">
<title>Node2</title>
<g id="a_node2"><a xlink:href="classcie_1_1geo_1_1AbsPrimitive.html" target="_top" xlink:title=" ">
<polygon fill="white" stroke="black" points="61,-665.5 61,-744.5 193,-744.5 193,-665.5 61,-665.5"/>
<text text-anchor="start" x="69" y="-732.5" font-family="Helvetica,sans-Serif" font-size="10.00">cie::geo::AbsPrimitive</text>
<text text-anchor="middle" x="127" y="-721.5" font-family="Helvetica,sans-Serif" font-size="10.00">&lt; Dimension, Double &gt;</text>
<polyline fill="none" stroke="black" points="61,-714.5 193,-714.5 "/>
<text text-anchor="middle" x="127" y="-702.5" font-family="Helvetica,sans-Serif" font-size="10.00"> </text>
<polyline fill="none" stroke="black" points="61,-695.5 193,-695.5 "/>
<text text-anchor="start" x="69" y="-683.5" font-family="Helvetica,sans-Serif" font-size="10.00">+ ~AbsPrimitive()</text>
<text text-anchor="start" x="69" y="-672.5" font-family="Helvetica,sans-Serif" font-size="10.00">+ isDegenerate()</text>
</a>
</g>
</g>
<!-- Node2&#45;&gt;Node1 -->
<g id="edge1" class="edge">
<title>Node2&#45;&gt;Node1</title>
<path fill="none" stroke="midnightblue" d="M127,-655.39C127,-646.56 127,-637.11 127,-627.55"/>
<polygon fill="none" stroke="midnightblue" points="123.5,-655.43 127,-665.43 130.5,-655.43 123.5,-655.43"/>
</g>
<!-- Node3 -->
<g id="node3" class="node">
<title>Node3</title>
<g id="a_node3"><a xlink:href="classcie_1_1geo_1_1Traits.html" target="_top" xlink:title=" ">
<polygon fill="white" stroke="black" points="0,-890.5 0,-958.5 154,-958.5 154,-890.5 0,-890.5"/>
<text text-anchor="start" x="8" y="-946.5" font-family="Helvetica,sans-Serif" font-size="10.00">cie::geo::Traits&lt; Dimension,</text>
<text text-anchor="middle" x="77" y="-935.5" font-family="Helvetica,sans-Serif" font-size="10.00"> CoordinateType &gt;</text>
<polyline fill="none" stroke="black" points="0,-928.5 154,-928.5 "/>
<text text-anchor="start" x="8" y="-916.5" font-family="Helvetica,sans-Serif" font-size="10.00">+ Dimension</text>
<polyline fill="none" stroke="black" points="0,-909.5 154,-909.5 "/>
<text text-anchor="middle" x="77" y="-897.5" font-family="Helvetica,sans-Serif" font-size="10.00"> </text>
</a>
</g>
</g>
<!-- Node3&#45;&gt;Node2 -->
<g id="edge2" class="edge">
<title>Node3&#45;&gt;Node2</title>
<path fill="none" stroke="midnightblue" d="M86.86,-880.6C95.94,-841.11 109.29,-783.03 118.07,-744.87"/>
<polygon fill="none" stroke="midnightblue" points="83.42,-879.94 84.59,-890.47 90.25,-881.5 83.42,-879.94"/>
</g>
<!-- Node4 -->
<g id="node4" class="node">
<title>Node4</title>
<g id="a_node4"><a xlink:href="classcie_1_1geo_1_1Traits.html" target="_top" xlink:title="Basic templated traits that every object has in GEO.">
<polygon fill="white" stroke="black" points="90,-1093.5 90,-1161.5 212,-1161.5 212,-1093.5 90,-1093.5"/>
<text text-anchor="start" x="98" y="-1149.5" font-family="Helvetica,sans-Serif" font-size="10.00">cie::geo::Traits&lt; Dim,</text>
<text text-anchor="middle" x="151" y="-1138.5" font-family="Helvetica,sans-Serif" font-size="10.00"> TCoordinate &gt;</text>
<polyline fill="none" stroke="black" points="90,-1131.5 212,-1131.5 "/>
<text text-anchor="start" x="98" y="-1119.5" font-family="Helvetica,sans-Serif" font-size="10.00">+ Dimension</text>
<polyline fill="none" stroke="black" points="90,-1112.5 212,-1112.5 "/>
<text text-anchor="middle" x="151" y="-1100.5" font-family="Helvetica,sans-Serif" font-size="10.00"> </text>
</a>
</g>
</g>
<!-- Node4&#45;&gt;Node3 -->
<g id="edge3" class="edge">
<title>Node4&#45;&gt;Node3</title>
<path fill="none" stroke="orange" d="M80.94,-1099.66C71.39,-1093.03 62.87,-1084.91 57,-1075 35.91,-1039.4 48.47,-990.8 61.18,-958.8"/>
<polygon fill="orange" stroke="orange" points="79.24,-1102.72 89.56,-1105.11 82.98,-1096.81 79.24,-1102.72"/>
<text text-anchor="middle" x="137" y="-1067" font-family="Helvetica,sans-Serif" font-size="10.00"> &lt; Dimension, CoordinateType &gt;</text>
</g>
<!-- Node6 -->
<g id="node6" class="node">
<title>Node6</title>
<g id="a_node6"><a xlink:href="classcie_1_1geo_1_1Traits.html" target="_top" xlink:title=" ">
<polygon fill="white" stroke="black" points="163,-977.5 163,-1045.5 317,-1045.5 317,-977.5 163,-977.5"/>
<text text-anchor="start" x="171" y="-1033.5" font-family="Helvetica,sans-Serif" font-size="10.00">cie::geo::Traits&lt; Dimension,</text>
<text text-anchor="middle" x="240" y="-1022.5" font-family="Helvetica,sans-Serif" font-size="10.00"> Double &gt;</text>
<polyline fill="none" stroke="black" points="163,-1015.5 317,-1015.5 "/>
<text text-anchor="start" x="171" y="-1003.5" font-family="Helvetica,sans-Serif" font-size="10.00">+ Dimension</text>
<polyline fill="none" stroke="black" points="163,-996.5 317,-996.5 "/>
<text text-anchor="middle" x="240" y="-984.5" font-family="Helvetica,sans-Serif" font-size="10.00"> </text>
</a>
</g>
</g>
<!-- Node4&#45;&gt;Node6 -->
<g id="edge6" class="edge">
<title>Node4&#45;&gt;Node6</title>
<path fill="none" stroke="orange" d="M211.57,-1086.29C215.01,-1082.72 218.21,-1078.95 221,-1075 227.09,-1066.39 231.27,-1055.79 234.11,-1045.78"/>
<polygon fill="orange" stroke="orange" points="209,-1083.9 204.18,-1093.33 213.83,-1088.96 209,-1083.9"/>
<text text-anchor="middle" x="286.5" y="-1067" font-family="Helvetica,sans-Serif" font-size="10.00"> &lt; Dimension, Double &gt;</text>
</g>
<!-- Node5 -->
<g id="node5" class="node">
<title>Node5</title>
<g id="a_node5"><a xlink:href="classcie_1_1geo_1_1AbsPrimitive.html" target="_top" xlink:title=" ">
<polygon fill="white" stroke="black" points="143.5,-792.5 143.5,-871.5 316.5,-871.5 316.5,-792.5 143.5,-792.5"/>
<text text-anchor="start" x="151.5" y="-859.5" font-family="Helvetica,sans-Serif" font-size="10.00">cie::geo::AbsPrimitive</text>
<text text-anchor="middle" x="230" y="-848.5" font-family="Helvetica,sans-Serif" font-size="10.00">&lt; Dimension, CoordinateType &gt;</text>
<polyline fill="none" stroke="black" points="143.5,-841.5 316.5,-841.5 "/>
<text text-anchor="middle" x="230" y="-829.5" font-family="Helvetica,sans-Serif" font-size="10.00"> </text>
<polyline fill="none" stroke="black" points="143.5,-822.5 316.5,-822.5 "/>
<text text-anchor="start" x="151.5" y="-810.5" font-family="Helvetica,sans-Serif" font-size="10.00">+ ~AbsPrimitive()</text>
<text text-anchor="start" x="151.5" y="-799.5" font-family="Helvetica,sans-Serif" font-size="10.00">+ isDegenerate()</text>
</a>
</g>
</g>
<!-- Node5&#45;&gt;Node2 -->
<g id="edge4" class="edge">
<title>Node5&#45;&gt;Node2</title>
<path fill="none" stroke="orange" d="M191.65,-784.46C180.84,-771.34 169.2,-757.21 158.82,-744.61"/>
<polygon fill="orange" stroke="orange" points="189.2,-786.98 198.26,-792.48 194.6,-782.53 189.2,-786.98"/>
<text text-anchor="middle" x="240.5" y="-766" font-family="Helvetica,sans-Serif" font-size="10.00"> &lt; Dimension, Double &gt;</text>
</g>
<!-- Node6&#45;&gt;Node5 -->
<g id="edge5" class="edge">
<title>Node6&#45;&gt;Node5</title>
<path fill="none" stroke="midnightblue" d="M237.54,-966.83C235.9,-937.73 233.77,-899.83 232.19,-871.8"/>
<polygon fill="none" stroke="midnightblue" points="234.06,-967.33 238.12,-977.11 241.05,-966.93 234.06,-967.33"/>
</g>
<!-- Node8 -->
<g id="node8" class="node">
<title>Node8</title>
<g id="a_node8"><a xlink:href="classcie_1_1geo_1_1AABBox.html" target="_top" xlink:title=" ">
<polygon fill="white" stroke="black" points="131.5,-0.5 131.5,-134.5 298.5,-134.5 298.5,-0.5 131.5,-0.5"/>
<text text-anchor="start" x="139.5" y="-122.5" font-family="Helvetica,sans-Serif" font-size="10.00">cie::geo::AABBox&lt; Dimension,</text>
<text text-anchor="middle" x="215" y="-111.5" font-family="Helvetica,sans-Serif" font-size="10.00"> CoordinateType &gt;</text>
<polyline fill="none" stroke="black" points="131.5,-104.5 298.5,-104.5 "/>
<text text-anchor="middle" x="215" y="-92.5" font-family="Helvetica,sans-Serif" font-size="10.00"> </text>
<polyline fill="none" stroke="black" points="131.5,-85.5 298.5,-85.5 "/>
<text text-anchor="start" x="139.5" y="-73.5" font-family="Helvetica,sans-Serif" font-size="10.00">+ AABBox()</text>
<text text-anchor="start" x="139.5" y="-62.5" font-family="Helvetica,sans-Serif" font-size="10.00">+ AABBox()</text>
<text text-anchor="start" x="139.5" y="-51.5" font-family="Helvetica,sans-Serif" font-size="10.00">+ AABBox()</text>
<text text-anchor="start" x="139.5" y="-40.5" font-family="Helvetica,sans-Serif" font-size="10.00">+ operator=()</text>
<text text-anchor="start" x="139.5" y="-29.5" font-family="Helvetica,sans-Serif" font-size="10.00">+ contains()</text>
<text text-anchor="start" x="139.5" y="-18.5" font-family="Helvetica,sans-Serif" font-size="10.00">+ intersects()</text>
<text text-anchor="start" x="139.5" y="-7.5" font-family="Helvetica,sans-Serif" font-size="10.00">+ include()</text>
</a>
</g>
</g>
<!-- Node7&#45;&gt;Node8 -->
<g id="edge8" class="edge">
<title>Node7&#45;&gt;Node8</title>
<path fill="none" stroke="midnightblue" d="M172.07,-163.34C176.3,-154 180.74,-144.17 185.11,-134.53"/>
<polygon fill="none" stroke="midnightblue" points="168.86,-161.94 167.92,-172.5 175.23,-164.83 168.86,-161.94"/>
</g>
<!-- Node8&#45;&gt;Node8 -->
<g id="edge9" class="edge">
<title>Node8&#45;&gt;Node8</title>
<path fill="none" stroke="orange" d="M308.29,-78.05C313.44,-75.49 316.5,-71.97 316.5,-67.5 316.5,-60.69 309.39,-56.09 298.62,-53.7"/>
<polygon fill="orange" stroke="orange" points="306.98,-74.8 298.62,-81.3 309.21,-81.43 306.98,-74.8"/>
<text text-anchor="middle" x="396.5" y="-65" font-family="Helvetica,sans-Serif" font-size="10.00"> &lt; Dimension, CoordinateType &gt;</text>
</g>
<!-- Node9&#45;&gt;Node7 -->
<g id="edge12" class="edge">
<title>Node9&#45;&gt;Node7</title>
<path fill="none" stroke="orange" d="M154.33,-302.05C152.33,-298.8 150.53,-295.45 149,-292 145.02,-283.02 143.34,-272.79 142.94,-262.88"/>
<polygon fill="orange" stroke="orange" points="151.54,-304.17 160.11,-310.41 157.3,-300.19 151.54,-304.17"/>
<text text-anchor="middle" x="208.5" y="-284" font-family="Helvetica,sans-Serif" font-size="10.00"> &lt; Dimension, Double &gt;</text>
</g>
<!-- Node9&#45;&gt;Node8 -->
<g id="edge11" class="edge">
<title>Node9&#45;&gt;Node8</title>
<path fill="none" stroke="midnightblue" d="M264.57,-301.34C265.88,-298.25 267.04,-295.13 268,-292 284.01,-239.76 267.7,-179.43 249.09,-134.62"/>
<polygon fill="none" stroke="midnightblue" points="261.36,-299.92 260.2,-310.45 267.68,-302.95 261.36,-299.92"/>
</g>
</g>
</svg>
