<?xml version="1.0" encoding="UTF-8" standalone="no"?>
<!DOCTYPE svg PUBLIC "-//W3C//DTD SVG 1.1//EN"
 "http://www.w3.org/Graphics/SVG/1.1/DTD/svg11.dtd">
<!-- Generated by graphviz version 2.43.0 (0)
 -->
<!-- Title: cie::geo::MarchingPrimitives&lt; TTarget, TPrimitive &gt; Pages: 1 -->
<svg width="400pt" height="623pt"
 viewBox="0.00 0.00 400.00 623.00" xmlns="http://www.w3.org/2000/svg" xmlns:xlink="http://www.w3.org/1999/xlink">
<g id="graph0" class="graph" transform="scale(1 1) rotate(0) translate(4 619)">
<title>cie::geo::MarchingPrimitives&lt; TTarget, TPrimitive &gt;</title>
<polygon fill="white" stroke="transparent" points="-4,4 -4,-619 396,-619 396,4 -4,4"/>
<!-- Node1 -->
<g id="node1" class="node">
<title>Node1</title>
<g id="a_node1"><a xlink:title=" ">
<polygon fill="#bfbfbf" stroke="black" points="115,-182.5 115,-261.5 270,-261.5 270,-182.5 115,-182.5"/>
<text text-anchor="start" x="123" y="-249.5" font-family="Helvetica,sans-Serif" font-size="10.00">cie::geo::MarchingPrimitives</text>
<text text-anchor="middle" x="192.5" y="-238.5" font-family="Helvetica,sans-Serif" font-size="10.00">&lt; TTarget, TPrimitive &gt;</text>
<polyline fill="none" stroke="black" points="115,-231.5 270,-231.5 "/>
<text text-anchor="middle" x="192.5" y="-219.5" font-family="Helvetica,sans-Serif" font-size="10.00"> </text>
<polyline fill="none" stroke="black" points="115,-212.5 270,-212.5 "/>
<text text-anchor="start" x="123" y="-200.5" font-family="Helvetica,sans-Serif" font-size="10.00">+ MarchingPrimitives()</text>
<text text-anchor="start" x="123" y="-189.5" font-family="Helvetica,sans-Serif" font-size="10.00">+ getVertexOnPrimitive()</text>
</a>
</g>
</g>
<!-- Node4 -->
<g id="node4" class="node">
<title>Node4</title>
<g id="a_node4"><a xlink:href="classcie_1_1geo_1_1StructuredMarchingPrimitives.html" target="_top" xlink:title="MarchingPrimitives that scans a cartesian mesh of primitives.">
<polygon fill="white" stroke="black" points="0,-0.5 0,-145.5 181,-145.5 181,-0.5 0,-0.5"/>
<text text-anchor="start" x="8" y="-133.5" font-family="Helvetica,sans-Serif" font-size="10.00">cie::geo::StructuredMarching</text>
<text text-anchor="middle" x="90.5" y="-122.5" font-family="Helvetica,sans-Serif" font-size="10.00">Primitives&lt; TTarget, TPrimitive &gt;</text>
<polyline fill="none" stroke="black" points="0,-115.5 181,-115.5 "/>
<text text-anchor="start" x="8" y="-103.5" font-family="Helvetica,sans-Serif" font-size="10.00"># _domain</text>
<text text-anchor="start" x="8" y="-92.5" font-family="Helvetica,sans-Serif" font-size="10.00"># _numberOfPoints</text>
<text text-anchor="start" x="8" y="-81.5" font-family="Helvetica,sans-Serif" font-size="10.00"># _meshOrigin</text>
<text text-anchor="start" x="8" y="-70.5" font-family="Helvetica,sans-Serif" font-size="10.00"># _meshEdgeLengths</text>
<polyline fill="none" stroke="black" points="0,-63.5 181,-63.5 "/>
<text text-anchor="start" x="8" y="-51.5" font-family="Helvetica,sans-Serif" font-size="10.00">+ StructuredMarchingPrimitives()</text>
<text text-anchor="start" x="8" y="-40.5" font-family="Helvetica,sans-Serif" font-size="10.00">+ getGlobalVertexIndex()</text>
<text text-anchor="start" x="8" y="-29.5" font-family="Helvetica,sans-Serif" font-size="10.00">+ getVertex()</text>
<text text-anchor="start" x="8" y="-18.5" font-family="Helvetica,sans-Serif" font-size="10.00"># getPointInCartesianMesh()</text>
<text text-anchor="start" x="8" y="-7.5" font-family="Helvetica,sans-Serif" font-size="10.00"># getCartesianIndex()</text>
</a>
</g>
</g>
<!-- Node1&#45;&gt;Node4 -->
<g id="edge3" class="edge">
<title>Node1&#45;&gt;Node4</title>
<path fill="none" stroke="midnightblue" d="M159.84,-173.93C153.57,-164.89 146.87,-155.24 140.21,-145.64"/>
<polygon fill="none" stroke="midnightblue" points="157.12,-176.16 165.7,-182.38 162.88,-172.17 157.12,-176.16"/>
</g>
<!-- Node5 -->
<g id="node5" class="node">
<title>Node5</title>
<g id="a_node5"><a xlink:href="classcie_1_1geo_1_1UnstructuredMarchingPrimitives.html" target="_top" xlink:title="MarchingPrimitives that scans a container of primitives.">
<polygon fill="white" stroke="black" points="199,-17 199,-129 392,-129 392,-17 199,-17"/>
<text text-anchor="start" x="207" y="-117" font-family="Helvetica,sans-Serif" font-size="10.00">cie::geo::UnstructuredMarching</text>
<text text-anchor="middle" x="295.5" y="-106" font-family="Helvetica,sans-Serif" font-size="10.00">Primitives&lt; TTarget, TPrimitive &gt;</text>
<polyline fill="none" stroke="black" points="199,-99 392,-99 "/>
<text text-anchor="start" x="207" y="-87" font-family="Helvetica,sans-Serif" font-size="10.00">+ _p_primitives</text>
<polyline fill="none" stroke="black" points="199,-80 392,-80 "/>
<text text-anchor="start" x="207" y="-68" font-family="Helvetica,sans-Serif" font-size="10.00">+ UnstructuredMarchingPrimitives()</text>
<text text-anchor="start" x="207" y="-57" font-family="Helvetica,sans-Serif" font-size="10.00">+ getVertex()</text>
<text text-anchor="start" x="207" y="-46" font-family="Helvetica,sans-Serif" font-size="10.00">+ getVertices()</text>
<text text-anchor="start" x="207" y="-35" font-family="Helvetica,sans-Serif" font-size="10.00">+ numberOfRemainingPrimitives()</text>
<text text-anchor="start" x="207" y="-24" font-family="Helvetica,sans-Serif" font-size="10.00">+ primitives()</text>
</a>
</g>
</g>
<!-- Node1&#45;&gt;Node5 -->
<g id="edge4" class="edge">
<title>Node1&#45;&gt;Node5</title>
<path fill="none" stroke="midnightblue" d="M225.32,-174.16C235.33,-159.87 246.44,-144.02 256.81,-129.22"/>
<polygon fill="none" stroke="midnightblue" points="222.43,-172.18 219.56,-182.38 228.17,-176.2 222.43,-172.18"/>
</g>
<!-- Node2 -->
<g id="node2" class="node">
<title>Node2</title>
<g id="a_node2"><a xlink:href="classcie_1_1geo_1_1AbsMarchingPrimitives.html" target="_top" xlink:title=" ">
<polygon fill="white" stroke="black" points="99.5,-298.5 99.5,-520.5 285.5,-520.5 285.5,-298.5 99.5,-298.5"/>
<text text-anchor="start" x="107.5" y="-508.5" font-family="Helvetica,sans-Serif" font-size="10.00">cie::geo::AbsMarchingPrimitives</text>
<text text-anchor="middle" x="192.5" y="-497.5" font-family="Helvetica,sans-Serif" font-size="10.00">&lt; TTarget &gt;</text>
<polyline fill="none" stroke="black" points="99.5,-490.5 285.5,-490.5 "/>
<text text-anchor="start" x="107.5" y="-478.5" font-family="Helvetica,sans-Serif" font-size="10.00"># _p_target</text>
<text text-anchor="start" x="107.5" y="-467.5" font-family="Helvetica,sans-Serif" font-size="10.00"># _p_edgeTable</text>
<text text-anchor="start" x="107.5" y="-456.5" font-family="Helvetica,sans-Serif" font-size="10.00"># _p_connectivityTable</text>
<text text-anchor="start" x="107.5" y="-445.5" font-family="Helvetica,sans-Serif" font-size="10.00"># _outputFunctor</text>
<polyline fill="none" stroke="black" points="99.5,-438.5 285.5,-438.5 "/>
<text text-anchor="start" x="107.5" y="-426.5" font-family="Helvetica,sans-Serif" font-size="10.00">+ AbsMarchingPrimitives()</text>
<text text-anchor="start" x="107.5" y="-415.5" font-family="Helvetica,sans-Serif" font-size="10.00">+ ~AbsMarchingPrimitives()</text>
<text text-anchor="start" x="107.5" y="-404.5" font-family="Helvetica,sans-Serif" font-size="10.00">+ execute()</text>
<text text-anchor="start" x="107.5" y="-393.5" font-family="Helvetica,sans-Serif" font-size="10.00">+ execute()</text>
<text text-anchor="start" x="107.5" y="-382.5" font-family="Helvetica,sans-Serif" font-size="10.00">+ setOutputFunctor()</text>
<text text-anchor="start" x="107.5" y="-371.5" font-family="Helvetica,sans-Serif" font-size="10.00"># AbsMarchingPrimitives()</text>
<text text-anchor="start" x="107.5" y="-360.5" font-family="Helvetica,sans-Serif" font-size="10.00"># AbsMarchingPrimitives()</text>
<text text-anchor="start" x="107.5" y="-349.5" font-family="Helvetica,sans-Serif" font-size="10.00"># operator=()</text>
<text text-anchor="start" x="107.5" y="-338.5" font-family="Helvetica,sans-Serif" font-size="10.00"># getVertex()</text>
<text text-anchor="start" x="107.5" y="-327.5" font-family="Helvetica,sans-Serif" font-size="10.00"># getVertices()</text>
<text text-anchor="start" x="107.5" y="-316.5" font-family="Helvetica,sans-Serif" font-size="10.00"># primitiveVertexCount()</text>
<text text-anchor="start" x="107.5" y="-305.5" font-family="Helvetica,sans-Serif" font-size="10.00"># numberOfRemainingPrimitives()</text>
</a>
</g>
</g>
<!-- Node2&#45;&gt;Node1 -->
<g id="edge1" class="edge">
<title>Node2&#45;&gt;Node1</title>
<path fill="none" stroke="midnightblue" d="M192.5,-288.43C192.5,-278.94 192.5,-269.86 192.5,-261.66"/>
<polygon fill="none" stroke="midnightblue" points="189,-288.45 192.5,-298.45 196,-288.45 189,-288.45"/>
</g>
<!-- Node3 -->
<g id="node3" class="node">
<title>Node3</title>
<g id="a_node3"><a xlink:href="classGetTraitsT.html" target="_top" xlink:title=" ">
<polygon fill="white" stroke="black" points="130,-557.5 130,-614.5 255,-614.5 255,-557.5 130,-557.5"/>
<text text-anchor="middle" x="192.5" y="-602.5" font-family="Helvetica,sans-Serif" font-size="10.00">GetTraitsT&lt; TTarget &gt;</text>
<polyline fill="none" stroke="black" points="130,-595.5 255,-595.5 "/>
<text text-anchor="middle" x="192.5" y="-583.5" font-family="Helvetica,sans-Serif" font-size="10.00"> </text>
<polyline fill="none" stroke="black" points="130,-576.5 255,-576.5 "/>
<text text-anchor="middle" x="192.5" y="-564.5" font-family="Helvetica,sans-Serif" font-size="10.00"> </text>
</a>
</g>
</g>
<!-- Node3&#45;&gt;Node2 -->
<g id="edge2" class="edge">
<title>Node3&#45;&gt;Node2</title>
<path fill="none" stroke="midnightblue" d="M192.5,-547.2C192.5,-539.08 192.5,-530.1 192.5,-520.75"/>
<polygon fill="none" stroke="midnightblue" points="189,-547.35 192.5,-557.35 196,-547.35 189,-547.35"/>
</g>
</g>
</svg>
