<?xml version="1.0" encoding="UTF-8" standalone="no"?>
<!DOCTYPE svg PUBLIC "-//W3C//DTD SVG 1.1//EN"
 "http://www.w3.org/Graphics/SVG/1.1/DTD/svg11.dtd">
<!-- Generated by graphviz version 2.43.0 (0)
 -->
<!-- Title: cie::geo::UnstructuredMarchingPrimitives&lt; TTarget, TPrimitive &gt; Pages: 1 -->
<svg width="743pt" height="591pt"
 viewBox="0.00 0.00 743.00 591.00" xmlns="http://www.w3.org/2000/svg" xmlns:xlink="http://www.w3.org/1999/xlink">
<g id="graph0" class="graph" transform="scale(1 1) rotate(0) translate(4 587)">
<title>cie::geo::UnstructuredMarchingPrimitives&lt; TTarget, TPrimitive &gt;</title>
<polygon fill="white" stroke="transparent" points="-4,4 -4,-587 739,-587 739,4 -4,4"/>
<!-- Node1 -->
<g id="node1" class="node">
<title>Node1</title>
<g id="a_node1"><a xlink:title="MarchingPrimitives that scans a container of primitives.">
<polygon fill="#bfbfbf" stroke="black" points="329,-0.5 329,-112.5 522,-112.5 522,-0.5 329,-0.5"/>
<text text-anchor="start" x="337" y="-100.5" font-family="Helvetica,sans-Serif" font-size="10.00">cie::geo::UnstructuredMarching</text>
<text text-anchor="middle" x="425.5" y="-89.5" font-family="Helvetica,sans-Serif" font-size="10.00">Primitives&lt; TTarget, TPrimitive &gt;</text>
<polyline fill="none" stroke="black" points="329,-82.5 522,-82.5 "/>
<text text-anchor="middle" x="425.5" y="-70.5" font-family="Helvetica,sans-Serif" font-size="10.00"> </text>
<polyline fill="none" stroke="black" points="329,-63.5 522,-63.5 "/>
<text text-anchor="start" x="337" y="-51.5" font-family="Helvetica,sans-Serif" font-size="10.00">+ UnstructuredMarchingPrimitives()</text>
<text text-anchor="start" x="337" y="-40.5" font-family="Helvetica,sans-Serif" font-size="10.00">+ getVertex()</text>
<text text-anchor="start" x="337" y="-29.5" font-family="Helvetica,sans-Serif" font-size="10.00">+ getVertices()</text>
<text text-anchor="start" x="337" y="-18.5" font-family="Helvetica,sans-Serif" font-size="10.00">+ numberOfRemainingPrimitives()</text>
<text text-anchor="start" x="337" y="-7.5" font-family="Helvetica,sans-Serif" font-size="10.00">+ primitives()</text>
</a>
</g>
</g>
<!-- Node2 -->
<g id="node2" class="node">
<title>Node2</title>
<g id="a_node2"><a xlink:href="classcie_1_1geo_1_1MarchingPrimitives.html" target="_top" xlink:title=" ">
<polygon fill="white" stroke="black" points="269,-160.5 269,-239.5 424,-239.5 424,-160.5 269,-160.5"/>
<text text-anchor="start" x="277" y="-227.5" font-family="Helvetica,sans-Serif" font-size="10.00">cie::geo::MarchingPrimitives</text>
<text text-anchor="middle" x="346.5" y="-216.5" font-family="Helvetica,sans-Serif" font-size="10.00">&lt; TTarget, TPrimitive &gt;</text>
<polyline fill="none" stroke="black" points="269,-209.5 424,-209.5 "/>
<text text-anchor="middle" x="346.5" y="-197.5" font-family="Helvetica,sans-Serif" font-size="10.00"> </text>
<polyline fill="none" stroke="black" points="269,-190.5 424,-190.5 "/>
<text text-anchor="start" x="277" y="-178.5" font-family="Helvetica,sans-Serif" font-size="10.00">+ MarchingPrimitives()</text>
<text text-anchor="start" x="277" y="-167.5" font-family="Helvetica,sans-Serif" font-size="10.00">+ getVertexOnPrimitive()</text>
</a>
</g>
</g>
<!-- Node2&#45;&gt;Node1 -->
<g id="edge1" class="edge">
<title>Node2&#45;&gt;Node1</title>
<path fill="none" stroke="midnightblue" d="M373.04,-151.46C380.01,-138.98 387.59,-125.41 394.76,-112.56"/>
<polygon fill="none" stroke="midnightblue" points="369.91,-149.9 368.09,-160.33 376.02,-153.31 369.91,-149.9"/>
</g>
<!-- Node3 -->
<g id="node3" class="node">
<title>Node3</title>
<g id="a_node3"><a xlink:href="classcie_1_1geo_1_1AbsMarchingPrimitives.html" target="_top" xlink:title=" ">
<polygon fill="white" stroke="black" points="253.5,-277.5 253.5,-466.5 439.5,-466.5 439.5,-277.5 253.5,-277.5"/>
<text text-anchor="start" x="261.5" y="-454.5" font-family="Helvetica,sans-Serif" font-size="10.00">cie::geo::AbsMarchingPrimitives</text>
<text text-anchor="middle" x="346.5" y="-443.5" font-family="Helvetica,sans-Serif" font-size="10.00">&lt; TTarget &gt;</text>
<polyline fill="none" stroke="black" points="253.5,-436.5 439.5,-436.5 "/>
<text text-anchor="middle" x="346.5" y="-424.5" font-family="Helvetica,sans-Serif" font-size="10.00"> </text>
<polyline fill="none" stroke="black" points="253.5,-417.5 439.5,-417.5 "/>
<text text-anchor="start" x="261.5" y="-405.5" font-family="Helvetica,sans-Serif" font-size="10.00">+ AbsMarchingPrimitives()</text>
<text text-anchor="start" x="261.5" y="-394.5" font-family="Helvetica,sans-Serif" font-size="10.00">+ ~AbsMarchingPrimitives()</text>
<text text-anchor="start" x="261.5" y="-383.5" font-family="Helvetica,sans-Serif" font-size="10.00">+ execute()</text>
<text text-anchor="start" x="261.5" y="-372.5" font-family="Helvetica,sans-Serif" font-size="10.00">+ execute()</text>
<text text-anchor="start" x="261.5" y="-361.5" font-family="Helvetica,sans-Serif" font-size="10.00">+ setOutputFunctor()</text>
<text text-anchor="start" x="261.5" y="-350.5" font-family="Helvetica,sans-Serif" font-size="10.00"># AbsMarchingPrimitives()</text>
<text text-anchor="start" x="261.5" y="-339.5" font-family="Helvetica,sans-Serif" font-size="10.00"># AbsMarchingPrimitives()</text>
<text text-anchor="start" x="261.5" y="-328.5" font-family="Helvetica,sans-Serif" font-size="10.00"># operator=()</text>
<text text-anchor="start" x="261.5" y="-317.5" font-family="Helvetica,sans-Serif" font-size="10.00"># getVertex()</text>
<text text-anchor="start" x="261.5" y="-306.5" font-family="Helvetica,sans-Serif" font-size="10.00"># getVertices()</text>
<text text-anchor="start" x="261.5" y="-295.5" font-family="Helvetica,sans-Serif" font-size="10.00"># primitiveVertexCount()</text>
<text text-anchor="start" x="261.5" y="-284.5" font-family="Helvetica,sans-Serif" font-size="10.00"># numberOfRemainingPrimitives()</text>
</a>
</g>
</g>
<!-- Node3&#45;&gt;Node2 -->
<g id="edge2" class="edge">
<title>Node3&#45;&gt;Node2</title>
<path fill="none" stroke="midnightblue" d="M346.5,-266.91C346.5,-257.29 346.5,-248 346.5,-239.6"/>
<polygon fill="none" stroke="midnightblue" points="343,-267.05 346.5,-277.05 350,-267.05 343,-267.05"/>
</g>
<!-- Node4 -->
<g id="node4" class="node">
<title>Node4</title>
<g id="a_node4"><a xlink:href="classGetTraitsT.html" target="_top" xlink:title=" ">
<polygon fill="white" stroke="black" points="0,-520 0,-577 125,-577 125,-520 0,-520"/>
<text text-anchor="middle" x="62.5" y="-565" font-family="Helvetica,sans-Serif" font-size="10.00">GetTraitsT&lt; TTarget &gt;</text>
<polyline fill="none" stroke="black" points="0,-558 125,-558 "/>
<text text-anchor="middle" x="62.5" y="-546" font-family="Helvetica,sans-Serif" font-size="10.00"> </text>
<polyline fill="none" stroke="black" points="0,-539 125,-539 "/>
<text text-anchor="middle" x="62.5" y="-527" font-family="Helvetica,sans-Serif" font-size="10.00"> </text>
</a>
</g>
</g>
<!-- Node4&#45;&gt;Node3 -->
<g id="edge3" class="edge">
<title>Node4&#45;&gt;Node3</title>
<path fill="none" stroke="midnightblue" d="M116.49,-514.33C155.05,-490.64 207.9,-458.16 253.22,-430.31"/>
<polygon fill="none" stroke="midnightblue" points="114.19,-511.63 107.5,-519.85 117.85,-517.6 114.19,-511.63"/>
</g>
<!-- Node5 -->
<g id="node5" class="node">
<title>Node5</title>
<g id="a_node5"><a xlink:title=" ">
<polygon fill="white" stroke="#bfbfbf" points="143,-514.5 143,-582.5 274,-582.5 274,-514.5 143,-514.5"/>
<text text-anchor="start" x="151" y="-570.5" font-family="Helvetica,sans-Serif" font-size="10.00">Ptr&lt; const connectivity</text>
<text text-anchor="middle" x="208.5" y="-559.5" font-family="Helvetica,sans-Serif" font-size="10.00">_table &gt;</text>
<polyline fill="none" stroke="#bfbfbf" points="143,-552.5 274,-552.5 "/>
<text text-anchor="middle" x="208.5" y="-540.5" font-family="Helvetica,sans-Serif" font-size="10.00"> </text>
<polyline fill="none" stroke="#bfbfbf" points="143,-533.5 274,-533.5 "/>
<text text-anchor="middle" x="208.5" y="-521.5" font-family="Helvetica,sans-Serif" font-size="10.00"> </text>
</a>
</g>
</g>
<!-- Node5&#45;&gt;Node3 -->
<g id="edge4" class="edge">
<title>Node5&#45;&gt;Node3</title>
<path fill="none" stroke="#404040" d="M215.75,-514.34C218.78,-504.45 222.93,-493.88 228.5,-485 233.57,-476.92 239.36,-469.03 245.58,-461.4"/>
<polygon fill="none" stroke="#404040" points="245.6,-461.39 246.44,-454.23 253.38,-452.25 252.53,-459.41 245.6,-461.39"/>
<text text-anchor="middle" x="285.5" y="-488" font-family="Helvetica,sans-Serif" font-size="10.00"> #_p_connectivityTable</text>
</g>
<!-- Node6 -->
<g id="node6" class="node">
<title>Node6</title>
<g id="a_node6"><a xlink:title=" ">
<polygon fill="white" stroke="#bfbfbf" points="292,-514.5 292,-582.5 401,-582.5 401,-514.5 292,-514.5"/>
<text text-anchor="start" x="300" y="-570.5" font-family="Helvetica,sans-Serif" font-size="10.00">shared_ptr&lt; target</text>
<text text-anchor="middle" x="346.5" y="-559.5" font-family="Helvetica,sans-Serif" font-size="10.00">_type &gt;</text>
<polyline fill="none" stroke="#bfbfbf" points="292,-552.5 401,-552.5 "/>
<text text-anchor="middle" x="346.5" y="-540.5" font-family="Helvetica,sans-Serif" font-size="10.00"> </text>
<polyline fill="none" stroke="#bfbfbf" points="292,-533.5 401,-533.5 "/>
<text text-anchor="middle" x="346.5" y="-521.5" font-family="Helvetica,sans-Serif" font-size="10.00"> </text>
</a>
</g>
</g>
<!-- Node6&#45;&gt;Node3 -->
<g id="edge5" class="edge">
<title>Node6&#45;&gt;Node3</title>
<path fill="none" stroke="#404040" d="M346.5,-514.27C346.5,-503.85 346.5,-491.74 346.5,-479.08"/>
<polygon fill="none" stroke="#404040" points="346.5,-478.8 342.5,-472.8 346.5,-466.8 350.5,-472.8 346.5,-478.8"/>
<text text-anchor="middle" x="375.5" y="-488" font-family="Helvetica,sans-Serif" font-size="10.00"> #_p_target</text>
</g>
<!-- Node7 -->
<g id="node7" class="node">
<title>Node7</title>
<g id="a_node7"><a xlink:title=" ">
<polygon fill="white" stroke="#bfbfbf" points="419.5,-520 419.5,-577 555.5,-577 555.5,-520 419.5,-520"/>
<text text-anchor="middle" x="487.5" y="-565" font-family="Helvetica,sans-Serif" font-size="10.00">Ptr&lt; const edge_table &gt;</text>
<polyline fill="none" stroke="#bfbfbf" points="419.5,-558 555.5,-558 "/>
<text text-anchor="middle" x="487.5" y="-546" font-family="Helvetica,sans-Serif" font-size="10.00"> </text>
<polyline fill="none" stroke="#bfbfbf" points="419.5,-539 555.5,-539 "/>
<text text-anchor="middle" x="487.5" y="-527" font-family="Helvetica,sans-Serif" font-size="10.00"> </text>
</a>
</g>
</g>
<!-- Node7&#45;&gt;Node3 -->
<g id="edge6" class="edge">
<title>Node7&#45;&gt;Node3</title>
<path fill="none" stroke="#404040" d="M465.16,-519.85C455.23,-507.56 442.85,-492.24 429.88,-476.18"/>
<polygon fill="none" stroke="#404040" points="429.72,-475.99 422.84,-473.84 422.18,-466.66 429.06,-468.81 429.72,-475.99"/>
<text text-anchor="middle" x="485.5" y="-488" font-family="Helvetica,sans-Serif" font-size="10.00"> #_p_edgeTable</text>
</g>
<!-- Node8 -->
<g id="node8" class="node">
<title>Node8</title>
<g id="a_node8"><a xlink:title=" ">
<polygon fill="white" stroke="#bfbfbf" points="574,-514.5 574,-582.5 735,-582.5 735,-514.5 574,-514.5"/>
<text text-anchor="start" x="582" y="-570.5" font-family="Helvetica,sans-Serif" font-size="10.00">function&lt; void(Size,</text>
<text text-anchor="middle" x="654.5" y="-559.5" font-family="Helvetica,sans-Serif" font-size="10.00"> const output_arguments &amp;)&gt;</text>
<polyline fill="none" stroke="#bfbfbf" points="574,-552.5 735,-552.5 "/>
<text text-anchor="middle" x="654.5" y="-540.5" font-family="Helvetica,sans-Serif" font-size="10.00"> </text>
<polyline fill="none" stroke="#bfbfbf" points="574,-533.5 735,-533.5 "/>
<text text-anchor="middle" x="654.5" y="-521.5" font-family="Helvetica,sans-Serif" font-size="10.00"> </text>
</a>
</g>
</g>
<!-- Node8&#45;&gt;Node3 -->
<g id="edge7" class="edge">
<title>Node8&#45;&gt;Node3</title>
<path fill="none" stroke="#404040" d="M596.21,-514.47C555.1,-491.18 498.92,-459.35 450.26,-431.78"/>
<polygon fill="none" stroke="#404040" points="450.12,-431.7 442.92,-432.23 439.67,-425.79 446.87,-425.27 450.12,-431.7"/>
<text text-anchor="middle" x="605" y="-488" font-family="Helvetica,sans-Serif" font-size="10.00"> #_outputFunctor</text>
</g>
<!-- Node9 -->
<g id="node9" class="node">
<title>Node9</title>
<g id="a_node9"><a xlink:title=" ">
<polygon fill="white" stroke="#bfbfbf" points="442.5,-166 442.5,-234 566.5,-234 566.5,-166 442.5,-166"/>
<text text-anchor="start" x="450.5" y="-222" font-family="Helvetica,sans-Serif" font-size="10.00">shared_ptr&lt; primitive</text>
<text text-anchor="middle" x="504.5" y="-211" font-family="Helvetica,sans-Serif" font-size="10.00">_container &gt;</text>
<polyline fill="none" stroke="#bfbfbf" points="442.5,-204 566.5,-204 "/>
<text text-anchor="middle" x="504.5" y="-192" font-family="Helvetica,sans-Serif" font-size="10.00"> </text>
<polyline fill="none" stroke="#bfbfbf" points="442.5,-185 566.5,-185 "/>
<text text-anchor="middle" x="504.5" y="-173" font-family="Helvetica,sans-Serif" font-size="10.00"> </text>
</a>
</g>
</g>
<!-- Node9&#45;&gt;Node1 -->
<g id="edge8" class="edge">
<title>Node9&#45;&gt;Node1</title>
<path fill="none" stroke="#404040" d="M485.98,-165.82C478.86,-153.07 470.46,-138.03 462.22,-123.27"/>
<polygon fill="none" stroke="#404040" points="462.12,-123.09 455.7,-119.8 456.27,-112.61 462.69,-115.9 462.12,-123.09"/>
<text text-anchor="middle" x="510.5" y="-134" font-family="Helvetica,sans-Serif" font-size="10.00"> +_p_primitives</text>
</g>
</g>
</svg>
