<?xml version="1.0" encoding="UTF-8" standalone="no"?>
<!DOCTYPE svg PUBLIC "-//W3C//DTD SVG 1.1//EN"
 "http://www.w3.org/Graphics/SVG/1.1/DTD/svg11.dtd">
<!-- Generated by graphviz version 2.43.0 (0)
 -->
<!-- Title: cie::geo::Ellipsoid&lt; Dimension, CoordinateType &gt; Pages: 1 -->
<svg width="354pt" height="1119pt"
 viewBox="0.00 0.00 354.00 1119.00" xmlns="http://www.w3.org/2000/svg" xmlns:xlink="http://www.w3.org/1999/xlink">
<g id="graph0" class="graph" transform="scale(1 1) rotate(0) translate(4 1115)">
<title>cie::geo::Ellipsoid&lt; Dimension, CoordinateType &gt;</title>
<polygon fill="white" stroke="transparent" points="-4,4 -4,-1115 350,-1115 350,4 -4,4"/>
<!-- Node1 -->
<g id="node1" class="node">
<title>Node1</title>
<g id="a_node1"><a xlink:title="Ellipsoid template.">
<polygon fill="#bfbfbf" stroke="black" points="40.5,-398.5 40.5,-576.5 213.5,-576.5 213.5,-398.5 40.5,-398.5"/>
<text text-anchor="start" x="48.5" y="-564.5" font-family="Helvetica,sans-Serif" font-size="10.00">cie::geo::Ellipsoid</text>
<text text-anchor="middle" x="127" y="-553.5" font-family="Helvetica,sans-Serif" font-size="10.00">&lt; Dimension, CoordinateType &gt;</text>
<polyline fill="none" stroke="black" points="40.5,-546.5 213.5,-546.5 "/>
<text text-anchor="start" x="48.5" y="-534.5" font-family="Helvetica,sans-Serif" font-size="10.00"># _center</text>
<text text-anchor="start" x="48.5" y="-523.5" font-family="Helvetica,sans-Serif" font-size="10.00"># _radii</text>
<polyline fill="none" stroke="black" points="40.5,-516.5 213.5,-516.5 "/>
<text text-anchor="start" x="48.5" y="-504.5" font-family="Helvetica,sans-Serif" font-size="10.00">+ Ellipsoid()</text>
<text text-anchor="start" x="48.5" y="-493.5" font-family="Helvetica,sans-Serif" font-size="10.00">+ Ellipsoid()</text>
<text text-anchor="start" x="48.5" y="-482.5" font-family="Helvetica,sans-Serif" font-size="10.00">+ Ellipsoid()</text>
<text text-anchor="start" x="48.5" y="-471.5" font-family="Helvetica,sans-Serif" font-size="10.00">+ Ellipsoid()</text>
<text text-anchor="start" x="48.5" y="-460.5" font-family="Helvetica,sans-Serif" font-size="10.00">+ operator=()</text>
<text text-anchor="start" x="48.5" y="-449.5" font-family="Helvetica,sans-Serif" font-size="10.00">+ isDegenerate()</text>
<text text-anchor="start" x="48.5" y="-438.5" font-family="Helvetica,sans-Serif" font-size="10.00">+ center()</text>
<text text-anchor="start" x="48.5" y="-427.5" font-family="Helvetica,sans-Serif" font-size="10.00">+ center()</text>
<text text-anchor="start" x="48.5" y="-416.5" font-family="Helvetica,sans-Serif" font-size="10.00">+ radii()</text>
<text text-anchor="start" x="48.5" y="-405.5" font-family="Helvetica,sans-Serif" font-size="10.00">+ radii()</text>
</a>
</g>
</g>
<!-- Node7 -->
<g id="node7" class="node">
<title>Node7</title>
<g id="a_node7"><a xlink:href="classcie_1_1geo_1_1Ellipsoid.html" target="_top" xlink:title=" ">
<polygon fill="white" stroke="black" points="61,-172.5 61,-350.5 193,-350.5 193,-172.5 61,-172.5"/>
<text text-anchor="start" x="69" y="-338.5" font-family="Helvetica,sans-Serif" font-size="10.00">cie::geo::Ellipsoid</text>
<text text-anchor="middle" x="127" y="-327.5" font-family="Helvetica,sans-Serif" font-size="10.00">&lt; Dimension, Double &gt;</text>
<polyline fill="none" stroke="black" points="61,-320.5 193,-320.5 "/>
<text text-anchor="start" x="69" y="-308.5" font-family="Helvetica,sans-Serif" font-size="10.00"># _center</text>
<text text-anchor="start" x="69" y="-297.5" font-family="Helvetica,sans-Serif" font-size="10.00"># _radii</text>
<polyline fill="none" stroke="black" points="61,-290.5 193,-290.5 "/>
<text text-anchor="start" x="69" y="-278.5" font-family="Helvetica,sans-Serif" font-size="10.00">+ Ellipsoid()</text>
<text text-anchor="start" x="69" y="-267.5" font-family="Helvetica,sans-Serif" font-size="10.00">+ Ellipsoid()</text>
<text text-anchor="start" x="69" y="-256.5" font-family="Helvetica,sans-Serif" font-size="10.00">+ Ellipsoid()</text>
<text text-anchor="start" x="69" y="-245.5" font-family="Helvetica,sans-Serif" font-size="10.00">+ Ellipsoid()</text>
<text text-anchor="start" x="69" y="-234.5" font-family="Helvetica,sans-Serif" font-size="10.00">+ operator=()</text>
<text text-anchor="start" x="69" y="-223.5" font-family="Helvetica,sans-Serif" font-size="10.00">+ isDegenerate()</text>
<text text-anchor="start" x="69" y="-212.5" font-family="Helvetica,sans-Serif" font-size="10.00">+ center()</text>
<text text-anchor="start" x="69" y="-201.5" font-family="Helvetica,sans-Serif" font-size="10.00">+ center()</text>
<text text-anchor="start" x="69" y="-190.5" font-family="Helvetica,sans-Serif" font-size="10.00">+ radii()</text>
<text text-anchor="start" x="69" y="-179.5" font-family="Helvetica,sans-Serif" font-size="10.00">+ radii()</text>
</a>
</g>
</g>
<!-- Node1&#45;&gt;Node7 -->
<g id="edge7" class="edge">
<title>Node1&#45;&gt;Node7</title>
<path fill="none" stroke="orange" d="M127,-387.93C127,-375.51 127,-362.87 127,-350.63"/>
<polygon fill="orange" stroke="orange" points="123.5,-388.29 127,-398.29 130.5,-388.29 123.5,-388.29"/>
<text text-anchor="middle" x="186.5" y="-372" font-family="Helvetica,sans-Serif" font-size="10.00"> &lt; Dimension, Double &gt;</text>
</g>
<!-- Node2 -->
<g id="node2" class="node">
<title>Node2</title>
<g id="a_node2"><a xlink:href="classcie_1_1geo_1_1AbsPrimitive.html" target="_top" xlink:title=" ">
<polygon fill="white" stroke="black" points="61,-614.5 61,-693.5 193,-693.5 193,-614.5 61,-614.5"/>
<text text-anchor="start" x="69" y="-681.5" font-family="Helvetica,sans-Serif" font-size="10.00">cie::geo::AbsPrimitive</text>
<text text-anchor="middle" x="127" y="-670.5" font-family="Helvetica,sans-Serif" font-size="10.00">&lt; Dimension, Double &gt;</text>
<polyline fill="none" stroke="black" points="61,-663.5 193,-663.5 "/>
<text text-anchor="middle" x="127" y="-651.5" font-family="Helvetica,sans-Serif" font-size="10.00"> </text>
<polyline fill="none" stroke="black" points="61,-644.5 193,-644.5 "/>
<text text-anchor="start" x="69" y="-632.5" font-family="Helvetica,sans-Serif" font-size="10.00">+ ~AbsPrimitive()</text>
<text text-anchor="start" x="69" y="-621.5" font-family="Helvetica,sans-Serif" font-size="10.00">+ isDegenerate()</text>
</a>
</g>
</g>
<!-- Node2&#45;&gt;Node1 -->
<g id="edge1" class="edge">
<title>Node2&#45;&gt;Node1</title>
<path fill="none" stroke="midnightblue" d="M127,-604.39C127,-595.56 127,-586.11 127,-576.55"/>
<polygon fill="none" stroke="midnightblue" points="123.5,-604.43 127,-614.43 130.5,-604.43 123.5,-604.43"/>
</g>
<!-- Node3 -->
<g id="node3" class="node">
<title>Node3</title>
<g id="a_node3"><a xlink:href="classcie_1_1geo_1_1Traits.html" target="_top" xlink:title=" ">
<polygon fill="white" stroke="black" points="0,-839.5 0,-907.5 154,-907.5 154,-839.5 0,-839.5"/>
<text text-anchor="start" x="8" y="-895.5" font-family="Helvetica,sans-Serif" font-size="10.00">cie::geo::Traits&lt; Dimension,</text>
<text text-anchor="middle" x="77" y="-884.5" font-family="Helvetica,sans-Serif" font-size="10.00"> CoordinateType &gt;</text>
<polyline fill="none" stroke="black" points="0,-877.5 154,-877.5 "/>
<text text-anchor="start" x="8" y="-865.5" font-family="Helvetica,sans-Serif" font-size="10.00">+ Dimension</text>
<polyline fill="none" stroke="black" points="0,-858.5 154,-858.5 "/>
<text text-anchor="middle" x="77" y="-846.5" font-family="Helvetica,sans-Serif" font-size="10.00"> </text>
</a>
</g>
</g>
<!-- Node3&#45;&gt;Node2 -->
<g id="edge2" class="edge">
<title>Node3&#45;&gt;Node2</title>
<path fill="none" stroke="midnightblue" d="M86.86,-829.6C95.94,-790.11 109.29,-732.03 118.07,-693.87"/>
<polygon fill="none" stroke="midnightblue" points="83.42,-828.94 84.59,-839.47 90.25,-830.5 83.42,-828.94"/>
</g>
<!-- Node4 -->
<g id="node4" class="node">
<title>Node4</title>
<g id="a_node4"><a xlink:href="classcie_1_1geo_1_1Traits.html" target="_top" xlink:title="Basic templated traits that every object has in GEO.">
<polygon fill="white" stroke="black" points="90,-1042.5 90,-1110.5 212,-1110.5 212,-1042.5 90,-1042.5"/>
<text text-anchor="start" x="98" y="-1098.5" font-family="Helvetica,sans-Serif" font-size="10.00">cie::geo::Traits&lt; Dim,</text>
<text text-anchor="middle" x="151" y="-1087.5" font-family="Helvetica,sans-Serif" font-size="10.00"> TCoordinate &gt;</text>
<polyline fill="none" stroke="black" points="90,-1080.5 212,-1080.5 "/>
<text text-anchor="start" x="98" y="-1068.5" font-family="Helvetica,sans-Serif" font-size="10.00">+ Dimension</text>
<polyline fill="none" stroke="black" points="90,-1061.5 212,-1061.5 "/>
<text text-anchor="middle" x="151" y="-1049.5" font-family="Helvetica,sans-Serif" font-size="10.00"> </text>
</a>
</g>
</g>
<!-- Node4&#45;&gt;Node3 -->
<g id="edge3" class="edge">
<title>Node4&#45;&gt;Node3</title>
<path fill="none" stroke="orange" d="M80.94,-1048.66C71.39,-1042.03 62.87,-1033.91 57,-1024 35.91,-988.4 48.47,-939.8 61.18,-907.8"/>
<polygon fill="orange" stroke="orange" points="79.24,-1051.72 89.56,-1054.11 82.98,-1045.81 79.24,-1051.72"/>
<text text-anchor="middle" x="137" y="-1016" font-family="Helvetica,sans-Serif" font-size="10.00"> &lt; Dimension, CoordinateType &gt;</text>
</g>
<!-- Node6 -->
<g id="node6" class="node">
<title>Node6</title>
<g id="a_node6"><a xlink:href="classcie_1_1geo_1_1Traits.html" target="_top" xlink:title=" ">
<polygon fill="white" stroke="black" points="163,-926.5 163,-994.5 317,-994.5 317,-926.5 163,-926.5"/>
<text text-anchor="start" x="171" y="-982.5" font-family="Helvetica,sans-Serif" font-size="10.00">cie::geo::Traits&lt; Dimension,</text>
<text text-anchor="middle" x="240" y="-971.5" font-family="Helvetica,sans-Serif" font-size="10.00"> Double &gt;</text>
<polyline fill="none" stroke="black" points="163,-964.5 317,-964.5 "/>
<text text-anchor="start" x="171" y="-952.5" font-family="Helvetica,sans-Serif" font-size="10.00">+ Dimension</text>
<polyline fill="none" stroke="black" points="163,-945.5 317,-945.5 "/>
<text text-anchor="middle" x="240" y="-933.5" font-family="Helvetica,sans-Serif" font-size="10.00"> </text>
</a>
</g>
</g>
<!-- Node4&#45;&gt;Node6 -->
<g id="edge6" class="edge">
<title>Node4&#45;&gt;Node6</title>
<path fill="none" stroke="orange" d="M211.57,-1035.29C215.01,-1031.72 218.21,-1027.95 221,-1024 227.09,-1015.39 231.27,-1004.79 234.11,-994.78"/>
<polygon fill="orange" stroke="orange" points="209,-1032.9 204.18,-1042.33 213.83,-1037.96 209,-1032.9"/>
<text text-anchor="middle" x="286.5" y="-1016" font-family="Helvetica,sans-Serif" font-size="10.00"> &lt; Dimension, Double &gt;</text>
</g>
<!-- Node5 -->
<g id="node5" class="node">
<title>Node5</title>
<g id="a_node5"><a xlink:href="classcie_1_1geo_1_1AbsPrimitive.html" target="_top" xlink:title=" ">
<polygon fill="white" stroke="black" points="143.5,-741.5 143.5,-820.5 316.5,-820.5 316.5,-741.5 143.5,-741.5"/>
<text text-anchor="start" x="151.5" y="-808.5" font-family="Helvetica,sans-Serif" font-size="10.00">cie::geo::AbsPrimitive</text>
<text text-anchor="middle" x="230" y="-797.5" font-family="Helvetica,sans-Serif" font-size="10.00">&lt; Dimension, CoordinateType &gt;</text>
<polyline fill="none" stroke="black" points="143.5,-790.5 316.5,-790.5 "/>
<text text-anchor="middle" x="230" y="-778.5" font-family="Helvetica,sans-Serif" font-size="10.00"> </text>
<polyline fill="none" stroke="black" points="143.5,-771.5 316.5,-771.5 "/>
<text text-anchor="start" x="151.5" y="-759.5" font-family="Helvetica,sans-Serif" font-size="10.00">+ ~AbsPrimitive()</text>
<text text-anchor="start" x="151.5" y="-748.5" font-family="Helvetica,sans-Serif" font-size="10.00">+ isDegenerate()</text>
</a>
</g>
</g>
<!-- Node5&#45;&gt;Node2 -->
<g id="edge4" class="edge">
<title>Node5&#45;&gt;Node2</title>
<path fill="none" stroke="orange" d="M191.65,-733.46C180.84,-720.34 169.2,-706.21 158.82,-693.61"/>
<polygon fill="orange" stroke="orange" points="189.2,-735.98 198.26,-741.48 194.6,-731.53 189.2,-735.98"/>
<text text-anchor="middle" x="240.5" y="-715" font-family="Helvetica,sans-Serif" font-size="10.00"> &lt; Dimension, Double &gt;</text>
</g>
<!-- Node6&#45;&gt;Node5 -->
<g id="edge5" class="edge">
<title>Node6&#45;&gt;Node5</title>
<path fill="none" stroke="midnightblue" d="M237.54,-915.83C235.9,-886.73 233.77,-848.83 232.19,-820.8"/>
<polygon fill="none" stroke="midnightblue" points="234.06,-916.33 238.12,-926.11 241.05,-915.93 234.06,-916.33"/>
</g>
<!-- Node8 -->
<g id="node8" class="node">
<title>Node8</title>
<g id="a_node8"><a xlink:href="classcie_1_1geo_1_1boolean_1_1Ellipsoid.html" target="_top" xlink:title="Ellipsoid with point membership test.">
<polygon fill="white" stroke="black" points="64.5,-0.5 64.5,-134.5 189.5,-134.5 189.5,-0.5 64.5,-0.5"/>
<text text-anchor="start" x="72.5" y="-122.5" font-family="Helvetica,sans-Serif" font-size="10.00">cie::geo::boolean::</text>
<text text-anchor="start" x="72.5" y="-111.5" font-family="Helvetica,sans-Serif" font-size="10.00">Ellipsoid&lt; Dimension,</text>
<text text-anchor="middle" x="127" y="-100.5" font-family="Helvetica,sans-Serif" font-size="10.00"> CoordinateType &gt;</text>
<polyline fill="none" stroke="black" points="64.5,-93.5 189.5,-93.5 "/>
<text text-anchor="middle" x="127" y="-81.5" font-family="Helvetica,sans-Serif" font-size="10.00"> </text>
<polyline fill="none" stroke="black" points="64.5,-74.5 189.5,-74.5 "/>
<text text-anchor="start" x="72.5" y="-62.5" font-family="Helvetica,sans-Serif" font-size="10.00">+ Ellipsoid()</text>
<text text-anchor="start" x="72.5" y="-51.5" font-family="Helvetica,sans-Serif" font-size="10.00">+ Ellipsoid()</text>
<text text-anchor="start" x="72.5" y="-40.5" font-family="Helvetica,sans-Serif" font-size="10.00">+ Ellipsoid()</text>
<text text-anchor="start" x="72.5" y="-29.5" font-family="Helvetica,sans-Serif" font-size="10.00">+ Ellipsoid()</text>
<text text-anchor="start" x="72.5" y="-18.5" font-family="Helvetica,sans-Serif" font-size="10.00">+ operator=()</text>
<text text-anchor="start" x="72.5" y="-7.5" font-family="Helvetica,sans-Serif" font-size="10.00"># at()</text>
</a>
</g>
</g>
<!-- Node7&#45;&gt;Node8 -->
<g id="edge8" class="edge">
<title>Node7&#45;&gt;Node8</title>
<path fill="none" stroke="midnightblue" d="M127,-162.21C127,-152.85 127,-143.51 127,-134.56"/>
<polygon fill="none" stroke="midnightblue" points="123.5,-162.37 127,-172.37 130.5,-162.37 123.5,-162.37"/>
</g>
</g>
</svg>
