<?xml version="1.0" encoding="UTF-8" standalone="no"?>
<!DOCTYPE svg PUBLIC "-//W3C//DTD SVG 1.1//EN"
 "http://www.w3.org/Graphics/SVG/1.1/DTD/svg11.dtd">
<!-- Generated by graphviz version 2.43.0 (0)
 -->
<!-- Title: cie::geo::ObjectWrapper&lt; Dimension, ValueType, CoordinateType &gt; Pages: 1 -->
<svg width="257pt" height="675pt"
 viewBox="0.00 0.00 257.00 675.00" xmlns="http://www.w3.org/2000/svg" xmlns:xlink="http://www.w3.org/1999/xlink">
<g id="graph0" class="graph" transform="scale(1 1) rotate(0) translate(4 671)">
<title>cie::geo::ObjectWrapper&lt; Dimension, ValueType, CoordinateType &gt;</title>
<polygon fill="white" stroke="transparent" points="-4,4 -4,-671 253,-671 253,4 -4,4"/>
<!-- Node1 -->
<g id="node1" class="node">
<title>Node1</title>
<g id="a_node1"><a xlink:title=" ">
<polygon fill="#bfbfbf" stroke="black" points="11.5,-0.5 11.5,-123.5 150.5,-123.5 150.5,-0.5 11.5,-0.5"/>
<text text-anchor="start" x="19.5" y="-111.5" font-family="Helvetica,sans-Serif" font-size="10.00">cie::geo::ObjectWrapper</text>
<text text-anchor="start" x="19.5" y="-100.5" font-family="Helvetica,sans-Serif" font-size="10.00">&lt; Dimension, ValueType,</text>
<text text-anchor="middle" x="81" y="-89.5" font-family="Helvetica,sans-Serif" font-size="10.00"> CoordinateType &gt;</text>
<polyline fill="none" stroke="black" points="11.5,-82.5 150.5,-82.5 "/>
<text text-anchor="start" x="19.5" y="-70.5" font-family="Helvetica,sans-Serif" font-size="10.00"># _functor</text>
<polyline fill="none" stroke="black" points="11.5,-63.5 150.5,-63.5 "/>
<text text-anchor="start" x="19.5" y="-51.5" font-family="Helvetica,sans-Serif" font-size="10.00">+ ObjectWrapper()</text>
<text text-anchor="start" x="19.5" y="-40.5" font-family="Helvetica,sans-Serif" font-size="10.00">+ ObjectWrapper()</text>
<text text-anchor="start" x="19.5" y="-29.5" font-family="Helvetica,sans-Serif" font-size="10.00">+ ObjectWrapper()</text>
<text text-anchor="start" x="19.5" y="-18.5" font-family="Helvetica,sans-Serif" font-size="10.00">+ operator=()</text>
<text text-anchor="start" x="19.5" y="-7.5" font-family="Helvetica,sans-Serif" font-size="10.00">+ at()</text>
</a>
</g>
</g>
<!-- Node2 -->
<g id="node2" class="node">
<title>Node2</title>
<g id="a_node2"><a xlink:href="classcie_1_1geo_1_1Object.html" target="_top" xlink:title=" ">
<polygon fill="white" stroke="black" points="0,-161.5 0,-273.5 162,-273.5 162,-161.5 0,-161.5"/>
<text text-anchor="start" x="8" y="-261.5" font-family="Helvetica,sans-Serif" font-size="10.00">cie::geo::Object&lt; Dimension,</text>
<text text-anchor="middle" x="81" y="-250.5" font-family="Helvetica,sans-Serif" font-size="10.00"> ValueType, CoordinateType &gt;</text>
<polyline fill="none" stroke="black" points="0,-243.5 162,-243.5 "/>
<text text-anchor="middle" x="81" y="-231.5" font-family="Helvetica,sans-Serif" font-size="10.00"> </text>
<polyline fill="none" stroke="black" points="0,-224.5 162,-224.5 "/>
<text text-anchor="start" x="8" y="-212.5" font-family="Helvetica,sans-Serif" font-size="10.00">+ ~Object()</text>
<text text-anchor="start" x="8" y="-201.5" font-family="Helvetica,sans-Serif" font-size="10.00">+ evaluate()</text>
<text text-anchor="start" x="8" y="-190.5" font-family="Helvetica,sans-Serif" font-size="10.00">+ evaluate()</text>
<text text-anchor="start" x="8" y="-179.5" font-family="Helvetica,sans-Serif" font-size="10.00">+ evaluate()</text>
<text text-anchor="start" x="8" y="-168.5" font-family="Helvetica,sans-Serif" font-size="10.00">+ at()</text>
</a>
</g>
</g>
<!-- Node2&#45;&gt;Node1 -->
<g id="edge1" class="edge">
<title>Node2&#45;&gt;Node1</title>
<path fill="none" stroke="midnightblue" d="M81,-150.93C81,-141.84 81,-132.53 81,-123.53"/>
<polygon fill="none" stroke="midnightblue" points="77.5,-151.08 81,-161.08 84.5,-151.08 77.5,-151.08"/>
</g>
<!-- Node3 -->
<g id="node3" class="node">
<title>Node3</title>
<g id="a_node3"><a xlink:href="classcie_1_1geo_1_1Traits.html" target="_top" xlink:title=" ">
<polygon fill="white" stroke="black" points="22.5,-482.5 22.5,-550.5 131.5,-550.5 131.5,-482.5 22.5,-482.5"/>
<text text-anchor="start" x="30.5" y="-538.5" font-family="Helvetica,sans-Serif" font-size="10.00">cie::geo::Traits&lt; N,</text>
<text text-anchor="middle" x="77" y="-527.5" font-family="Helvetica,sans-Serif" font-size="10.00"> TCoordinate &gt;</text>
<polyline fill="none" stroke="black" points="22.5,-520.5 131.5,-520.5 "/>
<text text-anchor="start" x="30.5" y="-508.5" font-family="Helvetica,sans-Serif" font-size="10.00">+ Dimension</text>
<polyline fill="none" stroke="black" points="22.5,-501.5 131.5,-501.5 "/>
<text text-anchor="middle" x="77" y="-489.5" font-family="Helvetica,sans-Serif" font-size="10.00"> </text>
</a>
</g>
</g>
<!-- Node3&#45;&gt;Node2 -->
<g id="edge2" class="edge">
<title>Node3&#45;&gt;Node2</title>
<path fill="none" stroke="midnightblue" d="M77.58,-472.29C78.29,-419.77 79.48,-331.06 80.26,-273.65"/>
<polygon fill="none" stroke="midnightblue" points="74.08,-472.25 77.45,-482.29 81.08,-472.34 74.08,-472.25"/>
</g>
<!-- Node5 -->
<g id="node5" class="node">
<title>Node5</title>
<g id="a_node5"><a xlink:href="classcie_1_1geo_1_1Object.html" target="_top" xlink:title="Interface for point&#45;queriable objects.">
<polygon fill="white" stroke="black" points="93,-332.5 93,-444.5 221,-444.5 221,-332.5 93,-332.5"/>
<text text-anchor="start" x="101" y="-432.5" font-family="Helvetica,sans-Serif" font-size="10.00">cie::geo::Object&lt; N,</text>
<text text-anchor="middle" x="157" y="-421.5" font-family="Helvetica,sans-Serif" font-size="10.00"> TValue, TCoordinate &gt;</text>
<polyline fill="none" stroke="black" points="93,-414.5 221,-414.5 "/>
<text text-anchor="middle" x="157" y="-402.5" font-family="Helvetica,sans-Serif" font-size="10.00"> </text>
<polyline fill="none" stroke="black" points="93,-395.5 221,-395.5 "/>
<text text-anchor="start" x="101" y="-383.5" font-family="Helvetica,sans-Serif" font-size="10.00">+ ~Object()</text>
<text text-anchor="start" x="101" y="-372.5" font-family="Helvetica,sans-Serif" font-size="10.00">+ evaluate()</text>
<text text-anchor="start" x="101" y="-361.5" font-family="Helvetica,sans-Serif" font-size="10.00">+ evaluate()</text>
<text text-anchor="start" x="101" y="-350.5" font-family="Helvetica,sans-Serif" font-size="10.00">+ evaluate()</text>
<text text-anchor="start" x="101" y="-339.5" font-family="Helvetica,sans-Serif" font-size="10.00">+ at()</text>
</a>
</g>
</g>
<!-- Node3&#45;&gt;Node5 -->
<g id="edge5" class="edge">
<title>Node3&#45;&gt;Node5</title>
<path fill="none" stroke="midnightblue" d="M103.51,-473.75C109.39,-464.48 115.72,-454.51 121.89,-444.79"/>
<polygon fill="none" stroke="midnightblue" points="100.42,-472.08 98.02,-482.39 106.33,-475.83 100.42,-472.08"/>
</g>
<!-- Node4 -->
<g id="node4" class="node">
<title>Node4</title>
<g id="a_node4"><a xlink:href="classcie_1_1geo_1_1Traits.html" target="_top" xlink:title="Basic templated traits that every object has in GEO.">
<polygon fill="white" stroke="black" points="16,-598.5 16,-666.5 138,-666.5 138,-598.5 16,-598.5"/>
<text text-anchor="start" x="24" y="-654.5" font-family="Helvetica,sans-Serif" font-size="10.00">cie::geo::Traits&lt; Dim,</text>
<text text-anchor="middle" x="77" y="-643.5" font-family="Helvetica,sans-Serif" font-size="10.00"> TCoordinate &gt;</text>
<polyline fill="none" stroke="black" points="16,-636.5 138,-636.5 "/>
<text text-anchor="start" x="24" y="-624.5" font-family="Helvetica,sans-Serif" font-size="10.00">+ Dimension</text>
<polyline fill="none" stroke="black" points="16,-617.5 138,-617.5 "/>
<text text-anchor="middle" x="77" y="-605.5" font-family="Helvetica,sans-Serif" font-size="10.00"> </text>
</a>
</g>
</g>
<!-- Node4&#45;&gt;Node3 -->
<g id="edge3" class="edge">
<title>Node4&#45;&gt;Node3</title>
<path fill="none" stroke="orange" d="M77,-588.06C77,-575.64 77,-562.32 77,-550.62"/>
<polygon fill="orange" stroke="orange" points="73.5,-588.22 77,-598.22 80.5,-588.22 73.5,-588.22"/>
<text text-anchor="middle" x="126" y="-572" font-family="Helvetica,sans-Serif" font-size="10.00"> &lt; N, TCoordinate &gt;</text>
</g>
<!-- Node5&#45;&gt;Node2 -->
<g id="edge4" class="edge">
<title>Node5&#45;&gt;Node2</title>
<path fill="none" stroke="orange" d="M127.89,-322.77C120.61,-306.57 112.86,-289.35 105.81,-273.67"/>
<polygon fill="orange" stroke="orange" points="124.82,-324.48 132.11,-332.16 131.21,-321.61 124.82,-324.48"/>
<text text-anchor="start" x="123" y="-306" font-family="Helvetica,sans-Serif" font-size="10.00"> &lt; Dimension, ValueType,</text>
<text text-anchor="middle" x="186" y="-295" font-family="Helvetica,sans-Serif" font-size="10.00"> CoordinateType &gt;</text>
</g>
</g>
</svg>
