<?xml version="1.0" encoding="UTF-8" standalone="no"?>
<!DOCTYPE svg PUBLIC "-//W3C//DTD SVG 1.1//EN"
 "http://www.w3.org/Graphics/SVG/1.1/DTD/svg11.dtd">
<!-- Generated by graphviz version 2.43.0 (0)
 -->
<!-- Title: cie::geo::InfiniteDomain&lt; Dimension, CoordinateType &gt; Pages: 1 -->
<svg width="235pt" height="620pt"
 viewBox="0.00 0.00 234.50 620.00" xmlns="http://www.w3.org/2000/svg" xmlns:xlink="http://www.w3.org/1999/xlink">
<g id="graph0" class="graph" transform="scale(1 1) rotate(0) translate(4 616)">
<title>cie::geo::InfiniteDomain&lt; Dimension, CoordinateType &gt;</title>
<polygon fill="white" stroke="transparent" points="-4,4 -4,-616 230.5,-616 230.5,4 -4,4"/>
<!-- Node1 -->
<g id="node1" class="node">
<title>Node1</title>
<g id="a_node1"><a xlink:title=" ">
<polygon fill="#bfbfbf" stroke="black" points="0,-0.5 0,-68.5 173,-68.5 173,-0.5 0,-0.5"/>
<text text-anchor="start" x="8" y="-56.5" font-family="Helvetica,sans-Serif" font-size="10.00">cie::geo::InfiniteDomain</text>
<text text-anchor="middle" x="86.5" y="-45.5" font-family="Helvetica,sans-Serif" font-size="10.00">&lt; Dimension, CoordinateType &gt;</text>
<polyline fill="none" stroke="black" points="0,-38.5 173,-38.5 "/>
<text text-anchor="middle" x="86.5" y="-26.5" font-family="Helvetica,sans-Serif" font-size="10.00"> </text>
<polyline fill="none" stroke="black" points="0,-19.5 173,-19.5 "/>
<text text-anchor="start" x="8" y="-7.5" font-family="Helvetica,sans-Serif" font-size="10.00">+ at()</text>
</a>
</g>
</g>
<!-- Node2 -->
<g id="node2" class="node">
<title>Node2</title>
<g id="a_node2"><a xlink:href="classcie_1_1geo_1_1Object.html" target="_top" xlink:title=" ">
<polygon fill="white" stroke="black" points="7,-106.5 7,-218.5 166,-218.5 166,-106.5 7,-106.5"/>
<text text-anchor="start" x="15" y="-206.5" font-family="Helvetica,sans-Serif" font-size="10.00">cie::geo::Object&lt; Dimension,</text>
<text text-anchor="middle" x="86.5" y="-195.5" font-family="Helvetica,sans-Serif" font-size="10.00"> Bool, CoordinateType &gt;</text>
<polyline fill="none" stroke="black" points="7,-188.5 166,-188.5 "/>
<text text-anchor="middle" x="86.5" y="-176.5" font-family="Helvetica,sans-Serif" font-size="10.00"> </text>
<polyline fill="none" stroke="black" points="7,-169.5 166,-169.5 "/>
<text text-anchor="start" x="15" y="-157.5" font-family="Helvetica,sans-Serif" font-size="10.00">+ ~Object()</text>
<text text-anchor="start" x="15" y="-146.5" font-family="Helvetica,sans-Serif" font-size="10.00">+ evaluate()</text>
<text text-anchor="start" x="15" y="-135.5" font-family="Helvetica,sans-Serif" font-size="10.00">+ evaluate()</text>
<text text-anchor="start" x="15" y="-124.5" font-family="Helvetica,sans-Serif" font-size="10.00">+ evaluate()</text>
<text text-anchor="start" x="15" y="-113.5" font-family="Helvetica,sans-Serif" font-size="10.00">+ at()</text>
</a>
</g>
</g>
<!-- Node2&#45;&gt;Node1 -->
<g id="edge1" class="edge">
<title>Node2&#45;&gt;Node1</title>
<path fill="none" stroke="midnightblue" d="M86.5,-95.96C86.5,-86.48 86.5,-77.08 86.5,-68.62"/>
<polygon fill="none" stroke="midnightblue" points="83,-96.23 86.5,-106.23 90,-96.23 83,-96.23"/>
</g>
<!-- Node3 -->
<g id="node3" class="node">
<title>Node3</title>
<g id="a_node3"><a xlink:href="classcie_1_1geo_1_1Traits.html" target="_top" xlink:title=" ">
<polygon fill="white" stroke="black" points="28,-427.5 28,-495.5 137,-495.5 137,-427.5 28,-427.5"/>
<text text-anchor="start" x="36" y="-483.5" font-family="Helvetica,sans-Serif" font-size="10.00">cie::geo::Traits&lt; N,</text>
<text text-anchor="middle" x="82.5" y="-472.5" font-family="Helvetica,sans-Serif" font-size="10.00"> TCoordinate &gt;</text>
<polyline fill="none" stroke="black" points="28,-465.5 137,-465.5 "/>
<text text-anchor="start" x="36" y="-453.5" font-family="Helvetica,sans-Serif" font-size="10.00">+ Dimension</text>
<polyline fill="none" stroke="black" points="28,-446.5 137,-446.5 "/>
<text text-anchor="middle" x="82.5" y="-434.5" font-family="Helvetica,sans-Serif" font-size="10.00"> </text>
</a>
</g>
</g>
<!-- Node3&#45;&gt;Node2 -->
<g id="edge2" class="edge">
<title>Node3&#45;&gt;Node2</title>
<path fill="none" stroke="midnightblue" d="M83.08,-417.29C83.79,-364.77 84.98,-276.06 85.76,-218.65"/>
<polygon fill="none" stroke="midnightblue" points="79.58,-417.25 82.95,-427.29 86.58,-417.34 79.58,-417.25"/>
</g>
<!-- Node5 -->
<g id="node5" class="node">
<title>Node5</title>
<g id="a_node5"><a xlink:href="classcie_1_1geo_1_1Object.html" target="_top" xlink:title="Interface for point&#45;queriable objects.">
<polygon fill="white" stroke="black" points="98.5,-277.5 98.5,-389.5 226.5,-389.5 226.5,-277.5 98.5,-277.5"/>
<text text-anchor="start" x="106.5" y="-377.5" font-family="Helvetica,sans-Serif" font-size="10.00">cie::geo::Object&lt; N,</text>
<text text-anchor="middle" x="162.5" y="-366.5" font-family="Helvetica,sans-Serif" font-size="10.00"> TValue, TCoordinate &gt;</text>
<polyline fill="none" stroke="black" points="98.5,-359.5 226.5,-359.5 "/>
<text text-anchor="middle" x="162.5" y="-347.5" font-family="Helvetica,sans-Serif" font-size="10.00"> </text>
<polyline fill="none" stroke="black" points="98.5,-340.5 226.5,-340.5 "/>
<text text-anchor="start" x="106.5" y="-328.5" font-family="Helvetica,sans-Serif" font-size="10.00">+ ~Object()</text>
<text text-anchor="start" x="106.5" y="-317.5" font-family="Helvetica,sans-Serif" font-size="10.00">+ evaluate()</text>
<text text-anchor="start" x="106.5" y="-306.5" font-family="Helvetica,sans-Serif" font-size="10.00">+ evaluate()</text>
<text text-anchor="start" x="106.5" y="-295.5" font-family="Helvetica,sans-Serif" font-size="10.00">+ evaluate()</text>
<text text-anchor="start" x="106.5" y="-284.5" font-family="Helvetica,sans-Serif" font-size="10.00">+ at()</text>
</a>
</g>
</g>
<!-- Node3&#45;&gt;Node5 -->
<g id="edge5" class="edge">
<title>Node3&#45;&gt;Node5</title>
<path fill="none" stroke="midnightblue" d="M109.01,-418.75C114.89,-409.48 121.22,-399.51 127.39,-389.79"/>
<polygon fill="none" stroke="midnightblue" points="105.92,-417.08 103.52,-427.39 111.83,-420.83 105.92,-417.08"/>
</g>
<!-- Node4 -->
<g id="node4" class="node">
<title>Node4</title>
<g id="a_node4"><a xlink:href="classcie_1_1geo_1_1Traits.html" target="_top" xlink:title="Basic templated traits that every object has in GEO.">
<polygon fill="white" stroke="black" points="21.5,-543.5 21.5,-611.5 143.5,-611.5 143.5,-543.5 21.5,-543.5"/>
<text text-anchor="start" x="29.5" y="-599.5" font-family="Helvetica,sans-Serif" font-size="10.00">cie::geo::Traits&lt; Dim,</text>
<text text-anchor="middle" x="82.5" y="-588.5" font-family="Helvetica,sans-Serif" font-size="10.00"> TCoordinate &gt;</text>
<polyline fill="none" stroke="black" points="21.5,-581.5 143.5,-581.5 "/>
<text text-anchor="start" x="29.5" y="-569.5" font-family="Helvetica,sans-Serif" font-size="10.00">+ Dimension</text>
<polyline fill="none" stroke="black" points="21.5,-562.5 143.5,-562.5 "/>
<text text-anchor="middle" x="82.5" y="-550.5" font-family="Helvetica,sans-Serif" font-size="10.00"> </text>
</a>
</g>
</g>
<!-- Node4&#45;&gt;Node3 -->
<g id="edge3" class="edge">
<title>Node4&#45;&gt;Node3</title>
<path fill="none" stroke="orange" d="M82.5,-533.06C82.5,-520.64 82.5,-507.32 82.5,-495.62"/>
<polygon fill="orange" stroke="orange" points="79,-533.22 82.5,-543.22 86,-533.22 79,-533.22"/>
<text text-anchor="middle" x="131.5" y="-517" font-family="Helvetica,sans-Serif" font-size="10.00"> &lt; N, TCoordinate &gt;</text>
</g>
<!-- Node5&#45;&gt;Node2 -->
<g id="edge4" class="edge">
<title>Node5&#45;&gt;Node2</title>
<path fill="none" stroke="orange" d="M133.39,-267.77C126.11,-251.57 118.36,-234.35 111.31,-218.67"/>
<polygon fill="orange" stroke="orange" points="130.32,-269.48 137.61,-277.16 136.71,-266.61 130.32,-269.48"/>
<text text-anchor="start" x="128.5" y="-251" font-family="Helvetica,sans-Serif" font-size="10.00"> &lt; Dimension, Bool,</text>
<text text-anchor="middle" x="177.5" y="-240" font-family="Helvetica,sans-Serif" font-size="10.00"> CoordinateType &gt;</text>
</g>
</g>
</svg>
