<?xml version="1.0" encoding="UTF-8" standalone="no"?>
<!DOCTYPE svg PUBLIC "-//W3C//DTD SVG 1.1//EN"
 "http://www.w3.org/Graphics/SVG/1.1/DTD/svg11.dtd">
<!-- Generated by graphviz version 2.43.0 (0)
 -->
<!-- Title: cie::geo::AABBoxNode&lt; TObject &gt; Pages: 1 -->
<svg width="549pt" height="739pt"
 viewBox="0.00 0.00 548.50 739.00" xmlns="http://www.w3.org/2000/svg" xmlns:xlink="http://www.w3.org/1999/xlink">
<g id="graph0" class="graph" transform="scale(1 1) rotate(0) translate(4 735)">
<title>cie::geo::AABBoxNode&lt; TObject &gt;</title>
<polygon fill="white" stroke="transparent" points="-4,4 -4,-735 544.5,-735 544.5,4 -4,4"/>
<!-- Node1 -->
<g id="node1" class="node">
<title>Node1</title>
<g id="a_node1"><a xlink:title=" ">
<polygon fill="#bfbfbf" stroke="black" points="218,-0.5 218,-200.5 345,-200.5 345,-0.5 218,-0.5"/>
<text text-anchor="start" x="226" y="-188.5" font-family="Helvetica,sans-Serif" font-size="10.00">cie::geo::AABBoxNode</text>
<text text-anchor="middle" x="281.5" y="-177.5" font-family="Helvetica,sans-Serif" font-size="10.00">&lt; TObject &gt;</text>
<polyline fill="none" stroke="black" points="218,-170.5 345,-170.5 "/>
<text text-anchor="start" x="226" y="-158.5" font-family="Helvetica,sans-Serif" font-size="10.00"># _containedObjects</text>
<text text-anchor="start" x="226" y="-147.5" font-family="Helvetica,sans-Serif" font-size="10.00"># _intersectedObjects</text>
<text text-anchor="start" x="226" y="-136.5" font-family="Helvetica,sans-Serif" font-size="10.00"># _p_parent</text>
<polyline fill="none" stroke="black" points="218,-129.5 345,-129.5 "/>
<text text-anchor="start" x="226" y="-117.5" font-family="Helvetica,sans-Serif" font-size="10.00">+ AABBoxNode()</text>
<text text-anchor="start" x="226" y="-106.5" font-family="Helvetica,sans-Serif" font-size="10.00">+ AABBoxNode()</text>
<text text-anchor="start" x="226" y="-95.5" font-family="Helvetica,sans-Serif" font-size="10.00">+ addObject()</text>
<text text-anchor="start" x="226" y="-84.5" font-family="Helvetica,sans-Serif" font-size="10.00">+ eraseExpired()</text>
<text text-anchor="start" x="226" y="-73.5" font-family="Helvetica,sans-Serif" font-size="10.00">+ shrink()</text>
<text text-anchor="start" x="226" y="-62.5" font-family="Helvetica,sans-Serif" font-size="10.00">+ find()</text>
<text text-anchor="start" x="226" y="-51.5" font-family="Helvetica,sans-Serif" font-size="10.00">+ partition()</text>
<text text-anchor="start" x="226" y="-40.5" font-family="Helvetica,sans-Serif" font-size="10.00">+ containedObjects()</text>
<text text-anchor="start" x="226" y="-29.5" font-family="Helvetica,sans-Serif" font-size="10.00">+ intersectedObjects()</text>
<text text-anchor="start" x="226" y="-18.5" font-family="Helvetica,sans-Serif" font-size="10.00">+ parent()</text>
<text text-anchor="start" x="226" y="-7.5" font-family="Helvetica,sans-Serif" font-size="10.00">+ parent()</text>
</a>
</g>
</g>
<!-- Node2 -->
<g id="node2" class="node">
<title>Node2</title>
<g id="a_node2"><a xlink:href="classCell.html" target="_top" xlink:title=" ">
<polygon fill="white" stroke="black" points="0,-299 0,-389 167,-389 167,-299 0,-299"/>
<text text-anchor="start" x="8" y="-377" font-family="Helvetica,sans-Serif" font-size="10.00">Cell&lt; AABBox&lt; GetTraits</text>
<text text-anchor="start" x="8" y="-366" font-family="Helvetica,sans-Serif" font-size="10.00">&lt; TObject &gt;::Type::Dimension,</text>
<text text-anchor="start" x="8" y="-355" font-family="Helvetica,sans-Serif" font-size="10.00"> GetTraits&lt; TObject &gt;::Type</text>
<text text-anchor="middle" x="83.5" y="-344" font-family="Helvetica,sans-Serif" font-size="10.00">::Coordinate &gt; &gt;</text>
<polyline fill="none" stroke="black" points="0,-337 167,-337 "/>
<text text-anchor="middle" x="83.5" y="-325" font-family="Helvetica,sans-Serif" font-size="10.00"> </text>
<polyline fill="none" stroke="black" points="0,-318 167,-318 "/>
<text text-anchor="middle" x="83.5" y="-306" font-family="Helvetica,sans-Serif" font-size="10.00"> </text>
</a>
</g>
</g>
<!-- Node2&#45;&gt;Node1 -->
<g id="edge1" class="edge">
<title>Node2&#45;&gt;Node1</title>
<path fill="none" stroke="midnightblue" d="M126.18,-290.94C152.86,-258.41 187.7,-215.91 217.62,-179.41"/>
<polygon fill="none" stroke="midnightblue" points="123.22,-289.03 119.59,-298.99 128.63,-293.47 123.22,-289.03"/>
</g>
<!-- Node3 -->
<g id="node3" class="node">
<title>Node3</title>
<g id="a_node3"><a target="_parent" xlink:href="../../../cieutils/docs/html/classcie_1_1utils_1_1AbsTree.html" xlink:title=" ">
<polygon fill="white" stroke="black" points="184.5,-238.5 184.5,-449.5 378.5,-449.5 378.5,-238.5 184.5,-238.5"/>
<text text-anchor="start" x="192.5" y="-437.5" font-family="Helvetica,sans-Serif" font-size="10.00">cie::utils::AbsTree</text>
<text text-anchor="start" x="192.5" y="-426.5" font-family="Helvetica,sans-Serif" font-size="10.00">&lt; AABBoxNode&lt; TObject</text>
<text text-anchor="start" x="192.5" y="-415.5" font-family="Helvetica,sans-Serif" font-size="10.00"> &gt;, std::deque, std::shared</text>
<text text-anchor="middle" x="281.5" y="-404.5" font-family="Helvetica,sans-Serif" font-size="10.00">_ptr&lt; AABBoxNode&lt; TObject &gt; &gt; &gt;</text>
<polyline fill="none" stroke="black" points="184.5,-397.5 378.5,-397.5 "/>
<text text-anchor="start" x="192.5" y="-385.5" font-family="Helvetica,sans-Serif" font-size="10.00"># _children</text>
<text text-anchor="start" x="192.5" y="-374.5" font-family="Helvetica,sans-Serif" font-size="10.00"># _level</text>
<polyline fill="none" stroke="black" points="184.5,-367.5 378.5,-367.5 "/>
<text text-anchor="start" x="192.5" y="-355.5" font-family="Helvetica,sans-Serif" font-size="10.00">+ AbsTree()</text>
<text text-anchor="start" x="192.5" y="-344.5" font-family="Helvetica,sans-Serif" font-size="10.00">+ AbsTree()</text>
<text text-anchor="start" x="192.5" y="-333.5" font-family="Helvetica,sans-Serif" font-size="10.00">+ AbsTree()</text>
<text text-anchor="start" x="192.5" y="-322.5" font-family="Helvetica,sans-Serif" font-size="10.00">+ AbsTree()</text>
<text text-anchor="start" x="192.5" y="-311.5" font-family="Helvetica,sans-Serif" font-size="10.00">+ operator=()</text>
<text text-anchor="start" x="192.5" y="-300.5" font-family="Helvetica,sans-Serif" font-size="10.00">+ operator=()</text>
<text text-anchor="start" x="192.5" y="-289.5" font-family="Helvetica,sans-Serif" font-size="10.00">+ ~AbsTree()</text>
<text text-anchor="start" x="192.5" y="-278.5" font-family="Helvetica,sans-Serif" font-size="10.00">+ visit()</text>
<text text-anchor="start" x="192.5" y="-267.5" font-family="Helvetica,sans-Serif" font-size="10.00">+ visit()</text>
<text text-anchor="start" x="192.5" y="-256.5" font-family="Helvetica,sans-Serif" font-size="10.00">+ visit()</text>
<text text-anchor="start" x="192.5" y="-245.5" font-family="Helvetica,sans-Serif" font-size="10.00">and 9 more...</text>
</a>
</g>
</g>
<!-- Node3&#45;&gt;Node1 -->
<g id="edge2" class="edge">
<title>Node3&#45;&gt;Node1</title>
<path fill="none" stroke="midnightblue" d="M281.5,-228.19C281.5,-219.05 281.5,-209.86 281.5,-200.84"/>
<polygon fill="none" stroke="midnightblue" points="278,-228.48 281.5,-238.48 285,-228.48 278,-228.48"/>
</g>
<!-- Node4 -->
<g id="node4" class="node">
<title>Node4</title>
<g id="a_node4"><a target="_parent" xlink:href="../../../cieutils/docs/html/classcie_1_1utils_1_1AbsTree.html" xlink:title=" ">
<polygon fill="white" stroke="black" points="224.5,-530.5 224.5,-730.5 338.5,-730.5 338.5,-530.5 224.5,-530.5"/>
<text text-anchor="start" x="232.5" y="-718.5" font-family="Helvetica,sans-Serif" font-size="10.00">cie::utils::AbsTree</text>
<text text-anchor="start" x="232.5" y="-707.5" font-family="Helvetica,sans-Serif" font-size="10.00">&lt; class, TContainer,</text>
<text text-anchor="middle" x="281.5" y="-696.5" font-family="Helvetica,sans-Serif" font-size="10.00"> class, TArgs &gt;</text>
<polyline fill="none" stroke="black" points="224.5,-689.5 338.5,-689.5 "/>
<text text-anchor="start" x="232.5" y="-677.5" font-family="Helvetica,sans-Serif" font-size="10.00"># _children</text>
<text text-anchor="start" x="232.5" y="-666.5" font-family="Helvetica,sans-Serif" font-size="10.00"># _level</text>
<polyline fill="none" stroke="black" points="224.5,-659.5 338.5,-659.5 "/>
<text text-anchor="start" x="232.5" y="-647.5" font-family="Helvetica,sans-Serif" font-size="10.00">+ AbsTree()</text>
<text text-anchor="start" x="232.5" y="-636.5" font-family="Helvetica,sans-Serif" font-size="10.00">+ AbsTree()</text>
<text text-anchor="start" x="232.5" y="-625.5" font-family="Helvetica,sans-Serif" font-size="10.00">+ AbsTree()</text>
<text text-anchor="start" x="232.5" y="-614.5" font-family="Helvetica,sans-Serif" font-size="10.00">+ AbsTree()</text>
<text text-anchor="start" x="232.5" y="-603.5" font-family="Helvetica,sans-Serif" font-size="10.00">+ operator=()</text>
<text text-anchor="start" x="232.5" y="-592.5" font-family="Helvetica,sans-Serif" font-size="10.00">+ operator=()</text>
<text text-anchor="start" x="232.5" y="-581.5" font-family="Helvetica,sans-Serif" font-size="10.00">+ ~AbsTree()</text>
<text text-anchor="start" x="232.5" y="-570.5" font-family="Helvetica,sans-Serif" font-size="10.00">+ visit()</text>
<text text-anchor="start" x="232.5" y="-559.5" font-family="Helvetica,sans-Serif" font-size="10.00">+ visit()</text>
<text text-anchor="start" x="232.5" y="-548.5" font-family="Helvetica,sans-Serif" font-size="10.00">+ visit()</text>
<text text-anchor="start" x="232.5" y="-537.5" font-family="Helvetica,sans-Serif" font-size="10.00">and 9 more...</text>
</a>
</g>
</g>
<!-- Node4&#45;&gt;Node3 -->
<g id="edge3" class="edge">
<title>Node4&#45;&gt;Node3</title>
<path fill="none" stroke="orange" d="M281.5,-520.19C281.5,-496.99 281.5,-472.56 281.5,-449.55"/>
<polygon fill="orange" stroke="orange" points="278,-520.4 281.5,-530.4 285,-520.4 278,-520.4"/>
<text text-anchor="start" x="281.5" y="-504" font-family="Helvetica,sans-Serif" font-size="10.00"> &lt; AABBoxNode&lt; TObject</text>
<text text-anchor="start" x="281.5" y="-493" font-family="Helvetica,sans-Serif" font-size="10.00"> &gt;, std::deque, std::</text>
<text text-anchor="start" x="281.5" y="-482" font-family="Helvetica,sans-Serif" font-size="10.00">shared_ptr&lt; AABBoxNode</text>
<text text-anchor="middle" x="345.5" y="-471" font-family="Helvetica,sans-Serif" font-size="10.00">&lt; TObject &gt; &gt; &gt;</text>
</g>
<!-- Node5 -->
<g id="node5" class="node">
<title>Node5</title>
<g id="a_node5"><a xlink:title=" ">
<polygon fill="white" stroke="#bfbfbf" points="396.5,-304.5 396.5,-383.5 540.5,-383.5 540.5,-304.5 396.5,-304.5"/>
<text text-anchor="start" x="404.5" y="-371.5" font-family="Helvetica,sans-Serif" font-size="10.00">std::enable_shared</text>
<text text-anchor="start" x="404.5" y="-360.5" font-family="Helvetica,sans-Serif" font-size="10.00">_from_this&lt; AABBoxNode</text>
<text text-anchor="middle" x="468.5" y="-349.5" font-family="Helvetica,sans-Serif" font-size="10.00">&lt; TObject &gt; &gt;</text>
<polyline fill="none" stroke="#bfbfbf" points="396.5,-342.5 540.5,-342.5 "/>
<text text-anchor="middle" x="468.5" y="-330.5" font-family="Helvetica,sans-Serif" font-size="10.00"> </text>
<polyline fill="none" stroke="#bfbfbf" points="396.5,-323.5 540.5,-323.5 "/>
<text text-anchor="middle" x="468.5" y="-311.5" font-family="Helvetica,sans-Serif" font-size="10.00"> </text>
</a>
</g>
</g>
<!-- Node5&#45;&gt;Node1 -->
<g id="edge4" class="edge">
<title>Node5&#45;&gt;Node1</title>
<path fill="none" stroke="midnightblue" d="M432.27,-295.97C418.29,-277.84 402.16,-256.95 387.5,-238 373.82,-220.32 359.12,-201.37 345.16,-183.39"/>
<polygon fill="none" stroke="midnightblue" points="429.65,-298.3 438.53,-304.08 435.19,-294.03 429.65,-298.3"/>
</g>
</g>
</svg>
