<?xml version="1.0" encoding="UTF-8" standalone="no"?>
<!DOCTYPE svg PUBLIC "-//W3C//DTD SVG 1.1//EN"
 "http://www.w3.org/Graphics/SVG/1.1/DTD/svg11.dtd">
<!-- Generated by graphviz version 2.43.0 (0)
 -->
<!-- Title: cie::geo::CartesianGrid&lt; Dim, TCoordinate, TIndex, ExecutionTag &gt; Pages: 1 -->
<svg width="163pt" height="347pt"
 viewBox="0.00 0.00 163.00 347.00" xmlns="http://www.w3.org/2000/svg" xmlns:xlink="http://www.w3.org/1999/xlink">
<g id="graph0" class="graph" transform="scale(1 1) rotate(0) translate(4 343)">
<title>cie::geo::CartesianGrid&lt; Dim, TCoordinate, TIndex, ExecutionTag &gt;</title>
<polygon fill="white" stroke="transparent" points="-4,4 -4,-343 159,-343 159,4 -4,4"/>
<!-- Node1 -->
<g id="node1" class="node">
<title>Node1</title>
<g id="a_node1"><a xlink:title=" ">
<polygon fill="#bfbfbf" stroke="black" points="0,-0.5 0,-233.5 155,-233.5 155,-0.5 0,-0.5"/>
<text text-anchor="start" x="8" y="-221.5" font-family="Helvetica,sans-Serif" font-size="10.00">cie::geo::CartesianGrid</text>
<text text-anchor="start" x="8" y="-210.5" font-family="Helvetica,sans-Serif" font-size="10.00">&lt; Dim, TCoordinate, TIndex,</text>
<text text-anchor="middle" x="77.5" y="-199.5" font-family="Helvetica,sans-Serif" font-size="10.00"> ExecutionTag &gt;</text>
<polyline fill="none" stroke="black" points="0,-192.5 155,-192.5 "/>
<text text-anchor="middle" x="77.5" y="-180.5" font-family="Helvetica,sans-Serif" font-size="10.00"> </text>
<polyline fill="none" stroke="black" points="0,-173.5 155,-173.5 "/>
<text text-anchor="start" x="8" y="-161.5" font-family="Helvetica,sans-Serif" font-size="10.00">+ CartesianGrid()</text>
<text text-anchor="start" x="8" y="-150.5" font-family="Helvetica,sans-Serif" font-size="10.00">+ CartesianGrid()</text>
<text text-anchor="start" x="8" y="-139.5" font-family="Helvetica,sans-Serif" font-size="10.00">+ getNode()</text>
<text text-anchor="start" x="8" y="-128.5" font-family="Helvetica,sans-Serif" font-size="10.00">+ getNode()</text>
<text text-anchor="start" x="8" y="-117.5" font-family="Helvetica,sans-Serif" font-size="10.00">+ getNode()</text>
<text text-anchor="start" x="8" y="-106.5" font-family="Helvetica,sans-Serif" font-size="10.00">+ getElement()</text>
<text text-anchor="start" x="8" y="-95.5" font-family="Helvetica,sans-Serif" font-size="10.00">+ getElement()</text>
<text text-anchor="start" x="8" y="-84.5" font-family="Helvetica,sans-Serif" font-size="10.00">+ getElement()</text>
<text text-anchor="start" x="8" y="-73.5" font-family="Helvetica,sans-Serif" font-size="10.00">+ size()</text>
<text text-anchor="start" x="8" y="-62.5" font-family="Helvetica,sans-Serif" font-size="10.00">+ nodes()</text>
<text text-anchor="start" x="8" y="-51.5" font-family="Helvetica,sans-Serif" font-size="10.00">+ elements()</text>
<text text-anchor="start" x="8" y="-40.5" font-family="Helvetica,sans-Serif" font-size="10.00">+ nodeBegin()</text>
<text text-anchor="start" x="8" y="-29.5" font-family="Helvetica,sans-Serif" font-size="10.00">+ nodeEnd()</text>
<text text-anchor="start" x="8" y="-18.5" font-family="Helvetica,sans-Serif" font-size="10.00">+ elementBegin()</text>
<text text-anchor="start" x="8" y="-7.5" font-family="Helvetica,sans-Serif" font-size="10.00">+ elementEnd()</text>
</a>
</g>
</g>
<!-- Node2 -->
<g id="node2" class="node">
<title>Node2</title>
<g id="a_node2"><a xlink:title=" ">
<polygon fill="white" stroke="#bfbfbf" points="55,-281.5 55,-338.5 100,-338.5 100,-281.5 55,-281.5"/>
<text text-anchor="middle" x="77.5" y="-326.5" font-family="Helvetica,sans-Serif" font-size="10.00">size_t</text>
<polyline fill="none" stroke="#bfbfbf" points="55,-319.5 100,-319.5 "/>
<text text-anchor="middle" x="77.5" y="-307.5" font-family="Helvetica,sans-Serif" font-size="10.00"> </text>
<polyline fill="none" stroke="#bfbfbf" points="55,-300.5 100,-300.5 "/>
<text text-anchor="middle" x="77.5" y="-288.5" font-family="Helvetica,sans-Serif" font-size="10.00"> </text>
</a>
</g>
</g>
<!-- Node2&#45;&gt;Node1 -->
<g id="edge1" class="edge">
<title>Node2&#45;&gt;Node1</title>
<path fill="none" stroke="#404040" d="M77.5,-281.23C77.5,-271.17 77.5,-259.04 77.5,-246"/>
<polygon fill="none" stroke="#404040" points="77.5,-245.79 73.5,-239.79 77.5,-233.79 81.5,-239.79 77.5,-245.79"/>
<text text-anchor="middle" x="109.5" y="-255" font-family="Helvetica,sans-Serif" font-size="10.00"> +Dimension</text>
</g>
</g>
</svg>
