<?xml version="1.0" encoding="UTF-8" standalone="no"?>
<!DOCTYPE svg PUBLIC "-//W3C//DTD SVG 1.1//EN"
 "http://www.w3.org/Graphics/SVG/1.1/DTD/svg11.dtd">
<!-- Generated by graphviz version 2.43.0 (0)
 -->
<!-- Title: cie::geo::UnaryOperator&lt; Dimension, ValueType, CoordinateType &gt; Pages: 1 -->
<svg width="643pt" height="1471pt"
 viewBox="0.00 0.00 642.50 1471.00" xmlns="http://www.w3.org/2000/svg" xmlns:xlink="http://www.w3.org/1999/xlink">
<g id="graph0" class="graph" transform="scale(1 1) rotate(0) translate(4 1467)">
<title>cie::geo::UnaryOperator&lt; Dimension, ValueType, CoordinateType &gt;</title>
<polygon fill="white" stroke="transparent" points="-4,4 -4,-1467 638.5,-1467 638.5,4 -4,4"/>
<!-- Node1 -->
<g id="node1" class="node">
<title>Node1</title>
<g id="a_node1"><a xlink:title=" ">
<polygon fill="#bfbfbf" stroke="black" points="303,-763.5 303,-919.5 442,-919.5 442,-763.5 303,-763.5"/>
<text text-anchor="start" x="311" y="-907.5" font-family="Helvetica,sans-Serif" font-size="10.00">cie::geo::UnaryOperator</text>
<text text-anchor="start" x="311" y="-896.5" font-family="Helvetica,sans-Serif" font-size="10.00">&lt; Dimension, ValueType,</text>
<text text-anchor="middle" x="372.5" y="-885.5" font-family="Helvetica,sans-Serif" font-size="10.00"> CoordinateType &gt;</text>
<polyline fill="none" stroke="black" points="303,-878.5 442,-878.5 "/>
<text text-anchor="start" x="311" y="-866.5" font-family="Helvetica,sans-Serif" font-size="10.00">+ rhs</text>
<text text-anchor="start" x="311" y="-855.5" font-family="Helvetica,sans-Serif" font-size="10.00"># _p_rhs</text>
<polyline fill="none" stroke="black" points="303,-848.5 442,-848.5 "/>
<text text-anchor="start" x="311" y="-836.5" font-family="Helvetica,sans-Serif" font-size="10.00">+ UnaryOperator()</text>
<text text-anchor="start" x="311" y="-825.5" font-family="Helvetica,sans-Serif" font-size="10.00">+ UnaryOperator()</text>
<text text-anchor="start" x="311" y="-814.5" font-family="Helvetica,sans-Serif" font-size="10.00">+ UnaryOperator()</text>
<text text-anchor="start" x="311" y="-803.5" font-family="Helvetica,sans-Serif" font-size="10.00">+ operator=()</text>
<text text-anchor="start" x="311" y="-792.5" font-family="Helvetica,sans-Serif" font-size="10.00">+ bindRhs()</text>
<text text-anchor="start" x="311" y="-781.5" font-family="Helvetica,sans-Serif" font-size="10.00">+ rhs()</text>
<text text-anchor="start" x="311" y="-770.5" font-family="Helvetica,sans-Serif" font-size="10.00">+ at()</text>
</a>
</g>
</g>
<!-- Node6 -->
<g id="node6" class="node">
<title>Node6</title>
<g id="a_node6"><a xlink:href="classcie_1_1geo_1_1BinaryOperator.html" target="_top" xlink:title=" ">
<polygon fill="white" stroke="black" points="177,-150.5 177,-295.5 378,-295.5 378,-150.5 177,-150.5"/>
<text text-anchor="start" x="185" y="-283.5" font-family="Helvetica,sans-Serif" font-size="10.00">cie::geo::BinaryOperator</text>
<text text-anchor="middle" x="277.5" y="-272.5" font-family="Helvetica,sans-Serif" font-size="10.00">&lt; Dimension, Bool, CoordinateType &gt;</text>
<polyline fill="none" stroke="black" points="177,-265.5 378,-265.5 "/>
<text text-anchor="start" x="185" y="-253.5" font-family="Helvetica,sans-Serif" font-size="10.00">+ lhs</text>
<text text-anchor="start" x="185" y="-242.5" font-family="Helvetica,sans-Serif" font-size="10.00"># _p_lhs</text>
<polyline fill="none" stroke="black" points="177,-235.5 378,-235.5 "/>
<text text-anchor="start" x="185" y="-223.5" font-family="Helvetica,sans-Serif" font-size="10.00">+ lhs()</text>
<text text-anchor="start" x="185" y="-212.5" font-family="Helvetica,sans-Serif" font-size="10.00">+ BinaryOperator()</text>
<text text-anchor="start" x="185" y="-201.5" font-family="Helvetica,sans-Serif" font-size="10.00">+ BinaryOperator()</text>
<text text-anchor="start" x="185" y="-190.5" font-family="Helvetica,sans-Serif" font-size="10.00">+ BinaryOperator()</text>
<text text-anchor="start" x="185" y="-179.5" font-family="Helvetica,sans-Serif" font-size="10.00">+ operator=()</text>
<text text-anchor="start" x="185" y="-168.5" font-family="Helvetica,sans-Serif" font-size="10.00">+ bindLhs()</text>
<text text-anchor="start" x="185" y="-157.5" font-family="Helvetica,sans-Serif" font-size="10.00">+ at()</text>
</a>
</g>
</g>
<!-- Node1&#45;&gt;Node6 -->
<g id="edge6" class="edge">
<title>Node1&#45;&gt;Node6</title>
<path fill="none" stroke="midnightblue" d="M303.48,-754.64C294.05,-738.92 285.81,-722.07 280.5,-705 237.06,-565.25 251.69,-391.42 265.24,-295.67"/>
<polygon fill="none" stroke="midnightblue" points="300.57,-756.6 308.82,-763.25 306.52,-752.91 300.57,-756.6"/>
</g>
<!-- Node10 -->
<g id="node10" class="node">
<title>Node10</title>
<g id="a_node10"><a xlink:href="classcie_1_1geo_1_1UnaryOperator.html" target="_top" xlink:title=" ">
<polygon fill="white" stroke="black" points="289,-548.5 289,-704.5 456,-704.5 456,-548.5 289,-548.5"/>
<text text-anchor="start" x="297" y="-692.5" font-family="Helvetica,sans-Serif" font-size="10.00">cie::geo::UnaryOperator</text>
<text text-anchor="start" x="297" y="-681.5" font-family="Helvetica,sans-Serif" font-size="10.00">&lt; Dimension, Bool, Coordinate</text>
<text text-anchor="middle" x="372.5" y="-670.5" font-family="Helvetica,sans-Serif" font-size="10.00">Type &gt;</text>
<polyline fill="none" stroke="black" points="289,-663.5 456,-663.5 "/>
<text text-anchor="start" x="297" y="-651.5" font-family="Helvetica,sans-Serif" font-size="10.00">+ rhs</text>
<text text-anchor="start" x="297" y="-640.5" font-family="Helvetica,sans-Serif" font-size="10.00"># _p_rhs</text>
<polyline fill="none" stroke="black" points="289,-633.5 456,-633.5 "/>
<text text-anchor="start" x="297" y="-621.5" font-family="Helvetica,sans-Serif" font-size="10.00">+ rhs()</text>
<text text-anchor="start" x="297" y="-610.5" font-family="Helvetica,sans-Serif" font-size="10.00">+ UnaryOperator()</text>
<text text-anchor="start" x="297" y="-599.5" font-family="Helvetica,sans-Serif" font-size="10.00">+ UnaryOperator()</text>
<text text-anchor="start" x="297" y="-588.5" font-family="Helvetica,sans-Serif" font-size="10.00">+ UnaryOperator()</text>
<text text-anchor="start" x="297" y="-577.5" font-family="Helvetica,sans-Serif" font-size="10.00">+ operator=()</text>
<text text-anchor="start" x="297" y="-566.5" font-family="Helvetica,sans-Serif" font-size="10.00">+ bindRhs()</text>
<text text-anchor="start" x="297" y="-555.5" font-family="Helvetica,sans-Serif" font-size="10.00">+ at()</text>
</a>
</g>
</g>
<!-- Node1&#45;&gt;Node10 -->
<g id="edge10" class="edge">
<title>Node1&#45;&gt;Node10</title>
<path fill="none" stroke="orange" d="M372.5,-752.92C372.5,-736.96 372.5,-720.42 372.5,-704.79"/>
<polygon fill="orange" stroke="orange" points="369,-753.3 372.5,-763.3 376,-753.3 369,-753.3"/>
<text text-anchor="start" x="372.5" y="-737" font-family="Helvetica,sans-Serif" font-size="10.00"> &lt; Dimension, Bool,</text>
<text text-anchor="middle" x="421.5" y="-726" font-family="Helvetica,sans-Serif" font-size="10.00"> CoordinateType &gt;</text>
</g>
<!-- Node12 -->
<g id="node12" class="node">
<title>Node12</title>
<g id="a_node12"><a xlink:href="classcie_1_1geo_1_1UnaryOperator.html" target="_top" xlink:title=" ">
<polygon fill="white" stroke="black" points="474.5,-554 474.5,-699 634.5,-699 634.5,-554 474.5,-554"/>
<text text-anchor="start" x="482.5" y="-687" font-family="Helvetica,sans-Serif" font-size="10.00">cie::geo::UnaryOperator</text>
<text text-anchor="middle" x="554.5" y="-676" font-family="Helvetica,sans-Serif" font-size="10.00">&lt; Dimension, Bool, Double &gt;</text>
<polyline fill="none" stroke="black" points="474.5,-669 634.5,-669 "/>
<text text-anchor="start" x="482.5" y="-657" font-family="Helvetica,sans-Serif" font-size="10.00">+ rhs</text>
<text text-anchor="start" x="482.5" y="-646" font-family="Helvetica,sans-Serif" font-size="10.00"># _p_rhs</text>
<polyline fill="none" stroke="black" points="474.5,-639 634.5,-639 "/>
<text text-anchor="start" x="482.5" y="-627" font-family="Helvetica,sans-Serif" font-size="10.00">+ rhs()</text>
<text text-anchor="start" x="482.5" y="-616" font-family="Helvetica,sans-Serif" font-size="10.00">+ UnaryOperator()</text>
<text text-anchor="start" x="482.5" y="-605" font-family="Helvetica,sans-Serif" font-size="10.00">+ UnaryOperator()</text>
<text text-anchor="start" x="482.5" y="-594" font-family="Helvetica,sans-Serif" font-size="10.00">+ UnaryOperator()</text>
<text text-anchor="start" x="482.5" y="-583" font-family="Helvetica,sans-Serif" font-size="10.00">+ operator=()</text>
<text text-anchor="start" x="482.5" y="-572" font-family="Helvetica,sans-Serif" font-size="10.00">+ bindRhs()</text>
<text text-anchor="start" x="482.5" y="-561" font-family="Helvetica,sans-Serif" font-size="10.00">+ at()</text>
</a>
</g>
</g>
<!-- Node1&#45;&gt;Node12 -->
<g id="edge12" class="edge">
<title>Node1&#45;&gt;Node12</title>
<path fill="none" stroke="orange" d="M449.18,-772.25C458.01,-763.36 466.66,-754.16 474.5,-745 486.62,-730.85 498.55,-714.82 509.34,-699.26"/>
<polygon fill="orange" stroke="orange" points="446.7,-769.78 442.06,-779.3 451.63,-774.75 446.7,-769.78"/>
<text text-anchor="start" x="491.5" y="-737" font-family="Helvetica,sans-Serif" font-size="10.00"> &lt; Dimension, Bool,</text>
<text text-anchor="middle" x="540.5" y="-726" font-family="Helvetica,sans-Serif" font-size="10.00"> Double &gt;</text>
</g>
<!-- Node2 -->
<g id="node2" class="node">
<title>Node2</title>
<g id="a_node2"><a xlink:href="classcie_1_1geo_1_1Object.html" target="_top" xlink:title=" ">
<polygon fill="white" stroke="black" points="293,-957.5 293,-1069.5 452,-1069.5 452,-957.5 293,-957.5"/>
<text text-anchor="start" x="301" y="-1057.5" font-family="Helvetica,sans-Serif" font-size="10.00">cie::geo::Object&lt; Dimension,</text>
<text text-anchor="middle" x="372.5" y="-1046.5" font-family="Helvetica,sans-Serif" font-size="10.00"> Bool, Double &gt;</text>
<polyline fill="none" stroke="black" points="293,-1039.5 452,-1039.5 "/>
<text text-anchor="middle" x="372.5" y="-1027.5" font-family="Helvetica,sans-Serif" font-size="10.00"> </text>
<polyline fill="none" stroke="black" points="293,-1020.5 452,-1020.5 "/>
<text text-anchor="start" x="301" y="-1008.5" font-family="Helvetica,sans-Serif" font-size="10.00">+ ~Object()</text>
<text text-anchor="start" x="301" y="-997.5" font-family="Helvetica,sans-Serif" font-size="10.00">+ evaluate()</text>
<text text-anchor="start" x="301" y="-986.5" font-family="Helvetica,sans-Serif" font-size="10.00">+ evaluate()</text>
<text text-anchor="start" x="301" y="-975.5" font-family="Helvetica,sans-Serif" font-size="10.00">+ evaluate()</text>
<text text-anchor="start" x="301" y="-964.5" font-family="Helvetica,sans-Serif" font-size="10.00">+ at()</text>
</a>
</g>
</g>
<!-- Node2&#45;&gt;Node1 -->
<g id="edge1" class="edge">
<title>Node2&#45;&gt;Node1</title>
<path fill="none" stroke="midnightblue" d="M372.5,-947.26C372.5,-938.23 372.5,-928.88 372.5,-919.65"/>
<polygon fill="none" stroke="midnightblue" points="369,-947.31 372.5,-957.31 376,-947.31 369,-947.31"/>
</g>
<!-- Node3 -->
<g id="node3" class="node">
<title>Node3</title>
<g id="a_node3"><a xlink:href="classcie_1_1geo_1_1Traits.html" target="_top" xlink:title=" ">
<polygon fill="white" stroke="black" points="314,-1278.5 314,-1346.5 423,-1346.5 423,-1278.5 314,-1278.5"/>
<text text-anchor="start" x="322" y="-1334.5" font-family="Helvetica,sans-Serif" font-size="10.00">cie::geo::Traits&lt; N,</text>
<text text-anchor="middle" x="368.5" y="-1323.5" font-family="Helvetica,sans-Serif" font-size="10.00"> TCoordinate &gt;</text>
<polyline fill="none" stroke="black" points="314,-1316.5 423,-1316.5 "/>
<text text-anchor="start" x="322" y="-1304.5" font-family="Helvetica,sans-Serif" font-size="10.00">+ Dimension</text>
<polyline fill="none" stroke="black" points="314,-1297.5 423,-1297.5 "/>
<text text-anchor="middle" x="368.5" y="-1285.5" font-family="Helvetica,sans-Serif" font-size="10.00"> </text>
</a>
</g>
</g>
<!-- Node3&#45;&gt;Node2 -->
<g id="edge2" class="edge">
<title>Node3&#45;&gt;Node2</title>
<path fill="none" stroke="midnightblue" d="M369.08,-1268.29C369.79,-1215.77 370.98,-1127.06 371.76,-1069.65"/>
<polygon fill="none" stroke="midnightblue" points="365.58,-1268.25 368.95,-1278.29 372.58,-1268.34 365.58,-1268.25"/>
</g>
<!-- Node5 -->
<g id="node5" class="node">
<title>Node5</title>
<g id="a_node5"><a xlink:href="classcie_1_1geo_1_1Object.html" target="_top" xlink:title="Interface for point&#45;queriable objects.">
<polygon fill="white" stroke="black" points="384.5,-1128.5 384.5,-1240.5 512.5,-1240.5 512.5,-1128.5 384.5,-1128.5"/>
<text text-anchor="start" x="392.5" y="-1228.5" font-family="Helvetica,sans-Serif" font-size="10.00">cie::geo::Object&lt; N,</text>
<text text-anchor="middle" x="448.5" y="-1217.5" font-family="Helvetica,sans-Serif" font-size="10.00"> TValue, TCoordinate &gt;</text>
<polyline fill="none" stroke="black" points="384.5,-1210.5 512.5,-1210.5 "/>
<text text-anchor="middle" x="448.5" y="-1198.5" font-family="Helvetica,sans-Serif" font-size="10.00"> </text>
<polyline fill="none" stroke="black" points="384.5,-1191.5 512.5,-1191.5 "/>
<text text-anchor="start" x="392.5" y="-1179.5" font-family="Helvetica,sans-Serif" font-size="10.00">+ ~Object()</text>
<text text-anchor="start" x="392.5" y="-1168.5" font-family="Helvetica,sans-Serif" font-size="10.00">+ evaluate()</text>
<text text-anchor="start" x="392.5" y="-1157.5" font-family="Helvetica,sans-Serif" font-size="10.00">+ evaluate()</text>
<text text-anchor="start" x="392.5" y="-1146.5" font-family="Helvetica,sans-Serif" font-size="10.00">+ evaluate()</text>
<text text-anchor="start" x="392.5" y="-1135.5" font-family="Helvetica,sans-Serif" font-size="10.00">+ at()</text>
</a>
</g>
</g>
<!-- Node3&#45;&gt;Node5 -->
<g id="edge5" class="edge">
<title>Node3&#45;&gt;Node5</title>
<path fill="none" stroke="midnightblue" d="M395.01,-1269.75C400.89,-1260.48 407.22,-1250.51 413.39,-1240.79"/>
<polygon fill="none" stroke="midnightblue" points="391.92,-1268.08 389.52,-1278.39 397.83,-1271.83 391.92,-1268.08"/>
</g>
<!-- Node4 -->
<g id="node4" class="node">
<title>Node4</title>
<g id="a_node4"><a xlink:href="classcie_1_1geo_1_1Traits.html" target="_top" xlink:title="Basic templated traits that every object has in GEO.">
<polygon fill="white" stroke="black" points="307.5,-1394.5 307.5,-1462.5 429.5,-1462.5 429.5,-1394.5 307.5,-1394.5"/>
<text text-anchor="start" x="315.5" y="-1450.5" font-family="Helvetica,sans-Serif" font-size="10.00">cie::geo::Traits&lt; Dim,</text>
<text text-anchor="middle" x="368.5" y="-1439.5" font-family="Helvetica,sans-Serif" font-size="10.00"> TCoordinate &gt;</text>
<polyline fill="none" stroke="black" points="307.5,-1432.5 429.5,-1432.5 "/>
<text text-anchor="start" x="315.5" y="-1420.5" font-family="Helvetica,sans-Serif" font-size="10.00">+ Dimension</text>
<polyline fill="none" stroke="black" points="307.5,-1413.5 429.5,-1413.5 "/>
<text text-anchor="middle" x="368.5" y="-1401.5" font-family="Helvetica,sans-Serif" font-size="10.00"> </text>
</a>
</g>
</g>
<!-- Node4&#45;&gt;Node3 -->
<g id="edge3" class="edge">
<title>Node4&#45;&gt;Node3</title>
<path fill="none" stroke="orange" d="M368.5,-1384.06C368.5,-1371.64 368.5,-1358.32 368.5,-1346.62"/>
<polygon fill="orange" stroke="orange" points="365,-1384.22 368.5,-1394.22 372,-1384.22 365,-1384.22"/>
<text text-anchor="middle" x="417.5" y="-1368" font-family="Helvetica,sans-Serif" font-size="10.00"> &lt; N, TCoordinate &gt;</text>
</g>
<!-- Node5&#45;&gt;Node2 -->
<g id="edge4" class="edge">
<title>Node5&#45;&gt;Node2</title>
<path fill="none" stroke="orange" d="M419.39,-1118.77C412.11,-1102.57 404.36,-1085.35 397.31,-1069.67"/>
<polygon fill="orange" stroke="orange" points="416.32,-1120.48 423.61,-1128.16 422.71,-1117.61 416.32,-1120.48"/>
<text text-anchor="start" x="414.5" y="-1102" font-family="Helvetica,sans-Serif" font-size="10.00"> &lt; Dimension, Bool,</text>
<text text-anchor="middle" x="463.5" y="-1091" font-family="Helvetica,sans-Serif" font-size="10.00"> Double &gt;</text>
</g>
<!-- Node7 -->
<g id="node7" class="node">
<title>Node7</title>
<g id="a_node7"><a xlink:href="classcie_1_1geo_1_1Intersection.html" target="_top" xlink:title=" ">
<polygon fill="white" stroke="black" points="0,-0.5 0,-112.5 173,-112.5 173,-0.5 0,-0.5"/>
<text text-anchor="start" x="8" y="-100.5" font-family="Helvetica,sans-Serif" font-size="10.00">cie::geo::Intersection</text>
<text text-anchor="middle" x="86.5" y="-89.5" font-family="Helvetica,sans-Serif" font-size="10.00">&lt; Dimension, CoordinateType &gt;</text>
<polyline fill="none" stroke="black" points="0,-82.5 173,-82.5 "/>
<text text-anchor="middle" x="86.5" y="-70.5" font-family="Helvetica,sans-Serif" font-size="10.00"> </text>
<polyline fill="none" stroke="black" points="0,-63.5 173,-63.5 "/>
<text text-anchor="start" x="8" y="-51.5" font-family="Helvetica,sans-Serif" font-size="10.00">+ Intersection()</text>
<text text-anchor="start" x="8" y="-40.5" font-family="Helvetica,sans-Serif" font-size="10.00">+ Intersection()</text>
<text text-anchor="start" x="8" y="-29.5" font-family="Helvetica,sans-Serif" font-size="10.00">+ Intersection()</text>
<text text-anchor="start" x="8" y="-18.5" font-family="Helvetica,sans-Serif" font-size="10.00">+ operator=()</text>
<text text-anchor="start" x="8" y="-7.5" font-family="Helvetica,sans-Serif" font-size="10.00">+ at()</text>
</a>
</g>
</g>
<!-- Node6&#45;&gt;Node7 -->
<g id="edge7" class="edge">
<title>Node6&#45;&gt;Node7</title>
<path fill="none" stroke="midnightblue" d="M186.68,-143.78C174.45,-133.25 162.12,-122.63 150.49,-112.61"/>
<polygon fill="none" stroke="midnightblue" points="184.42,-146.45 194.28,-150.33 188.99,-141.15 184.42,-146.45"/>
</g>
<!-- Node8 -->
<g id="node8" class="node">
<title>Node8</title>
<g id="a_node8"><a xlink:href="classcie_1_1geo_1_1Subtraction.html" target="_top" xlink:title=" ">
<polygon fill="white" stroke="black" points="191,-0.5 191,-112.5 364,-112.5 364,-0.5 191,-0.5"/>
<text text-anchor="start" x="199" y="-100.5" font-family="Helvetica,sans-Serif" font-size="10.00">cie::geo::Subtraction</text>
<text text-anchor="middle" x="277.5" y="-89.5" font-family="Helvetica,sans-Serif" font-size="10.00">&lt; Dimension, CoordinateType &gt;</text>
<polyline fill="none" stroke="black" points="191,-82.5 364,-82.5 "/>
<text text-anchor="middle" x="277.5" y="-70.5" font-family="Helvetica,sans-Serif" font-size="10.00"> </text>
<polyline fill="none" stroke="black" points="191,-63.5 364,-63.5 "/>
<text text-anchor="start" x="199" y="-51.5" font-family="Helvetica,sans-Serif" font-size="10.00">+ Subtraction()</text>
<text text-anchor="start" x="199" y="-40.5" font-family="Helvetica,sans-Serif" font-size="10.00">+ Subtraction()</text>
<text text-anchor="start" x="199" y="-29.5" font-family="Helvetica,sans-Serif" font-size="10.00">+ Subtraction()</text>
<text text-anchor="start" x="199" y="-18.5" font-family="Helvetica,sans-Serif" font-size="10.00">+ operator=()</text>
<text text-anchor="start" x="199" y="-7.5" font-family="Helvetica,sans-Serif" font-size="10.00">+ at()</text>
</a>
</g>
</g>
<!-- Node6&#45;&gt;Node8 -->
<g id="edge8" class="edge">
<title>Node6&#45;&gt;Node8</title>
<path fill="none" stroke="midnightblue" d="M277.5,-140.2C277.5,-130.85 277.5,-121.49 277.5,-112.61"/>
<polygon fill="none" stroke="midnightblue" points="274,-140.33 277.5,-150.33 281,-140.33 274,-140.33"/>
</g>
<!-- Node9 -->
<g id="node9" class="node">
<title>Node9</title>
<g id="a_node9"><a xlink:href="classcie_1_1geo_1_1Union.html" target="_top" xlink:title=" ">
<polygon fill="white" stroke="black" points="382.5,-0.5 382.5,-112.5 538.5,-112.5 538.5,-0.5 382.5,-0.5"/>
<text text-anchor="start" x="390.5" y="-100.5" font-family="Helvetica,sans-Serif" font-size="10.00">cie::geo::Union&lt; Dimension,</text>
<text text-anchor="middle" x="460.5" y="-89.5" font-family="Helvetica,sans-Serif" font-size="10.00"> CoordinateType &gt;</text>
<polyline fill="none" stroke="black" points="382.5,-82.5 538.5,-82.5 "/>
<text text-anchor="middle" x="460.5" y="-70.5" font-family="Helvetica,sans-Serif" font-size="10.00"> </text>
<polyline fill="none" stroke="black" points="382.5,-63.5 538.5,-63.5 "/>
<text text-anchor="start" x="390.5" y="-51.5" font-family="Helvetica,sans-Serif" font-size="10.00">+ Union()</text>
<text text-anchor="start" x="390.5" y="-40.5" font-family="Helvetica,sans-Serif" font-size="10.00">+ Union()</text>
<text text-anchor="start" x="390.5" y="-29.5" font-family="Helvetica,sans-Serif" font-size="10.00">+ Union()</text>
<text text-anchor="start" x="390.5" y="-18.5" font-family="Helvetica,sans-Serif" font-size="10.00">+ operator=()</text>
<text text-anchor="start" x="390.5" y="-7.5" font-family="Helvetica,sans-Serif" font-size="10.00">+ at()</text>
</a>
</g>
</g>
<!-- Node6&#45;&gt;Node9 -->
<g id="edge9" class="edge">
<title>Node6&#45;&gt;Node9</title>
<path fill="none" stroke="midnightblue" d="M364.84,-143.49C376.45,-133.05 388.15,-122.53 399.19,-112.61"/>
<polygon fill="none" stroke="midnightblue" points="362.33,-141.04 357.23,-150.33 367.01,-146.24 362.33,-141.04"/>
</g>
<!-- Node11 -->
<g id="node11" class="node">
<title>Node11</title>
<g id="a_node11"><a xlink:href="classcie_1_1geo_1_1Complement.html" target="_top" xlink:title=" ">
<polygon fill="white" stroke="black" points="290,-376.5 290,-488.5 463,-488.5 463,-376.5 290,-376.5"/>
<text text-anchor="start" x="298" y="-476.5" font-family="Helvetica,sans-Serif" font-size="10.00">cie::geo::Complement</text>
<text text-anchor="middle" x="376.5" y="-465.5" font-family="Helvetica,sans-Serif" font-size="10.00">&lt; Dimension, CoordinateType &gt;</text>
<polyline fill="none" stroke="black" points="290,-458.5 463,-458.5 "/>
<text text-anchor="middle" x="376.5" y="-446.5" font-family="Helvetica,sans-Serif" font-size="10.00"> </text>
<polyline fill="none" stroke="black" points="290,-439.5 463,-439.5 "/>
<text text-anchor="start" x="298" y="-427.5" font-family="Helvetica,sans-Serif" font-size="10.00">+ Complement()</text>
<text text-anchor="start" x="298" y="-416.5" font-family="Helvetica,sans-Serif" font-size="10.00">+ Complement()</text>
<text text-anchor="start" x="298" y="-405.5" font-family="Helvetica,sans-Serif" font-size="10.00">+ Complement()</text>
<text text-anchor="start" x="298" y="-394.5" font-family="Helvetica,sans-Serif" font-size="10.00">+ operator=()</text>
<text text-anchor="start" x="298" y="-383.5" font-family="Helvetica,sans-Serif" font-size="10.00">+ at()</text>
</a>
</g>
</g>
<!-- Node10&#45;&gt;Node11 -->
<g id="edge11" class="edge">
<title>Node10&#45;&gt;Node11</title>
<path fill="none" stroke="midnightblue" d="M374.33,-537.89C374.67,-521.18 375.03,-504.13 375.35,-488.78"/>
<polygon fill="none" stroke="midnightblue" points="370.82,-538.17 374.11,-548.24 377.82,-538.31 370.82,-538.17"/>
</g>
<!-- Node13 -->
<g id="node13" class="node">
<title>Node13</title>
<g id="a_node13"><a xlink:href="classcie_1_1geo_1_1BinaryOperator.html" target="_top" xlink:title=" ">
<polygon fill="white" stroke="black" points="483,-354.5 483,-510.5 622,-510.5 622,-354.5 483,-354.5"/>
<text text-anchor="start" x="491" y="-498.5" font-family="Helvetica,sans-Serif" font-size="10.00">cie::geo::BinaryOperator</text>
<text text-anchor="start" x="491" y="-487.5" font-family="Helvetica,sans-Serif" font-size="10.00">&lt; Dimension, ValueType,</text>
<text text-anchor="middle" x="552.5" y="-476.5" font-family="Helvetica,sans-Serif" font-size="10.00"> CoordinateType &gt;</text>
<polyline fill="none" stroke="black" points="483,-469.5 622,-469.5 "/>
<text text-anchor="start" x="491" y="-457.5" font-family="Helvetica,sans-Serif" font-size="10.00">+ lhs</text>
<text text-anchor="start" x="491" y="-446.5" font-family="Helvetica,sans-Serif" font-size="10.00"># _p_lhs</text>
<polyline fill="none" stroke="black" points="483,-439.5 622,-439.5 "/>
<text text-anchor="start" x="491" y="-427.5" font-family="Helvetica,sans-Serif" font-size="10.00">+ BinaryOperator()</text>
<text text-anchor="start" x="491" y="-416.5" font-family="Helvetica,sans-Serif" font-size="10.00">+ BinaryOperator()</text>
<text text-anchor="start" x="491" y="-405.5" font-family="Helvetica,sans-Serif" font-size="10.00">+ BinaryOperator()</text>
<text text-anchor="start" x="491" y="-394.5" font-family="Helvetica,sans-Serif" font-size="10.00">+ operator=()</text>
<text text-anchor="start" x="491" y="-383.5" font-family="Helvetica,sans-Serif" font-size="10.00">+ bindLhs()</text>
<text text-anchor="start" x="491" y="-372.5" font-family="Helvetica,sans-Serif" font-size="10.00">+ lhs()</text>
<text text-anchor="start" x="491" y="-361.5" font-family="Helvetica,sans-Serif" font-size="10.00">+ at()</text>
</a>
</g>
</g>
<!-- Node12&#45;&gt;Node13 -->
<g id="edge13" class="edge">
<title>Node12&#45;&gt;Node13</title>
<path fill="none" stroke="midnightblue" d="M553.64,-543.41C553.53,-532.54 553.42,-521.43 553.3,-510.65"/>
<polygon fill="none" stroke="midnightblue" points="550.15,-543.77 553.75,-553.73 557.15,-543.7 550.15,-543.77"/>
</g>
<!-- Node13&#45;&gt;Node6 -->
<g id="edge14" class="edge">
<title>Node13&#45;&gt;Node6</title>
<path fill="none" stroke="orange" d="M475.1,-356.12C474.23,-355.4 473.37,-354.7 472.5,-354 443.05,-330.24 409.26,-306.59 378.17,-286.1"/>
<polygon fill="orange" stroke="orange" points="473.02,-358.94 482.92,-362.7 477.53,-353.59 473.02,-358.94"/>
<text text-anchor="start" x="446.5" y="-328" font-family="Helvetica,sans-Serif" font-size="10.00"> &lt; Dimension, Bool,</text>
<text text-anchor="middle" x="495.5" y="-317" font-family="Helvetica,sans-Serif" font-size="10.00"> CoordinateType &gt;</text>
</g>
</g>
</svg>
