<?xml version="1.0" encoding="UTF-8" standalone="no"?>
<!DOCTYPE svg PUBLIC "-//W3C//DTD SVG 1.1//EN"
 "http://www.w3.org/Graphics/SVG/1.1/DTD/svg11.dtd">
<!-- Generated by graphviz version 2.43.0 (0)
 -->
<!-- Title: cie::geo::MarchingPrimitives&lt; TTarget, TPrimitive &gt; Pages: 1 -->
<!--zoomable 431 -->
<svg id="main" version="1.1" xmlns="http://www.w3.org/2000/svg" xmlns:xlink="http://www.w3.org/1999/xlink" xml:space="preserve" onload="init(evt)">
<style type="text/css"><![CDATA[
.edge:hover path { stroke: red; }
.edge:hover polygon { stroke: red; fill: red; }
]]></style>
<script type="text/javascript"><![CDATA[
var edges = document.getElementsByTagName('g');
if (edges && edges.length) {
  for (var i=0;i<edges.length;i++) {
    if (edges[i].id.substr(0,4)=='edge') {
      edges[i].setAttribute('class','edge');
    }
  }
}
]]></script>
        <defs>
                <circle id="rim" cx="0" cy="0" r="7"/>
                <circle id="rim2" cx="0" cy="0" r="3.5"/>
                <g id="zoomPlus">
                        <use xlink:href="#rim" fill="#404040">
                                <set attributeName="fill" to="#808080" begin="zoomplus.mouseover" end="zoomplus.mouseout"/>
                        </use>
                        <path d="M-4,0h8M0,-4v8" fill="none" stroke="white" stroke-width="1.5" pointer-events="none"/>
                </g>
                <g id="zoomMin">
                        <use xlink:href="#rim" fill="#404040">
                                <set attributeName="fill" to="#808080" begin="zoomminus.mouseover" end="zoomminus.mouseout"/>
                        </use>
                        <path d="M-4,0h8" fill="none" stroke="white" stroke-width="1.5" pointer-events="none"/>
                </g>
                <g id="dirArrow">
                        <path fill="none" stroke="white" stroke-width="1.5" d="M0,-3.0v7 M-2.5,-0.5L0,-3.0L2.5,-0.5"/>
                </g>
               <g id="resetDef">
                       <use xlink:href="#rim2" fill="#404040">
                               <set attributeName="fill" to="#808080" begin="reset.mouseover" end="reset.mouseout"/>
                       </use>
               </g>
        </defs>

<script type="text/javascript">
var viewWidth = 743;
var viewHeight = 431;
var sectionId = 'dynsection-1';
</script>
<script xlink:href="svgpan.js"/>
<svg id="graph" class="graph">
<g id="viewport">
<title>cie::geo::MarchingPrimitives&lt; TTarget, TPrimitive &gt;</title>
<polygon fill="white" stroke="transparent" points="-4,4 -4,-427 739,-427 739,4 -4,4"/>
<!-- Node1 -->
<g id="node1" class="node">
<title>Node1</title>
<g id="a_node1"><a xlink:title=" ">
<polygon fill="#bfbfbf" stroke="black" points="269,-0.5 269,-79.5 424,-79.5 424,-0.5 269,-0.5"/>
<text text-anchor="start" x="277" y="-67.5" font-family="Helvetica,sans-Serif" font-size="10.00">cie::geo::MarchingPrimitives</text>
<text text-anchor="middle" x="346.5" y="-56.5" font-family="Helvetica,sans-Serif" font-size="10.00">&lt; TTarget, TPrimitive &gt;</text>
<polyline fill="none" stroke="black" points="269,-49.5 424,-49.5 "/>
<text text-anchor="middle" x="346.5" y="-37.5" font-family="Helvetica,sans-Serif" font-size="10.00"> </text>
<polyline fill="none" stroke="black" points="269,-30.5 424,-30.5 "/>
<text text-anchor="start" x="277" y="-18.5" font-family="Helvetica,sans-Serif" font-size="10.00">+ MarchingPrimitives()</text>
<text text-anchor="start" x="277" y="-7.5" font-family="Helvetica,sans-Serif" font-size="10.00">+ getVertexOnPrimitive()</text>
</a>
</g>
</g>
<!-- Node2 -->
<g id="node2" class="node">
<title>Node2</title>
<g id="a_node2"><a xlink:href="classcie_1_1geo_1_1AbsMarchingPrimitives.html" target="_top" xlink:title=" ">
<polygon fill="white" stroke="black" points="253.5,-117.5 253.5,-306.5 439.5,-306.5 439.5,-117.5 253.5,-117.5"/>
<text text-anchor="start" x="261.5" y="-294.5" font-family="Helvetica,sans-Serif" font-size="10.00">cie::geo::AbsMarchingPrimitives</text>
<text text-anchor="middle" x="346.5" y="-283.5" font-family="Helvetica,sans-Serif" font-size="10.00">&lt; TTarget &gt;</text>
<polyline fill="none" stroke="black" points="253.5,-276.5 439.5,-276.5 "/>
<text text-anchor="middle" x="346.5" y="-264.5" font-family="Helvetica,sans-Serif" font-size="10.00"> </text>
<polyline fill="none" stroke="black" points="253.5,-257.5 439.5,-257.5 "/>
<text text-anchor="start" x="261.5" y="-245.5" font-family="Helvetica,sans-Serif" font-size="10.00">+ AbsMarchingPrimitives()</text>
<text text-anchor="start" x="261.5" y="-234.5" font-family="Helvetica,sans-Serif" font-size="10.00">+ ~AbsMarchingPrimitives()</text>
<text text-anchor="start" x="261.5" y="-223.5" font-family="Helvetica,sans-Serif" font-size="10.00">+ execute()</text>
<text text-anchor="start" x="261.5" y="-212.5" font-family="Helvetica,sans-Serif" font-size="10.00">+ execute()</text>
<text text-anchor="start" x="261.5" y="-201.5" font-family="Helvetica,sans-Serif" font-size="10.00">+ setOutputFunctor()</text>
<text text-anchor="start" x="261.5" y="-190.5" font-family="Helvetica,sans-Serif" font-size="10.00"># AbsMarchingPrimitives()</text>
<text text-anchor="start" x="261.5" y="-179.5" font-family="Helvetica,sans-Serif" font-size="10.00"># AbsMarchingPrimitives()</text>
<text text-anchor="start" x="261.5" y="-168.5" font-family="Helvetica,sans-Serif" font-size="10.00"># operator=()</text>
<text text-anchor="start" x="261.5" y="-157.5" font-family="Helvetica,sans-Serif" font-size="10.00"># getVertex()</text>
<text text-anchor="start" x="261.5" y="-146.5" font-family="Helvetica,sans-Serif" font-size="10.00"># getVertices()</text>
<text text-anchor="start" x="261.5" y="-135.5" font-family="Helvetica,sans-Serif" font-size="10.00"># primitiveVertexCount()</text>
<text text-anchor="start" x="261.5" y="-124.5" font-family="Helvetica,sans-Serif" font-size="10.00"># numberOfRemainingPrimitives()</text>
</a>
</g>
</g>
<!-- Node2&#45;&gt;Node1 -->
<g id="edge1" class="edge">
<title>Node2&#45;&gt;Node1</title>
<path fill="none" stroke="midnightblue" d="M346.5,-106.91C346.5,-97.29 346.5,-88 346.5,-79.6"/>
<polygon fill="none" stroke="midnightblue" points="343,-107.05 346.5,-117.05 350,-107.05 343,-107.05"/>
</g>
<!-- Node3 -->
<g id="node3" class="node">
<title>Node3</title>
<g id="a_node3"><a xlink:href="classGetTraitsT.html" target="_top" xlink:title=" ">
<polygon fill="white" stroke="black" points="0,-360 0,-417 125,-417 125,-360 0,-360"/>
<text text-anchor="middle" x="62.5" y="-405" font-family="Helvetica,sans-Serif" font-size="10.00">GetTraitsT&lt; TTarget &gt;</text>
<polyline fill="none" stroke="black" points="0,-398 125,-398 "/>
<text text-anchor="middle" x="62.5" y="-386" font-family="Helvetica,sans-Serif" font-size="10.00"> </text>
<polyline fill="none" stroke="black" points="0,-379 125,-379 "/>
<text text-anchor="middle" x="62.5" y="-367" font-family="Helvetica,sans-Serif" font-size="10.00"> </text>
</a>
</g>
</g>
<!-- Node3&#45;&gt;Node2 -->
<g id="edge2" class="edge">
<title>Node3&#45;&gt;Node2</title>
<path fill="none" stroke="midnightblue" d="M116.49,-354.33C155.05,-330.64 207.9,-298.16 253.22,-270.31"/>
<polygon fill="none" stroke="midnightblue" points="114.19,-351.63 107.5,-359.85 117.85,-357.6 114.19,-351.63"/>
</g>
<!-- Node4 -->
<g id="node4" class="node">
<title>Node4</title>
<g id="a_node4"><a xlink:title=" ">
<polygon fill="white" stroke="#bfbfbf" points="143,-354.5 143,-422.5 274,-422.5 274,-354.5 143,-354.5"/>
<text text-anchor="start" x="151" y="-410.5" font-family="Helvetica,sans-Serif" font-size="10.00">Ptr&lt; const connectivity</text>
<text text-anchor="middle" x="208.5" y="-399.5" font-family="Helvetica,sans-Serif" font-size="10.00">_table &gt;</text>
<polyline fill="none" stroke="#bfbfbf" points="143,-392.5 274,-392.5 "/>
<text text-anchor="middle" x="208.5" y="-380.5" font-family="Helvetica,sans-Serif" font-size="10.00"> </text>
<polyline fill="none" stroke="#bfbfbf" points="143,-373.5 274,-373.5 "/>
<text text-anchor="middle" x="208.5" y="-361.5" font-family="Helvetica,sans-Serif" font-size="10.00"> </text>
</a>
</g>
</g>
<!-- Node4&#45;&gt;Node2 -->
<g id="edge3" class="edge">
<title>Node4&#45;&gt;Node2</title>
<path fill="none" stroke="#404040" d="M215.75,-354.34C218.78,-344.45 222.93,-333.88 228.5,-325 233.57,-316.92 239.36,-309.03 245.58,-301.4"/>
<polygon fill="none" stroke="#404040" points="245.6,-301.39 246.44,-294.23 253.38,-292.25 252.53,-299.41 245.6,-301.39"/>
<text text-anchor="middle" x="285.5" y="-328" font-family="Helvetica,sans-Serif" font-size="10.00"> #_p_connectivityTable</text>
</g>
<!-- Node5 -->
<g id="node5" class="node">
<title>Node5</title>
<g id="a_node5"><a xlink:title=" ">
<polygon fill="white" stroke="#bfbfbf" points="292,-354.5 292,-422.5 401,-422.5 401,-354.5 292,-354.5"/>
<text text-anchor="start" x="300" y="-410.5" font-family="Helvetica,sans-Serif" font-size="10.00">shared_ptr&lt; target</text>
<text text-anchor="middle" x="346.5" y="-399.5" font-family="Helvetica,sans-Serif" font-size="10.00">_type &gt;</text>
<polyline fill="none" stroke="#bfbfbf" points="292,-392.5 401,-392.5 "/>
<text text-anchor="middle" x="346.5" y="-380.5" font-family="Helvetica,sans-Serif" font-size="10.00"> </text>
<polyline fill="none" stroke="#bfbfbf" points="292,-373.5 401,-373.5 "/>
<text text-anchor="middle" x="346.5" y="-361.5" font-family="Helvetica,sans-Serif" font-size="10.00"> </text>
</a>
</g>
</g>
<!-- Node5&#45;&gt;Node2 -->
<g id="edge4" class="edge">
<title>Node5&#45;&gt;Node2</title>
<path fill="none" stroke="#404040" d="M346.5,-354.27C346.5,-343.85 346.5,-331.74 346.5,-319.08"/>
<polygon fill="none" stroke="#404040" points="346.5,-318.8 342.5,-312.8 346.5,-306.8 350.5,-312.8 346.5,-318.8"/>
<text text-anchor="middle" x="375.5" y="-328" font-family="Helvetica,sans-Serif" font-size="10.00"> #_p_target</text>
</g>
<!-- Node6 -->
<g id="node6" class="node">
<title>Node6</title>
<g id="a_node6"><a xlink:title=" ">
<polygon fill="white" stroke="#bfbfbf" points="419.5,-360 419.5,-417 555.5,-417 555.5,-360 419.5,-360"/>
<text text-anchor="middle" x="487.5" y="-405" font-family="Helvetica,sans-Serif" font-size="10.00">Ptr&lt; const edge_table &gt;</text>
<polyline fill="none" stroke="#bfbfbf" points="419.5,-398 555.5,-398 "/>
<text text-anchor="middle" x="487.5" y="-386" font-family="Helvetica,sans-Serif" font-size="10.00"> </text>
<polyline fill="none" stroke="#bfbfbf" points="419.5,-379 555.5,-379 "/>
<text text-anchor="middle" x="487.5" y="-367" font-family="Helvetica,sans-Serif" font-size="10.00"> </text>
</a>
</g>
</g>
<!-- Node6&#45;&gt;Node2 -->
<g id="edge5" class="edge">
<title>Node6&#45;&gt;Node2</title>
<path fill="none" stroke="#404040" d="M465.16,-359.85C455.23,-347.56 442.85,-332.24 429.88,-316.18"/>
<polygon fill="none" stroke="#404040" points="429.72,-315.99 422.84,-313.84 422.18,-306.66 429.06,-308.81 429.72,-315.99"/>
<text text-anchor="middle" x="484.5" y="-328" font-family="Helvetica,sans-Serif" font-size="10.00"> #_p_edgeTable</text>
</g>
<!-- Node7 -->
<g id="node7" class="node">
<title>Node7</title>
<g id="a_node7"><a xlink:title=" ">
<polygon fill="white" stroke="#bfbfbf" points="574,-354.5 574,-422.5 735,-422.5 735,-354.5 574,-354.5"/>
<text text-anchor="start" x="582" y="-410.5" font-family="Helvetica,sans-Serif" font-size="10.00">function&lt; void(Size,</text>
<text text-anchor="middle" x="654.5" y="-399.5" font-family="Helvetica,sans-Serif" font-size="10.00"> const output_arguments &amp;)&gt;</text>
<polyline fill="none" stroke="#bfbfbf" points="574,-392.5 735,-392.5 "/>
<text text-anchor="middle" x="654.5" y="-380.5" font-family="Helvetica,sans-Serif" font-size="10.00"> </text>
<polyline fill="none" stroke="#bfbfbf" points="574,-373.5 735,-373.5 "/>
<text text-anchor="middle" x="654.5" y="-361.5" font-family="Helvetica,sans-Serif" font-size="10.00"> </text>
</a>
</g>
</g>
<!-- Node7&#45;&gt;Node2 -->
<g id="edge6" class="edge">
<title>Node7&#45;&gt;Node2</title>
<path fill="none" stroke="#404040" d="M596.21,-354.47C555.1,-331.18 498.92,-299.35 450.26,-271.78"/>
<polygon fill="none" stroke="#404040" points="450.12,-271.7 442.92,-272.23 439.67,-265.79 446.87,-265.27 450.12,-271.7"/>
<text text-anchor="middle" x="605" y="-328" font-family="Helvetica,sans-Serif" font-size="10.00"> #_outputFunctor</text>
</g>
</g>
</svg>
        <g id="navigator" transform="translate(0 0)" fill="#404254">
                <rect fill="#f2f5e9" fill-opacity="0.5" stroke="#606060" stroke-width=".5" x="0" y="0" width="60" height="60"/>
                <use id="zoomplus" xlink:href="#zoomPlus" x="17" y="9" onmousedown="handleZoom(evt,'in')"/>
                <use id="zoomminus" xlink:href="#zoomMin" x="42" y="9" onmousedown="handleZoom(evt,'out')"/>
                <use id="reset" xlink:href="#resetDef" x="30" y="36" onmousedown="handleReset()"/>
                <g id="arrowUp" xlink:href="#dirArrow" transform="translate(30 24)" onmousedown="handlePan(0,-1)">
                  <use xlink:href="#rim" fill="#404040">
                        <set attributeName="fill" to="#808080" begin="arrowUp.mouseover" end="arrowUp.mouseout"/>
                  </use>
                  <path fill="none" stroke="white" stroke-width="1.5" d="M0,-3.0v7 M-2.5,-0.5L0,-3.0L2.5,-0.5"/>
                </g>
                <g id="arrowRight" xlink:href="#dirArrow" transform="rotate(90) translate(36 -43)" onmousedown="handlePan(1,0)">
                  <use xlink:href="#rim" fill="#404040">
                        <set attributeName="fill" to="#808080" begin="arrowRight.mouseover" end="arrowRight.mouseout"/>
                  </use>
                  <path fill="none" stroke="white" stroke-width="1.5" d="M0,-3.0v7 M-2.5,-0.5L0,-3.0L2.5,-0.5"/>
                </g>
                <g id="arrowDown" xlink:href="#dirArrow" transform="rotate(180) translate(-30 -48)" onmousedown="handlePan(0,1)">
                  <use xlink:href="#rim" fill="#404040">
                        <set attributeName="fill" to="#808080" begin="arrowDown.mouseover" end="arrowDown.mouseout"/>
                  </use>
                  <path fill="none" stroke="white" stroke-width="1.5" d="M0,-3.0v7 M-2.5,-0.5L0,-3.0L2.5,-0.5"/>
                </g>
                <g id="arrowLeft" xlink:href="#dirArrow" transform="rotate(270) translate(-36 17)" onmousedown="handlePan(-1,0)">
                  <use xlink:href="#rim" fill="#404040">
                        <set attributeName="fill" to="#808080" begin="arrowLeft.mouseover" end="arrowLeft.mouseout"/>
                  </use>
                  <path fill="none" stroke="white" stroke-width="1.5" d="M0,-3.0v7 M-2.5,-0.5L0,-3.0L2.5,-0.5"/>
                </g>
        </g>
        <svg viewBox="0 0 15 15" width="100%" height="30px" preserveAspectRatio="xMaxYMin meet">
         <g id="arrow_out" transform="scale(0.3 0.3)">
          <a xlink:href="classcie_1_1geo_1_1MarchingPrimitives__coll__graph_org.svg" target="_base">
           <rect id="button" ry="5" rx="5" y="6" x="6" height="38" width="38"
                fill="#f2f5e9" fill-opacity="0.5" stroke="#606060" stroke-width="1.0"/>
           <path id="arrow"
             d="M 11.500037,31.436501 C 11.940474,20.09759 22.043105,11.32322 32.158766,21.979434 L 37.068811,17.246167 C 37.068811,17.246167 37.088388,32 37.088388,32 L 22.160133,31.978069 C 22.160133,31.978069 26.997745,27.140456 26.997745,27.140456 C 18.528582,18.264221 13.291696,25.230495 11.500037,31.436501 z"
             style="fill:#404040;"/>
          </a>
         </g>
        </svg>
</svg>
