<?xml version="1.0" encoding="UTF-8" standalone="no"?>
<!DOCTYPE svg PUBLIC "-//W3C//DTD SVG 1.1//EN"
 "http://www.w3.org/Graphics/SVG/1.1/DTD/svg11.dtd">
<!-- Generated by graphviz version 2.43.0 (0)
 -->
<!-- Title: cie::geo::CornerSampler&lt; TPrimitive &gt; Pages: 1 -->
<svg width="280pt" height="757pt"
 viewBox="0.00 0.00 280.00 757.00" xmlns="http://www.w3.org/2000/svg" xmlns:xlink="http://www.w3.org/1999/xlink">
<g id="graph0" class="graph" transform="scale(1 1) rotate(0) translate(4 753)">
<title>cie::geo::CornerSampler&lt; TPrimitive &gt;</title>
<polygon fill="white" stroke="transparent" points="-4,4 -4,-753 276,-753 276,4 -4,4"/>
<!-- Node1 -->
<g id="node1" class="node">
<title>Node1</title>
<g id="a_node1"><a xlink:title=" ">
<polygon fill="#bfbfbf" stroke="black" points="22,-0.5 22,-123.5 156,-123.5 156,-0.5 22,-0.5"/>
<text text-anchor="start" x="30" y="-111.5" font-family="Helvetica,sans-Serif" font-size="10.00">cie::geo::CornerSampler</text>
<text text-anchor="middle" x="89" y="-100.5" font-family="Helvetica,sans-Serif" font-size="10.00">&lt; TPrimitive &gt;</text>
<polyline fill="none" stroke="black" points="22,-93.5 156,-93.5 "/>
<text text-anchor="middle" x="89" y="-81.5" font-family="Helvetica,sans-Serif" font-size="10.00"> </text>
<polyline fill="none" stroke="black" points="22,-74.5 156,-74.5 "/>
<text text-anchor="start" x="30" y="-62.5" font-family="Helvetica,sans-Serif" font-size="10.00">+ CornerSampler()</text>
<text text-anchor="start" x="30" y="-51.5" font-family="Helvetica,sans-Serif" font-size="10.00">+ getSamplePoint()</text>
<text text-anchor="start" x="30" y="-40.5" font-family="Helvetica,sans-Serif" font-size="10.00">+ size()</text>
<text text-anchor="start" x="30" y="-29.5" font-family="Helvetica,sans-Serif" font-size="10.00">+ CornerSampler()</text>
<text text-anchor="start" x="30" y="-18.5" font-family="Helvetica,sans-Serif" font-size="10.00">+ getSamplePoint()</text>
<text text-anchor="start" x="30" y="-7.5" font-family="Helvetica,sans-Serif" font-size="10.00">+ size()</text>
</a>
</g>
</g>
<!-- Node2 -->
<g id="node2" class="node">
<title>Node2</title>
<g id="a_node2"><a xlink:href="classcie_1_1geo_1_1PrimitiveSampler.html" target="_top" xlink:title=" ">
<polygon fill="white" stroke="black" points="16,-171.5 16,-261.5 162,-261.5 162,-171.5 16,-171.5"/>
<text text-anchor="start" x="24" y="-249.5" font-family="Helvetica,sans-Serif" font-size="10.00">cie::geo::PrimitiveSampler</text>
<text text-anchor="middle" x="89" y="-238.5" font-family="Helvetica,sans-Serif" font-size="10.00">&lt; TPrimitive &gt;</text>
<polyline fill="none" stroke="black" points="16,-231.5 162,-231.5 "/>
<text text-anchor="middle" x="89" y="-219.5" font-family="Helvetica,sans-Serif" font-size="10.00"> </text>
<polyline fill="none" stroke="black" points="16,-212.5 162,-212.5 "/>
<text text-anchor="start" x="24" y="-200.5" font-family="Helvetica,sans-Serif" font-size="10.00">+ ~PrimitiveSampler()</text>
<text text-anchor="start" x="24" y="-189.5" font-family="Helvetica,sans-Serif" font-size="10.00">+ getSamplePoint()</text>
<text text-anchor="start" x="24" y="-178.5" font-family="Helvetica,sans-Serif" font-size="10.00">+ size()</text>
</a>
</g>
</g>
<!-- Node2&#45;&gt;Node1 -->
<g id="edge1" class="edge">
<title>Node2&#45;&gt;Node1</title>
<path fill="none" stroke="midnightblue" d="M82.51,-161.38C82.22,-149.19 82.17,-136.18 82.38,-123.74"/>
<polygon fill="none" stroke="midnightblue" points="79.01,-161.5 82.81,-171.39 86.01,-161.29 79.01,-161.5"/>
</g>
<!-- Node2&#45;&gt;Node1 -->
<g id="edge7" class="edge">
<title>Node2&#45;&gt;Node1</title>
<path fill="none" stroke="midnightblue" d="M95.49,-161.38C95.78,-149.19 95.83,-136.18 95.62,-123.74"/>
<polygon fill="none" stroke="midnightblue" points="91.99,-161.29 95.19,-171.39 98.99,-161.5 91.99,-161.29"/>
</g>
<!-- Node3 -->
<g id="node3" class="node">
<title>Node3</title>
<g id="a_node3"><a xlink:href="classcie_1_1geo_1_1Traits.html" target="_top" xlink:title=" ">
<polygon fill="white" stroke="black" points="0,-437.5 0,-516.5 170,-516.5 170,-437.5 0,-437.5"/>
<text text-anchor="start" x="8" y="-504.5" font-family="Helvetica,sans-Serif" font-size="10.00">cie::geo::Traits&lt; Primitive</text>
<text text-anchor="start" x="8" y="-493.5" font-family="Helvetica,sans-Serif" font-size="10.00">Type::Dimension, PrimitiveType</text>
<text text-anchor="middle" x="85" y="-482.5" font-family="Helvetica,sans-Serif" font-size="10.00">::Coordinate &gt;</text>
<polyline fill="none" stroke="black" points="0,-475.5 170,-475.5 "/>
<text text-anchor="start" x="8" y="-463.5" font-family="Helvetica,sans-Serif" font-size="10.00">+ Dimension</text>
<polyline fill="none" stroke="black" points="0,-456.5 170,-456.5 "/>
<text text-anchor="middle" x="85" y="-444.5" font-family="Helvetica,sans-Serif" font-size="10.00"> </text>
</a>
</g>
</g>
<!-- Node3&#45;&gt;Node2 -->
<g id="edge2" class="edge">
<title>Node3&#45;&gt;Node2</title>
<path fill="none" stroke="midnightblue" d="M85.75,-427.22C86.49,-379.57 87.6,-307.68 88.32,-261.67"/>
<polygon fill="none" stroke="midnightblue" points="82.25,-427.25 85.6,-437.3 89.25,-427.36 82.25,-427.25"/>
</g>
<!-- Node6 -->
<g id="node6" class="node">
<title>Node6</title>
<g id="a_node6"><a xlink:href="classcie_1_1geo_1_1PrimitiveSampler.html" target="_top" xlink:title="Interface for computing sample points on primitives.">
<polygon fill="white" stroke="black" points="101,-309.5 101,-399.5 247,-399.5 247,-309.5 101,-309.5"/>
<text text-anchor="start" x="109" y="-387.5" font-family="Helvetica,sans-Serif" font-size="10.00">cie::geo::PrimitiveSampler</text>
<text text-anchor="middle" x="174" y="-376.5" font-family="Helvetica,sans-Serif" font-size="10.00">&lt; PrimitiveType &gt;</text>
<polyline fill="none" stroke="black" points="101,-369.5 247,-369.5 "/>
<text text-anchor="middle" x="174" y="-357.5" font-family="Helvetica,sans-Serif" font-size="10.00"> </text>
<polyline fill="none" stroke="black" points="101,-350.5 247,-350.5 "/>
<text text-anchor="start" x="109" y="-338.5" font-family="Helvetica,sans-Serif" font-size="10.00">+ ~PrimitiveSampler()</text>
<text text-anchor="start" x="109" y="-327.5" font-family="Helvetica,sans-Serif" font-size="10.00">+ getSamplePoint()</text>
<text text-anchor="start" x="109" y="-316.5" font-family="Helvetica,sans-Serif" font-size="10.00">+ size()</text>
</a>
</g>
</g>
<!-- Node3&#45;&gt;Node6 -->
<g id="edge6" class="edge">
<title>Node3&#45;&gt;Node6</title>
<path fill="none" stroke="midnightblue" d="M119.79,-428.9C126.9,-419.27 134.35,-409.18 141.38,-399.66"/>
<polygon fill="none" stroke="midnightblue" points="116.78,-427.09 113.65,-437.21 122.41,-431.25 116.78,-427.09"/>
</g>
<!-- Node4 -->
<g id="node4" class="node">
<title>Node4</title>
<g id="a_node4"><a xlink:href="classcie_1_1geo_1_1Traits.html" target="_top" xlink:title="Basic templated traits that every object has in GEO.">
<polygon fill="white" stroke="black" points="24,-575.5 24,-643.5 146,-643.5 146,-575.5 24,-575.5"/>
<text text-anchor="start" x="32" y="-631.5" font-family="Helvetica,sans-Serif" font-size="10.00">cie::geo::Traits&lt; Dim,</text>
<text text-anchor="middle" x="85" y="-620.5" font-family="Helvetica,sans-Serif" font-size="10.00"> TCoordinate &gt;</text>
<polyline fill="none" stroke="black" points="24,-613.5 146,-613.5 "/>
<text text-anchor="middle" x="85" y="-601.5" font-family="Helvetica,sans-Serif" font-size="10.00"> </text>
<polyline fill="none" stroke="black" points="24,-594.5 146,-594.5 "/>
<text text-anchor="middle" x="85" y="-582.5" font-family="Helvetica,sans-Serif" font-size="10.00"> </text>
</a>
</g>
</g>
<!-- Node4&#45;&gt;Node3 -->
<g id="edge3" class="edge">
<title>Node4&#45;&gt;Node3</title>
<path fill="none" stroke="orange" d="M85,-564.81C85,-549.26 85,-531.87 85,-516.77"/>
<polygon fill="orange" stroke="orange" points="81.5,-565.23 85,-575.23 88.5,-565.23 81.5,-565.23"/>
<text text-anchor="start" x="85" y="-549" font-family="Helvetica,sans-Serif" font-size="10.00"> &lt; PrimitiveType::Dimension,</text>
<text text-anchor="middle" x="156.5" y="-538" font-family="Helvetica,sans-Serif" font-size="10.00"> PrimitiveType::Coordinate &gt;</text>
</g>
<!-- Node5 -->
<g id="node5" class="node">
<title>Node5</title>
<g id="a_node5"><a xlink:title=" ">
<polygon fill="white" stroke="#bfbfbf" points="62.5,-691.5 62.5,-748.5 107.5,-748.5 107.5,-691.5 62.5,-691.5"/>
<text text-anchor="middle" x="85" y="-736.5" font-family="Helvetica,sans-Serif" font-size="10.00">size_t</text>
<polyline fill="none" stroke="#bfbfbf" points="62.5,-729.5 107.5,-729.5 "/>
<text text-anchor="middle" x="85" y="-717.5" font-family="Helvetica,sans-Serif" font-size="10.00"> </text>
<polyline fill="none" stroke="#bfbfbf" points="62.5,-710.5 107.5,-710.5 "/>
<text text-anchor="middle" x="85" y="-698.5" font-family="Helvetica,sans-Serif" font-size="10.00"> </text>
</a>
</g>
</g>
<!-- Node5&#45;&gt;Node4 -->
<g id="edge4" class="edge">
<title>Node5&#45;&gt;Node4</title>
<path fill="none" stroke="#404040" d="M85,-691.34C85,-680.53 85,-667.85 85,-655.77"/>
<polygon fill="none" stroke="#404040" points="85,-655.52 81,-649.52 85,-643.52 89,-649.52 85,-655.52"/>
<text text-anchor="middle" x="117" y="-665" font-family="Helvetica,sans-Serif" font-size="10.00"> +Dimension</text>
</g>
<!-- Node6&#45;&gt;Node2 -->
<g id="edge5" class="edge">
<title>Node6&#45;&gt;Node2</title>
<path fill="none" stroke="orange" d="M140.95,-300.63C132.95,-287.82 124.48,-274.27 116.75,-261.9"/>
<polygon fill="orange" stroke="orange" points="138.13,-302.72 146.4,-309.34 144.07,-299.01 138.13,-302.72"/>
<text text-anchor="middle" x="173" y="-283" font-family="Helvetica,sans-Serif" font-size="10.00"> &lt; TPrimitive &gt;</text>
</g>
<!-- Node7 -->
<g id="node7" class="node">
<title>Node7</title>
<g id="a_node7"><a xlink:title=" ">
<polygon fill="white" stroke="#bfbfbf" points="180,-188 180,-245 266,-245 266,-188 180,-188"/>
<text text-anchor="middle" x="223" y="-233" font-family="Helvetica,sans-Serif" font-size="10.00">UniquePointer</text>
<polyline fill="none" stroke="#bfbfbf" points="180,-226 266,-226 "/>
<text text-anchor="middle" x="223" y="-214" font-family="Helvetica,sans-Serif" font-size="10.00"> </text>
<polyline fill="none" stroke="#bfbfbf" points="180,-207 266,-207 "/>
<text text-anchor="middle" x="223" y="-195" font-family="Helvetica,sans-Serif" font-size="10.00"> </text>
</a>
</g>
</g>
<!-- Node7&#45;&gt;Node1 -->
<g id="edge8" class="edge">
<title>Node7&#45;&gt;Node1</title>
<path fill="none" stroke="#404040" d="M198.73,-187.88C185.13,-172.4 167.48,-152.32 150.34,-132.8"/>
<polygon fill="none" stroke="#404040" points="150.17,-132.61 143.2,-130.74 142.25,-123.6 149.21,-125.46 150.17,-132.61"/>
<text text-anchor="middle" x="220.5" y="-145" font-family="Helvetica,sans-Serif" font-size="10.00"> #_p_indexConverter</text>
</g>
</g>
</svg>
