<?xml version="1.0" encoding="UTF-8" standalone="no"?>
<!DOCTYPE svg PUBLIC "-//W3C//DTD SVG 1.1//EN"
 "http://www.w3.org/Graphics/SVG/1.1/DTD/svg11.dtd">
<!-- Generated by graphviz version 2.43.0 (0)
 -->
<!-- Title: cie::geo::boolean::Sphere&lt; Dimension, CoordinateType &gt; Pages: 1 -->
<svg width="543pt" height="686pt"
 viewBox="0.00 0.00 542.50 686.00" xmlns="http://www.w3.org/2000/svg" xmlns:xlink="http://www.w3.org/1999/xlink">
<g id="graph0" class="graph" transform="scale(1 1) rotate(0) translate(4 682)">
<title>cie::geo::boolean::Sphere&lt; Dimension, CoordinateType &gt;</title>
<polygon fill="white" stroke="transparent" points="-4,4 -4,-682 538.5,-682 538.5,4 -4,4"/>
<!-- Node1 -->
<g id="node1" class="node">
<title>Node1</title>
<g id="a_node1"><a xlink:title=" ">
<polygon fill="#bfbfbf" stroke="black" points="171,-0.5 171,-101.5 344,-101.5 344,-0.5 171,-0.5"/>
<text text-anchor="start" x="179" y="-89.5" font-family="Helvetica,sans-Serif" font-size="10.00">cie::geo::boolean::</text>
<text text-anchor="start" x="179" y="-78.5" font-family="Helvetica,sans-Serif" font-size="10.00">Sphere&lt; Dimension, Coordinate</text>
<text text-anchor="middle" x="257.5" y="-67.5" font-family="Helvetica,sans-Serif" font-size="10.00">Type &gt;</text>
<polyline fill="none" stroke="black" points="171,-60.5 344,-60.5 "/>
<text text-anchor="middle" x="257.5" y="-48.5" font-family="Helvetica,sans-Serif" font-size="10.00"> </text>
<polyline fill="none" stroke="black" points="171,-41.5 344,-41.5 "/>
<text text-anchor="start" x="179" y="-29.5" font-family="Helvetica,sans-Serif" font-size="10.00">+ Sphere()</text>
<text text-anchor="start" x="179" y="-18.5" font-family="Helvetica,sans-Serif" font-size="10.00">+ Sphere()</text>
<text text-anchor="start" x="179" y="-7.5" font-family="Helvetica,sans-Serif" font-size="10.00">+ at()</text>
</a>
</g>
</g>
<!-- Node2 -->
<g id="node2" class="node">
<title>Node2</title>
<g id="a_node2"><a xlink:href="classcie_1_1geo_1_1Sphere.html" target="_top" xlink:title=" ">
<polygon fill="white" stroke="black" points="0,-139.5 0,-284.5 161,-284.5 161,-139.5 0,-139.5"/>
<text text-anchor="start" x="8" y="-272.5" font-family="Helvetica,sans-Serif" font-size="10.00">cie::geo::Sphere&lt; Dimension,</text>
<text text-anchor="middle" x="80.5" y="-261.5" font-family="Helvetica,sans-Serif" font-size="10.00"> CoordinateType &gt;</text>
<polyline fill="none" stroke="black" points="0,-254.5 161,-254.5 "/>
<text text-anchor="start" x="8" y="-242.5" font-family="Helvetica,sans-Serif" font-size="10.00"># _center</text>
<text text-anchor="start" x="8" y="-231.5" font-family="Helvetica,sans-Serif" font-size="10.00"># _radius</text>
<polyline fill="none" stroke="black" points="0,-224.5 161,-224.5 "/>
<text text-anchor="start" x="8" y="-212.5" font-family="Helvetica,sans-Serif" font-size="10.00">+ Sphere()</text>
<text text-anchor="start" x="8" y="-201.5" font-family="Helvetica,sans-Serif" font-size="10.00">+ Sphere()</text>
<text text-anchor="start" x="8" y="-190.5" font-family="Helvetica,sans-Serif" font-size="10.00">+ isDegenerate()</text>
<text text-anchor="start" x="8" y="-179.5" font-family="Helvetica,sans-Serif" font-size="10.00">+ center()</text>
<text text-anchor="start" x="8" y="-168.5" font-family="Helvetica,sans-Serif" font-size="10.00">+ center()</text>
<text text-anchor="start" x="8" y="-157.5" font-family="Helvetica,sans-Serif" font-size="10.00">+ radius()</text>
<text text-anchor="start" x="8" y="-146.5" font-family="Helvetica,sans-Serif" font-size="10.00">+ radius()</text>
</a>
</g>
</g>
<!-- Node2&#45;&gt;Node1 -->
<g id="edge1" class="edge">
<title>Node2&#45;&gt;Node1</title>
<path fill="none" stroke="midnightblue" d="M167.89,-132.5C179.6,-121.98 191.35,-111.43 202.3,-101.59"/>
<polygon fill="none" stroke="midnightblue" points="165.3,-130.12 160.2,-139.41 169.98,-135.33 165.3,-130.12"/>
</g>
<!-- Node2&#45;&gt;Node2 -->
<g id="edge5" class="edge">
<title>Node2&#45;&gt;Node2</title>
<path fill="none" stroke="orange" d="M170.85,-223.41C175.96,-220.65 179,-216.84 179,-212 179,-204.62 171.93,-199.66 161.27,-197.12"/>
<polygon fill="orange" stroke="orange" points="169.48,-220.18 161.27,-226.88 171.86,-226.76 169.48,-220.18"/>
<text text-anchor="middle" x="259" y="-209.5" font-family="Helvetica,sans-Serif" font-size="10.00"> &lt; Dimension, CoordinateType &gt;</text>
</g>
<!-- Node3 -->
<g id="node3" class="node">
<title>Node3</title>
<g id="a_node3"><a xlink:href="classcie_1_1geo_1_1AbsPrimitive.html" target="_top" xlink:title=" ">
<polygon fill="white" stroke="black" points="59,-360 59,-439 232,-439 232,-360 59,-360"/>
<text text-anchor="start" x="67" y="-427" font-family="Helvetica,sans-Serif" font-size="10.00">cie::geo::AbsPrimitive</text>
<text text-anchor="middle" x="145.5" y="-416" font-family="Helvetica,sans-Serif" font-size="10.00">&lt; Dimension, CoordinateType &gt;</text>
<polyline fill="none" stroke="black" points="59,-409 232,-409 "/>
<text text-anchor="middle" x="145.5" y="-397" font-family="Helvetica,sans-Serif" font-size="10.00"> </text>
<polyline fill="none" stroke="black" points="59,-390 232,-390 "/>
<text text-anchor="start" x="67" y="-378" font-family="Helvetica,sans-Serif" font-size="10.00">+ ~AbsPrimitive()</text>
<text text-anchor="start" x="67" y="-367" font-family="Helvetica,sans-Serif" font-size="10.00">+ isDegenerate()</text>
</a>
</g>
</g>
<!-- Node3&#45;&gt;Node2 -->
<g id="edge2" class="edge">
<title>Node3&#45;&gt;Node2</title>
<path fill="none" stroke="midnightblue" d="M128.55,-350.14C121.57,-330.2 113.33,-306.68 105.66,-284.81"/>
<polygon fill="none" stroke="midnightblue" points="125.26,-351.33 131.87,-359.61 131.87,-349.02 125.26,-351.33"/>
</g>
<!-- Node4 -->
<g id="node4" class="node">
<title>Node4</title>
<g id="a_node4"><a xlink:href="classcie_1_1geo_1_1Traits.html" target="_top" xlink:title=" ">
<polygon fill="white" stroke="black" points="110.5,-493.5 110.5,-561.5 264.5,-561.5 264.5,-493.5 110.5,-493.5"/>
<text text-anchor="start" x="118.5" y="-549.5" font-family="Helvetica,sans-Serif" font-size="10.00">cie::geo::Traits&lt; Dimension,</text>
<text text-anchor="middle" x="187.5" y="-538.5" font-family="Helvetica,sans-Serif" font-size="10.00"> Double &gt;</text>
<polyline fill="none" stroke="black" points="110.5,-531.5 264.5,-531.5 "/>
<text text-anchor="start" x="118.5" y="-519.5" font-family="Helvetica,sans-Serif" font-size="10.00">+ Dimension</text>
<polyline fill="none" stroke="black" points="110.5,-512.5 264.5,-512.5 "/>
<text text-anchor="middle" x="187.5" y="-500.5" font-family="Helvetica,sans-Serif" font-size="10.00"> </text>
</a>
</g>
</g>
<!-- Node4&#45;&gt;Node3 -->
<g id="edge3" class="edge">
<title>Node4&#45;&gt;Node3</title>
<path fill="none" stroke="midnightblue" d="M173.24,-483.71C168.43,-469.28 163.09,-453.28 158.4,-439.19"/>
<polygon fill="none" stroke="midnightblue" points="169.98,-485.01 176.46,-493.39 176.62,-482.8 169.98,-485.01"/>
</g>
<!-- Node5 -->
<g id="node5" class="node">
<title>Node5</title>
<g id="a_node5"><a xlink:href="classcie_1_1geo_1_1Traits.html" target="_top" xlink:title="Basic templated traits that every object has in GEO.">
<polygon fill="white" stroke="black" points="201.5,-609.5 201.5,-677.5 323.5,-677.5 323.5,-609.5 201.5,-609.5"/>
<text text-anchor="start" x="209.5" y="-665.5" font-family="Helvetica,sans-Serif" font-size="10.00">cie::geo::Traits&lt; Dim,</text>
<text text-anchor="middle" x="262.5" y="-654.5" font-family="Helvetica,sans-Serif" font-size="10.00"> TCoordinate &gt;</text>
<polyline fill="none" stroke="black" points="201.5,-647.5 323.5,-647.5 "/>
<text text-anchor="start" x="209.5" y="-635.5" font-family="Helvetica,sans-Serif" font-size="10.00">+ Dimension</text>
<polyline fill="none" stroke="black" points="201.5,-628.5 323.5,-628.5 "/>
<text text-anchor="middle" x="262.5" y="-616.5" font-family="Helvetica,sans-Serif" font-size="10.00"> </text>
</a>
</g>
</g>
<!-- Node5&#45;&gt;Node4 -->
<g id="edge4" class="edge">
<title>Node5&#45;&gt;Node4</title>
<path fill="none" stroke="orange" d="M202,-601.73C199.18,-598.34 196.64,-594.77 194.5,-591 189.48,-582.17 187.18,-571.51 186.29,-561.51"/>
<polygon fill="orange" stroke="orange" points="199.65,-604.34 209.03,-609.26 204.77,-599.56 199.65,-604.34"/>
<text text-anchor="middle" x="254" y="-583" font-family="Helvetica,sans-Serif" font-size="10.00"> &lt; Dimension, Double &gt;</text>
</g>
<!-- Node7 -->
<g id="node7" class="node">
<title>Node7</title>
<g id="a_node7"><a xlink:href="classcie_1_1geo_1_1Traits.html" target="_top" xlink:title=" ">
<polygon fill="white" stroke="black" points="290,-493.5 290,-561.5 399,-561.5 399,-493.5 290,-493.5"/>
<text text-anchor="start" x="298" y="-549.5" font-family="Helvetica,sans-Serif" font-size="10.00">cie::geo::Traits&lt; N,</text>
<text text-anchor="middle" x="344.5" y="-538.5" font-family="Helvetica,sans-Serif" font-size="10.00"> TCoordinate &gt;</text>
<polyline fill="none" stroke="black" points="290,-531.5 399,-531.5 "/>
<text text-anchor="start" x="298" y="-519.5" font-family="Helvetica,sans-Serif" font-size="10.00">+ Dimension</text>
<polyline fill="none" stroke="black" points="290,-512.5 399,-512.5 "/>
<text text-anchor="middle" x="344.5" y="-500.5" font-family="Helvetica,sans-Serif" font-size="10.00"> </text>
</a>
</g>
</g>
<!-- Node5&#45;&gt;Node7 -->
<g id="edge8" class="edge">
<title>Node5&#45;&gt;Node7</title>
<path fill="none" stroke="orange" d="M305.11,-601.72C308.08,-598.2 310.92,-594.61 313.5,-591 319.91,-582.03 325.68,-571.54 330.45,-561.75"/>
<polygon fill="orange" stroke="orange" points="302.44,-599.45 298.42,-609.25 307.68,-604.09 302.44,-599.45"/>
<text text-anchor="middle" x="369.5" y="-583" font-family="Helvetica,sans-Serif" font-size="10.00"> &lt; N, TCoordinate &gt;</text>
</g>
<!-- Node6 -->
<g id="node6" class="node">
<title>Node6</title>
<g id="a_node6"><a xlink:href="classcie_1_1geo_1_1Object.html" target="_top" xlink:title=" ">
<polygon fill="white" stroke="black" points="357,-156 357,-268 516,-268 516,-156 357,-156"/>
<text text-anchor="start" x="365" y="-256" font-family="Helvetica,sans-Serif" font-size="10.00">cie::geo::Object&lt; Dimension,</text>
<text text-anchor="middle" x="436.5" y="-245" font-family="Helvetica,sans-Serif" font-size="10.00"> Bool, CoordinateType &gt;</text>
<polyline fill="none" stroke="black" points="357,-238 516,-238 "/>
<text text-anchor="middle" x="436.5" y="-226" font-family="Helvetica,sans-Serif" font-size="10.00"> </text>
<polyline fill="none" stroke="black" points="357,-219 516,-219 "/>
<text text-anchor="start" x="365" y="-207" font-family="Helvetica,sans-Serif" font-size="10.00">+ ~Object()</text>
<text text-anchor="start" x="365" y="-196" font-family="Helvetica,sans-Serif" font-size="10.00">+ evaluate()</text>
<text text-anchor="start" x="365" y="-185" font-family="Helvetica,sans-Serif" font-size="10.00">+ evaluate()</text>
<text text-anchor="start" x="365" y="-174" font-family="Helvetica,sans-Serif" font-size="10.00">+ evaluate()</text>
<text text-anchor="start" x="365" y="-163" font-family="Helvetica,sans-Serif" font-size="10.00">+ at()</text>
</a>
</g>
</g>
<!-- Node6&#45;&gt;Node1 -->
<g id="edge6" class="edge">
<title>Node6&#45;&gt;Node1</title>
<path fill="none" stroke="midnightblue" d="M366.89,-149.17C349.2,-133.46 330.42,-116.77 313.5,-101.75"/>
<polygon fill="none" stroke="midnightblue" points="364.6,-151.81 374.4,-155.84 369.24,-146.58 364.6,-151.81"/>
</g>
<!-- Node7&#45;&gt;Node6 -->
<g id="edge7" class="edge">
<title>Node7&#45;&gt;Node6</title>
<path fill="none" stroke="midnightblue" d="M344.07,-483.03C344.85,-445.2 348.79,-389.32 363.5,-343 371.72,-317.1 385.48,-290.57 398.85,-268.29"/>
<polygon fill="none" stroke="midnightblue" points="340.57,-483.15 343.93,-493.2 347.57,-483.25 340.57,-483.15"/>
</g>
<!-- Node8 -->
<g id="node8" class="node">
<title>Node8</title>
<g id="a_node8"><a xlink:href="classcie_1_1geo_1_1Object.html" target="_top" xlink:title="Interface for point&#45;queriable objects.">
<polygon fill="white" stroke="black" points="372.5,-343.5 372.5,-455.5 500.5,-455.5 500.5,-343.5 372.5,-343.5"/>
<text text-anchor="start" x="380.5" y="-443.5" font-family="Helvetica,sans-Serif" font-size="10.00">cie::geo::Object&lt; N,</text>
<text text-anchor="middle" x="436.5" y="-432.5" font-family="Helvetica,sans-Serif" font-size="10.00"> TValue, TCoordinate &gt;</text>
<polyline fill="none" stroke="black" points="372.5,-425.5 500.5,-425.5 "/>
<text text-anchor="middle" x="436.5" y="-413.5" font-family="Helvetica,sans-Serif" font-size="10.00"> </text>
<polyline fill="none" stroke="black" points="372.5,-406.5 500.5,-406.5 "/>
<text text-anchor="start" x="380.5" y="-394.5" font-family="Helvetica,sans-Serif" font-size="10.00">+ ~Object()</text>
<text text-anchor="start" x="380.5" y="-383.5" font-family="Helvetica,sans-Serif" font-size="10.00">+ evaluate()</text>
<text text-anchor="start" x="380.5" y="-372.5" font-family="Helvetica,sans-Serif" font-size="10.00">+ evaluate()</text>
<text text-anchor="start" x="380.5" y="-361.5" font-family="Helvetica,sans-Serif" font-size="10.00">+ evaluate()</text>
<text text-anchor="start" x="380.5" y="-350.5" font-family="Helvetica,sans-Serif" font-size="10.00">+ at()</text>
</a>
</g>
</g>
<!-- Node7&#45;&gt;Node8 -->
<g id="edge10" class="edge">
<title>Node7&#45;&gt;Node8</title>
<path fill="none" stroke="midnightblue" d="M374.77,-485.04C381.6,-475.68 388.96,-465.61 396.13,-455.79"/>
<polygon fill="none" stroke="midnightblue" points="371.74,-483.25 368.67,-493.39 377.4,-487.38 371.74,-483.25"/>
</g>
<!-- Node8&#45;&gt;Node6 -->
<g id="edge9" class="edge">
<title>Node8&#45;&gt;Node6</title>
<path fill="none" stroke="orange" d="M436.5,-333.13C436.5,-311.94 436.5,-288.65 436.5,-268.26"/>
<polygon fill="orange" stroke="orange" points="433,-333.35 436.5,-343.35 440,-333.35 433,-333.35"/>
<text text-anchor="start" x="436.5" y="-317" font-family="Helvetica,sans-Serif" font-size="10.00"> &lt; Dimension, Bool,</text>
<text text-anchor="middle" x="485.5" y="-306" font-family="Helvetica,sans-Serif" font-size="10.00"> CoordinateType &gt;</text>
</g>
</g>
</svg>
