<?xml version="1.0" encoding="UTF-8" standalone="no"?>
<!DOCTYPE svg PUBLIC "-//W3C//DTD SVG 1.1//EN"
 "http://www.w3.org/Graphics/SVG/1.1/DTD/svg11.dtd">
<!-- Generated by graphviz version 2.43.0 (0)
 -->
<!-- Title: cie::geo::boolean::Ellipsoid&lt; Dimension, CoordinateType &gt; Pages: 1 -->
<!--zoomable 1311 -->
<svg id="main" version="1.1" xmlns="http://www.w3.org/2000/svg" xmlns:xlink="http://www.w3.org/1999/xlink" xml:space="preserve" onload="init(evt)">
<style type="text/css"><![CDATA[
.edge:hover path { stroke: red; }
.edge:hover polygon { stroke: red; fill: red; }
]]></style>
<script type="text/javascript"><![CDATA[
var edges = document.getElementsByTagName('g');
if (edges && edges.length) {
  for (var i=0;i<edges.length;i++) {
    if (edges[i].id.substr(0,4)=='edge') {
      edges[i].setAttribute('class','edge');
    }
  }
}
]]></script>
        <defs>
                <circle id="rim" cx="0" cy="0" r="7"/>
                <circle id="rim2" cx="0" cy="0" r="3.5"/>
                <g id="zoomPlus">
                        <use xlink:href="#rim" fill="#404040">
                                <set attributeName="fill" to="#808080" begin="zoomplus.mouseover" end="zoomplus.mouseout"/>
                        </use>
                        <path d="M-4,0h8M0,-4v8" fill="none" stroke="white" stroke-width="1.5" pointer-events="none"/>
                </g>
                <g id="zoomMin">
                        <use xlink:href="#rim" fill="#404040">
                                <set attributeName="fill" to="#808080" begin="zoomminus.mouseover" end="zoomminus.mouseout"/>
                        </use>
                        <path d="M-4,0h8" fill="none" stroke="white" stroke-width="1.5" pointer-events="none"/>
                </g>
                <g id="dirArrow">
                        <path fill="none" stroke="white" stroke-width="1.5" d="M0,-3.0v7 M-2.5,-0.5L0,-3.0L2.5,-0.5"/>
                </g>
               <g id="resetDef">
                       <use xlink:href="#rim2" fill="#404040">
                               <set attributeName="fill" to="#808080" begin="reset.mouseover" end="reset.mouseout"/>
                       </use>
               </g>
        </defs>

<script type="text/javascript">
var viewWidth = 524;
var viewHeight = 1311;
var sectionId = 'dynsection-1';
</script>
<script xlink:href="svgpan.js"/>
<svg id="graph" class="graph">
<g id="viewport">
<title>cie::geo::boolean::Ellipsoid&lt; Dimension, CoordinateType &gt;</title>
<polygon fill="white" stroke="transparent" points="-4,4 -4,-1307 519.5,-1307 519.5,4 -4,4"/>
<!-- Node1 -->
<g id="node1" class="node">
<title>Node1</title>
<g id="a_node1"><a xlink:title="Ellipsoid with point membership test.">
<polygon fill="#bfbfbf" stroke="black" points="214,-0.5 214,-134.5 339,-134.5 339,-0.5 214,-0.5"/>
<text text-anchor="start" x="222" y="-122.5" font-family="Helvetica,sans-Serif" font-size="10.00">cie::geo::boolean::</text>
<text text-anchor="start" x="222" y="-111.5" font-family="Helvetica,sans-Serif" font-size="10.00">Ellipsoid&lt; Dimension,</text>
<text text-anchor="middle" x="276.5" y="-100.5" font-family="Helvetica,sans-Serif" font-size="10.00"> CoordinateType &gt;</text>
<polyline fill="none" stroke="black" points="214,-93.5 339,-93.5 "/>
<text text-anchor="middle" x="276.5" y="-81.5" font-family="Helvetica,sans-Serif" font-size="10.00"> </text>
<polyline fill="none" stroke="black" points="214,-74.5 339,-74.5 "/>
<text text-anchor="start" x="222" y="-62.5" font-family="Helvetica,sans-Serif" font-size="10.00">+ Ellipsoid()</text>
<text text-anchor="start" x="222" y="-51.5" font-family="Helvetica,sans-Serif" font-size="10.00">+ Ellipsoid()</text>
<text text-anchor="start" x="222" y="-40.5" font-family="Helvetica,sans-Serif" font-size="10.00">+ Ellipsoid()</text>
<text text-anchor="start" x="222" y="-29.5" font-family="Helvetica,sans-Serif" font-size="10.00">+ Ellipsoid()</text>
<text text-anchor="start" x="222" y="-18.5" font-family="Helvetica,sans-Serif" font-size="10.00">+ operator=()</text>
<text text-anchor="start" x="222" y="-7.5" font-family="Helvetica,sans-Serif" font-size="10.00"># at()</text>
</a>
</g>
</g>
<!-- Node2 -->
<g id="node2" class="node">
<title>Node2</title>
<g id="a_node2"><a xlink:href="classcie_1_1geo_1_1Ellipsoid.html" target="_top" xlink:title=" ">
<polygon fill="white" stroke="black" points="116.5,-172.5 116.5,-350.5 248.5,-350.5 248.5,-172.5 116.5,-172.5"/>
<text text-anchor="start" x="124.5" y="-338.5" font-family="Helvetica,sans-Serif" font-size="10.00">cie::geo::Ellipsoid</text>
<text text-anchor="middle" x="182.5" y="-327.5" font-family="Helvetica,sans-Serif" font-size="10.00">&lt; Dimension, Double &gt;</text>
<polyline fill="none" stroke="black" points="116.5,-320.5 248.5,-320.5 "/>
<text text-anchor="start" x="124.5" y="-308.5" font-family="Helvetica,sans-Serif" font-size="10.00"># _center</text>
<text text-anchor="start" x="124.5" y="-297.5" font-family="Helvetica,sans-Serif" font-size="10.00"># _radii</text>
<polyline fill="none" stroke="black" points="116.5,-290.5 248.5,-290.5 "/>
<text text-anchor="start" x="124.5" y="-278.5" font-family="Helvetica,sans-Serif" font-size="10.00">+ Ellipsoid()</text>
<text text-anchor="start" x="124.5" y="-267.5" font-family="Helvetica,sans-Serif" font-size="10.00">+ Ellipsoid()</text>
<text text-anchor="start" x="124.5" y="-256.5" font-family="Helvetica,sans-Serif" font-size="10.00">+ Ellipsoid()</text>
<text text-anchor="start" x="124.5" y="-245.5" font-family="Helvetica,sans-Serif" font-size="10.00">+ Ellipsoid()</text>
<text text-anchor="start" x="124.5" y="-234.5" font-family="Helvetica,sans-Serif" font-size="10.00">+ operator=()</text>
<text text-anchor="start" x="124.5" y="-223.5" font-family="Helvetica,sans-Serif" font-size="10.00">+ isDegenerate()</text>
<text text-anchor="start" x="124.5" y="-212.5" font-family="Helvetica,sans-Serif" font-size="10.00">+ center()</text>
<text text-anchor="start" x="124.5" y="-201.5" font-family="Helvetica,sans-Serif" font-size="10.00">+ center()</text>
<text text-anchor="start" x="124.5" y="-190.5" font-family="Helvetica,sans-Serif" font-size="10.00">+ radii()</text>
<text text-anchor="start" x="124.5" y="-179.5" font-family="Helvetica,sans-Serif" font-size="10.00">+ radii()</text>
</a>
</g>
</g>
<!-- Node2&#45;&gt;Node1 -->
<g id="edge1" class="edge">
<title>Node2&#45;&gt;Node1</title>
<path fill="none" stroke="midnightblue" d="M230.18,-163.11C234.91,-153.44 239.64,-143.8 244.16,-134.56"/>
<polygon fill="none" stroke="midnightblue" points="226.9,-161.85 225.65,-172.37 233.19,-164.92 226.9,-161.85"/>
</g>
<!-- Node3 -->
<g id="node3" class="node">
<title>Node3</title>
<g id="a_node3"><a xlink:href="classcie_1_1geo_1_1AbsPrimitive.html" target="_top" xlink:title=" ">
<polygon fill="white" stroke="black" points="0,-812 0,-891 173,-891 173,-812 0,-812"/>
<text text-anchor="start" x="8" y="-879" font-family="Helvetica,sans-Serif" font-size="10.00">cie::geo::AbsPrimitive</text>
<text text-anchor="middle" x="86.5" y="-868" font-family="Helvetica,sans-Serif" font-size="10.00">&lt; Dimension, CoordinateType &gt;</text>
<polyline fill="none" stroke="black" points="0,-861 173,-861 "/>
<text text-anchor="middle" x="86.5" y="-849" font-family="Helvetica,sans-Serif" font-size="10.00"> </text>
<polyline fill="none" stroke="black" points="0,-842 173,-842 "/>
<text text-anchor="start" x="8" y="-830" font-family="Helvetica,sans-Serif" font-size="10.00">+ ~AbsPrimitive()</text>
<text text-anchor="start" x="8" y="-819" font-family="Helvetica,sans-Serif" font-size="10.00">+ isDegenerate()</text>
</a>
</g>
</g>
<!-- Node3&#45;&gt;Node2 -->
<g id="edge2" class="edge">
<title>Node3&#45;&gt;Node2</title>
<path fill="none" stroke="midnightblue" d="M76.72,-801.87C61.8,-717.22 39.74,-538.42 86.5,-398 93.29,-377.62 104.25,-357.63 116.39,-339.52"/>
<polygon fill="none" stroke="midnightblue" points="73.32,-802.74 78.54,-811.96 80.21,-801.5 73.32,-802.74"/>
</g>
<!-- Node8 -->
<g id="node8" class="node">
<title>Node8</title>
<g id="a_node8"><a xlink:href="classcie_1_1geo_1_1AbsPrimitive.html" target="_top" xlink:title=" ">
<polygon fill="white" stroke="black" points="89.5,-641 89.5,-720 221.5,-720 221.5,-641 89.5,-641"/>
<text text-anchor="start" x="97.5" y="-708" font-family="Helvetica,sans-Serif" font-size="10.00">cie::geo::AbsPrimitive</text>
<text text-anchor="middle" x="155.5" y="-697" font-family="Helvetica,sans-Serif" font-size="10.00">&lt; Dimension, Double &gt;</text>
<polyline fill="none" stroke="black" points="89.5,-690 221.5,-690 "/>
<text text-anchor="middle" x="155.5" y="-678" font-family="Helvetica,sans-Serif" font-size="10.00"> </text>
<polyline fill="none" stroke="black" points="89.5,-671 221.5,-671 "/>
<text text-anchor="start" x="97.5" y="-659" font-family="Helvetica,sans-Serif" font-size="10.00">+ ~AbsPrimitive()</text>
<text text-anchor="start" x="97.5" y="-648" font-family="Helvetica,sans-Serif" font-size="10.00">+ isDegenerate()</text>
</a>
</g>
</g>
<!-- Node3&#45;&gt;Node8 -->
<g id="edge10" class="edge">
<title>Node3&#45;&gt;Node8</title>
<path fill="none" stroke="orange" d="M85.63,-801.3C86.8,-786.01 89.59,-769.4 95.5,-755 100.56,-742.66 108.43,-730.76 116.82,-720.28"/>
<polygon fill="orange" stroke="orange" points="82.12,-801.45 85.07,-811.63 89.11,-801.83 82.12,-801.45"/>
<text text-anchor="middle" x="155" y="-763.5" font-family="Helvetica,sans-Serif" font-size="10.00"> &lt; Dimension, Double &gt;</text>
</g>
<!-- Node4 -->
<g id="node4" class="node">
<title>Node4</title>
<g id="a_node4"><a xlink:href="classcie_1_1geo_1_1Traits.html" target="_top" xlink:title=" ">
<polygon fill="white" stroke="black" points="9.5,-1013.5 9.5,-1081.5 163.5,-1081.5 163.5,-1013.5 9.5,-1013.5"/>
<text text-anchor="start" x="17.5" y="-1069.5" font-family="Helvetica,sans-Serif" font-size="10.00">cie::geo::Traits&lt; Dimension,</text>
<text text-anchor="middle" x="86.5" y="-1058.5" font-family="Helvetica,sans-Serif" font-size="10.00"> Double &gt;</text>
<polyline fill="none" stroke="black" points="9.5,-1051.5 163.5,-1051.5 "/>
<text text-anchor="start" x="17.5" y="-1039.5" font-family="Helvetica,sans-Serif" font-size="10.00">+ Dimension</text>
<polyline fill="none" stroke="black" points="9.5,-1032.5 163.5,-1032.5 "/>
<text text-anchor="middle" x="86.5" y="-1020.5" font-family="Helvetica,sans-Serif" font-size="10.00"> </text>
</a>
</g>
</g>
<!-- Node4&#45;&gt;Node3 -->
<g id="edge3" class="edge">
<title>Node4&#45;&gt;Node3</title>
<path fill="none" stroke="midnightblue" d="M86.5,-1002.72C86.5,-969.15 86.5,-923.27 86.5,-891.07"/>
<polygon fill="none" stroke="midnightblue" points="83,-1003.15 86.5,-1013.15 90,-1003.15 83,-1003.15"/>
</g>
<!-- Node5 -->
<g id="node5" class="node">
<title>Node5</title>
<g id="a_node5"><a xlink:href="classcie_1_1geo_1_1Traits.html" target="_top" xlink:title="Basic templated traits that every object has in GEO.">
<polygon fill="white" stroke="black" points="167.5,-1129.5 167.5,-1197.5 289.5,-1197.5 289.5,-1129.5 167.5,-1129.5"/>
<text text-anchor="start" x="175.5" y="-1185.5" font-family="Helvetica,sans-Serif" font-size="10.00">cie::geo::Traits&lt; Dim,</text>
<text text-anchor="middle" x="228.5" y="-1174.5" font-family="Helvetica,sans-Serif" font-size="10.00"> TCoordinate &gt;</text>
<polyline fill="none" stroke="black" points="167.5,-1167.5 289.5,-1167.5 "/>
<text text-anchor="middle" x="228.5" y="-1155.5" font-family="Helvetica,sans-Serif" font-size="10.00"> </text>
<polyline fill="none" stroke="black" points="167.5,-1148.5 289.5,-1148.5 "/>
<text text-anchor="middle" x="228.5" y="-1136.5" font-family="Helvetica,sans-Serif" font-size="10.00"> </text>
</a>
</g>
</g>
<!-- Node5&#45;&gt;Node4 -->
<g id="edge4" class="edge">
<title>Node5&#45;&gt;Node4</title>
<path fill="none" stroke="orange" d="M157.45,-1153.62C131.1,-1146.52 103.71,-1133.78 87.5,-1111 81.52,-1102.6 79.85,-1091.83 80.1,-1081.6"/>
<polygon fill="orange" stroke="orange" points="156.93,-1157.1 167.47,-1156.08 158.59,-1150.3 156.93,-1157.1"/>
<text text-anchor="middle" x="147" y="-1103" font-family="Helvetica,sans-Serif" font-size="10.00"> &lt; Dimension, Double &gt;</text>
</g>
<!-- Node9 -->
<g id="node9" class="node">
<title>Node9</title>
<g id="a_node9"><a xlink:href="classcie_1_1geo_1_1Traits.html" target="_top" xlink:title=" ">
<polygon fill="white" stroke="black" points="151.5,-926.5 151.5,-994.5 305.5,-994.5 305.5,-926.5 151.5,-926.5"/>
<text text-anchor="start" x="159.5" y="-982.5" font-family="Helvetica,sans-Serif" font-size="10.00">cie::geo::Traits&lt; Dimension,</text>
<text text-anchor="middle" x="228.5" y="-971.5" font-family="Helvetica,sans-Serif" font-size="10.00"> CoordinateType &gt;</text>
<polyline fill="none" stroke="black" points="151.5,-964.5 305.5,-964.5 "/>
<text text-anchor="start" x="159.5" y="-952.5" font-family="Helvetica,sans-Serif" font-size="10.00">+ Dimension</text>
<polyline fill="none" stroke="black" points="151.5,-945.5 305.5,-945.5 "/>
<text text-anchor="middle" x="228.5" y="-933.5" font-family="Helvetica,sans-Serif" font-size="10.00"> </text>
</a>
</g>
</g>
<!-- Node5&#45;&gt;Node9 -->
<g id="edge9" class="edge">
<title>Node5&#45;&gt;Node9</title>
<path fill="none" stroke="orange" d="M225.8,-1119.21C225.68,-1116.43 225.58,-1113.68 225.5,-1111 224.34,-1071.04 225.66,-1025.05 226.9,-994.76"/>
<polygon fill="orange" stroke="orange" points="222.3,-1119.45 226.28,-1129.27 229.29,-1119.11 222.3,-1119.45"/>
<text text-anchor="middle" x="305.5" y="-1103" font-family="Helvetica,sans-Serif" font-size="10.00"> &lt; Dimension, CoordinateType &gt;</text>
</g>
<!-- Node12 -->
<g id="node12" class="node">
<title>Node12</title>
<g id="a_node12"><a xlink:href="classcie_1_1geo_1_1Traits.html" target="_top" xlink:title=" ">
<polygon fill="white" stroke="black" points="357,-1013.5 357,-1081.5 466,-1081.5 466,-1013.5 357,-1013.5"/>
<text text-anchor="start" x="365" y="-1069.5" font-family="Helvetica,sans-Serif" font-size="10.00">cie::geo::Traits&lt; N,</text>
<text text-anchor="middle" x="411.5" y="-1058.5" font-family="Helvetica,sans-Serif" font-size="10.00"> TCoordinate &gt;</text>
<polyline fill="none" stroke="black" points="357,-1051.5 466,-1051.5 "/>
<text text-anchor="start" x="365" y="-1039.5" font-family="Helvetica,sans-Serif" font-size="10.00">+ Dimension</text>
<polyline fill="none" stroke="black" points="357,-1032.5 466,-1032.5 "/>
<text text-anchor="middle" x="411.5" y="-1020.5" font-family="Helvetica,sans-Serif" font-size="10.00"> </text>
</a>
</g>
</g>
<!-- Node5&#45;&gt;Node12 -->
<g id="edge14" class="edge">
<title>Node5&#45;&gt;Node12</title>
<path fill="none" stroke="orange" d="M299.52,-1154.17C330.59,-1147.21 365.38,-1134.43 389.5,-1111 397.59,-1103.14 402.7,-1092.14 405.94,-1081.56"/>
<polygon fill="orange" stroke="orange" points="298.66,-1150.77 289.58,-1156.23 300.08,-1157.63 298.66,-1150.77"/>
<text text-anchor="middle" x="446.5" y="-1103" font-family="Helvetica,sans-Serif" font-size="10.00"> &lt; N, TCoordinate &gt;</text>
</g>
<!-- Node6 -->
<g id="node6" class="node">
<title>Node6</title>
<g id="a_node6"><a xlink:title=" ">
<polygon fill="white" stroke="#bfbfbf" points="206,-1245.5 206,-1302.5 251,-1302.5 251,-1245.5 206,-1245.5"/>
<text text-anchor="middle" x="228.5" y="-1290.5" font-family="Helvetica,sans-Serif" font-size="10.00">size_t</text>
<polyline fill="none" stroke="#bfbfbf" points="206,-1283.5 251,-1283.5 "/>
<text text-anchor="middle" x="228.5" y="-1271.5" font-family="Helvetica,sans-Serif" font-size="10.00"> </text>
<polyline fill="none" stroke="#bfbfbf" points="206,-1264.5 251,-1264.5 "/>
<text text-anchor="middle" x="228.5" y="-1252.5" font-family="Helvetica,sans-Serif" font-size="10.00"> </text>
</a>
</g>
</g>
<!-- Node6&#45;&gt;Node5 -->
<g id="edge5" class="edge">
<title>Node6&#45;&gt;Node5</title>
<path fill="none" stroke="#404040" d="M228.5,-1245.34C228.5,-1234.53 228.5,-1221.85 228.5,-1209.77"/>
<polygon fill="none" stroke="#404040" points="228.5,-1209.52 224.5,-1203.52 228.5,-1197.52 232.5,-1203.52 228.5,-1209.52"/>
<text text-anchor="middle" x="260.5" y="-1219" font-family="Helvetica,sans-Serif" font-size="10.00"> +Dimension</text>
</g>
<!-- Node7 -->
<g id="node7" class="node">
<title>Node7</title>
<g id="a_node7"><a xlink:href="classcie_1_1geo_1_1Ellipsoid.html" target="_top" xlink:title="Ellipsoid template.">
<polygon fill="white" stroke="black" points="96,-398.5 96,-565.5 269,-565.5 269,-398.5 96,-398.5"/>
<text text-anchor="start" x="104" y="-553.5" font-family="Helvetica,sans-Serif" font-size="10.00">cie::geo::Ellipsoid</text>
<text text-anchor="middle" x="182.5" y="-542.5" font-family="Helvetica,sans-Serif" font-size="10.00">&lt; Dimension, CoordinateType &gt;</text>
<polyline fill="none" stroke="black" points="96,-535.5 269,-535.5 "/>
<text text-anchor="middle" x="182.5" y="-523.5" font-family="Helvetica,sans-Serif" font-size="10.00"> </text>
<polyline fill="none" stroke="black" points="96,-516.5 269,-516.5 "/>
<text text-anchor="start" x="104" y="-504.5" font-family="Helvetica,sans-Serif" font-size="10.00">+ Ellipsoid()</text>
<text text-anchor="start" x="104" y="-493.5" font-family="Helvetica,sans-Serif" font-size="10.00">+ Ellipsoid()</text>
<text text-anchor="start" x="104" y="-482.5" font-family="Helvetica,sans-Serif" font-size="10.00">+ Ellipsoid()</text>
<text text-anchor="start" x="104" y="-471.5" font-family="Helvetica,sans-Serif" font-size="10.00">+ Ellipsoid()</text>
<text text-anchor="start" x="104" y="-460.5" font-family="Helvetica,sans-Serif" font-size="10.00">+ operator=()</text>
<text text-anchor="start" x="104" y="-449.5" font-family="Helvetica,sans-Serif" font-size="10.00">+ isDegenerate()</text>
<text text-anchor="start" x="104" y="-438.5" font-family="Helvetica,sans-Serif" font-size="10.00">+ center()</text>
<text text-anchor="start" x="104" y="-427.5" font-family="Helvetica,sans-Serif" font-size="10.00">+ center()</text>
<text text-anchor="start" x="104" y="-416.5" font-family="Helvetica,sans-Serif" font-size="10.00">+ radii()</text>
<text text-anchor="start" x="104" y="-405.5" font-family="Helvetica,sans-Serif" font-size="10.00">+ radii()</text>
</a>
</g>
</g>
<!-- Node7&#45;&gt;Node2 -->
<g id="edge6" class="edge">
<title>Node7&#45;&gt;Node2</title>
<path fill="none" stroke="orange" d="M182.5,-388.07C182.5,-375.68 182.5,-363 182.5,-350.69"/>
<polygon fill="orange" stroke="orange" points="179,-388.39 182.5,-398.39 186,-388.39 179,-388.39"/>
<text text-anchor="middle" x="242" y="-372" font-family="Helvetica,sans-Serif" font-size="10.00"> &lt; Dimension, Double &gt;</text>
</g>
<!-- Node8&#45;&gt;Node7 -->
<g id="edge7" class="edge">
<title>Node8&#45;&gt;Node7</title>
<path fill="none" stroke="midnightblue" d="M162.2,-630.74C164.9,-611.06 168.1,-587.8 171.15,-565.62"/>
<polygon fill="none" stroke="midnightblue" points="158.73,-630.29 160.83,-640.68 165.66,-631.25 158.73,-630.29"/>
</g>
<!-- Node9&#45;&gt;Node8 -->
<g id="edge8" class="edge">
<title>Node9&#45;&gt;Node8</title>
<path fill="none" stroke="midnightblue" d="M232.87,-916.29C235.5,-873.74 235.07,-807.67 214.5,-755 209.68,-742.65 202,-730.76 193.76,-720.27"/>
<polygon fill="none" stroke="midnightblue" points="229.37,-916.09 232.16,-926.31 236.35,-916.58 229.37,-916.09"/>
</g>
<!-- Node10 -->
<g id="node10" class="node">
<title>Node10</title>
<g id="a_node10"><a xlink:title=" ">
<polygon fill="white" stroke="#bfbfbf" points="240,-652 240,-709 281,-709 281,-652 240,-652"/>
<text text-anchor="middle" x="260.5" y="-697" font-family="Helvetica,sans-Serif" font-size="10.00">Point</text>
<polyline fill="none" stroke="#bfbfbf" points="240,-690 281,-690 "/>
<text text-anchor="middle" x="260.5" y="-678" font-family="Helvetica,sans-Serif" font-size="10.00"> </text>
<polyline fill="none" stroke="#bfbfbf" points="240,-671 281,-671 "/>
<text text-anchor="middle" x="260.5" y="-659" font-family="Helvetica,sans-Serif" font-size="10.00"> </text>
</a>
</g>
</g>
<!-- Node10&#45;&gt;Node7 -->
<g id="edge11" class="edge">
<title>Node10&#45;&gt;Node7</title>
<path fill="none" stroke="#404040" d="M249.49,-651.76C241.67,-632.05 230.66,-604.34 219.83,-577.05"/>
<polygon fill="none" stroke="#404040" points="219.8,-576.98 213.87,-572.87 215.38,-565.82 221.31,-569.92 219.8,-576.98"/>
<text text-anchor="middle" x="255.5" y="-598" font-family="Helvetica,sans-Serif" font-size="10.00"> #_center</text>
<text text-anchor="middle" x="255.5" y="-587" font-family="Helvetica,sans-Serif" font-size="10.00">#_radii</text>
</g>
<!-- Node11 -->
<g id="node11" class="node">
<title>Node11</title>
<g id="a_node11"><a xlink:href="classcie_1_1geo_1_1Object.html" target="_top" xlink:title=" ">
<polygon fill="white" stroke="black" points="299,-624.5 299,-736.5 458,-736.5 458,-624.5 299,-624.5"/>
<text text-anchor="start" x="307" y="-724.5" font-family="Helvetica,sans-Serif" font-size="10.00">cie::geo::Object&lt; Dimension,</text>
<text text-anchor="middle" x="378.5" y="-713.5" font-family="Helvetica,sans-Serif" font-size="10.00"> Bool, Double &gt;</text>
<polyline fill="none" stroke="black" points="299,-706.5 458,-706.5 "/>
<text text-anchor="middle" x="378.5" y="-694.5" font-family="Helvetica,sans-Serif" font-size="10.00"> </text>
<polyline fill="none" stroke="black" points="299,-687.5 458,-687.5 "/>
<text text-anchor="start" x="307" y="-675.5" font-family="Helvetica,sans-Serif" font-size="10.00">+ ~Object()</text>
<text text-anchor="start" x="307" y="-664.5" font-family="Helvetica,sans-Serif" font-size="10.00">+ evaluate()</text>
<text text-anchor="start" x="307" y="-653.5" font-family="Helvetica,sans-Serif" font-size="10.00">+ evaluate()</text>
<text text-anchor="start" x="307" y="-642.5" font-family="Helvetica,sans-Serif" font-size="10.00">+ evaluate()</text>
<text text-anchor="start" x="307" y="-631.5" font-family="Helvetica,sans-Serif" font-size="10.00">+ at()</text>
</a>
</g>
</g>
<!-- Node11&#45;&gt;Node1 -->
<g id="edge12" class="edge">
<title>Node11&#45;&gt;Node1</title>
<path fill="none" stroke="midnightblue" d="M367.66,-614.57C348.13,-497.59 307.24,-252.65 287.56,-134.72"/>
<polygon fill="none" stroke="midnightblue" points="364.21,-615.18 369.31,-624.47 371.12,-614.03 364.21,-615.18"/>
</g>
<!-- Node12&#45;&gt;Node11 -->
<g id="edge13" class="edge">
<title>Node12&#45;&gt;Node11</title>
<path fill="none" stroke="midnightblue" d="M397.01,-1003.85C388.58,-976.76 378.8,-940.75 374.5,-908 367.96,-858.2 373.62,-845.21 374.5,-795 374.84,-775.98 375.49,-755.17 376.17,-736.62"/>
<polygon fill="none" stroke="midnightblue" points="393.68,-1004.94 400.04,-1013.41 400.35,-1002.82 393.68,-1004.94"/>
</g>
<!-- Node13 -->
<g id="node13" class="node">
<title>Node13</title>
<g id="a_node13"><a xlink:href="classcie_1_1geo_1_1Object.html" target="_top" xlink:title="Interface for point&#45;queriable objects.">
<polygon fill="white" stroke="black" points="383.5,-795.5 383.5,-907.5 511.5,-907.5 511.5,-795.5 383.5,-795.5"/>
<text text-anchor="start" x="391.5" y="-895.5" font-family="Helvetica,sans-Serif" font-size="10.00">cie::geo::Object&lt; N,</text>
<text text-anchor="middle" x="447.5" y="-884.5" font-family="Helvetica,sans-Serif" font-size="10.00"> TValue, TCoordinate &gt;</text>
<polyline fill="none" stroke="black" points="383.5,-877.5 511.5,-877.5 "/>
<text text-anchor="middle" x="447.5" y="-865.5" font-family="Helvetica,sans-Serif" font-size="10.00"> </text>
<polyline fill="none" stroke="black" points="383.5,-858.5 511.5,-858.5 "/>
<text text-anchor="start" x="391.5" y="-846.5" font-family="Helvetica,sans-Serif" font-size="10.00">+ ~Object()</text>
<text text-anchor="start" x="391.5" y="-835.5" font-family="Helvetica,sans-Serif" font-size="10.00">+ evaluate()</text>
<text text-anchor="start" x="391.5" y="-824.5" font-family="Helvetica,sans-Serif" font-size="10.00">+ evaluate()</text>
<text text-anchor="start" x="391.5" y="-813.5" font-family="Helvetica,sans-Serif" font-size="10.00">+ evaluate()</text>
<text text-anchor="start" x="391.5" y="-802.5" font-family="Helvetica,sans-Serif" font-size="10.00">+ at()</text>
</a>
</g>
</g>
<!-- Node12&#45;&gt;Node13 -->
<g id="edge16" class="edge">
<title>Node12&#45;&gt;Node13</title>
<path fill="none" stroke="midnightblue" d="M419.53,-1003.2C424.76,-975.04 431.62,-938.06 437.24,-907.78"/>
<polygon fill="none" stroke="midnightblue" points="416.07,-1002.68 417.69,-1013.15 422.95,-1003.96 416.07,-1002.68"/>
</g>
<!-- Node13&#45;&gt;Node11 -->
<g id="edge15" class="edge">
<title>Node13&#45;&gt;Node11</title>
<path fill="none" stroke="orange" d="M421.07,-785.77C414.46,-769.57 407.43,-752.35 401.03,-736.67"/>
<polygon fill="orange" stroke="orange" points="417.89,-787.23 424.91,-795.16 424.37,-784.58 417.89,-787.23"/>
<text text-anchor="start" x="417.5" y="-769" font-family="Helvetica,sans-Serif" font-size="10.00"> &lt; Dimension, Bool,</text>
<text text-anchor="middle" x="466.5" y="-758" font-family="Helvetica,sans-Serif" font-size="10.00"> Double &gt;</text>
</g>
</g>
</svg>
        <g id="navigator" transform="translate(0 0)" fill="#404254">
                <rect fill="#f2f5e9" fill-opacity="0.5" stroke="#606060" stroke-width=".5" x="0" y="0" width="60" height="60"/>
                <use id="zoomplus" xlink:href="#zoomPlus" x="17" y="9" onmousedown="handleZoom(evt,'in')"/>
                <use id="zoomminus" xlink:href="#zoomMin" x="42" y="9" onmousedown="handleZoom(evt,'out')"/>
                <use id="reset" xlink:href="#resetDef" x="30" y="36" onmousedown="handleReset()"/>
                <g id="arrowUp" xlink:href="#dirArrow" transform="translate(30 24)" onmousedown="handlePan(0,-1)">
                  <use xlink:href="#rim" fill="#404040">
                        <set attributeName="fill" to="#808080" begin="arrowUp.mouseover" end="arrowUp.mouseout"/>
                  </use>
                  <path fill="none" stroke="white" stroke-width="1.5" d="M0,-3.0v7 M-2.5,-0.5L0,-3.0L2.5,-0.5"/>
                </g>
                <g id="arrowRight" xlink:href="#dirArrow" transform="rotate(90) translate(36 -43)" onmousedown="handlePan(1,0)">
                  <use xlink:href="#rim" fill="#404040">
                        <set attributeName="fill" to="#808080" begin="arrowRight.mouseover" end="arrowRight.mouseout"/>
                  </use>
                  <path fill="none" stroke="white" stroke-width="1.5" d="M0,-3.0v7 M-2.5,-0.5L0,-3.0L2.5,-0.5"/>
                </g>
                <g id="arrowDown" xlink:href="#dirArrow" transform="rotate(180) translate(-30 -48)" onmousedown="handlePan(0,1)">
                  <use xlink:href="#rim" fill="#404040">
                        <set attributeName="fill" to="#808080" begin="arrowDown.mouseover" end="arrowDown.mouseout"/>
                  </use>
                  <path fill="none" stroke="white" stroke-width="1.5" d="M0,-3.0v7 M-2.5,-0.5L0,-3.0L2.5,-0.5"/>
                </g>
                <g id="arrowLeft" xlink:href="#dirArrow" transform="rotate(270) translate(-36 17)" onmousedown="handlePan(-1,0)">
                  <use xlink:href="#rim" fill="#404040">
                        <set attributeName="fill" to="#808080" begin="arrowLeft.mouseover" end="arrowLeft.mouseout"/>
                  </use>
                  <path fill="none" stroke="white" stroke-width="1.5" d="M0,-3.0v7 M-2.5,-0.5L0,-3.0L2.5,-0.5"/>
                </g>
        </g>
        <svg viewBox="0 0 15 15" width="100%" height="30px" preserveAspectRatio="xMaxYMin meet">
         <g id="arrow_out" transform="scale(0.3 0.3)">
          <a xlink:href="classcie_1_1geo_1_1boolean_1_1Ellipsoid__coll__graph_org.svg" target="_base">
           <rect id="button" ry="5" rx="5" y="6" x="6" height="38" width="38"
                fill="#f2f5e9" fill-opacity="0.5" stroke="#606060" stroke-width="1.0"/>
           <path id="arrow"
             d="M 11.500037,31.436501 C 11.940474,20.09759 22.043105,11.32322 32.158766,21.979434 L 37.068811,17.246167 C 37.068811,17.246167 37.088388,32 37.088388,32 L 22.160133,31.978069 C 22.160133,31.978069 26.997745,27.140456 26.997745,27.140456 C 18.528582,18.264221 13.291696,25.230495 11.500037,31.436501 z"
             style="fill:#404040;"/>
          </a>
         </g>
        </svg>
</svg>
