<?xml version="1.0" encoding="UTF-8" standalone="no"?>
<!DOCTYPE svg PUBLIC "-//W3C//DTD SVG 1.1//EN"
 "http://www.w3.org/Graphics/SVG/1.1/DTD/svg11.dtd">
<!-- Generated by graphviz version 2.43.0 (0)
 -->
<!-- Title: cie::geo::Subtraction&lt; Dimension, CoordinateType &gt; Pages: 1 -->
<!--zoomable 1460 -->
<svg id="main" version="1.1" xmlns="http://www.w3.org/2000/svg" xmlns:xlink="http://www.w3.org/1999/xlink" xml:space="preserve" onload="init(evt)">
<style type="text/css"><![CDATA[
.edge:hover path { stroke: red; }
.edge:hover polygon { stroke: red; fill: red; }
]]></style>
<script type="text/javascript"><![CDATA[
var edges = document.getElementsByTagName('g');
if (edges && edges.length) {
  for (var i=0;i<edges.length;i++) {
    if (edges[i].id.substr(0,4)=='edge') {
      edges[i].setAttribute('class','edge');
    }
  }
}
]]></script>
        <defs>
                <circle id="rim" cx="0" cy="0" r="7"/>
                <circle id="rim2" cx="0" cy="0" r="3.5"/>
                <g id="zoomPlus">
                        <use xlink:href="#rim" fill="#404040">
                                <set attributeName="fill" to="#808080" begin="zoomplus.mouseover" end="zoomplus.mouseout"/>
                        </use>
                        <path d="M-4,0h8M0,-4v8" fill="none" stroke="white" stroke-width="1.5" pointer-events="none"/>
                </g>
                <g id="zoomMin">
                        <use xlink:href="#rim" fill="#404040">
                                <set attributeName="fill" to="#808080" begin="zoomminus.mouseover" end="zoomminus.mouseout"/>
                        </use>
                        <path d="M-4,0h8" fill="none" stroke="white" stroke-width="1.5" pointer-events="none"/>
                </g>
                <g id="dirArrow">
                        <path fill="none" stroke="white" stroke-width="1.5" d="M0,-3.0v7 M-2.5,-0.5L0,-3.0L2.5,-0.5"/>
                </g>
               <g id="resetDef">
                       <use xlink:href="#rim2" fill="#404040">
                               <set attributeName="fill" to="#808080" begin="reset.mouseover" end="reset.mouseout"/>
                       </use>
               </g>
        </defs>

<script type="text/javascript">
var viewWidth = 355;
var viewHeight = 1460;
var sectionId = 'dynsection-0';
</script>
<script xlink:href="svgpan.js"/>
<svg id="graph" class="graph">
<g id="viewport">
<title>cie::geo::Subtraction&lt; Dimension, CoordinateType &gt;</title>
<polygon fill="white" stroke="transparent" points="-4,4 -4,-1456 350.72,-1456 350.72,4 -4,4"/>
<!-- Node1 -->
<g id="node1" class="node">
<title>Node1</title>
<g id="a_node1"><a xlink:title=" ">
<polygon fill="#bfbfbf" stroke="black" points="33,-0.5 33,-112.5 206,-112.5 206,-0.5 33,-0.5"/>
<text text-anchor="start" x="41" y="-100.5" font-family="Helvetica,sans-Serif" font-size="10.00">cie::geo::Subtraction</text>
<text text-anchor="middle" x="119.5" y="-89.5" font-family="Helvetica,sans-Serif" font-size="10.00">&lt; Dimension, CoordinateType &gt;</text>
<polyline fill="none" stroke="black" points="33,-82.5 206,-82.5 "/>
<text text-anchor="middle" x="119.5" y="-70.5" font-family="Helvetica,sans-Serif" font-size="10.00"> </text>
<polyline fill="none" stroke="black" points="33,-63.5 206,-63.5 "/>
<text text-anchor="start" x="41" y="-51.5" font-family="Helvetica,sans-Serif" font-size="10.00">+ Subtraction()</text>
<text text-anchor="start" x="41" y="-40.5" font-family="Helvetica,sans-Serif" font-size="10.00">+ Subtraction()</text>
<text text-anchor="start" x="41" y="-29.5" font-family="Helvetica,sans-Serif" font-size="10.00">+ Subtraction()</text>
<text text-anchor="start" x="41" y="-18.5" font-family="Helvetica,sans-Serif" font-size="10.00">+ operator=()</text>
<text text-anchor="start" x="41" y="-7.5" font-family="Helvetica,sans-Serif" font-size="10.00">+ at()</text>
</a>
</g>
</g>
<!-- Node2 -->
<g id="node2" class="node">
<title>Node2</title>
<g id="a_node2"><a xlink:href="classcie_1_1geo_1_1BinaryOperator.html" target="_top" xlink:title=" ">
<polygon fill="white" stroke="black" points="19,-150.5 19,-295.5 220,-295.5 220,-150.5 19,-150.5"/>
<text text-anchor="start" x="27" y="-283.5" font-family="Helvetica,sans-Serif" font-size="10.00">cie::geo::BinaryOperator</text>
<text text-anchor="middle" x="119.5" y="-272.5" font-family="Helvetica,sans-Serif" font-size="10.00">&lt; Dimension, Bool, CoordinateType &gt;</text>
<polyline fill="none" stroke="black" points="19,-265.5 220,-265.5 "/>
<text text-anchor="start" x="27" y="-253.5" font-family="Helvetica,sans-Serif" font-size="10.00">+ lhs</text>
<text text-anchor="start" x="27" y="-242.5" font-family="Helvetica,sans-Serif" font-size="10.00"># _p_lhs</text>
<polyline fill="none" stroke="black" points="19,-235.5 220,-235.5 "/>
<text text-anchor="start" x="27" y="-223.5" font-family="Helvetica,sans-Serif" font-size="10.00">+ lhs()</text>
<text text-anchor="start" x="27" y="-212.5" font-family="Helvetica,sans-Serif" font-size="10.00">+ BinaryOperator()</text>
<text text-anchor="start" x="27" y="-201.5" font-family="Helvetica,sans-Serif" font-size="10.00">+ BinaryOperator()</text>
<text text-anchor="start" x="27" y="-190.5" font-family="Helvetica,sans-Serif" font-size="10.00">+ BinaryOperator()</text>
<text text-anchor="start" x="27" y="-179.5" font-family="Helvetica,sans-Serif" font-size="10.00">+ operator=()</text>
<text text-anchor="start" x="27" y="-168.5" font-family="Helvetica,sans-Serif" font-size="10.00">+ bindLhs()</text>
<text text-anchor="start" x="27" y="-157.5" font-family="Helvetica,sans-Serif" font-size="10.00">+ at()</text>
</a>
</g>
</g>
<!-- Node2&#45;&gt;Node1 -->
<g id="edge1" class="edge">
<title>Node2&#45;&gt;Node1</title>
<path fill="none" stroke="midnightblue" d="M119.5,-140.2C119.5,-130.85 119.5,-121.49 119.5,-112.61"/>
<polygon fill="none" stroke="midnightblue" points="116,-140.33 119.5,-150.33 123,-140.33 116,-140.33"/>
</g>
<!-- Node3 -->
<g id="node3" class="node">
<title>Node3</title>
<g id="a_node3"><a xlink:href="classcie_1_1geo_1_1UnaryOperator.html" target="_top" xlink:title=" ">
<polygon fill="white" stroke="black" points="34,-752.5 34,-908.5 173,-908.5 173,-752.5 34,-752.5"/>
<text text-anchor="start" x="42" y="-896.5" font-family="Helvetica,sans-Serif" font-size="10.00">cie::geo::UnaryOperator</text>
<text text-anchor="start" x="42" y="-885.5" font-family="Helvetica,sans-Serif" font-size="10.00">&lt; Dimension, ValueType,</text>
<text text-anchor="middle" x="103.5" y="-874.5" font-family="Helvetica,sans-Serif" font-size="10.00"> CoordinateType &gt;</text>
<polyline fill="none" stroke="black" points="34,-867.5 173,-867.5 "/>
<text text-anchor="start" x="42" y="-855.5" font-family="Helvetica,sans-Serif" font-size="10.00">+ rhs</text>
<text text-anchor="start" x="42" y="-844.5" font-family="Helvetica,sans-Serif" font-size="10.00"># _p_rhs</text>
<polyline fill="none" stroke="black" points="34,-837.5 173,-837.5 "/>
<text text-anchor="start" x="42" y="-825.5" font-family="Helvetica,sans-Serif" font-size="10.00">+ UnaryOperator()</text>
<text text-anchor="start" x="42" y="-814.5" font-family="Helvetica,sans-Serif" font-size="10.00">+ UnaryOperator()</text>
<text text-anchor="start" x="42" y="-803.5" font-family="Helvetica,sans-Serif" font-size="10.00">+ UnaryOperator()</text>
<text text-anchor="start" x="42" y="-792.5" font-family="Helvetica,sans-Serif" font-size="10.00">+ operator=()</text>
<text text-anchor="start" x="42" y="-781.5" font-family="Helvetica,sans-Serif" font-size="10.00">+ bindRhs()</text>
<text text-anchor="start" x="42" y="-770.5" font-family="Helvetica,sans-Serif" font-size="10.00">+ rhs()</text>
<text text-anchor="start" x="42" y="-759.5" font-family="Helvetica,sans-Serif" font-size="10.00">+ at()</text>
</a>
</g>
</g>
<!-- Node3&#45;&gt;Node2 -->
<g id="edge2" class="edge">
<title>Node3&#45;&gt;Node2</title>
<path fill="none" stroke="midnightblue" d="M105.81,-741.91C109,-621.49 114.66,-407.07 117.61,-295.66"/>
<polygon fill="none" stroke="midnightblue" points="102.31,-742.11 105.54,-752.2 109.31,-742.29 102.31,-742.11"/>
</g>
<!-- Node9 -->
<g id="node9" class="node">
<title>Node9</title>
<g id="a_node9"><a xlink:href="classcie_1_1geo_1_1UnaryOperator.html" target="_top" xlink:title=" ">
<polygon fill="white" stroke="black" points="131.5,-548.5 131.5,-693.5 291.5,-693.5 291.5,-548.5 131.5,-548.5"/>
<text text-anchor="start" x="139.5" y="-681.5" font-family="Helvetica,sans-Serif" font-size="10.00">cie::geo::UnaryOperator</text>
<text text-anchor="middle" x="211.5" y="-670.5" font-family="Helvetica,sans-Serif" font-size="10.00">&lt; Dimension, Bool, Double &gt;</text>
<polyline fill="none" stroke="black" points="131.5,-663.5 291.5,-663.5 "/>
<text text-anchor="start" x="139.5" y="-651.5" font-family="Helvetica,sans-Serif" font-size="10.00">+ rhs</text>
<text text-anchor="start" x="139.5" y="-640.5" font-family="Helvetica,sans-Serif" font-size="10.00"># _p_rhs</text>
<polyline fill="none" stroke="black" points="131.5,-633.5 291.5,-633.5 "/>
<text text-anchor="start" x="139.5" y="-621.5" font-family="Helvetica,sans-Serif" font-size="10.00">+ rhs()</text>
<text text-anchor="start" x="139.5" y="-610.5" font-family="Helvetica,sans-Serif" font-size="10.00">+ UnaryOperator()</text>
<text text-anchor="start" x="139.5" y="-599.5" font-family="Helvetica,sans-Serif" font-size="10.00">+ UnaryOperator()</text>
<text text-anchor="start" x="139.5" y="-588.5" font-family="Helvetica,sans-Serif" font-size="10.00">+ UnaryOperator()</text>
<text text-anchor="start" x="139.5" y="-577.5" font-family="Helvetica,sans-Serif" font-size="10.00">+ operator=()</text>
<text text-anchor="start" x="139.5" y="-566.5" font-family="Helvetica,sans-Serif" font-size="10.00">+ bindRhs()</text>
<text text-anchor="start" x="139.5" y="-555.5" font-family="Helvetica,sans-Serif" font-size="10.00">+ at()</text>
</a>
</g>
</g>
<!-- Node3&#45;&gt;Node9 -->
<g id="edge13" class="edge">
<title>Node3&#45;&gt;Node9</title>
<path fill="none" stroke="orange" d="M129.36,-743.08C133.59,-732.39 138.31,-721.79 143.5,-712 146.76,-705.86 150.42,-699.69 154.31,-693.62"/>
<polygon fill="orange" stroke="orange" points="126.07,-741.89 125.77,-752.48 132.61,-744.38 126.07,-741.89"/>
<text text-anchor="start" x="143.5" y="-726" font-family="Helvetica,sans-Serif" font-size="10.00"> &lt; Dimension, Bool,</text>
<text text-anchor="middle" x="192.5" y="-715" font-family="Helvetica,sans-Serif" font-size="10.00"> Double &gt;</text>
</g>
<!-- Node4 -->
<g id="node4" class="node">
<title>Node4</title>
<g id="a_node4"><a xlink:href="classcie_1_1geo_1_1Object.html" target="_top" xlink:title=" ">
<polygon fill="white" stroke="black" points="0,-946.5 0,-1058.5 159,-1058.5 159,-946.5 0,-946.5"/>
<text text-anchor="start" x="8" y="-1046.5" font-family="Helvetica,sans-Serif" font-size="10.00">cie::geo::Object&lt; Dimension,</text>
<text text-anchor="middle" x="79.5" y="-1035.5" font-family="Helvetica,sans-Serif" font-size="10.00"> Bool, Double &gt;</text>
<polyline fill="none" stroke="black" points="0,-1028.5 159,-1028.5 "/>
<text text-anchor="middle" x="79.5" y="-1016.5" font-family="Helvetica,sans-Serif" font-size="10.00"> </text>
<polyline fill="none" stroke="black" points="0,-1009.5 159,-1009.5 "/>
<text text-anchor="start" x="8" y="-997.5" font-family="Helvetica,sans-Serif" font-size="10.00">+ ~Object()</text>
<text text-anchor="start" x="8" y="-986.5" font-family="Helvetica,sans-Serif" font-size="10.00">+ evaluate()</text>
<text text-anchor="start" x="8" y="-975.5" font-family="Helvetica,sans-Serif" font-size="10.00">+ evaluate()</text>
<text text-anchor="start" x="8" y="-964.5" font-family="Helvetica,sans-Serif" font-size="10.00">+ evaluate()</text>
<text text-anchor="start" x="8" y="-953.5" font-family="Helvetica,sans-Serif" font-size="10.00">+ at()</text>
</a>
</g>
</g>
<!-- Node4&#45;&gt;Node3 -->
<g id="edge3" class="edge">
<title>Node4&#45;&gt;Node3</title>
<path fill="none" stroke="midnightblue" d="M88.71,-936.26C89.99,-927.23 91.31,-917.88 92.61,-908.65"/>
<polygon fill="none" stroke="midnightblue" points="85.22,-935.91 87.29,-946.31 92.16,-936.89 85.22,-935.91"/>
</g>
<!-- Node5 -->
<g id="node5" class="node">
<title>Node5</title>
<g id="a_node5"><a xlink:href="classcie_1_1geo_1_1Traits.html" target="_top" xlink:title=" ">
<polygon fill="white" stroke="black" points="132,-1267.5 132,-1335.5 241,-1335.5 241,-1267.5 132,-1267.5"/>
<text text-anchor="start" x="140" y="-1323.5" font-family="Helvetica,sans-Serif" font-size="10.00">cie::geo::Traits&lt; N,</text>
<text text-anchor="middle" x="186.5" y="-1312.5" font-family="Helvetica,sans-Serif" font-size="10.00"> TCoordinate &gt;</text>
<polyline fill="none" stroke="black" points="132,-1305.5 241,-1305.5 "/>
<text text-anchor="start" x="140" y="-1293.5" font-family="Helvetica,sans-Serif" font-size="10.00">+ Dimension</text>
<polyline fill="none" stroke="black" points="132,-1286.5 241,-1286.5 "/>
<text text-anchor="middle" x="186.5" y="-1274.5" font-family="Helvetica,sans-Serif" font-size="10.00"> </text>
</a>
</g>
</g>
<!-- Node5&#45;&gt;Node4 -->
<g id="edge4" class="edge">
<title>Node5&#45;&gt;Node4</title>
<path fill="none" stroke="midnightblue" d="M135.66,-1260.11C127.06,-1251.06 119.11,-1240.89 113.5,-1230 85.81,-1176.28 79.02,-1106.5 78.06,-1058.67"/>
<polygon fill="none" stroke="midnightblue" points="133.45,-1262.85 143.01,-1267.43 138.4,-1257.89 133.45,-1262.85"/>
</g>
<!-- Node7 -->
<g id="node7" class="node">
<title>Node7</title>
<g id="a_node7"><a xlink:href="classcie_1_1geo_1_1Object.html" target="_top" xlink:title="Interface for point&#45;queriable objects.">
<polygon fill="white" stroke="black" points="122.5,-1117.5 122.5,-1229.5 250.5,-1229.5 250.5,-1117.5 122.5,-1117.5"/>
<text text-anchor="start" x="130.5" y="-1217.5" font-family="Helvetica,sans-Serif" font-size="10.00">cie::geo::Object&lt; N,</text>
<text text-anchor="middle" x="186.5" y="-1206.5" font-family="Helvetica,sans-Serif" font-size="10.00"> TValue, TCoordinate &gt;</text>
<polyline fill="none" stroke="black" points="122.5,-1199.5 250.5,-1199.5 "/>
<text text-anchor="middle" x="186.5" y="-1187.5" font-family="Helvetica,sans-Serif" font-size="10.00"> </text>
<polyline fill="none" stroke="black" points="122.5,-1180.5 250.5,-1180.5 "/>
<text text-anchor="start" x="130.5" y="-1168.5" font-family="Helvetica,sans-Serif" font-size="10.00">+ ~Object()</text>
<text text-anchor="start" x="130.5" y="-1157.5" font-family="Helvetica,sans-Serif" font-size="10.00">+ evaluate()</text>
<text text-anchor="start" x="130.5" y="-1146.5" font-family="Helvetica,sans-Serif" font-size="10.00">+ evaluate()</text>
<text text-anchor="start" x="130.5" y="-1135.5" font-family="Helvetica,sans-Serif" font-size="10.00">+ evaluate()</text>
<text text-anchor="start" x="130.5" y="-1124.5" font-family="Helvetica,sans-Serif" font-size="10.00">+ at()</text>
</a>
</g>
</g>
<!-- Node5&#45;&gt;Node7 -->
<g id="edge7" class="edge">
<title>Node5&#45;&gt;Node7</title>
<path fill="none" stroke="midnightblue" d="M186.5,-1257.31C186.5,-1248.45 186.5,-1239.01 186.5,-1229.79"/>
<polygon fill="none" stroke="midnightblue" points="183,-1257.39 186.5,-1267.39 190,-1257.4 183,-1257.39"/>
</g>
<!-- Node10 -->
<g id="node10" class="node">
<title>Node10</title>
<g id="a_node10"><a xlink:href="classcie_1_1geo_1_1Object.html" target="_top" xlink:title=" ">
<polygon fill="white" stroke="black" points="177.5,-946.5 177.5,-1058.5 339.5,-1058.5 339.5,-946.5 177.5,-946.5"/>
<text text-anchor="start" x="185.5" y="-1046.5" font-family="Helvetica,sans-Serif" font-size="10.00">cie::geo::Object&lt; Dimension,</text>
<text text-anchor="middle" x="258.5" y="-1035.5" font-family="Helvetica,sans-Serif" font-size="10.00"> ValueType, CoordinateType &gt;</text>
<polyline fill="none" stroke="black" points="177.5,-1028.5 339.5,-1028.5 "/>
<text text-anchor="middle" x="258.5" y="-1016.5" font-family="Helvetica,sans-Serif" font-size="10.00"> </text>
<polyline fill="none" stroke="black" points="177.5,-1009.5 339.5,-1009.5 "/>
<text text-anchor="start" x="185.5" y="-997.5" font-family="Helvetica,sans-Serif" font-size="10.00">+ ~Object()</text>
<text text-anchor="start" x="185.5" y="-986.5" font-family="Helvetica,sans-Serif" font-size="10.00">+ evaluate()</text>
<text text-anchor="start" x="185.5" y="-975.5" font-family="Helvetica,sans-Serif" font-size="10.00">+ evaluate()</text>
<text text-anchor="start" x="185.5" y="-964.5" font-family="Helvetica,sans-Serif" font-size="10.00">+ evaluate()</text>
<text text-anchor="start" x="185.5" y="-953.5" font-family="Helvetica,sans-Serif" font-size="10.00">+ at()</text>
</a>
</g>
</g>
<!-- Node5&#45;&gt;Node10 -->
<g id="edge11" class="edge">
<title>Node5&#45;&gt;Node10</title>
<path fill="none" stroke="midnightblue" d="M233.78,-1260.09C272.98,-1222.95 325.28,-1163.94 344.5,-1099 348.84,-1084.35 344.7,-1070.7 336.3,-1058.56"/>
<polygon fill="none" stroke="midnightblue" points="231.06,-1257.84 226.13,-1267.22 235.83,-1262.96 231.06,-1257.84"/>
</g>
<!-- Node6 -->
<g id="node6" class="node">
<title>Node6</title>
<g id="a_node6"><a xlink:href="classcie_1_1geo_1_1Traits.html" target="_top" xlink:title="Basic templated traits that every object has in GEO.">
<polygon fill="white" stroke="black" points="125.5,-1383.5 125.5,-1451.5 247.5,-1451.5 247.5,-1383.5 125.5,-1383.5"/>
<text text-anchor="start" x="133.5" y="-1439.5" font-family="Helvetica,sans-Serif" font-size="10.00">cie::geo::Traits&lt; Dim,</text>
<text text-anchor="middle" x="186.5" y="-1428.5" font-family="Helvetica,sans-Serif" font-size="10.00"> TCoordinate &gt;</text>
<polyline fill="none" stroke="black" points="125.5,-1421.5 247.5,-1421.5 "/>
<text text-anchor="start" x="133.5" y="-1409.5" font-family="Helvetica,sans-Serif" font-size="10.00">+ Dimension</text>
<polyline fill="none" stroke="black" points="125.5,-1402.5 247.5,-1402.5 "/>
<text text-anchor="middle" x="186.5" y="-1390.5" font-family="Helvetica,sans-Serif" font-size="10.00"> </text>
</a>
</g>
</g>
<!-- Node6&#45;&gt;Node5 -->
<g id="edge5" class="edge">
<title>Node6&#45;&gt;Node5</title>
<path fill="none" stroke="orange" d="M186.5,-1373.06C186.5,-1360.64 186.5,-1347.32 186.5,-1335.62"/>
<polygon fill="orange" stroke="orange" points="183,-1373.22 186.5,-1383.22 190,-1373.22 183,-1373.22"/>
<text text-anchor="middle" x="235.5" y="-1357" font-family="Helvetica,sans-Serif" font-size="10.00"> &lt; N, TCoordinate &gt;</text>
</g>
<!-- Node7&#45;&gt;Node4 -->
<g id="edge6" class="edge">
<title>Node7&#45;&gt;Node4</title>
<path fill="none" stroke="orange" d="M115.9,-1109.74C113.25,-1106.23 110.76,-1102.65 108.5,-1099 100.92,-1086.78 95.21,-1072.44 90.95,-1058.65"/>
<polygon fill="orange" stroke="orange" points="113.37,-1112.18 122.37,-1117.77 118.82,-1107.79 113.37,-1112.18"/>
<text text-anchor="start" x="108.5" y="-1091" font-family="Helvetica,sans-Serif" font-size="10.00"> &lt; Dimension, Bool,</text>
<text text-anchor="middle" x="157.5" y="-1080" font-family="Helvetica,sans-Serif" font-size="10.00"> Double &gt;</text>
</g>
<!-- Node7&#45;&gt;Node10 -->
<g id="edge12" class="edge">
<title>Node7&#45;&gt;Node10</title>
<path fill="none" stroke="orange" d="M206.45,-1107.83C210.16,-1097.41 214.22,-1086.82 218.5,-1077 221.11,-1071.01 224.04,-1064.85 227.09,-1058.77"/>
<polygon fill="orange" stroke="orange" points="203.13,-1106.74 203.16,-1117.33 209.74,-1109.04 203.13,-1106.74"/>
<text text-anchor="start" x="218.5" y="-1091" font-family="Helvetica,sans-Serif" font-size="10.00"> &lt; Dimension, ValueType,</text>
<text text-anchor="middle" x="281.5" y="-1080" font-family="Helvetica,sans-Serif" font-size="10.00"> CoordinateType &gt;</text>
</g>
<!-- Node8 -->
<g id="node8" class="node">
<title>Node8</title>
<g id="a_node8"><a xlink:href="classcie_1_1geo_1_1BinaryOperator.html" target="_top" xlink:title=" ">
<polygon fill="white" stroke="black" points="137,-354.5 137,-510.5 276,-510.5 276,-354.5 137,-354.5"/>
<text text-anchor="start" x="145" y="-498.5" font-family="Helvetica,sans-Serif" font-size="10.00">cie::geo::BinaryOperator</text>
<text text-anchor="start" x="145" y="-487.5" font-family="Helvetica,sans-Serif" font-size="10.00">&lt; Dimension, ValueType,</text>
<text text-anchor="middle" x="206.5" y="-476.5" font-family="Helvetica,sans-Serif" font-size="10.00"> CoordinateType &gt;</text>
<polyline fill="none" stroke="black" points="137,-469.5 276,-469.5 "/>
<text text-anchor="start" x="145" y="-457.5" font-family="Helvetica,sans-Serif" font-size="10.00">+ lhs</text>
<text text-anchor="start" x="145" y="-446.5" font-family="Helvetica,sans-Serif" font-size="10.00"># _p_lhs</text>
<polyline fill="none" stroke="black" points="137,-439.5 276,-439.5 "/>
<text text-anchor="start" x="145" y="-427.5" font-family="Helvetica,sans-Serif" font-size="10.00">+ BinaryOperator()</text>
<text text-anchor="start" x="145" y="-416.5" font-family="Helvetica,sans-Serif" font-size="10.00">+ BinaryOperator()</text>
<text text-anchor="start" x="145" y="-405.5" font-family="Helvetica,sans-Serif" font-size="10.00">+ BinaryOperator()</text>
<text text-anchor="start" x="145" y="-394.5" font-family="Helvetica,sans-Serif" font-size="10.00">+ operator=()</text>
<text text-anchor="start" x="145" y="-383.5" font-family="Helvetica,sans-Serif" font-size="10.00">+ bindLhs()</text>
<text text-anchor="start" x="145" y="-372.5" font-family="Helvetica,sans-Serif" font-size="10.00">+ lhs()</text>
<text text-anchor="start" x="145" y="-361.5" font-family="Helvetica,sans-Serif" font-size="10.00">+ at()</text>
</a>
</g>
</g>
<!-- Node8&#45;&gt;Node2 -->
<g id="edge8" class="edge">
<title>Node8&#45;&gt;Node2</title>
<path fill="none" stroke="orange" d="M170.12,-344.73C163.29,-328.45 156.23,-311.6 149.62,-295.84"/>
<polygon fill="orange" stroke="orange" points="167.01,-346.37 174.1,-354.23 173.47,-343.66 167.01,-346.37"/>
<text text-anchor="start" x="166.5" y="-328" font-family="Helvetica,sans-Serif" font-size="10.00"> &lt; Dimension, Bool,</text>
<text text-anchor="middle" x="215.5" y="-317" font-family="Helvetica,sans-Serif" font-size="10.00"> CoordinateType &gt;</text>
</g>
<!-- Node9&#45;&gt;Node8 -->
<g id="edge9" class="edge">
<title>Node9&#45;&gt;Node8</title>
<path fill="none" stroke="midnightblue" d="M209.31,-538.21C209.06,-529.1 208.81,-519.83 208.57,-510.77"/>
<polygon fill="none" stroke="midnightblue" points="205.81,-538.53 209.58,-548.43 212.81,-538.34 205.81,-538.53"/>
</g>
<!-- Node10&#45;&gt;Node9 -->
<g id="edge10" class="edge">
<title>Node10&#45;&gt;Node9</title>
<path fill="none" stroke="midnightblue" d="M259.53,-935.97C259.31,-876.89 256.11,-787.9 241.5,-712 240.35,-706.02 238.9,-699.88 237.27,-693.77"/>
<polygon fill="none" stroke="midnightblue" points="256.03,-936.28 259.54,-946.28 263.03,-936.27 256.03,-936.28"/>
</g>
</g>
</svg>
        <g id="navigator" transform="translate(0 0)" fill="#404254">
                <rect fill="#f2f5e9" fill-opacity="0.5" stroke="#606060" stroke-width=".5" x="0" y="0" width="60" height="60"/>
                <use id="zoomplus" xlink:href="#zoomPlus" x="17" y="9" onmousedown="handleZoom(evt,'in')"/>
                <use id="zoomminus" xlink:href="#zoomMin" x="42" y="9" onmousedown="handleZoom(evt,'out')"/>
                <use id="reset" xlink:href="#resetDef" x="30" y="36" onmousedown="handleReset()"/>
                <g id="arrowUp" xlink:href="#dirArrow" transform="translate(30 24)" onmousedown="handlePan(0,-1)">
                  <use xlink:href="#rim" fill="#404040">
                        <set attributeName="fill" to="#808080" begin="arrowUp.mouseover" end="arrowUp.mouseout"/>
                  </use>
                  <path fill="none" stroke="white" stroke-width="1.5" d="M0,-3.0v7 M-2.5,-0.5L0,-3.0L2.5,-0.5"/>
                </g>
                <g id="arrowRight" xlink:href="#dirArrow" transform="rotate(90) translate(36 -43)" onmousedown="handlePan(1,0)">
                  <use xlink:href="#rim" fill="#404040">
                        <set attributeName="fill" to="#808080" begin="arrowRight.mouseover" end="arrowRight.mouseout"/>
                  </use>
                  <path fill="none" stroke="white" stroke-width="1.5" d="M0,-3.0v7 M-2.5,-0.5L0,-3.0L2.5,-0.5"/>
                </g>
                <g id="arrowDown" xlink:href="#dirArrow" transform="rotate(180) translate(-30 -48)" onmousedown="handlePan(0,1)">
                  <use xlink:href="#rim" fill="#404040">
                        <set attributeName="fill" to="#808080" begin="arrowDown.mouseover" end="arrowDown.mouseout"/>
                  </use>
                  <path fill="none" stroke="white" stroke-width="1.5" d="M0,-3.0v7 M-2.5,-0.5L0,-3.0L2.5,-0.5"/>
                </g>
                <g id="arrowLeft" xlink:href="#dirArrow" transform="rotate(270) translate(-36 17)" onmousedown="handlePan(-1,0)">
                  <use xlink:href="#rim" fill="#404040">
                        <set attributeName="fill" to="#808080" begin="arrowLeft.mouseover" end="arrowLeft.mouseout"/>
                  </use>
                  <path fill="none" stroke="white" stroke-width="1.5" d="M0,-3.0v7 M-2.5,-0.5L0,-3.0L2.5,-0.5"/>
                </g>
        </g>
        <svg viewBox="0 0 15 15" width="100%" height="30px" preserveAspectRatio="xMaxYMin meet">
         <g id="arrow_out" transform="scale(0.3 0.3)">
          <a xlink:href="classcie_1_1geo_1_1Subtraction__inherit__graph_org.svg" target="_base">
           <rect id="button" ry="5" rx="5" y="6" x="6" height="38" width="38"
                fill="#f2f5e9" fill-opacity="0.5" stroke="#606060" stroke-width="1.0"/>
           <path id="arrow"
             d="M 11.500037,31.436501 C 11.940474,20.09759 22.043105,11.32322 32.158766,21.979434 L 37.068811,17.246167 C 37.068811,17.246167 37.088388,32 37.088388,32 L 22.160133,31.978069 C 22.160133,31.978069 26.997745,27.140456 26.997745,27.140456 C 18.528582,18.264221 13.291696,25.230495 11.500037,31.436501 z"
             style="fill:#404040;"/>
          </a>
         </g>
        </svg>
</svg>
