<?xml version="1.0" encoding="UTF-8" standalone="no"?>
<!DOCTYPE svg PUBLIC "-//W3C//DTD SVG 1.1//EN"
 "http://www.w3.org/Graphics/SVG/1.1/DTD/svg11.dtd">
<!-- Generated by graphviz version 2.43.0 (0)
 -->
<!-- Title: cie::geo::AABBox&lt; Dimension, CoordinateType &gt; Pages: 1 -->
<!--zoomable 1318 -->
<svg id="main" version="1.1" xmlns="http://www.w3.org/2000/svg" xmlns:xlink="http://www.w3.org/1999/xlink" xml:space="preserve" onload="init(evt)">
<style type="text/css"><![CDATA[
.edge:hover path { stroke: red; }
.edge:hover polygon { stroke: red; fill: red; }
]]></style>
<script type="text/javascript"><![CDATA[
var edges = document.getElementsByTagName('g');
if (edges && edges.length) {
  for (var i=0;i<edges.length;i++) {
    if (edges[i].id.substr(0,4)=='edge') {
      edges[i].setAttribute('class','edge');
    }
  }
}
]]></script>
        <defs>
                <circle id="rim" cx="0" cy="0" r="7"/>
                <circle id="rim2" cx="0" cy="0" r="3.5"/>
                <g id="zoomPlus">
                        <use xlink:href="#rim" fill="#404040">
                                <set attributeName="fill" to="#808080" begin="zoomplus.mouseover" end="zoomplus.mouseout"/>
                        </use>
                        <path d="M-4,0h8M0,-4v8" fill="none" stroke="white" stroke-width="1.5" pointer-events="none"/>
                </g>
                <g id="zoomMin">
                        <use xlink:href="#rim" fill="#404040">
                                <set attributeName="fill" to="#808080" begin="zoomminus.mouseover" end="zoomminus.mouseout"/>
                        </use>
                        <path d="M-4,0h8" fill="none" stroke="white" stroke-width="1.5" pointer-events="none"/>
                </g>
                <g id="dirArrow">
                        <path fill="none" stroke="white" stroke-width="1.5" d="M0,-3.0v7 M-2.5,-0.5L0,-3.0L2.5,-0.5"/>
                </g>
               <g id="resetDef">
                       <use xlink:href="#rim2" fill="#404040">
                               <set attributeName="fill" to="#808080" begin="reset.mouseover" end="reset.mouseout"/>
                       </use>
               </g>
        </defs>

<script type="text/javascript">
var viewWidth = 576;
var viewHeight = 1318;
var sectionId = 'dynsection-1';
</script>
<script xlink:href="svgpan.js"/>
<svg id="graph" class="graph">
<g id="viewport">
<title>cie::geo::AABBox&lt; Dimension, CoordinateType &gt;</title>
<polygon fill="white" stroke="transparent" points="-4,4 -4,-1314 572,-1314 572,4 -4,4"/>
<!-- Node1 -->
<g id="node1" class="node">
<title>Node1</title>
<g id="a_node1"><a xlink:title=" ">
<polygon fill="#bfbfbf" stroke="black" points="212,-0.5 212,-134.5 379,-134.5 379,-0.5 212,-0.5"/>
<text text-anchor="start" x="220" y="-122.5" font-family="Helvetica,sans-Serif" font-size="10.00">cie::geo::AABBox&lt; Dimension,</text>
<text text-anchor="middle" x="295.5" y="-111.5" font-family="Helvetica,sans-Serif" font-size="10.00"> CoordinateType &gt;</text>
<polyline fill="none" stroke="black" points="212,-104.5 379,-104.5 "/>
<text text-anchor="middle" x="295.5" y="-92.5" font-family="Helvetica,sans-Serif" font-size="10.00"> </text>
<polyline fill="none" stroke="black" points="212,-85.5 379,-85.5 "/>
<text text-anchor="start" x="220" y="-73.5" font-family="Helvetica,sans-Serif" font-size="10.00">+ AABBox()</text>
<text text-anchor="start" x="220" y="-62.5" font-family="Helvetica,sans-Serif" font-size="10.00">+ AABBox()</text>
<text text-anchor="start" x="220" y="-51.5" font-family="Helvetica,sans-Serif" font-size="10.00">+ AABBox()</text>
<text text-anchor="start" x="220" y="-40.5" font-family="Helvetica,sans-Serif" font-size="10.00">+ operator=()</text>
<text text-anchor="start" x="220" y="-29.5" font-family="Helvetica,sans-Serif" font-size="10.00">+ contains()</text>
<text text-anchor="start" x="220" y="-18.5" font-family="Helvetica,sans-Serif" font-size="10.00">+ intersects()</text>
<text text-anchor="start" x="220" y="-7.5" font-family="Helvetica,sans-Serif" font-size="10.00">+ include()</text>
</a>
</g>
</g>
<!-- Node2 -->
<g id="node2" class="node">
<title>Node2</title>
<g id="a_node2"><a xlink:href="classcie_1_1geo_1_1boolean_1_1Box.html" target="_top" xlink:title=" ">
<polygon fill="white" stroke="black" points="220,-172.5 220,-262.5 371,-262.5 371,-172.5 220,-172.5"/>
<text text-anchor="start" x="228" y="-250.5" font-family="Helvetica,sans-Serif" font-size="10.00">cie::geo::boolean::</text>
<text text-anchor="middle" x="295.5" y="-239.5" font-family="Helvetica,sans-Serif" font-size="10.00">Box&lt; Dimension, Double &gt;</text>
<polyline fill="none" stroke="black" points="220,-232.5 371,-232.5 "/>
<text text-anchor="middle" x="295.5" y="-220.5" font-family="Helvetica,sans-Serif" font-size="10.00"> </text>
<polyline fill="none" stroke="black" points="220,-213.5 371,-213.5 "/>
<text text-anchor="start" x="228" y="-201.5" font-family="Helvetica,sans-Serif" font-size="10.00">+ Box()</text>
<text text-anchor="start" x="228" y="-190.5" font-family="Helvetica,sans-Serif" font-size="10.00">+ Box()</text>
<text text-anchor="start" x="228" y="-179.5" font-family="Helvetica,sans-Serif" font-size="10.00"># at()</text>
</a>
</g>
</g>
<!-- Node2&#45;&gt;Node1 -->
<g id="edge1" class="edge">
<title>Node2&#45;&gt;Node1</title>
<path fill="none" stroke="midnightblue" d="M295.5,-162.46C295.5,-153.38 295.5,-143.87 295.5,-134.53"/>
<polygon fill="none" stroke="midnightblue" points="292,-162.5 295.5,-172.5 299,-162.5 292,-162.5"/>
</g>
<!-- Node3 -->
<g id="node3" class="node">
<title>Node3</title>
<g id="a_node3"><a xlink:href="classcie_1_1geo_1_1Box.html" target="_top" xlink:title=" ">
<polygon fill="white" stroke="black" points="67.5,-449.5 67.5,-616.5 213.5,-616.5 213.5,-449.5 67.5,-449.5"/>
<text text-anchor="start" x="75.5" y="-604.5" font-family="Helvetica,sans-Serif" font-size="10.00">cie::geo::Box&lt; Dimension,</text>
<text text-anchor="middle" x="140.5" y="-593.5" font-family="Helvetica,sans-Serif" font-size="10.00"> CoordinateType &gt;</text>
<polyline fill="none" stroke="black" points="67.5,-586.5 213.5,-586.5 "/>
<text text-anchor="middle" x="140.5" y="-574.5" font-family="Helvetica,sans-Serif" font-size="10.00"> </text>
<polyline fill="none" stroke="black" points="67.5,-567.5 213.5,-567.5 "/>
<text text-anchor="start" x="75.5" y="-555.5" font-family="Helvetica,sans-Serif" font-size="10.00">+ Box()</text>
<text text-anchor="start" x="75.5" y="-544.5" font-family="Helvetica,sans-Serif" font-size="10.00">+ Box()</text>
<text text-anchor="start" x="75.5" y="-533.5" font-family="Helvetica,sans-Serif" font-size="10.00">+ Box()</text>
<text text-anchor="start" x="75.5" y="-522.5" font-family="Helvetica,sans-Serif" font-size="10.00">+ Box()</text>
<text text-anchor="start" x="75.5" y="-511.5" font-family="Helvetica,sans-Serif" font-size="10.00">+ operator=()</text>
<text text-anchor="start" x="75.5" y="-500.5" font-family="Helvetica,sans-Serif" font-size="10.00">+ isDegenerate()</text>
<text text-anchor="start" x="75.5" y="-489.5" font-family="Helvetica,sans-Serif" font-size="10.00">+ base()</text>
<text text-anchor="start" x="75.5" y="-478.5" font-family="Helvetica,sans-Serif" font-size="10.00">+ lengths()</text>
<text text-anchor="start" x="75.5" y="-467.5" font-family="Helvetica,sans-Serif" font-size="10.00">+ base()</text>
<text text-anchor="start" x="75.5" y="-456.5" font-family="Helvetica,sans-Serif" font-size="10.00">+ lengths()</text>
</a>
</g>
</g>
<!-- Node3&#45;&gt;Node2 -->
<g id="edge2" class="edge">
<title>Node3&#45;&gt;Node2</title>
<path fill="none" stroke="midnightblue" d="M158.05,-439.53C168.47,-398.05 184.3,-349.65 207.5,-310 217.41,-293.07 231.06,-276.85 244.66,-262.9"/>
<polygon fill="none" stroke="midnightblue" points="154.62,-438.83 155.65,-449.37 161.42,-440.49 154.62,-438.83"/>
</g>
<!-- Node14 -->
<g id="node14" class="node">
<title>Node14</title>
<g id="a_node14"><a xlink:href="classcie_1_1geo_1_1boolean_1_1Box.html" target="_top" xlink:title=" ">
<polygon fill="white" stroke="black" points="216.5,-310.5 216.5,-411.5 374.5,-411.5 374.5,-310.5 216.5,-310.5"/>
<text text-anchor="start" x="224.5" y="-399.5" font-family="Helvetica,sans-Serif" font-size="10.00">cie::geo::boolean::</text>
<text text-anchor="start" x="224.5" y="-388.5" font-family="Helvetica,sans-Serif" font-size="10.00">Box&lt; Dimension, Coordinate</text>
<text text-anchor="middle" x="295.5" y="-377.5" font-family="Helvetica,sans-Serif" font-size="10.00">Type &gt;</text>
<polyline fill="none" stroke="black" points="216.5,-370.5 374.5,-370.5 "/>
<text text-anchor="middle" x="295.5" y="-358.5" font-family="Helvetica,sans-Serif" font-size="10.00"> </text>
<polyline fill="none" stroke="black" points="216.5,-351.5 374.5,-351.5 "/>
<text text-anchor="start" x="224.5" y="-339.5" font-family="Helvetica,sans-Serif" font-size="10.00">+ Box()</text>
<text text-anchor="start" x="224.5" y="-328.5" font-family="Helvetica,sans-Serif" font-size="10.00">+ Box()</text>
<text text-anchor="start" x="224.5" y="-317.5" font-family="Helvetica,sans-Serif" font-size="10.00"># at()</text>
</a>
</g>
</g>
<!-- Node3&#45;&gt;Node14 -->
<g id="edge17" class="edge">
<title>Node3&#45;&gt;Node14</title>
<path fill="none" stroke="midnightblue" d="M220.88,-443.85C230.93,-432.82 240.91,-421.87 250.16,-411.73"/>
<polygon fill="none" stroke="midnightblue" points="218.07,-441.73 213.91,-451.48 223.24,-446.45 218.07,-441.73"/>
</g>
<!-- Node4 -->
<g id="node4" class="node">
<title>Node4</title>
<g id="a_node4"><a xlink:href="classcie_1_1geo_1_1AbsPrimitive.html" target="_top" xlink:title=" ">
<polygon fill="white" stroke="black" points="44.5,-692 44.5,-771 176.5,-771 176.5,-692 44.5,-692"/>
<text text-anchor="start" x="52.5" y="-759" font-family="Helvetica,sans-Serif" font-size="10.00">cie::geo::AbsPrimitive</text>
<text text-anchor="middle" x="110.5" y="-748" font-family="Helvetica,sans-Serif" font-size="10.00">&lt; Dimension, Double &gt;</text>
<polyline fill="none" stroke="black" points="44.5,-741 176.5,-741 "/>
<text text-anchor="middle" x="110.5" y="-729" font-family="Helvetica,sans-Serif" font-size="10.00"> </text>
<polyline fill="none" stroke="black" points="44.5,-722 176.5,-722 "/>
<text text-anchor="start" x="52.5" y="-710" font-family="Helvetica,sans-Serif" font-size="10.00">+ ~AbsPrimitive()</text>
<text text-anchor="start" x="52.5" y="-699" font-family="Helvetica,sans-Serif" font-size="10.00">+ isDegenerate()</text>
</a>
</g>
</g>
<!-- Node4&#45;&gt;Node3 -->
<g id="edge3" class="edge">
<title>Node4&#45;&gt;Node3</title>
<path fill="none" stroke="midnightblue" d="M117.94,-681.74C120.95,-662.06 124.5,-638.8 127.89,-616.62"/>
<polygon fill="none" stroke="midnightblue" points="114.48,-681.26 116.43,-691.68 121.4,-682.32 114.48,-681.26"/>
</g>
<!-- Node5 -->
<g id="node5" class="node">
<title>Node5</title>
<g id="a_node5"><a xlink:href="classcie_1_1geo_1_1Traits.html" target="_top" xlink:title=" ">
<polygon fill="white" stroke="black" points="144.5,-933.5 144.5,-1001.5 298.5,-1001.5 298.5,-933.5 144.5,-933.5"/>
<text text-anchor="start" x="152.5" y="-989.5" font-family="Helvetica,sans-Serif" font-size="10.00">cie::geo::Traits&lt; Dimension,</text>
<text text-anchor="middle" x="221.5" y="-978.5" font-family="Helvetica,sans-Serif" font-size="10.00"> CoordinateType &gt;</text>
<polyline fill="none" stroke="black" points="144.5,-971.5 298.5,-971.5 "/>
<text text-anchor="start" x="152.5" y="-959.5" font-family="Helvetica,sans-Serif" font-size="10.00">+ Dimension</text>
<polyline fill="none" stroke="black" points="144.5,-952.5 298.5,-952.5 "/>
<text text-anchor="middle" x="221.5" y="-940.5" font-family="Helvetica,sans-Serif" font-size="10.00"> </text>
</a>
</g>
</g>
<!-- Node5&#45;&gt;Node4 -->
<g id="edge4" class="edge">
<title>Node5&#45;&gt;Node4</title>
<path fill="none" stroke="midnightblue" d="M226.89,-923.12C229.03,-889.15 227.29,-841.83 207.5,-806 205.99,-803.27 185.27,-787.44 163.36,-771.17"/>
<polygon fill="none" stroke="midnightblue" points="223.39,-922.96 226.11,-933.2 230.37,-923.5 223.39,-922.96"/>
</g>
<!-- Node6 -->
<g id="node6" class="node">
<title>Node6</title>
<g id="a_node6"><a xlink:href="classcie_1_1geo_1_1Traits.html" target="_top" xlink:title="Basic templated traits that every object has in GEO.">
<polygon fill="white" stroke="black" points="160.5,-1136.5 160.5,-1204.5 282.5,-1204.5 282.5,-1136.5 160.5,-1136.5"/>
<text text-anchor="start" x="168.5" y="-1192.5" font-family="Helvetica,sans-Serif" font-size="10.00">cie::geo::Traits&lt; Dim,</text>
<text text-anchor="middle" x="221.5" y="-1181.5" font-family="Helvetica,sans-Serif" font-size="10.00"> TCoordinate &gt;</text>
<polyline fill="none" stroke="black" points="160.5,-1174.5 282.5,-1174.5 "/>
<text text-anchor="middle" x="221.5" y="-1162.5" font-family="Helvetica,sans-Serif" font-size="10.00"> </text>
<polyline fill="none" stroke="black" points="160.5,-1155.5 282.5,-1155.5 "/>
<text text-anchor="middle" x="221.5" y="-1143.5" font-family="Helvetica,sans-Serif" font-size="10.00"> </text>
</a>
</g>
</g>
<!-- Node6&#45;&gt;Node5 -->
<g id="edge5" class="edge">
<title>Node6&#45;&gt;Node5</title>
<path fill="none" stroke="orange" d="M221.5,-1126.23C221.5,-1088.91 221.5,-1035.8 221.5,-1001.74"/>
<polygon fill="orange" stroke="orange" points="218,-1126.31 221.5,-1136.31 225,-1126.31 218,-1126.31"/>
<text text-anchor="middle" x="301.5" y="-1110" font-family="Helvetica,sans-Serif" font-size="10.00"> &lt; Dimension, CoordinateType &gt;</text>
</g>
<!-- Node9 -->
<g id="node9" class="node">
<title>Node9</title>
<g id="a_node9"><a xlink:href="classcie_1_1geo_1_1Traits.html" target="_top" xlink:title=" ">
<polygon fill="white" stroke="black" points="3.5,-1020.5 3.5,-1088.5 157.5,-1088.5 157.5,-1020.5 3.5,-1020.5"/>
<text text-anchor="start" x="11.5" y="-1076.5" font-family="Helvetica,sans-Serif" font-size="10.00">cie::geo::Traits&lt; Dimension,</text>
<text text-anchor="middle" x="80.5" y="-1065.5" font-family="Helvetica,sans-Serif" font-size="10.00"> Double &gt;</text>
<polyline fill="none" stroke="black" points="3.5,-1058.5 157.5,-1058.5 "/>
<text text-anchor="start" x="11.5" y="-1046.5" font-family="Helvetica,sans-Serif" font-size="10.00">+ Dimension</text>
<polyline fill="none" stroke="black" points="3.5,-1039.5 157.5,-1039.5 "/>
<text text-anchor="middle" x="80.5" y="-1027.5" font-family="Helvetica,sans-Serif" font-size="10.00"> </text>
</a>
</g>
</g>
<!-- Node6&#45;&gt;Node9 -->
<g id="edge9" class="edge">
<title>Node6&#45;&gt;Node9</title>
<path fill="none" stroke="orange" d="M150.26,-1160.75C123.89,-1153.67 96.53,-1140.91 80.5,-1118 74.59,-1109.55 73.07,-1098.77 73.49,-1088.54"/>
<polygon fill="orange" stroke="orange" points="149.76,-1164.23 160.3,-1163.2 151.41,-1157.43 149.76,-1164.23"/>
<text text-anchor="middle" x="140" y="-1110" font-family="Helvetica,sans-Serif" font-size="10.00"> &lt; Dimension, Double &gt;</text>
</g>
<!-- Node12 -->
<g id="node12" class="node">
<title>Node12</title>
<g id="a_node12"><a xlink:href="classcie_1_1geo_1_1Traits.html" target="_top" xlink:title=" ">
<polygon fill="white" stroke="black" points="342,-841 342,-909 451,-909 451,-841 342,-841"/>
<text text-anchor="start" x="350" y="-897" font-family="Helvetica,sans-Serif" font-size="10.00">cie::geo::Traits&lt; N,</text>
<text text-anchor="middle" x="396.5" y="-886" font-family="Helvetica,sans-Serif" font-size="10.00"> TCoordinate &gt;</text>
<polyline fill="none" stroke="black" points="342,-879 451,-879 "/>
<text text-anchor="start" x="350" y="-867" font-family="Helvetica,sans-Serif" font-size="10.00">+ Dimension</text>
<polyline fill="none" stroke="black" points="342,-860 451,-860 "/>
<text text-anchor="middle" x="396.5" y="-848" font-family="Helvetica,sans-Serif" font-size="10.00"> </text>
</a>
</g>
</g>
<!-- Node6&#45;&gt;Node12 -->
<g id="edge13" class="edge">
<title>Node6&#45;&gt;Node12</title>
<path fill="none" stroke="orange" d="M292.7,-1164.64C325.26,-1158.51 361.23,-1145.43 382.5,-1118 429.56,-1057.3 416.64,-960.16 405.34,-909.38"/>
<polygon fill="orange" stroke="orange" points="292,-1161.21 282.72,-1166.33 293.17,-1168.11 292,-1161.21"/>
<text text-anchor="middle" x="463.5" y="-1052" font-family="Helvetica,sans-Serif" font-size="10.00"> &lt; N, TCoordinate &gt;</text>
</g>
<!-- Node7 -->
<g id="node7" class="node">
<title>Node7</title>
<g id="a_node7"><a xlink:title=" ">
<polygon fill="white" stroke="#bfbfbf" points="199,-1252.5 199,-1309.5 244,-1309.5 244,-1252.5 199,-1252.5"/>
<text text-anchor="middle" x="221.5" y="-1297.5" font-family="Helvetica,sans-Serif" font-size="10.00">size_t</text>
<polyline fill="none" stroke="#bfbfbf" points="199,-1290.5 244,-1290.5 "/>
<text text-anchor="middle" x="221.5" y="-1278.5" font-family="Helvetica,sans-Serif" font-size="10.00"> </text>
<polyline fill="none" stroke="#bfbfbf" points="199,-1271.5 244,-1271.5 "/>
<text text-anchor="middle" x="221.5" y="-1259.5" font-family="Helvetica,sans-Serif" font-size="10.00"> </text>
</a>
</g>
</g>
<!-- Node7&#45;&gt;Node6 -->
<g id="edge6" class="edge">
<title>Node7&#45;&gt;Node6</title>
<path fill="none" stroke="#404040" d="M221.5,-1252.34C221.5,-1241.53 221.5,-1228.85 221.5,-1216.77"/>
<polygon fill="none" stroke="#404040" points="221.5,-1216.52 217.5,-1210.52 221.5,-1204.52 225.5,-1210.52 221.5,-1216.52"/>
<text text-anchor="middle" x="253.5" y="-1226" font-family="Helvetica,sans-Serif" font-size="10.00"> +Dimension</text>
</g>
<!-- Node8 -->
<g id="node8" class="node">
<title>Node8</title>
<g id="a_node8"><a xlink:href="classcie_1_1geo_1_1AbsPrimitive.html" target="_top" xlink:title=" ">
<polygon fill="white" stroke="black" points="0,-835.5 0,-914.5 173,-914.5 173,-835.5 0,-835.5"/>
<text text-anchor="start" x="8" y="-902.5" font-family="Helvetica,sans-Serif" font-size="10.00">cie::geo::AbsPrimitive</text>
<text text-anchor="middle" x="86.5" y="-891.5" font-family="Helvetica,sans-Serif" font-size="10.00">&lt; Dimension, CoordinateType &gt;</text>
<polyline fill="none" stroke="black" points="0,-884.5 173,-884.5 "/>
<text text-anchor="middle" x="86.5" y="-872.5" font-family="Helvetica,sans-Serif" font-size="10.00"> </text>
<polyline fill="none" stroke="black" points="0,-865.5 173,-865.5 "/>
<text text-anchor="start" x="8" y="-853.5" font-family="Helvetica,sans-Serif" font-size="10.00">+ ~AbsPrimitive()</text>
<text text-anchor="start" x="8" y="-842.5" font-family="Helvetica,sans-Serif" font-size="10.00">+ isDegenerate()</text>
</a>
</g>
</g>
<!-- Node8&#45;&gt;Node4 -->
<g id="edge7" class="edge">
<title>Node8&#45;&gt;Node4</title>
<path fill="none" stroke="orange" d="M86.39,-825.25C86.83,-818.75 87.5,-812.2 88.5,-806 90.35,-794.56 93.48,-782.41 96.81,-771.35"/>
<polygon fill="orange" stroke="orange" points="82.89,-825.19 85.89,-835.35 89.88,-825.54 82.89,-825.19"/>
<text text-anchor="middle" x="148" y="-809" font-family="Helvetica,sans-Serif" font-size="10.00"> &lt; Dimension, Double &gt;</text>
</g>
<!-- Node9&#45;&gt;Node8 -->
<g id="edge8" class="edge">
<title>Node9&#45;&gt;Node8</title>
<path fill="none" stroke="midnightblue" d="M81.98,-1009.83C82.96,-980.73 84.24,-942.83 85.19,-914.8"/>
<polygon fill="none" stroke="midnightblue" points="78.47,-1010 81.63,-1020.11 85.46,-1010.24 78.47,-1010"/>
</g>
<!-- Node10 -->
<g id="node10" class="node">
<title>Node10</title>
<g id="a_node10"><a xlink:title=" ">
<polygon fill="white" stroke="#bfbfbf" points="195,-703 195,-760 236,-760 236,-703 195,-703"/>
<text text-anchor="middle" x="215.5" y="-748" font-family="Helvetica,sans-Serif" font-size="10.00">Point</text>
<polyline fill="none" stroke="#bfbfbf" points="195,-741 236,-741 "/>
<text text-anchor="middle" x="215.5" y="-729" font-family="Helvetica,sans-Serif" font-size="10.00"> </text>
<polyline fill="none" stroke="#bfbfbf" points="195,-722 236,-722 "/>
<text text-anchor="middle" x="215.5" y="-710" font-family="Helvetica,sans-Serif" font-size="10.00"> </text>
</a>
</g>
</g>
<!-- Node10&#45;&gt;Node3 -->
<g id="edge10" class="edge">
<title>Node10&#45;&gt;Node3</title>
<path fill="none" stroke="#404040" d="M204.91,-702.76C197.39,-683.05 186.81,-655.34 176.4,-628.05"/>
<polygon fill="none" stroke="#404040" points="176.39,-628.03 170.51,-623.85 172.11,-616.82 177.99,-621 176.39,-628.03"/>
<text text-anchor="middle" x="211.5" y="-649" font-family="Helvetica,sans-Serif" font-size="10.00"> #_base</text>
<text text-anchor="middle" x="211.5" y="-638" font-family="Helvetica,sans-Serif" font-size="10.00">#_lengths</text>
</g>
<!-- Node11 -->
<g id="node11" class="node">
<title>Node11</title>
<g id="a_node11"><a xlink:href="classcie_1_1geo_1_1Object.html" target="_top" xlink:title=" ">
<polygon fill="white" stroke="black" points="409,-477 409,-589 568,-589 568,-477 409,-477"/>
<text text-anchor="start" x="417" y="-577" font-family="Helvetica,sans-Serif" font-size="10.00">cie::geo::Object&lt; Dimension,</text>
<text text-anchor="middle" x="488.5" y="-566" font-family="Helvetica,sans-Serif" font-size="10.00"> Bool, CoordinateType &gt;</text>
<polyline fill="none" stroke="black" points="409,-559 568,-559 "/>
<text text-anchor="middle" x="488.5" y="-547" font-family="Helvetica,sans-Serif" font-size="10.00"> </text>
<polyline fill="none" stroke="black" points="409,-540 568,-540 "/>
<text text-anchor="start" x="417" y="-528" font-family="Helvetica,sans-Serif" font-size="10.00">+ ~Object()</text>
<text text-anchor="start" x="417" y="-517" font-family="Helvetica,sans-Serif" font-size="10.00">+ evaluate()</text>
<text text-anchor="start" x="417" y="-506" font-family="Helvetica,sans-Serif" font-size="10.00">+ evaluate()</text>
<text text-anchor="start" x="417" y="-495" font-family="Helvetica,sans-Serif" font-size="10.00">+ evaluate()</text>
<text text-anchor="start" x="417" y="-484" font-family="Helvetica,sans-Serif" font-size="10.00">+ at()</text>
</a>
</g>
</g>
<!-- Node11&#45;&gt;Node2 -->
<g id="edge11" class="edge">
<title>Node11&#45;&gt;Node2</title>
<path fill="none" stroke="midnightblue" d="M484.72,-466.99C478.44,-412.02 461.88,-333.96 418.5,-281 405.98,-265.71 388.75,-253.79 371.16,-244.65"/>
<polygon fill="none" stroke="midnightblue" points="481.24,-467.4 485.78,-476.98 488.21,-466.67 481.24,-467.4"/>
</g>
<!-- Node12&#45;&gt;Node11 -->
<g id="edge12" class="edge">
<title>Node12&#45;&gt;Node11</title>
<path fill="none" stroke="midnightblue" d="M436.27,-833.3C472.75,-792.61 523.72,-726.27 541.5,-657 547.4,-634.03 540.18,-609.83 529.37,-589.04"/>
<polygon fill="none" stroke="midnightblue" points="433.55,-831.09 429.41,-840.84 438.73,-835.8 433.55,-831.09"/>
</g>
<!-- Node13 -->
<g id="node13" class="node">
<title>Node13</title>
<g id="a_node13"><a xlink:href="classcie_1_1geo_1_1Object.html" target="_top" xlink:title="Interface for point&#45;queriable objects.">
<polygon fill="white" stroke="black" points="332.5,-675.5 332.5,-787.5 460.5,-787.5 460.5,-675.5 332.5,-675.5"/>
<text text-anchor="start" x="340.5" y="-775.5" font-family="Helvetica,sans-Serif" font-size="10.00">cie::geo::Object&lt; N,</text>
<text text-anchor="middle" x="396.5" y="-764.5" font-family="Helvetica,sans-Serif" font-size="10.00"> TValue, TCoordinate &gt;</text>
<polyline fill="none" stroke="black" points="332.5,-757.5 460.5,-757.5 "/>
<text text-anchor="middle" x="396.5" y="-745.5" font-family="Helvetica,sans-Serif" font-size="10.00"> </text>
<polyline fill="none" stroke="black" points="332.5,-738.5 460.5,-738.5 "/>
<text text-anchor="start" x="340.5" y="-726.5" font-family="Helvetica,sans-Serif" font-size="10.00">+ ~Object()</text>
<text text-anchor="start" x="340.5" y="-715.5" font-family="Helvetica,sans-Serif" font-size="10.00">+ evaluate()</text>
<text text-anchor="start" x="340.5" y="-704.5" font-family="Helvetica,sans-Serif" font-size="10.00">+ evaluate()</text>
<text text-anchor="start" x="340.5" y="-693.5" font-family="Helvetica,sans-Serif" font-size="10.00">+ evaluate()</text>
<text text-anchor="start" x="340.5" y="-682.5" font-family="Helvetica,sans-Serif" font-size="10.00">+ at()</text>
</a>
</g>
</g>
<!-- Node12&#45;&gt;Node13 -->
<g id="edge15" class="edge">
<title>Node12&#45;&gt;Node13</title>
<path fill="none" stroke="midnightblue" d="M396.5,-830.77C396.5,-817.16 396.5,-801.94 396.5,-787.61"/>
<polygon fill="none" stroke="midnightblue" points="393,-830.82 396.5,-840.82 400,-830.82 393,-830.82"/>
</g>
<!-- Node15 -->
<g id="node15" class="node">
<title>Node15</title>
<g id="a_node15"><a xlink:href="classcie_1_1geo_1_1Object.html" target="_top" xlink:title=" ">
<polygon fill="white" stroke="black" points="232,-477 232,-589 391,-589 391,-477 232,-477"/>
<text text-anchor="start" x="240" y="-577" font-family="Helvetica,sans-Serif" font-size="10.00">cie::geo::Object&lt; Dimension,</text>
<text text-anchor="middle" x="311.5" y="-566" font-family="Helvetica,sans-Serif" font-size="10.00"> Bool, Double &gt;</text>
<polyline fill="none" stroke="black" points="232,-559 391,-559 "/>
<text text-anchor="middle" x="311.5" y="-547" font-family="Helvetica,sans-Serif" font-size="10.00"> </text>
<polyline fill="none" stroke="black" points="232,-540 391,-540 "/>
<text text-anchor="start" x="240" y="-528" font-family="Helvetica,sans-Serif" font-size="10.00">+ ~Object()</text>
<text text-anchor="start" x="240" y="-517" font-family="Helvetica,sans-Serif" font-size="10.00">+ evaluate()</text>
<text text-anchor="start" x="240" y="-506" font-family="Helvetica,sans-Serif" font-size="10.00">+ evaluate()</text>
<text text-anchor="start" x="240" y="-495" font-family="Helvetica,sans-Serif" font-size="10.00">+ evaluate()</text>
<text text-anchor="start" x="240" y="-484" font-family="Helvetica,sans-Serif" font-size="10.00">+ at()</text>
</a>
</g>
</g>
<!-- Node12&#45;&gt;Node15 -->
<g id="edge19" class="edge">
<title>Node12&#45;&gt;Node15</title>
<path fill="none" stroke="midnightblue" d="M352.71,-833.13C341.2,-819.9 330.16,-804.38 323.5,-788 297.27,-723.49 298.81,-642.03 303.85,-589.01"/>
<polygon fill="none" stroke="midnightblue" points="350.2,-835.58 359.5,-840.65 355.39,-830.89 350.2,-835.58"/>
</g>
<!-- Node13&#45;&gt;Node11 -->
<g id="edge14" class="edge">
<title>Node13&#45;&gt;Node11</title>
<path fill="none" stroke="orange" d="M426.74,-665.91C438.36,-641.1 451.5,-613.03 462.66,-589.18"/>
<polygon fill="orange" stroke="orange" points="423.44,-664.7 422.37,-675.24 429.78,-667.67 423.44,-664.7"/>
<text text-anchor="start" x="439.5" y="-649" font-family="Helvetica,sans-Serif" font-size="10.00"> &lt; Dimension, Bool,</text>
<text text-anchor="middle" x="488.5" y="-638" font-family="Helvetica,sans-Serif" font-size="10.00"> CoordinateType &gt;</text>
</g>
<!-- Node13&#45;&gt;Node15 -->
<g id="edge20" class="edge">
<title>Node13&#45;&gt;Node15</title>
<path fill="none" stroke="orange" d="M331.9,-666.98C329.91,-663.72 328.1,-660.39 326.5,-657 316.63,-636.09 312.4,-611.05 310.82,-589.04"/>
<polygon fill="orange" stroke="orange" points="329.07,-669.04 337.52,-675.44 334.9,-665.17 329.07,-669.04"/>
<text text-anchor="start" x="326.5" y="-649" font-family="Helvetica,sans-Serif" font-size="10.00"> &lt; Dimension, Bool,</text>
<text text-anchor="middle" x="375.5" y="-638" font-family="Helvetica,sans-Serif" font-size="10.00"> Double &gt;</text>
</g>
<!-- Node14&#45;&gt;Node2 -->
<g id="edge16" class="edge">
<title>Node14&#45;&gt;Node2</title>
<path fill="none" stroke="orange" d="M295.5,-299.81C295.5,-287.38 295.5,-274.5 295.5,-262.76"/>
<polygon fill="orange" stroke="orange" points="292,-300.11 295.5,-310.11 299,-300.11 292,-300.11"/>
<text text-anchor="middle" x="355" y="-284" font-family="Helvetica,sans-Serif" font-size="10.00"> &lt; Dimension, Double &gt;</text>
</g>
<!-- Node15&#45;&gt;Node14 -->
<g id="edge18" class="edge">
<title>Node15&#45;&gt;Node14</title>
<path fill="none" stroke="midnightblue" d="M305.36,-466.81C303.64,-448.54 301.8,-428.97 300.18,-411.75"/>
<polygon fill="none" stroke="midnightblue" points="301.88,-467.18 306.31,-476.81 308.85,-466.52 301.88,-467.18"/>
</g>
</g>
</svg>
        <g id="navigator" transform="translate(0 0)" fill="#404254">
                <rect fill="#f2f5e9" fill-opacity="0.5" stroke="#606060" stroke-width=".5" x="0" y="0" width="60" height="60"/>
                <use id="zoomplus" xlink:href="#zoomPlus" x="17" y="9" onmousedown="handleZoom(evt,'in')"/>
                <use id="zoomminus" xlink:href="#zoomMin" x="42" y="9" onmousedown="handleZoom(evt,'out')"/>
                <use id="reset" xlink:href="#resetDef" x="30" y="36" onmousedown="handleReset()"/>
                <g id="arrowUp" xlink:href="#dirArrow" transform="translate(30 24)" onmousedown="handlePan(0,-1)">
                  <use xlink:href="#rim" fill="#404040">
                        <set attributeName="fill" to="#808080" begin="arrowUp.mouseover" end="arrowUp.mouseout"/>
                  </use>
                  <path fill="none" stroke="white" stroke-width="1.5" d="M0,-3.0v7 M-2.5,-0.5L0,-3.0L2.5,-0.5"/>
                </g>
                <g id="arrowRight" xlink:href="#dirArrow" transform="rotate(90) translate(36 -43)" onmousedown="handlePan(1,0)">
                  <use xlink:href="#rim" fill="#404040">
                        <set attributeName="fill" to="#808080" begin="arrowRight.mouseover" end="arrowRight.mouseout"/>
                  </use>
                  <path fill="none" stroke="white" stroke-width="1.5" d="M0,-3.0v7 M-2.5,-0.5L0,-3.0L2.5,-0.5"/>
                </g>
                <g id="arrowDown" xlink:href="#dirArrow" transform="rotate(180) translate(-30 -48)" onmousedown="handlePan(0,1)">
                  <use xlink:href="#rim" fill="#404040">
                        <set attributeName="fill" to="#808080" begin="arrowDown.mouseover" end="arrowDown.mouseout"/>
                  </use>
                  <path fill="none" stroke="white" stroke-width="1.5" d="M0,-3.0v7 M-2.5,-0.5L0,-3.0L2.5,-0.5"/>
                </g>
                <g id="arrowLeft" xlink:href="#dirArrow" transform="rotate(270) translate(-36 17)" onmousedown="handlePan(-1,0)">
                  <use xlink:href="#rim" fill="#404040">
                        <set attributeName="fill" to="#808080" begin="arrowLeft.mouseover" end="arrowLeft.mouseout"/>
                  </use>
                  <path fill="none" stroke="white" stroke-width="1.5" d="M0,-3.0v7 M-2.5,-0.5L0,-3.0L2.5,-0.5"/>
                </g>
        </g>
        <svg viewBox="0 0 15 15" width="100%" height="30px" preserveAspectRatio="xMaxYMin meet">
         <g id="arrow_out" transform="scale(0.3 0.3)">
          <a xlink:href="classcie_1_1geo_1_1AABBox__coll__graph_org.svg" target="_base">
           <rect id="button" ry="5" rx="5" y="6" x="6" height="38" width="38"
                fill="#f2f5e9" fill-opacity="0.5" stroke="#606060" stroke-width="1.0"/>
           <path id="arrow"
             d="M 11.500037,31.436501 C 11.940474,20.09759 22.043105,11.32322 32.158766,21.979434 L 37.068811,17.246167 C 37.068811,17.246167 37.088388,32 37.088388,32 L 22.160133,31.978069 C 22.160133,31.978069 26.997745,27.140456 26.997745,27.140456 C 18.528582,18.264221 13.291696,25.230495 11.500037,31.436501 z"
             style="fill:#404040;"/>
          </a>
         </g>
        </svg>
</svg>
