<?xml version="1.0" encoding="UTF-8" standalone="no"?>
<!DOCTYPE svg PUBLIC "-//W3C//DTD SVG 1.1//EN"
 "http://www.w3.org/Graphics/SVG/1.1/DTD/svg11.dtd">
<!-- Generated by graphviz version 2.43.0 (0)
 -->
<!-- Title: cie::geo::AbsPrimitive&lt; Dimension, CoordinateType &gt; Pages: 1 -->
<svg width="828pt" height="1233pt"
 viewBox="0.00 0.00 828.00 1233.00" xmlns="http://www.w3.org/2000/svg" xmlns:xlink="http://www.w3.org/1999/xlink">
<g id="graph0" class="graph" transform="scale(1 1) rotate(0) translate(4 1229)">
<title>cie::geo::AbsPrimitive&lt; Dimension, CoordinateType &gt;</title>
<polygon fill="white" stroke="transparent" points="-4,4 -4,-1229 824,-1229 824,4 -4,4"/>
<!-- Node1 -->
<g id="node1" class="node">
<title>Node1</title>
<g id="a_node1"><a xlink:title=" ">
<polygon fill="#bfbfbf" stroke="black" points="263.5,-923.5 263.5,-1002.5 436.5,-1002.5 436.5,-923.5 263.5,-923.5"/>
<text text-anchor="start" x="271.5" y="-990.5" font-family="Helvetica,sans-Serif" font-size="10.00">cie::geo::AbsPrimitive</text>
<text text-anchor="middle" x="350" y="-979.5" font-family="Helvetica,sans-Serif" font-size="10.00">&lt; Dimension, CoordinateType &gt;</text>
<polyline fill="none" stroke="black" points="263.5,-972.5 436.5,-972.5 "/>
<text text-anchor="middle" x="350" y="-960.5" font-family="Helvetica,sans-Serif" font-size="10.00"> </text>
<polyline fill="none" stroke="black" points="263.5,-953.5 436.5,-953.5 "/>
<text text-anchor="start" x="271.5" y="-941.5" font-family="Helvetica,sans-Serif" font-size="10.00">+ ~AbsPrimitive()</text>
<text text-anchor="start" x="271.5" y="-930.5" font-family="Helvetica,sans-Serif" font-size="10.00">+ isDegenerate()</text>
</a>
</g>
</g>
<!-- Node4 -->
<g id="node4" class="node">
<title>Node4</title>
<g id="a_node4"><a xlink:href="classcie_1_1geo_1_1Cube.html" target="_top" xlink:title=" ">
<polygon fill="white" stroke="black" points="6,-354.5 6,-532.5 158,-532.5 158,-354.5 6,-354.5"/>
<text text-anchor="start" x="14" y="-520.5" font-family="Helvetica,sans-Serif" font-size="10.00">cie::geo::Cube&lt; Dimension,</text>
<text text-anchor="middle" x="82" y="-509.5" font-family="Helvetica,sans-Serif" font-size="10.00"> Double &gt;</text>
<polyline fill="none" stroke="black" points="6,-502.5 158,-502.5 "/>
<text text-anchor="start" x="14" y="-490.5" font-family="Helvetica,sans-Serif" font-size="10.00"># _base</text>
<text text-anchor="start" x="14" y="-479.5" font-family="Helvetica,sans-Serif" font-size="10.00"># _length</text>
<polyline fill="none" stroke="black" points="6,-472.5 158,-472.5 "/>
<text text-anchor="start" x="14" y="-460.5" font-family="Helvetica,sans-Serif" font-size="10.00">+ Cube()</text>
<text text-anchor="start" x="14" y="-449.5" font-family="Helvetica,sans-Serif" font-size="10.00">+ Cube()</text>
<text text-anchor="start" x="14" y="-438.5" font-family="Helvetica,sans-Serif" font-size="10.00">+ Cube()</text>
<text text-anchor="start" x="14" y="-427.5" font-family="Helvetica,sans-Serif" font-size="10.00">+ Cube()</text>
<text text-anchor="start" x="14" y="-416.5" font-family="Helvetica,sans-Serif" font-size="10.00">+ operator=()</text>
<text text-anchor="start" x="14" y="-405.5" font-family="Helvetica,sans-Serif" font-size="10.00">+ isDegenerate()</text>
<text text-anchor="start" x="14" y="-394.5" font-family="Helvetica,sans-Serif" font-size="10.00">+ base()</text>
<text text-anchor="start" x="14" y="-383.5" font-family="Helvetica,sans-Serif" font-size="10.00">+ base()</text>
<text text-anchor="start" x="14" y="-372.5" font-family="Helvetica,sans-Serif" font-size="10.00">+ length()</text>
<text text-anchor="start" x="14" y="-361.5" font-family="Helvetica,sans-Serif" font-size="10.00">+ length()</text>
</a>
</g>
</g>
<!-- Node1&#45;&gt;Node4 -->
<g id="edge3" class="edge">
<title>Node1&#45;&gt;Node4</title>
<path fill="none" stroke="midnightblue" d="M254.25,-924.37C185.89,-891.84 99.06,-837.55 58,-759 21.54,-689.24 33.59,-598.66 51.17,-532.64"/>
<polygon fill="none" stroke="midnightblue" points="252.8,-927.56 263.34,-928.63 255.76,-921.22 252.8,-927.56"/>
</g>
<!-- Node6 -->
<g id="node6" class="node">
<title>Node6</title>
<g id="a_node6"><a xlink:href="classcie_1_1geo_1_1Ellipsoid.html" target="_top" xlink:title=" ">
<polygon fill="white" stroke="black" points="688,-354.5 688,-532.5 820,-532.5 820,-354.5 688,-354.5"/>
<text text-anchor="start" x="696" y="-520.5" font-family="Helvetica,sans-Serif" font-size="10.00">cie::geo::Ellipsoid</text>
<text text-anchor="middle" x="754" y="-509.5" font-family="Helvetica,sans-Serif" font-size="10.00">&lt; Dimension, Double &gt;</text>
<polyline fill="none" stroke="black" points="688,-502.5 820,-502.5 "/>
<text text-anchor="start" x="696" y="-490.5" font-family="Helvetica,sans-Serif" font-size="10.00"># _center</text>
<text text-anchor="start" x="696" y="-479.5" font-family="Helvetica,sans-Serif" font-size="10.00"># _radii</text>
<polyline fill="none" stroke="black" points="688,-472.5 820,-472.5 "/>
<text text-anchor="start" x="696" y="-460.5" font-family="Helvetica,sans-Serif" font-size="10.00">+ Ellipsoid()</text>
<text text-anchor="start" x="696" y="-449.5" font-family="Helvetica,sans-Serif" font-size="10.00">+ Ellipsoid()</text>
<text text-anchor="start" x="696" y="-438.5" font-family="Helvetica,sans-Serif" font-size="10.00">+ Ellipsoid()</text>
<text text-anchor="start" x="696" y="-427.5" font-family="Helvetica,sans-Serif" font-size="10.00">+ Ellipsoid()</text>
<text text-anchor="start" x="696" y="-416.5" font-family="Helvetica,sans-Serif" font-size="10.00">+ operator=()</text>
<text text-anchor="start" x="696" y="-405.5" font-family="Helvetica,sans-Serif" font-size="10.00">+ isDegenerate()</text>
<text text-anchor="start" x="696" y="-394.5" font-family="Helvetica,sans-Serif" font-size="10.00">+ center()</text>
<text text-anchor="start" x="696" y="-383.5" font-family="Helvetica,sans-Serif" font-size="10.00">+ center()</text>
<text text-anchor="start" x="696" y="-372.5" font-family="Helvetica,sans-Serif" font-size="10.00">+ radii()</text>
<text text-anchor="start" x="696" y="-361.5" font-family="Helvetica,sans-Serif" font-size="10.00">+ radii()</text>
</a>
</g>
</g>
<!-- Node1&#45;&gt;Node6 -->
<g id="edge5" class="edge">
<title>Node1&#45;&gt;Node6</title>
<path fill="none" stroke="midnightblue" d="M446.8,-944.34C545.34,-920.72 693.35,-868.38 764,-759 807.05,-692.35 798.03,-600.08 782.17,-532.73"/>
<polygon fill="none" stroke="midnightblue" points="445.76,-940.99 436.82,-946.68 447.36,-947.81 445.76,-940.99"/>
</g>
<!-- Node8 -->
<g id="node8" class="node">
<title>Node8</title>
<g id="a_node8"><a xlink:href="classcie_1_1geo_1_1Sphere.html" target="_top" xlink:title=" ">
<polygon fill="white" stroke="black" points="237.5,-597 237.5,-742 398.5,-742 398.5,-597 237.5,-597"/>
<text text-anchor="start" x="245.5" y="-730" font-family="Helvetica,sans-Serif" font-size="10.00">cie::geo::Sphere&lt; Dimension,</text>
<text text-anchor="middle" x="318" y="-719" font-family="Helvetica,sans-Serif" font-size="10.00"> CoordinateType &gt;</text>
<polyline fill="none" stroke="black" points="237.5,-712 398.5,-712 "/>
<text text-anchor="start" x="245.5" y="-700" font-family="Helvetica,sans-Serif" font-size="10.00"># _center</text>
<text text-anchor="start" x="245.5" y="-689" font-family="Helvetica,sans-Serif" font-size="10.00"># _radius</text>
<polyline fill="none" stroke="black" points="237.5,-682 398.5,-682 "/>
<text text-anchor="start" x="245.5" y="-670" font-family="Helvetica,sans-Serif" font-size="10.00">+ Sphere()</text>
<text text-anchor="start" x="245.5" y="-659" font-family="Helvetica,sans-Serif" font-size="10.00">+ Sphere()</text>
<text text-anchor="start" x="245.5" y="-648" font-family="Helvetica,sans-Serif" font-size="10.00">+ isDegenerate()</text>
<text text-anchor="start" x="245.5" y="-637" font-family="Helvetica,sans-Serif" font-size="10.00">+ center()</text>
<text text-anchor="start" x="245.5" y="-626" font-family="Helvetica,sans-Serif" font-size="10.00">+ center()</text>
<text text-anchor="start" x="245.5" y="-615" font-family="Helvetica,sans-Serif" font-size="10.00">+ radius()</text>
<text text-anchor="start" x="245.5" y="-604" font-family="Helvetica,sans-Serif" font-size="10.00">+ radius()</text>
</a>
</g>
</g>
<!-- Node1&#45;&gt;Node8 -->
<g id="edge7" class="edge">
<title>Node1&#45;&gt;Node8</title>
<path fill="none" stroke="midnightblue" d="M342.12,-913.16C340.3,-901.04 338.47,-888.06 337,-876 331.61,-831.72 326.97,-781.9 323.62,-742.41"/>
<polygon fill="none" stroke="midnightblue" points="338.67,-913.75 343.63,-923.11 345.59,-912.69 338.67,-913.75"/>
</g>
<!-- Node10 -->
<g id="node10" class="node">
<title>Node10</title>
<g id="a_node10"><a xlink:href="classcie_1_1geo_1_1AbsPrimitive.html" target="_top" xlink:title=" ">
<polygon fill="white" stroke="black" points="346,-796.5 346,-875.5 478,-875.5 478,-796.5 346,-796.5"/>
<text text-anchor="start" x="354" y="-863.5" font-family="Helvetica,sans-Serif" font-size="10.00">cie::geo::AbsPrimitive</text>
<text text-anchor="middle" x="412" y="-852.5" font-family="Helvetica,sans-Serif" font-size="10.00">&lt; Dimension, Double &gt;</text>
<polyline fill="none" stroke="black" points="346,-845.5 478,-845.5 "/>
<text text-anchor="middle" x="412" y="-833.5" font-family="Helvetica,sans-Serif" font-size="10.00"> </text>
<polyline fill="none" stroke="black" points="346,-826.5 478,-826.5 "/>
<text text-anchor="start" x="354" y="-814.5" font-family="Helvetica,sans-Serif" font-size="10.00">+ ~AbsPrimitive()</text>
<text text-anchor="start" x="354" y="-803.5" font-family="Helvetica,sans-Serif" font-size="10.00">+ isDegenerate()</text>
</a>
</g>
</g>
<!-- Node1&#45;&gt;Node10 -->
<g id="edge9" class="edge">
<title>Node1&#45;&gt;Node10</title>
<path fill="none" stroke="orange" d="M373.64,-914.34C379.99,-901.54 386.78,-887.86 392.85,-875.61"/>
<polygon fill="orange" stroke="orange" points="370.42,-912.96 369.11,-923.48 376.69,-916.07 370.42,-912.96"/>
<text text-anchor="middle" x="442.5" y="-897" font-family="Helvetica,sans-Serif" font-size="10.00"> &lt; Dimension, Double &gt;</text>
</g>
<!-- Node2 -->
<g id="node2" class="node">
<title>Node2</title>
<g id="a_node2"><a xlink:href="classcie_1_1geo_1_1Traits.html" target="_top" xlink:title=" ">
<polygon fill="white" stroke="black" points="273,-1040.5 273,-1108.5 427,-1108.5 427,-1040.5 273,-1040.5"/>
<text text-anchor="start" x="281" y="-1096.5" font-family="Helvetica,sans-Serif" font-size="10.00">cie::geo::Traits&lt; Dimension,</text>
<text text-anchor="middle" x="350" y="-1085.5" font-family="Helvetica,sans-Serif" font-size="10.00"> Double &gt;</text>
<polyline fill="none" stroke="black" points="273,-1078.5 427,-1078.5 "/>
<text text-anchor="start" x="281" y="-1066.5" font-family="Helvetica,sans-Serif" font-size="10.00">+ Dimension</text>
<polyline fill="none" stroke="black" points="273,-1059.5 427,-1059.5 "/>
<text text-anchor="middle" x="350" y="-1047.5" font-family="Helvetica,sans-Serif" font-size="10.00"> </text>
</a>
</g>
</g>
<!-- Node2&#45;&gt;Node1 -->
<g id="edge1" class="edge">
<title>Node2&#45;&gt;Node1</title>
<path fill="none" stroke="midnightblue" d="M350,-1030.34C350,-1021.25 350,-1011.72 350,-1002.81"/>
<polygon fill="none" stroke="midnightblue" points="346.5,-1030.35 350,-1040.35 353.5,-1030.35 346.5,-1030.35"/>
</g>
<!-- Node3 -->
<g id="node3" class="node">
<title>Node3</title>
<g id="a_node3"><a xlink:href="classcie_1_1geo_1_1Traits.html" target="_top" xlink:title="Basic templated traits that every object has in GEO.">
<polygon fill="white" stroke="black" points="289,-1156.5 289,-1224.5 411,-1224.5 411,-1156.5 289,-1156.5"/>
<text text-anchor="start" x="297" y="-1212.5" font-family="Helvetica,sans-Serif" font-size="10.00">cie::geo::Traits&lt; Dim,</text>
<text text-anchor="middle" x="350" y="-1201.5" font-family="Helvetica,sans-Serif" font-size="10.00"> TCoordinate &gt;</text>
<polyline fill="none" stroke="black" points="289,-1194.5 411,-1194.5 "/>
<text text-anchor="start" x="297" y="-1182.5" font-family="Helvetica,sans-Serif" font-size="10.00">+ Dimension</text>
<polyline fill="none" stroke="black" points="289,-1175.5 411,-1175.5 "/>
<text text-anchor="middle" x="350" y="-1163.5" font-family="Helvetica,sans-Serif" font-size="10.00"> </text>
</a>
</g>
</g>
<!-- Node3&#45;&gt;Node2 -->
<g id="edge2" class="edge">
<title>Node3&#45;&gt;Node2</title>
<path fill="none" stroke="orange" d="M350,-1146.06C350,-1133.64 350,-1120.32 350,-1108.62"/>
<polygon fill="orange" stroke="orange" points="346.5,-1146.22 350,-1156.22 353.5,-1146.22 346.5,-1146.22"/>
<text text-anchor="middle" x="409.5" y="-1130" font-family="Helvetica,sans-Serif" font-size="10.00"> &lt; Dimension, Double &gt;</text>
</g>
<!-- Node5 -->
<g id="node5" class="node">
<title>Node5</title>
<g id="a_node5"><a xlink:href="classcie_1_1geo_1_1boolean_1_1Cube.html" target="_top" xlink:title="Cube with point membership test.">
<polygon fill="white" stroke="black" points="0,-189 0,-290 164,-290 164,-189 0,-189"/>
<text text-anchor="start" x="8" y="-278" font-family="Helvetica,sans-Serif" font-size="10.00">cie::geo::boolean::</text>
<text text-anchor="start" x="8" y="-267" font-family="Helvetica,sans-Serif" font-size="10.00">Cube&lt; Dimension, Coordinate</text>
<text text-anchor="middle" x="82" y="-256" font-family="Helvetica,sans-Serif" font-size="10.00">Type &gt;</text>
<polyline fill="none" stroke="black" points="0,-249 164,-249 "/>
<text text-anchor="middle" x="82" y="-237" font-family="Helvetica,sans-Serif" font-size="10.00"> </text>
<polyline fill="none" stroke="black" points="0,-230 164,-230 "/>
<text text-anchor="start" x="8" y="-218" font-family="Helvetica,sans-Serif" font-size="10.00">+ Cube()</text>
<text text-anchor="start" x="8" y="-207" font-family="Helvetica,sans-Serif" font-size="10.00">+ Cube()</text>
<text text-anchor="start" x="8" y="-196" font-family="Helvetica,sans-Serif" font-size="10.00"># at()</text>
</a>
</g>
</g>
<!-- Node4&#45;&gt;Node5 -->
<g id="edge4" class="edge">
<title>Node4&#45;&gt;Node5</title>
<path fill="none" stroke="midnightblue" d="M82,-344.39C82,-325.6 82,-306.68 82,-290.23"/>
<polygon fill="none" stroke="midnightblue" points="78.5,-344.49 82,-354.49 85.5,-344.49 78.5,-344.49"/>
</g>
<!-- Node7 -->
<g id="node7" class="node">
<title>Node7</title>
<g id="a_node7"><a xlink:href="classcie_1_1geo_1_1boolean_1_1Ellipsoid.html" target="_top" xlink:title="Ellipsoid with point membership test.">
<polygon fill="white" stroke="black" points="691.5,-172.5 691.5,-306.5 816.5,-306.5 816.5,-172.5 691.5,-172.5"/>
<text text-anchor="start" x="699.5" y="-294.5" font-family="Helvetica,sans-Serif" font-size="10.00">cie::geo::boolean::</text>
<text text-anchor="start" x="699.5" y="-283.5" font-family="Helvetica,sans-Serif" font-size="10.00">Ellipsoid&lt; Dimension,</text>
<text text-anchor="middle" x="754" y="-272.5" font-family="Helvetica,sans-Serif" font-size="10.00"> CoordinateType &gt;</text>
<polyline fill="none" stroke="black" points="691.5,-265.5 816.5,-265.5 "/>
<text text-anchor="middle" x="754" y="-253.5" font-family="Helvetica,sans-Serif" font-size="10.00"> </text>
<polyline fill="none" stroke="black" points="691.5,-246.5 816.5,-246.5 "/>
<text text-anchor="start" x="699.5" y="-234.5" font-family="Helvetica,sans-Serif" font-size="10.00">+ Ellipsoid()</text>
<text text-anchor="start" x="699.5" y="-223.5" font-family="Helvetica,sans-Serif" font-size="10.00">+ Ellipsoid()</text>
<text text-anchor="start" x="699.5" y="-212.5" font-family="Helvetica,sans-Serif" font-size="10.00">+ Ellipsoid()</text>
<text text-anchor="start" x="699.5" y="-201.5" font-family="Helvetica,sans-Serif" font-size="10.00">+ Ellipsoid()</text>
<text text-anchor="start" x="699.5" y="-190.5" font-family="Helvetica,sans-Serif" font-size="10.00">+ operator=()</text>
<text text-anchor="start" x="699.5" y="-179.5" font-family="Helvetica,sans-Serif" font-size="10.00"># at()</text>
</a>
</g>
</g>
<!-- Node6&#45;&gt;Node7 -->
<g id="edge6" class="edge">
<title>Node6&#45;&gt;Node7</title>
<path fill="none" stroke="midnightblue" d="M754,-344.28C754,-331.53 754,-318.71 754,-306.65"/>
<polygon fill="none" stroke="midnightblue" points="750.5,-344.49 754,-354.49 757.5,-344.49 750.5,-344.49"/>
</g>
<!-- Node9 -->
<g id="node9" class="node">
<title>Node9</title>
<g id="a_node9"><a xlink:href="classcie_1_1geo_1_1boolean_1_1Sphere.html" target="_top" xlink:title=" ">
<polygon fill="white" stroke="black" points="219.5,-393 219.5,-494 392.5,-494 392.5,-393 219.5,-393"/>
<text text-anchor="start" x="227.5" y="-482" font-family="Helvetica,sans-Serif" font-size="10.00">cie::geo::boolean::</text>
<text text-anchor="start" x="227.5" y="-471" font-family="Helvetica,sans-Serif" font-size="10.00">Sphere&lt; Dimension, Coordinate</text>
<text text-anchor="middle" x="306" y="-460" font-family="Helvetica,sans-Serif" font-size="10.00">Type &gt;</text>
<polyline fill="none" stroke="black" points="219.5,-453 392.5,-453 "/>
<text text-anchor="middle" x="306" y="-441" font-family="Helvetica,sans-Serif" font-size="10.00"> </text>
<polyline fill="none" stroke="black" points="219.5,-434 392.5,-434 "/>
<text text-anchor="start" x="227.5" y="-422" font-family="Helvetica,sans-Serif" font-size="10.00">+ Sphere()</text>
<text text-anchor="start" x="227.5" y="-411" font-family="Helvetica,sans-Serif" font-size="10.00">+ Sphere()</text>
<text text-anchor="start" x="227.5" y="-400" font-family="Helvetica,sans-Serif" font-size="10.00">+ at()</text>
</a>
</g>
</g>
<!-- Node8&#45;&gt;Node9 -->
<g id="edge8" class="edge">
<title>Node8&#45;&gt;Node9</title>
<path fill="none" stroke="midnightblue" d="M313.6,-586.37C311.95,-555.49 310.12,-521.34 308.67,-494.29"/>
<polygon fill="none" stroke="midnightblue" points="310.12,-586.9 314.15,-596.7 317.11,-586.53 310.12,-586.9"/>
</g>
<!-- Node10&#45;&gt;Node8 -->
<g id="edge21" class="edge">
<title>Node10&#45;&gt;Node8</title>
<path fill="none" stroke="midnightblue" d="M384.8,-787.39C376.7,-773.23 367.65,-757.4 358.89,-742.06"/>
<polygon fill="none" stroke="midnightblue" points="381.96,-789.49 389.96,-796.43 388.04,-786.01 381.96,-789.49"/>
</g>
<!-- Node11 -->
<g id="node11" class="node">
<title>Node11</title>
<g id="a_node11"><a xlink:href="classcie_1_1geo_1_1Box.html" target="_top" xlink:title=" ">
<polygon fill="white" stroke="black" points="417,-580.5 417,-758.5 563,-758.5 563,-580.5 417,-580.5"/>
<text text-anchor="start" x="425" y="-746.5" font-family="Helvetica,sans-Serif" font-size="10.00">cie::geo::Box&lt; Dimension,</text>
<text text-anchor="middle" x="490" y="-735.5" font-family="Helvetica,sans-Serif" font-size="10.00"> CoordinateType &gt;</text>
<polyline fill="none" stroke="black" points="417,-728.5 563,-728.5 "/>
<text text-anchor="start" x="425" y="-716.5" font-family="Helvetica,sans-Serif" font-size="10.00"># _base</text>
<text text-anchor="start" x="425" y="-705.5" font-family="Helvetica,sans-Serif" font-size="10.00"># _lengths</text>
<polyline fill="none" stroke="black" points="417,-698.5 563,-698.5 "/>
<text text-anchor="start" x="425" y="-686.5" font-family="Helvetica,sans-Serif" font-size="10.00">+ Box()</text>
<text text-anchor="start" x="425" y="-675.5" font-family="Helvetica,sans-Serif" font-size="10.00">+ Box()</text>
<text text-anchor="start" x="425" y="-664.5" font-family="Helvetica,sans-Serif" font-size="10.00">+ Box()</text>
<text text-anchor="start" x="425" y="-653.5" font-family="Helvetica,sans-Serif" font-size="10.00">+ Box()</text>
<text text-anchor="start" x="425" y="-642.5" font-family="Helvetica,sans-Serif" font-size="10.00">+ operator=()</text>
<text text-anchor="start" x="425" y="-631.5" font-family="Helvetica,sans-Serif" font-size="10.00">+ isDegenerate()</text>
<text text-anchor="start" x="425" y="-620.5" font-family="Helvetica,sans-Serif" font-size="10.00">+ base()</text>
<text text-anchor="start" x="425" y="-609.5" font-family="Helvetica,sans-Serif" font-size="10.00">+ lengths()</text>
<text text-anchor="start" x="425" y="-598.5" font-family="Helvetica,sans-Serif" font-size="10.00">+ base()</text>
<text text-anchor="start" x="425" y="-587.5" font-family="Helvetica,sans-Serif" font-size="10.00">+ lengths()</text>
</a>
</g>
</g>
<!-- Node10&#45;&gt;Node11 -->
<g id="edge10" class="edge">
<title>Node10&#45;&gt;Node11</title>
<path fill="none" stroke="midnightblue" d="M434.64,-787.25C438.94,-778.18 443.57,-768.42 448.25,-758.55"/>
<polygon fill="none" stroke="midnightblue" points="431.41,-785.9 430.29,-796.43 437.73,-788.9 431.41,-785.9"/>
</g>
<!-- Node15 -->
<g id="node15" class="node">
<title>Node15</title>
<g id="a_node15"><a xlink:href="classcie_1_1geo_1_1Cube.html" target="_top" xlink:title="Cube template.">
<polygon fill="white" stroke="black" points="67,-580.5 67,-758.5 219,-758.5 219,-580.5 67,-580.5"/>
<text text-anchor="start" x="75" y="-746.5" font-family="Helvetica,sans-Serif" font-size="10.00">cie::geo::Cube&lt; Dimension,</text>
<text text-anchor="middle" x="143" y="-735.5" font-family="Helvetica,sans-Serif" font-size="10.00"> CoordinateType &gt;</text>
<polyline fill="none" stroke="black" points="67,-728.5 219,-728.5 "/>
<text text-anchor="start" x="75" y="-716.5" font-family="Helvetica,sans-Serif" font-size="10.00"># _base</text>
<text text-anchor="start" x="75" y="-705.5" font-family="Helvetica,sans-Serif" font-size="10.00"># _length</text>
<polyline fill="none" stroke="black" points="67,-698.5 219,-698.5 "/>
<text text-anchor="start" x="75" y="-686.5" font-family="Helvetica,sans-Serif" font-size="10.00">+ Cube()</text>
<text text-anchor="start" x="75" y="-675.5" font-family="Helvetica,sans-Serif" font-size="10.00">+ Cube()</text>
<text text-anchor="start" x="75" y="-664.5" font-family="Helvetica,sans-Serif" font-size="10.00">+ Cube()</text>
<text text-anchor="start" x="75" y="-653.5" font-family="Helvetica,sans-Serif" font-size="10.00">+ Cube()</text>
<text text-anchor="start" x="75" y="-642.5" font-family="Helvetica,sans-Serif" font-size="10.00">+ operator=()</text>
<text text-anchor="start" x="75" y="-631.5" font-family="Helvetica,sans-Serif" font-size="10.00">+ isDegenerate()</text>
<text text-anchor="start" x="75" y="-620.5" font-family="Helvetica,sans-Serif" font-size="10.00">+ base()</text>
<text text-anchor="start" x="75" y="-609.5" font-family="Helvetica,sans-Serif" font-size="10.00">+ length()</text>
<text text-anchor="start" x="75" y="-598.5" font-family="Helvetica,sans-Serif" font-size="10.00">+ base()</text>
<text text-anchor="start" x="75" y="-587.5" font-family="Helvetica,sans-Serif" font-size="10.00">+ length()</text>
</a>
</g>
</g>
<!-- Node10&#45;&gt;Node15 -->
<g id="edge17" class="edge">
<title>Node10&#45;&gt;Node15</title>
<path fill="none" stroke="midnightblue" d="M336.07,-811.67C301.42,-799.06 260.88,-781.43 228,-759 225.01,-756.96 222.04,-754.8 219.1,-752.54"/>
<polygon fill="none" stroke="midnightblue" points="335.08,-815.03 345.68,-815.09 337.43,-808.44 335.08,-815.03"/>
</g>
<!-- Node16 -->
<g id="node16" class="node">
<title>Node16</title>
<g id="a_node16"><a xlink:href="classcie_1_1geo_1_1Ellipsoid.html" target="_top" xlink:title="Ellipsoid template.">
<polygon fill="white" stroke="black" points="581.5,-580.5 581.5,-758.5 754.5,-758.5 754.5,-580.5 581.5,-580.5"/>
<text text-anchor="start" x="589.5" y="-746.5" font-family="Helvetica,sans-Serif" font-size="10.00">cie::geo::Ellipsoid</text>
<text text-anchor="middle" x="668" y="-735.5" font-family="Helvetica,sans-Serif" font-size="10.00">&lt; Dimension, CoordinateType &gt;</text>
<polyline fill="none" stroke="black" points="581.5,-728.5 754.5,-728.5 "/>
<text text-anchor="start" x="589.5" y="-716.5" font-family="Helvetica,sans-Serif" font-size="10.00"># _center</text>
<text text-anchor="start" x="589.5" y="-705.5" font-family="Helvetica,sans-Serif" font-size="10.00"># _radii</text>
<polyline fill="none" stroke="black" points="581.5,-698.5 754.5,-698.5 "/>
<text text-anchor="start" x="589.5" y="-686.5" font-family="Helvetica,sans-Serif" font-size="10.00">+ Ellipsoid()</text>
<text text-anchor="start" x="589.5" y="-675.5" font-family="Helvetica,sans-Serif" font-size="10.00">+ Ellipsoid()</text>
<text text-anchor="start" x="589.5" y="-664.5" font-family="Helvetica,sans-Serif" font-size="10.00">+ Ellipsoid()</text>
<text text-anchor="start" x="589.5" y="-653.5" font-family="Helvetica,sans-Serif" font-size="10.00">+ Ellipsoid()</text>
<text text-anchor="start" x="589.5" y="-642.5" font-family="Helvetica,sans-Serif" font-size="10.00">+ operator=()</text>
<text text-anchor="start" x="589.5" y="-631.5" font-family="Helvetica,sans-Serif" font-size="10.00">+ isDegenerate()</text>
<text text-anchor="start" x="589.5" y="-620.5" font-family="Helvetica,sans-Serif" font-size="10.00">+ center()</text>
<text text-anchor="start" x="589.5" y="-609.5" font-family="Helvetica,sans-Serif" font-size="10.00">+ center()</text>
<text text-anchor="start" x="589.5" y="-598.5" font-family="Helvetica,sans-Serif" font-size="10.00">+ radii()</text>
<text text-anchor="start" x="589.5" y="-587.5" font-family="Helvetica,sans-Serif" font-size="10.00">+ radii()</text>
</a>
</g>
</g>
<!-- Node10&#45;&gt;Node16 -->
<g id="edge19" class="edge">
<title>Node10&#45;&gt;Node16</title>
<path fill="none" stroke="midnightblue" d="M487.48,-804.8C515.07,-792.32 545.9,-776.63 572,-759 575.1,-756.91 578.2,-754.71 581.28,-752.45"/>
<polygon fill="none" stroke="midnightblue" points="485.97,-801.64 478.26,-808.9 488.82,-808.03 485.97,-801.64"/>
</g>
<!-- Node12 -->
<g id="node12" class="node">
<title>Node12</title>
<g id="a_node12"><a xlink:href="classcie_1_1geo_1_1boolean_1_1Box.html" target="_top" xlink:title=" ">
<polygon fill="white" stroke="black" points="485.5,-194.5 485.5,-284.5 636.5,-284.5 636.5,-194.5 485.5,-194.5"/>
<text text-anchor="start" x="493.5" y="-272.5" font-family="Helvetica,sans-Serif" font-size="10.00">cie::geo::boolean::</text>
<text text-anchor="middle" x="561" y="-261.5" font-family="Helvetica,sans-Serif" font-size="10.00">Box&lt; Dimension, Double &gt;</text>
<polyline fill="none" stroke="black" points="485.5,-254.5 636.5,-254.5 "/>
<text text-anchor="middle" x="561" y="-242.5" font-family="Helvetica,sans-Serif" font-size="10.00"> </text>
<polyline fill="none" stroke="black" points="485.5,-235.5 636.5,-235.5 "/>
<text text-anchor="start" x="493.5" y="-223.5" font-family="Helvetica,sans-Serif" font-size="10.00">+ Box()</text>
<text text-anchor="start" x="493.5" y="-212.5" font-family="Helvetica,sans-Serif" font-size="10.00">+ Box()</text>
<text text-anchor="start" x="493.5" y="-201.5" font-family="Helvetica,sans-Serif" font-size="10.00"># at()</text>
</a>
</g>
</g>
<!-- Node11&#45;&gt;Node12 -->
<g id="edge11" class="edge">
<title>Node11&#45;&gt;Node12</title>
<path fill="none" stroke="midnightblue" d="M559.81,-571.21C566.75,-558.74 573.04,-545.84 578,-533 611.69,-445.75 634.29,-415.32 610,-325 606.26,-311.08 599.6,-297.09 592.37,-284.61"/>
<polygon fill="none" stroke="midnightblue" points="556.6,-569.78 554.66,-580.2 562.67,-573.26 556.6,-569.78"/>
</g>
<!-- Node14 -->
<g id="node14" class="node">
<title>Node14</title>
<g id="a_node14"><a xlink:href="classcie_1_1geo_1_1boolean_1_1Box.html" target="_top" xlink:title=" ">
<polygon fill="white" stroke="black" points="411,-393 411,-494 569,-494 569,-393 411,-393"/>
<text text-anchor="start" x="419" y="-482" font-family="Helvetica,sans-Serif" font-size="10.00">cie::geo::boolean::</text>
<text text-anchor="start" x="419" y="-471" font-family="Helvetica,sans-Serif" font-size="10.00">Box&lt; Dimension, Coordinate</text>
<text text-anchor="middle" x="490" y="-460" font-family="Helvetica,sans-Serif" font-size="10.00">Type &gt;</text>
<polyline fill="none" stroke="black" points="411,-453 569,-453 "/>
<text text-anchor="middle" x="490" y="-441" font-family="Helvetica,sans-Serif" font-size="10.00"> </text>
<polyline fill="none" stroke="black" points="411,-434 569,-434 "/>
<text text-anchor="start" x="419" y="-422" font-family="Helvetica,sans-Serif" font-size="10.00">+ Box()</text>
<text text-anchor="start" x="419" y="-411" font-family="Helvetica,sans-Serif" font-size="10.00">+ Box()</text>
<text text-anchor="start" x="419" y="-400" font-family="Helvetica,sans-Serif" font-size="10.00"># at()</text>
</a>
</g>
</g>
<!-- Node11&#45;&gt;Node14 -->
<g id="edge14" class="edge">
<title>Node11&#45;&gt;Node14</title>
<path fill="none" stroke="midnightblue" d="M490,-570.27C490,-543.97 490,-516.63 490,-494.19"/>
<polygon fill="none" stroke="midnightblue" points="486.5,-570.29 490,-580.29 493.5,-570.29 486.5,-570.29"/>
</g>
<!-- Node13 -->
<g id="node13" class="node">
<title>Node13</title>
<g id="a_node13"><a xlink:href="classcie_1_1geo_1_1AABBox.html" target="_top" xlink:title=" ">
<polygon fill="white" stroke="black" points="385.5,-0.5 385.5,-134.5 552.5,-134.5 552.5,-0.5 385.5,-0.5"/>
<text text-anchor="start" x="393.5" y="-122.5" font-family="Helvetica,sans-Serif" font-size="10.00">cie::geo::AABBox&lt; Dimension,</text>
<text text-anchor="middle" x="469" y="-111.5" font-family="Helvetica,sans-Serif" font-size="10.00"> CoordinateType &gt;</text>
<polyline fill="none" stroke="black" points="385.5,-104.5 552.5,-104.5 "/>
<text text-anchor="middle" x="469" y="-92.5" font-family="Helvetica,sans-Serif" font-size="10.00"> </text>
<polyline fill="none" stroke="black" points="385.5,-85.5 552.5,-85.5 "/>
<text text-anchor="start" x="393.5" y="-73.5" font-family="Helvetica,sans-Serif" font-size="10.00">+ AABBox()</text>
<text text-anchor="start" x="393.5" y="-62.5" font-family="Helvetica,sans-Serif" font-size="10.00">+ AABBox()</text>
<text text-anchor="start" x="393.5" y="-51.5" font-family="Helvetica,sans-Serif" font-size="10.00">+ AABBox()</text>
<text text-anchor="start" x="393.5" y="-40.5" font-family="Helvetica,sans-Serif" font-size="10.00">+ operator=()</text>
<text text-anchor="start" x="393.5" y="-29.5" font-family="Helvetica,sans-Serif" font-size="10.00">+ contains()</text>
<text text-anchor="start" x="393.5" y="-18.5" font-family="Helvetica,sans-Serif" font-size="10.00">+ intersects()</text>
<text text-anchor="start" x="393.5" y="-7.5" font-family="Helvetica,sans-Serif" font-size="10.00">+ include()</text>
</a>
</g>
</g>
<!-- Node12&#45;&gt;Node13 -->
<g id="edge12" class="edge">
<title>Node12&#45;&gt;Node13</title>
<path fill="none" stroke="midnightblue" d="M532.09,-185.08C523.43,-169.07 513.82,-151.33 504.78,-134.61"/>
<polygon fill="none" stroke="midnightblue" points="529.23,-187.15 537.07,-194.28 535.39,-183.82 529.23,-187.15"/>
</g>
<!-- Node13&#45;&gt;Node13 -->
<g id="edge13" class="edge">
<title>Node13&#45;&gt;Node13</title>
<path fill="none" stroke="orange" d="M562.29,-78.05C567.44,-75.49 570.5,-71.97 570.5,-67.5 570.5,-60.69 563.39,-56.09 552.62,-53.7"/>
<polygon fill="orange" stroke="orange" points="560.98,-74.8 552.62,-81.3 563.21,-81.43 560.98,-74.8"/>
<text text-anchor="middle" x="650.5" y="-65" font-family="Helvetica,sans-Serif" font-size="10.00"> &lt; Dimension, CoordinateType &gt;</text>
</g>
<!-- Node14&#45;&gt;Node12 -->
<g id="edge16" class="edge">
<title>Node14&#45;&gt;Node12</title>
<path fill="none" stroke="orange" d="M482.8,-382.84C482.52,-363.86 484.39,-343.11 491,-325 496.29,-310.51 505.25,-296.72 515.01,-284.66"/>
<polygon fill="orange" stroke="orange" points="479.3,-383 483.14,-392.87 486.3,-382.76 479.3,-383"/>
<text text-anchor="middle" x="550.5" y="-328" font-family="Helvetica,sans-Serif" font-size="10.00"> &lt; Dimension, Double &gt;</text>
</g>
<!-- Node14&#45;&gt;Node13 -->
<g id="edge15" class="edge">
<title>Node14&#45;&gt;Node13</title>
<path fill="none" stroke="midnightblue" d="M483.44,-382.51C481.07,-358.99 478.6,-331.75 477,-307 473.24,-248.81 471.19,-182.51 470.12,-134.61"/>
<polygon fill="none" stroke="midnightblue" points="479.98,-383.09 484.47,-392.69 486.94,-382.38 479.98,-383.09"/>
</g>
<!-- Node15&#45;&gt;Node4 -->
<g id="edge18" class="edge">
<title>Node15&#45;&gt;Node4</title>
<path fill="none" stroke="orange" d="M116.26,-570.3C112.84,-557.76 109.37,-544.99 106,-532.63"/>
<polygon fill="orange" stroke="orange" points="112.97,-571.56 118.98,-580.29 119.73,-569.72 112.97,-571.56"/>
<text text-anchor="middle" x="172.5" y="-554" font-family="Helvetica,sans-Serif" font-size="10.00"> &lt; Dimension, Double &gt;</text>
</g>
<!-- Node16&#45;&gt;Node6 -->
<g id="edge20" class="edge">
<title>Node16&#45;&gt;Node6</title>
<path fill="none" stroke="orange" d="M658.04,-570.02C659.14,-563.49 660.75,-557.1 663,-551 668.68,-535.6 677.7,-520.92 687.89,-507.64"/>
<polygon fill="orange" stroke="orange" points="654.51,-570 656.71,-580.36 661.45,-570.89 654.51,-570"/>
<text text-anchor="middle" x="722.5" y="-554" font-family="Helvetica,sans-Serif" font-size="10.00"> &lt; Dimension, Double &gt;</text>
</g>
</g>
</svg>
