<?xml version="1.0" encoding="UTF-8" standalone="no"?>
<!DOCTYPE svg PUBLIC "-//W3C//DTD SVG 1.1//EN"
 "http://www.w3.org/Graphics/SVG/1.1/DTD/svg11.dtd">
<!-- Generated by graphviz version 2.43.0 (0)
 -->
<!-- Title: QWidget Pages: 1 -->
<svg width="312pt" height="237pt"
 viewBox="0.00 0.00 312.00 237.00" xmlns="http://www.w3.org/2000/svg" xmlns:xlink="http://www.w3.org/1999/xlink">
<g id="graph0" class="graph" transform="scale(1 1) rotate(0) translate(4 233)">
<title>QWidget</title>
<polygon fill="white" stroke="transparent" points="-4,4 -4,-233 308,-233 308,4 -4,4"/>
<!-- Node1 -->
<g id="node1" class="node">
<title>Node1</title>
<g id="a_node1"><a xlink:title=" ">
<polygon fill="#bfbfbf" stroke="black" points="122,-171.5 122,-228.5 181,-228.5 181,-171.5 122,-171.5"/>
<text text-anchor="middle" x="151.5" y="-216.5" font-family="Helvetica,sans-Serif" font-size="10.00">QWidget</text>
<polyline fill="none" stroke="black" points="122,-209.5 181,-209.5 "/>
<text text-anchor="middle" x="151.5" y="-197.5" font-family="Helvetica,sans-Serif" font-size="10.00"> </text>
<polyline fill="none" stroke="black" points="122,-190.5 181,-190.5 "/>
<text text-anchor="middle" x="151.5" y="-178.5" font-family="Helvetica,sans-Serif" font-size="10.00"> </text>
</a>
</g>
</g>
<!-- Node2 -->
<g id="node2" class="node">
<title>Node2</title>
<g id="a_node2"><a xlink:href="classsplinekernel_1_1appSpline2D_1_1ControlWidget.html" target="_top" xlink:title=" ">
<polygon fill="white" stroke="black" points="0,-11.5 0,-123.5 143,-123.5 143,-11.5 0,-11.5"/>
<text text-anchor="start" x="8" y="-111.5" font-family="Helvetica,sans-Serif" font-size="10.00">splinekernel.appSpline2D.</text>
<text text-anchor="middle" x="71.5" y="-100.5" font-family="Helvetica,sans-Serif" font-size="10.00">ControlWidget</text>
<polyline fill="none" stroke="black" points="0,-93.5 143,-93.5 "/>
<text text-anchor="start" x="8" y="-81.5" font-family="Helvetica,sans-Serif" font-size="10.00">+ labels</text>
<text text-anchor="start" x="8" y="-70.5" font-family="Helvetica,sans-Serif" font-size="10.00">+ controls</text>
<text text-anchor="start" x="8" y="-59.5" font-family="Helvetica,sans-Serif" font-size="10.00">+ settings</text>
<text text-anchor="start" x="8" y="-48.5" font-family="Helvetica,sans-Serif" font-size="10.00">+ signal_object_changed</text>
<polyline fill="none" stroke="black" points="0,-41.5 143,-41.5 "/>
<text text-anchor="start" x="8" y="-29.5" font-family="Helvetica,sans-Serif" font-size="10.00">+ __init__()</text>
<text text-anchor="start" x="8" y="-18.5" font-family="Helvetica,sans-Serif" font-size="10.00">+ updateSettings()</text>
</a>
</g>
</g>
<!-- Node1&#45;&gt;Node2 -->
<g id="edge1" class="edge">
<title>Node1&#45;&gt;Node2</title>
<path fill="none" stroke="midnightblue" d="M129.1,-162.45C121.7,-150.39 113.3,-136.68 105.25,-123.55"/>
<polygon fill="none" stroke="midnightblue" points="126.32,-164.63 134.53,-171.32 132.29,-160.97 126.32,-164.63"/>
</g>
<!-- Node3 -->
<g id="node3" class="node">
<title>Node3</title>
<g id="a_node3"><a xlink:href="classsplinekernel_1_1appSurface_1_1ControlWidget.html" target="_top" xlink:title=" ">
<polygon fill="white" stroke="black" points="161,-0.5 161,-134.5 304,-134.5 304,-0.5 161,-0.5"/>
<text text-anchor="start" x="169" y="-122.5" font-family="Helvetica,sans-Serif" font-size="10.00">splinekernel.appSurface.</text>
<text text-anchor="middle" x="232.5" y="-111.5" font-family="Helvetica,sans-Serif" font-size="10.00">ControlWidget</text>
<polyline fill="none" stroke="black" points="161,-104.5 304,-104.5 "/>
<text text-anchor="start" x="169" y="-92.5" font-family="Helvetica,sans-Serif" font-size="10.00">+ controlDefineMode</text>
<text text-anchor="start" x="169" y="-81.5" font-family="Helvetica,sans-Serif" font-size="10.00">+ controlEditMode</text>
<text text-anchor="start" x="169" y="-70.5" font-family="Helvetica,sans-Serif" font-size="10.00">+ controlPolynomialOrder</text>
<text text-anchor="start" x="169" y="-59.5" font-family="Helvetica,sans-Serif" font-size="10.00">+ controlSnapToGrid</text>
<text text-anchor="start" x="169" y="-48.5" font-family="Helvetica,sans-Serif" font-size="10.00">+ settings</text>
<text text-anchor="start" x="169" y="-37.5" font-family="Helvetica,sans-Serif" font-size="10.00">+ signal_object_changed</text>
<polyline fill="none" stroke="black" points="161,-30.5 304,-30.5 "/>
<text text-anchor="start" x="169" y="-18.5" font-family="Helvetica,sans-Serif" font-size="10.00">+ __init__()</text>
<text text-anchor="start" x="169" y="-7.5" font-family="Helvetica,sans-Serif" font-size="10.00">+ updateSettings()</text>
</a>
</g>
</g>
<!-- Node1&#45;&gt;Node3 -->
<g id="edge2" class="edge">
<title>Node1&#45;&gt;Node3</title>
<path fill="none" stroke="midnightblue" d="M173.95,-162.83C179.43,-154 185.47,-144.28 191.51,-134.53"/>
<polygon fill="none" stroke="midnightblue" points="170.98,-160.98 168.68,-171.32 176.93,-164.67 170.98,-160.98"/>
</g>
</g>
</svg>
