<?xml version="1.0" encoding="UTF-8" standalone="no"?>
<!DOCTYPE svg PUBLIC "-//W3C//DTD SVG 1.1//EN"
 "http://www.w3.org/Graphics/SVG/1.1/DTD/svg11.dtd">
<!-- Generated by graphviz version 2.43.0 (0)
 -->
<!-- Title: cie::geo::boolean::Cube&lt; Dimension, CoordinateType &gt; Pages: 1 -->
<svg width="504pt" height="979pt"
 viewBox="0.00 0.00 503.50 979.00" xmlns="http://www.w3.org/2000/svg" xmlns:xlink="http://www.w3.org/1999/xlink">
<g id="graph0" class="graph" transform="scale(1 1) rotate(0) translate(4 975)">
<title>cie::geo::boolean::Cube&lt; Dimension, CoordinateType &gt;</title>
<polygon fill="white" stroke="transparent" points="-4,4 -4,-975 499.5,-975 499.5,4 -4,4"/>
<!-- Node1 -->
<g id="node1" class="node">
<title>Node1</title>
<g id="a_node1"><a xlink:title="Cube with point membership test.">
<polygon fill="#bfbfbf" stroke="black" points="302.5,-33.5 302.5,-134.5 466.5,-134.5 466.5,-33.5 302.5,-33.5"/>
<text text-anchor="start" x="310.5" y="-122.5" font-family="Helvetica,sans-Serif" font-size="10.00">cie::geo::boolean::</text>
<text text-anchor="start" x="310.5" y="-111.5" font-family="Helvetica,sans-Serif" font-size="10.00">Cube&lt; Dimension, Coordinate</text>
<text text-anchor="middle" x="384.5" y="-100.5" font-family="Helvetica,sans-Serif" font-size="10.00">Type &gt;</text>
<polyline fill="none" stroke="black" points="302.5,-93.5 466.5,-93.5 "/>
<text text-anchor="middle" x="384.5" y="-81.5" font-family="Helvetica,sans-Serif" font-size="10.00"> </text>
<polyline fill="none" stroke="black" points="302.5,-74.5 466.5,-74.5 "/>
<text text-anchor="start" x="310.5" y="-62.5" font-family="Helvetica,sans-Serif" font-size="10.00">+ Cube()</text>
<text text-anchor="start" x="310.5" y="-51.5" font-family="Helvetica,sans-Serif" font-size="10.00">+ Cube()</text>
<text text-anchor="start" x="310.5" y="-40.5" font-family="Helvetica,sans-Serif" font-size="10.00"># at()</text>
</a>
</g>
</g>
<!-- Node2 -->
<g id="node2" class="node">
<title>Node2</title>
<g id="a_node2"><a xlink:href="classcie_1_1geo_1_1Cube.html" target="_top" xlink:title=" ">
<polygon fill="white" stroke="black" points="153.5,-226.5 153.5,-404.5 305.5,-404.5 305.5,-226.5 153.5,-226.5"/>
<text text-anchor="start" x="161.5" y="-392.5" font-family="Helvetica,sans-Serif" font-size="10.00">cie::geo::Cube&lt; Dimension,</text>
<text text-anchor="middle" x="229.5" y="-381.5" font-family="Helvetica,sans-Serif" font-size="10.00"> Double &gt;</text>
<polyline fill="none" stroke="black" points="153.5,-374.5 305.5,-374.5 "/>
<text text-anchor="start" x="161.5" y="-362.5" font-family="Helvetica,sans-Serif" font-size="10.00"># _base</text>
<text text-anchor="start" x="161.5" y="-351.5" font-family="Helvetica,sans-Serif" font-size="10.00"># _length</text>
<polyline fill="none" stroke="black" points="153.5,-344.5 305.5,-344.5 "/>
<text text-anchor="start" x="161.5" y="-332.5" font-family="Helvetica,sans-Serif" font-size="10.00">+ Cube()</text>
<text text-anchor="start" x="161.5" y="-321.5" font-family="Helvetica,sans-Serif" font-size="10.00">+ Cube()</text>
<text text-anchor="start" x="161.5" y="-310.5" font-family="Helvetica,sans-Serif" font-size="10.00">+ Cube()</text>
<text text-anchor="start" x="161.5" y="-299.5" font-family="Helvetica,sans-Serif" font-size="10.00">+ Cube()</text>
<text text-anchor="start" x="161.5" y="-288.5" font-family="Helvetica,sans-Serif" font-size="10.00">+ operator=()</text>
<text text-anchor="start" x="161.5" y="-277.5" font-family="Helvetica,sans-Serif" font-size="10.00">+ isDegenerate()</text>
<text text-anchor="start" x="161.5" y="-266.5" font-family="Helvetica,sans-Serif" font-size="10.00">+ base()</text>
<text text-anchor="start" x="161.5" y="-255.5" font-family="Helvetica,sans-Serif" font-size="10.00">+ base()</text>
<text text-anchor="start" x="161.5" y="-244.5" font-family="Helvetica,sans-Serif" font-size="10.00">+ length()</text>
<text text-anchor="start" x="161.5" y="-233.5" font-family="Helvetica,sans-Serif" font-size="10.00">+ length()</text>
</a>
</g>
</g>
<!-- Node2&#45;&gt;Node1 -->
<g id="edge1" class="edge">
<title>Node2&#45;&gt;Node1</title>
<path fill="none" stroke="midnightblue" d="M313.03,-228.33C313.86,-227.55 314.68,-226.77 315.5,-226 324.46,-217.58 329.39,-218.03 336.5,-208 352.09,-186.03 363.48,-158.32 371.24,-134.76"/>
<polygon fill="none" stroke="midnightblue" points="310.37,-226.03 305.57,-235.48 315.21,-231.09 310.37,-226.03"/>
</g>
<!-- Node7 -->
<g id="node7" class="node">
<title>Node7</title>
<g id="a_node7"><a xlink:href="classcie_1_1geo_1_1Cube.html" target="_top" xlink:title="Cube template.">
<polygon fill="white" stroke="black" points="85.5,-0.5 85.5,-167.5 237.5,-167.5 237.5,-0.5 85.5,-0.5"/>
<text text-anchor="start" x="93.5" y="-155.5" font-family="Helvetica,sans-Serif" font-size="10.00">cie::geo::Cube&lt; Dimension,</text>
<text text-anchor="middle" x="161.5" y="-144.5" font-family="Helvetica,sans-Serif" font-size="10.00"> CoordinateType &gt;</text>
<polyline fill="none" stroke="black" points="85.5,-137.5 237.5,-137.5 "/>
<text text-anchor="middle" x="161.5" y="-125.5" font-family="Helvetica,sans-Serif" font-size="10.00"> </text>
<polyline fill="none" stroke="black" points="85.5,-118.5 237.5,-118.5 "/>
<text text-anchor="start" x="93.5" y="-106.5" font-family="Helvetica,sans-Serif" font-size="10.00">+ Cube()</text>
<text text-anchor="start" x="93.5" y="-95.5" font-family="Helvetica,sans-Serif" font-size="10.00">+ Cube()</text>
<text text-anchor="start" x="93.5" y="-84.5" font-family="Helvetica,sans-Serif" font-size="10.00">+ Cube()</text>
<text text-anchor="start" x="93.5" y="-73.5" font-family="Helvetica,sans-Serif" font-size="10.00">+ Cube()</text>
<text text-anchor="start" x="93.5" y="-62.5" font-family="Helvetica,sans-Serif" font-size="10.00">+ operator=()</text>
<text text-anchor="start" x="93.5" y="-51.5" font-family="Helvetica,sans-Serif" font-size="10.00">+ isDegenerate()</text>
<text text-anchor="start" x="93.5" y="-40.5" font-family="Helvetica,sans-Serif" font-size="10.00">+ base()</text>
<text text-anchor="start" x="93.5" y="-29.5" font-family="Helvetica,sans-Serif" font-size="10.00">+ length()</text>
<text text-anchor="start" x="93.5" y="-18.5" font-family="Helvetica,sans-Serif" font-size="10.00">+ base()</text>
<text text-anchor="start" x="93.5" y="-7.5" font-family="Helvetica,sans-Serif" font-size="10.00">+ length()</text>
</a>
</g>
</g>
<!-- Node2&#45;&gt;Node7 -->
<g id="edge11" class="edge">
<title>Node2&#45;&gt;Node7</title>
<path fill="none" stroke="#404040" d="M165.43,-226.34C162.72,-220.3 160.37,-214.17 158.5,-208 155.78,-199.02 154.08,-189.49 153.14,-179.88"/>
<polygon fill="none" stroke="#404040" points="153.12,-179.66 148.73,-173.94 152.32,-167.69 156.71,-173.4 153.12,-179.66"/>
<text text-anchor="middle" x="181" y="-200" font-family="Helvetica,sans-Serif" font-size="10.00"> #_base</text>
<text text-anchor="middle" x="181" y="-189" font-family="Helvetica,sans-Serif" font-size="10.00">#_length</text>
</g>
<!-- Node3 -->
<g id="node3" class="node">
<title>Node3</title>
<g id="a_node3"><a xlink:href="classcie_1_1geo_1_1AbsPrimitive.html" target="_top" xlink:title=" ">
<polygon fill="white" stroke="black" points="0,-480 0,-559 173,-559 173,-480 0,-480"/>
<text text-anchor="start" x="8" y="-547" font-family="Helvetica,sans-Serif" font-size="10.00">cie::geo::AbsPrimitive</text>
<text text-anchor="middle" x="86.5" y="-536" font-family="Helvetica,sans-Serif" font-size="10.00">&lt; Dimension, CoordinateType &gt;</text>
<polyline fill="none" stroke="black" points="0,-529 173,-529 "/>
<text text-anchor="middle" x="86.5" y="-517" font-family="Helvetica,sans-Serif" font-size="10.00"> </text>
<polyline fill="none" stroke="black" points="0,-510 173,-510 "/>
<text text-anchor="start" x="8" y="-498" font-family="Helvetica,sans-Serif" font-size="10.00">+ ~AbsPrimitive()</text>
<text text-anchor="start" x="8" y="-487" font-family="Helvetica,sans-Serif" font-size="10.00">+ isDegenerate()</text>
</a>
</g>
</g>
<!-- Node3&#45;&gt;Node2 -->
<g id="edge2" class="edge">
<title>Node3&#45;&gt;Node2</title>
<path fill="none" stroke="midnightblue" d="M162.13,-473.55C172.35,-465.05 181.91,-455.49 189.5,-445 198.2,-432.98 205.04,-419.02 210.42,-404.81"/>
<polygon fill="none" stroke="midnightblue" points="159.86,-470.88 154.21,-479.84 164.21,-476.37 159.86,-470.88"/>
</g>
<!-- Node8 -->
<g id="node8" class="node">
<title>Node8</title>
<g id="a_node8"><a xlink:href="classcie_1_1geo_1_1AbsPrimitive.html" target="_top" xlink:title=" ">
<polygon fill="white" stroke="black" points="3.5,-276 3.5,-355 135.5,-355 135.5,-276 3.5,-276"/>
<text text-anchor="start" x="11.5" y="-343" font-family="Helvetica,sans-Serif" font-size="10.00">cie::geo::AbsPrimitive</text>
<text text-anchor="middle" x="69.5" y="-332" font-family="Helvetica,sans-Serif" font-size="10.00">&lt; Dimension, Double &gt;</text>
<polyline fill="none" stroke="black" points="3.5,-325 135.5,-325 "/>
<text text-anchor="middle" x="69.5" y="-313" font-family="Helvetica,sans-Serif" font-size="10.00"> </text>
<polyline fill="none" stroke="black" points="3.5,-306 135.5,-306 "/>
<text text-anchor="start" x="11.5" y="-294" font-family="Helvetica,sans-Serif" font-size="10.00">+ ~AbsPrimitive()</text>
<text text-anchor="start" x="11.5" y="-283" font-family="Helvetica,sans-Serif" font-size="10.00">+ isDegenerate()</text>
</a>
</g>
</g>
<!-- Node3&#45;&gt;Node8 -->
<g id="edge10" class="edge">
<title>Node3&#45;&gt;Node8</title>
<path fill="none" stroke="orange" d="M74.45,-469.93C72.82,-461.66 71.41,-453.12 70.5,-445 67.15,-414.96 67.07,-380.72 67.73,-355.14"/>
<polygon fill="orange" stroke="orange" points="71.05,-470.77 76.52,-479.84 77.9,-469.34 71.05,-470.77"/>
<text text-anchor="middle" x="130" y="-431.5" font-family="Helvetica,sans-Serif" font-size="10.00"> &lt; Dimension, Double &gt;</text>
</g>
<!-- Node4 -->
<g id="node4" class="node">
<title>Node4</title>
<g id="a_node4"><a xlink:href="classcie_1_1geo_1_1Traits.html" target="_top" xlink:title=" ">
<polygon fill="white" stroke="black" points="9.5,-681.5 9.5,-749.5 163.5,-749.5 163.5,-681.5 9.5,-681.5"/>
<text text-anchor="start" x="17.5" y="-737.5" font-family="Helvetica,sans-Serif" font-size="10.00">cie::geo::Traits&lt; Dimension,</text>
<text text-anchor="middle" x="86.5" y="-726.5" font-family="Helvetica,sans-Serif" font-size="10.00"> Double &gt;</text>
<polyline fill="none" stroke="black" points="9.5,-719.5 163.5,-719.5 "/>
<text text-anchor="start" x="17.5" y="-707.5" font-family="Helvetica,sans-Serif" font-size="10.00">+ Dimension</text>
<polyline fill="none" stroke="black" points="9.5,-700.5 163.5,-700.5 "/>
<text text-anchor="middle" x="86.5" y="-688.5" font-family="Helvetica,sans-Serif" font-size="10.00"> </text>
</a>
</g>
</g>
<!-- Node4&#45;&gt;Node3 -->
<g id="edge3" class="edge">
<title>Node4&#45;&gt;Node3</title>
<path fill="none" stroke="midnightblue" d="M86.5,-670.72C86.5,-637.15 86.5,-591.27 86.5,-559.07"/>
<polygon fill="none" stroke="midnightblue" points="83,-671.15 86.5,-681.15 90,-671.15 83,-671.15"/>
</g>
<!-- Node5 -->
<g id="node5" class="node">
<title>Node5</title>
<g id="a_node5"><a xlink:href="classcie_1_1geo_1_1Traits.html" target="_top" xlink:title="Basic templated traits that every object has in GEO.">
<polygon fill="white" stroke="black" points="167.5,-797.5 167.5,-865.5 289.5,-865.5 289.5,-797.5 167.5,-797.5"/>
<text text-anchor="start" x="175.5" y="-853.5" font-family="Helvetica,sans-Serif" font-size="10.00">cie::geo::Traits&lt; Dim,</text>
<text text-anchor="middle" x="228.5" y="-842.5" font-family="Helvetica,sans-Serif" font-size="10.00"> TCoordinate &gt;</text>
<polyline fill="none" stroke="black" points="167.5,-835.5 289.5,-835.5 "/>
<text text-anchor="middle" x="228.5" y="-823.5" font-family="Helvetica,sans-Serif" font-size="10.00"> </text>
<polyline fill="none" stroke="black" points="167.5,-816.5 289.5,-816.5 "/>
<text text-anchor="middle" x="228.5" y="-804.5" font-family="Helvetica,sans-Serif" font-size="10.00"> </text>
</a>
</g>
</g>
<!-- Node5&#45;&gt;Node4 -->
<g id="edge4" class="edge">
<title>Node5&#45;&gt;Node4</title>
<path fill="none" stroke="orange" d="M157.45,-821.62C131.1,-814.52 103.71,-801.78 87.5,-779 81.52,-770.6 79.85,-759.83 80.1,-749.6"/>
<polygon fill="orange" stroke="orange" points="156.93,-825.1 167.47,-824.08 158.59,-818.3 156.93,-825.1"/>
<text text-anchor="middle" x="147" y="-771" font-family="Helvetica,sans-Serif" font-size="10.00"> &lt; Dimension, Double &gt;</text>
</g>
<!-- Node9 -->
<g id="node9" class="node">
<title>Node9</title>
<g id="a_node9"><a xlink:href="classcie_1_1geo_1_1Traits.html" target="_top" xlink:title=" ">
<polygon fill="white" stroke="black" points="151.5,-594.5 151.5,-662.5 305.5,-662.5 305.5,-594.5 151.5,-594.5"/>
<text text-anchor="start" x="159.5" y="-650.5" font-family="Helvetica,sans-Serif" font-size="10.00">cie::geo::Traits&lt; Dimension,</text>
<text text-anchor="middle" x="228.5" y="-639.5" font-family="Helvetica,sans-Serif" font-size="10.00"> CoordinateType &gt;</text>
<polyline fill="none" stroke="black" points="151.5,-632.5 305.5,-632.5 "/>
<text text-anchor="start" x="159.5" y="-620.5" font-family="Helvetica,sans-Serif" font-size="10.00">+ Dimension</text>
<polyline fill="none" stroke="black" points="151.5,-613.5 305.5,-613.5 "/>
<text text-anchor="middle" x="228.5" y="-601.5" font-family="Helvetica,sans-Serif" font-size="10.00"> </text>
</a>
</g>
</g>
<!-- Node5&#45;&gt;Node9 -->
<g id="edge9" class="edge">
<title>Node5&#45;&gt;Node9</title>
<path fill="none" stroke="orange" d="M225.8,-787.21C225.68,-784.43 225.58,-781.68 225.5,-779 224.34,-739.04 225.66,-693.05 226.9,-662.76"/>
<polygon fill="orange" stroke="orange" points="222.3,-787.45 226.28,-797.27 229.29,-787.11 222.3,-787.45"/>
<text text-anchor="middle" x="305.5" y="-771" font-family="Helvetica,sans-Serif" font-size="10.00"> &lt; Dimension, CoordinateType &gt;</text>
</g>
<!-- Node11 -->
<g id="node11" class="node">
<title>Node11</title>
<g id="a_node11"><a xlink:href="classcie_1_1geo_1_1Traits.html" target="_top" xlink:title=" ">
<polygon fill="white" stroke="black" points="357,-681.5 357,-749.5 466,-749.5 466,-681.5 357,-681.5"/>
<text text-anchor="start" x="365" y="-737.5" font-family="Helvetica,sans-Serif" font-size="10.00">cie::geo::Traits&lt; N,</text>
<text text-anchor="middle" x="411.5" y="-726.5" font-family="Helvetica,sans-Serif" font-size="10.00"> TCoordinate &gt;</text>
<polyline fill="none" stroke="black" points="357,-719.5 466,-719.5 "/>
<text text-anchor="start" x="365" y="-707.5" font-family="Helvetica,sans-Serif" font-size="10.00">+ Dimension</text>
<polyline fill="none" stroke="black" points="357,-700.5 466,-700.5 "/>
<text text-anchor="middle" x="411.5" y="-688.5" font-family="Helvetica,sans-Serif" font-size="10.00"> </text>
</a>
</g>
</g>
<!-- Node5&#45;&gt;Node11 -->
<g id="edge14" class="edge">
<title>Node5&#45;&gt;Node11</title>
<path fill="none" stroke="orange" d="M299.52,-822.17C330.59,-815.21 365.38,-802.43 389.5,-779 397.59,-771.14 402.7,-760.14 405.94,-749.56"/>
<polygon fill="orange" stroke="orange" points="298.66,-818.77 289.58,-824.23 300.08,-825.63 298.66,-818.77"/>
<text text-anchor="middle" x="446.5" y="-771" font-family="Helvetica,sans-Serif" font-size="10.00"> &lt; N, TCoordinate &gt;</text>
</g>
<!-- Node6 -->
<g id="node6" class="node">
<title>Node6</title>
<g id="a_node6"><a xlink:title=" ">
<polygon fill="white" stroke="#bfbfbf" points="206,-913.5 206,-970.5 251,-970.5 251,-913.5 206,-913.5"/>
<text text-anchor="middle" x="228.5" y="-958.5" font-family="Helvetica,sans-Serif" font-size="10.00">size_t</text>
<polyline fill="none" stroke="#bfbfbf" points="206,-951.5 251,-951.5 "/>
<text text-anchor="middle" x="228.5" y="-939.5" font-family="Helvetica,sans-Serif" font-size="10.00"> </text>
<polyline fill="none" stroke="#bfbfbf" points="206,-932.5 251,-932.5 "/>
<text text-anchor="middle" x="228.5" y="-920.5" font-family="Helvetica,sans-Serif" font-size="10.00"> </text>
</a>
</g>
</g>
<!-- Node6&#45;&gt;Node5 -->
<g id="edge5" class="edge">
<title>Node6&#45;&gt;Node5</title>
<path fill="none" stroke="#404040" d="M228.5,-913.34C228.5,-902.53 228.5,-889.85 228.5,-877.77"/>
<polygon fill="none" stroke="#404040" points="228.5,-877.52 224.5,-871.52 228.5,-865.52 232.5,-871.52 228.5,-877.52"/>
<text text-anchor="middle" x="260.5" y="-887" font-family="Helvetica,sans-Serif" font-size="10.00"> +Dimension</text>
</g>
<!-- Node7&#45;&gt;Node2 -->
<g id="edge6" class="edge">
<title>Node7&#45;&gt;Node2</title>
<path fill="none" stroke="orange" d="M204.6,-177.11C205.62,-180.09 206.59,-183.06 207.5,-186 211.46,-198.87 214.77,-212.7 217.51,-226.35"/>
<polygon fill="orange" stroke="orange" points="207.84,-175.78 201.15,-167.56 201.26,-178.16 207.84,-175.78"/>
<text text-anchor="middle" x="273" y="-194.5" font-family="Helvetica,sans-Serif" font-size="10.00"> &lt; Dimension, Double &gt;</text>
</g>
<!-- Node8&#45;&gt;Node7 -->
<g id="edge7" class="edge">
<title>Node8&#45;&gt;Node7</title>
<path fill="none" stroke="midnightblue" d="M88.75,-266.48C100.21,-237.89 115.06,-200.84 128.36,-167.68"/>
<polygon fill="none" stroke="midnightblue" points="85.47,-265.24 85,-275.83 91.97,-267.85 85.47,-265.24"/>
</g>
<!-- Node9&#45;&gt;Node8 -->
<g id="edge8" class="edge">
<title>Node9&#45;&gt;Node8</title>
<path fill="none" stroke="midnightblue" d="M232.86,-584.24C234.99,-538.94 231.12,-468.2 193.5,-423 178.66,-405.17 163.52,-418.29 144.5,-405 125.52,-391.73 108.45,-372.53 95.42,-355.39"/>
<polygon fill="none" stroke="midnightblue" points="229.36,-584.16 232.26,-594.34 236.35,-584.57 229.36,-584.16"/>
</g>
<!-- Node10 -->
<g id="node10" class="node">
<title>Node10</title>
<g id="a_node10"><a xlink:href="classcie_1_1geo_1_1Object.html" target="_top" xlink:title=" ">
<polygon fill="white" stroke="black" points="324,-259.5 324,-371.5 483,-371.5 483,-259.5 324,-259.5"/>
<text text-anchor="start" x="332" y="-359.5" font-family="Helvetica,sans-Serif" font-size="10.00">cie::geo::Object&lt; Dimension,</text>
<text text-anchor="middle" x="403.5" y="-348.5" font-family="Helvetica,sans-Serif" font-size="10.00"> Bool, Double &gt;</text>
<polyline fill="none" stroke="black" points="324,-341.5 483,-341.5 "/>
<text text-anchor="middle" x="403.5" y="-329.5" font-family="Helvetica,sans-Serif" font-size="10.00"> </text>
<polyline fill="none" stroke="black" points="324,-322.5 483,-322.5 "/>
<text text-anchor="start" x="332" y="-310.5" font-family="Helvetica,sans-Serif" font-size="10.00">+ ~Object()</text>
<text text-anchor="start" x="332" y="-299.5" font-family="Helvetica,sans-Serif" font-size="10.00">+ evaluate()</text>
<text text-anchor="start" x="332" y="-288.5" font-family="Helvetica,sans-Serif" font-size="10.00">+ evaluate()</text>
<text text-anchor="start" x="332" y="-277.5" font-family="Helvetica,sans-Serif" font-size="10.00">+ evaluate()</text>
<text text-anchor="start" x="332" y="-266.5" font-family="Helvetica,sans-Serif" font-size="10.00">+ at()</text>
</a>
</g>
</g>
<!-- Node10&#45;&gt;Node1 -->
<g id="edge12" class="edge">
<title>Node10&#45;&gt;Node1</title>
<path fill="none" stroke="midnightblue" d="M398.09,-249.21C395.08,-212.82 391.39,-168.23 388.61,-134.7"/>
<polygon fill="none" stroke="midnightblue" points="394.61,-249.56 398.92,-259.24 401.59,-248.98 394.61,-249.56"/>
</g>
<!-- Node11&#45;&gt;Node10 -->
<g id="edge13" class="edge">
<title>Node11&#45;&gt;Node10</title>
<path fill="none" stroke="midnightblue" d="M427.31,-671.64C446.2,-614.47 472.98,-510.33 453.5,-423 449.61,-405.56 442.54,-387.59 434.91,-371.51"/>
<polygon fill="none" stroke="midnightblue" points="423.89,-670.82 424,-681.42 430.52,-673.07 423.89,-670.82"/>
</g>
<!-- Node12 -->
<g id="node12" class="node">
<title>Node12</title>
<g id="a_node12"><a xlink:href="classcie_1_1geo_1_1Object.html" target="_top" xlink:title="Interface for point&#45;queriable objects.">
<polygon fill="white" stroke="black" points="301.5,-463.5 301.5,-575.5 429.5,-575.5 429.5,-463.5 301.5,-463.5"/>
<text text-anchor="start" x="309.5" y="-563.5" font-family="Helvetica,sans-Serif" font-size="10.00">cie::geo::Object&lt; N,</text>
<text text-anchor="middle" x="365.5" y="-552.5" font-family="Helvetica,sans-Serif" font-size="10.00"> TValue, TCoordinate &gt;</text>
<polyline fill="none" stroke="black" points="301.5,-545.5 429.5,-545.5 "/>
<text text-anchor="middle" x="365.5" y="-533.5" font-family="Helvetica,sans-Serif" font-size="10.00"> </text>
<polyline fill="none" stroke="black" points="301.5,-526.5 429.5,-526.5 "/>
<text text-anchor="start" x="309.5" y="-514.5" font-family="Helvetica,sans-Serif" font-size="10.00">+ ~Object()</text>
<text text-anchor="start" x="309.5" y="-503.5" font-family="Helvetica,sans-Serif" font-size="10.00">+ evaluate()</text>
<text text-anchor="start" x="309.5" y="-492.5" font-family="Helvetica,sans-Serif" font-size="10.00">+ evaluate()</text>
<text text-anchor="start" x="309.5" y="-481.5" font-family="Helvetica,sans-Serif" font-size="10.00">+ evaluate()</text>
<text text-anchor="start" x="309.5" y="-470.5" font-family="Helvetica,sans-Serif" font-size="10.00">+ at()</text>
</a>
</g>
</g>
<!-- Node11&#45;&gt;Node12 -->
<g id="edge16" class="edge">
<title>Node11&#45;&gt;Node12</title>
<path fill="none" stroke="midnightblue" d="M401.23,-671.2C394.56,-643.04 385.79,-606.06 378.61,-575.78"/>
<polygon fill="none" stroke="midnightblue" points="397.88,-672.23 403.59,-681.15 404.69,-670.61 397.88,-672.23"/>
</g>
<!-- Node12&#45;&gt;Node10 -->
<g id="edge15" class="edge">
<title>Node12&#45;&gt;Node10</title>
<path fill="none" stroke="orange" d="M353.19,-453.28C352.84,-443.09 353.41,-432.72 355.5,-423 359.23,-405.65 366.02,-387.72 373.34,-371.63"/>
<polygon fill="orange" stroke="orange" points="349.7,-453.63 353.82,-463.39 356.69,-453.19 349.7,-453.63"/>
<text text-anchor="start" x="355.5" y="-437" font-family="Helvetica,sans-Serif" font-size="10.00"> &lt; Dimension, Bool,</text>
<text text-anchor="middle" x="404.5" y="-426" font-family="Helvetica,sans-Serif" font-size="10.00"> Double &gt;</text>
</g>
</g>
</svg>
