<?xml version="1.0" encoding="UTF-8" standalone="no"?>
<!DOCTYPE svg PUBLIC "-//W3C//DTD SVG 1.1//EN"
 "http://www.w3.org/Graphics/SVG/1.1/DTD/svg11.dtd">
<!-- Generated by graphviz version 2.43.0 (0)
 -->
<!-- Title: cie::geo::StructuredMarchingPrimitives&lt; TTarget, TPrimitive &gt; Pages: 1 -->
<!--zoomable 602 -->
<svg id="main" version="1.1" xmlns="http://www.w3.org/2000/svg" xmlns:xlink="http://www.w3.org/1999/xlink" xml:space="preserve" onload="init(evt)">
<style type="text/css"><![CDATA[
.edge:hover path { stroke: red; }
.edge:hover polygon { stroke: red; fill: red; }
]]></style>
<script type="text/javascript"><![CDATA[
var edges = document.getElementsByTagName('g');
if (edges && edges.length) {
  for (var i=0;i<edges.length;i++) {
    if (edges[i].id.substr(0,4)=='edge') {
      edges[i].setAttribute('class','edge');
    }
  }
}
]]></script>
        <defs>
                <circle id="rim" cx="0" cy="0" r="7"/>
                <circle id="rim2" cx="0" cy="0" r="3.5"/>
                <g id="zoomPlus">
                        <use xlink:href="#rim" fill="#404040">
                                <set attributeName="fill" to="#808080" begin="zoomplus.mouseover" end="zoomplus.mouseout"/>
                        </use>
                        <path d="M-4,0h8M0,-4v8" fill="none" stroke="white" stroke-width="1.5" pointer-events="none"/>
                </g>
                <g id="zoomMin">
                        <use xlink:href="#rim" fill="#404040">
                                <set attributeName="fill" to="#808080" begin="zoomminus.mouseover" end="zoomminus.mouseout"/>
                        </use>
                        <path d="M-4,0h8" fill="none" stroke="white" stroke-width="1.5" pointer-events="none"/>
                </g>
                <g id="dirArrow">
                        <path fill="none" stroke="white" stroke-width="1.5" d="M0,-3.0v7 M-2.5,-0.5L0,-3.0L2.5,-0.5"/>
                </g>
               <g id="resetDef">
                       <use xlink:href="#rim2" fill="#404040">
                               <set attributeName="fill" to="#808080" begin="reset.mouseover" end="reset.mouseout"/>
                       </use>
               </g>
        </defs>

<script type="text/javascript">
var viewWidth = 760;
var viewHeight = 602;
var sectionId = 'dynsection-1';
</script>
<script xlink:href="svgpan.js"/>
<svg id="graph" class="graph">
<g id="viewport">
<title>cie::geo::StructuredMarchingPrimitives&lt; TTarget, TPrimitive &gt;</title>
<polygon fill="white" stroke="transparent" points="-4,4 -4,-598 755.5,-598 755.5,4 -4,4"/>
<!-- Node1 -->
<g id="node1" class="node">
<title>Node1</title>
<g id="a_node1"><a xlink:title="MarchingPrimitives that scans a cartesian mesh of primitives.">
<polygon fill="#bfbfbf" stroke="black" points="417,-0.5 417,-112.5 598,-112.5 598,-0.5 417,-0.5"/>
<text text-anchor="start" x="425" y="-100.5" font-family="Helvetica,sans-Serif" font-size="10.00">cie::geo::StructuredMarching</text>
<text text-anchor="middle" x="507.5" y="-89.5" font-family="Helvetica,sans-Serif" font-size="10.00">Primitives&lt; TTarget, TPrimitive &gt;</text>
<polyline fill="none" stroke="black" points="417,-82.5 598,-82.5 "/>
<text text-anchor="middle" x="507.5" y="-70.5" font-family="Helvetica,sans-Serif" font-size="10.00"> </text>
<polyline fill="none" stroke="black" points="417,-63.5 598,-63.5 "/>
<text text-anchor="start" x="425" y="-51.5" font-family="Helvetica,sans-Serif" font-size="10.00">+ StructuredMarchingPrimitives()</text>
<text text-anchor="start" x="425" y="-40.5" font-family="Helvetica,sans-Serif" font-size="10.00">+ getGlobalVertexIndex()</text>
<text text-anchor="start" x="425" y="-29.5" font-family="Helvetica,sans-Serif" font-size="10.00">+ getVertex()</text>
<text text-anchor="start" x="425" y="-18.5" font-family="Helvetica,sans-Serif" font-size="10.00"># getPointInCartesianMesh()</text>
<text text-anchor="start" x="425" y="-7.5" font-family="Helvetica,sans-Serif" font-size="10.00"># getCartesianIndex()</text>
</a>
</g>
</g>
<!-- Node2 -->
<g id="node2" class="node">
<title>Node2</title>
<g id="a_node2"><a xlink:href="classcie_1_1geo_1_1MarchingPrimitives.html" target="_top" xlink:title=" ">
<polygon fill="white" stroke="black" points="269,-171.5 269,-250.5 424,-250.5 424,-171.5 269,-171.5"/>
<text text-anchor="start" x="277" y="-238.5" font-family="Helvetica,sans-Serif" font-size="10.00">cie::geo::MarchingPrimitives</text>
<text text-anchor="middle" x="346.5" y="-227.5" font-family="Helvetica,sans-Serif" font-size="10.00">&lt; TTarget, TPrimitive &gt;</text>
<polyline fill="none" stroke="black" points="269,-220.5 424,-220.5 "/>
<text text-anchor="middle" x="346.5" y="-208.5" font-family="Helvetica,sans-Serif" font-size="10.00"> </text>
<polyline fill="none" stroke="black" points="269,-201.5 424,-201.5 "/>
<text text-anchor="start" x="277" y="-189.5" font-family="Helvetica,sans-Serif" font-size="10.00">+ MarchingPrimitives()</text>
<text text-anchor="start" x="277" y="-178.5" font-family="Helvetica,sans-Serif" font-size="10.00">+ getVertexOnPrimitive()</text>
</a>
</g>
</g>
<!-- Node2&#45;&gt;Node1 -->
<g id="edge1" class="edge">
<title>Node2&#45;&gt;Node1</title>
<path fill="none" stroke="midnightblue" d="M395.19,-163.88C412.21,-147.76 431.49,-129.49 449.22,-112.71"/>
<polygon fill="none" stroke="midnightblue" points="392.4,-161.71 387.54,-171.12 397.21,-166.79 392.4,-161.71"/>
</g>
<!-- Node3 -->
<g id="node3" class="node">
<title>Node3</title>
<g id="a_node3"><a xlink:href="classcie_1_1geo_1_1AbsMarchingPrimitives.html" target="_top" xlink:title=" ">
<polygon fill="white" stroke="black" points="253.5,-288.5 253.5,-477.5 439.5,-477.5 439.5,-288.5 253.5,-288.5"/>
<text text-anchor="start" x="261.5" y="-465.5" font-family="Helvetica,sans-Serif" font-size="10.00">cie::geo::AbsMarchingPrimitives</text>
<text text-anchor="middle" x="346.5" y="-454.5" font-family="Helvetica,sans-Serif" font-size="10.00">&lt; TTarget &gt;</text>
<polyline fill="none" stroke="black" points="253.5,-447.5 439.5,-447.5 "/>
<text text-anchor="middle" x="346.5" y="-435.5" font-family="Helvetica,sans-Serif" font-size="10.00"> </text>
<polyline fill="none" stroke="black" points="253.5,-428.5 439.5,-428.5 "/>
<text text-anchor="start" x="261.5" y="-416.5" font-family="Helvetica,sans-Serif" font-size="10.00">+ AbsMarchingPrimitives()</text>
<text text-anchor="start" x="261.5" y="-405.5" font-family="Helvetica,sans-Serif" font-size="10.00">+ ~AbsMarchingPrimitives()</text>
<text text-anchor="start" x="261.5" y="-394.5" font-family="Helvetica,sans-Serif" font-size="10.00">+ execute()</text>
<text text-anchor="start" x="261.5" y="-383.5" font-family="Helvetica,sans-Serif" font-size="10.00">+ execute()</text>
<text text-anchor="start" x="261.5" y="-372.5" font-family="Helvetica,sans-Serif" font-size="10.00">+ setOutputFunctor()</text>
<text text-anchor="start" x="261.5" y="-361.5" font-family="Helvetica,sans-Serif" font-size="10.00"># AbsMarchingPrimitives()</text>
<text text-anchor="start" x="261.5" y="-350.5" font-family="Helvetica,sans-Serif" font-size="10.00"># AbsMarchingPrimitives()</text>
<text text-anchor="start" x="261.5" y="-339.5" font-family="Helvetica,sans-Serif" font-size="10.00"># operator=()</text>
<text text-anchor="start" x="261.5" y="-328.5" font-family="Helvetica,sans-Serif" font-size="10.00"># getVertex()</text>
<text text-anchor="start" x="261.5" y="-317.5" font-family="Helvetica,sans-Serif" font-size="10.00"># getVertices()</text>
<text text-anchor="start" x="261.5" y="-306.5" font-family="Helvetica,sans-Serif" font-size="10.00"># primitiveVertexCount()</text>
<text text-anchor="start" x="261.5" y="-295.5" font-family="Helvetica,sans-Serif" font-size="10.00"># numberOfRemainingPrimitives()</text>
</a>
</g>
</g>
<!-- Node3&#45;&gt;Node2 -->
<g id="edge2" class="edge">
<title>Node3&#45;&gt;Node2</title>
<path fill="none" stroke="midnightblue" d="M346.5,-277.91C346.5,-268.29 346.5,-259 346.5,-250.6"/>
<polygon fill="none" stroke="midnightblue" points="343,-278.05 346.5,-288.05 350,-278.05 343,-278.05"/>
</g>
<!-- Node4 -->
<g id="node4" class="node">
<title>Node4</title>
<g id="a_node4"><a xlink:href="classGetTraitsT.html" target="_top" xlink:title=" ">
<polygon fill="white" stroke="black" points="0,-531 0,-588 125,-588 125,-531 0,-531"/>
<text text-anchor="middle" x="62.5" y="-576" font-family="Helvetica,sans-Serif" font-size="10.00">GetTraitsT&lt; TTarget &gt;</text>
<polyline fill="none" stroke="black" points="0,-569 125,-569 "/>
<text text-anchor="middle" x="62.5" y="-557" font-family="Helvetica,sans-Serif" font-size="10.00"> </text>
<polyline fill="none" stroke="black" points="0,-550 125,-550 "/>
<text text-anchor="middle" x="62.5" y="-538" font-family="Helvetica,sans-Serif" font-size="10.00"> </text>
</a>
</g>
</g>
<!-- Node4&#45;&gt;Node3 -->
<g id="edge3" class="edge">
<title>Node4&#45;&gt;Node3</title>
<path fill="none" stroke="midnightblue" d="M116.49,-525.33C155.05,-501.64 207.9,-469.16 253.22,-441.31"/>
<polygon fill="none" stroke="midnightblue" points="114.19,-522.63 107.5,-530.85 117.85,-528.6 114.19,-522.63"/>
</g>
<!-- Node5 -->
<g id="node5" class="node">
<title>Node5</title>
<g id="a_node5"><a xlink:title=" ">
<polygon fill="white" stroke="#bfbfbf" points="143,-525.5 143,-593.5 274,-593.5 274,-525.5 143,-525.5"/>
<text text-anchor="start" x="151" y="-581.5" font-family="Helvetica,sans-Serif" font-size="10.00">Ptr&lt; const connectivity</text>
<text text-anchor="middle" x="208.5" y="-570.5" font-family="Helvetica,sans-Serif" font-size="10.00">_table &gt;</text>
<polyline fill="none" stroke="#bfbfbf" points="143,-563.5 274,-563.5 "/>
<text text-anchor="middle" x="208.5" y="-551.5" font-family="Helvetica,sans-Serif" font-size="10.00"> </text>
<polyline fill="none" stroke="#bfbfbf" points="143,-544.5 274,-544.5 "/>
<text text-anchor="middle" x="208.5" y="-532.5" font-family="Helvetica,sans-Serif" font-size="10.00"> </text>
</a>
</g>
</g>
<!-- Node5&#45;&gt;Node3 -->
<g id="edge4" class="edge">
<title>Node5&#45;&gt;Node3</title>
<path fill="none" stroke="#404040" d="M215.75,-525.34C218.78,-515.45 222.93,-504.88 228.5,-496 233.57,-487.92 239.36,-480.03 245.58,-472.4"/>
<polygon fill="none" stroke="#404040" points="245.6,-472.39 246.44,-465.23 253.38,-463.25 252.53,-470.41 245.6,-472.39"/>
<text text-anchor="middle" x="285.5" y="-499" font-family="Helvetica,sans-Serif" font-size="10.00"> #_p_connectivityTable</text>
</g>
<!-- Node6 -->
<g id="node6" class="node">
<title>Node6</title>
<g id="a_node6"><a xlink:title=" ">
<polygon fill="white" stroke="#bfbfbf" points="292,-525.5 292,-593.5 401,-593.5 401,-525.5 292,-525.5"/>
<text text-anchor="start" x="300" y="-581.5" font-family="Helvetica,sans-Serif" font-size="10.00">shared_ptr&lt; target</text>
<text text-anchor="middle" x="346.5" y="-570.5" font-family="Helvetica,sans-Serif" font-size="10.00">_type &gt;</text>
<polyline fill="none" stroke="#bfbfbf" points="292,-563.5 401,-563.5 "/>
<text text-anchor="middle" x="346.5" y="-551.5" font-family="Helvetica,sans-Serif" font-size="10.00"> </text>
<polyline fill="none" stroke="#bfbfbf" points="292,-544.5 401,-544.5 "/>
<text text-anchor="middle" x="346.5" y="-532.5" font-family="Helvetica,sans-Serif" font-size="10.00"> </text>
</a>
</g>
</g>
<!-- Node6&#45;&gt;Node3 -->
<g id="edge5" class="edge">
<title>Node6&#45;&gt;Node3</title>
<path fill="none" stroke="#404040" d="M346.5,-525.27C346.5,-514.85 346.5,-502.74 346.5,-490.08"/>
<polygon fill="none" stroke="#404040" points="346.5,-489.8 342.5,-483.8 346.5,-477.8 350.5,-483.8 346.5,-489.8"/>
<text text-anchor="middle" x="375.5" y="-499" font-family="Helvetica,sans-Serif" font-size="10.00"> #_p_target</text>
</g>
<!-- Node7 -->
<g id="node7" class="node">
<title>Node7</title>
<g id="a_node7"><a xlink:title=" ">
<polygon fill="white" stroke="#bfbfbf" points="419.5,-531 419.5,-588 555.5,-588 555.5,-531 419.5,-531"/>
<text text-anchor="middle" x="487.5" y="-576" font-family="Helvetica,sans-Serif" font-size="10.00">Ptr&lt; const edge_table &gt;</text>
<polyline fill="none" stroke="#bfbfbf" points="419.5,-569 555.5,-569 "/>
<text text-anchor="middle" x="487.5" y="-557" font-family="Helvetica,sans-Serif" font-size="10.00"> </text>
<polyline fill="none" stroke="#bfbfbf" points="419.5,-550 555.5,-550 "/>
<text text-anchor="middle" x="487.5" y="-538" font-family="Helvetica,sans-Serif" font-size="10.00"> </text>
</a>
</g>
</g>
<!-- Node7&#45;&gt;Node3 -->
<g id="edge6" class="edge">
<title>Node7&#45;&gt;Node3</title>
<path fill="none" stroke="#404040" d="M465.16,-530.85C455.23,-518.56 442.85,-503.24 429.88,-487.18"/>
<polygon fill="none" stroke="#404040" points="429.72,-486.99 422.84,-484.84 422.18,-477.66 429.06,-479.81 429.72,-486.99"/>
<text text-anchor="middle" x="484.5" y="-499" font-family="Helvetica,sans-Serif" font-size="10.00"> #_p_edgeTable</text>
</g>
<!-- Node8 -->
<g id="node8" class="node">
<title>Node8</title>
<g id="a_node8"><a xlink:title=" ">
<polygon fill="white" stroke="#bfbfbf" points="574,-525.5 574,-593.5 735,-593.5 735,-525.5 574,-525.5"/>
<text text-anchor="start" x="582" y="-581.5" font-family="Helvetica,sans-Serif" font-size="10.00">function&lt; void(Size,</text>
<text text-anchor="middle" x="654.5" y="-570.5" font-family="Helvetica,sans-Serif" font-size="10.00"> const output_arguments &amp;)&gt;</text>
<polyline fill="none" stroke="#bfbfbf" points="574,-563.5 735,-563.5 "/>
<text text-anchor="middle" x="654.5" y="-551.5" font-family="Helvetica,sans-Serif" font-size="10.00"> </text>
<polyline fill="none" stroke="#bfbfbf" points="574,-544.5 735,-544.5 "/>
<text text-anchor="middle" x="654.5" y="-532.5" font-family="Helvetica,sans-Serif" font-size="10.00"> </text>
</a>
</g>
</g>
<!-- Node8&#45;&gt;Node3 -->
<g id="edge7" class="edge">
<title>Node8&#45;&gt;Node3</title>
<path fill="none" stroke="#404040" d="M596.21,-525.47C555.1,-502.18 498.92,-470.35 450.26,-442.78"/>
<polygon fill="none" stroke="#404040" points="450.12,-442.7 442.92,-443.23 439.67,-436.79 446.87,-436.27 450.12,-442.7"/>
<text text-anchor="middle" x="605" y="-499" font-family="Helvetica,sans-Serif" font-size="10.00"> #_outputFunctor</text>
</g>
<!-- Node9 -->
<g id="node9" class="node">
<title>Node9</title>
<g id="a_node9"><a xlink:title=" ">
<polygon fill="white" stroke="#bfbfbf" points="442,-182.5 442,-239.5 497,-239.5 497,-182.5 442,-182.5"/>
<text text-anchor="middle" x="469.5" y="-227.5" font-family="Helvetica,sans-Serif" font-size="10.00">Domain</text>
<polyline fill="none" stroke="#bfbfbf" points="442,-220.5 497,-220.5 "/>
<text text-anchor="middle" x="469.5" y="-208.5" font-family="Helvetica,sans-Serif" font-size="10.00"> </text>
<polyline fill="none" stroke="#bfbfbf" points="442,-201.5 497,-201.5 "/>
<text text-anchor="middle" x="469.5" y="-189.5" font-family="Helvetica,sans-Serif" font-size="10.00"> </text>
</a>
</g>
</g>
<!-- Node9&#45;&gt;Node1 -->
<g id="edge8" class="edge">
<title>Node9&#45;&gt;Node1</title>
<path fill="none" stroke="#404040" d="M466.82,-182.2C466.1,-166.88 466.43,-147.66 470.5,-131 471.06,-128.71 471.7,-126.41 472.41,-124.11"/>
<polygon fill="none" stroke="#404040" points="472.46,-123.98 470.69,-116.99 476.47,-112.67 478.23,-119.66 472.46,-123.98"/>
<text text-anchor="middle" x="497.5" y="-139.5" font-family="Helvetica,sans-Serif" font-size="10.00"> #_domain</text>
</g>
<!-- Node10 -->
<g id="node10" class="node">
<title>Node10</title>
<g id="a_node10"><a xlink:title=" ">
<polygon fill="white" stroke="#bfbfbf" points="526,-182.5 526,-239.5 567,-239.5 567,-182.5 526,-182.5"/>
<text text-anchor="middle" x="546.5" y="-227.5" font-family="Helvetica,sans-Serif" font-size="10.00">Point</text>
<polyline fill="none" stroke="#bfbfbf" points="526,-220.5 567,-220.5 "/>
<text text-anchor="middle" x="546.5" y="-208.5" font-family="Helvetica,sans-Serif" font-size="10.00"> </text>
<polyline fill="none" stroke="#bfbfbf" points="526,-201.5 567,-201.5 "/>
<text text-anchor="middle" x="546.5" y="-189.5" font-family="Helvetica,sans-Serif" font-size="10.00"> </text>
</a>
</g>
</g>
<!-- Node10&#45;&gt;Node1 -->
<g id="edge9" class="edge">
<title>Node10&#45;&gt;Node1</title>
<path fill="none" stroke="#404040" d="M539.44,-182.38C535.29,-166.17 529.86,-144.92 524.65,-124.55"/>
<polygon fill="none" stroke="#404040" points="524.59,-124.34 519.23,-119.51 521.62,-112.71 526.98,-117.53 524.59,-124.34"/>
<text text-anchor="middle" x="584.5" y="-145" font-family="Helvetica,sans-Serif" font-size="10.00"> #_meshEdgeLengths</text>
<text text-anchor="middle" x="584.5" y="-134" font-family="Helvetica,sans-Serif" font-size="10.00">#_meshOrigin</text>
</g>
<!-- Node11 -->
<g id="node11" class="node">
<title>Node11</title>
<g id="a_node11"><a xlink:title=" ">
<polygon fill="white" stroke="#bfbfbf" points="641.5,-182.5 641.5,-239.5 709.5,-239.5 709.5,-182.5 641.5,-182.5"/>
<text text-anchor="middle" x="675.5" y="-227.5" font-family="Helvetica,sans-Serif" font-size="10.00">Resolution</text>
<polyline fill="none" stroke="#bfbfbf" points="641.5,-220.5 709.5,-220.5 "/>
<text text-anchor="middle" x="675.5" y="-208.5" font-family="Helvetica,sans-Serif" font-size="10.00"> </text>
<polyline fill="none" stroke="#bfbfbf" points="641.5,-201.5 709.5,-201.5 "/>
<text text-anchor="middle" x="675.5" y="-189.5" font-family="Helvetica,sans-Serif" font-size="10.00"> </text>
</a>
</g>
</g>
<!-- Node11&#45;&gt;Node1 -->
<g id="edge10" class="edge">
<title>Node11&#45;&gt;Node1</title>
<path fill="none" stroke="#404040" d="M668.51,-182.24C663.25,-165.82 654.66,-145.47 641.5,-131 631.95,-120.49 620.54,-111.17 608.46,-102.99"/>
<polygon fill="none" stroke="#404040" points="608.27,-102.87 601.06,-102.99 598.18,-96.38 605.39,-96.26 608.27,-102.87"/>
<text text-anchor="middle" x="703.5" y="-139.5" font-family="Helvetica,sans-Serif" font-size="10.00"> #_numberOfPoints</text>
</g>
</g>
</svg>
        <g id="navigator" transform="translate(0 0)" fill="#404254">
                <rect fill="#f2f5e9" fill-opacity="0.5" stroke="#606060" stroke-width=".5" x="0" y="0" width="60" height="60"/>
                <use id="zoomplus" xlink:href="#zoomPlus" x="17" y="9" onmousedown="handleZoom(evt,'in')"/>
                <use id="zoomminus" xlink:href="#zoomMin" x="42" y="9" onmousedown="handleZoom(evt,'out')"/>
                <use id="reset" xlink:href="#resetDef" x="30" y="36" onmousedown="handleReset()"/>
                <g id="arrowUp" xlink:href="#dirArrow" transform="translate(30 24)" onmousedown="handlePan(0,-1)">
                  <use xlink:href="#rim" fill="#404040">
                        <set attributeName="fill" to="#808080" begin="arrowUp.mouseover" end="arrowUp.mouseout"/>
                  </use>
                  <path fill="none" stroke="white" stroke-width="1.5" d="M0,-3.0v7 M-2.5,-0.5L0,-3.0L2.5,-0.5"/>
                </g>
                <g id="arrowRight" xlink:href="#dirArrow" transform="rotate(90) translate(36 -43)" onmousedown="handlePan(1,0)">
                  <use xlink:href="#rim" fill="#404040">
                        <set attributeName="fill" to="#808080" begin="arrowRight.mouseover" end="arrowRight.mouseout"/>
                  </use>
                  <path fill="none" stroke="white" stroke-width="1.5" d="M0,-3.0v7 M-2.5,-0.5L0,-3.0L2.5,-0.5"/>
                </g>
                <g id="arrowDown" xlink:href="#dirArrow" transform="rotate(180) translate(-30 -48)" onmousedown="handlePan(0,1)">
                  <use xlink:href="#rim" fill="#404040">
                        <set attributeName="fill" to="#808080" begin="arrowDown.mouseover" end="arrowDown.mouseout"/>
                  </use>
                  <path fill="none" stroke="white" stroke-width="1.5" d="M0,-3.0v7 M-2.5,-0.5L0,-3.0L2.5,-0.5"/>
                </g>
                <g id="arrowLeft" xlink:href="#dirArrow" transform="rotate(270) translate(-36 17)" onmousedown="handlePan(-1,0)">
                  <use xlink:href="#rim" fill="#404040">
                        <set attributeName="fill" to="#808080" begin="arrowLeft.mouseover" end="arrowLeft.mouseout"/>
                  </use>
                  <path fill="none" stroke="white" stroke-width="1.5" d="M0,-3.0v7 M-2.5,-0.5L0,-3.0L2.5,-0.5"/>
                </g>
        </g>
        <svg viewBox="0 0 15 15" width="100%" height="30px" preserveAspectRatio="xMaxYMin meet">
         <g id="arrow_out" transform="scale(0.3 0.3)">
          <a xlink:href="classcie_1_1geo_1_1StructuredMarchingPrimitives__coll__graph_org.svg" target="_base">
           <rect id="button" ry="5" rx="5" y="6" x="6" height="38" width="38"
                fill="#f2f5e9" fill-opacity="0.5" stroke="#606060" stroke-width="1.0"/>
           <path id="arrow"
             d="M 11.500037,31.436501 C 11.940474,20.09759 22.043105,11.32322 32.158766,21.979434 L 37.068811,17.246167 C 37.068811,17.246167 37.088388,32 37.088388,32 L 22.160133,31.978069 C 22.160133,31.978069 26.997745,27.140456 26.997745,27.140456 C 18.528582,18.264221 13.291696,25.230495 11.500037,31.436501 z"
             style="fill:#404040;"/>
          </a>
         </g>
        </svg>
</svg>
