<?xml version="1.0" encoding="UTF-8" standalone="no"?>
<!DOCTYPE svg PUBLIC "-//W3C//DTD SVG 1.1//EN"
 "http://www.w3.org/Graphics/SVG/1.1/DTD/svg11.dtd">
<!-- Generated by graphviz version 2.43.0 (0)
 -->
<!-- Title: cie::geo::Ellipsoid&lt; Dimension, CoordinateType &gt; Pages: 1 -->
<svg width="354pt" height="836pt"
 viewBox="0.00 0.00 354.00 836.00" xmlns="http://www.w3.org/2000/svg" xmlns:xlink="http://www.w3.org/1999/xlink">
<g id="graph0" class="graph" transform="scale(1 1) rotate(0) translate(4 832)">
<title>cie::geo::Ellipsoid&lt; Dimension, CoordinateType &gt;</title>
<polygon fill="white" stroke="transparent" points="-4,4 -4,-832 350,-832 350,4 -4,4"/>
<!-- Node1 -->
<g id="node1" class="node">
<title>Node1</title>
<g id="a_node1"><a xlink:title="Ellipsoid template.">
<polygon fill="#bfbfbf" stroke="black" points="92.5,-0.5 92.5,-167.5 265.5,-167.5 265.5,-0.5 92.5,-0.5"/>
<text text-anchor="start" x="100.5" y="-155.5" font-family="Helvetica,sans-Serif" font-size="10.00">cie::geo::Ellipsoid</text>
<text text-anchor="middle" x="179" y="-144.5" font-family="Helvetica,sans-Serif" font-size="10.00">&lt; Dimension, CoordinateType &gt;</text>
<polyline fill="none" stroke="black" points="92.5,-137.5 265.5,-137.5 "/>
<text text-anchor="middle" x="179" y="-125.5" font-family="Helvetica,sans-Serif" font-size="10.00"> </text>
<polyline fill="none" stroke="black" points="92.5,-118.5 265.5,-118.5 "/>
<text text-anchor="start" x="100.5" y="-106.5" font-family="Helvetica,sans-Serif" font-size="10.00">+ Ellipsoid()</text>
<text text-anchor="start" x="100.5" y="-95.5" font-family="Helvetica,sans-Serif" font-size="10.00">+ Ellipsoid()</text>
<text text-anchor="start" x="100.5" y="-84.5" font-family="Helvetica,sans-Serif" font-size="10.00">+ Ellipsoid()</text>
<text text-anchor="start" x="100.5" y="-73.5" font-family="Helvetica,sans-Serif" font-size="10.00">+ Ellipsoid()</text>
<text text-anchor="start" x="100.5" y="-62.5" font-family="Helvetica,sans-Serif" font-size="10.00">+ operator=()</text>
<text text-anchor="start" x="100.5" y="-51.5" font-family="Helvetica,sans-Serif" font-size="10.00">+ isDegenerate()</text>
<text text-anchor="start" x="100.5" y="-40.5" font-family="Helvetica,sans-Serif" font-size="10.00">+ center()</text>
<text text-anchor="start" x="100.5" y="-29.5" font-family="Helvetica,sans-Serif" font-size="10.00">+ center()</text>
<text text-anchor="start" x="100.5" y="-18.5" font-family="Helvetica,sans-Serif" font-size="10.00">+ radii()</text>
<text text-anchor="start" x="100.5" y="-7.5" font-family="Helvetica,sans-Serif" font-size="10.00">+ radii()</text>
</a>
</g>
</g>
<!-- Node2 -->
<g id="node2" class="node">
<title>Node2</title>
<g id="a_node2"><a xlink:href="classcie_1_1geo_1_1AbsPrimitive.html" target="_top" xlink:title=" ">
<polygon fill="white" stroke="black" points="61,-226.5 61,-305.5 193,-305.5 193,-226.5 61,-226.5"/>
<text text-anchor="start" x="69" y="-293.5" font-family="Helvetica,sans-Serif" font-size="10.00">cie::geo::AbsPrimitive</text>
<text text-anchor="middle" x="127" y="-282.5" font-family="Helvetica,sans-Serif" font-size="10.00">&lt; Dimension, Double &gt;</text>
<polyline fill="none" stroke="black" points="61,-275.5 193,-275.5 "/>
<text text-anchor="middle" x="127" y="-263.5" font-family="Helvetica,sans-Serif" font-size="10.00"> </text>
<polyline fill="none" stroke="black" points="61,-256.5 193,-256.5 "/>
<text text-anchor="start" x="69" y="-244.5" font-family="Helvetica,sans-Serif" font-size="10.00">+ ~AbsPrimitive()</text>
<text text-anchor="start" x="69" y="-233.5" font-family="Helvetica,sans-Serif" font-size="10.00">+ isDegenerate()</text>
</a>
</g>
</g>
<!-- Node2&#45;&gt;Node1 -->
<g id="edge1" class="edge">
<title>Node2&#45;&gt;Node1</title>
<path fill="none" stroke="midnightblue" d="M140.94,-216.74C145.32,-201.59 150.28,-184.41 155.15,-167.57"/>
<polygon fill="none" stroke="midnightblue" points="137.57,-215.81 138.16,-226.39 144.29,-217.75 137.57,-215.81"/>
</g>
<!-- Node3 -->
<g id="node3" class="node">
<title>Node3</title>
<g id="a_node3"><a xlink:href="classcie_1_1geo_1_1Traits.html" target="_top" xlink:title=" ">
<polygon fill="white" stroke="black" points="0,-451.5 0,-519.5 154,-519.5 154,-451.5 0,-451.5"/>
<text text-anchor="start" x="8" y="-507.5" font-family="Helvetica,sans-Serif" font-size="10.00">cie::geo::Traits&lt; Dimension,</text>
<text text-anchor="middle" x="77" y="-496.5" font-family="Helvetica,sans-Serif" font-size="10.00"> CoordinateType &gt;</text>
<polyline fill="none" stroke="black" points="0,-489.5 154,-489.5 "/>
<text text-anchor="start" x="8" y="-477.5" font-family="Helvetica,sans-Serif" font-size="10.00">+ Dimension</text>
<polyline fill="none" stroke="black" points="0,-470.5 154,-470.5 "/>
<text text-anchor="middle" x="77" y="-458.5" font-family="Helvetica,sans-Serif" font-size="10.00"> </text>
</a>
</g>
</g>
<!-- Node3&#45;&gt;Node2 -->
<g id="edge2" class="edge">
<title>Node3&#45;&gt;Node2</title>
<path fill="none" stroke="midnightblue" d="M86.86,-441.6C95.94,-402.11 109.29,-344.03 118.07,-305.87"/>
<polygon fill="none" stroke="midnightblue" points="83.42,-440.94 84.59,-451.47 90.25,-442.5 83.42,-440.94"/>
</g>
<!-- Node4 -->
<g id="node4" class="node">
<title>Node4</title>
<g id="a_node4"><a xlink:href="classcie_1_1geo_1_1Traits.html" target="_top" xlink:title="Basic templated traits that every object has in GEO.">
<polygon fill="white" stroke="black" points="90,-654.5 90,-722.5 212,-722.5 212,-654.5 90,-654.5"/>
<text text-anchor="start" x="98" y="-710.5" font-family="Helvetica,sans-Serif" font-size="10.00">cie::geo::Traits&lt; Dim,</text>
<text text-anchor="middle" x="151" y="-699.5" font-family="Helvetica,sans-Serif" font-size="10.00"> TCoordinate &gt;</text>
<polyline fill="none" stroke="black" points="90,-692.5 212,-692.5 "/>
<text text-anchor="middle" x="151" y="-680.5" font-family="Helvetica,sans-Serif" font-size="10.00"> </text>
<polyline fill="none" stroke="black" points="90,-673.5 212,-673.5 "/>
<text text-anchor="middle" x="151" y="-661.5" font-family="Helvetica,sans-Serif" font-size="10.00"> </text>
</a>
</g>
</g>
<!-- Node4&#45;&gt;Node3 -->
<g id="edge3" class="edge">
<title>Node4&#45;&gt;Node3</title>
<path fill="none" stroke="orange" d="M80.94,-660.66C71.39,-654.03 62.87,-645.91 57,-636 35.91,-600.4 48.47,-551.8 61.18,-519.8"/>
<polygon fill="orange" stroke="orange" points="79.24,-663.72 89.56,-666.11 82.98,-657.81 79.24,-663.72"/>
<text text-anchor="middle" x="137" y="-628" font-family="Helvetica,sans-Serif" font-size="10.00"> &lt; Dimension, CoordinateType &gt;</text>
</g>
<!-- Node7 -->
<g id="node7" class="node">
<title>Node7</title>
<g id="a_node7"><a xlink:href="classcie_1_1geo_1_1Traits.html" target="_top" xlink:title=" ">
<polygon fill="white" stroke="black" points="163,-538.5 163,-606.5 317,-606.5 317,-538.5 163,-538.5"/>
<text text-anchor="start" x="171" y="-594.5" font-family="Helvetica,sans-Serif" font-size="10.00">cie::geo::Traits&lt; Dimension,</text>
<text text-anchor="middle" x="240" y="-583.5" font-family="Helvetica,sans-Serif" font-size="10.00"> Double &gt;</text>
<polyline fill="none" stroke="black" points="163,-576.5 317,-576.5 "/>
<text text-anchor="start" x="171" y="-564.5" font-family="Helvetica,sans-Serif" font-size="10.00">+ Dimension</text>
<polyline fill="none" stroke="black" points="163,-557.5 317,-557.5 "/>
<text text-anchor="middle" x="240" y="-545.5" font-family="Helvetica,sans-Serif" font-size="10.00"> </text>
</a>
</g>
</g>
<!-- Node4&#45;&gt;Node7 -->
<g id="edge7" class="edge">
<title>Node4&#45;&gt;Node7</title>
<path fill="none" stroke="orange" d="M211.57,-647.29C215.01,-643.72 218.21,-639.95 221,-636 227.09,-627.39 231.27,-616.79 234.11,-606.78"/>
<polygon fill="orange" stroke="orange" points="209,-644.9 204.18,-654.33 213.83,-649.96 209,-644.9"/>
<text text-anchor="middle" x="286.5" y="-628" font-family="Helvetica,sans-Serif" font-size="10.00"> &lt; Dimension, Double &gt;</text>
</g>
<!-- Node5 -->
<g id="node5" class="node">
<title>Node5</title>
<g id="a_node5"><a xlink:title=" ">
<polygon fill="white" stroke="#bfbfbf" points="128.5,-770.5 128.5,-827.5 173.5,-827.5 173.5,-770.5 128.5,-770.5"/>
<text text-anchor="middle" x="151" y="-815.5" font-family="Helvetica,sans-Serif" font-size="10.00">size_t</text>
<polyline fill="none" stroke="#bfbfbf" points="128.5,-808.5 173.5,-808.5 "/>
<text text-anchor="middle" x="151" y="-796.5" font-family="Helvetica,sans-Serif" font-size="10.00"> </text>
<polyline fill="none" stroke="#bfbfbf" points="128.5,-789.5 173.5,-789.5 "/>
<text text-anchor="middle" x="151" y="-777.5" font-family="Helvetica,sans-Serif" font-size="10.00"> </text>
</a>
</g>
</g>
<!-- Node5&#45;&gt;Node4 -->
<g id="edge4" class="edge">
<title>Node5&#45;&gt;Node4</title>
<path fill="none" stroke="#404040" d="M151,-770.34C151,-759.53 151,-746.85 151,-734.77"/>
<polygon fill="none" stroke="#404040" points="151,-734.52 147,-728.52 151,-722.52 155,-728.52 151,-734.52"/>
<text text-anchor="middle" x="183" y="-744" font-family="Helvetica,sans-Serif" font-size="10.00"> +Dimension</text>
</g>
<!-- Node6 -->
<g id="node6" class="node">
<title>Node6</title>
<g id="a_node6"><a xlink:href="classcie_1_1geo_1_1AbsPrimitive.html" target="_top" xlink:title=" ">
<polygon fill="white" stroke="black" points="143.5,-353.5 143.5,-432.5 316.5,-432.5 316.5,-353.5 143.5,-353.5"/>
<text text-anchor="start" x="151.5" y="-420.5" font-family="Helvetica,sans-Serif" font-size="10.00">cie::geo::AbsPrimitive</text>
<text text-anchor="middle" x="230" y="-409.5" font-family="Helvetica,sans-Serif" font-size="10.00">&lt; Dimension, CoordinateType &gt;</text>
<polyline fill="none" stroke="black" points="143.5,-402.5 316.5,-402.5 "/>
<text text-anchor="middle" x="230" y="-390.5" font-family="Helvetica,sans-Serif" font-size="10.00"> </text>
<polyline fill="none" stroke="black" points="143.5,-383.5 316.5,-383.5 "/>
<text text-anchor="start" x="151.5" y="-371.5" font-family="Helvetica,sans-Serif" font-size="10.00">+ ~AbsPrimitive()</text>
<text text-anchor="start" x="151.5" y="-360.5" font-family="Helvetica,sans-Serif" font-size="10.00">+ isDegenerate()</text>
</a>
</g>
</g>
<!-- Node6&#45;&gt;Node2 -->
<g id="edge5" class="edge">
<title>Node6&#45;&gt;Node2</title>
<path fill="none" stroke="orange" d="M191.65,-345.46C180.84,-332.34 169.2,-318.21 158.82,-305.61"/>
<polygon fill="orange" stroke="orange" points="189.2,-347.98 198.26,-353.48 194.6,-343.53 189.2,-347.98"/>
<text text-anchor="middle" x="241.5" y="-327" font-family="Helvetica,sans-Serif" font-size="10.00"> &lt; Dimension, Double &gt;</text>
</g>
<!-- Node7&#45;&gt;Node6 -->
<g id="edge6" class="edge">
<title>Node7&#45;&gt;Node6</title>
<path fill="none" stroke="midnightblue" d="M237.54,-527.83C235.9,-498.73 233.77,-460.83 232.19,-432.8"/>
<polygon fill="none" stroke="midnightblue" points="234.06,-528.33 238.12,-538.11 241.05,-527.93 234.06,-528.33"/>
</g>
<!-- Node8 -->
<g id="node8" class="node">
<title>Node8</title>
<g id="a_node8"><a xlink:title=" ">
<polygon fill="white" stroke="#bfbfbf" points="211.5,-237.5 211.5,-294.5 252.5,-294.5 252.5,-237.5 211.5,-237.5"/>
<text text-anchor="middle" x="232" y="-282.5" font-family="Helvetica,sans-Serif" font-size="10.00">Point</text>
<polyline fill="none" stroke="#bfbfbf" points="211.5,-275.5 252.5,-275.5 "/>
<text text-anchor="middle" x="232" y="-263.5" font-family="Helvetica,sans-Serif" font-size="10.00"> </text>
<polyline fill="none" stroke="#bfbfbf" points="211.5,-256.5 252.5,-256.5 "/>
<text text-anchor="middle" x="232" y="-244.5" font-family="Helvetica,sans-Serif" font-size="10.00"> </text>
</a>
</g>
</g>
<!-- Node8&#45;&gt;Node1 -->
<g id="edge8" class="edge">
<title>Node8&#45;&gt;Node1</title>
<path fill="none" stroke="#404040" d="M223.83,-237.27C219.18,-221.46 213.04,-200.62 206.81,-179.46"/>
<polygon fill="none" stroke="#404040" points="206.74,-179.2 201.21,-174.58 203.35,-167.69 208.88,-172.32 206.74,-179.2"/>
<text text-anchor="middle" x="238" y="-200" font-family="Helvetica,sans-Serif" font-size="10.00"> #_center</text>
<text text-anchor="middle" x="238" y="-189" font-family="Helvetica,sans-Serif" font-size="10.00">#_radii</text>
</g>
</g>
</svg>
