<?xml version="1.0" encoding="UTF-8" standalone="no"?>
<!DOCTYPE svg PUBLIC "-//W3C//DTD SVG 1.1//EN"
 "http://www.w3.org/Graphics/SVG/1.1/DTD/svg11.dtd">
<!-- Generated by graphviz version 2.43.0 (0)
 -->
<!-- Title: cie::geo::Cube&lt; Dimension, CoordinateType &gt; Pages: 1 -->
<!--zoomable 1052 -->
<svg id="main" version="1.1" xmlns="http://www.w3.org/2000/svg" xmlns:xlink="http://www.w3.org/1999/xlink" xml:space="preserve" onload="init(evt)">
<style type="text/css"><![CDATA[
.edge:hover path { stroke: red; }
.edge:hover polygon { stroke: red; fill: red; }
]]></style>
<script type="text/javascript"><![CDATA[
var edges = document.getElementsByTagName('g');
if (edges && edges.length) {
  for (var i=0;i<edges.length;i++) {
    if (edges[i].id.substr(0,4)=='edge') {
      edges[i].setAttribute('class','edge');
    }
  }
}
]]></script>
        <defs>
                <circle id="rim" cx="0" cy="0" r="7"/>
                <circle id="rim2" cx="0" cy="0" r="3.5"/>
                <g id="zoomPlus">
                        <use xlink:href="#rim" fill="#404040">
                                <set attributeName="fill" to="#808080" begin="zoomplus.mouseover" end="zoomplus.mouseout"/>
                        </use>
                        <path d="M-4,0h8M0,-4v8" fill="none" stroke="white" stroke-width="1.5" pointer-events="none"/>
                </g>
                <g id="zoomMin">
                        <use xlink:href="#rim" fill="#404040">
                                <set attributeName="fill" to="#808080" begin="zoomminus.mouseover" end="zoomminus.mouseout"/>
                        </use>
                        <path d="M-4,0h8" fill="none" stroke="white" stroke-width="1.5" pointer-events="none"/>
                </g>
                <g id="dirArrow">
                        <path fill="none" stroke="white" stroke-width="1.5" d="M0,-3.0v7 M-2.5,-0.5L0,-3.0L2.5,-0.5"/>
                </g>
               <g id="resetDef">
                       <use xlink:href="#rim2" fill="#404040">
                               <set attributeName="fill" to="#808080" begin="reset.mouseover" end="reset.mouseout"/>
                       </use>
               </g>
        </defs>

<script type="text/javascript">
var viewWidth = 368;
var viewHeight = 1052;
var sectionId = 'dynsection-1';
</script>
<script xlink:href="svgpan.js"/>
<svg id="graph" class="graph">
<g id="viewport">
<title>cie::geo::Cube&lt; Dimension, CoordinateType &gt;</title>
<polygon fill="white" stroke="transparent" points="-4,4 -4,-1048 364,-1048 364,4 -4,4"/>
<!-- Node1 -->
<g id="node1" class="node">
<title>Node1</title>
<g id="a_node1"><a xlink:title="Cube template.">
<polygon fill="#bfbfbf" stroke="black" points="25,-237.5 25,-404.5 177,-404.5 177,-237.5 25,-237.5"/>
<text text-anchor="start" x="33" y="-392.5" font-family="Helvetica,sans-Serif" font-size="10.00">cie::geo::Cube&lt; Dimension,</text>
<text text-anchor="middle" x="101" y="-381.5" font-family="Helvetica,sans-Serif" font-size="10.00"> CoordinateType &gt;</text>
<polyline fill="none" stroke="black" points="25,-374.5 177,-374.5 "/>
<text text-anchor="middle" x="101" y="-362.5" font-family="Helvetica,sans-Serif" font-size="10.00"> </text>
<polyline fill="none" stroke="black" points="25,-355.5 177,-355.5 "/>
<text text-anchor="start" x="33" y="-343.5" font-family="Helvetica,sans-Serif" font-size="10.00">+ Cube()</text>
<text text-anchor="start" x="33" y="-332.5" font-family="Helvetica,sans-Serif" font-size="10.00">+ Cube()</text>
<text text-anchor="start" x="33" y="-321.5" font-family="Helvetica,sans-Serif" font-size="10.00">+ Cube()</text>
<text text-anchor="start" x="33" y="-310.5" font-family="Helvetica,sans-Serif" font-size="10.00">+ Cube()</text>
<text text-anchor="start" x="33" y="-299.5" font-family="Helvetica,sans-Serif" font-size="10.00">+ operator=()</text>
<text text-anchor="start" x="33" y="-288.5" font-family="Helvetica,sans-Serif" font-size="10.00">+ isDegenerate()</text>
<text text-anchor="start" x="33" y="-277.5" font-family="Helvetica,sans-Serif" font-size="10.00">+ base()</text>
<text text-anchor="start" x="33" y="-266.5" font-family="Helvetica,sans-Serif" font-size="10.00">+ length()</text>
<text text-anchor="start" x="33" y="-255.5" font-family="Helvetica,sans-Serif" font-size="10.00">+ base()</text>
<text text-anchor="start" x="33" y="-244.5" font-family="Helvetica,sans-Serif" font-size="10.00">+ length()</text>
</a>
</g>
</g>
<!-- Node8 -->
<g id="node8" class="node">
<title>Node8</title>
<g id="a_node8"><a xlink:href="classcie_1_1geo_1_1Cube.html" target="_top" xlink:title=" ">
<polygon fill="white" stroke="black" points="117,-0.5 117,-178.5 269,-178.5 269,-0.5 117,-0.5"/>
<text text-anchor="start" x="125" y="-166.5" font-family="Helvetica,sans-Serif" font-size="10.00">cie::geo::Cube&lt; Dimension,</text>
<text text-anchor="middle" x="193" y="-155.5" font-family="Helvetica,sans-Serif" font-size="10.00"> Double &gt;</text>
<polyline fill="none" stroke="black" points="117,-148.5 269,-148.5 "/>
<text text-anchor="start" x="125" y="-136.5" font-family="Helvetica,sans-Serif" font-size="10.00"># _base</text>
<text text-anchor="start" x="125" y="-125.5" font-family="Helvetica,sans-Serif" font-size="10.00"># _length</text>
<polyline fill="none" stroke="black" points="117,-118.5 269,-118.5 "/>
<text text-anchor="start" x="125" y="-106.5" font-family="Helvetica,sans-Serif" font-size="10.00">+ Cube()</text>
<text text-anchor="start" x="125" y="-95.5" font-family="Helvetica,sans-Serif" font-size="10.00">+ Cube()</text>
<text text-anchor="start" x="125" y="-84.5" font-family="Helvetica,sans-Serif" font-size="10.00">+ Cube()</text>
<text text-anchor="start" x="125" y="-73.5" font-family="Helvetica,sans-Serif" font-size="10.00">+ Cube()</text>
<text text-anchor="start" x="125" y="-62.5" font-family="Helvetica,sans-Serif" font-size="10.00">+ operator=()</text>
<text text-anchor="start" x="125" y="-51.5" font-family="Helvetica,sans-Serif" font-size="10.00">+ isDegenerate()</text>
<text text-anchor="start" x="125" y="-40.5" font-family="Helvetica,sans-Serif" font-size="10.00">+ base()</text>
<text text-anchor="start" x="125" y="-29.5" font-family="Helvetica,sans-Serif" font-size="10.00">+ base()</text>
<text text-anchor="start" x="125" y="-18.5" font-family="Helvetica,sans-Serif" font-size="10.00">+ length()</text>
<text text-anchor="start" x="125" y="-7.5" font-family="Helvetica,sans-Serif" font-size="10.00">+ length()</text>
</a>
</g>
</g>
<!-- Node1&#45;&gt;Node8 -->
<g id="edge10" class="edge">
<title>Node1&#45;&gt;Node8</title>
<path fill="none" stroke="orange" d="M42.83,-227.4C41.73,-217.06 43.07,-206.75 48,-197 62.81,-167.74 89.87,-144.57 116.63,-127.41"/>
<polygon fill="orange" stroke="orange" points="39.4,-228.08 44.6,-237.31 46.29,-226.85 39.4,-228.08"/>
<text text-anchor="middle" x="107.5" y="-205.5" font-family="Helvetica,sans-Serif" font-size="10.00"> &lt; Dimension, Double &gt;</text>
</g>
<!-- Node2 -->
<g id="node2" class="node">
<title>Node2</title>
<g id="a_node2"><a xlink:href="classcie_1_1geo_1_1AbsPrimitive.html" target="_top" xlink:title=" ">
<polygon fill="white" stroke="black" points="35,-442.5 35,-521.5 167,-521.5 167,-442.5 35,-442.5"/>
<text text-anchor="start" x="43" y="-509.5" font-family="Helvetica,sans-Serif" font-size="10.00">cie::geo::AbsPrimitive</text>
<text text-anchor="middle" x="101" y="-498.5" font-family="Helvetica,sans-Serif" font-size="10.00">&lt; Dimension, Double &gt;</text>
<polyline fill="none" stroke="black" points="35,-491.5 167,-491.5 "/>
<text text-anchor="middle" x="101" y="-479.5" font-family="Helvetica,sans-Serif" font-size="10.00"> </text>
<polyline fill="none" stroke="black" points="35,-472.5 167,-472.5 "/>
<text text-anchor="start" x="43" y="-460.5" font-family="Helvetica,sans-Serif" font-size="10.00">+ ~AbsPrimitive()</text>
<text text-anchor="start" x="43" y="-449.5" font-family="Helvetica,sans-Serif" font-size="10.00">+ isDegenerate()</text>
</a>
</g>
</g>
<!-- Node2&#45;&gt;Node1 -->
<g id="edge1" class="edge">
<title>Node2&#45;&gt;Node1</title>
<path fill="none" stroke="midnightblue" d="M101,-431.87C101,-423.22 101,-414.01 101,-404.74"/>
<polygon fill="none" stroke="midnightblue" points="97.5,-432.1 101,-442.1 104.5,-432.1 97.5,-432.1"/>
</g>
<!-- Node3 -->
<g id="node3" class="node">
<title>Node3</title>
<g id="a_node3"><a xlink:href="classcie_1_1geo_1_1Traits.html" target="_top" xlink:title=" ">
<polygon fill="white" stroke="black" points="0,-667.5 0,-735.5 154,-735.5 154,-667.5 0,-667.5"/>
<text text-anchor="start" x="8" y="-723.5" font-family="Helvetica,sans-Serif" font-size="10.00">cie::geo::Traits&lt; Dimension,</text>
<text text-anchor="middle" x="77" y="-712.5" font-family="Helvetica,sans-Serif" font-size="10.00"> CoordinateType &gt;</text>
<polyline fill="none" stroke="black" points="0,-705.5 154,-705.5 "/>
<text text-anchor="start" x="8" y="-693.5" font-family="Helvetica,sans-Serif" font-size="10.00">+ Dimension</text>
<polyline fill="none" stroke="black" points="0,-686.5 154,-686.5 "/>
<text text-anchor="middle" x="77" y="-674.5" font-family="Helvetica,sans-Serif" font-size="10.00"> </text>
</a>
</g>
</g>
<!-- Node3&#45;&gt;Node2 -->
<g id="edge2" class="edge">
<title>Node3&#45;&gt;Node2</title>
<path fill="none" stroke="midnightblue" d="M81.76,-657.35C86.12,-617.86 92.51,-559.95 96.71,-521.87"/>
<polygon fill="none" stroke="midnightblue" points="78.26,-657.14 80.65,-667.47 85.22,-657.91 78.26,-657.14"/>
</g>
<!-- Node4 -->
<g id="node4" class="node">
<title>Node4</title>
<g id="a_node4"><a xlink:href="classcie_1_1geo_1_1Traits.html" target="_top" xlink:title="Basic templated traits that every object has in GEO.">
<polygon fill="white" stroke="black" points="103,-870.5 103,-938.5 225,-938.5 225,-870.5 103,-870.5"/>
<text text-anchor="start" x="111" y="-926.5" font-family="Helvetica,sans-Serif" font-size="10.00">cie::geo::Traits&lt; Dim,</text>
<text text-anchor="middle" x="164" y="-915.5" font-family="Helvetica,sans-Serif" font-size="10.00"> TCoordinate &gt;</text>
<polyline fill="none" stroke="black" points="103,-908.5 225,-908.5 "/>
<text text-anchor="middle" x="164" y="-896.5" font-family="Helvetica,sans-Serif" font-size="10.00"> </text>
<polyline fill="none" stroke="black" points="103,-889.5 225,-889.5 "/>
<text text-anchor="middle" x="164" y="-877.5" font-family="Helvetica,sans-Serif" font-size="10.00"> </text>
</a>
</g>
</g>
<!-- Node4&#45;&gt;Node3 -->
<g id="edge3" class="edge">
<title>Node4&#45;&gt;Node3</title>
<path fill="none" stroke="orange" d="M93.94,-876.66C84.39,-870.03 75.87,-861.91 70,-852 49.01,-816.57 56.7,-767.7 65.59,-735.62"/>
<polygon fill="orange" stroke="orange" points="92.24,-879.72 102.56,-882.11 95.98,-873.81 92.24,-879.72"/>
<text text-anchor="middle" x="150" y="-844" font-family="Helvetica,sans-Serif" font-size="10.00"> &lt; Dimension, CoordinateType &gt;</text>
</g>
<!-- Node7 -->
<g id="node7" class="node">
<title>Node7</title>
<g id="a_node7"><a xlink:href="classcie_1_1geo_1_1Traits.html" target="_top" xlink:title=" ">
<polygon fill="white" stroke="black" points="178,-754.5 178,-822.5 332,-822.5 332,-754.5 178,-754.5"/>
<text text-anchor="start" x="186" y="-810.5" font-family="Helvetica,sans-Serif" font-size="10.00">cie::geo::Traits&lt; Dimension,</text>
<text text-anchor="middle" x="255" y="-799.5" font-family="Helvetica,sans-Serif" font-size="10.00"> Double &gt;</text>
<polyline fill="none" stroke="black" points="178,-792.5 332,-792.5 "/>
<text text-anchor="start" x="186" y="-780.5" font-family="Helvetica,sans-Serif" font-size="10.00">+ Dimension</text>
<polyline fill="none" stroke="black" points="178,-773.5 332,-773.5 "/>
<text text-anchor="middle" x="255" y="-761.5" font-family="Helvetica,sans-Serif" font-size="10.00"> </text>
</a>
</g>
</g>
<!-- Node4&#45;&gt;Node7 -->
<g id="edge7" class="edge">
<title>Node4&#45;&gt;Node7</title>
<path fill="none" stroke="orange" d="M224.44,-863.19C227.91,-859.64 231.15,-855.91 234,-852 240.27,-843.4 244.76,-832.8 247.93,-822.79"/>
<polygon fill="orange" stroke="orange" points="221.88,-860.79 217,-870.2 226.68,-865.89 221.88,-860.79"/>
<text text-anchor="middle" x="300.5" y="-844" font-family="Helvetica,sans-Serif" font-size="10.00"> &lt; Dimension, Double &gt;</text>
</g>
<!-- Node5 -->
<g id="node5" class="node">
<title>Node5</title>
<g id="a_node5"><a xlink:title=" ">
<polygon fill="white" stroke="#bfbfbf" points="141.5,-986.5 141.5,-1043.5 186.5,-1043.5 186.5,-986.5 141.5,-986.5"/>
<text text-anchor="middle" x="164" y="-1031.5" font-family="Helvetica,sans-Serif" font-size="10.00">size_t</text>
<polyline fill="none" stroke="#bfbfbf" points="141.5,-1024.5 186.5,-1024.5 "/>
<text text-anchor="middle" x="164" y="-1012.5" font-family="Helvetica,sans-Serif" font-size="10.00"> </text>
<polyline fill="none" stroke="#bfbfbf" points="141.5,-1005.5 186.5,-1005.5 "/>
<text text-anchor="middle" x="164" y="-993.5" font-family="Helvetica,sans-Serif" font-size="10.00"> </text>
</a>
</g>
</g>
<!-- Node5&#45;&gt;Node4 -->
<g id="edge4" class="edge">
<title>Node5&#45;&gt;Node4</title>
<path fill="none" stroke="#404040" d="M164,-986.34C164,-975.53 164,-962.85 164,-950.77"/>
<polygon fill="none" stroke="#404040" points="164,-950.52 160,-944.52 164,-938.52 168,-944.52 164,-950.52"/>
<text text-anchor="middle" x="196" y="-960" font-family="Helvetica,sans-Serif" font-size="10.00"> +Dimension</text>
</g>
<!-- Node6 -->
<g id="node6" class="node">
<title>Node6</title>
<g id="a_node6"><a xlink:href="classcie_1_1geo_1_1AbsPrimitive.html" target="_top" xlink:title=" ">
<polygon fill="white" stroke="black" points="166.5,-569.5 166.5,-648.5 339.5,-648.5 339.5,-569.5 166.5,-569.5"/>
<text text-anchor="start" x="174.5" y="-636.5" font-family="Helvetica,sans-Serif" font-size="10.00">cie::geo::AbsPrimitive</text>
<text text-anchor="middle" x="253" y="-625.5" font-family="Helvetica,sans-Serif" font-size="10.00">&lt; Dimension, CoordinateType &gt;</text>
<polyline fill="none" stroke="black" points="166.5,-618.5 339.5,-618.5 "/>
<text text-anchor="middle" x="253" y="-606.5" font-family="Helvetica,sans-Serif" font-size="10.00"> </text>
<polyline fill="none" stroke="black" points="166.5,-599.5 339.5,-599.5 "/>
<text text-anchor="start" x="174.5" y="-587.5" font-family="Helvetica,sans-Serif" font-size="10.00">+ ~AbsPrimitive()</text>
<text text-anchor="start" x="174.5" y="-576.5" font-family="Helvetica,sans-Serif" font-size="10.00">+ isDegenerate()</text>
</a>
</g>
</g>
<!-- Node6&#45;&gt;Node2 -->
<g id="edge5" class="edge">
<title>Node6&#45;&gt;Node2</title>
<path fill="none" stroke="orange" d="M156.98,-579.43C143.15,-571.96 130.18,-562.63 120,-551 112.81,-542.79 108.33,-532.07 105.53,-521.58"/>
<polygon fill="orange" stroke="orange" points="155.67,-582.68 166.17,-584.07 158.82,-576.44 155.67,-582.68"/>
<text text-anchor="middle" x="179.5" y="-543" font-family="Helvetica,sans-Serif" font-size="10.00"> &lt; Dimension, Double &gt;</text>
</g>
<!-- Node6&#45;&gt;Node8 -->
<g id="edge9" class="edge">
<title>Node6&#45;&gt;Node8</title>
<path fill="none" stroke="midnightblue" d="M253.77,-558.95C254.11,-481.39 251.29,-326.01 227,-197 225.87,-190.99 224.5,-184.85 222.97,-178.7"/>
<polygon fill="none" stroke="midnightblue" points="250.26,-559.34 253.7,-569.36 257.26,-559.39 250.26,-559.34"/>
</g>
<!-- Node7&#45;&gt;Node6 -->
<g id="edge6" class="edge">
<title>Node7&#45;&gt;Node6</title>
<path fill="none" stroke="midnightblue" d="M254.51,-743.83C254.18,-714.73 253.75,-676.83 253.44,-648.8"/>
<polygon fill="none" stroke="midnightblue" points="251.01,-744.15 254.62,-754.11 258.01,-744.07 251.01,-744.15"/>
</g>
<!-- Node8&#45;&gt;Node1 -->
<g id="edge8" class="edge">
<title>Node8&#45;&gt;Node1</title>
<path fill="none" stroke="#404040" d="M183.17,-178.68C180.14,-192.46 176.18,-206.32 171,-219 169.98,-221.49 168.9,-223.97 167.75,-226.45"/>
<polygon fill="none" stroke="#404040" points="167.72,-226.53 168.63,-233.68 162.37,-237.27 161.46,-230.12 167.72,-226.53"/>
<text text-anchor="middle" x="200.5" y="-211" font-family="Helvetica,sans-Serif" font-size="10.00"> #_base</text>
<text text-anchor="middle" x="200.5" y="-200" font-family="Helvetica,sans-Serif" font-size="10.00">#_length</text>
</g>
</g>
</svg>
        <g id="navigator" transform="translate(0 0)" fill="#404254">
                <rect fill="#f2f5e9" fill-opacity="0.5" stroke="#606060" stroke-width=".5" x="0" y="0" width="60" height="60"/>
                <use id="zoomplus" xlink:href="#zoomPlus" x="17" y="9" onmousedown="handleZoom(evt,'in')"/>
                <use id="zoomminus" xlink:href="#zoomMin" x="42" y="9" onmousedown="handleZoom(evt,'out')"/>
                <use id="reset" xlink:href="#resetDef" x="30" y="36" onmousedown="handleReset()"/>
                <g id="arrowUp" xlink:href="#dirArrow" transform="translate(30 24)" onmousedown="handlePan(0,-1)">
                  <use xlink:href="#rim" fill="#404040">
                        <set attributeName="fill" to="#808080" begin="arrowUp.mouseover" end="arrowUp.mouseout"/>
                  </use>
                  <path fill="none" stroke="white" stroke-width="1.5" d="M0,-3.0v7 M-2.5,-0.5L0,-3.0L2.5,-0.5"/>
                </g>
                <g id="arrowRight" xlink:href="#dirArrow" transform="rotate(90) translate(36 -43)" onmousedown="handlePan(1,0)">
                  <use xlink:href="#rim" fill="#404040">
                        <set attributeName="fill" to="#808080" begin="arrowRight.mouseover" end="arrowRight.mouseout"/>
                  </use>
                  <path fill="none" stroke="white" stroke-width="1.5" d="M0,-3.0v7 M-2.5,-0.5L0,-3.0L2.5,-0.5"/>
                </g>
                <g id="arrowDown" xlink:href="#dirArrow" transform="rotate(180) translate(-30 -48)" onmousedown="handlePan(0,1)">
                  <use xlink:href="#rim" fill="#404040">
                        <set attributeName="fill" to="#808080" begin="arrowDown.mouseover" end="arrowDown.mouseout"/>
                  </use>
                  <path fill="none" stroke="white" stroke-width="1.5" d="M0,-3.0v7 M-2.5,-0.5L0,-3.0L2.5,-0.5"/>
                </g>
                <g id="arrowLeft" xlink:href="#dirArrow" transform="rotate(270) translate(-36 17)" onmousedown="handlePan(-1,0)">
                  <use xlink:href="#rim" fill="#404040">
                        <set attributeName="fill" to="#808080" begin="arrowLeft.mouseover" end="arrowLeft.mouseout"/>
                  </use>
                  <path fill="none" stroke="white" stroke-width="1.5" d="M0,-3.0v7 M-2.5,-0.5L0,-3.0L2.5,-0.5"/>
                </g>
        </g>
        <svg viewBox="0 0 15 15" width="100%" height="30px" preserveAspectRatio="xMaxYMin meet">
         <g id="arrow_out" transform="scale(0.3 0.3)">
          <a xlink:href="classcie_1_1geo_1_1Cube__coll__graph_org.svg" target="_base">
           <rect id="button" ry="5" rx="5" y="6" x="6" height="38" width="38"
                fill="#f2f5e9" fill-opacity="0.5" stroke="#606060" stroke-width="1.0"/>
           <path id="arrow"
             d="M 11.500037,31.436501 C 11.940474,20.09759 22.043105,11.32322 32.158766,21.979434 L 37.068811,17.246167 C 37.068811,17.246167 37.088388,32 37.088388,32 L 22.160133,31.978069 C 22.160133,31.978069 26.997745,27.140456 26.997745,27.140456 C 18.528582,18.264221 13.291696,25.230495 11.500037,31.436501 z"
             style="fill:#404040;"/>
          </a>
         </g>
        </svg>
</svg>
