<?xml version="1.0" encoding="UTF-8" standalone="no"?>
<!DOCTYPE svg PUBLIC "-//W3C//DTD SVG 1.1//EN"
 "http://www.w3.org/Graphics/SVG/1.1/DTD/svg11.dtd">
<!-- Generated by graphviz version 2.43.0 (0)
 -->
<!-- Title: cie::geo::Subtraction&lt; Dimension, CoordinateType &gt; Pages: 1 -->
<svg width="663pt" height="1563pt"
 viewBox="0.00 0.00 663.00 1563.00" xmlns="http://www.w3.org/2000/svg" xmlns:xlink="http://www.w3.org/1999/xlink">
<g id="graph0" class="graph" transform="scale(1 1) rotate(0) translate(4 1559)">
<title>cie::geo::Subtraction&lt; Dimension, CoordinateType &gt;</title>
<polygon fill="white" stroke="transparent" points="-4,4 -4,-1559 659,-1559 659,4 -4,4"/>
<!-- Node1 -->
<g id="node1" class="node">
<title>Node1</title>
<g id="a_node1"><a xlink:title=" ">
<polygon fill="#bfbfbf" stroke="black" points="217,-0.5 217,-112.5 390,-112.5 390,-0.5 217,-0.5"/>
<text text-anchor="start" x="225" y="-100.5" font-family="Helvetica,sans-Serif" font-size="10.00">cie::geo::Subtraction</text>
<text text-anchor="middle" x="303.5" y="-89.5" font-family="Helvetica,sans-Serif" font-size="10.00">&lt; Dimension, CoordinateType &gt;</text>
<polyline fill="none" stroke="black" points="217,-82.5 390,-82.5 "/>
<text text-anchor="middle" x="303.5" y="-70.5" font-family="Helvetica,sans-Serif" font-size="10.00"> </text>
<polyline fill="none" stroke="black" points="217,-63.5 390,-63.5 "/>
<text text-anchor="start" x="225" y="-51.5" font-family="Helvetica,sans-Serif" font-size="10.00">+ Subtraction()</text>
<text text-anchor="start" x="225" y="-40.5" font-family="Helvetica,sans-Serif" font-size="10.00">+ Subtraction()</text>
<text text-anchor="start" x="225" y="-29.5" font-family="Helvetica,sans-Serif" font-size="10.00">+ Subtraction()</text>
<text text-anchor="start" x="225" y="-18.5" font-family="Helvetica,sans-Serif" font-size="10.00">+ operator=()</text>
<text text-anchor="start" x="225" y="-7.5" font-family="Helvetica,sans-Serif" font-size="10.00">+ at()</text>
</a>
</g>
</g>
<!-- Node2 -->
<g id="node2" class="node">
<title>Node2</title>
<g id="a_node2"><a xlink:href="classcie_1_1geo_1_1BinaryOperator.html" target="_top" xlink:title=" ">
<polygon fill="white" stroke="black" points="203,-150.5 203,-295.5 404,-295.5 404,-150.5 203,-150.5"/>
<text text-anchor="start" x="211" y="-283.5" font-family="Helvetica,sans-Serif" font-size="10.00">cie::geo::BinaryOperator</text>
<text text-anchor="middle" x="303.5" y="-272.5" font-family="Helvetica,sans-Serif" font-size="10.00">&lt; Dimension, Bool, CoordinateType &gt;</text>
<polyline fill="none" stroke="black" points="203,-265.5 404,-265.5 "/>
<text text-anchor="start" x="211" y="-253.5" font-family="Helvetica,sans-Serif" font-size="10.00">+ lhs</text>
<text text-anchor="start" x="211" y="-242.5" font-family="Helvetica,sans-Serif" font-size="10.00"># _p_lhs</text>
<polyline fill="none" stroke="black" points="203,-235.5 404,-235.5 "/>
<text text-anchor="start" x="211" y="-223.5" font-family="Helvetica,sans-Serif" font-size="10.00">+ lhs()</text>
<text text-anchor="start" x="211" y="-212.5" font-family="Helvetica,sans-Serif" font-size="10.00">+ BinaryOperator()</text>
<text text-anchor="start" x="211" y="-201.5" font-family="Helvetica,sans-Serif" font-size="10.00">+ BinaryOperator()</text>
<text text-anchor="start" x="211" y="-190.5" font-family="Helvetica,sans-Serif" font-size="10.00">+ BinaryOperator()</text>
<text text-anchor="start" x="211" y="-179.5" font-family="Helvetica,sans-Serif" font-size="10.00">+ operator=()</text>
<text text-anchor="start" x="211" y="-168.5" font-family="Helvetica,sans-Serif" font-size="10.00">+ bindLhs()</text>
<text text-anchor="start" x="211" y="-157.5" font-family="Helvetica,sans-Serif" font-size="10.00">+ at()</text>
</a>
</g>
</g>
<!-- Node2&#45;&gt;Node1 -->
<g id="edge1" class="edge">
<title>Node2&#45;&gt;Node1</title>
<path fill="none" stroke="midnightblue" d="M303.5,-140.2C303.5,-130.85 303.5,-121.49 303.5,-112.61"/>
<polygon fill="none" stroke="midnightblue" points="300,-140.33 303.5,-150.33 307,-140.33 300,-140.33"/>
</g>
<!-- Node3 -->
<g id="node3" class="node">
<title>Node3</title>
<g id="a_node3"><a xlink:href="classcie_1_1geo_1_1UnaryOperator.html" target="_top" xlink:title=" ">
<polygon fill="white" stroke="black" points="316,-751.5 316,-896.5 455,-896.5 455,-751.5 316,-751.5"/>
<text text-anchor="start" x="324" y="-884.5" font-family="Helvetica,sans-Serif" font-size="10.00">cie::geo::UnaryOperator</text>
<text text-anchor="start" x="324" y="-873.5" font-family="Helvetica,sans-Serif" font-size="10.00">&lt; Dimension, ValueType,</text>
<text text-anchor="middle" x="385.5" y="-862.5" font-family="Helvetica,sans-Serif" font-size="10.00"> CoordinateType &gt;</text>
<polyline fill="none" stroke="black" points="316,-855.5 455,-855.5 "/>
<text text-anchor="middle" x="385.5" y="-843.5" font-family="Helvetica,sans-Serif" font-size="10.00"> </text>
<polyline fill="none" stroke="black" points="316,-836.5 455,-836.5 "/>
<text text-anchor="start" x="324" y="-824.5" font-family="Helvetica,sans-Serif" font-size="10.00">+ UnaryOperator()</text>
<text text-anchor="start" x="324" y="-813.5" font-family="Helvetica,sans-Serif" font-size="10.00">+ UnaryOperator()</text>
<text text-anchor="start" x="324" y="-802.5" font-family="Helvetica,sans-Serif" font-size="10.00">+ UnaryOperator()</text>
<text text-anchor="start" x="324" y="-791.5" font-family="Helvetica,sans-Serif" font-size="10.00">+ operator=()</text>
<text text-anchor="start" x="324" y="-780.5" font-family="Helvetica,sans-Serif" font-size="10.00">+ bindRhs()</text>
<text text-anchor="start" x="324" y="-769.5" font-family="Helvetica,sans-Serif" font-size="10.00">+ rhs()</text>
<text text-anchor="start" x="324" y="-758.5" font-family="Helvetica,sans-Serif" font-size="10.00">+ at()</text>
</a>
</g>
</g>
<!-- Node3&#45;&gt;Node2 -->
<g id="edge2" class="edge">
<title>Node3&#45;&gt;Node2</title>
<path fill="none" stroke="midnightblue" d="M392.5,-740.91C398.61,-638.55 400.6,-459.35 356.5,-314 354.63,-307.84 352.26,-301.66 349.57,-295.58"/>
<polygon fill="none" stroke="midnightblue" points="388.99,-740.98 391.86,-751.18 395.98,-741.42 388.99,-740.98"/>
</g>
<!-- Node12 -->
<g id="node12" class="node">
<title>Node12</title>
<g id="a_node12"><a xlink:href="classcie_1_1geo_1_1UnaryOperator.html" target="_top" xlink:title=" ">
<polygon fill="white" stroke="black" points="93.5,-547.5 93.5,-692.5 253.5,-692.5 253.5,-547.5 93.5,-547.5"/>
<text text-anchor="start" x="101.5" y="-680.5" font-family="Helvetica,sans-Serif" font-size="10.00">cie::geo::UnaryOperator</text>
<text text-anchor="middle" x="173.5" y="-669.5" font-family="Helvetica,sans-Serif" font-size="10.00">&lt; Dimension, Bool, Double &gt;</text>
<polyline fill="none" stroke="black" points="93.5,-662.5 253.5,-662.5 "/>
<text text-anchor="start" x="101.5" y="-650.5" font-family="Helvetica,sans-Serif" font-size="10.00">+ rhs</text>
<text text-anchor="start" x="101.5" y="-639.5" font-family="Helvetica,sans-Serif" font-size="10.00"># _p_rhs</text>
<polyline fill="none" stroke="black" points="93.5,-632.5 253.5,-632.5 "/>
<text text-anchor="start" x="101.5" y="-620.5" font-family="Helvetica,sans-Serif" font-size="10.00">+ rhs()</text>
<text text-anchor="start" x="101.5" y="-609.5" font-family="Helvetica,sans-Serif" font-size="10.00">+ UnaryOperator()</text>
<text text-anchor="start" x="101.5" y="-598.5" font-family="Helvetica,sans-Serif" font-size="10.00">+ UnaryOperator()</text>
<text text-anchor="start" x="101.5" y="-587.5" font-family="Helvetica,sans-Serif" font-size="10.00">+ UnaryOperator()</text>
<text text-anchor="start" x="101.5" y="-576.5" font-family="Helvetica,sans-Serif" font-size="10.00">+ operator=()</text>
<text text-anchor="start" x="101.5" y="-565.5" font-family="Helvetica,sans-Serif" font-size="10.00">+ bindRhs()</text>
<text text-anchor="start" x="101.5" y="-554.5" font-family="Helvetica,sans-Serif" font-size="10.00">+ at()</text>
</a>
</g>
</g>
<!-- Node3&#45;&gt;Node12 -->
<g id="edge16" class="edge">
<title>Node3&#45;&gt;Node12</title>
<path fill="none" stroke="orange" d="M308.09,-763.58C296.23,-753.68 284.33,-743.28 273.5,-733 260.27,-720.44 246.79,-706.37 234.2,-692.56"/>
<polygon fill="orange" stroke="orange" points="305.93,-766.33 315.87,-770 310.39,-760.94 305.93,-766.33"/>
<text text-anchor="start" x="273.5" y="-725" font-family="Helvetica,sans-Serif" font-size="10.00"> &lt; Dimension, Bool,</text>
<text text-anchor="middle" x="322.5" y="-714" font-family="Helvetica,sans-Serif" font-size="10.00"> Double &gt;</text>
</g>
<!-- Node4 -->
<g id="node4" class="node">
<title>Node4</title>
<g id="a_node4"><a xlink:href="classcie_1_1geo_1_1Object.html" target="_top" xlink:title=" ">
<polygon fill="white" stroke="black" points="496,-944.5 496,-1056.5 655,-1056.5 655,-944.5 496,-944.5"/>
<text text-anchor="start" x="504" y="-1044.5" font-family="Helvetica,sans-Serif" font-size="10.00">cie::geo::Object&lt; Dimension,</text>
<text text-anchor="middle" x="575.5" y="-1033.5" font-family="Helvetica,sans-Serif" font-size="10.00"> Bool, Double &gt;</text>
<polyline fill="none" stroke="black" points="496,-1026.5 655,-1026.5 "/>
<text text-anchor="middle" x="575.5" y="-1014.5" font-family="Helvetica,sans-Serif" font-size="10.00"> </text>
<polyline fill="none" stroke="black" points="496,-1007.5 655,-1007.5 "/>
<text text-anchor="start" x="504" y="-995.5" font-family="Helvetica,sans-Serif" font-size="10.00">+ ~Object()</text>
<text text-anchor="start" x="504" y="-984.5" font-family="Helvetica,sans-Serif" font-size="10.00">+ evaluate()</text>
<text text-anchor="start" x="504" y="-973.5" font-family="Helvetica,sans-Serif" font-size="10.00">+ evaluate()</text>
<text text-anchor="start" x="504" y="-962.5" font-family="Helvetica,sans-Serif" font-size="10.00">+ evaluate()</text>
<text text-anchor="start" x="504" y="-951.5" font-family="Helvetica,sans-Serif" font-size="10.00">+ at()</text>
</a>
</g>
</g>
<!-- Node4&#45;&gt;Node3 -->
<g id="edge3" class="edge">
<title>Node4&#45;&gt;Node3</title>
<path fill="none" stroke="midnightblue" d="M507.65,-937.19C490.61,-921.54 472.3,-904.72 455.17,-888.99"/>
<polygon fill="none" stroke="midnightblue" points="505.65,-940.1 515.38,-944.29 510.39,-934.95 505.65,-940.1"/>
</g>
<!-- Node5 -->
<g id="node5" class="node">
<title>Node5</title>
<g id="a_node5"><a xlink:href="classcie_1_1geo_1_1Traits.html" target="_top" xlink:title=" ">
<polygon fill="white" stroke="black" points="305,-1265.5 305,-1333.5 414,-1333.5 414,-1265.5 305,-1265.5"/>
<text text-anchor="start" x="313" y="-1321.5" font-family="Helvetica,sans-Serif" font-size="10.00">cie::geo::Traits&lt; N,</text>
<text text-anchor="middle" x="359.5" y="-1310.5" font-family="Helvetica,sans-Serif" font-size="10.00"> TCoordinate &gt;</text>
<polyline fill="none" stroke="black" points="305,-1303.5 414,-1303.5 "/>
<text text-anchor="start" x="313" y="-1291.5" font-family="Helvetica,sans-Serif" font-size="10.00">+ Dimension</text>
<polyline fill="none" stroke="black" points="305,-1284.5 414,-1284.5 "/>
<text text-anchor="middle" x="359.5" y="-1272.5" font-family="Helvetica,sans-Serif" font-size="10.00"> </text>
</a>
</g>
</g>
<!-- Node5&#45;&gt;Node4 -->
<g id="edge4" class="edge">
<title>Node5&#45;&gt;Node4</title>
<path fill="none" stroke="midnightblue" d="M408.02,-1258.59C450.53,-1221.1 510.93,-1161.27 546.5,-1097 553.38,-1084.57 558.83,-1070.3 563.06,-1056.65"/>
<polygon fill="none" stroke="midnightblue" points="405.53,-1256.12 400.3,-1265.33 410.14,-1261.39 405.53,-1256.12"/>
</g>
<!-- Node8 -->
<g id="node8" class="node">
<title>Node8</title>
<g id="a_node8"><a xlink:href="classcie_1_1geo_1_1Object.html" target="_top" xlink:title="Interface for point&#45;queriable objects.">
<polygon fill="white" stroke="black" points="295.5,-1115.5 295.5,-1227.5 423.5,-1227.5 423.5,-1115.5 295.5,-1115.5"/>
<text text-anchor="start" x="303.5" y="-1215.5" font-family="Helvetica,sans-Serif" font-size="10.00">cie::geo::Object&lt; N,</text>
<text text-anchor="middle" x="359.5" y="-1204.5" font-family="Helvetica,sans-Serif" font-size="10.00"> TValue, TCoordinate &gt;</text>
<polyline fill="none" stroke="black" points="295.5,-1197.5 423.5,-1197.5 "/>
<text text-anchor="middle" x="359.5" y="-1185.5" font-family="Helvetica,sans-Serif" font-size="10.00"> </text>
<polyline fill="none" stroke="black" points="295.5,-1178.5 423.5,-1178.5 "/>
<text text-anchor="start" x="303.5" y="-1166.5" font-family="Helvetica,sans-Serif" font-size="10.00">+ ~Object()</text>
<text text-anchor="start" x="303.5" y="-1155.5" font-family="Helvetica,sans-Serif" font-size="10.00">+ evaluate()</text>
<text text-anchor="start" x="303.5" y="-1144.5" font-family="Helvetica,sans-Serif" font-size="10.00">+ evaluate()</text>
<text text-anchor="start" x="303.5" y="-1133.5" font-family="Helvetica,sans-Serif" font-size="10.00">+ evaluate()</text>
<text text-anchor="start" x="303.5" y="-1122.5" font-family="Helvetica,sans-Serif" font-size="10.00">+ at()</text>
</a>
</g>
</g>
<!-- Node5&#45;&gt;Node8 -->
<g id="edge8" class="edge">
<title>Node5&#45;&gt;Node8</title>
<path fill="none" stroke="midnightblue" d="M359.5,-1255.31C359.5,-1246.45 359.5,-1237.01 359.5,-1227.79"/>
<polygon fill="none" stroke="midnightblue" points="356,-1255.39 359.5,-1265.39 363,-1255.4 356,-1255.39"/>
</g>
<!-- Node13 -->
<g id="node13" class="node">
<title>Node13</title>
<g id="a_node13"><a xlink:href="classcie_1_1geo_1_1Object.html" target="_top" xlink:title=" ">
<polygon fill="white" stroke="black" points="25.5,-944.5 25.5,-1056.5 187.5,-1056.5 187.5,-944.5 25.5,-944.5"/>
<text text-anchor="start" x="33.5" y="-1044.5" font-family="Helvetica,sans-Serif" font-size="10.00">cie::geo::Object&lt; Dimension,</text>
<text text-anchor="middle" x="106.5" y="-1033.5" font-family="Helvetica,sans-Serif" font-size="10.00"> ValueType, CoordinateType &gt;</text>
<polyline fill="none" stroke="black" points="25.5,-1026.5 187.5,-1026.5 "/>
<text text-anchor="middle" x="106.5" y="-1014.5" font-family="Helvetica,sans-Serif" font-size="10.00"> </text>
<polyline fill="none" stroke="black" points="25.5,-1007.5 187.5,-1007.5 "/>
<text text-anchor="start" x="33.5" y="-995.5" font-family="Helvetica,sans-Serif" font-size="10.00">+ ~Object()</text>
<text text-anchor="start" x="33.5" y="-984.5" font-family="Helvetica,sans-Serif" font-size="10.00">+ evaluate()</text>
<text text-anchor="start" x="33.5" y="-973.5" font-family="Helvetica,sans-Serif" font-size="10.00">+ evaluate()</text>
<text text-anchor="start" x="33.5" y="-962.5" font-family="Helvetica,sans-Serif" font-size="10.00">+ evaluate()</text>
<text text-anchor="start" x="33.5" y="-951.5" font-family="Helvetica,sans-Serif" font-size="10.00">+ at()</text>
</a>
</g>
</g>
<!-- Node5&#45;&gt;Node13 -->
<g id="edge14" class="edge">
<title>Node5&#45;&gt;Node13</title>
<path fill="none" stroke="midnightblue" d="M315.83,-1258.14C305.94,-1248.5 295.65,-1238.08 286.5,-1228 235.69,-1172.03 182.41,-1103.59 147.12,-1056.68"/>
<polygon fill="none" stroke="midnightblue" points="313.67,-1260.92 323.29,-1265.34 318.52,-1255.88 313.67,-1260.92"/>
</g>
<!-- Node6 -->
<g id="node6" class="node">
<title>Node6</title>
<g id="a_node6"><a xlink:href="classcie_1_1geo_1_1Traits.html" target="_top" xlink:title="Basic templated traits that every object has in GEO.">
<polygon fill="white" stroke="black" points="298.5,-1381.5 298.5,-1449.5 420.5,-1449.5 420.5,-1381.5 298.5,-1381.5"/>
<text text-anchor="start" x="306.5" y="-1437.5" font-family="Helvetica,sans-Serif" font-size="10.00">cie::geo::Traits&lt; Dim,</text>
<text text-anchor="middle" x="359.5" y="-1426.5" font-family="Helvetica,sans-Serif" font-size="10.00"> TCoordinate &gt;</text>
<polyline fill="none" stroke="black" points="298.5,-1419.5 420.5,-1419.5 "/>
<text text-anchor="middle" x="359.5" y="-1407.5" font-family="Helvetica,sans-Serif" font-size="10.00"> </text>
<polyline fill="none" stroke="black" points="298.5,-1400.5 420.5,-1400.5 "/>
<text text-anchor="middle" x="359.5" y="-1388.5" font-family="Helvetica,sans-Serif" font-size="10.00"> </text>
</a>
</g>
</g>
<!-- Node6&#45;&gt;Node5 -->
<g id="edge5" class="edge">
<title>Node6&#45;&gt;Node5</title>
<path fill="none" stroke="orange" d="M359.5,-1371.06C359.5,-1358.64 359.5,-1345.32 359.5,-1333.62"/>
<polygon fill="orange" stroke="orange" points="356,-1371.22 359.5,-1381.22 363,-1371.22 356,-1371.22"/>
<text text-anchor="middle" x="408.5" y="-1355" font-family="Helvetica,sans-Serif" font-size="10.00"> &lt; N, TCoordinate &gt;</text>
</g>
<!-- Node7 -->
<g id="node7" class="node">
<title>Node7</title>
<g id="a_node7"><a xlink:title=" ">
<polygon fill="white" stroke="#bfbfbf" points="337,-1497.5 337,-1554.5 382,-1554.5 382,-1497.5 337,-1497.5"/>
<text text-anchor="middle" x="359.5" y="-1542.5" font-family="Helvetica,sans-Serif" font-size="10.00">size_t</text>
<polyline fill="none" stroke="#bfbfbf" points="337,-1535.5 382,-1535.5 "/>
<text text-anchor="middle" x="359.5" y="-1523.5" font-family="Helvetica,sans-Serif" font-size="10.00"> </text>
<polyline fill="none" stroke="#bfbfbf" points="337,-1516.5 382,-1516.5 "/>
<text text-anchor="middle" x="359.5" y="-1504.5" font-family="Helvetica,sans-Serif" font-size="10.00"> </text>
</a>
</g>
</g>
<!-- Node7&#45;&gt;Node6 -->
<g id="edge6" class="edge">
<title>Node7&#45;&gt;Node6</title>
<path fill="none" stroke="#404040" d="M359.5,-1497.34C359.5,-1486.53 359.5,-1473.85 359.5,-1461.77"/>
<polygon fill="none" stroke="#404040" points="359.5,-1461.52 355.5,-1455.52 359.5,-1449.52 363.5,-1455.52 359.5,-1461.52"/>
<text text-anchor="middle" x="391.5" y="-1471" font-family="Helvetica,sans-Serif" font-size="10.00"> +Dimension</text>
</g>
<!-- Node8&#45;&gt;Node4 -->
<g id="edge7" class="edge">
<title>Node8&#45;&gt;Node4</title>
<path fill="none" stroke="orange" d="M411.23,-1107.85C422.74,-1096.05 435.42,-1084.46 448.5,-1075 463.96,-1063.81 470.72,-1066.11 487.5,-1057 490.2,-1055.53 492.93,-1054.02 495.67,-1052.47"/>
<polygon fill="orange" stroke="orange" points="408.59,-1105.55 404.23,-1115.21 413.66,-1110.38 408.59,-1105.55"/>
<text text-anchor="start" x="448.5" y="-1089" font-family="Helvetica,sans-Serif" font-size="10.00"> &lt; Dimension, Bool,</text>
<text text-anchor="middle" x="497.5" y="-1078" font-family="Helvetica,sans-Serif" font-size="10.00"> Double &gt;</text>
</g>
<!-- Node8&#45;&gt;Node13 -->
<g id="edge15" class="edge">
<title>Node8&#45;&gt;Node13</title>
<path fill="none" stroke="orange" d="M286.76,-1121.91C255.84,-1101.26 219.67,-1077.09 187.87,-1055.85"/>
<polygon fill="orange" stroke="orange" points="285.07,-1124.99 295.33,-1127.64 288.96,-1119.17 285.07,-1124.99"/>
<text text-anchor="start" x="248.5" y="-1089" font-family="Helvetica,sans-Serif" font-size="10.00"> &lt; Dimension, ValueType,</text>
<text text-anchor="middle" x="311.5" y="-1078" font-family="Helvetica,sans-Serif" font-size="10.00"> CoordinateType &gt;</text>
</g>
<!-- Node9 -->
<g id="node9" class="node">
<title>Node9</title>
<g id="a_node9"><a xlink:title=" ">
<polygon fill="white" stroke="#bfbfbf" points="206,-961 206,-1040 341,-1040 341,-961 206,-961"/>
<text text-anchor="start" x="214" y="-1028" font-family="Helvetica,sans-Serif" font-size="10.00">void emplaceRhs(Args</text>
<text text-anchor="start" x="214" y="-1017" font-family="Helvetica,sans-Serif" font-size="10.00"> &amp;&amp;... args) requires</text>
<text text-anchor="middle" x="273.5" y="-1006" font-family="Helvetica,sans-Serif" font-size="10.00"> concepts operand_ptr &amp;</text>
<polyline fill="none" stroke="#bfbfbf" points="206,-999 341,-999 "/>
<text text-anchor="middle" x="273.5" y="-987" font-family="Helvetica,sans-Serif" font-size="10.00"> </text>
<polyline fill="none" stroke="#bfbfbf" points="206,-980 341,-980 "/>
<text text-anchor="middle" x="273.5" y="-968" font-family="Helvetica,sans-Serif" font-size="10.00"> </text>
</a>
</g>
</g>
<!-- Node9&#45;&gt;Node3 -->
<g id="edge9" class="edge">
<title>Node9&#45;&gt;Node3</title>
<path fill="none" stroke="#404040" d="M298.36,-960.77C308.63,-944.77 320.95,-925.58 333.04,-906.73"/>
<polygon fill="none" stroke="#404040" points="333.05,-906.72 332.92,-899.51 339.53,-896.62 339.66,-903.83 333.05,-906.72"/>
<text text-anchor="middle" x="340" y="-918" font-family="Helvetica,sans-Serif" font-size="10.00"> +rhs</text>
</g>
<!-- Node10 -->
<g id="node10" class="node">
<title>Node10</title>
<g id="a_node10"><a xlink:title=" ">
<polygon fill="white" stroke="#bfbfbf" points="359,-966.5 359,-1034.5 478,-1034.5 478,-966.5 359,-966.5"/>
<text text-anchor="start" x="367" y="-1022.5" font-family="Helvetica,sans-Serif" font-size="10.00">shared_ptr&lt; operand</text>
<text text-anchor="middle" x="418.5" y="-1011.5" font-family="Helvetica,sans-Serif" font-size="10.00">_type &gt;</text>
<polyline fill="none" stroke="#bfbfbf" points="359,-1004.5 478,-1004.5 "/>
<text text-anchor="middle" x="418.5" y="-992.5" font-family="Helvetica,sans-Serif" font-size="10.00"> </text>
<polyline fill="none" stroke="#bfbfbf" points="359,-985.5 478,-985.5 "/>
<text text-anchor="middle" x="418.5" y="-973.5" font-family="Helvetica,sans-Serif" font-size="10.00"> </text>
</a>
</g>
</g>
<!-- Node10&#45;&gt;Node3 -->
<g id="edge10" class="edge">
<title>Node10&#45;&gt;Node3</title>
<path fill="none" stroke="#404040" d="M412.22,-966.27C409.1,-949.82 405.19,-929.14 401.33,-908.73"/>
<polygon fill="none" stroke="#404040" points="401.3,-908.56 396.26,-903.41 399.07,-896.77 404.12,-901.92 401.3,-908.56"/>
<text text-anchor="middle" x="426" y="-918" font-family="Helvetica,sans-Serif" font-size="10.00"> #_p_rhs</text>
</g>
<!-- Node11 -->
<g id="node11" class="node">
<title>Node11</title>
<g id="a_node11"><a xlink:href="classcie_1_1geo_1_1BinaryOperator.html" target="_top" xlink:title=" ">
<polygon fill="white" stroke="black" points="129,-354.5 129,-499.5 268,-499.5 268,-354.5 129,-354.5"/>
<text text-anchor="start" x="137" y="-487.5" font-family="Helvetica,sans-Serif" font-size="10.00">cie::geo::BinaryOperator</text>
<text text-anchor="start" x="137" y="-476.5" font-family="Helvetica,sans-Serif" font-size="10.00">&lt; Dimension, ValueType,</text>
<text text-anchor="middle" x="198.5" y="-465.5" font-family="Helvetica,sans-Serif" font-size="10.00"> CoordinateType &gt;</text>
<polyline fill="none" stroke="black" points="129,-458.5 268,-458.5 "/>
<text text-anchor="middle" x="198.5" y="-446.5" font-family="Helvetica,sans-Serif" font-size="10.00"> </text>
<polyline fill="none" stroke="black" points="129,-439.5 268,-439.5 "/>
<text text-anchor="start" x="137" y="-427.5" font-family="Helvetica,sans-Serif" font-size="10.00">+ BinaryOperator()</text>
<text text-anchor="start" x="137" y="-416.5" font-family="Helvetica,sans-Serif" font-size="10.00">+ BinaryOperator()</text>
<text text-anchor="start" x="137" y="-405.5" font-family="Helvetica,sans-Serif" font-size="10.00">+ BinaryOperator()</text>
<text text-anchor="start" x="137" y="-394.5" font-family="Helvetica,sans-Serif" font-size="10.00">+ operator=()</text>
<text text-anchor="start" x="137" y="-383.5" font-family="Helvetica,sans-Serif" font-size="10.00">+ bindLhs()</text>
<text text-anchor="start" x="137" y="-372.5" font-family="Helvetica,sans-Serif" font-size="10.00">+ lhs()</text>
<text text-anchor="start" x="137" y="-361.5" font-family="Helvetica,sans-Serif" font-size="10.00">+ at()</text>
</a>
</g>
</g>
<!-- Node11&#45;&gt;Node2 -->
<g id="edge11" class="edge">
<title>Node11&#45;&gt;Node2</title>
<path fill="none" stroke="orange" d="M240.37,-345.46C248.91,-329.03 257.84,-311.85 266.21,-295.75"/>
<polygon fill="orange" stroke="orange" points="237.17,-344.01 235.67,-354.5 243.38,-347.24 237.17,-344.01"/>
<text text-anchor="start" x="254.5" y="-328" font-family="Helvetica,sans-Serif" font-size="10.00"> &lt; Dimension, Bool,</text>
<text text-anchor="middle" x="303.5" y="-317" font-family="Helvetica,sans-Serif" font-size="10.00"> CoordinateType &gt;</text>
</g>
<!-- Node12&#45;&gt;Node11 -->
<g id="edge12" class="edge">
<title>Node12&#45;&gt;Node11</title>
<path fill="none" stroke="midnightblue" d="M184.18,-537.38C185.82,-524.87 187.5,-512.03 189.11,-499.75"/>
<polygon fill="none" stroke="midnightblue" points="180.71,-536.97 182.88,-547.34 187.65,-537.87 180.71,-536.97"/>
</g>
<!-- Node13&#45;&gt;Node12 -->
<g id="edge13" class="edge">
<title>Node13&#45;&gt;Node12</title>
<path fill="none" stroke="midnightblue" d="M118.02,-934.4C129.94,-867.07 148.5,-762.23 160.83,-692.6"/>
<polygon fill="none" stroke="midnightblue" points="114.54,-934.01 116.24,-944.46 121.43,-935.23 114.54,-934.01"/>
</g>
<!-- Node14 -->
<g id="node14" class="node">
<title>Node14</title>
<g id="a_node14"><a xlink:title=" ">
<polygon fill="white" stroke="#bfbfbf" points="271.5,-591.5 271.5,-648.5 357.5,-648.5 357.5,-591.5 271.5,-591.5"/>
<text text-anchor="middle" x="314.5" y="-636.5" font-family="Helvetica,sans-Serif" font-size="10.00">operand_ptr &amp;</text>
<polyline fill="none" stroke="#bfbfbf" points="271.5,-629.5 357.5,-629.5 "/>
<text text-anchor="middle" x="314.5" y="-617.5" font-family="Helvetica,sans-Serif" font-size="10.00"> </text>
<polyline fill="none" stroke="#bfbfbf" points="271.5,-610.5 357.5,-610.5 "/>
<text text-anchor="middle" x="314.5" y="-598.5" font-family="Helvetica,sans-Serif" font-size="10.00"> </text>
</a>
</g>
</g>
<!-- Node14&#45;&gt;Node11 -->
<g id="edge17" class="edge">
<title>Node14&#45;&gt;Node11</title>
<path fill="none" stroke="#404040" d="M297.63,-591.23C284.65,-569.85 266,-539.14 248.37,-510.12"/>
<polygon fill="none" stroke="#404040" points="248.17,-509.78 241.63,-506.73 241.94,-499.52 248.47,-502.57 248.17,-509.78"/>
<text text-anchor="middle" x="269.5" y="-521" font-family="Helvetica,sans-Serif" font-size="10.00"> +lhs</text>
</g>
<!-- Node15 -->
<g id="node15" class="node">
<title>Node15</title>
<g id="a_node15"><a xlink:title=" ">
<polygon fill="white" stroke="#bfbfbf" points="0,-591.5 0,-648.5 75,-648.5 75,-591.5 0,-591.5"/>
<text text-anchor="middle" x="37.5" y="-636.5" font-family="Helvetica,sans-Serif" font-size="10.00">operand_ptr</text>
<polyline fill="none" stroke="#bfbfbf" points="0,-629.5 75,-629.5 "/>
<text text-anchor="middle" x="37.5" y="-617.5" font-family="Helvetica,sans-Serif" font-size="10.00"> </text>
<polyline fill="none" stroke="#bfbfbf" points="0,-610.5 75,-610.5 "/>
<text text-anchor="middle" x="37.5" y="-598.5" font-family="Helvetica,sans-Serif" font-size="10.00"> </text>
</a>
</g>
</g>
<!-- Node15&#45;&gt;Node11 -->
<g id="edge18" class="edge">
<title>Node15&#45;&gt;Node11</title>
<path fill="none" stroke="#404040" d="M53.98,-591.16C62.52,-577.45 73.45,-560.91 84.5,-547 95.59,-533.03 108.04,-518.81 120.53,-505.29"/>
<polygon fill="none" stroke="#404040" points="120.54,-505.28 121.71,-498.16 128.73,-496.51 127.56,-503.62 120.54,-505.28"/>
<text text-anchor="middle" x="130" y="-521" font-family="Helvetica,sans-Serif" font-size="10.00"> #_p_lhs</text>
</g>
</g>
</svg>
