<?xml version="1.0" encoding="UTF-8" standalone="no"?>
<!DOCTYPE svg PUBLIC "-//W3C//DTD SVG 1.1//EN"
 "http://www.w3.org/Graphics/SVG/1.1/DTD/svg11.dtd">
<!-- Generated by graphviz version 2.43.0 (0)
 -->
<!-- Title: cie::geo::boolean::Cube&lt; Dimension, CoordinateType &gt; Pages: 1 -->
<svg width="504pt" height="1163pt"
 viewBox="0.00 0.00 503.50 1163.00" xmlns="http://www.w3.org/2000/svg" xmlns:xlink="http://www.w3.org/1999/xlink">
<g id="graph0" class="graph" transform="scale(1 1) rotate(0) translate(4 1159)">
<title>cie::geo::boolean::Cube&lt; Dimension, CoordinateType &gt;</title>
<polygon fill="white" stroke="transparent" points="-4,4 -4,-1159 499.5,-1159 499.5,4 -4,4"/>
<!-- Node1 -->
<g id="node1" class="node">
<title>Node1</title>
<g id="a_node1"><a xlink:title="Cube with point membership test.">
<polygon fill="#bfbfbf" stroke="black" points="156.5,-0.5 156.5,-101.5 320.5,-101.5 320.5,-0.5 156.5,-0.5"/>
<text text-anchor="start" x="164.5" y="-89.5" font-family="Helvetica,sans-Serif" font-size="10.00">cie::geo::boolean::</text>
<text text-anchor="start" x="164.5" y="-78.5" font-family="Helvetica,sans-Serif" font-size="10.00">Cube&lt; Dimension, Coordinate</text>
<text text-anchor="middle" x="238.5" y="-67.5" font-family="Helvetica,sans-Serif" font-size="10.00">Type &gt;</text>
<polyline fill="none" stroke="black" points="156.5,-60.5 320.5,-60.5 "/>
<text text-anchor="middle" x="238.5" y="-48.5" font-family="Helvetica,sans-Serif" font-size="10.00"> </text>
<polyline fill="none" stroke="black" points="156.5,-41.5 320.5,-41.5 "/>
<text text-anchor="start" x="164.5" y="-29.5" font-family="Helvetica,sans-Serif" font-size="10.00">+ Cube()</text>
<text text-anchor="start" x="164.5" y="-18.5" font-family="Helvetica,sans-Serif" font-size="10.00">+ Cube()</text>
<text text-anchor="start" x="164.5" y="-7.5" font-family="Helvetica,sans-Serif" font-size="10.00"># at()</text>
</a>
</g>
</g>
<!-- Node2 -->
<g id="node2" class="node">
<title>Node2</title>
<g id="a_node2"><a xlink:href="classcie_1_1geo_1_1Cube.html" target="_top" xlink:title=" ">
<polygon fill="white" stroke="black" points="89.5,-139.5 89.5,-317.5 241.5,-317.5 241.5,-139.5 89.5,-139.5"/>
<text text-anchor="start" x="97.5" y="-305.5" font-family="Helvetica,sans-Serif" font-size="10.00">cie::geo::Cube&lt; Dimension,</text>
<text text-anchor="middle" x="165.5" y="-294.5" font-family="Helvetica,sans-Serif" font-size="10.00"> Double &gt;</text>
<polyline fill="none" stroke="black" points="89.5,-287.5 241.5,-287.5 "/>
<text text-anchor="start" x="97.5" y="-275.5" font-family="Helvetica,sans-Serif" font-size="10.00"># _base</text>
<text text-anchor="start" x="97.5" y="-264.5" font-family="Helvetica,sans-Serif" font-size="10.00"># _length</text>
<polyline fill="none" stroke="black" points="89.5,-257.5 241.5,-257.5 "/>
<text text-anchor="start" x="97.5" y="-245.5" font-family="Helvetica,sans-Serif" font-size="10.00">+ Cube()</text>
<text text-anchor="start" x="97.5" y="-234.5" font-family="Helvetica,sans-Serif" font-size="10.00">+ Cube()</text>
<text text-anchor="start" x="97.5" y="-223.5" font-family="Helvetica,sans-Serif" font-size="10.00">+ Cube()</text>
<text text-anchor="start" x="97.5" y="-212.5" font-family="Helvetica,sans-Serif" font-size="10.00">+ Cube()</text>
<text text-anchor="start" x="97.5" y="-201.5" font-family="Helvetica,sans-Serif" font-size="10.00">+ operator=()</text>
<text text-anchor="start" x="97.5" y="-190.5" font-family="Helvetica,sans-Serif" font-size="10.00">+ isDegenerate()</text>
<text text-anchor="start" x="97.5" y="-179.5" font-family="Helvetica,sans-Serif" font-size="10.00">+ base()</text>
<text text-anchor="start" x="97.5" y="-168.5" font-family="Helvetica,sans-Serif" font-size="10.00">+ base()</text>
<text text-anchor="start" x="97.5" y="-157.5" font-family="Helvetica,sans-Serif" font-size="10.00">+ length()</text>
<text text-anchor="start" x="97.5" y="-146.5" font-family="Helvetica,sans-Serif" font-size="10.00">+ length()</text>
</a>
</g>
</g>
<!-- Node2&#45;&gt;Node1 -->
<g id="edge1" class="edge">
<title>Node2&#45;&gt;Node1</title>
<path fill="none" stroke="midnightblue" d="M206.03,-130.07C210.1,-120.27 214.11,-110.63 217.84,-101.66"/>
<polygon fill="none" stroke="midnightblue" points="202.72,-128.92 202.11,-139.49 209.18,-131.6 202.72,-128.92"/>
</g>
<!-- Node3 -->
<g id="node3" class="node">
<title>Node3</title>
<g id="a_node3"><a xlink:href="classcie_1_1geo_1_1AbsPrimitive.html" target="_top" xlink:title=" ">
<polygon fill="white" stroke="black" points="0,-769 0,-848 173,-848 173,-769 0,-769"/>
<text text-anchor="start" x="8" y="-836" font-family="Helvetica,sans-Serif" font-size="10.00">cie::geo::AbsPrimitive</text>
<text text-anchor="middle" x="86.5" y="-825" font-family="Helvetica,sans-Serif" font-size="10.00">&lt; Dimension, CoordinateType &gt;</text>
<polyline fill="none" stroke="black" points="0,-818 173,-818 "/>
<text text-anchor="middle" x="86.5" y="-806" font-family="Helvetica,sans-Serif" font-size="10.00"> </text>
<polyline fill="none" stroke="black" points="0,-799 173,-799 "/>
<text text-anchor="start" x="8" y="-787" font-family="Helvetica,sans-Serif" font-size="10.00">+ ~AbsPrimitive()</text>
<text text-anchor="start" x="8" y="-776" font-family="Helvetica,sans-Serif" font-size="10.00">+ isDegenerate()</text>
</a>
</g>
</g>
<!-- Node3&#45;&gt;Node2 -->
<g id="edge2" class="edge">
<title>Node3&#45;&gt;Node2</title>
<path fill="none" stroke="midnightblue" d="M76.87,-759.06C62.39,-676.34 40.69,-503.39 80.5,-365 85.15,-348.85 92.34,-332.77 100.63,-317.63"/>
<polygon fill="none" stroke="midnightblue" points="73.43,-759.7 78.64,-768.93 80.32,-758.46 73.43,-759.7"/>
</g>
<!-- Node7 -->
<g id="node7" class="node">
<title>Node7</title>
<g id="a_node7"><a xlink:href="classcie_1_1geo_1_1AbsPrimitive.html" target="_top" xlink:title=" ">
<polygon fill="white" stroke="black" points="94.5,-598 94.5,-677 226.5,-677 226.5,-598 94.5,-598"/>
<text text-anchor="start" x="102.5" y="-665" font-family="Helvetica,sans-Serif" font-size="10.00">cie::geo::AbsPrimitive</text>
<text text-anchor="middle" x="160.5" y="-654" font-family="Helvetica,sans-Serif" font-size="10.00">&lt; Dimension, Double &gt;</text>
<polyline fill="none" stroke="black" points="94.5,-647 226.5,-647 "/>
<text text-anchor="middle" x="160.5" y="-635" font-family="Helvetica,sans-Serif" font-size="10.00"> </text>
<polyline fill="none" stroke="black" points="94.5,-628 226.5,-628 "/>
<text text-anchor="start" x="102.5" y="-616" font-family="Helvetica,sans-Serif" font-size="10.00">+ ~AbsPrimitive()</text>
<text text-anchor="start" x="102.5" y="-605" font-family="Helvetica,sans-Serif" font-size="10.00">+ isDegenerate()</text>
</a>
</g>
</g>
<!-- Node3&#45;&gt;Node7 -->
<g id="edge9" class="edge">
<title>Node3&#45;&gt;Node7</title>
<path fill="none" stroke="orange" d="M85.26,-758.55C86.39,-743.14 89.26,-726.4 95.5,-712 100.92,-699.5 109.3,-687.63 118.26,-677.22"/>
<polygon fill="orange" stroke="orange" points="81.75,-758.79 84.74,-768.96 88.74,-759.15 81.75,-758.79"/>
<text text-anchor="middle" x="155" y="-720.5" font-family="Helvetica,sans-Serif" font-size="10.00"> &lt; Dimension, Double &gt;</text>
</g>
<!-- Node4 -->
<g id="node4" class="node">
<title>Node4</title>
<g id="a_node4"><a xlink:href="classcie_1_1geo_1_1Traits.html" target="_top" xlink:title=" ">
<polygon fill="white" stroke="black" points="9.5,-970.5 9.5,-1038.5 163.5,-1038.5 163.5,-970.5 9.5,-970.5"/>
<text text-anchor="start" x="17.5" y="-1026.5" font-family="Helvetica,sans-Serif" font-size="10.00">cie::geo::Traits&lt; Dimension,</text>
<text text-anchor="middle" x="86.5" y="-1015.5" font-family="Helvetica,sans-Serif" font-size="10.00"> Double &gt;</text>
<polyline fill="none" stroke="black" points="9.5,-1008.5 163.5,-1008.5 "/>
<text text-anchor="start" x="17.5" y="-996.5" font-family="Helvetica,sans-Serif" font-size="10.00">+ Dimension</text>
<polyline fill="none" stroke="black" points="9.5,-989.5 163.5,-989.5 "/>
<text text-anchor="middle" x="86.5" y="-977.5" font-family="Helvetica,sans-Serif" font-size="10.00"> </text>
</a>
</g>
</g>
<!-- Node4&#45;&gt;Node3 -->
<g id="edge3" class="edge">
<title>Node4&#45;&gt;Node3</title>
<path fill="none" stroke="midnightblue" d="M86.5,-959.72C86.5,-926.15 86.5,-880.27 86.5,-848.07"/>
<polygon fill="none" stroke="midnightblue" points="83,-960.15 86.5,-970.15 90,-960.15 83,-960.15"/>
</g>
<!-- Node5 -->
<g id="node5" class="node">
<title>Node5</title>
<g id="a_node5"><a xlink:href="classcie_1_1geo_1_1Traits.html" target="_top" xlink:title="Basic templated traits that every object has in GEO.">
<polygon fill="white" stroke="black" points="167.5,-1086.5 167.5,-1154.5 289.5,-1154.5 289.5,-1086.5 167.5,-1086.5"/>
<text text-anchor="start" x="175.5" y="-1142.5" font-family="Helvetica,sans-Serif" font-size="10.00">cie::geo::Traits&lt; Dim,</text>
<text text-anchor="middle" x="228.5" y="-1131.5" font-family="Helvetica,sans-Serif" font-size="10.00"> TCoordinate &gt;</text>
<polyline fill="none" stroke="black" points="167.5,-1124.5 289.5,-1124.5 "/>
<text text-anchor="start" x="175.5" y="-1112.5" font-family="Helvetica,sans-Serif" font-size="10.00">+ Dimension</text>
<polyline fill="none" stroke="black" points="167.5,-1105.5 289.5,-1105.5 "/>
<text text-anchor="middle" x="228.5" y="-1093.5" font-family="Helvetica,sans-Serif" font-size="10.00"> </text>
</a>
</g>
</g>
<!-- Node5&#45;&gt;Node4 -->
<g id="edge4" class="edge">
<title>Node5&#45;&gt;Node4</title>
<path fill="none" stroke="orange" d="M157.45,-1110.62C131.1,-1103.52 103.71,-1090.78 87.5,-1068 81.52,-1059.6 79.85,-1048.83 80.1,-1038.6"/>
<polygon fill="orange" stroke="orange" points="156.93,-1114.1 167.47,-1113.08 158.59,-1107.3 156.93,-1114.1"/>
<text text-anchor="middle" x="147" y="-1060" font-family="Helvetica,sans-Serif" font-size="10.00"> &lt; Dimension, Double &gt;</text>
</g>
<!-- Node8 -->
<g id="node8" class="node">
<title>Node8</title>
<g id="a_node8"><a xlink:href="classcie_1_1geo_1_1Traits.html" target="_top" xlink:title=" ">
<polygon fill="white" stroke="black" points="151.5,-883.5 151.5,-951.5 305.5,-951.5 305.5,-883.5 151.5,-883.5"/>
<text text-anchor="start" x="159.5" y="-939.5" font-family="Helvetica,sans-Serif" font-size="10.00">cie::geo::Traits&lt; Dimension,</text>
<text text-anchor="middle" x="228.5" y="-928.5" font-family="Helvetica,sans-Serif" font-size="10.00"> CoordinateType &gt;</text>
<polyline fill="none" stroke="black" points="151.5,-921.5 305.5,-921.5 "/>
<text text-anchor="start" x="159.5" y="-909.5" font-family="Helvetica,sans-Serif" font-size="10.00">+ Dimension</text>
<polyline fill="none" stroke="black" points="151.5,-902.5 305.5,-902.5 "/>
<text text-anchor="middle" x="228.5" y="-890.5" font-family="Helvetica,sans-Serif" font-size="10.00"> </text>
</a>
</g>
</g>
<!-- Node5&#45;&gt;Node8 -->
<g id="edge8" class="edge">
<title>Node5&#45;&gt;Node8</title>
<path fill="none" stroke="orange" d="M225.8,-1076.21C225.68,-1073.43 225.58,-1070.68 225.5,-1068 224.34,-1028.04 225.66,-982.05 226.9,-951.76"/>
<polygon fill="orange" stroke="orange" points="222.3,-1076.45 226.28,-1086.27 229.29,-1076.11 222.3,-1076.45"/>
<text text-anchor="middle" x="305.5" y="-1060" font-family="Helvetica,sans-Serif" font-size="10.00"> &lt; Dimension, CoordinateType &gt;</text>
</g>
<!-- Node10 -->
<g id="node10" class="node">
<title>Node10</title>
<g id="a_node10"><a xlink:href="classcie_1_1geo_1_1Traits.html" target="_top" xlink:title=" ">
<polygon fill="white" stroke="black" points="357,-970.5 357,-1038.5 466,-1038.5 466,-970.5 357,-970.5"/>
<text text-anchor="start" x="365" y="-1026.5" font-family="Helvetica,sans-Serif" font-size="10.00">cie::geo::Traits&lt; N,</text>
<text text-anchor="middle" x="411.5" y="-1015.5" font-family="Helvetica,sans-Serif" font-size="10.00"> TCoordinate &gt;</text>
<polyline fill="none" stroke="black" points="357,-1008.5 466,-1008.5 "/>
<text text-anchor="start" x="365" y="-996.5" font-family="Helvetica,sans-Serif" font-size="10.00">+ Dimension</text>
<polyline fill="none" stroke="black" points="357,-989.5 466,-989.5 "/>
<text text-anchor="middle" x="411.5" y="-977.5" font-family="Helvetica,sans-Serif" font-size="10.00"> </text>
</a>
</g>
</g>
<!-- Node5&#45;&gt;Node10 -->
<g id="edge12" class="edge">
<title>Node5&#45;&gt;Node10</title>
<path fill="none" stroke="orange" d="M299.52,-1111.17C330.59,-1104.21 365.38,-1091.43 389.5,-1068 397.59,-1060.14 402.7,-1049.14 405.94,-1038.56"/>
<polygon fill="orange" stroke="orange" points="298.66,-1107.77 289.58,-1113.23 300.08,-1114.63 298.66,-1107.77"/>
<text text-anchor="middle" x="446.5" y="-1060" font-family="Helvetica,sans-Serif" font-size="10.00"> &lt; N, TCoordinate &gt;</text>
</g>
<!-- Node6 -->
<g id="node6" class="node">
<title>Node6</title>
<g id="a_node6"><a xlink:href="classcie_1_1geo_1_1Cube.html" target="_top" xlink:title="Cube template.">
<polygon fill="white" stroke="black" points="89.5,-365.5 89.5,-543.5 241.5,-543.5 241.5,-365.5 89.5,-365.5"/>
<text text-anchor="start" x="97.5" y="-531.5" font-family="Helvetica,sans-Serif" font-size="10.00">cie::geo::Cube&lt; Dimension,</text>
<text text-anchor="middle" x="165.5" y="-520.5" font-family="Helvetica,sans-Serif" font-size="10.00"> CoordinateType &gt;</text>
<polyline fill="none" stroke="black" points="89.5,-513.5 241.5,-513.5 "/>
<text text-anchor="start" x="97.5" y="-501.5" font-family="Helvetica,sans-Serif" font-size="10.00"># _base</text>
<text text-anchor="start" x="97.5" y="-490.5" font-family="Helvetica,sans-Serif" font-size="10.00"># _length</text>
<polyline fill="none" stroke="black" points="89.5,-483.5 241.5,-483.5 "/>
<text text-anchor="start" x="97.5" y="-471.5" font-family="Helvetica,sans-Serif" font-size="10.00">+ Cube()</text>
<text text-anchor="start" x="97.5" y="-460.5" font-family="Helvetica,sans-Serif" font-size="10.00">+ Cube()</text>
<text text-anchor="start" x="97.5" y="-449.5" font-family="Helvetica,sans-Serif" font-size="10.00">+ Cube()</text>
<text text-anchor="start" x="97.5" y="-438.5" font-family="Helvetica,sans-Serif" font-size="10.00">+ Cube()</text>
<text text-anchor="start" x="97.5" y="-427.5" font-family="Helvetica,sans-Serif" font-size="10.00">+ operator=()</text>
<text text-anchor="start" x="97.5" y="-416.5" font-family="Helvetica,sans-Serif" font-size="10.00">+ isDegenerate()</text>
<text text-anchor="start" x="97.5" y="-405.5" font-family="Helvetica,sans-Serif" font-size="10.00">+ base()</text>
<text text-anchor="start" x="97.5" y="-394.5" font-family="Helvetica,sans-Serif" font-size="10.00">+ length()</text>
<text text-anchor="start" x="97.5" y="-383.5" font-family="Helvetica,sans-Serif" font-size="10.00">+ base()</text>
<text text-anchor="start" x="97.5" y="-372.5" font-family="Helvetica,sans-Serif" font-size="10.00">+ length()</text>
</a>
</g>
</g>
<!-- Node6&#45;&gt;Node2 -->
<g id="edge5" class="edge">
<title>Node6&#45;&gt;Node2</title>
<path fill="none" stroke="orange" d="M165.5,-354.93C165.5,-342.51 165.5,-329.87 165.5,-317.63"/>
<polygon fill="orange" stroke="orange" points="162,-355.29 165.5,-365.29 169,-355.29 162,-355.29"/>
<text text-anchor="middle" x="225" y="-339" font-family="Helvetica,sans-Serif" font-size="10.00"> &lt; Dimension, Double &gt;</text>
</g>
<!-- Node7&#45;&gt;Node6 -->
<g id="edge6" class="edge">
<title>Node7&#45;&gt;Node6</title>
<path fill="none" stroke="midnightblue" d="M161.85,-587.62C162.23,-574.03 162.65,-558.84 163.06,-543.73"/>
<polygon fill="none" stroke="midnightblue" points="158.35,-587.58 161.57,-597.67 165.35,-587.77 158.35,-587.58"/>
</g>
<!-- Node8&#45;&gt;Node7 -->
<g id="edge7" class="edge">
<title>Node8&#45;&gt;Node7</title>
<path fill="none" stroke="midnightblue" d="M232.38,-873.47C234.64,-831.07 233.94,-765.1 214.5,-712 210.04,-699.81 202.89,-687.88 195.24,-677.31"/>
<polygon fill="none" stroke="midnightblue" points="228.88,-873.27 231.76,-883.46 235.87,-873.69 228.88,-873.27"/>
</g>
<!-- Node9 -->
<g id="node9" class="node">
<title>Node9</title>
<g id="a_node9"><a xlink:href="classcie_1_1geo_1_1Object.html" target="_top" xlink:title=" ">
<polygon fill="white" stroke="black" points="245,-581.5 245,-693.5 404,-693.5 404,-581.5 245,-581.5"/>
<text text-anchor="start" x="253" y="-681.5" font-family="Helvetica,sans-Serif" font-size="10.00">cie::geo::Object&lt; Dimension,</text>
<text text-anchor="middle" x="324.5" y="-670.5" font-family="Helvetica,sans-Serif" font-size="10.00"> Bool, Double &gt;</text>
<polyline fill="none" stroke="black" points="245,-663.5 404,-663.5 "/>
<text text-anchor="middle" x="324.5" y="-651.5" font-family="Helvetica,sans-Serif" font-size="10.00"> </text>
<polyline fill="none" stroke="black" points="245,-644.5 404,-644.5 "/>
<text text-anchor="start" x="253" y="-632.5" font-family="Helvetica,sans-Serif" font-size="10.00">+ ~Object()</text>
<text text-anchor="start" x="253" y="-621.5" font-family="Helvetica,sans-Serif" font-size="10.00">+ evaluate()</text>
<text text-anchor="start" x="253" y="-610.5" font-family="Helvetica,sans-Serif" font-size="10.00">+ evaluate()</text>
<text text-anchor="start" x="253" y="-599.5" font-family="Helvetica,sans-Serif" font-size="10.00">+ evaluate()</text>
<text text-anchor="start" x="253" y="-588.5" font-family="Helvetica,sans-Serif" font-size="10.00">+ at()</text>
</a>
</g>
</g>
<!-- Node9&#45;&gt;Node1 -->
<g id="edge10" class="edge">
<title>Node9&#45;&gt;Node1</title>
<path fill="none" stroke="midnightblue" d="M317.71,-571.02C311.13,-510.05 300.43,-416.71 288.5,-336 276.31,-253.54 258.83,-158.21 248.09,-101.63"/>
<polygon fill="none" stroke="midnightblue" points="314.26,-571.7 318.8,-581.27 321.22,-570.95 314.26,-571.7"/>
</g>
<!-- Node10&#45;&gt;Node9 -->
<g id="edge11" class="edge">
<title>Node10&#45;&gt;Node9</title>
<path fill="none" stroke="midnightblue" d="M384.88,-961.65C369.37,-935.05 351.04,-899.28 341.5,-865 325.64,-808.02 322.53,-740.05 322.67,-693.53"/>
<polygon fill="none" stroke="midnightblue" points="381.9,-963.49 390.01,-970.31 387.92,-959.92 381.9,-963.49"/>
</g>
<!-- Node11 -->
<g id="node11" class="node">
<title>Node11</title>
<g id="a_node11"><a xlink:href="classcie_1_1geo_1_1Object.html" target="_top" xlink:title="Interface for point&#45;queriable objects.">
<polygon fill="white" stroke="black" points="350.5,-752.5 350.5,-864.5 478.5,-864.5 478.5,-752.5 350.5,-752.5"/>
<text text-anchor="start" x="358.5" y="-852.5" font-family="Helvetica,sans-Serif" font-size="10.00">cie::geo::Object&lt; N,</text>
<text text-anchor="middle" x="414.5" y="-841.5" font-family="Helvetica,sans-Serif" font-size="10.00"> TValue, TCoordinate &gt;</text>
<polyline fill="none" stroke="black" points="350.5,-834.5 478.5,-834.5 "/>
<text text-anchor="middle" x="414.5" y="-822.5" font-family="Helvetica,sans-Serif" font-size="10.00"> </text>
<polyline fill="none" stroke="black" points="350.5,-815.5 478.5,-815.5 "/>
<text text-anchor="start" x="358.5" y="-803.5" font-family="Helvetica,sans-Serif" font-size="10.00">+ ~Object()</text>
<text text-anchor="start" x="358.5" y="-792.5" font-family="Helvetica,sans-Serif" font-size="10.00">+ evaluate()</text>
<text text-anchor="start" x="358.5" y="-781.5" font-family="Helvetica,sans-Serif" font-size="10.00">+ evaluate()</text>
<text text-anchor="start" x="358.5" y="-770.5" font-family="Helvetica,sans-Serif" font-size="10.00">+ evaluate()</text>
<text text-anchor="start" x="358.5" y="-759.5" font-family="Helvetica,sans-Serif" font-size="10.00">+ at()</text>
</a>
</g>
</g>
<!-- Node10&#45;&gt;Node11 -->
<g id="edge14" class="edge">
<title>Node10&#45;&gt;Node11</title>
<path fill="none" stroke="midnightblue" d="M412.18,-959.83C412.61,-931.72 413.18,-894.93 413.65,-864.78"/>
<polygon fill="none" stroke="midnightblue" points="408.67,-960.1 412.02,-970.15 415.67,-960.21 408.67,-960.1"/>
</g>
<!-- Node11&#45;&gt;Node9 -->
<g id="edge13" class="edge">
<title>Node11&#45;&gt;Node9</title>
<path fill="none" stroke="orange" d="M380.27,-743.22C371.57,-726.9 362.31,-709.5 353.88,-693.67"/>
<polygon fill="orange" stroke="orange" points="377.24,-744.98 385.03,-752.16 383.42,-741.69 377.24,-744.98"/>
<text text-anchor="start" x="375.5" y="-726" font-family="Helvetica,sans-Serif" font-size="10.00"> &lt; Dimension, Bool,</text>
<text text-anchor="middle" x="424.5" y="-715" font-family="Helvetica,sans-Serif" font-size="10.00"> Double &gt;</text>
</g>
</g>
</svg>
