<?xml version="1.0" encoding="UTF-8" standalone="no"?>
<!DOCTYPE svg PUBLIC "-//W3C//DTD SVG 1.1//EN"
 "http://www.w3.org/Graphics/SVG/1.1/DTD/svg11.dtd">
<!-- Generated by graphviz version 2.43.0 (0)
 -->
<!-- Title: splinekernel.splinesurfacevisual.SplineSurfaceVisual Pages: 1 -->
<svg width="184pt" height="237pt"
 viewBox="0.00 0.00 184.00 237.00" xmlns="http://www.w3.org/2000/svg" xmlns:xlink="http://www.w3.org/1999/xlink">
<g id="graph0" class="graph" transform="scale(1 1) rotate(0) translate(4 233)">
<title>splinekernel.splinesurfacevisual.SplineSurfaceVisual</title>
<polygon fill="white" stroke="transparent" points="-4,4 -4,-233 180,-233 180,4 -4,4"/>
<!-- Node1 -->
<g id="node1" class="node">
<title>Node1</title>
<g id="a_node1"><a xlink:title=" ">
<polygon fill="#bfbfbf" stroke="black" points="0,-0.5 0,-134.5 176,-134.5 176,-0.5 0,-0.5"/>
<text text-anchor="start" x="8" y="-122.5" font-family="Helvetica,sans-Serif" font-size="10.00">splinekernel.splinesurfacevisual.</text>
<text text-anchor="middle" x="88" y="-111.5" font-family="Helvetica,sans-Serif" font-size="10.00">SplineSurfaceVisual</text>
<polyline fill="none" stroke="black" points="0,-104.5 176,-104.5 "/>
<text text-anchor="start" x="8" y="-92.5" font-family="Helvetica,sans-Serif" font-size="10.00">+ surfaceKernel</text>
<polyline fill="none" stroke="black" points="0,-85.5 176,-85.5 "/>
<text text-anchor="start" x="8" y="-73.5" font-family="Helvetica,sans-Serif" font-size="10.00">+ __init__()</text>
<text text-anchor="start" x="8" y="-62.5" font-family="Helvetica,sans-Serif" font-size="10.00">+ reset()</text>
<text text-anchor="start" x="8" y="-51.5" font-family="Helvetica,sans-Serif" font-size="10.00">+ addPoint()</text>
<text text-anchor="start" x="8" y="-40.5" font-family="Helvetica,sans-Serif" font-size="10.00">+ pop()</text>
<text text-anchor="start" x="8" y="-29.5" font-family="Helvetica,sans-Serif" font-size="10.00">+ setPoint()</text>
<text text-anchor="start" x="8" y="-18.5" font-family="Helvetica,sans-Serif" font-size="10.00">+ setPolynomialOrders()</text>
<text text-anchor="start" x="8" y="-7.5" font-family="Helvetica,sans-Serif" font-size="10.00">+ draw()</text>
</a>
</g>
</g>
<!-- Node2 -->
<g id="node2" class="node">
<title>Node2</title>
<g id="a_node2"><a xlink:href="classscene_1_1visuals_1_1SurfaceVisual.html" target="_top" xlink:title=" ">
<polygon fill="white" stroke="black" points="9,-171.5 9,-228.5 167,-228.5 167,-171.5 9,-171.5"/>
<text text-anchor="middle" x="88" y="-216.5" font-family="Helvetica,sans-Serif" font-size="10.00">scene::visuals::SurfaceVisual</text>
<polyline fill="none" stroke="black" points="9,-209.5 167,-209.5 "/>
<text text-anchor="middle" x="88" y="-197.5" font-family="Helvetica,sans-Serif" font-size="10.00"> </text>
<polyline fill="none" stroke="black" points="9,-190.5 167,-190.5 "/>
<text text-anchor="middle" x="88" y="-178.5" font-family="Helvetica,sans-Serif" font-size="10.00"> </text>
</a>
</g>
</g>
<!-- Node2&#45;&gt;Node1 -->
<g id="edge1" class="edge">
<title>Node2&#45;&gt;Node1</title>
<path fill="none" stroke="midnightblue" d="M88,-161.16C88,-152.78 88,-143.67 88,-134.53"/>
<polygon fill="none" stroke="midnightblue" points="84.5,-161.32 88,-171.32 91.5,-161.32 84.5,-161.32"/>
</g>
</g>
</svg>
