<?xml version="1.0" encoding="UTF-8" standalone="no"?>
<!DOCTYPE svg PUBLIC "-//W3C//DTD SVG 1.1//EN"
 "http://www.w3.org/Graphics/SVG/1.1/DTD/svg11.dtd">
<!-- Generated by graphviz version 2.43.0 (0)
 -->
<!-- Title: cie::geo::CartesianGridSampler&lt; TPrimitive &gt; Pages: 1 -->
<svg width="255pt" height="875pt"
 viewBox="0.00 0.00 255.00 875.00" xmlns="http://www.w3.org/2000/svg" xmlns:xlink="http://www.w3.org/1999/xlink">
<g id="graph0" class="graph" transform="scale(1 1) rotate(0) translate(4 871)">
<title>cie::geo::CartesianGridSampler&lt; TPrimitive &gt;</title>
<polygon fill="white" stroke="transparent" points="-4,4 -4,-871 251,-871 251,4 -4,4"/>
<!-- Node1 -->
<g id="node1" class="node">
<title>Node1</title>
<g id="a_node1"><a xlink:title="Invalid default template.">
<polygon fill="#bfbfbf" stroke="black" points="5,-0.5 5,-101.5 173,-101.5 173,-0.5 5,-0.5"/>
<text text-anchor="start" x="13" y="-89.5" font-family="Helvetica,sans-Serif" font-size="10.00">cie::geo::CartesianGridSampler</text>
<text text-anchor="middle" x="89" y="-78.5" font-family="Helvetica,sans-Serif" font-size="10.00">&lt; TPrimitive &gt;</text>
<polyline fill="none" stroke="black" points="5,-71.5 173,-71.5 "/>
<text text-anchor="middle" x="89" y="-59.5" font-family="Helvetica,sans-Serif" font-size="10.00"> </text>
<polyline fill="none" stroke="black" points="5,-52.5 173,-52.5 "/>
<text text-anchor="start" x="13" y="-40.5" font-family="Helvetica,sans-Serif" font-size="10.00">+ CartesianGridSampler()</text>
<text text-anchor="start" x="13" y="-29.5" font-family="Helvetica,sans-Serif" font-size="10.00">+ getSamplePoint()</text>
<text text-anchor="start" x="13" y="-18.5" font-family="Helvetica,sans-Serif" font-size="10.00">+ CartesianGridSampler()</text>
<text text-anchor="start" x="13" y="-7.5" font-family="Helvetica,sans-Serif" font-size="10.00">+ getSamplePoint()</text>
</a>
</g>
</g>
<!-- Node2 -->
<g id="node2" class="node">
<title>Node2</title>
<g id="a_node2"><a xlink:href="classcie_1_1geo_1_1AbsCartesianGridSampler.html" target="_top" xlink:title="Interface for cartesian samplers.">
<polygon fill="white" stroke="black" points="8.5,-139.5 8.5,-251.5 169.5,-251.5 169.5,-139.5 8.5,-139.5"/>
<text text-anchor="start" x="16.5" y="-239.5" font-family="Helvetica,sans-Serif" font-size="10.00">cie::geo::AbsCartesianGrid</text>
<text text-anchor="middle" x="89" y="-228.5" font-family="Helvetica,sans-Serif" font-size="10.00">Sampler&lt; TPrimitive &gt;</text>
<polyline fill="none" stroke="black" points="8.5,-221.5 169.5,-221.5 "/>
<text text-anchor="middle" x="89" y="-209.5" font-family="Helvetica,sans-Serif" font-size="10.00"> </text>
<polyline fill="none" stroke="black" points="8.5,-202.5 169.5,-202.5 "/>
<text text-anchor="start" x="16.5" y="-190.5" font-family="Helvetica,sans-Serif" font-size="10.00">+ AbsCartesianGridSampler()</text>
<text text-anchor="start" x="16.5" y="-179.5" font-family="Helvetica,sans-Serif" font-size="10.00">+ size()</text>
<text text-anchor="start" x="16.5" y="-168.5" font-family="Helvetica,sans-Serif" font-size="10.00">+ setResolution()</text>
<text text-anchor="start" x="16.5" y="-157.5" font-family="Helvetica,sans-Serif" font-size="10.00"># getSpatialIndex()</text>
<text text-anchor="start" x="16.5" y="-146.5" font-family="Helvetica,sans-Serif" font-size="10.00"># getResolution()</text>
</a>
</g>
</g>
<!-- Node2&#45;&gt;Node1 -->
<g id="edge1" class="edge">
<title>Node2&#45;&gt;Node1</title>
<path fill="none" stroke="midnightblue" d="M82.27,-129.13C82.21,-119.96 82.29,-110.65 82.53,-101.83"/>
<polygon fill="none" stroke="midnightblue" points="78.77,-129.45 82.41,-139.41 85.77,-129.36 78.77,-129.45"/>
</g>
<!-- Node2&#45;&gt;Node1 -->
<g id="edge8" class="edge">
<title>Node2&#45;&gt;Node1</title>
<path fill="none" stroke="midnightblue" d="M95.73,-129.13C95.79,-119.96 95.71,-110.65 95.47,-101.83"/>
<polygon fill="none" stroke="midnightblue" points="92.23,-129.36 95.59,-139.41 99.23,-129.45 92.23,-129.36"/>
</g>
<!-- Node3 -->
<g id="node3" class="node">
<title>Node3</title>
<g id="a_node3"><a xlink:href="classcie_1_1geo_1_1PrimitiveSampler.html" target="_top" xlink:title=" ">
<polygon fill="white" stroke="black" points="16,-289.5 16,-379.5 162,-379.5 162,-289.5 16,-289.5"/>
<text text-anchor="start" x="24" y="-367.5" font-family="Helvetica,sans-Serif" font-size="10.00">cie::geo::PrimitiveSampler</text>
<text text-anchor="middle" x="89" y="-356.5" font-family="Helvetica,sans-Serif" font-size="10.00">&lt; TPrimitive &gt;</text>
<polyline fill="none" stroke="black" points="16,-349.5 162,-349.5 "/>
<text text-anchor="middle" x="89" y="-337.5" font-family="Helvetica,sans-Serif" font-size="10.00"> </text>
<polyline fill="none" stroke="black" points="16,-330.5 162,-330.5 "/>
<text text-anchor="start" x="24" y="-318.5" font-family="Helvetica,sans-Serif" font-size="10.00">+ ~PrimitiveSampler()</text>
<text text-anchor="start" x="24" y="-307.5" font-family="Helvetica,sans-Serif" font-size="10.00">+ getSamplePoint()</text>
<text text-anchor="start" x="24" y="-296.5" font-family="Helvetica,sans-Serif" font-size="10.00">+ size()</text>
</a>
</g>
</g>
<!-- Node3&#45;&gt;Node2 -->
<g id="edge2" class="edge">
<title>Node3&#45;&gt;Node2</title>
<path fill="none" stroke="midnightblue" d="M89,-279.29C89,-270.18 89,-260.71 89,-251.57"/>
<polygon fill="none" stroke="midnightblue" points="85.5,-279.4 89,-289.4 92.5,-279.4 85.5,-279.4"/>
</g>
<!-- Node4 -->
<g id="node4" class="node">
<title>Node4</title>
<g id="a_node4"><a xlink:href="classcie_1_1geo_1_1Traits.html" target="_top" xlink:title=" ">
<polygon fill="white" stroke="black" points="0,-555.5 0,-634.5 170,-634.5 170,-555.5 0,-555.5"/>
<text text-anchor="start" x="8" y="-622.5" font-family="Helvetica,sans-Serif" font-size="10.00">cie::geo::Traits&lt; Primitive</text>
<text text-anchor="start" x="8" y="-611.5" font-family="Helvetica,sans-Serif" font-size="10.00">Type::Dimension, PrimitiveType</text>
<text text-anchor="middle" x="85" y="-600.5" font-family="Helvetica,sans-Serif" font-size="10.00">::Coordinate &gt;</text>
<polyline fill="none" stroke="black" points="0,-593.5 170,-593.5 "/>
<text text-anchor="start" x="8" y="-581.5" font-family="Helvetica,sans-Serif" font-size="10.00">+ Dimension</text>
<polyline fill="none" stroke="black" points="0,-574.5 170,-574.5 "/>
<text text-anchor="middle" x="85" y="-562.5" font-family="Helvetica,sans-Serif" font-size="10.00"> </text>
</a>
</g>
</g>
<!-- Node4&#45;&gt;Node3 -->
<g id="edge3" class="edge">
<title>Node4&#45;&gt;Node3</title>
<path fill="none" stroke="midnightblue" d="M85.75,-545.22C86.49,-497.57 87.6,-425.68 88.32,-379.67"/>
<polygon fill="none" stroke="midnightblue" points="82.25,-545.25 85.6,-555.3 89.25,-545.36 82.25,-545.25"/>
</g>
<!-- Node7 -->
<g id="node7" class="node">
<title>Node7</title>
<g id="a_node7"><a xlink:href="classcie_1_1geo_1_1PrimitiveSampler.html" target="_top" xlink:title="Interface for computing sample points on primitives.">
<polygon fill="white" stroke="black" points="101,-427.5 101,-517.5 247,-517.5 247,-427.5 101,-427.5"/>
<text text-anchor="start" x="109" y="-505.5" font-family="Helvetica,sans-Serif" font-size="10.00">cie::geo::PrimitiveSampler</text>
<text text-anchor="middle" x="174" y="-494.5" font-family="Helvetica,sans-Serif" font-size="10.00">&lt; PrimitiveType &gt;</text>
<polyline fill="none" stroke="black" points="101,-487.5 247,-487.5 "/>
<text text-anchor="middle" x="174" y="-475.5" font-family="Helvetica,sans-Serif" font-size="10.00"> </text>
<polyline fill="none" stroke="black" points="101,-468.5 247,-468.5 "/>
<text text-anchor="start" x="109" y="-456.5" font-family="Helvetica,sans-Serif" font-size="10.00">+ ~PrimitiveSampler()</text>
<text text-anchor="start" x="109" y="-445.5" font-family="Helvetica,sans-Serif" font-size="10.00">+ getSamplePoint()</text>
<text text-anchor="start" x="109" y="-434.5" font-family="Helvetica,sans-Serif" font-size="10.00">+ size()</text>
</a>
</g>
</g>
<!-- Node4&#45;&gt;Node7 -->
<g id="edge7" class="edge">
<title>Node4&#45;&gt;Node7</title>
<path fill="none" stroke="midnightblue" d="M119.79,-546.9C126.9,-537.27 134.35,-527.18 141.38,-517.66"/>
<polygon fill="none" stroke="midnightblue" points="116.78,-545.09 113.65,-555.21 122.41,-549.25 116.78,-545.09"/>
</g>
<!-- Node5 -->
<g id="node5" class="node">
<title>Node5</title>
<g id="a_node5"><a xlink:href="classcie_1_1geo_1_1Traits.html" target="_top" xlink:title="Basic templated traits that every object has in GEO.">
<polygon fill="white" stroke="black" points="24,-693.5 24,-761.5 146,-761.5 146,-693.5 24,-693.5"/>
<text text-anchor="start" x="32" y="-749.5" font-family="Helvetica,sans-Serif" font-size="10.00">cie::geo::Traits&lt; Dim,</text>
<text text-anchor="middle" x="85" y="-738.5" font-family="Helvetica,sans-Serif" font-size="10.00"> TCoordinate &gt;</text>
<polyline fill="none" stroke="black" points="24,-731.5 146,-731.5 "/>
<text text-anchor="middle" x="85" y="-719.5" font-family="Helvetica,sans-Serif" font-size="10.00"> </text>
<polyline fill="none" stroke="black" points="24,-712.5 146,-712.5 "/>
<text text-anchor="middle" x="85" y="-700.5" font-family="Helvetica,sans-Serif" font-size="10.00"> </text>
</a>
</g>
</g>
<!-- Node5&#45;&gt;Node4 -->
<g id="edge4" class="edge">
<title>Node5&#45;&gt;Node4</title>
<path fill="none" stroke="orange" d="M85,-682.81C85,-667.26 85,-649.87 85,-634.77"/>
<polygon fill="orange" stroke="orange" points="81.5,-683.23 85,-693.23 88.5,-683.23 81.5,-683.23"/>
<text text-anchor="start" x="85" y="-667" font-family="Helvetica,sans-Serif" font-size="10.00"> &lt; PrimitiveType::Dimension,</text>
<text text-anchor="middle" x="156.5" y="-656" font-family="Helvetica,sans-Serif" font-size="10.00"> PrimitiveType::Coordinate &gt;</text>
</g>
<!-- Node6 -->
<g id="node6" class="node">
<title>Node6</title>
<g id="a_node6"><a xlink:title=" ">
<polygon fill="white" stroke="#bfbfbf" points="62.5,-809.5 62.5,-866.5 107.5,-866.5 107.5,-809.5 62.5,-809.5"/>
<text text-anchor="middle" x="85" y="-854.5" font-family="Helvetica,sans-Serif" font-size="10.00">size_t</text>
<polyline fill="none" stroke="#bfbfbf" points="62.5,-847.5 107.5,-847.5 "/>
<text text-anchor="middle" x="85" y="-835.5" font-family="Helvetica,sans-Serif" font-size="10.00"> </text>
<polyline fill="none" stroke="#bfbfbf" points="62.5,-828.5 107.5,-828.5 "/>
<text text-anchor="middle" x="85" y="-816.5" font-family="Helvetica,sans-Serif" font-size="10.00"> </text>
</a>
</g>
</g>
<!-- Node6&#45;&gt;Node5 -->
<g id="edge5" class="edge">
<title>Node6&#45;&gt;Node5</title>
<path fill="none" stroke="#404040" d="M85,-809.34C85,-798.53 85,-785.85 85,-773.77"/>
<polygon fill="none" stroke="#404040" points="85,-773.52 81,-767.52 85,-761.52 89,-767.52 85,-773.52"/>
<text text-anchor="middle" x="117" y="-783" font-family="Helvetica,sans-Serif" font-size="10.00"> +Dimension</text>
</g>
<!-- Node7&#45;&gt;Node3 -->
<g id="edge6" class="edge">
<title>Node7&#45;&gt;Node3</title>
<path fill="none" stroke="orange" d="M140.95,-418.63C132.95,-405.82 124.48,-392.27 116.75,-379.9"/>
<polygon fill="orange" stroke="orange" points="138.13,-420.72 146.4,-427.34 144.07,-417.01 138.13,-420.72"/>
<text text-anchor="middle" x="172" y="-401" font-family="Helvetica,sans-Serif" font-size="10.00"> &lt; TPrimitive &gt;</text>
</g>
</g>
</svg>
