<?xml version="1.0" encoding="UTF-8" standalone="no"?>
<!DOCTYPE svg PUBLIC "-//W3C//DTD SVG 1.1//EN"
 "http://www.w3.org/Graphics/SVG/1.1/DTD/svg11.dtd">
<!-- Generated by graphviz version 2.43.0 (0)
 -->
<!-- Title: cie::geo::AbsCartesianGridSampler&lt; TPrimitive &gt; Pages: 1 -->
<svg width="255pt" height="736pt"
 viewBox="0.00 0.00 255.00 736.00" xmlns="http://www.w3.org/2000/svg" xmlns:xlink="http://www.w3.org/1999/xlink">
<g id="graph0" class="graph" transform="scale(1 1) rotate(0) translate(4 732)">
<title>cie::geo::AbsCartesianGridSampler&lt; TPrimitive &gt;</title>
<polygon fill="white" stroke="transparent" points="-4,4 -4,-732 251,-732 251,4 -4,4"/>
<!-- Node1 -->
<g id="node1" class="node">
<title>Node1</title>
<g id="a_node1"><a xlink:title="Interface for cartesian samplers.">
<polygon fill="#bfbfbf" stroke="black" points="8.5,-0.5 8.5,-112.5 169.5,-112.5 169.5,-0.5 8.5,-0.5"/>
<text text-anchor="start" x="16.5" y="-100.5" font-family="Helvetica,sans-Serif" font-size="10.00">cie::geo::AbsCartesianGrid</text>
<text text-anchor="middle" x="89" y="-89.5" font-family="Helvetica,sans-Serif" font-size="10.00">Sampler&lt; TPrimitive &gt;</text>
<polyline fill="none" stroke="black" points="8.5,-82.5 169.5,-82.5 "/>
<text text-anchor="middle" x="89" y="-70.5" font-family="Helvetica,sans-Serif" font-size="10.00"> </text>
<polyline fill="none" stroke="black" points="8.5,-63.5 169.5,-63.5 "/>
<text text-anchor="start" x="16.5" y="-51.5" font-family="Helvetica,sans-Serif" font-size="10.00">+ AbsCartesianGridSampler()</text>
<text text-anchor="start" x="16.5" y="-40.5" font-family="Helvetica,sans-Serif" font-size="10.00">+ size()</text>
<text text-anchor="start" x="16.5" y="-29.5" font-family="Helvetica,sans-Serif" font-size="10.00">+ setResolution()</text>
<text text-anchor="start" x="16.5" y="-18.5" font-family="Helvetica,sans-Serif" font-size="10.00"># getSpatialIndex()</text>
<text text-anchor="start" x="16.5" y="-7.5" font-family="Helvetica,sans-Serif" font-size="10.00"># getResolution()</text>
</a>
</g>
</g>
<!-- Node2 -->
<g id="node2" class="node">
<title>Node2</title>
<g id="a_node2"><a xlink:href="classcie_1_1geo_1_1PrimitiveSampler.html" target="_top" xlink:title=" ">
<polygon fill="white" stroke="black" points="16,-150.5 16,-240.5 162,-240.5 162,-150.5 16,-150.5"/>
<text text-anchor="start" x="24" y="-228.5" font-family="Helvetica,sans-Serif" font-size="10.00">cie::geo::PrimitiveSampler</text>
<text text-anchor="middle" x="89" y="-217.5" font-family="Helvetica,sans-Serif" font-size="10.00">&lt; TPrimitive &gt;</text>
<polyline fill="none" stroke="black" points="16,-210.5 162,-210.5 "/>
<text text-anchor="middle" x="89" y="-198.5" font-family="Helvetica,sans-Serif" font-size="10.00"> </text>
<polyline fill="none" stroke="black" points="16,-191.5 162,-191.5 "/>
<text text-anchor="start" x="24" y="-179.5" font-family="Helvetica,sans-Serif" font-size="10.00">+ ~PrimitiveSampler()</text>
<text text-anchor="start" x="24" y="-168.5" font-family="Helvetica,sans-Serif" font-size="10.00">+ getSamplePoint()</text>
<text text-anchor="start" x="24" y="-157.5" font-family="Helvetica,sans-Serif" font-size="10.00">+ size()</text>
</a>
</g>
</g>
<!-- Node2&#45;&gt;Node1 -->
<g id="edge1" class="edge">
<title>Node2&#45;&gt;Node1</title>
<path fill="none" stroke="midnightblue" d="M89,-140.29C89,-131.18 89,-121.71 89,-112.57"/>
<polygon fill="none" stroke="midnightblue" points="85.5,-140.4 89,-150.4 92.5,-140.4 85.5,-140.4"/>
</g>
<!-- Node3 -->
<g id="node3" class="node">
<title>Node3</title>
<g id="a_node3"><a xlink:href="classcie_1_1geo_1_1Traits.html" target="_top" xlink:title=" ">
<polygon fill="white" stroke="black" points="0,-416.5 0,-495.5 170,-495.5 170,-416.5 0,-416.5"/>
<text text-anchor="start" x="8" y="-483.5" font-family="Helvetica,sans-Serif" font-size="10.00">cie::geo::Traits&lt; Primitive</text>
<text text-anchor="start" x="8" y="-472.5" font-family="Helvetica,sans-Serif" font-size="10.00">Type::Dimension, PrimitiveType</text>
<text text-anchor="middle" x="85" y="-461.5" font-family="Helvetica,sans-Serif" font-size="10.00">::Coordinate &gt;</text>
<polyline fill="none" stroke="black" points="0,-454.5 170,-454.5 "/>
<text text-anchor="start" x="8" y="-442.5" font-family="Helvetica,sans-Serif" font-size="10.00">+ Dimension</text>
<polyline fill="none" stroke="black" points="0,-435.5 170,-435.5 "/>
<text text-anchor="middle" x="85" y="-423.5" font-family="Helvetica,sans-Serif" font-size="10.00"> </text>
</a>
</g>
</g>
<!-- Node3&#45;&gt;Node2 -->
<g id="edge2" class="edge">
<title>Node3&#45;&gt;Node2</title>
<path fill="none" stroke="midnightblue" d="M85.75,-406.22C86.49,-358.57 87.6,-286.68 88.32,-240.67"/>
<polygon fill="none" stroke="midnightblue" points="82.25,-406.25 85.6,-416.3 89.25,-406.36 82.25,-406.25"/>
</g>
<!-- Node6 -->
<g id="node6" class="node">
<title>Node6</title>
<g id="a_node6"><a xlink:href="classcie_1_1geo_1_1PrimitiveSampler.html" target="_top" xlink:title="Interface for computing sample points on primitives.">
<polygon fill="white" stroke="black" points="101,-288.5 101,-378.5 247,-378.5 247,-288.5 101,-288.5"/>
<text text-anchor="start" x="109" y="-366.5" font-family="Helvetica,sans-Serif" font-size="10.00">cie::geo::PrimitiveSampler</text>
<text text-anchor="middle" x="174" y="-355.5" font-family="Helvetica,sans-Serif" font-size="10.00">&lt; PrimitiveType &gt;</text>
<polyline fill="none" stroke="black" points="101,-348.5 247,-348.5 "/>
<text text-anchor="middle" x="174" y="-336.5" font-family="Helvetica,sans-Serif" font-size="10.00"> </text>
<polyline fill="none" stroke="black" points="101,-329.5 247,-329.5 "/>
<text text-anchor="start" x="109" y="-317.5" font-family="Helvetica,sans-Serif" font-size="10.00">+ ~PrimitiveSampler()</text>
<text text-anchor="start" x="109" y="-306.5" font-family="Helvetica,sans-Serif" font-size="10.00">+ getSamplePoint()</text>
<text text-anchor="start" x="109" y="-295.5" font-family="Helvetica,sans-Serif" font-size="10.00">+ size()</text>
</a>
</g>
</g>
<!-- Node3&#45;&gt;Node6 -->
<g id="edge6" class="edge">
<title>Node3&#45;&gt;Node6</title>
<path fill="none" stroke="midnightblue" d="M119.79,-407.9C126.9,-398.27 134.35,-388.18 141.38,-378.66"/>
<polygon fill="none" stroke="midnightblue" points="116.78,-406.09 113.65,-416.21 122.41,-410.25 116.78,-406.09"/>
</g>
<!-- Node4 -->
<g id="node4" class="node">
<title>Node4</title>
<g id="a_node4"><a xlink:href="classcie_1_1geo_1_1Traits.html" target="_top" xlink:title="Basic templated traits that every object has in GEO.">
<polygon fill="white" stroke="black" points="24,-554.5 24,-622.5 146,-622.5 146,-554.5 24,-554.5"/>
<text text-anchor="start" x="32" y="-610.5" font-family="Helvetica,sans-Serif" font-size="10.00">cie::geo::Traits&lt; Dim,</text>
<text text-anchor="middle" x="85" y="-599.5" font-family="Helvetica,sans-Serif" font-size="10.00"> TCoordinate &gt;</text>
<polyline fill="none" stroke="black" points="24,-592.5 146,-592.5 "/>
<text text-anchor="middle" x="85" y="-580.5" font-family="Helvetica,sans-Serif" font-size="10.00"> </text>
<polyline fill="none" stroke="black" points="24,-573.5 146,-573.5 "/>
<text text-anchor="middle" x="85" y="-561.5" font-family="Helvetica,sans-Serif" font-size="10.00"> </text>
</a>
</g>
</g>
<!-- Node4&#45;&gt;Node3 -->
<g id="edge3" class="edge">
<title>Node4&#45;&gt;Node3</title>
<path fill="none" stroke="orange" d="M85,-543.81C85,-528.26 85,-510.87 85,-495.77"/>
<polygon fill="orange" stroke="orange" points="81.5,-544.23 85,-554.23 88.5,-544.23 81.5,-544.23"/>
<text text-anchor="start" x="85" y="-528" font-family="Helvetica,sans-Serif" font-size="10.00"> &lt; PrimitiveType::Dimension,</text>
<text text-anchor="middle" x="156.5" y="-517" font-family="Helvetica,sans-Serif" font-size="10.00"> PrimitiveType::Coordinate &gt;</text>
</g>
<!-- Node5 -->
<g id="node5" class="node">
<title>Node5</title>
<g id="a_node5"><a xlink:title=" ">
<polygon fill="white" stroke="#bfbfbf" points="62.5,-670.5 62.5,-727.5 107.5,-727.5 107.5,-670.5 62.5,-670.5"/>
<text text-anchor="middle" x="85" y="-715.5" font-family="Helvetica,sans-Serif" font-size="10.00">size_t</text>
<polyline fill="none" stroke="#bfbfbf" points="62.5,-708.5 107.5,-708.5 "/>
<text text-anchor="middle" x="85" y="-696.5" font-family="Helvetica,sans-Serif" font-size="10.00"> </text>
<polyline fill="none" stroke="#bfbfbf" points="62.5,-689.5 107.5,-689.5 "/>
<text text-anchor="middle" x="85" y="-677.5" font-family="Helvetica,sans-Serif" font-size="10.00"> </text>
</a>
</g>
</g>
<!-- Node5&#45;&gt;Node4 -->
<g id="edge4" class="edge">
<title>Node5&#45;&gt;Node4</title>
<path fill="none" stroke="#404040" d="M85,-670.34C85,-659.53 85,-646.85 85,-634.77"/>
<polygon fill="none" stroke="#404040" points="85,-634.52 81,-628.52 85,-622.52 89,-628.52 85,-634.52"/>
<text text-anchor="middle" x="117" y="-644" font-family="Helvetica,sans-Serif" font-size="10.00"> +Dimension</text>
</g>
<!-- Node6&#45;&gt;Node2 -->
<g id="edge5" class="edge">
<title>Node6&#45;&gt;Node2</title>
<path fill="none" stroke="orange" d="M140.95,-279.63C132.95,-266.82 124.48,-253.27 116.75,-240.9"/>
<polygon fill="orange" stroke="orange" points="138.13,-281.72 146.4,-288.34 144.07,-278.01 138.13,-281.72"/>
<text text-anchor="middle" x="172" y="-262" font-family="Helvetica,sans-Serif" font-size="10.00"> &lt; TPrimitive &gt;</text>
</g>
</g>
</svg>
