<?xml version="1.0" encoding="UTF-8" standalone="no"?>
<!DOCTYPE svg PUBLIC "-//W3C//DTD SVG 1.1//EN"
 "http://www.w3.org/Graphics/SVG/1.1/DTD/svg11.dtd">
<!-- Generated by graphviz version 2.43.0 (0)
 -->
<!-- Title: cie::geo::boolean::Ellipsoid&lt; Dimension, CoordinateType &gt; Pages: 1 -->
<svg width="504pt" height="1196pt"
 viewBox="0.00 0.00 503.50 1196.00" xmlns="http://www.w3.org/2000/svg" xmlns:xlink="http://www.w3.org/1999/xlink">
<g id="graph0" class="graph" transform="scale(1 1) rotate(0) translate(4 1192)">
<title>cie::geo::boolean::Ellipsoid&lt; Dimension, CoordinateType &gt;</title>
<polygon fill="white" stroke="transparent" points="-4,4 -4,-1192 499.5,-1192 499.5,4 -4,4"/>
<!-- Node1 -->
<g id="node1" class="node">
<title>Node1</title>
<g id="a_node1"><a xlink:title="Ellipsoid with point membership test.">
<polygon fill="#bfbfbf" stroke="black" points="186,-0.5 186,-134.5 311,-134.5 311,-0.5 186,-0.5"/>
<text text-anchor="start" x="194" y="-122.5" font-family="Helvetica,sans-Serif" font-size="10.00">cie::geo::boolean::</text>
<text text-anchor="start" x="194" y="-111.5" font-family="Helvetica,sans-Serif" font-size="10.00">Ellipsoid&lt; Dimension,</text>
<text text-anchor="middle" x="248.5" y="-100.5" font-family="Helvetica,sans-Serif" font-size="10.00"> CoordinateType &gt;</text>
<polyline fill="none" stroke="black" points="186,-93.5 311,-93.5 "/>
<text text-anchor="middle" x="248.5" y="-81.5" font-family="Helvetica,sans-Serif" font-size="10.00"> </text>
<polyline fill="none" stroke="black" points="186,-74.5 311,-74.5 "/>
<text text-anchor="start" x="194" y="-62.5" font-family="Helvetica,sans-Serif" font-size="10.00">+ Ellipsoid()</text>
<text text-anchor="start" x="194" y="-51.5" font-family="Helvetica,sans-Serif" font-size="10.00">+ Ellipsoid()</text>
<text text-anchor="start" x="194" y="-40.5" font-family="Helvetica,sans-Serif" font-size="10.00">+ Ellipsoid()</text>
<text text-anchor="start" x="194" y="-29.5" font-family="Helvetica,sans-Serif" font-size="10.00">+ Ellipsoid()</text>
<text text-anchor="start" x="194" y="-18.5" font-family="Helvetica,sans-Serif" font-size="10.00">+ operator=()</text>
<text text-anchor="start" x="194" y="-7.5" font-family="Helvetica,sans-Serif" font-size="10.00"># at()</text>
</a>
</g>
</g>
<!-- Node2 -->
<g id="node2" class="node">
<title>Node2</title>
<g id="a_node2"><a xlink:href="classcie_1_1geo_1_1Ellipsoid.html" target="_top" xlink:title=" ">
<polygon fill="white" stroke="black" points="110.5,-172.5 110.5,-350.5 242.5,-350.5 242.5,-172.5 110.5,-172.5"/>
<text text-anchor="start" x="118.5" y="-338.5" font-family="Helvetica,sans-Serif" font-size="10.00">cie::geo::Ellipsoid</text>
<text text-anchor="middle" x="176.5" y="-327.5" font-family="Helvetica,sans-Serif" font-size="10.00">&lt; Dimension, Double &gt;</text>
<polyline fill="none" stroke="black" points="110.5,-320.5 242.5,-320.5 "/>
<text text-anchor="start" x="118.5" y="-308.5" font-family="Helvetica,sans-Serif" font-size="10.00"># _center</text>
<text text-anchor="start" x="118.5" y="-297.5" font-family="Helvetica,sans-Serif" font-size="10.00"># _radii</text>
<polyline fill="none" stroke="black" points="110.5,-290.5 242.5,-290.5 "/>
<text text-anchor="start" x="118.5" y="-278.5" font-family="Helvetica,sans-Serif" font-size="10.00">+ Ellipsoid()</text>
<text text-anchor="start" x="118.5" y="-267.5" font-family="Helvetica,sans-Serif" font-size="10.00">+ Ellipsoid()</text>
<text text-anchor="start" x="118.5" y="-256.5" font-family="Helvetica,sans-Serif" font-size="10.00">+ Ellipsoid()</text>
<text text-anchor="start" x="118.5" y="-245.5" font-family="Helvetica,sans-Serif" font-size="10.00">+ Ellipsoid()</text>
<text text-anchor="start" x="118.5" y="-234.5" font-family="Helvetica,sans-Serif" font-size="10.00">+ operator=()</text>
<text text-anchor="start" x="118.5" y="-223.5" font-family="Helvetica,sans-Serif" font-size="10.00">+ isDegenerate()</text>
<text text-anchor="start" x="118.5" y="-212.5" font-family="Helvetica,sans-Serif" font-size="10.00">+ center()</text>
<text text-anchor="start" x="118.5" y="-201.5" font-family="Helvetica,sans-Serif" font-size="10.00">+ center()</text>
<text text-anchor="start" x="118.5" y="-190.5" font-family="Helvetica,sans-Serif" font-size="10.00">+ radii()</text>
<text text-anchor="start" x="118.5" y="-179.5" font-family="Helvetica,sans-Serif" font-size="10.00">+ radii()</text>
</a>
</g>
</g>
<!-- Node2&#45;&gt;Node1 -->
<g id="edge1" class="edge">
<title>Node2&#45;&gt;Node1</title>
<path fill="none" stroke="midnightblue" d="M213.13,-162.81C216.72,-153.24 220.3,-143.7 223.73,-134.56"/>
<polygon fill="none" stroke="midnightblue" points="209.78,-161.77 209.55,-172.37 216.34,-164.23 209.78,-161.77"/>
</g>
<!-- Node3 -->
<g id="node3" class="node">
<title>Node3</title>
<g id="a_node3"><a xlink:href="classcie_1_1geo_1_1AbsPrimitive.html" target="_top" xlink:title=" ">
<polygon fill="white" stroke="black" points="0,-802 0,-881 173,-881 173,-802 0,-802"/>
<text text-anchor="start" x="8" y="-869" font-family="Helvetica,sans-Serif" font-size="10.00">cie::geo::AbsPrimitive</text>
<text text-anchor="middle" x="86.5" y="-858" font-family="Helvetica,sans-Serif" font-size="10.00">&lt; Dimension, CoordinateType &gt;</text>
<polyline fill="none" stroke="black" points="0,-851 173,-851 "/>
<text text-anchor="middle" x="86.5" y="-839" font-family="Helvetica,sans-Serif" font-size="10.00"> </text>
<polyline fill="none" stroke="black" points="0,-832 173,-832 "/>
<text text-anchor="start" x="8" y="-820" font-family="Helvetica,sans-Serif" font-size="10.00">+ ~AbsPrimitive()</text>
<text text-anchor="start" x="8" y="-809" font-family="Helvetica,sans-Serif" font-size="10.00">+ isDegenerate()</text>
</a>
</g>
</g>
<!-- Node3&#45;&gt;Node2 -->
<g id="edge2" class="edge">
<title>Node3&#45;&gt;Node2</title>
<path fill="none" stroke="midnightblue" d="M76.04,-791.8C60.32,-708.71 36.82,-535.22 80.5,-398 87.1,-377.26 98.16,-356.97 110.47,-338.66"/>
<polygon fill="none" stroke="midnightblue" points="72.62,-792.57 77.96,-801.72 79.49,-791.24 72.62,-792.57"/>
</g>
<!-- Node7 -->
<g id="node7" class="node">
<title>Node7</title>
<g id="a_node7"><a xlink:href="classcie_1_1geo_1_1AbsPrimitive.html" target="_top" xlink:title=" ">
<polygon fill="white" stroke="black" points="98.5,-631 98.5,-710 230.5,-710 230.5,-631 98.5,-631"/>
<text text-anchor="start" x="106.5" y="-698" font-family="Helvetica,sans-Serif" font-size="10.00">cie::geo::AbsPrimitive</text>
<text text-anchor="middle" x="164.5" y="-687" font-family="Helvetica,sans-Serif" font-size="10.00">&lt; Dimension, Double &gt;</text>
<polyline fill="none" stroke="black" points="98.5,-680 230.5,-680 "/>
<text text-anchor="middle" x="164.5" y="-668" font-family="Helvetica,sans-Serif" font-size="10.00"> </text>
<polyline fill="none" stroke="black" points="98.5,-661 230.5,-661 "/>
<text text-anchor="start" x="106.5" y="-649" font-family="Helvetica,sans-Serif" font-size="10.00">+ ~AbsPrimitive()</text>
<text text-anchor="start" x="106.5" y="-638" font-family="Helvetica,sans-Serif" font-size="10.00">+ isDegenerate()</text>
</a>
</g>
</g>
<!-- Node3&#45;&gt;Node7 -->
<g id="edge9" class="edge">
<title>Node3&#45;&gt;Node7</title>
<path fill="none" stroke="orange" d="M85.01,-791.44C86.12,-776.02 89.04,-759.31 95.5,-745 101.19,-732.4 109.94,-720.57 119.31,-710.25"/>
<polygon fill="orange" stroke="orange" points="81.49,-791.7 84.5,-801.85 88.48,-792.03 81.49,-791.7"/>
<text text-anchor="middle" x="155" y="-753.5" font-family="Helvetica,sans-Serif" font-size="10.00"> &lt; Dimension, Double &gt;</text>
</g>
<!-- Node4 -->
<g id="node4" class="node">
<title>Node4</title>
<g id="a_node4"><a xlink:href="classcie_1_1geo_1_1Traits.html" target="_top" xlink:title=" ">
<polygon fill="white" stroke="black" points="9.5,-1003.5 9.5,-1071.5 163.5,-1071.5 163.5,-1003.5 9.5,-1003.5"/>
<text text-anchor="start" x="17.5" y="-1059.5" font-family="Helvetica,sans-Serif" font-size="10.00">cie::geo::Traits&lt; Dimension,</text>
<text text-anchor="middle" x="86.5" y="-1048.5" font-family="Helvetica,sans-Serif" font-size="10.00"> Double &gt;</text>
<polyline fill="none" stroke="black" points="9.5,-1041.5 163.5,-1041.5 "/>
<text text-anchor="start" x="17.5" y="-1029.5" font-family="Helvetica,sans-Serif" font-size="10.00">+ Dimension</text>
<polyline fill="none" stroke="black" points="9.5,-1022.5 163.5,-1022.5 "/>
<text text-anchor="middle" x="86.5" y="-1010.5" font-family="Helvetica,sans-Serif" font-size="10.00"> </text>
</a>
</g>
</g>
<!-- Node4&#45;&gt;Node3 -->
<g id="edge3" class="edge">
<title>Node4&#45;&gt;Node3</title>
<path fill="none" stroke="midnightblue" d="M86.5,-992.72C86.5,-959.15 86.5,-913.27 86.5,-881.07"/>
<polygon fill="none" stroke="midnightblue" points="83,-993.15 86.5,-1003.15 90,-993.15 83,-993.15"/>
</g>
<!-- Node5 -->
<g id="node5" class="node">
<title>Node5</title>
<g id="a_node5"><a xlink:href="classcie_1_1geo_1_1Traits.html" target="_top" xlink:title="Basic templated traits that every object has in GEO.">
<polygon fill="white" stroke="black" points="167.5,-1119.5 167.5,-1187.5 289.5,-1187.5 289.5,-1119.5 167.5,-1119.5"/>
<text text-anchor="start" x="175.5" y="-1175.5" font-family="Helvetica,sans-Serif" font-size="10.00">cie::geo::Traits&lt; Dim,</text>
<text text-anchor="middle" x="228.5" y="-1164.5" font-family="Helvetica,sans-Serif" font-size="10.00"> TCoordinate &gt;</text>
<polyline fill="none" stroke="black" points="167.5,-1157.5 289.5,-1157.5 "/>
<text text-anchor="start" x="175.5" y="-1145.5" font-family="Helvetica,sans-Serif" font-size="10.00">+ Dimension</text>
<polyline fill="none" stroke="black" points="167.5,-1138.5 289.5,-1138.5 "/>
<text text-anchor="middle" x="228.5" y="-1126.5" font-family="Helvetica,sans-Serif" font-size="10.00"> </text>
</a>
</g>
</g>
<!-- Node5&#45;&gt;Node4 -->
<g id="edge4" class="edge">
<title>Node5&#45;&gt;Node4</title>
<path fill="none" stroke="orange" d="M157.45,-1143.62C131.1,-1136.52 103.71,-1123.78 87.5,-1101 81.52,-1092.6 79.85,-1081.83 80.1,-1071.6"/>
<polygon fill="orange" stroke="orange" points="156.93,-1147.1 167.47,-1146.08 158.59,-1140.3 156.93,-1147.1"/>
<text text-anchor="middle" x="147" y="-1093" font-family="Helvetica,sans-Serif" font-size="10.00"> &lt; Dimension, Double &gt;</text>
</g>
<!-- Node8 -->
<g id="node8" class="node">
<title>Node8</title>
<g id="a_node8"><a xlink:href="classcie_1_1geo_1_1Traits.html" target="_top" xlink:title=" ">
<polygon fill="white" stroke="black" points="151.5,-916.5 151.5,-984.5 305.5,-984.5 305.5,-916.5 151.5,-916.5"/>
<text text-anchor="start" x="159.5" y="-972.5" font-family="Helvetica,sans-Serif" font-size="10.00">cie::geo::Traits&lt; Dimension,</text>
<text text-anchor="middle" x="228.5" y="-961.5" font-family="Helvetica,sans-Serif" font-size="10.00"> CoordinateType &gt;</text>
<polyline fill="none" stroke="black" points="151.5,-954.5 305.5,-954.5 "/>
<text text-anchor="start" x="159.5" y="-942.5" font-family="Helvetica,sans-Serif" font-size="10.00">+ Dimension</text>
<polyline fill="none" stroke="black" points="151.5,-935.5 305.5,-935.5 "/>
<text text-anchor="middle" x="228.5" y="-923.5" font-family="Helvetica,sans-Serif" font-size="10.00"> </text>
</a>
</g>
</g>
<!-- Node5&#45;&gt;Node8 -->
<g id="edge8" class="edge">
<title>Node5&#45;&gt;Node8</title>
<path fill="none" stroke="orange" d="M225.8,-1109.21C225.68,-1106.43 225.58,-1103.68 225.5,-1101 224.34,-1061.04 225.66,-1015.05 226.9,-984.76"/>
<polygon fill="orange" stroke="orange" points="222.3,-1109.45 226.28,-1119.27 229.29,-1109.11 222.3,-1109.45"/>
<text text-anchor="middle" x="305.5" y="-1093" font-family="Helvetica,sans-Serif" font-size="10.00"> &lt; Dimension, CoordinateType &gt;</text>
</g>
<!-- Node10 -->
<g id="node10" class="node">
<title>Node10</title>
<g id="a_node10"><a xlink:href="classcie_1_1geo_1_1Traits.html" target="_top" xlink:title=" ">
<polygon fill="white" stroke="black" points="357,-1003.5 357,-1071.5 466,-1071.5 466,-1003.5 357,-1003.5"/>
<text text-anchor="start" x="365" y="-1059.5" font-family="Helvetica,sans-Serif" font-size="10.00">cie::geo::Traits&lt; N,</text>
<text text-anchor="middle" x="411.5" y="-1048.5" font-family="Helvetica,sans-Serif" font-size="10.00"> TCoordinate &gt;</text>
<polyline fill="none" stroke="black" points="357,-1041.5 466,-1041.5 "/>
<text text-anchor="start" x="365" y="-1029.5" font-family="Helvetica,sans-Serif" font-size="10.00">+ Dimension</text>
<polyline fill="none" stroke="black" points="357,-1022.5 466,-1022.5 "/>
<text text-anchor="middle" x="411.5" y="-1010.5" font-family="Helvetica,sans-Serif" font-size="10.00"> </text>
</a>
</g>
</g>
<!-- Node5&#45;&gt;Node10 -->
<g id="edge12" class="edge">
<title>Node5&#45;&gt;Node10</title>
<path fill="none" stroke="orange" d="M299.52,-1144.17C330.59,-1137.21 365.38,-1124.43 389.5,-1101 397.59,-1093.14 402.7,-1082.14 405.94,-1071.56"/>
<polygon fill="orange" stroke="orange" points="298.66,-1140.77 289.58,-1146.23 300.08,-1147.63 298.66,-1140.77"/>
<text text-anchor="middle" x="446.5" y="-1093" font-family="Helvetica,sans-Serif" font-size="10.00"> &lt; N, TCoordinate &gt;</text>
</g>
<!-- Node6 -->
<g id="node6" class="node">
<title>Node6</title>
<g id="a_node6"><a xlink:href="classcie_1_1geo_1_1Ellipsoid.html" target="_top" xlink:title="Ellipsoid template.">
<polygon fill="white" stroke="black" points="90,-398.5 90,-576.5 263,-576.5 263,-398.5 90,-398.5"/>
<text text-anchor="start" x="98" y="-564.5" font-family="Helvetica,sans-Serif" font-size="10.00">cie::geo::Ellipsoid</text>
<text text-anchor="middle" x="176.5" y="-553.5" font-family="Helvetica,sans-Serif" font-size="10.00">&lt; Dimension, CoordinateType &gt;</text>
<polyline fill="none" stroke="black" points="90,-546.5 263,-546.5 "/>
<text text-anchor="start" x="98" y="-534.5" font-family="Helvetica,sans-Serif" font-size="10.00"># _center</text>
<text text-anchor="start" x="98" y="-523.5" font-family="Helvetica,sans-Serif" font-size="10.00"># _radii</text>
<polyline fill="none" stroke="black" points="90,-516.5 263,-516.5 "/>
<text text-anchor="start" x="98" y="-504.5" font-family="Helvetica,sans-Serif" font-size="10.00">+ Ellipsoid()</text>
<text text-anchor="start" x="98" y="-493.5" font-family="Helvetica,sans-Serif" font-size="10.00">+ Ellipsoid()</text>
<text text-anchor="start" x="98" y="-482.5" font-family="Helvetica,sans-Serif" font-size="10.00">+ Ellipsoid()</text>
<text text-anchor="start" x="98" y="-471.5" font-family="Helvetica,sans-Serif" font-size="10.00">+ Ellipsoid()</text>
<text text-anchor="start" x="98" y="-460.5" font-family="Helvetica,sans-Serif" font-size="10.00">+ operator=()</text>
<text text-anchor="start" x="98" y="-449.5" font-family="Helvetica,sans-Serif" font-size="10.00">+ isDegenerate()</text>
<text text-anchor="start" x="98" y="-438.5" font-family="Helvetica,sans-Serif" font-size="10.00">+ center()</text>
<text text-anchor="start" x="98" y="-427.5" font-family="Helvetica,sans-Serif" font-size="10.00">+ center()</text>
<text text-anchor="start" x="98" y="-416.5" font-family="Helvetica,sans-Serif" font-size="10.00">+ radii()</text>
<text text-anchor="start" x="98" y="-405.5" font-family="Helvetica,sans-Serif" font-size="10.00">+ radii()</text>
</a>
</g>
</g>
<!-- Node6&#45;&gt;Node2 -->
<g id="edge5" class="edge">
<title>Node6&#45;&gt;Node2</title>
<path fill="none" stroke="orange" d="M176.5,-387.93C176.5,-375.51 176.5,-362.87 176.5,-350.63"/>
<polygon fill="orange" stroke="orange" points="173,-388.29 176.5,-398.29 180,-388.29 173,-388.29"/>
<text text-anchor="middle" x="236" y="-372" font-family="Helvetica,sans-Serif" font-size="10.00"> &lt; Dimension, Double &gt;</text>
</g>
<!-- Node7&#45;&gt;Node6 -->
<g id="edge6" class="edge">
<title>Node7&#45;&gt;Node6</title>
<path fill="none" stroke="midnightblue" d="M167.74,-620.62C168.64,-607.03 169.65,-591.84 170.65,-576.73"/>
<polygon fill="none" stroke="midnightblue" points="164.24,-620.46 167.07,-630.67 171.23,-620.92 164.24,-620.46"/>
</g>
<!-- Node8&#45;&gt;Node7 -->
<g id="edge7" class="edge">
<title>Node8&#45;&gt;Node7</title>
<path fill="none" stroke="midnightblue" d="M231.99,-905.98C233.9,-863.67 232.88,-798.17 214.5,-745 210.31,-732.89 203.59,-720.91 196.41,-710.25"/>
<polygon fill="none" stroke="midnightblue" points="228.48,-906.05 231.45,-916.22 235.47,-906.42 228.48,-906.05"/>
</g>
<!-- Node9 -->
<g id="node9" class="node">
<title>Node9</title>
<g id="a_node9"><a xlink:href="classcie_1_1geo_1_1Object.html" target="_top" xlink:title=" ">
<polygon fill="white" stroke="black" points="249,-614.5 249,-726.5 408,-726.5 408,-614.5 249,-614.5"/>
<text text-anchor="start" x="257" y="-714.5" font-family="Helvetica,sans-Serif" font-size="10.00">cie::geo::Object&lt; Dimension,</text>
<text text-anchor="middle" x="328.5" y="-703.5" font-family="Helvetica,sans-Serif" font-size="10.00"> Bool, Double &gt;</text>
<polyline fill="none" stroke="black" points="249,-696.5 408,-696.5 "/>
<text text-anchor="middle" x="328.5" y="-684.5" font-family="Helvetica,sans-Serif" font-size="10.00"> </text>
<polyline fill="none" stroke="black" points="249,-677.5 408,-677.5 "/>
<text text-anchor="start" x="257" y="-665.5" font-family="Helvetica,sans-Serif" font-size="10.00">+ ~Object()</text>
<text text-anchor="start" x="257" y="-654.5" font-family="Helvetica,sans-Serif" font-size="10.00">+ evaluate()</text>
<text text-anchor="start" x="257" y="-643.5" font-family="Helvetica,sans-Serif" font-size="10.00">+ evaluate()</text>
<text text-anchor="start" x="257" y="-632.5" font-family="Helvetica,sans-Serif" font-size="10.00">+ evaluate()</text>
<text text-anchor="start" x="257" y="-621.5" font-family="Helvetica,sans-Serif" font-size="10.00">+ at()</text>
</a>
</g>
</g>
<!-- Node9&#45;&gt;Node1 -->
<g id="edge10" class="edge">
<title>Node9&#45;&gt;Node1</title>
<path fill="none" stroke="midnightblue" d="M323.54,-604.01C318.61,-543.03 310.22,-449.67 299.5,-369 288.73,-287.96 272.38,-195.28 261.11,-134.54"/>
<polygon fill="none" stroke="midnightblue" points="320.08,-604.57 324.37,-614.25 327.06,-604.01 320.08,-604.57"/>
</g>
<!-- Node10&#45;&gt;Node9 -->
<g id="edge11" class="edge">
<title>Node10&#45;&gt;Node9</title>
<path fill="none" stroke="midnightblue" d="M385.94,-994.44C371.1,-967.8 353.58,-932.05 344.5,-898 329.32,-841.05 326.41,-773.37 326.62,-726.92"/>
<polygon fill="none" stroke="midnightblue" points="383.09,-996.5 391.07,-1003.47 389.17,-993.04 383.09,-996.5"/>
</g>
<!-- Node11 -->
<g id="node11" class="node">
<title>Node11</title>
<g id="a_node11"><a xlink:href="classcie_1_1geo_1_1Object.html" target="_top" xlink:title="Interface for point&#45;queriable objects.">
<polygon fill="white" stroke="black" points="353.5,-785.5 353.5,-897.5 481.5,-897.5 481.5,-785.5 353.5,-785.5"/>
<text text-anchor="start" x="361.5" y="-885.5" font-family="Helvetica,sans-Serif" font-size="10.00">cie::geo::Object&lt; N,</text>
<text text-anchor="middle" x="417.5" y="-874.5" font-family="Helvetica,sans-Serif" font-size="10.00"> TValue, TCoordinate &gt;</text>
<polyline fill="none" stroke="black" points="353.5,-867.5 481.5,-867.5 "/>
<text text-anchor="middle" x="417.5" y="-855.5" font-family="Helvetica,sans-Serif" font-size="10.00"> </text>
<polyline fill="none" stroke="black" points="353.5,-848.5 481.5,-848.5 "/>
<text text-anchor="start" x="361.5" y="-836.5" font-family="Helvetica,sans-Serif" font-size="10.00">+ ~Object()</text>
<text text-anchor="start" x="361.5" y="-825.5" font-family="Helvetica,sans-Serif" font-size="10.00">+ evaluate()</text>
<text text-anchor="start" x="361.5" y="-814.5" font-family="Helvetica,sans-Serif" font-size="10.00">+ evaluate()</text>
<text text-anchor="start" x="361.5" y="-803.5" font-family="Helvetica,sans-Serif" font-size="10.00">+ evaluate()</text>
<text text-anchor="start" x="361.5" y="-792.5" font-family="Helvetica,sans-Serif" font-size="10.00">+ at()</text>
</a>
</g>
</g>
<!-- Node10&#45;&gt;Node11 -->
<g id="edge14" class="edge">
<title>Node10&#45;&gt;Node11</title>
<path fill="none" stroke="midnightblue" d="M412.85,-992.83C413.72,-964.72 414.86,-927.93 415.79,-897.78"/>
<polygon fill="none" stroke="midnightblue" points="409.34,-993.05 412.53,-1003.15 416.34,-993.26 409.34,-993.05"/>
</g>
<!-- Node11&#45;&gt;Node9 -->
<g id="edge13" class="edge">
<title>Node11&#45;&gt;Node9</title>
<path fill="none" stroke="orange" d="M383.65,-776.22C375.05,-759.9 365.89,-742.5 357.56,-726.67"/>
<polygon fill="orange" stroke="orange" points="380.6,-777.95 388.36,-785.16 386.8,-774.68 380.6,-777.95"/>
<text text-anchor="start" x="378.5" y="-759" font-family="Helvetica,sans-Serif" font-size="10.00"> &lt; Dimension, Bool,</text>
<text text-anchor="middle" x="427.5" y="-748" font-family="Helvetica,sans-Serif" font-size="10.00"> Double &gt;</text>
</g>
</g>
</svg>
