<?xml version="1.0" encoding="UTF-8" standalone="no"?>
<!DOCTYPE svg PUBLIC "-//W3C//DTD SVG 1.1//EN"
 "http://www.w3.org/Graphics/SVG/1.1/DTD/svg11.dtd">
<!-- Generated by graphviz version 2.43.0 (0)
 -->
<!-- Title: cie::geo::Complement&lt; Dimension, CoordinateType &gt; Pages: 1 -->
<svg width="348pt" height="1073pt"
 viewBox="0.00 0.00 347.50 1073.00" xmlns="http://www.w3.org/2000/svg" xmlns:xlink="http://www.w3.org/1999/xlink">
<g id="graph0" class="graph" transform="scale(1 1) rotate(0) translate(4 1069)">
<title>cie::geo::Complement&lt; Dimension, CoordinateType &gt;</title>
<polygon fill="white" stroke="transparent" points="-4,4 -4,-1069 343.5,-1069 343.5,4 -4,4"/>
<!-- Node1 -->
<g id="node1" class="node">
<title>Node1</title>
<g id="a_node1"><a xlink:title=" ">
<polygon fill="#bfbfbf" stroke="black" points="50.5,-0.5 50.5,-112.5 223.5,-112.5 223.5,-0.5 50.5,-0.5"/>
<text text-anchor="start" x="58.5" y="-100.5" font-family="Helvetica,sans-Serif" font-size="10.00">cie::geo::Complement</text>
<text text-anchor="middle" x="137" y="-89.5" font-family="Helvetica,sans-Serif" font-size="10.00">&lt; Dimension, CoordinateType &gt;</text>
<polyline fill="none" stroke="black" points="50.5,-82.5 223.5,-82.5 "/>
<text text-anchor="middle" x="137" y="-70.5" font-family="Helvetica,sans-Serif" font-size="10.00"> </text>
<polyline fill="none" stroke="black" points="50.5,-63.5 223.5,-63.5 "/>
<text text-anchor="start" x="58.5" y="-51.5" font-family="Helvetica,sans-Serif" font-size="10.00">+ Complement()</text>
<text text-anchor="start" x="58.5" y="-40.5" font-family="Helvetica,sans-Serif" font-size="10.00">+ Complement()</text>
<text text-anchor="start" x="58.5" y="-29.5" font-family="Helvetica,sans-Serif" font-size="10.00">+ Complement()</text>
<text text-anchor="start" x="58.5" y="-18.5" font-family="Helvetica,sans-Serif" font-size="10.00">+ operator=()</text>
<text text-anchor="start" x="58.5" y="-7.5" font-family="Helvetica,sans-Serif" font-size="10.00">+ at()</text>
</a>
</g>
</g>
<!-- Node2 -->
<g id="node2" class="node">
<title>Node2</title>
<g id="a_node2"><a xlink:href="classcie_1_1geo_1_1UnaryOperator.html" target="_top" xlink:title=" ">
<polygon fill="white" stroke="black" points="53.5,-150.5 53.5,-306.5 220.5,-306.5 220.5,-150.5 53.5,-150.5"/>
<text text-anchor="start" x="61.5" y="-294.5" font-family="Helvetica,sans-Serif" font-size="10.00">cie::geo::UnaryOperator</text>
<text text-anchor="start" x="61.5" y="-283.5" font-family="Helvetica,sans-Serif" font-size="10.00">&lt; Dimension, Bool, Coordinate</text>
<text text-anchor="middle" x="137" y="-272.5" font-family="Helvetica,sans-Serif" font-size="10.00">Type &gt;</text>
<polyline fill="none" stroke="black" points="53.5,-265.5 220.5,-265.5 "/>
<text text-anchor="start" x="61.5" y="-253.5" font-family="Helvetica,sans-Serif" font-size="10.00">+ rhs</text>
<text text-anchor="start" x="61.5" y="-242.5" font-family="Helvetica,sans-Serif" font-size="10.00"># _p_rhs</text>
<polyline fill="none" stroke="black" points="53.5,-235.5 220.5,-235.5 "/>
<text text-anchor="start" x="61.5" y="-223.5" font-family="Helvetica,sans-Serif" font-size="10.00">+ rhs()</text>
<text text-anchor="start" x="61.5" y="-212.5" font-family="Helvetica,sans-Serif" font-size="10.00">+ UnaryOperator()</text>
<text text-anchor="start" x="61.5" y="-201.5" font-family="Helvetica,sans-Serif" font-size="10.00">+ UnaryOperator()</text>
<text text-anchor="start" x="61.5" y="-190.5" font-family="Helvetica,sans-Serif" font-size="10.00">+ UnaryOperator()</text>
<text text-anchor="start" x="61.5" y="-179.5" font-family="Helvetica,sans-Serif" font-size="10.00">+ operator=()</text>
<text text-anchor="start" x="61.5" y="-168.5" font-family="Helvetica,sans-Serif" font-size="10.00">+ bindRhs()</text>
<text text-anchor="start" x="61.5" y="-157.5" font-family="Helvetica,sans-Serif" font-size="10.00">+ at()</text>
</a>
</g>
</g>
<!-- Node2&#45;&gt;Node1 -->
<g id="edge1" class="edge">
<title>Node2&#45;&gt;Node1</title>
<path fill="none" stroke="midnightblue" d="M137,-140.35C137,-131.02 137,-121.73 137,-112.93"/>
<polygon fill="none" stroke="midnightblue" points="133.5,-140.46 137,-150.46 140.5,-140.46 133.5,-140.46"/>
</g>
<!-- Node3 -->
<g id="node3" class="node">
<title>Node3</title>
<g id="a_node3"><a xlink:href="classcie_1_1geo_1_1Object.html" target="_top" xlink:title=" ">
<polygon fill="white" stroke="black" points="0,-559.5 0,-671.5 162,-671.5 162,-559.5 0,-559.5"/>
<text text-anchor="start" x="8" y="-659.5" font-family="Helvetica,sans-Serif" font-size="10.00">cie::geo::Object&lt; Dimension,</text>
<text text-anchor="middle" x="81" y="-648.5" font-family="Helvetica,sans-Serif" font-size="10.00"> ValueType, CoordinateType &gt;</text>
<polyline fill="none" stroke="black" points="0,-641.5 162,-641.5 "/>
<text text-anchor="middle" x="81" y="-629.5" font-family="Helvetica,sans-Serif" font-size="10.00"> </text>
<polyline fill="none" stroke="black" points="0,-622.5 162,-622.5 "/>
<text text-anchor="start" x="8" y="-610.5" font-family="Helvetica,sans-Serif" font-size="10.00">+ ~Object()</text>
<text text-anchor="start" x="8" y="-599.5" font-family="Helvetica,sans-Serif" font-size="10.00">+ evaluate()</text>
<text text-anchor="start" x="8" y="-588.5" font-family="Helvetica,sans-Serif" font-size="10.00">+ evaluate()</text>
<text text-anchor="start" x="8" y="-577.5" font-family="Helvetica,sans-Serif" font-size="10.00">+ evaluate()</text>
<text text-anchor="start" x="8" y="-566.5" font-family="Helvetica,sans-Serif" font-size="10.00">+ at()</text>
</a>
</g>
</g>
<!-- Node3&#45;&gt;Node2 -->
<g id="edge2" class="edge">
<title>Node3&#45;&gt;Node2</title>
<path fill="none" stroke="midnightblue" d="M90.48,-549.32C100.23,-482.32 115.4,-377.99 125.75,-306.85"/>
<polygon fill="none" stroke="midnightblue" points="87,-548.94 89.02,-559.34 93.93,-549.95 87,-548.94"/>
</g>
<!-- Node4 -->
<g id="node4" class="node">
<title>Node4</title>
<g id="a_node4"><a xlink:href="classcie_1_1geo_1_1Traits.html" target="_top" xlink:title=" ">
<polygon fill="white" stroke="black" points="145.5,-880.5 145.5,-948.5 254.5,-948.5 254.5,-880.5 145.5,-880.5"/>
<text text-anchor="start" x="153.5" y="-936.5" font-family="Helvetica,sans-Serif" font-size="10.00">cie::geo::Traits&lt; N,</text>
<text text-anchor="middle" x="200" y="-925.5" font-family="Helvetica,sans-Serif" font-size="10.00"> TCoordinate &gt;</text>
<polyline fill="none" stroke="black" points="145.5,-918.5 254.5,-918.5 "/>
<text text-anchor="start" x="153.5" y="-906.5" font-family="Helvetica,sans-Serif" font-size="10.00">+ Dimension</text>
<polyline fill="none" stroke="black" points="145.5,-899.5 254.5,-899.5 "/>
<text text-anchor="middle" x="200" y="-887.5" font-family="Helvetica,sans-Serif" font-size="10.00"> </text>
</a>
</g>
</g>
<!-- Node4&#45;&gt;Node3 -->
<g id="edge3" class="edge">
<title>Node4&#45;&gt;Node3</title>
<path fill="none" stroke="midnightblue" d="M151.44,-873.18C142.41,-863.97 133.72,-853.72 127,-843 94.45,-791.08 94.63,-772.35 84,-712 81.71,-699.01 80.56,-684.88 80.05,-671.57"/>
<polygon fill="none" stroke="midnightblue" points="149.14,-875.82 158.73,-880.32 154.04,-870.82 149.14,-875.82"/>
</g>
<!-- Node6 -->
<g id="node6" class="node">
<title>Node6</title>
<g id="a_node6"><a xlink:href="classcie_1_1geo_1_1Object.html" target="_top" xlink:title="Interface for point&#45;queriable objects.">
<polygon fill="white" stroke="black" points="136,-730.5 136,-842.5 264,-842.5 264,-730.5 136,-730.5"/>
<text text-anchor="start" x="144" y="-830.5" font-family="Helvetica,sans-Serif" font-size="10.00">cie::geo::Object&lt; N,</text>
<text text-anchor="middle" x="200" y="-819.5" font-family="Helvetica,sans-Serif" font-size="10.00"> TValue, TCoordinate &gt;</text>
<polyline fill="none" stroke="black" points="136,-812.5 264,-812.5 "/>
<text text-anchor="middle" x="200" y="-800.5" font-family="Helvetica,sans-Serif" font-size="10.00"> </text>
<polyline fill="none" stroke="black" points="136,-793.5 264,-793.5 "/>
<text text-anchor="start" x="144" y="-781.5" font-family="Helvetica,sans-Serif" font-size="10.00">+ ~Object()</text>
<text text-anchor="start" x="144" y="-770.5" font-family="Helvetica,sans-Serif" font-size="10.00">+ evaluate()</text>
<text text-anchor="start" x="144" y="-759.5" font-family="Helvetica,sans-Serif" font-size="10.00">+ evaluate()</text>
<text text-anchor="start" x="144" y="-748.5" font-family="Helvetica,sans-Serif" font-size="10.00">+ evaluate()</text>
<text text-anchor="start" x="144" y="-737.5" font-family="Helvetica,sans-Serif" font-size="10.00">+ at()</text>
</a>
</g>
</g>
<!-- Node4&#45;&gt;Node6 -->
<g id="edge6" class="edge">
<title>Node4&#45;&gt;Node6</title>
<path fill="none" stroke="midnightblue" d="M200,-870.31C200,-861.45 200,-852.01 200,-842.79"/>
<polygon fill="none" stroke="midnightblue" points="196.5,-870.39 200,-880.39 203.5,-870.4 196.5,-870.39"/>
</g>
<!-- Node8 -->
<g id="node8" class="node">
<title>Node8</title>
<g id="a_node8"><a xlink:href="classcie_1_1geo_1_1Object.html" target="_top" xlink:title=" ">
<polygon fill="white" stroke="black" points="180.5,-559.5 180.5,-671.5 339.5,-671.5 339.5,-559.5 180.5,-559.5"/>
<text text-anchor="start" x="188.5" y="-659.5" font-family="Helvetica,sans-Serif" font-size="10.00">cie::geo::Object&lt; Dimension,</text>
<text text-anchor="middle" x="260" y="-648.5" font-family="Helvetica,sans-Serif" font-size="10.00"> Bool, Double &gt;</text>
<polyline fill="none" stroke="black" points="180.5,-641.5 339.5,-641.5 "/>
<text text-anchor="middle" x="260" y="-629.5" font-family="Helvetica,sans-Serif" font-size="10.00"> </text>
<polyline fill="none" stroke="black" points="180.5,-622.5 339.5,-622.5 "/>
<text text-anchor="start" x="188.5" y="-610.5" font-family="Helvetica,sans-Serif" font-size="10.00">+ ~Object()</text>
<text text-anchor="start" x="188.5" y="-599.5" font-family="Helvetica,sans-Serif" font-size="10.00">+ evaluate()</text>
<text text-anchor="start" x="188.5" y="-588.5" font-family="Helvetica,sans-Serif" font-size="10.00">+ evaluate()</text>
<text text-anchor="start" x="188.5" y="-577.5" font-family="Helvetica,sans-Serif" font-size="10.00">+ evaluate()</text>
<text text-anchor="start" x="188.5" y="-566.5" font-family="Helvetica,sans-Serif" font-size="10.00">+ at()</text>
</a>
</g>
</g>
<!-- Node4&#45;&gt;Node8 -->
<g id="edge9" class="edge">
<title>Node4&#45;&gt;Node8</title>
<path fill="none" stroke="midnightblue" d="M246.61,-873.33C256.02,-863.95 265.35,-853.58 273,-843 310.83,-790.63 321.64,-774.99 336,-712 338.17,-702.47 339.82,-699 336,-690 333.28,-683.58 329.69,-677.44 325.55,-671.65"/>
<polygon fill="none" stroke="midnightblue" points="244.16,-870.83 239.43,-880.31 249.04,-875.85 244.16,-870.83"/>
</g>
<!-- Node5 -->
<g id="node5" class="node">
<title>Node5</title>
<g id="a_node5"><a xlink:href="classcie_1_1geo_1_1Traits.html" target="_top" xlink:title="Basic templated traits that every object has in GEO.">
<polygon fill="white" stroke="black" points="139,-996.5 139,-1064.5 261,-1064.5 261,-996.5 139,-996.5"/>
<text text-anchor="start" x="147" y="-1052.5" font-family="Helvetica,sans-Serif" font-size="10.00">cie::geo::Traits&lt; Dim,</text>
<text text-anchor="middle" x="200" y="-1041.5" font-family="Helvetica,sans-Serif" font-size="10.00"> TCoordinate &gt;</text>
<polyline fill="none" stroke="black" points="139,-1034.5 261,-1034.5 "/>
<text text-anchor="start" x="147" y="-1022.5" font-family="Helvetica,sans-Serif" font-size="10.00">+ Dimension</text>
<polyline fill="none" stroke="black" points="139,-1015.5 261,-1015.5 "/>
<text text-anchor="middle" x="200" y="-1003.5" font-family="Helvetica,sans-Serif" font-size="10.00"> </text>
</a>
</g>
</g>
<!-- Node5&#45;&gt;Node4 -->
<g id="edge4" class="edge">
<title>Node5&#45;&gt;Node4</title>
<path fill="none" stroke="orange" d="M200,-986.06C200,-973.64 200,-960.32 200,-948.62"/>
<polygon fill="orange" stroke="orange" points="196.5,-986.22 200,-996.22 203.5,-986.22 196.5,-986.22"/>
<text text-anchor="middle" x="249" y="-970" font-family="Helvetica,sans-Serif" font-size="10.00"> &lt; N, TCoordinate &gt;</text>
</g>
<!-- Node6&#45;&gt;Node3 -->
<g id="edge5" class="edge">
<title>Node6&#45;&gt;Node3</title>
<path fill="none" stroke="orange" d="M127.67,-745.23C115.84,-735.74 104.9,-724.64 97,-712 89.52,-700.02 85.22,-685.63 82.83,-671.68"/>
<polygon fill="orange" stroke="orange" points="125.89,-748.28 135.97,-751.55 130.13,-742.71 125.89,-748.28"/>
<text text-anchor="start" x="97" y="-704" font-family="Helvetica,sans-Serif" font-size="10.00"> &lt; Dimension, ValueType,</text>
<text text-anchor="middle" x="160" y="-693" font-family="Helvetica,sans-Serif" font-size="10.00"> CoordinateType &gt;</text>
</g>
<!-- Node6&#45;&gt;Node8 -->
<g id="edge10" class="edge">
<title>Node6&#45;&gt;Node8</title>
<path fill="none" stroke="orange" d="M223.14,-720.31C228.85,-704.25 234.9,-687.21 240.41,-671.67"/>
<polygon fill="orange" stroke="orange" points="219.69,-719.57 219.65,-730.16 226.29,-721.91 219.69,-719.57"/>
<text text-anchor="start" x="234" y="-704" font-family="Helvetica,sans-Serif" font-size="10.00"> &lt; Dimension, Bool,</text>
<text text-anchor="middle" x="283" y="-693" font-family="Helvetica,sans-Serif" font-size="10.00"> Double &gt;</text>
</g>
<!-- Node7 -->
<g id="node7" class="node">
<title>Node7</title>
<g id="a_node7"><a xlink:href="classcie_1_1geo_1_1UnaryOperator.html" target="_top" xlink:title=" ">
<polygon fill="white" stroke="black" points="169.5,-365.5 169.5,-521.5 308.5,-521.5 308.5,-365.5 169.5,-365.5"/>
<text text-anchor="start" x="177.5" y="-509.5" font-family="Helvetica,sans-Serif" font-size="10.00">cie::geo::UnaryOperator</text>
<text text-anchor="start" x="177.5" y="-498.5" font-family="Helvetica,sans-Serif" font-size="10.00">&lt; Dimension, ValueType,</text>
<text text-anchor="middle" x="239" y="-487.5" font-family="Helvetica,sans-Serif" font-size="10.00"> CoordinateType &gt;</text>
<polyline fill="none" stroke="black" points="169.5,-480.5 308.5,-480.5 "/>
<text text-anchor="start" x="177.5" y="-468.5" font-family="Helvetica,sans-Serif" font-size="10.00">+ rhs</text>
<text text-anchor="start" x="177.5" y="-457.5" font-family="Helvetica,sans-Serif" font-size="10.00"># _p_rhs</text>
<polyline fill="none" stroke="black" points="169.5,-450.5 308.5,-450.5 "/>
<text text-anchor="start" x="177.5" y="-438.5" font-family="Helvetica,sans-Serif" font-size="10.00">+ UnaryOperator()</text>
<text text-anchor="start" x="177.5" y="-427.5" font-family="Helvetica,sans-Serif" font-size="10.00">+ UnaryOperator()</text>
<text text-anchor="start" x="177.5" y="-416.5" font-family="Helvetica,sans-Serif" font-size="10.00">+ UnaryOperator()</text>
<text text-anchor="start" x="177.5" y="-405.5" font-family="Helvetica,sans-Serif" font-size="10.00">+ operator=()</text>
<text text-anchor="start" x="177.5" y="-394.5" font-family="Helvetica,sans-Serif" font-size="10.00">+ bindRhs()</text>
<text text-anchor="start" x="177.5" y="-383.5" font-family="Helvetica,sans-Serif" font-size="10.00">+ rhs()</text>
<text text-anchor="start" x="177.5" y="-372.5" font-family="Helvetica,sans-Serif" font-size="10.00">+ at()</text>
</a>
</g>
</g>
<!-- Node7&#45;&gt;Node2 -->
<g id="edge7" class="edge">
<title>Node7&#45;&gt;Node2</title>
<path fill="none" stroke="orange" d="M197.49,-355.83C189.72,-339.59 181.64,-322.72 174.01,-306.79"/>
<polygon fill="orange" stroke="orange" points="194.56,-357.79 202.03,-365.3 200.87,-354.77 194.56,-357.79"/>
<text text-anchor="start" x="192" y="-339" font-family="Helvetica,sans-Serif" font-size="10.00"> &lt; Dimension, Bool,</text>
<text text-anchor="middle" x="241" y="-328" font-family="Helvetica,sans-Serif" font-size="10.00"> CoordinateType &gt;</text>
</g>
<!-- Node8&#45;&gt;Node7 -->
<g id="edge8" class="edge">
<title>Node8&#45;&gt;Node7</title>
<path fill="none" stroke="midnightblue" d="M251.94,-549.26C250.83,-540.23 249.67,-530.88 248.53,-521.65"/>
<polygon fill="none" stroke="midnightblue" points="248.48,-549.81 253.18,-559.31 255.43,-548.95 248.48,-549.81"/>
</g>
</g>
</svg>
