<?xml version="1.0" encoding="UTF-8" standalone="no"?>
<!DOCTYPE svg PUBLIC "-//W3C//DTD SVG 1.1//EN"
 "http://www.w3.org/Graphics/SVG/1.1/DTD/svg11.dtd">
<!-- Generated by graphviz version 2.43.0 (0)
 -->
<!-- Title: cie::geo::SplitPolicy&lt; PointIterator, ValueIterator &gt; Pages: 1 -->
<svg width="551pt" height="193pt"
 viewBox="0.00 0.00 551.00 193.00" xmlns="http://www.w3.org/2000/svg" xmlns:xlink="http://www.w3.org/1999/xlink">
<g id="graph0" class="graph" transform="scale(1 1) rotate(0) translate(4 189)">
<title>cie::geo::SplitPolicy&lt; PointIterator, ValueIterator &gt;</title>
<polygon fill="white" stroke="transparent" points="-4,4 -4,-189 547,-189 547,4 -4,4"/>
<!-- Node1 -->
<g id="node1" class="node">
<title>Node1</title>
<g id="a_node1"><a xlink:title=" ">
<polygon fill="#bfbfbf" stroke="black" points="187,-105.5 187,-184.5 356,-184.5 356,-105.5 187,-105.5"/>
<text text-anchor="start" x="195" y="-172.5" font-family="Helvetica,sans-Serif" font-size="10.00">cie::geo::SplitPolicy</text>
<text text-anchor="middle" x="271.5" y="-161.5" font-family="Helvetica,sans-Serif" font-size="10.00">&lt; PointIterator, ValueIterator &gt;</text>
<polyline fill="none" stroke="black" points="187,-154.5 356,-154.5 "/>
<text text-anchor="middle" x="271.5" y="-142.5" font-family="Helvetica,sans-Serif" font-size="10.00"> </text>
<polyline fill="none" stroke="black" points="187,-135.5 356,-135.5 "/>
<text text-anchor="start" x="195" y="-123.5" font-family="Helvetica,sans-Serif" font-size="10.00">+ ~SplitPolicy()</text>
<text text-anchor="start" x="195" y="-112.5" font-family="Helvetica,sans-Serif" font-size="10.00">+ operator()()</text>
</a>
</g>
</g>
<!-- Node2 -->
<g id="node2" class="node">
<title>Node2</title>
<g id="a_node2"><a xlink:href="classcie_1_1geo_1_1LinearSplitPolicy.html" target="_top" xlink:title=" ">
<polygon fill="white" stroke="black" points="0,-0.5 0,-68.5 169,-68.5 169,-0.5 0,-0.5"/>
<text text-anchor="start" x="8" y="-56.5" font-family="Helvetica,sans-Serif" font-size="10.00">cie::geo::LinearSplitPolicy</text>
<text text-anchor="middle" x="84.5" y="-45.5" font-family="Helvetica,sans-Serif" font-size="10.00">&lt; PointIterator, ValueIterator &gt;</text>
<polyline fill="none" stroke="black" points="0,-38.5 169,-38.5 "/>
<text text-anchor="middle" x="84.5" y="-26.5" font-family="Helvetica,sans-Serif" font-size="10.00"> </text>
<polyline fill="none" stroke="black" points="0,-19.5 169,-19.5 "/>
<text text-anchor="start" x="8" y="-7.5" font-family="Helvetica,sans-Serif" font-size="10.00">+ operator()()</text>
</a>
</g>
</g>
<!-- Node1&#45;&gt;Node2 -->
<g id="edge1" class="edge">
<title>Node1&#45;&gt;Node2</title>
<path fill="none" stroke="midnightblue" d="M196.17,-100.29C177.92,-89.7 158.7,-78.55 141.45,-68.54"/>
<polygon fill="none" stroke="midnightblue" points="194.64,-103.45 205.04,-105.44 198.15,-97.4 194.64,-103.45"/>
</g>
<!-- Node3 -->
<g id="node3" class="node">
<title>Node3</title>
<g id="a_node3"><a xlink:href="classcie_1_1geo_1_1MidPointSplitPolicy.html" target="_top" xlink:title="Compute the arithmetic mean of the input points.">
<polygon fill="white" stroke="black" points="187,-0.5 187,-68.5 356,-68.5 356,-0.5 187,-0.5"/>
<text text-anchor="start" x="195" y="-56.5" font-family="Helvetica,sans-Serif" font-size="10.00">cie::geo::MidPointSplitPolicy</text>
<text text-anchor="middle" x="271.5" y="-45.5" font-family="Helvetica,sans-Serif" font-size="10.00">&lt; PointIterator, ValueIterator &gt;</text>
<polyline fill="none" stroke="black" points="187,-38.5 356,-38.5 "/>
<text text-anchor="middle" x="271.5" y="-26.5" font-family="Helvetica,sans-Serif" font-size="10.00"> </text>
<polyline fill="none" stroke="black" points="187,-19.5 356,-19.5 "/>
<text text-anchor="start" x="195" y="-7.5" font-family="Helvetica,sans-Serif" font-size="10.00">+ operator()()</text>
</a>
</g>
</g>
<!-- Node1&#45;&gt;Node3 -->
<g id="edge2" class="edge">
<title>Node1&#45;&gt;Node3</title>
<path fill="none" stroke="midnightblue" d="M271.5,-95.35C271.5,-86.28 271.5,-77 271.5,-68.54"/>
<polygon fill="none" stroke="midnightblue" points="268,-95.44 271.5,-105.44 275,-95.44 268,-95.44"/>
</g>
<!-- Node4 -->
<g id="node4" class="node">
<title>Node4</title>
<g id="a_node4"><a xlink:href="classcie_1_1geo_1_1WeightedSplitPolicy.html" target="_top" xlink:title=" ">
<polygon fill="white" stroke="black" points="374,-0.5 374,-68.5 543,-68.5 543,-0.5 374,-0.5"/>
<text text-anchor="start" x="382" y="-56.5" font-family="Helvetica,sans-Serif" font-size="10.00">cie::geo::WeightedSplitPolicy</text>
<text text-anchor="middle" x="458.5" y="-45.5" font-family="Helvetica,sans-Serif" font-size="10.00">&lt; PointIterator, ValueIterator &gt;</text>
<polyline fill="none" stroke="black" points="374,-38.5 543,-38.5 "/>
<text text-anchor="middle" x="458.5" y="-26.5" font-family="Helvetica,sans-Serif" font-size="10.00"> </text>
<polyline fill="none" stroke="black" points="374,-19.5 543,-19.5 "/>
<text text-anchor="start" x="382" y="-7.5" font-family="Helvetica,sans-Serif" font-size="10.00">+ operator()()</text>
</a>
</g>
</g>
<!-- Node1&#45;&gt;Node4 -->
<g id="edge3" class="edge">
<title>Node1&#45;&gt;Node4</title>
<path fill="none" stroke="midnightblue" d="M346.83,-100.29C365.08,-89.7 384.3,-78.55 401.55,-68.54"/>
<polygon fill="none" stroke="midnightblue" points="344.85,-97.4 337.96,-105.44 348.36,-103.45 344.85,-97.4"/>
</g>
</g>
</svg>
