<?xml version="1.0" encoding="UTF-8" standalone="no"?>
<!DOCTYPE svg PUBLIC "-//W3C//DTD SVG 1.1//EN"
 "http://www.w3.org/Graphics/SVG/1.1/DTD/svg11.dtd">
<!-- Generated by graphviz version 2.43.0 (0)
 -->
<!-- Title: cie::geo::AABBoxNode&lt; TObject &gt; Pages: 1 -->
<!--zoomable 843 -->
<svg id="main" version="1.1" xmlns="http://www.w3.org/2000/svg" xmlns:xlink="http://www.w3.org/1999/xlink" xml:space="preserve" onload="init(evt)">
<style type="text/css"><![CDATA[
.edge:hover path { stroke: red; }
.edge:hover polygon { stroke: red; fill: red; }
]]></style>
<script type="text/javascript"><![CDATA[
var edges = document.getElementsByTagName('g');
if (edges && edges.length) {
  for (var i=0;i<edges.length;i++) {
    if (edges[i].id.substr(0,4)=='edge') {
      edges[i].setAttribute('class','edge');
    }
  }
}
]]></script>
        <defs>
                <circle id="rim" cx="0" cy="0" r="7"/>
                <circle id="rim2" cx="0" cy="0" r="3.5"/>
                <g id="zoomPlus">
                        <use xlink:href="#rim" fill="#404040">
                                <set attributeName="fill" to="#808080" begin="zoomplus.mouseover" end="zoomplus.mouseout"/>
                        </use>
                        <path d="M-4,0h8M0,-4v8" fill="none" stroke="white" stroke-width="1.5" pointer-events="none"/>
                </g>
                <g id="zoomMin">
                        <use xlink:href="#rim" fill="#404040">
                                <set attributeName="fill" to="#808080" begin="zoomminus.mouseover" end="zoomminus.mouseout"/>
                        </use>
                        <path d="M-4,0h8" fill="none" stroke="white" stroke-width="1.5" pointer-events="none"/>
                </g>
                <g id="dirArrow">
                        <path fill="none" stroke="white" stroke-width="1.5" d="M0,-3.0v7 M-2.5,-0.5L0,-3.0L2.5,-0.5"/>
                </g>
               <g id="resetDef">
                       <use xlink:href="#rim2" fill="#404040">
                               <set attributeName="fill" to="#808080" begin="reset.mouseover" end="reset.mouseout"/>
                       </use>
               </g>
        </defs>

<script type="text/javascript">
var viewWidth = 840;
var viewHeight = 843;
var sectionId = 'dynsection-1';
</script>
<script xlink:href="svgpan.js"/>
<svg id="graph" class="graph">
<g id="viewport">
<title>cie::geo::AABBoxNode&lt; TObject &gt;</title>
<polygon fill="white" stroke="transparent" points="-4,4 -4,-839 836,-839 836,4 -4,4"/>
<!-- Node1 -->
<g id="node1" class="node">
<title>Node1</title>
<g id="a_node1"><a xlink:title=" ">
<polygon fill="#bfbfbf" stroke="black" points="405,-0.5 405,-178.5 532,-178.5 532,-0.5 405,-0.5"/>
<text text-anchor="start" x="413" y="-166.5" font-family="Helvetica,sans-Serif" font-size="10.00">cie::geo::AABBoxNode</text>
<text text-anchor="middle" x="468.5" y="-155.5" font-family="Helvetica,sans-Serif" font-size="10.00">&lt; TObject &gt;</text>
<polyline fill="none" stroke="black" points="405,-148.5 532,-148.5 "/>
<text text-anchor="middle" x="468.5" y="-136.5" font-family="Helvetica,sans-Serif" font-size="10.00"> </text>
<polyline fill="none" stroke="black" points="405,-129.5 532,-129.5 "/>
<text text-anchor="start" x="413" y="-117.5" font-family="Helvetica,sans-Serif" font-size="10.00">+ AABBoxNode()</text>
<text text-anchor="start" x="413" y="-106.5" font-family="Helvetica,sans-Serif" font-size="10.00">+ AABBoxNode()</text>
<text text-anchor="start" x="413" y="-95.5" font-family="Helvetica,sans-Serif" font-size="10.00">+ addObject()</text>
<text text-anchor="start" x="413" y="-84.5" font-family="Helvetica,sans-Serif" font-size="10.00">+ eraseExpired()</text>
<text text-anchor="start" x="413" y="-73.5" font-family="Helvetica,sans-Serif" font-size="10.00">+ shrink()</text>
<text text-anchor="start" x="413" y="-62.5" font-family="Helvetica,sans-Serif" font-size="10.00">+ find()</text>
<text text-anchor="start" x="413" y="-51.5" font-family="Helvetica,sans-Serif" font-size="10.00">+ partition()</text>
<text text-anchor="start" x="413" y="-40.5" font-family="Helvetica,sans-Serif" font-size="10.00">+ containedObjects()</text>
<text text-anchor="start" x="413" y="-29.5" font-family="Helvetica,sans-Serif" font-size="10.00">+ intersectedObjects()</text>
<text text-anchor="start" x="413" y="-18.5" font-family="Helvetica,sans-Serif" font-size="10.00">+ parent()</text>
<text text-anchor="start" x="413" y="-7.5" font-family="Helvetica,sans-Serif" font-size="10.00">+ parent()</text>
</a>
</g>
</g>
<!-- Node2 -->
<g id="node2" class="node">
<title>Node2</title>
<g id="a_node2"><a xlink:href="classCell.html" target="_top" xlink:title=" ">
<polygon fill="white" stroke="black" points="0,-298 0,-388 167,-388 167,-298 0,-298"/>
<text text-anchor="start" x="8" y="-376" font-family="Helvetica,sans-Serif" font-size="10.00">Cell&lt; AABBox&lt; GetTraits</text>
<text text-anchor="start" x="8" y="-365" font-family="Helvetica,sans-Serif" font-size="10.00">&lt; TObject &gt;::Type::Dimension,</text>
<text text-anchor="start" x="8" y="-354" font-family="Helvetica,sans-Serif" font-size="10.00"> GetTraits&lt; TObject &gt;::Type</text>
<text text-anchor="middle" x="83.5" y="-343" font-family="Helvetica,sans-Serif" font-size="10.00">::Coordinate &gt; &gt;</text>
<polyline fill="none" stroke="black" points="0,-336 167,-336 "/>
<text text-anchor="middle" x="83.5" y="-324" font-family="Helvetica,sans-Serif" font-size="10.00"> </text>
<polyline fill="none" stroke="black" points="0,-317 167,-317 "/>
<text text-anchor="middle" x="83.5" y="-305" font-family="Helvetica,sans-Serif" font-size="10.00"> </text>
</a>
</g>
</g>
<!-- Node2&#45;&gt;Node1 -->
<g id="edge1" class="edge">
<title>Node2&#45;&gt;Node1</title>
<path fill="none" stroke="midnightblue" d="M122.52,-289.6C137.71,-271.47 156.12,-251.96 175.5,-237 246.96,-181.83 342.47,-138.74 404.72,-113.98"/>
<polygon fill="none" stroke="midnightblue" points="119.41,-287.87 115.77,-297.82 124.82,-292.31 119.41,-287.87"/>
</g>
<!-- Node3 -->
<g id="node3" class="node">
<title>Node3</title>
<g id="a_node3"><a target="_parent" xlink:href="../../../cieutils/docs/html/classcie_1_1utils_1_1AbsTree.html" xlink:title=" ">
<polygon fill="white" stroke="black" points="184.5,-237.5 184.5,-448.5 378.5,-448.5 378.5,-237.5 184.5,-237.5"/>
<text text-anchor="start" x="192.5" y="-436.5" font-family="Helvetica,sans-Serif" font-size="10.00">cie::utils::AbsTree</text>
<text text-anchor="start" x="192.5" y="-425.5" font-family="Helvetica,sans-Serif" font-size="10.00">&lt; AABBoxNode&lt; TObject</text>
<text text-anchor="start" x="192.5" y="-414.5" font-family="Helvetica,sans-Serif" font-size="10.00"> &gt;, std::deque, std::shared</text>
<text text-anchor="middle" x="281.5" y="-403.5" font-family="Helvetica,sans-Serif" font-size="10.00">_ptr&lt; AABBoxNode&lt; TObject &gt; &gt; &gt;</text>
<polyline fill="none" stroke="black" points="184.5,-396.5 378.5,-396.5 "/>
<text text-anchor="start" x="192.5" y="-384.5" font-family="Helvetica,sans-Serif" font-size="10.00"># _children</text>
<text text-anchor="start" x="192.5" y="-373.5" font-family="Helvetica,sans-Serif" font-size="10.00"># _level</text>
<polyline fill="none" stroke="black" points="184.5,-366.5 378.5,-366.5 "/>
<text text-anchor="start" x="192.5" y="-354.5" font-family="Helvetica,sans-Serif" font-size="10.00">+ AbsTree()</text>
<text text-anchor="start" x="192.5" y="-343.5" font-family="Helvetica,sans-Serif" font-size="10.00">+ AbsTree()</text>
<text text-anchor="start" x="192.5" y="-332.5" font-family="Helvetica,sans-Serif" font-size="10.00">+ AbsTree()</text>
<text text-anchor="start" x="192.5" y="-321.5" font-family="Helvetica,sans-Serif" font-size="10.00">+ AbsTree()</text>
<text text-anchor="start" x="192.5" y="-310.5" font-family="Helvetica,sans-Serif" font-size="10.00">+ operator=()</text>
<text text-anchor="start" x="192.5" y="-299.5" font-family="Helvetica,sans-Serif" font-size="10.00">+ operator=()</text>
<text text-anchor="start" x="192.5" y="-288.5" font-family="Helvetica,sans-Serif" font-size="10.00">+ ~AbsTree()</text>
<text text-anchor="start" x="192.5" y="-277.5" font-family="Helvetica,sans-Serif" font-size="10.00">+ visit()</text>
<text text-anchor="start" x="192.5" y="-266.5" font-family="Helvetica,sans-Serif" font-size="10.00">+ visit()</text>
<text text-anchor="start" x="192.5" y="-255.5" font-family="Helvetica,sans-Serif" font-size="10.00">+ visit()</text>
<text text-anchor="start" x="192.5" y="-244.5" font-family="Helvetica,sans-Serif" font-size="10.00">and 9 more...</text>
</a>
</g>
</g>
<!-- Node3&#45;&gt;Node1 -->
<g id="edge2" class="edge">
<title>Node3&#45;&gt;Node1</title>
<path fill="none" stroke="midnightblue" d="M365.51,-229.02C378.73,-211.23 392.21,-193.1 404.88,-176.06"/>
<polygon fill="none" stroke="midnightblue" points="362.61,-227.05 359.45,-237.16 368.23,-231.23 362.61,-227.05"/>
</g>
<!-- Node4 -->
<g id="node4" class="node">
<title>Node4</title>
<g id="a_node4"><a target="_parent" xlink:href="../../../cieutils/docs/html/classcie_1_1utils_1_1AbsTree.html" xlink:title=" ">
<polygon fill="white" stroke="black" points="224.5,-529.5 224.5,-718.5 338.5,-718.5 338.5,-529.5 224.5,-529.5"/>
<text text-anchor="start" x="232.5" y="-706.5" font-family="Helvetica,sans-Serif" font-size="10.00">cie::utils::AbsTree</text>
<text text-anchor="start" x="232.5" y="-695.5" font-family="Helvetica,sans-Serif" font-size="10.00">&lt; class, TContainer,</text>
<text text-anchor="middle" x="281.5" y="-684.5" font-family="Helvetica,sans-Serif" font-size="10.00"> class, TArgs &gt;</text>
<polyline fill="none" stroke="black" points="224.5,-677.5 338.5,-677.5 "/>
<text text-anchor="middle" x="281.5" y="-665.5" font-family="Helvetica,sans-Serif" font-size="10.00"> </text>
<polyline fill="none" stroke="black" points="224.5,-658.5 338.5,-658.5 "/>
<text text-anchor="start" x="232.5" y="-646.5" font-family="Helvetica,sans-Serif" font-size="10.00">+ AbsTree()</text>
<text text-anchor="start" x="232.5" y="-635.5" font-family="Helvetica,sans-Serif" font-size="10.00">+ AbsTree()</text>
<text text-anchor="start" x="232.5" y="-624.5" font-family="Helvetica,sans-Serif" font-size="10.00">+ AbsTree()</text>
<text text-anchor="start" x="232.5" y="-613.5" font-family="Helvetica,sans-Serif" font-size="10.00">+ AbsTree()</text>
<text text-anchor="start" x="232.5" y="-602.5" font-family="Helvetica,sans-Serif" font-size="10.00">+ operator=()</text>
<text text-anchor="start" x="232.5" y="-591.5" font-family="Helvetica,sans-Serif" font-size="10.00">+ operator=()</text>
<text text-anchor="start" x="232.5" y="-580.5" font-family="Helvetica,sans-Serif" font-size="10.00">+ ~AbsTree()</text>
<text text-anchor="start" x="232.5" y="-569.5" font-family="Helvetica,sans-Serif" font-size="10.00">+ visit()</text>
<text text-anchor="start" x="232.5" y="-558.5" font-family="Helvetica,sans-Serif" font-size="10.00">+ visit()</text>
<text text-anchor="start" x="232.5" y="-547.5" font-family="Helvetica,sans-Serif" font-size="10.00">+ visit()</text>
<text text-anchor="start" x="232.5" y="-536.5" font-family="Helvetica,sans-Serif" font-size="10.00">and 9 more...</text>
</a>
</g>
</g>
<!-- Node4&#45;&gt;Node3 -->
<g id="edge3" class="edge">
<title>Node4&#45;&gt;Node3</title>
<path fill="none" stroke="orange" d="M281.5,-519.23C281.5,-496.29 281.5,-471.96 281.5,-448.96"/>
<polygon fill="orange" stroke="orange" points="278,-519.32 281.5,-529.32 285,-519.32 278,-519.32"/>
<text text-anchor="start" x="281.5" y="-503" font-family="Helvetica,sans-Serif" font-size="10.00"> &lt; AABBoxNode&lt; TObject</text>
<text text-anchor="start" x="281.5" y="-492" font-family="Helvetica,sans-Serif" font-size="10.00"> &gt;, std::deque, std::</text>
<text text-anchor="start" x="281.5" y="-481" font-family="Helvetica,sans-Serif" font-size="10.00">shared_ptr&lt; AABBoxNode</text>
<text text-anchor="middle" x="345.5" y="-470" font-family="Helvetica,sans-Serif" font-size="10.00">&lt; TObject &gt; &gt; &gt;</text>
</g>
<!-- Node5 -->
<g id="node5" class="node">
<title>Node5</title>
<g id="a_node5"><a xlink:title=" ">
<polygon fill="white" stroke="#bfbfbf" points="209,-772 209,-829 254,-829 254,-772 209,-772"/>
<text text-anchor="middle" x="231.5" y="-817" font-family="Helvetica,sans-Serif" font-size="10.00">size_t</text>
<polyline fill="none" stroke="#bfbfbf" points="209,-810 254,-810 "/>
<text text-anchor="middle" x="231.5" y="-798" font-family="Helvetica,sans-Serif" font-size="10.00"> </text>
<polyline fill="none" stroke="#bfbfbf" points="209,-791 254,-791 "/>
<text text-anchor="middle" x="231.5" y="-779" font-family="Helvetica,sans-Serif" font-size="10.00"> </text>
</a>
</g>
</g>
<!-- Node5&#45;&gt;Node4 -->
<g id="edge4" class="edge">
<title>Node5&#45;&gt;Node4</title>
<path fill="none" stroke="#404040" d="M239.42,-771.85C242.78,-760.13 246.92,-745.67 251.29,-730.43"/>
<polygon fill="none" stroke="#404040" points="251.36,-730.2 249.17,-723.33 254.66,-718.66 256.86,-725.53 251.36,-730.2"/>
<text text-anchor="middle" x="270" y="-740" font-family="Helvetica,sans-Serif" font-size="10.00"> #_level</text>
</g>
<!-- Node6 -->
<g id="node6" class="node">
<title>Node6</title>
<g id="a_node6"><a xlink:title=" ">
<polygon fill="white" stroke="#bfbfbf" points="272,-766.5 272,-834.5 393,-834.5 393,-766.5 272,-766.5"/>
<text text-anchor="start" x="280" y="-822.5" font-family="Helvetica,sans-Serif" font-size="10.00">TContainer&lt; TStored,</text>
<text text-anchor="middle" x="332.5" y="-811.5" font-family="Helvetica,sans-Serif" font-size="10.00"> TArgs... &gt;</text>
<polyline fill="none" stroke="#bfbfbf" points="272,-804.5 393,-804.5 "/>
<text text-anchor="middle" x="332.5" y="-792.5" font-family="Helvetica,sans-Serif" font-size="10.00"> </text>
<polyline fill="none" stroke="#bfbfbf" points="272,-785.5 393,-785.5 "/>
<text text-anchor="middle" x="332.5" y="-773.5" font-family="Helvetica,sans-Serif" font-size="10.00"> </text>
</a>
</g>
</g>
<!-- Node6&#45;&gt;Node4 -->
<g id="edge5" class="edge">
<title>Node6&#45;&gt;Node4</title>
<path fill="none" stroke="#404040" d="M322.79,-766.27C319.71,-755.74 316.13,-743.49 312.39,-730.68"/>
<polygon fill="none" stroke="#404040" points="312.28,-730.32 306.76,-725.68 308.91,-718.8 314.44,-723.44 312.28,-730.32"/>
<text text-anchor="middle" x="345.5" y="-740" font-family="Helvetica,sans-Serif" font-size="10.00"> #_children</text>
</g>
<!-- Node7 -->
<g id="node7" class="node">
<title>Node7</title>
<g id="a_node7"><a xlink:title=" ">
<polygon fill="white" stroke="#bfbfbf" points="396.5,-303.5 396.5,-382.5 540.5,-382.5 540.5,-303.5 396.5,-303.5"/>
<text text-anchor="start" x="404.5" y="-370.5" font-family="Helvetica,sans-Serif" font-size="10.00">std::enable_shared</text>
<text text-anchor="start" x="404.5" y="-359.5" font-family="Helvetica,sans-Serif" font-size="10.00">_from_this&lt; AABBoxNode</text>
<text text-anchor="middle" x="468.5" y="-348.5" font-family="Helvetica,sans-Serif" font-size="10.00">&lt; TObject &gt; &gt;</text>
<polyline fill="none" stroke="#bfbfbf" points="396.5,-341.5 540.5,-341.5 "/>
<text text-anchor="middle" x="468.5" y="-329.5" font-family="Helvetica,sans-Serif" font-size="10.00"> </text>
<polyline fill="none" stroke="#bfbfbf" points="396.5,-322.5 540.5,-322.5 "/>
<text text-anchor="middle" x="468.5" y="-310.5" font-family="Helvetica,sans-Serif" font-size="10.00"> </text>
</a>
</g>
</g>
<!-- Node7&#45;&gt;Node1 -->
<g id="edge6" class="edge">
<title>Node7&#45;&gt;Node1</title>
<path fill="none" stroke="midnightblue" d="M468.5,-293.11C468.5,-260.62 468.5,-217.01 468.5,-178.57"/>
<polygon fill="none" stroke="midnightblue" points="465,-293.25 468.5,-303.25 472,-293.25 465,-293.25"/>
</g>
<!-- Node8 -->
<g id="node8" class="node">
<title>Node8</title>
<g id="a_node8"><a xlink:title=" ">
<polygon fill="white" stroke="#bfbfbf" points="558.5,-314.5 558.5,-371.5 676.5,-371.5 676.5,-314.5 558.5,-314.5"/>
<text text-anchor="middle" x="617.5" y="-359.5" font-family="Helvetica,sans-Serif" font-size="10.00">deque&lt; object_ptr &gt;</text>
<polyline fill="none" stroke="#bfbfbf" points="558.5,-352.5 676.5,-352.5 "/>
<text text-anchor="middle" x="617.5" y="-340.5" font-family="Helvetica,sans-Serif" font-size="10.00"> </text>
<polyline fill="none" stroke="#bfbfbf" points="558.5,-333.5 676.5,-333.5 "/>
<text text-anchor="middle" x="617.5" y="-321.5" font-family="Helvetica,sans-Serif" font-size="10.00"> </text>
</a>
</g>
</g>
<!-- Node8&#45;&gt;Node1 -->
<g id="edge7" class="edge">
<title>Node8&#45;&gt;Node1</title>
<path fill="none" stroke="#404040" d="M600.99,-314.12C583.1,-283.93 553.53,-234.03 526.86,-189.01"/>
<polygon fill="none" stroke="#404040" points="526.81,-188.92 520.31,-185.8 520.69,-178.6 527.19,-181.72 526.81,-188.92"/>
<text text-anchor="middle" x="596.5" y="-211" font-family="Helvetica,sans-Serif" font-size="10.00"> #_containedObjects</text>
<text text-anchor="middle" x="596.5" y="-200" font-family="Helvetica,sans-Serif" font-size="10.00">#_intersectedObjects</text>
</g>
<!-- Node9 -->
<g id="node9" class="node">
<title>Node9</title>
<g id="a_node9"><a xlink:title=" ">
<polygon fill="white" stroke="#bfbfbf" points="695,-309 695,-377 832,-377 832,-309 695,-309"/>
<text text-anchor="start" x="703" y="-365" font-family="Helvetica,sans-Serif" font-size="10.00">weak_ptr&lt; AABBoxNode</text>
<text text-anchor="middle" x="763.5" y="-354" font-family="Helvetica,sans-Serif" font-size="10.00">&lt; TObject &gt; &gt;</text>
<polyline fill="none" stroke="#bfbfbf" points="695,-347 832,-347 "/>
<text text-anchor="middle" x="763.5" y="-335" font-family="Helvetica,sans-Serif" font-size="10.00"> </text>
<polyline fill="none" stroke="#bfbfbf" points="695,-328 832,-328 "/>
<text text-anchor="middle" x="763.5" y="-316" font-family="Helvetica,sans-Serif" font-size="10.00"> </text>
</a>
</g>
</g>
<!-- Node9&#45;&gt;Node1 -->
<g id="edge8" class="edge">
<title>Node9&#45;&gt;Node1</title>
<path fill="none" stroke="#404040" d="M739.21,-308.67C723.97,-287.91 703.8,-260.74 685.5,-237 671.6,-218.97 670.78,-211.83 653.5,-197 620.37,-168.57 578.55,-143.75 543.06,-125.24"/>
<polygon fill="none" stroke="#404040" points="542.94,-125.18 535.77,-126 532.26,-119.7 539.43,-118.88 542.94,-125.18"/>
<text text-anchor="middle" x="702.5" y="-205.5" font-family="Helvetica,sans-Serif" font-size="10.00"> #_p_parent</text>
</g>
</g>
</svg>
        <g id="navigator" transform="translate(0 0)" fill="#404254">
                <rect fill="#f2f5e9" fill-opacity="0.5" stroke="#606060" stroke-width=".5" x="0" y="0" width="60" height="60"/>
                <use id="zoomplus" xlink:href="#zoomPlus" x="17" y="9" onmousedown="handleZoom(evt,'in')"/>
                <use id="zoomminus" xlink:href="#zoomMin" x="42" y="9" onmousedown="handleZoom(evt,'out')"/>
                <use id="reset" xlink:href="#resetDef" x="30" y="36" onmousedown="handleReset()"/>
                <g id="arrowUp" xlink:href="#dirArrow" transform="translate(30 24)" onmousedown="handlePan(0,-1)">
                  <use xlink:href="#rim" fill="#404040">
                        <set attributeName="fill" to="#808080" begin="arrowUp.mouseover" end="arrowUp.mouseout"/>
                  </use>
                  <path fill="none" stroke="white" stroke-width="1.5" d="M0,-3.0v7 M-2.5,-0.5L0,-3.0L2.5,-0.5"/>
                </g>
                <g id="arrowRight" xlink:href="#dirArrow" transform="rotate(90) translate(36 -43)" onmousedown="handlePan(1,0)">
                  <use xlink:href="#rim" fill="#404040">
                        <set attributeName="fill" to="#808080" begin="arrowRight.mouseover" end="arrowRight.mouseout"/>
                  </use>
                  <path fill="none" stroke="white" stroke-width="1.5" d="M0,-3.0v7 M-2.5,-0.5L0,-3.0L2.5,-0.5"/>
                </g>
                <g id="arrowDown" xlink:href="#dirArrow" transform="rotate(180) translate(-30 -48)" onmousedown="handlePan(0,1)">
                  <use xlink:href="#rim" fill="#404040">
                        <set attributeName="fill" to="#808080" begin="arrowDown.mouseover" end="arrowDown.mouseout"/>
                  </use>
                  <path fill="none" stroke="white" stroke-width="1.5" d="M0,-3.0v7 M-2.5,-0.5L0,-3.0L2.5,-0.5"/>
                </g>
                <g id="arrowLeft" xlink:href="#dirArrow" transform="rotate(270) translate(-36 17)" onmousedown="handlePan(-1,0)">
                  <use xlink:href="#rim" fill="#404040">
                        <set attributeName="fill" to="#808080" begin="arrowLeft.mouseover" end="arrowLeft.mouseout"/>
                  </use>
                  <path fill="none" stroke="white" stroke-width="1.5" d="M0,-3.0v7 M-2.5,-0.5L0,-3.0L2.5,-0.5"/>
                </g>
        </g>
        <svg viewBox="0 0 15 15" width="100%" height="30px" preserveAspectRatio="xMaxYMin meet">
         <g id="arrow_out" transform="scale(0.3 0.3)">
          <a xlink:href="classcie_1_1geo_1_1AABBoxNode__coll__graph_org.svg" target="_base">
           <rect id="button" ry="5" rx="5" y="6" x="6" height="38" width="38"
                fill="#f2f5e9" fill-opacity="0.5" stroke="#606060" stroke-width="1.0"/>
           <path id="arrow"
             d="M 11.500037,31.436501 C 11.940474,20.09759 22.043105,11.32322 32.158766,21.979434 L 37.068811,17.246167 C 37.068811,17.246167 37.088388,32 37.088388,32 L 22.160133,31.978069 C 22.160133,31.978069 26.997745,27.140456 26.997745,27.140456 C 18.528582,18.264221 13.291696,25.230495 11.500037,31.436501 z"
             style="fill:#404040;"/>
          </a>
         </g>
        </svg>
</svg>
