<?xml version="1.0" encoding="UTF-8" standalone="no"?>
<!DOCTYPE svg PUBLIC "-//W3C//DTD SVG 1.1//EN"
 "http://www.w3.org/Graphics/SVG/1.1/DTD/svg11.dtd">
<!-- Generated by graphviz version 2.43.0 (0)
 -->
<!-- Title: cie::geo::AbsPrimitive&lt; Dimension, CoordinateType &gt; Pages: 1 -->
<svg width="214pt" height="415pt"
 viewBox="0.00 0.00 213.50 415.00" xmlns="http://www.w3.org/2000/svg" xmlns:xlink="http://www.w3.org/1999/xlink">
<g id="graph0" class="graph" transform="scale(1 1) rotate(0) translate(4 411)">
<title>cie::geo::AbsPrimitive&lt; Dimension, CoordinateType &gt;</title>
<polygon fill="white" stroke="transparent" points="-4,4 -4,-411 209.5,-411 209.5,4 -4,4"/>
<!-- Node1 -->
<g id="node1" class="node">
<title>Node1</title>
<g id="a_node1"><a xlink:title=" ">
<polygon fill="#bfbfbf" stroke="black" points="0,-0.5 0,-79.5 173,-79.5 173,-0.5 0,-0.5"/>
<text text-anchor="start" x="8" y="-67.5" font-family="Helvetica,sans-Serif" font-size="10.00">cie::geo::AbsPrimitive</text>
<text text-anchor="middle" x="86.5" y="-56.5" font-family="Helvetica,sans-Serif" font-size="10.00">&lt; Dimension, CoordinateType &gt;</text>
<polyline fill="none" stroke="black" points="0,-49.5 173,-49.5 "/>
<text text-anchor="middle" x="86.5" y="-37.5" font-family="Helvetica,sans-Serif" font-size="10.00"> </text>
<polyline fill="none" stroke="black" points="0,-30.5 173,-30.5 "/>
<text text-anchor="start" x="8" y="-18.5" font-family="Helvetica,sans-Serif" font-size="10.00">+ ~AbsPrimitive()</text>
<text text-anchor="start" x="8" y="-7.5" font-family="Helvetica,sans-Serif" font-size="10.00">+ isDegenerate()</text>
</a>
</g>
</g>
<!-- Node2 -->
<g id="node2" class="node">
<title>Node2</title>
<g id="a_node2"><a xlink:href="classcie_1_1geo_1_1Traits.html" target="_top" xlink:title=" ">
<polygon fill="white" stroke="black" points="9.5,-117.5 9.5,-185.5 163.5,-185.5 163.5,-117.5 9.5,-117.5"/>
<text text-anchor="start" x="17.5" y="-173.5" font-family="Helvetica,sans-Serif" font-size="10.00">cie::geo::Traits&lt; Dimension,</text>
<text text-anchor="middle" x="86.5" y="-162.5" font-family="Helvetica,sans-Serif" font-size="10.00"> Double &gt;</text>
<polyline fill="none" stroke="black" points="9.5,-155.5 163.5,-155.5 "/>
<text text-anchor="start" x="17.5" y="-143.5" font-family="Helvetica,sans-Serif" font-size="10.00">+ Dimension</text>
<polyline fill="none" stroke="black" points="9.5,-136.5 163.5,-136.5 "/>
<text text-anchor="middle" x="86.5" y="-124.5" font-family="Helvetica,sans-Serif" font-size="10.00"> </text>
</a>
</g>
</g>
<!-- Node2&#45;&gt;Node1 -->
<g id="edge1" class="edge">
<title>Node2&#45;&gt;Node1</title>
<path fill="none" stroke="midnightblue" d="M86.5,-107.34C86.5,-98.25 86.5,-88.72 86.5,-79.81"/>
<polygon fill="none" stroke="midnightblue" points="83,-107.35 86.5,-117.35 90,-107.35 83,-107.35"/>
</g>
<!-- Node3 -->
<g id="node3" class="node">
<title>Node3</title>
<g id="a_node3"><a xlink:href="classcie_1_1geo_1_1Traits.html" target="_top" xlink:title="Basic templated traits that every object has in GEO.">
<polygon fill="white" stroke="black" points="25.5,-233.5 25.5,-301.5 147.5,-301.5 147.5,-233.5 25.5,-233.5"/>
<text text-anchor="start" x="33.5" y="-289.5" font-family="Helvetica,sans-Serif" font-size="10.00">cie::geo::Traits&lt; Dim,</text>
<text text-anchor="middle" x="86.5" y="-278.5" font-family="Helvetica,sans-Serif" font-size="10.00"> TCoordinate &gt;</text>
<polyline fill="none" stroke="black" points="25.5,-271.5 147.5,-271.5 "/>
<text text-anchor="middle" x="86.5" y="-259.5" font-family="Helvetica,sans-Serif" font-size="10.00"> </text>
<polyline fill="none" stroke="black" points="25.5,-252.5 147.5,-252.5 "/>
<text text-anchor="middle" x="86.5" y="-240.5" font-family="Helvetica,sans-Serif" font-size="10.00"> </text>
</a>
</g>
</g>
<!-- Node3&#45;&gt;Node2 -->
<g id="edge2" class="edge">
<title>Node3&#45;&gt;Node2</title>
<path fill="none" stroke="orange" d="M86.5,-223.06C86.5,-210.64 86.5,-197.32 86.5,-185.62"/>
<polygon fill="orange" stroke="orange" points="83,-223.22 86.5,-233.22 90,-223.22 83,-223.22"/>
<text text-anchor="middle" x="146" y="-207" font-family="Helvetica,sans-Serif" font-size="10.00"> &lt; Dimension, Double &gt;</text>
</g>
<!-- Node4 -->
<g id="node4" class="node">
<title>Node4</title>
<g id="a_node4"><a xlink:title=" ">
<polygon fill="white" stroke="#bfbfbf" points="64,-349.5 64,-406.5 109,-406.5 109,-349.5 64,-349.5"/>
<text text-anchor="middle" x="86.5" y="-394.5" font-family="Helvetica,sans-Serif" font-size="10.00">size_t</text>
<polyline fill="none" stroke="#bfbfbf" points="64,-387.5 109,-387.5 "/>
<text text-anchor="middle" x="86.5" y="-375.5" font-family="Helvetica,sans-Serif" font-size="10.00"> </text>
<polyline fill="none" stroke="#bfbfbf" points="64,-368.5 109,-368.5 "/>
<text text-anchor="middle" x="86.5" y="-356.5" font-family="Helvetica,sans-Serif" font-size="10.00"> </text>
</a>
</g>
</g>
<!-- Node4&#45;&gt;Node3 -->
<g id="edge3" class="edge">
<title>Node4&#45;&gt;Node3</title>
<path fill="none" stroke="#404040" d="M86.5,-349.34C86.5,-338.53 86.5,-325.85 86.5,-313.77"/>
<polygon fill="none" stroke="#404040" points="86.5,-313.52 82.5,-307.52 86.5,-301.52 90.5,-307.52 86.5,-313.52"/>
<text text-anchor="middle" x="118.5" y="-323" font-family="Helvetica,sans-Serif" font-size="10.00"> +Dimension</text>
</g>
</g>
</svg>
