<?xml version="1.0" encoding="UTF-8" standalone="no"?>
<!DOCTYPE svg PUBLIC "-//W3C//DTD SVG 1.1//EN"
 "http://www.w3.org/Graphics/SVG/1.1/DTD/svg11.dtd">
<!-- Generated by graphviz version 2.43.0 (0)
 -->
<!-- Title: cie::geo::boolean::Box&lt; Dimension, CoordinateType &gt; Pages: 1 -->
<svg width="486pt" height="1247pt"
 viewBox="0.00 0.00 486.00 1247.00" xmlns="http://www.w3.org/2000/svg" xmlns:xlink="http://www.w3.org/1999/xlink">
<g id="graph0" class="graph" transform="scale(1 1) rotate(0) translate(4 1243)">
<title>cie::geo::boolean::Box&lt; Dimension, CoordinateType &gt;</title>
<polygon fill="white" stroke="transparent" points="-4,4 -4,-1243 482,-1243 482,4 -4,4"/>
<!-- Node1 -->
<g id="node1" class="node">
<title>Node1</title>
<g id="a_node1"><a xlink:title=" ">
<polygon fill="#bfbfbf" stroke="black" points="187,-310.5 187,-411.5 345,-411.5 345,-310.5 187,-310.5"/>
<text text-anchor="start" x="195" y="-399.5" font-family="Helvetica,sans-Serif" font-size="10.00">cie::geo::boolean::</text>
<text text-anchor="start" x="195" y="-388.5" font-family="Helvetica,sans-Serif" font-size="10.00">Box&lt; Dimension, Coordinate</text>
<text text-anchor="middle" x="266" y="-377.5" font-family="Helvetica,sans-Serif" font-size="10.00">Type &gt;</text>
<polyline fill="none" stroke="black" points="187,-370.5 345,-370.5 "/>
<text text-anchor="middle" x="266" y="-358.5" font-family="Helvetica,sans-Serif" font-size="10.00"> </text>
<polyline fill="none" stroke="black" points="187,-351.5 345,-351.5 "/>
<text text-anchor="start" x="195" y="-339.5" font-family="Helvetica,sans-Serif" font-size="10.00">+ Box()</text>
<text text-anchor="start" x="195" y="-328.5" font-family="Helvetica,sans-Serif" font-size="10.00">+ Box()</text>
<text text-anchor="start" x="195" y="-317.5" font-family="Helvetica,sans-Serif" font-size="10.00"># at()</text>
</a>
</g>
</g>
<!-- Node11 -->
<g id="node11" class="node">
<title>Node11</title>
<g id="a_node11"><a xlink:href="classcie_1_1geo_1_1AABBox.html" target="_top" xlink:title=" ">
<polygon fill="white" stroke="black" points="178.5,-0.5 178.5,-134.5 345.5,-134.5 345.5,-0.5 178.5,-0.5"/>
<text text-anchor="start" x="186.5" y="-122.5" font-family="Helvetica,sans-Serif" font-size="10.00">cie::geo::AABBox&lt; Dimension,</text>
<text text-anchor="middle" x="262" y="-111.5" font-family="Helvetica,sans-Serif" font-size="10.00"> CoordinateType &gt;</text>
<polyline fill="none" stroke="black" points="178.5,-104.5 345.5,-104.5 "/>
<text text-anchor="middle" x="262" y="-92.5" font-family="Helvetica,sans-Serif" font-size="10.00"> </text>
<polyline fill="none" stroke="black" points="178.5,-85.5 345.5,-85.5 "/>
<text text-anchor="start" x="186.5" y="-73.5" font-family="Helvetica,sans-Serif" font-size="10.00">+ AABBox()</text>
<text text-anchor="start" x="186.5" y="-62.5" font-family="Helvetica,sans-Serif" font-size="10.00">+ AABBox()</text>
<text text-anchor="start" x="186.5" y="-51.5" font-family="Helvetica,sans-Serif" font-size="10.00">+ AABBox()</text>
<text text-anchor="start" x="186.5" y="-40.5" font-family="Helvetica,sans-Serif" font-size="10.00">+ operator=()</text>
<text text-anchor="start" x="186.5" y="-29.5" font-family="Helvetica,sans-Serif" font-size="10.00">+ contains()</text>
<text text-anchor="start" x="186.5" y="-18.5" font-family="Helvetica,sans-Serif" font-size="10.00">+ intersects()</text>
<text text-anchor="start" x="186.5" y="-7.5" font-family="Helvetica,sans-Serif" font-size="10.00">+ include()</text>
</a>
</g>
</g>
<!-- Node1&#45;&gt;Node11 -->
<g id="edge13" class="edge">
<title>Node1&#45;&gt;Node11</title>
<path fill="none" stroke="midnightblue" d="M265.18,-299.96C264.52,-251.85 263.59,-184.43 262.91,-134.76"/>
<polygon fill="none" stroke="midnightblue" points="261.68,-300.27 265.32,-310.22 268.68,-300.17 261.68,-300.27"/>
</g>
<!-- Node12 -->
<g id="node12" class="node">
<title>Node12</title>
<g id="a_node12"><a xlink:href="classcie_1_1geo_1_1boolean_1_1Box.html" target="_top" xlink:title=" ">
<polygon fill="white" stroke="black" points="278.5,-172.5 278.5,-262.5 429.5,-262.5 429.5,-172.5 278.5,-172.5"/>
<text text-anchor="start" x="286.5" y="-250.5" font-family="Helvetica,sans-Serif" font-size="10.00">cie::geo::boolean::</text>
<text text-anchor="middle" x="354" y="-239.5" font-family="Helvetica,sans-Serif" font-size="10.00">Box&lt; Dimension, Double &gt;</text>
<polyline fill="none" stroke="black" points="278.5,-232.5 429.5,-232.5 "/>
<text text-anchor="middle" x="354" y="-220.5" font-family="Helvetica,sans-Serif" font-size="10.00"> </text>
<polyline fill="none" stroke="black" points="278.5,-213.5 429.5,-213.5 "/>
<text text-anchor="start" x="286.5" y="-201.5" font-family="Helvetica,sans-Serif" font-size="10.00">+ Box()</text>
<text text-anchor="start" x="286.5" y="-190.5" font-family="Helvetica,sans-Serif" font-size="10.00">+ Box()</text>
<text text-anchor="start" x="286.5" y="-179.5" font-family="Helvetica,sans-Serif" font-size="10.00"># at()</text>
</a>
</g>
</g>
<!-- Node1&#45;&gt;Node12 -->
<g id="edge14" class="edge">
<title>Node1&#45;&gt;Node12</title>
<path fill="none" stroke="orange" d="M302.51,-301.3C310.52,-288.41 318.88,-274.97 326.48,-262.76"/>
<polygon fill="orange" stroke="orange" points="299.33,-299.77 297.03,-310.11 305.28,-303.47 299.33,-299.77"/>
<text text-anchor="middle" x="372.5" y="-284" font-family="Helvetica,sans-Serif" font-size="10.00"> &lt; Dimension, Double &gt;</text>
</g>
<!-- Node2 -->
<g id="node2" class="node">
<title>Node2</title>
<g id="a_node2"><a xlink:href="classcie_1_1geo_1_1Box.html" target="_top" xlink:title=" ">
<polygon fill="white" stroke="black" points="139,-449.5 139,-627.5 285,-627.5 285,-449.5 139,-449.5"/>
<text text-anchor="start" x="147" y="-615.5" font-family="Helvetica,sans-Serif" font-size="10.00">cie::geo::Box&lt; Dimension,</text>
<text text-anchor="middle" x="212" y="-604.5" font-family="Helvetica,sans-Serif" font-size="10.00"> CoordinateType &gt;</text>
<polyline fill="none" stroke="black" points="139,-597.5 285,-597.5 "/>
<text text-anchor="start" x="147" y="-585.5" font-family="Helvetica,sans-Serif" font-size="10.00"># _base</text>
<text text-anchor="start" x="147" y="-574.5" font-family="Helvetica,sans-Serif" font-size="10.00"># _lengths</text>
<polyline fill="none" stroke="black" points="139,-567.5 285,-567.5 "/>
<text text-anchor="start" x="147" y="-555.5" font-family="Helvetica,sans-Serif" font-size="10.00">+ Box()</text>
<text text-anchor="start" x="147" y="-544.5" font-family="Helvetica,sans-Serif" font-size="10.00">+ Box()</text>
<text text-anchor="start" x="147" y="-533.5" font-family="Helvetica,sans-Serif" font-size="10.00">+ Box()</text>
<text text-anchor="start" x="147" y="-522.5" font-family="Helvetica,sans-Serif" font-size="10.00">+ Box()</text>
<text text-anchor="start" x="147" y="-511.5" font-family="Helvetica,sans-Serif" font-size="10.00">+ operator=()</text>
<text text-anchor="start" x="147" y="-500.5" font-family="Helvetica,sans-Serif" font-size="10.00">+ isDegenerate()</text>
<text text-anchor="start" x="147" y="-489.5" font-family="Helvetica,sans-Serif" font-size="10.00">+ base()</text>
<text text-anchor="start" x="147" y="-478.5" font-family="Helvetica,sans-Serif" font-size="10.00">+ lengths()</text>
<text text-anchor="start" x="147" y="-467.5" font-family="Helvetica,sans-Serif" font-size="10.00">+ base()</text>
<text text-anchor="start" x="147" y="-456.5" font-family="Helvetica,sans-Serif" font-size="10.00">+ lengths()</text>
</a>
</g>
</g>
<!-- Node2&#45;&gt;Node1 -->
<g id="edge1" class="edge">
<title>Node2&#45;&gt;Node1</title>
<path fill="none" stroke="midnightblue" d="M242.07,-439.76C245.06,-430.07 247.99,-420.54 250.72,-411.66"/>
<polygon fill="none" stroke="midnightblue" points="238.67,-438.91 239.08,-449.49 245.37,-440.96 238.67,-438.91"/>
</g>
<!-- Node3 -->
<g id="node3" class="node">
<title>Node3</title>
<g id="a_node3"><a xlink:href="classcie_1_1geo_1_1AbsPrimitive.html" target="_top" xlink:title=" ">
<polygon fill="white" stroke="black" points="99,-682 99,-761 231,-761 231,-682 99,-682"/>
<text text-anchor="start" x="107" y="-749" font-family="Helvetica,sans-Serif" font-size="10.00">cie::geo::AbsPrimitive</text>
<text text-anchor="middle" x="165" y="-738" font-family="Helvetica,sans-Serif" font-size="10.00">&lt; Dimension, Double &gt;</text>
<polyline fill="none" stroke="black" points="99,-731 231,-731 "/>
<text text-anchor="middle" x="165" y="-719" font-family="Helvetica,sans-Serif" font-size="10.00"> </text>
<polyline fill="none" stroke="black" points="99,-712 231,-712 "/>
<text text-anchor="start" x="107" y="-700" font-family="Helvetica,sans-Serif" font-size="10.00">+ ~AbsPrimitive()</text>
<text text-anchor="start" x="107" y="-689" font-family="Helvetica,sans-Serif" font-size="10.00">+ isDegenerate()</text>
</a>
</g>
</g>
<!-- Node3&#45;&gt;Node2 -->
<g id="edge2" class="edge">
<title>Node3&#45;&gt;Node2</title>
<path fill="none" stroke="midnightblue" d="M177.69,-671.62C181.22,-658.03 185.17,-642.84 189.09,-627.73"/>
<polygon fill="none" stroke="midnightblue" points="174.21,-671.11 175.08,-681.67 180.98,-672.87 174.21,-671.11"/>
</g>
<!-- Node4 -->
<g id="node4" class="node">
<title>Node4</title>
<g id="a_node4"><a xlink:href="classcie_1_1geo_1_1Traits.html" target="_top" xlink:title=" ">
<polygon fill="white" stroke="black" points="0,-967.5 0,-1035.5 154,-1035.5 154,-967.5 0,-967.5"/>
<text text-anchor="start" x="8" y="-1023.5" font-family="Helvetica,sans-Serif" font-size="10.00">cie::geo::Traits&lt; Dimension,</text>
<text text-anchor="middle" x="77" y="-1012.5" font-family="Helvetica,sans-Serif" font-size="10.00"> CoordinateType &gt;</text>
<polyline fill="none" stroke="black" points="0,-1005.5 154,-1005.5 "/>
<text text-anchor="start" x="8" y="-993.5" font-family="Helvetica,sans-Serif" font-size="10.00">+ Dimension</text>
<polyline fill="none" stroke="black" points="0,-986.5 154,-986.5 "/>
<text text-anchor="middle" x="77" y="-974.5" font-family="Helvetica,sans-Serif" font-size="10.00"> </text>
</a>
</g>
</g>
<!-- Node4&#45;&gt;Node3 -->
<g id="edge3" class="edge">
<title>Node4&#45;&gt;Node3</title>
<path fill="none" stroke="midnightblue" d="M79.37,-957.21C82.21,-923.45 88.43,-875.77 102,-836 110.99,-809.66 125.96,-782.32 139.06,-761.07"/>
<polygon fill="none" stroke="midnightblue" points="75.88,-956.98 78.59,-967.22 82.86,-957.52 75.88,-956.98"/>
</g>
<!-- Node5 -->
<g id="node5" class="node">
<title>Node5</title>
<g id="a_node5"><a xlink:href="classcie_1_1geo_1_1Traits.html" target="_top" xlink:title="Basic templated traits that every object has in GEO.">
<polygon fill="white" stroke="black" points="169,-1170.5 169,-1238.5 291,-1238.5 291,-1170.5 169,-1170.5"/>
<text text-anchor="start" x="177" y="-1226.5" font-family="Helvetica,sans-Serif" font-size="10.00">cie::geo::Traits&lt; Dim,</text>
<text text-anchor="middle" x="230" y="-1215.5" font-family="Helvetica,sans-Serif" font-size="10.00"> TCoordinate &gt;</text>
<polyline fill="none" stroke="black" points="169,-1208.5 291,-1208.5 "/>
<text text-anchor="start" x="177" y="-1196.5" font-family="Helvetica,sans-Serif" font-size="10.00">+ Dimension</text>
<polyline fill="none" stroke="black" points="169,-1189.5 291,-1189.5 "/>
<text text-anchor="middle" x="230" y="-1177.5" font-family="Helvetica,sans-Serif" font-size="10.00"> </text>
</a>
</g>
</g>
<!-- Node5&#45;&gt;Node4 -->
<g id="edge4" class="edge">
<title>Node5&#45;&gt;Node4</title>
<path fill="none" stroke="orange" d="M158.71,-1191.56C115.78,-1182.76 66.97,-1169.31 54,-1152 28.8,-1118.38 44.09,-1068.38 59.09,-1035.62"/>
<polygon fill="orange" stroke="orange" points="158.13,-1195.02 168.62,-1193.54 159.5,-1188.15 158.13,-1195.02"/>
<text text-anchor="middle" x="134" y="-1144" font-family="Helvetica,sans-Serif" font-size="10.00"> &lt; Dimension, CoordinateType &gt;</text>
</g>
<!-- Node7 -->
<g id="node7" class="node">
<title>Node7</title>
<g id="a_node7"><a xlink:href="classcie_1_1geo_1_1Traits.html" target="_top" xlink:title=" ">
<polygon fill="white" stroke="black" points="130,-1054.5 130,-1122.5 284,-1122.5 284,-1054.5 130,-1054.5"/>
<text text-anchor="start" x="138" y="-1110.5" font-family="Helvetica,sans-Serif" font-size="10.00">cie::geo::Traits&lt; Dimension,</text>
<text text-anchor="middle" x="207" y="-1099.5" font-family="Helvetica,sans-Serif" font-size="10.00"> Double &gt;</text>
<polyline fill="none" stroke="black" points="130,-1092.5 284,-1092.5 "/>
<text text-anchor="start" x="138" y="-1080.5" font-family="Helvetica,sans-Serif" font-size="10.00">+ Dimension</text>
<polyline fill="none" stroke="black" points="130,-1073.5 284,-1073.5 "/>
<text text-anchor="middle" x="207" y="-1061.5" font-family="Helvetica,sans-Serif" font-size="10.00"> </text>
</a>
</g>
</g>
<!-- Node5&#45;&gt;Node7 -->
<g id="edge7" class="edge">
<title>Node5&#45;&gt;Node7</title>
<path fill="none" stroke="orange" d="M221.24,-1160.06C218.73,-1147.64 216.04,-1134.32 213.68,-1122.62"/>
<polygon fill="orange" stroke="orange" points="217.88,-1161.11 223.29,-1170.22 224.74,-1159.73 217.88,-1161.11"/>
<text text-anchor="middle" x="279.5" y="-1144" font-family="Helvetica,sans-Serif" font-size="10.00"> &lt; Dimension, Double &gt;</text>
</g>
<!-- Node9 -->
<g id="node9" class="node">
<title>Node9</title>
<g id="a_node9"><a xlink:href="classcie_1_1geo_1_1Traits.html" target="_top" xlink:title=" ">
<polygon fill="white" stroke="black" points="317.5,-1054.5 317.5,-1122.5 426.5,-1122.5 426.5,-1054.5 317.5,-1054.5"/>
<text text-anchor="start" x="325.5" y="-1110.5" font-family="Helvetica,sans-Serif" font-size="10.00">cie::geo::Traits&lt; N,</text>
<text text-anchor="middle" x="372" y="-1099.5" font-family="Helvetica,sans-Serif" font-size="10.00"> TCoordinate &gt;</text>
<polyline fill="none" stroke="black" points="317.5,-1092.5 426.5,-1092.5 "/>
<text text-anchor="start" x="325.5" y="-1080.5" font-family="Helvetica,sans-Serif" font-size="10.00">+ Dimension</text>
<polyline fill="none" stroke="black" points="317.5,-1073.5 426.5,-1073.5 "/>
<text text-anchor="middle" x="372" y="-1061.5" font-family="Helvetica,sans-Serif" font-size="10.00"> </text>
</a>
</g>
</g>
<!-- Node5&#45;&gt;Node9 -->
<g id="edge10" class="edge">
<title>Node5&#45;&gt;Node9</title>
<path fill="none" stroke="orange" d="M300.71,-1180.57C315.98,-1173.22 331.09,-1163.83 343,-1152 351.15,-1143.91 357.26,-1133.1 361.72,-1122.74"/>
<polygon fill="orange" stroke="orange" points="298.87,-1177.57 291.21,-1184.89 301.76,-1183.94 298.87,-1177.57"/>
<text text-anchor="middle" x="401" y="-1144" font-family="Helvetica,sans-Serif" font-size="10.00"> &lt; N, TCoordinate &gt;</text>
</g>
<!-- Node6 -->
<g id="node6" class="node">
<title>Node6</title>
<g id="a_node6"><a xlink:href="classcie_1_1geo_1_1AbsPrimitive.html" target="_top" xlink:title=" ">
<polygon fill="white" stroke="black" points="111.5,-853 111.5,-932 284.5,-932 284.5,-853 111.5,-853"/>
<text text-anchor="start" x="119.5" y="-920" font-family="Helvetica,sans-Serif" font-size="10.00">cie::geo::AbsPrimitive</text>
<text text-anchor="middle" x="198" y="-909" font-family="Helvetica,sans-Serif" font-size="10.00">&lt; Dimension, CoordinateType &gt;</text>
<polyline fill="none" stroke="black" points="111.5,-902 284.5,-902 "/>
<text text-anchor="middle" x="198" y="-890" font-family="Helvetica,sans-Serif" font-size="10.00"> </text>
<polyline fill="none" stroke="black" points="111.5,-883 284.5,-883 "/>
<text text-anchor="start" x="119.5" y="-871" font-family="Helvetica,sans-Serif" font-size="10.00">+ ~AbsPrimitive()</text>
<text text-anchor="start" x="119.5" y="-860" font-family="Helvetica,sans-Serif" font-size="10.00">+ isDegenerate()</text>
</a>
</g>
</g>
<!-- Node6&#45;&gt;Node3 -->
<g id="edge5" class="edge">
<title>Node6&#45;&gt;Node3</title>
<path fill="none" stroke="orange" d="M188.47,-842.72C183.41,-816.77 177.27,-785.32 172.54,-761.09"/>
<polygon fill="orange" stroke="orange" points="185.08,-843.58 190.43,-852.73 191.95,-842.24 185.08,-843.58"/>
<text text-anchor="middle" x="243.5" y="-804.5" font-family="Helvetica,sans-Serif" font-size="10.00"> &lt; Dimension, Double &gt;</text>
</g>
<!-- Node7&#45;&gt;Node6 -->
<g id="edge6" class="edge">
<title>Node7&#45;&gt;Node6</title>
<path fill="none" stroke="midnightblue" d="M204.99,-1044.15C203.43,-1010.55 201.29,-964.41 199.79,-932.07"/>
<polygon fill="none" stroke="midnightblue" points="201.49,-1044.32 205.45,-1054.15 208.49,-1044 201.49,-1044.32"/>
</g>
<!-- Node8 -->
<g id="node8" class="node">
<title>Node8</title>
<g id="a_node8"><a xlink:href="classcie_1_1geo_1_1Object.html" target="_top" xlink:title=" ">
<polygon fill="white" stroke="black" points="249.5,-665.5 249.5,-777.5 408.5,-777.5 408.5,-665.5 249.5,-665.5"/>
<text text-anchor="start" x="257.5" y="-765.5" font-family="Helvetica,sans-Serif" font-size="10.00">cie::geo::Object&lt; Dimension,</text>
<text text-anchor="middle" x="329" y="-754.5" font-family="Helvetica,sans-Serif" font-size="10.00"> Bool, Double &gt;</text>
<polyline fill="none" stroke="black" points="249.5,-747.5 408.5,-747.5 "/>
<text text-anchor="middle" x="329" y="-735.5" font-family="Helvetica,sans-Serif" font-size="10.00"> </text>
<polyline fill="none" stroke="black" points="249.5,-728.5 408.5,-728.5 "/>
<text text-anchor="start" x="257.5" y="-716.5" font-family="Helvetica,sans-Serif" font-size="10.00">+ ~Object()</text>
<text text-anchor="start" x="257.5" y="-705.5" font-family="Helvetica,sans-Serif" font-size="10.00">+ evaluate()</text>
<text text-anchor="start" x="257.5" y="-694.5" font-family="Helvetica,sans-Serif" font-size="10.00">+ evaluate()</text>
<text text-anchor="start" x="257.5" y="-683.5" font-family="Helvetica,sans-Serif" font-size="10.00">+ evaluate()</text>
<text text-anchor="start" x="257.5" y="-672.5" font-family="Helvetica,sans-Serif" font-size="10.00">+ at()</text>
</a>
</g>
</g>
<!-- Node8&#45;&gt;Node1 -->
<g id="edge8" class="edge">
<title>Node8&#45;&gt;Node1</title>
<path fill="none" stroke="midnightblue" d="M323.98,-655.36C318.91,-599.99 309.56,-518.64 294,-449 291.27,-436.77 287.55,-423.8 283.73,-411.71"/>
<polygon fill="none" stroke="midnightblue" points="320.5,-655.74 324.87,-665.39 327.47,-655.11 320.5,-655.74"/>
</g>
<!-- Node9&#45;&gt;Node8 -->
<g id="edge9" class="edge">
<title>Node9&#45;&gt;Node8</title>
<path fill="none" stroke="midnightblue" d="M360.43,-1044.52C353.6,-1017.34 345.45,-981.36 341,-949 333.01,-890.87 330.26,-823.68 329.35,-777.67"/>
<polygon fill="none" stroke="midnightblue" points="357.11,-1045.66 362.97,-1054.48 363.89,-1043.93 357.11,-1045.66"/>
</g>
<!-- Node10 -->
<g id="node10" class="node">
<title>Node10</title>
<g id="a_node10"><a xlink:href="classcie_1_1geo_1_1Object.html" target="_top" xlink:title="Interface for point&#45;queriable objects.">
<polygon fill="white" stroke="black" points="350,-836.5 350,-948.5 478,-948.5 478,-836.5 350,-836.5"/>
<text text-anchor="start" x="358" y="-936.5" font-family="Helvetica,sans-Serif" font-size="10.00">cie::geo::Object&lt; N,</text>
<text text-anchor="middle" x="414" y="-925.5" font-family="Helvetica,sans-Serif" font-size="10.00"> TValue, TCoordinate &gt;</text>
<polyline fill="none" stroke="black" points="350,-918.5 478,-918.5 "/>
<text text-anchor="middle" x="414" y="-906.5" font-family="Helvetica,sans-Serif" font-size="10.00"> </text>
<polyline fill="none" stroke="black" points="350,-899.5 478,-899.5 "/>
<text text-anchor="start" x="358" y="-887.5" font-family="Helvetica,sans-Serif" font-size="10.00">+ ~Object()</text>
<text text-anchor="start" x="358" y="-876.5" font-family="Helvetica,sans-Serif" font-size="10.00">+ evaluate()</text>
<text text-anchor="start" x="358" y="-865.5" font-family="Helvetica,sans-Serif" font-size="10.00">+ evaluate()</text>
<text text-anchor="start" x="358" y="-854.5" font-family="Helvetica,sans-Serif" font-size="10.00">+ evaluate()</text>
<text text-anchor="start" x="358" y="-843.5" font-family="Helvetica,sans-Serif" font-size="10.00">+ at()</text>
</a>
</g>
</g>
<!-- Node9&#45;&gt;Node10 -->
<g id="edge12" class="edge">
<title>Node9&#45;&gt;Node10</title>
<path fill="none" stroke="midnightblue" d="M381.37,-1044.2C387.47,-1016.04 395.48,-979.06 402.03,-948.78"/>
<polygon fill="none" stroke="midnightblue" points="377.92,-1043.64 379.22,-1054.15 384.76,-1045.12 377.92,-1043.64"/>
</g>
<!-- Node10&#45;&gt;Node8 -->
<g id="edge11" class="edge">
<title>Node10&#45;&gt;Node8</title>
<path fill="none" stroke="orange" d="M381.67,-827.22C373.46,-810.9 364.71,-793.5 356.75,-777.67"/>
<polygon fill="orange" stroke="orange" points="378.55,-828.8 386.17,-836.16 384.8,-825.66 378.55,-828.8"/>
<text text-anchor="start" x="377" y="-810" font-family="Helvetica,sans-Serif" font-size="10.00"> &lt; Dimension, Bool,</text>
<text text-anchor="middle" x="426" y="-799" font-family="Helvetica,sans-Serif" font-size="10.00"> Double &gt;</text>
</g>
<!-- Node12&#45;&gt;Node11 -->
<g id="edge15" class="edge">
<title>Node12&#45;&gt;Node11</title>
<path fill="none" stroke="midnightblue" d="M321.32,-163.92C315.4,-154.41 309.16,-144.37 303.05,-134.53"/>
<polygon fill="none" stroke="midnightblue" points="318.39,-165.85 326.65,-172.5 324.34,-162.16 318.39,-165.85"/>
</g>
</g>
</svg>
