<?xml version="1.0" encoding="UTF-8" standalone="no"?>
<!DOCTYPE svg PUBLIC "-//W3C//DTD SVG 1.1//EN"
 "http://www.w3.org/Graphics/SVG/1.1/DTD/svg11.dtd">
<!-- Generated by graphviz version 2.43.0 (0)
 -->
<!-- Title: cie::geo::ContiguousSpaceTree&lt; TGeometry, TIndex, TParallelTag &gt; Pages: 1 -->
<svg width="328pt" height="563pt"
 viewBox="0.00 0.00 327.50 563.00" xmlns="http://www.w3.org/2000/svg" xmlns:xlink="http://www.w3.org/1999/xlink">
<g id="graph0" class="graph" transform="scale(1 1) rotate(0) translate(4 559)">
<title>cie::geo::ContiguousSpaceTree&lt; TGeometry, TIndex, TParallelTag &gt;</title>
<polygon fill="white" stroke="transparent" points="-4,4 -4,-559 323.5,-559 323.5,4 -4,4"/>
<!-- Node1 -->
<g id="node1" class="node">
<title>Node1</title>
<g id="a_node1"><a xlink:title=" ">
<polygon fill="#bfbfbf" stroke="black" points="0,-0.5 0,-145.5 145,-145.5 145,-0.5 0,-0.5"/>
<text text-anchor="start" x="8" y="-133.5" font-family="Helvetica,sans-Serif" font-size="10.00">cie::geo::ContiguousSpace</text>
<text text-anchor="start" x="8" y="-122.5" font-family="Helvetica,sans-Serif" font-size="10.00">Tree&lt; TGeometry, TIndex,</text>
<text text-anchor="middle" x="72.5" y="-111.5" font-family="Helvetica,sans-Serif" font-size="10.00"> TParallelTag &gt;</text>
<polyline fill="none" stroke="black" points="0,-104.5 145,-104.5 "/>
<text text-anchor="start" x="8" y="-92.5" font-family="Helvetica,sans-Serif" font-size="10.00">+ Dimension</text>
<polyline fill="none" stroke="black" points="0,-85.5 145,-85.5 "/>
<text text-anchor="start" x="8" y="-73.5" font-family="Helvetica,sans-Serif" font-size="10.00">+ ContiguousSpaceTree()</text>
<text text-anchor="start" x="8" y="-62.5" font-family="Helvetica,sans-Serif" font-size="10.00">+ ContiguousSpaceTree()</text>
<text text-anchor="start" x="8" y="-51.5" font-family="Helvetica,sans-Serif" font-size="10.00">+ getNodeGeometry()</text>
<text text-anchor="start" x="8" y="-40.5" font-family="Helvetica,sans-Serif" font-size="10.00">+ getNodeGeometry()</text>
<text text-anchor="start" x="8" y="-29.5" font-family="Helvetica,sans-Serif" font-size="10.00">+ split()</text>
<text text-anchor="start" x="8" y="-18.5" font-family="Helvetica,sans-Serif" font-size="10.00">+ scan()</text>
<text text-anchor="start" x="8" y="-7.5" font-family="Helvetica,sans-Serif" font-size="10.00">+ getIndex()</text>
</a>
</g>
</g>
<!-- Node2 -->
<g id="node2" class="node">
<title>Node2</title>
<g id="a_node2"><a xlink:href="classcie_1_1geo_1_1TGeometry.html" target="_top" xlink:title=" ">
<polygon fill="white" stroke="black" points="25,-200 25,-257 96,-257 96,-200 25,-200"/>
<text text-anchor="middle" x="60.5" y="-245" font-family="Helvetica,sans-Serif" font-size="10.00">TGeometry</text>
<polyline fill="none" stroke="black" points="25,-238 96,-238 "/>
<text text-anchor="middle" x="60.5" y="-226" font-family="Helvetica,sans-Serif" font-size="10.00"> </text>
<polyline fill="none" stroke="black" points="25,-219 96,-219 "/>
<text text-anchor="middle" x="60.5" y="-207" font-family="Helvetica,sans-Serif" font-size="10.00"> </text>
</a>
</g>
</g>
<!-- Node2&#45;&gt;Node1 -->
<g id="edge1" class="edge">
<title>Node2&#45;&gt;Node1</title>
<path fill="none" stroke="midnightblue" d="M63.47,-189.54C64.51,-176.24 65.71,-160.84 66.89,-145.71"/>
<polygon fill="none" stroke="midnightblue" points="59.96,-189.46 62.67,-199.7 66.94,-190.01 59.96,-189.46"/>
</g>
<!-- Node3 -->
<g id="node3" class="node">
<title>Node3</title>
<g id="a_node3"><a xlink:title=" ">
<polygon fill="white" stroke="#bfbfbf" points="114.5,-183.5 114.5,-273.5 286.5,-273.5 286.5,-183.5 114.5,-183.5"/>
<text text-anchor="start" x="122.5" y="-261.5" font-family="Helvetica,sans-Serif" font-size="10.00">cie::utils::ContiguousTree</text>
<text text-anchor="start" x="122.5" y="-250.5" font-family="Helvetica,sans-Serif" font-size="10.00">&lt; detail::CSTNode&lt; TGeometry</text>
<text text-anchor="start" x="122.5" y="-239.5" font-family="Helvetica,sans-Serif" font-size="10.00">::Dimension, TIndex &gt;, TIndex,</text>
<text text-anchor="middle" x="200.5" y="-228.5" font-family="Helvetica,sans-Serif" font-size="10.00"> tags::Serial &gt;</text>
<polyline fill="none" stroke="#bfbfbf" points="114.5,-221.5 286.5,-221.5 "/>
<text text-anchor="middle" x="200.5" y="-209.5" font-family="Helvetica,sans-Serif" font-size="10.00"> </text>
<polyline fill="none" stroke="#bfbfbf" points="114.5,-202.5 286.5,-202.5 "/>
<text text-anchor="middle" x="200.5" y="-190.5" font-family="Helvetica,sans-Serif" font-size="10.00"> </text>
</a>
</g>
</g>
<!-- Node3&#45;&gt;Node1 -->
<g id="edge2" class="edge">
<title>Node3&#45;&gt;Node1</title>
<path fill="none" stroke="midnightblue" d="M156.95,-175.27C149.03,-165.77 140.64,-155.72 132.35,-145.77"/>
<polygon fill="none" stroke="midnightblue" points="154.38,-177.66 163.48,-183.1 159.76,-173.18 154.38,-177.66"/>
</g>
<!-- Node4 -->
<g id="node4" class="node">
<title>Node4</title>
<g id="a_node4"><a target="_parent" xlink:href="../../../cieutils/docs/html/classcie_1_1utils_1_1ContiguousTree.html" xlink:title=" ">
<polygon fill="white" stroke="black" points="130.5,-354.5 130.5,-554.5 270.5,-554.5 270.5,-354.5 130.5,-354.5"/>
<text text-anchor="start" x="138.5" y="-542.5" font-family="Helvetica,sans-Serif" font-size="10.00">cie::utils::ContiguousTree</text>
<text text-anchor="middle" x="200.5" y="-531.5" font-family="Helvetica,sans-Serif" font-size="10.00">&lt; TNode, TIndex, class &gt;</text>
<polyline fill="none" stroke="black" points="130.5,-524.5 270.5,-524.5 "/>
<text text-anchor="start" x="138.5" y="-512.5" font-family="Helvetica,sans-Serif" font-size="10.00"># _nodes</text>
<polyline fill="none" stroke="black" points="130.5,-505.5 270.5,-505.5 "/>
<text text-anchor="start" x="138.5" y="-493.5" font-family="Helvetica,sans-Serif" font-size="10.00">+ ContiguousTree()</text>
<text text-anchor="start" x="138.5" y="-482.5" font-family="Helvetica,sans-Serif" font-size="10.00">+ erase()</text>
<text text-anchor="start" x="138.5" y="-471.5" font-family="Helvetica,sans-Serif" font-size="10.00">+ visit()</text>
<text text-anchor="start" x="138.5" y="-460.5" font-family="Helvetica,sans-Serif" font-size="10.00">+ visit()</text>
<text text-anchor="start" x="138.5" y="-449.5" font-family="Helvetica,sans-Serif" font-size="10.00">+ insert()</text>
<text text-anchor="start" x="138.5" y="-438.5" font-family="Helvetica,sans-Serif" font-size="10.00">+ clear()</text>
<text text-anchor="start" x="138.5" y="-427.5" font-family="Helvetica,sans-Serif" font-size="10.00">+ reset()</text>
<text text-anchor="start" x="138.5" y="-416.5" font-family="Helvetica,sans-Serif" font-size="10.00">+ size()</text>
<text text-anchor="start" x="138.5" y="-405.5" font-family="Helvetica,sans-Serif" font-size="10.00">+ empty()</text>
<text text-anchor="start" x="138.5" y="-394.5" font-family="Helvetica,sans-Serif" font-size="10.00">+ begin()</text>
<text text-anchor="start" x="138.5" y="-383.5" font-family="Helvetica,sans-Serif" font-size="10.00">+ begin()</text>
<text text-anchor="start" x="138.5" y="-372.5" font-family="Helvetica,sans-Serif" font-size="10.00">+ end()</text>
<text text-anchor="start" x="138.5" y="-361.5" font-family="Helvetica,sans-Serif" font-size="10.00">+ end()</text>
</a>
</g>
</g>
<!-- Node4&#45;&gt;Node3 -->
<g id="edge3" class="edge">
<title>Node4&#45;&gt;Node3</title>
<path fill="none" stroke="orange" d="M200.5,-343.99C200.5,-319.06 200.5,-293.97 200.5,-273.66"/>
<polygon fill="orange" stroke="orange" points="197,-344.27 200.5,-354.27 204,-344.27 197,-344.27"/>
<text text-anchor="start" x="200.5" y="-328" font-family="Helvetica,sans-Serif" font-size="10.00"> &lt; detail::CSTNode&lt;</text>
<text text-anchor="start" x="200.5" y="-317" font-family="Helvetica,sans-Serif" font-size="10.00"> TGeometry::Dimension,</text>
<text text-anchor="start" x="200.5" y="-306" font-family="Helvetica,sans-Serif" font-size="10.00"> TIndex &gt;, TIndex, tags</text>
<text text-anchor="middle" x="260" y="-295" font-family="Helvetica,sans-Serif" font-size="10.00">::Serial &gt;</text>
</g>
</g>
</svg>
