<?xml version="1.0" encoding="UTF-8" standalone="no"?>
<!DOCTYPE svg PUBLIC "-//W3C//DTD SVG 1.1//EN"
 "http://www.w3.org/Graphics/SVG/1.1/DTD/svg11.dtd">
<!-- Generated by graphviz version 2.43.0 (0)
 -->
<!-- Title: cie::geo::SpaceTreeNode&lt; TCell, TValue &gt; Pages: 1 -->
<svg width="392pt" height="573pt"
 viewBox="0.00 0.00 392.00 573.00" xmlns="http://www.w3.org/2000/svg" xmlns:xlink="http://www.w3.org/1999/xlink">
<g id="graph0" class="graph" transform="scale(1 1) rotate(0) translate(4 569)">
<title>cie::geo::SpaceTreeNode&lt; TCell, TValue &gt;</title>
<polygon fill="white" stroke="transparent" points="-4,4 -4,-569 388,-569 388,4 -4,4"/>
<!-- Node1 -->
<g id="node1" class="node">
<title>Node1</title>
<g id="a_node1"><a xlink:title=" ">
<polygon fill="#bfbfbf" stroke="black" points="123,-0.5 123,-200.5 259,-200.5 259,-0.5 123,-0.5"/>
<text text-anchor="start" x="131" y="-188.5" font-family="Helvetica,sans-Serif" font-size="10.00">cie::geo::SpaceTreeNode</text>
<text text-anchor="middle" x="191" y="-177.5" font-family="Helvetica,sans-Serif" font-size="10.00">&lt; TCell, TValue &gt;</text>
<polyline fill="none" stroke="black" points="123,-170.5 259,-170.5 "/>
<text text-anchor="middle" x="191" y="-158.5" font-family="Helvetica,sans-Serif" font-size="10.00"> </text>
<polyline fill="none" stroke="black" points="123,-151.5 259,-151.5 "/>
<text text-anchor="start" x="131" y="-139.5" font-family="Helvetica,sans-Serif" font-size="10.00">+ SpaceTreeNode()</text>
<text text-anchor="start" x="131" y="-128.5" font-family="Helvetica,sans-Serif" font-size="10.00">+ SpaceTreeNode()</text>
<text text-anchor="start" x="131" y="-117.5" font-family="Helvetica,sans-Serif" font-size="10.00">+ SpaceTreeNode()</text>
<text text-anchor="start" x="131" y="-106.5" font-family="Helvetica,sans-Serif" font-size="10.00">+ SpaceTreeNode()</text>
<text text-anchor="start" x="131" y="-95.5" font-family="Helvetica,sans-Serif" font-size="10.00">+ operator=()</text>
<text text-anchor="start" x="131" y="-84.5" font-family="Helvetica,sans-Serif" font-size="10.00">+ operator=()</text>
<text text-anchor="start" x="131" y="-73.5" font-family="Helvetica,sans-Serif" font-size="10.00">+ divide()</text>
<text text-anchor="start" x="131" y="-62.5" font-family="Helvetica,sans-Serif" font-size="10.00">+ divide()</text>
<text text-anchor="start" x="131" y="-51.5" font-family="Helvetica,sans-Serif" font-size="10.00">+ scan()</text>
<text text-anchor="start" x="131" y="-40.5" font-family="Helvetica,sans-Serif" font-size="10.00">+ scan()</text>
<text text-anchor="start" x="131" y="-29.5" font-family="Helvetica,sans-Serif" font-size="10.00">and 9 more...</text>
<text text-anchor="start" x="131" y="-18.5" font-family="Helvetica,sans-Serif" font-size="10.00"># divideImpl()</text>
<text text-anchor="start" x="131" y="-7.5" font-family="Helvetica,sans-Serif" font-size="10.00"># scanImpl()</text>
</a>
</g>
</g>
<!-- Node2 -->
<g id="node2" class="node">
<title>Node2</title>
<g id="a_node2"><a target="_parent" xlink:href="../../../cieutils/docs/html/classcie_1_1utils_1_1AbsTree.html" xlink:title=" ">
<polygon fill="white" stroke="black" points="0,-248.5 0,-448.5 152,-448.5 152,-248.5 0,-248.5"/>
<text text-anchor="start" x="8" y="-436.5" font-family="Helvetica,sans-Serif" font-size="10.00">detail::SpaceTreeNodeTraits</text>
<text text-anchor="start" x="8" y="-425.5" font-family="Helvetica,sans-Serif" font-size="10.00">&lt; SpaceTreeNode&lt; TCell,</text>
<text text-anchor="start" x="8" y="-414.5" font-family="Helvetica,sans-Serif" font-size="10.00"> TValue &gt;, TCell, TValue</text>
<text text-anchor="middle" x="76" y="-403.5" font-family="Helvetica,sans-Serif" font-size="10.00"> &gt;::Tree</text>
<polyline fill="none" stroke="black" points="0,-396.5 152,-396.5 "/>
<text text-anchor="middle" x="76" y="-384.5" font-family="Helvetica,sans-Serif" font-size="10.00"> </text>
<polyline fill="none" stroke="black" points="0,-377.5 152,-377.5 "/>
<text text-anchor="start" x="8" y="-365.5" font-family="Helvetica,sans-Serif" font-size="10.00">+ AbsTree()</text>
<text text-anchor="start" x="8" y="-354.5" font-family="Helvetica,sans-Serif" font-size="10.00">+ AbsTree()</text>
<text text-anchor="start" x="8" y="-343.5" font-family="Helvetica,sans-Serif" font-size="10.00">+ AbsTree()</text>
<text text-anchor="start" x="8" y="-332.5" font-family="Helvetica,sans-Serif" font-size="10.00">+ AbsTree()</text>
<text text-anchor="start" x="8" y="-321.5" font-family="Helvetica,sans-Serif" font-size="10.00">+ operator=()</text>
<text text-anchor="start" x="8" y="-310.5" font-family="Helvetica,sans-Serif" font-size="10.00">+ operator=()</text>
<text text-anchor="start" x="8" y="-299.5" font-family="Helvetica,sans-Serif" font-size="10.00">+ ~AbsTree()</text>
<text text-anchor="start" x="8" y="-288.5" font-family="Helvetica,sans-Serif" font-size="10.00">+ visit()</text>
<text text-anchor="start" x="8" y="-277.5" font-family="Helvetica,sans-Serif" font-size="10.00">+ visit()</text>
<text text-anchor="start" x="8" y="-266.5" font-family="Helvetica,sans-Serif" font-size="10.00">+ visit()</text>
<text text-anchor="start" x="8" y="-255.5" font-family="Helvetica,sans-Serif" font-size="10.00">and 9 more...</text>
</a>
</g>
</g>
<!-- Node2&#45;&gt;Node1 -->
<g id="edge1" class="edge">
<title>Node2&#45;&gt;Node1</title>
<path fill="none" stroke="midnightblue" d="M126.74,-238.96C132.67,-226.27 138.7,-213.37 144.57,-200.82"/>
<polygon fill="none" stroke="midnightblue" points="123.51,-237.61 122.44,-248.15 129.85,-240.57 123.51,-237.61"/>
</g>
<!-- Node3 -->
<g id="node3" class="node">
<title>Node3</title>
<g id="a_node3"><a xlink:title=" ">
<polygon fill="white" stroke="#bfbfbf" points="3.5,-502 3.5,-559 48.5,-559 48.5,-502 3.5,-502"/>
<text text-anchor="middle" x="26" y="-547" font-family="Helvetica,sans-Serif" font-size="10.00">size_t</text>
<polyline fill="none" stroke="#bfbfbf" points="3.5,-540 48.5,-540 "/>
<text text-anchor="middle" x="26" y="-528" font-family="Helvetica,sans-Serif" font-size="10.00"> </text>
<polyline fill="none" stroke="#bfbfbf" points="3.5,-521 48.5,-521 "/>
<text text-anchor="middle" x="26" y="-509" font-family="Helvetica,sans-Serif" font-size="10.00"> </text>
</a>
</g>
</g>
<!-- Node3&#45;&gt;Node2 -->
<g id="edge2" class="edge">
<title>Node3&#45;&gt;Node2</title>
<path fill="none" stroke="#404040" d="M33.7,-501.77C36.93,-490.14 40.92,-475.79 45.14,-460.58"/>
<polygon fill="none" stroke="#404040" points="45.2,-460.39 42.95,-453.54 48.41,-448.82 50.66,-455.68 45.2,-460.39"/>
<text text-anchor="middle" x="63.5" y="-470" font-family="Helvetica,sans-Serif" font-size="10.00"> #_level</text>
</g>
<!-- Node4 -->
<g id="node4" class="node">
<title>Node4</title>
<g id="a_node4"><a xlink:title=" ">
<polygon fill="white" stroke="#bfbfbf" points="66.5,-496.5 66.5,-564.5 187.5,-564.5 187.5,-496.5 66.5,-496.5"/>
<text text-anchor="start" x="74.5" y="-552.5" font-family="Helvetica,sans-Serif" font-size="10.00">TContainer&lt; TStored,</text>
<text text-anchor="middle" x="127" y="-541.5" font-family="Helvetica,sans-Serif" font-size="10.00"> TArgs... &gt;</text>
<polyline fill="none" stroke="#bfbfbf" points="66.5,-534.5 187.5,-534.5 "/>
<text text-anchor="middle" x="127" y="-522.5" font-family="Helvetica,sans-Serif" font-size="10.00"> </text>
<polyline fill="none" stroke="#bfbfbf" points="66.5,-515.5 187.5,-515.5 "/>
<text text-anchor="middle" x="127" y="-503.5" font-family="Helvetica,sans-Serif" font-size="10.00"> </text>
</a>
</g>
</g>
<!-- Node4&#45;&gt;Node2 -->
<g id="edge3" class="edge">
<title>Node4&#45;&gt;Node2</title>
<path fill="none" stroke="#404040" d="M117.65,-496.49C114.62,-485.81 111.08,-473.32 107.37,-460.2"/>
<polygon fill="none" stroke="#404040" points="107.34,-460.1 101.85,-455.41 104.06,-448.55 109.55,-453.23 107.34,-460.1"/>
<text text-anchor="middle" x="140" y="-470" font-family="Helvetica,sans-Serif" font-size="10.00"> #_children</text>
</g>
<!-- Node5 -->
<g id="node5" class="node">
<title>Node5</title>
<g id="a_node5"><a xlink:href="classTCell.html" target="_top" xlink:title=" ">
<polygon fill="white" stroke="black" points="170.5,-320 170.5,-377 211.5,-377 211.5,-320 170.5,-320"/>
<text text-anchor="middle" x="191" y="-365" font-family="Helvetica,sans-Serif" font-size="10.00">TCell</text>
<polyline fill="none" stroke="black" points="170.5,-358 211.5,-358 "/>
<text text-anchor="middle" x="191" y="-346" font-family="Helvetica,sans-Serif" font-size="10.00"> </text>
<polyline fill="none" stroke="black" points="170.5,-339 211.5,-339 "/>
<text text-anchor="middle" x="191" y="-327" font-family="Helvetica,sans-Serif" font-size="10.00"> </text>
</a>
</g>
</g>
<!-- Node5&#45;&gt;Node1 -->
<g id="edge4" class="edge">
<title>Node5&#45;&gt;Node1</title>
<path fill="none" stroke="midnightblue" d="M191,-309.63C191,-280.54 191,-238.97 191,-200.62"/>
<polygon fill="none" stroke="midnightblue" points="187.5,-309.76 191,-319.76 194.5,-309.76 187.5,-309.76"/>
</g>
<!-- Node6 -->
<g id="node6" class="node">
<title>Node6</title>
<g id="a_node6"><a xlink:title=" ">
<polygon fill="white" stroke="#bfbfbf" points="230,-314.5 230,-382.5 384,-382.5 384,-314.5 230,-314.5"/>
<text text-anchor="start" x="238" y="-370.5" font-family="Helvetica,sans-Serif" font-size="10.00">SplitPolicyPtr&lt; SamplePoint</text>
<text text-anchor="middle" x="307" y="-359.5" font-family="Helvetica,sans-Serif" font-size="10.00">Iterator, value_iterator &gt;</text>
<polyline fill="none" stroke="#bfbfbf" points="230,-352.5 384,-352.5 "/>
<text text-anchor="middle" x="307" y="-340.5" font-family="Helvetica,sans-Serif" font-size="10.00"> </text>
<polyline fill="none" stroke="#bfbfbf" points="230,-333.5 384,-333.5 "/>
<text text-anchor="middle" x="307" y="-321.5" font-family="Helvetica,sans-Serif" font-size="10.00"> </text>
</a>
</g>
</g>
<!-- Node6&#45;&gt;Node1 -->
<g id="edge5" class="edge">
<title>Node6&#45;&gt;Node1</title>
<path fill="none" stroke="#404040" d="M291.36,-314.32C278.83,-287.76 260.52,-248.92 242.95,-211.67"/>
<polygon fill="none" stroke="#404040" points="242.89,-211.55 236.71,-207.83 237.77,-200.69 243.95,-204.41 242.89,-211.55"/>
<text text-anchor="middle" x="288.5" y="-222" font-family="Helvetica,sans-Serif" font-size="10.00"> #_p_splitPolicy</text>
</g>
</g>
</svg>
