<?xml version="1.0" encoding="UTF-8" standalone="no"?>
<!DOCTYPE svg PUBLIC "-//W3C//DTD SVG 1.1//EN"
 "http://www.w3.org/Graphics/SVG/1.1/DTD/svg11.dtd">
<!-- Generated by graphviz version 2.43.0 (0)
 -->
<!-- Title: cie::geo::Object&lt; N, TValue, TCoordinate &gt; Pages: 1 -->
<svg width="170pt" height="448pt"
 viewBox="0.00 0.00 170.00 448.00" xmlns="http://www.w3.org/2000/svg" xmlns:xlink="http://www.w3.org/1999/xlink">
<g id="graph0" class="graph" transform="scale(1 1) rotate(0) translate(4 444)">
<title>cie::geo::Object&lt; N, TValue, TCoordinate &gt;</title>
<polygon fill="white" stroke="transparent" points="-4,4 -4,-444 166,-444 166,4 -4,4"/>
<!-- Node1 -->
<g id="node1" class="node">
<title>Node1</title>
<g id="a_node1"><a xlink:title="Interface for point&#45;queriable objects.">
<polygon fill="#bfbfbf" stroke="black" points="0,-0.5 0,-112.5 128,-112.5 128,-0.5 0,-0.5"/>
<text text-anchor="start" x="8" y="-100.5" font-family="Helvetica,sans-Serif" font-size="10.00">cie::geo::Object&lt; N,</text>
<text text-anchor="middle" x="64" y="-89.5" font-family="Helvetica,sans-Serif" font-size="10.00"> TValue, TCoordinate &gt;</text>
<polyline fill="none" stroke="black" points="0,-82.5 128,-82.5 "/>
<text text-anchor="middle" x="64" y="-70.5" font-family="Helvetica,sans-Serif" font-size="10.00"> </text>
<polyline fill="none" stroke="black" points="0,-63.5 128,-63.5 "/>
<text text-anchor="start" x="8" y="-51.5" font-family="Helvetica,sans-Serif" font-size="10.00">+ ~Object()</text>
<text text-anchor="start" x="8" y="-40.5" font-family="Helvetica,sans-Serif" font-size="10.00">+ evaluate()</text>
<text text-anchor="start" x="8" y="-29.5" font-family="Helvetica,sans-Serif" font-size="10.00">+ evaluate()</text>
<text text-anchor="start" x="8" y="-18.5" font-family="Helvetica,sans-Serif" font-size="10.00">+ evaluate()</text>
<text text-anchor="start" x="8" y="-7.5" font-family="Helvetica,sans-Serif" font-size="10.00">+ at()</text>
</a>
</g>
</g>
<!-- Node2 -->
<g id="node2" class="node">
<title>Node2</title>
<g id="a_node2"><a xlink:href="classcie_1_1geo_1_1Traits.html" target="_top" xlink:title=" ">
<polygon fill="white" stroke="black" points="9.5,-150.5 9.5,-218.5 118.5,-218.5 118.5,-150.5 9.5,-150.5"/>
<text text-anchor="start" x="17.5" y="-206.5" font-family="Helvetica,sans-Serif" font-size="10.00">cie::geo::Traits&lt; N,</text>
<text text-anchor="middle" x="64" y="-195.5" font-family="Helvetica,sans-Serif" font-size="10.00"> TCoordinate &gt;</text>
<polyline fill="none" stroke="black" points="9.5,-188.5 118.5,-188.5 "/>
<text text-anchor="start" x="17.5" y="-176.5" font-family="Helvetica,sans-Serif" font-size="10.00">+ Dimension</text>
<polyline fill="none" stroke="black" points="9.5,-169.5 118.5,-169.5 "/>
<text text-anchor="middle" x="64" y="-157.5" font-family="Helvetica,sans-Serif" font-size="10.00"> </text>
</a>
</g>
</g>
<!-- Node2&#45;&gt;Node1 -->
<g id="edge1" class="edge">
<title>Node2&#45;&gt;Node1</title>
<path fill="none" stroke="midnightblue" d="M64,-140.31C64,-131.45 64,-122.01 64,-112.79"/>
<polygon fill="none" stroke="midnightblue" points="60.5,-140.39 64,-150.39 67.5,-140.4 60.5,-140.39"/>
</g>
<!-- Node3 -->
<g id="node3" class="node">
<title>Node3</title>
<g id="a_node3"><a xlink:href="classcie_1_1geo_1_1Traits.html" target="_top" xlink:title="Basic templated traits that every object has in GEO.">
<polygon fill="white" stroke="black" points="3,-266.5 3,-334.5 125,-334.5 125,-266.5 3,-266.5"/>
<text text-anchor="start" x="11" y="-322.5" font-family="Helvetica,sans-Serif" font-size="10.00">cie::geo::Traits&lt; Dim,</text>
<text text-anchor="middle" x="64" y="-311.5" font-family="Helvetica,sans-Serif" font-size="10.00"> TCoordinate &gt;</text>
<polyline fill="none" stroke="black" points="3,-304.5 125,-304.5 "/>
<text text-anchor="middle" x="64" y="-292.5" font-family="Helvetica,sans-Serif" font-size="10.00"> </text>
<polyline fill="none" stroke="black" points="3,-285.5 125,-285.5 "/>
<text text-anchor="middle" x="64" y="-273.5" font-family="Helvetica,sans-Serif" font-size="10.00"> </text>
</a>
</g>
</g>
<!-- Node3&#45;&gt;Node2 -->
<g id="edge2" class="edge">
<title>Node3&#45;&gt;Node2</title>
<path fill="none" stroke="orange" d="M64,-256.06C64,-243.64 64,-230.32 64,-218.62"/>
<polygon fill="orange" stroke="orange" points="60.5,-256.22 64,-266.22 67.5,-256.22 60.5,-256.22"/>
<text text-anchor="middle" x="113" y="-240" font-family="Helvetica,sans-Serif" font-size="10.00"> &lt; N, TCoordinate &gt;</text>
</g>
<!-- Node4 -->
<g id="node4" class="node">
<title>Node4</title>
<g id="a_node4"><a xlink:title=" ">
<polygon fill="white" stroke="#bfbfbf" points="41.5,-382.5 41.5,-439.5 86.5,-439.5 86.5,-382.5 41.5,-382.5"/>
<text text-anchor="middle" x="64" y="-427.5" font-family="Helvetica,sans-Serif" font-size="10.00">size_t</text>
<polyline fill="none" stroke="#bfbfbf" points="41.5,-420.5 86.5,-420.5 "/>
<text text-anchor="middle" x="64" y="-408.5" font-family="Helvetica,sans-Serif" font-size="10.00"> </text>
<polyline fill="none" stroke="#bfbfbf" points="41.5,-401.5 86.5,-401.5 "/>
<text text-anchor="middle" x="64" y="-389.5" font-family="Helvetica,sans-Serif" font-size="10.00"> </text>
</a>
</g>
</g>
<!-- Node4&#45;&gt;Node3 -->
<g id="edge3" class="edge">
<title>Node4&#45;&gt;Node3</title>
<path fill="none" stroke="#404040" d="M64,-382.34C64,-371.53 64,-358.85 64,-346.77"/>
<polygon fill="none" stroke="#404040" points="64,-346.52 60,-340.52 64,-334.52 68,-340.52 64,-346.52"/>
<text text-anchor="middle" x="96" y="-356" font-family="Helvetica,sans-Serif" font-size="10.00"> +Dimension</text>
</g>
</g>
</svg>
