<?xml version="1.0" encoding="UTF-8" standalone="no"?>
<!DOCTYPE svg PUBLIC "-//W3C//DTD SVG 1.1//EN"
 "http://www.w3.org/Graphics/SVG/1.1/DTD/svg11.dtd">
<!-- Generated by graphviz version 2.43.0 (0)
 -->
<!-- Title: cie::geo::Cell&lt; PrimitiveType &gt; Pages: 1 -->
<svg width="143pt" height="386pt"
 viewBox="0.00 0.00 143.00 386.00" xmlns="http://www.w3.org/2000/svg" xmlns:xlink="http://www.w3.org/1999/xlink">
<g id="graph0" class="graph" transform="scale(1 1) rotate(0) translate(4 382)">
<title>cie::geo::Cell&lt; PrimitiveType &gt;</title>
<polygon fill="white" stroke="transparent" points="-4,4 -4,-382 139,-382 139,4 -4,4"/>
<!-- Node1 -->
<g id="node1" class="node">
<title>Node1</title>
<g id="a_node1"><a xlink:title=" ">
<polygon fill="#bfbfbf" stroke="black" points="0,-0.5 0,-123.5 135,-123.5 135,-0.5 0,-0.5"/>
<text text-anchor="start" x="8" y="-111.5" font-family="Helvetica,sans-Serif" font-size="10.00">cie::geo::Cell&lt; Primitive</text>
<text text-anchor="middle" x="67.5" y="-100.5" font-family="Helvetica,sans-Serif" font-size="10.00">Type &gt;</text>
<polyline fill="none" stroke="black" points="0,-93.5 135,-93.5 "/>
<text text-anchor="start" x="8" y="-81.5" font-family="Helvetica,sans-Serif" font-size="10.00"># _childIndexConverter</text>
<polyline fill="none" stroke="black" points="0,-74.5 135,-74.5 "/>
<text text-anchor="start" x="8" y="-62.5" font-family="Helvetica,sans-Serif" font-size="10.00">+ Cell()</text>
<text text-anchor="start" x="8" y="-51.5" font-family="Helvetica,sans-Serif" font-size="10.00">+ split()</text>
<text text-anchor="start" x="8" y="-40.5" font-family="Helvetica,sans-Serif" font-size="10.00">+ split()</text>
<text text-anchor="start" x="8" y="-29.5" font-family="Helvetica,sans-Serif" font-size="10.00">+ Cell()</text>
<text text-anchor="start" x="8" y="-18.5" font-family="Helvetica,sans-Serif" font-size="10.00"># split_internal()</text>
<text text-anchor="start" x="8" y="-7.5" font-family="Helvetica,sans-Serif" font-size="10.00"># split_internal()</text>
</a>
</g>
</g>
<!-- Node2 -->
<g id="node2" class="node">
<title>Node2</title>
<g id="a_node2"><a xlink:href="classcie_1_1geo_1_1AbsCell.html" target="_top" xlink:title=" ">
<polygon fill="white" stroke="black" points="14.5,-160.5 14.5,-283.5 120.5,-283.5 120.5,-160.5 14.5,-160.5"/>
<text text-anchor="start" x="22.5" y="-271.5" font-family="Helvetica,sans-Serif" font-size="10.00">cie::geo::AbsCell&lt;</text>
<text text-anchor="middle" x="67.5" y="-260.5" font-family="Helvetica,sans-Serif" font-size="10.00"> PrimitiveType &gt;</text>
<polyline fill="none" stroke="black" points="14.5,-253.5 120.5,-253.5 "/>
<text text-anchor="middle" x="67.5" y="-241.5" font-family="Helvetica,sans-Serif" font-size="10.00"> </text>
<polyline fill="none" stroke="black" points="14.5,-234.5 120.5,-234.5 "/>
<text text-anchor="start" x="22.5" y="-222.5" font-family="Helvetica,sans-Serif" font-size="10.00">+ AbsCell()</text>
<text text-anchor="start" x="22.5" y="-211.5" font-family="Helvetica,sans-Serif" font-size="10.00">+ AbsCell()</text>
<text text-anchor="start" x="22.5" y="-200.5" font-family="Helvetica,sans-Serif" font-size="10.00">+ AbsCell()</text>
<text text-anchor="start" x="22.5" y="-189.5" font-family="Helvetica,sans-Serif" font-size="10.00">+ ~AbsCell()</text>
<text text-anchor="start" x="22.5" y="-178.5" font-family="Helvetica,sans-Serif" font-size="10.00">+ split()</text>
<text text-anchor="start" x="22.5" y="-167.5" font-family="Helvetica,sans-Serif" font-size="10.00"># split_internal()</text>
</a>
</g>
</g>
<!-- Node2&#45;&gt;Node1 -->
<g id="edge1" class="edge">
<title>Node2&#45;&gt;Node1</title>
<path fill="none" stroke="midnightblue" d="M60.78,-150.12C60.71,-141.31 60.76,-132.37 60.91,-123.73"/>
<polygon fill="none" stroke="midnightblue" points="57.29,-150.41 60.91,-160.36 64.28,-150.32 57.29,-150.41"/>
</g>
<!-- Node2&#45;&gt;Node1 -->
<g id="edge3" class="edge">
<title>Node2&#45;&gt;Node1</title>
<path fill="none" stroke="midnightblue" d="M74.22,-150.12C74.29,-141.31 74.24,-132.37 74.09,-123.73"/>
<polygon fill="none" stroke="midnightblue" points="70.72,-150.32 74.09,-160.36 77.71,-150.41 70.72,-150.32"/>
</g>
<!-- Node3 -->
<g id="node3" class="node">
<title>Node3</title>
<g id="a_node3"><a xlink:href="classcie_1_1geo_1_1PrimitiveType.html" target="_top" xlink:title=" ">
<polygon fill="white" stroke="black" points="26,-320.5 26,-377.5 109,-377.5 109,-320.5 26,-320.5"/>
<text text-anchor="middle" x="67.5" y="-365.5" font-family="Helvetica,sans-Serif" font-size="10.00">PrimitiveType</text>
<polyline fill="none" stroke="black" points="26,-358.5 109,-358.5 "/>
<text text-anchor="middle" x="67.5" y="-346.5" font-family="Helvetica,sans-Serif" font-size="10.00"> </text>
<polyline fill="none" stroke="black" points="26,-339.5 109,-339.5 "/>
<text text-anchor="middle" x="67.5" y="-327.5" font-family="Helvetica,sans-Serif" font-size="10.00"> </text>
</a>
</g>
</g>
<!-- Node3&#45;&gt;Node2 -->
<g id="edge2" class="edge">
<title>Node3&#45;&gt;Node2</title>
<path fill="none" stroke="midnightblue" d="M67.5,-310.1C67.5,-301.74 67.5,-292.68 67.5,-283.67"/>
<polygon fill="none" stroke="midnightblue" points="64,-310.26 67.5,-320.26 71,-310.26 64,-310.26"/>
</g>
</g>
</svg>
