<?xml version="1.0" encoding="UTF-8" standalone="no"?>
<!DOCTYPE svg PUBLIC "-//W3C//DTD SVG 1.1//EN"
 "http://www.w3.org/Graphics/SVG/1.1/DTD/svg11.dtd">
<!-- Generated by graphviz version 2.43.0 (0)
 -->
<!-- Title: cie::geo::ContiguousSpaceTree&lt; TGeometry, TIndex, TParallelTag &gt; Pages: 1 -->
<!--zoomable 678 -->
<svg id="main" version="1.1" xmlns="http://www.w3.org/2000/svg" xmlns:xlink="http://www.w3.org/1999/xlink" xml:space="preserve" onload="init(evt)">
<style type="text/css"><![CDATA[
.edge:hover path { stroke: red; }
.edge:hover polygon { stroke: red; fill: red; }
]]></style>
<script type="text/javascript"><![CDATA[
var edges = document.getElementsByTagName('g');
if (edges && edges.length) {
  for (var i=0;i<edges.length;i++) {
    if (edges[i].id.substr(0,4)=='edge') {
      edges[i].setAttribute('class','edge');
    }
  }
}
]]></script>
        <defs>
                <circle id="rim" cx="0" cy="0" r="7"/>
                <circle id="rim2" cx="0" cy="0" r="3.5"/>
                <g id="zoomPlus">
                        <use xlink:href="#rim" fill="#404040">
                                <set attributeName="fill" to="#808080" begin="zoomplus.mouseover" end="zoomplus.mouseout"/>
                        </use>
                        <path d="M-4,0h8M0,-4v8" fill="none" stroke="white" stroke-width="1.5" pointer-events="none"/>
                </g>
                <g id="zoomMin">
                        <use xlink:href="#rim" fill="#404040">
                                <set attributeName="fill" to="#808080" begin="zoomminus.mouseover" end="zoomminus.mouseout"/>
                        </use>
                        <path d="M-4,0h8" fill="none" stroke="white" stroke-width="1.5" pointer-events="none"/>
                </g>
                <g id="dirArrow">
                        <path fill="none" stroke="white" stroke-width="1.5" d="M0,-3.0v7 M-2.5,-0.5L0,-3.0L2.5,-0.5"/>
                </g>
               <g id="resetDef">
                       <use xlink:href="#rim2" fill="#404040">
                               <set attributeName="fill" to="#808080" begin="reset.mouseover" end="reset.mouseout"/>
                       </use>
               </g>
        </defs>

<script type="text/javascript">
var viewWidth = 333;
var viewHeight = 678;
var sectionId = 'dynsection-1';
</script>
<script xlink:href="svgpan.js"/>
<svg id="graph" class="graph">
<g id="viewport">
<title>cie::geo::ContiguousSpaceTree&lt; TGeometry, TIndex, TParallelTag &gt;</title>
<polygon fill="white" stroke="transparent" points="-4,4 -4,-674 329,-674 329,4 -4,4"/>
<!-- Node1 -->
<g id="node1" class="node">
<title>Node1</title>
<g id="a_node1"><a xlink:title=" ">
<polygon fill="#bfbfbf" stroke="black" points="103,-0.5 103,-145.5 248,-145.5 248,-0.5 103,-0.5"/>
<text text-anchor="start" x="111" y="-133.5" font-family="Helvetica,sans-Serif" font-size="10.00">cie::geo::ContiguousSpace</text>
<text text-anchor="start" x="111" y="-122.5" font-family="Helvetica,sans-Serif" font-size="10.00">Tree&lt; TGeometry, TIndex,</text>
<text text-anchor="middle" x="175.5" y="-111.5" font-family="Helvetica,sans-Serif" font-size="10.00"> TParallelTag &gt;</text>
<polyline fill="none" stroke="black" points="103,-104.5 248,-104.5 "/>
<text text-anchor="middle" x="175.5" y="-92.5" font-family="Helvetica,sans-Serif" font-size="10.00"> </text>
<polyline fill="none" stroke="black" points="103,-85.5 248,-85.5 "/>
<text text-anchor="start" x="111" y="-73.5" font-family="Helvetica,sans-Serif" font-size="10.00">+ ContiguousSpaceTree()</text>
<text text-anchor="start" x="111" y="-62.5" font-family="Helvetica,sans-Serif" font-size="10.00">+ ContiguousSpaceTree()</text>
<text text-anchor="start" x="111" y="-51.5" font-family="Helvetica,sans-Serif" font-size="10.00">+ getNodeGeometry()</text>
<text text-anchor="start" x="111" y="-40.5" font-family="Helvetica,sans-Serif" font-size="10.00">+ getNodeGeometry()</text>
<text text-anchor="start" x="111" y="-29.5" font-family="Helvetica,sans-Serif" font-size="10.00">+ split()</text>
<text text-anchor="start" x="111" y="-18.5" font-family="Helvetica,sans-Serif" font-size="10.00">+ scan()</text>
<text text-anchor="start" x="111" y="-7.5" font-family="Helvetica,sans-Serif" font-size="10.00">+ getIndex()</text>
</a>
</g>
</g>
<!-- Node2 -->
<g id="node2" class="node">
<title>Node2</title>
<g id="a_node2"><a xlink:href="classcie_1_1geo_1_1TGeometry.html" target="_top" xlink:title=" ">
<polygon fill="white" stroke="black" points="0,-210 0,-267 71,-267 71,-210 0,-210"/>
<text text-anchor="middle" x="35.5" y="-255" font-family="Helvetica,sans-Serif" font-size="10.00">TGeometry</text>
<polyline fill="none" stroke="black" points="0,-248 71,-248 "/>
<text text-anchor="middle" x="35.5" y="-236" font-family="Helvetica,sans-Serif" font-size="10.00"> </text>
<polyline fill="none" stroke="black" points="0,-229 71,-229 "/>
<text text-anchor="middle" x="35.5" y="-217" font-family="Helvetica,sans-Serif" font-size="10.00"> </text>
</a>
</g>
</g>
<!-- Node2&#45;&gt;Node1 -->
<g id="edge1" class="edge">
<title>Node2&#45;&gt;Node1</title>
<path fill="none" stroke="midnightblue" d="M65.93,-201.97C80.09,-185.42 97.47,-165.12 114.19,-145.61"/>
<polygon fill="none" stroke="midnightblue" points="63.09,-199.89 59.25,-209.76 68.41,-204.45 63.09,-199.89"/>
</g>
<!-- Node3 -->
<g id="node3" class="node">
<title>Node3</title>
<g id="a_node3"><a xlink:title=" ">
<polygon fill="white" stroke="#bfbfbf" points="89.5,-193.5 89.5,-283.5 261.5,-283.5 261.5,-193.5 89.5,-193.5"/>
<text text-anchor="start" x="97.5" y="-271.5" font-family="Helvetica,sans-Serif" font-size="10.00">cie::utils::ContiguousTree</text>
<text text-anchor="start" x="97.5" y="-260.5" font-family="Helvetica,sans-Serif" font-size="10.00">&lt; detail::CSTNode&lt; TGeometry</text>
<text text-anchor="start" x="97.5" y="-249.5" font-family="Helvetica,sans-Serif" font-size="10.00">::Dimension, TIndex &gt;, TIndex,</text>
<text text-anchor="middle" x="175.5" y="-238.5" font-family="Helvetica,sans-Serif" font-size="10.00"> tags::Serial &gt;</text>
<polyline fill="none" stroke="#bfbfbf" points="89.5,-231.5 261.5,-231.5 "/>
<text text-anchor="middle" x="175.5" y="-219.5" font-family="Helvetica,sans-Serif" font-size="10.00"> </text>
<polyline fill="none" stroke="#bfbfbf" points="89.5,-212.5 261.5,-212.5 "/>
<text text-anchor="middle" x="175.5" y="-200.5" font-family="Helvetica,sans-Serif" font-size="10.00"> </text>
</a>
</g>
</g>
<!-- Node3&#45;&gt;Node1 -->
<g id="edge2" class="edge">
<title>Node3&#45;&gt;Node1</title>
<path fill="none" stroke="midnightblue" d="M175.5,-183C175.5,-171.05 175.5,-158.22 175.5,-145.7"/>
<polygon fill="none" stroke="midnightblue" points="172,-183.25 175.5,-193.25 179,-183.25 172,-183.25"/>
</g>
<!-- Node4 -->
<g id="node4" class="node">
<title>Node4</title>
<g id="a_node4"><a target="_parent" xlink:href="../../../cieutils/docs/html/classcie_1_1utils_1_1ContiguousTree.html" xlink:title=" ">
<polygon fill="white" stroke="black" points="105.5,-364.5 105.5,-564.5 245.5,-564.5 245.5,-364.5 105.5,-364.5"/>
<text text-anchor="start" x="113.5" y="-552.5" font-family="Helvetica,sans-Serif" font-size="10.00">cie::utils::ContiguousTree</text>
<text text-anchor="middle" x="175.5" y="-541.5" font-family="Helvetica,sans-Serif" font-size="10.00">&lt; TNode, TIndex, class &gt;</text>
<polyline fill="none" stroke="black" points="105.5,-534.5 245.5,-534.5 "/>
<text text-anchor="middle" x="175.5" y="-522.5" font-family="Helvetica,sans-Serif" font-size="10.00"> </text>
<polyline fill="none" stroke="black" points="105.5,-515.5 245.5,-515.5 "/>
<text text-anchor="start" x="113.5" y="-503.5" font-family="Helvetica,sans-Serif" font-size="10.00">+ ContiguousTree()</text>
<text text-anchor="start" x="113.5" y="-492.5" font-family="Helvetica,sans-Serif" font-size="10.00">+ erase()</text>
<text text-anchor="start" x="113.5" y="-481.5" font-family="Helvetica,sans-Serif" font-size="10.00">+ visit()</text>
<text text-anchor="start" x="113.5" y="-470.5" font-family="Helvetica,sans-Serif" font-size="10.00">+ visit()</text>
<text text-anchor="start" x="113.5" y="-459.5" font-family="Helvetica,sans-Serif" font-size="10.00">+ insert()</text>
<text text-anchor="start" x="113.5" y="-448.5" font-family="Helvetica,sans-Serif" font-size="10.00">+ clear()</text>
<text text-anchor="start" x="113.5" y="-437.5" font-family="Helvetica,sans-Serif" font-size="10.00">+ reset()</text>
<text text-anchor="start" x="113.5" y="-426.5" font-family="Helvetica,sans-Serif" font-size="10.00">+ size()</text>
<text text-anchor="start" x="113.5" y="-415.5" font-family="Helvetica,sans-Serif" font-size="10.00">+ empty()</text>
<text text-anchor="start" x="113.5" y="-404.5" font-family="Helvetica,sans-Serif" font-size="10.00">+ begin()</text>
<text text-anchor="start" x="113.5" y="-393.5" font-family="Helvetica,sans-Serif" font-size="10.00">+ begin()</text>
<text text-anchor="start" x="113.5" y="-382.5" font-family="Helvetica,sans-Serif" font-size="10.00">+ end()</text>
<text text-anchor="start" x="113.5" y="-371.5" font-family="Helvetica,sans-Serif" font-size="10.00">+ end()</text>
</a>
</g>
</g>
<!-- Node4&#45;&gt;Node3 -->
<g id="edge3" class="edge">
<title>Node4&#45;&gt;Node3</title>
<path fill="none" stroke="orange" d="M175.5,-353.99C175.5,-329.06 175.5,-303.97 175.5,-283.66"/>
<polygon fill="orange" stroke="orange" points="172,-354.27 175.5,-364.27 179,-354.27 172,-354.27"/>
<text text-anchor="start" x="175.5" y="-338" font-family="Helvetica,sans-Serif" font-size="10.00"> &lt; detail::CSTNode&lt;</text>
<text text-anchor="start" x="175.5" y="-327" font-family="Helvetica,sans-Serif" font-size="10.00"> TGeometry::Dimension,</text>
<text text-anchor="start" x="175.5" y="-316" font-family="Helvetica,sans-Serif" font-size="10.00"> TIndex &gt;, TIndex, tags</text>
<text text-anchor="middle" x="235" y="-305" font-family="Helvetica,sans-Serif" font-size="10.00">::Serial &gt;</text>
</g>
<!-- Node5 -->
<g id="node5" class="node">
<title>Node5</title>
<g id="a_node5"><a xlink:title=" ">
<polygon fill="white" stroke="#bfbfbf" points="131,-612.5 131,-669.5 220,-669.5 220,-612.5 131,-612.5"/>
<text text-anchor="middle" x="175.5" y="-657.5" font-family="Helvetica,sans-Serif" font-size="10.00">NodeContainer</text>
<polyline fill="none" stroke="#bfbfbf" points="131,-650.5 220,-650.5 "/>
<text text-anchor="middle" x="175.5" y="-638.5" font-family="Helvetica,sans-Serif" font-size="10.00"> </text>
<polyline fill="none" stroke="#bfbfbf" points="131,-631.5 220,-631.5 "/>
<text text-anchor="middle" x="175.5" y="-619.5" font-family="Helvetica,sans-Serif" font-size="10.00"> </text>
</a>
</g>
</g>
<!-- Node5&#45;&gt;Node4 -->
<g id="edge4" class="edge">
<title>Node5&#45;&gt;Node4</title>
<path fill="none" stroke="#404040" d="M175.5,-612.35C175.5,-602.2 175.5,-589.98 175.5,-576.98"/>
<polygon fill="none" stroke="#404040" points="175.5,-576.87 171.5,-570.87 175.5,-564.87 179.5,-570.87 175.5,-576.87"/>
<text text-anchor="middle" x="198.5" y="-586" font-family="Helvetica,sans-Serif" font-size="10.00"> #_nodes</text>
</g>
<!-- Node6 -->
<g id="node6" class="node">
<title>Node6</title>
<g id="a_node6"><a xlink:title=" ">
<polygon fill="white" stroke="#bfbfbf" points="280,-210 280,-267 325,-267 325,-210 280,-210"/>
<text text-anchor="middle" x="302.5" y="-255" font-family="Helvetica,sans-Serif" font-size="10.00">size_t</text>
<polyline fill="none" stroke="#bfbfbf" points="280,-248 325,-248 "/>
<text text-anchor="middle" x="302.5" y="-236" font-family="Helvetica,sans-Serif" font-size="10.00"> </text>
<polyline fill="none" stroke="#bfbfbf" points="280,-229 325,-229 "/>
<text text-anchor="middle" x="302.5" y="-217" font-family="Helvetica,sans-Serif" font-size="10.00"> </text>
</a>
</g>
</g>
<!-- Node6&#45;&gt;Node1 -->
<g id="edge5" class="edge">
<title>Node6&#45;&gt;Node1</title>
<path fill="none" stroke="#404040" d="M282.74,-209.57C278.74,-204.04 274.52,-198.31 270.5,-193 261.15,-180.66 251.1,-167.74 241.17,-155.15"/>
<polygon fill="none" stroke="#404040" points="241.06,-155 234.2,-152.78 233.61,-145.6 240.47,-147.82 241.06,-155"/>
<text text-anchor="middle" x="286.5" y="-167" font-family="Helvetica,sans-Serif" font-size="10.00"> +Dimension</text>
</g>
</g>
</svg>
        <g id="navigator" transform="translate(0 0)" fill="#404254">
                <rect fill="#f2f5e9" fill-opacity="0.5" stroke="#606060" stroke-width=".5" x="0" y="0" width="60" height="60"/>
                <use id="zoomplus" xlink:href="#zoomPlus" x="17" y="9" onmousedown="handleZoom(evt,'in')"/>
                <use id="zoomminus" xlink:href="#zoomMin" x="42" y="9" onmousedown="handleZoom(evt,'out')"/>
                <use id="reset" xlink:href="#resetDef" x="30" y="36" onmousedown="handleReset()"/>
                <g id="arrowUp" xlink:href="#dirArrow" transform="translate(30 24)" onmousedown="handlePan(0,-1)">
                  <use xlink:href="#rim" fill="#404040">
                        <set attributeName="fill" to="#808080" begin="arrowUp.mouseover" end="arrowUp.mouseout"/>
                  </use>
                  <path fill="none" stroke="white" stroke-width="1.5" d="M0,-3.0v7 M-2.5,-0.5L0,-3.0L2.5,-0.5"/>
                </g>
                <g id="arrowRight" xlink:href="#dirArrow" transform="rotate(90) translate(36 -43)" onmousedown="handlePan(1,0)">
                  <use xlink:href="#rim" fill="#404040">
                        <set attributeName="fill" to="#808080" begin="arrowRight.mouseover" end="arrowRight.mouseout"/>
                  </use>
                  <path fill="none" stroke="white" stroke-width="1.5" d="M0,-3.0v7 M-2.5,-0.5L0,-3.0L2.5,-0.5"/>
                </g>
                <g id="arrowDown" xlink:href="#dirArrow" transform="rotate(180) translate(-30 -48)" onmousedown="handlePan(0,1)">
                  <use xlink:href="#rim" fill="#404040">
                        <set attributeName="fill" to="#808080" begin="arrowDown.mouseover" end="arrowDown.mouseout"/>
                  </use>
                  <path fill="none" stroke="white" stroke-width="1.5" d="M0,-3.0v7 M-2.5,-0.5L0,-3.0L2.5,-0.5"/>
                </g>
                <g id="arrowLeft" xlink:href="#dirArrow" transform="rotate(270) translate(-36 17)" onmousedown="handlePan(-1,0)">
                  <use xlink:href="#rim" fill="#404040">
                        <set attributeName="fill" to="#808080" begin="arrowLeft.mouseover" end="arrowLeft.mouseout"/>
                  </use>
                  <path fill="none" stroke="white" stroke-width="1.5" d="M0,-3.0v7 M-2.5,-0.5L0,-3.0L2.5,-0.5"/>
                </g>
        </g>
        <svg viewBox="0 0 15 15" width="100%" height="30px" preserveAspectRatio="xMaxYMin meet">
         <g id="arrow_out" transform="scale(0.3 0.3)">
          <a xlink:href="classcie_1_1geo_1_1ContiguousSpaceTree__coll__graph_org.svg" target="_base">
           <rect id="button" ry="5" rx="5" y="6" x="6" height="38" width="38"
                fill="#f2f5e9" fill-opacity="0.5" stroke="#606060" stroke-width="1.0"/>
           <path id="arrow"
             d="M 11.500037,31.436501 C 11.940474,20.09759 22.043105,11.32322 32.158766,21.979434 L 37.068811,17.246167 C 37.068811,17.246167 37.088388,32 37.088388,32 L 22.160133,31.978069 C 22.160133,31.978069 26.997745,27.140456 26.997745,27.140456 C 18.528582,18.264221 13.291696,25.230495 11.500037,31.436501 z"
             style="fill:#404040;"/>
          </a>
         </g>
        </svg>
</svg>
