<?xml version="1.0" encoding="UTF-8" standalone="no"?>
<!DOCTYPE svg PUBLIC "-//W3C//DTD SVG 1.1//EN"
 "http://www.w3.org/Graphics/SVG/1.1/DTD/svg11.dtd">
<!-- Generated by graphviz version 2.43.0 (0)
 -->
<!-- Title: cie::geo::ObjectWrapper&lt; Dimension, ValueType, CoordinateType &gt; Pages: 1 -->
<svg width="306pt" height="790pt"
 viewBox="0.00 0.00 305.50 790.00" xmlns="http://www.w3.org/2000/svg" xmlns:xlink="http://www.w3.org/1999/xlink">
<g id="graph0" class="graph" transform="scale(1 1) rotate(0) translate(4 786)">
<title>cie::geo::ObjectWrapper&lt; Dimension, ValueType, CoordinateType &gt;</title>
<polygon fill="white" stroke="transparent" points="-4,4 -4,-786 301.5,-786 301.5,4 -4,4"/>
<!-- Node1 -->
<g id="node1" class="node">
<title>Node1</title>
<g id="a_node1"><a xlink:title=" ">
<polygon fill="#bfbfbf" stroke="black" points="90.5,-0.5 90.5,-123.5 229.5,-123.5 229.5,-0.5 90.5,-0.5"/>
<text text-anchor="start" x="98.5" y="-111.5" font-family="Helvetica,sans-Serif" font-size="10.00">cie::geo::ObjectWrapper</text>
<text text-anchor="start" x="98.5" y="-100.5" font-family="Helvetica,sans-Serif" font-size="10.00">&lt; Dimension, ValueType,</text>
<text text-anchor="middle" x="160" y="-89.5" font-family="Helvetica,sans-Serif" font-size="10.00"> CoordinateType &gt;</text>
<polyline fill="none" stroke="black" points="90.5,-82.5 229.5,-82.5 "/>
<text text-anchor="middle" x="160" y="-70.5" font-family="Helvetica,sans-Serif" font-size="10.00"> </text>
<polyline fill="none" stroke="black" points="90.5,-63.5 229.5,-63.5 "/>
<text text-anchor="start" x="98.5" y="-51.5" font-family="Helvetica,sans-Serif" font-size="10.00">+ ObjectWrapper()</text>
<text text-anchor="start" x="98.5" y="-40.5" font-family="Helvetica,sans-Serif" font-size="10.00">+ ObjectWrapper()</text>
<text text-anchor="start" x="98.5" y="-29.5" font-family="Helvetica,sans-Serif" font-size="10.00">+ ObjectWrapper()</text>
<text text-anchor="start" x="98.5" y="-18.5" font-family="Helvetica,sans-Serif" font-size="10.00">+ operator=()</text>
<text text-anchor="start" x="98.5" y="-7.5" font-family="Helvetica,sans-Serif" font-size="10.00">+ at()</text>
</a>
</g>
</g>
<!-- Node2 -->
<g id="node2" class="node">
<title>Node2</title>
<g id="a_node2"><a xlink:href="classcie_1_1geo_1_1Object.html" target="_top" xlink:title=" ">
<polygon fill="white" stroke="black" points="0,-171.5 0,-283.5 162,-283.5 162,-171.5 0,-171.5"/>
<text text-anchor="start" x="8" y="-271.5" font-family="Helvetica,sans-Serif" font-size="10.00">cie::geo::Object&lt; Dimension,</text>
<text text-anchor="middle" x="81" y="-260.5" font-family="Helvetica,sans-Serif" font-size="10.00"> ValueType, CoordinateType &gt;</text>
<polyline fill="none" stroke="black" points="0,-253.5 162,-253.5 "/>
<text text-anchor="middle" x="81" y="-241.5" font-family="Helvetica,sans-Serif" font-size="10.00"> </text>
<polyline fill="none" stroke="black" points="0,-234.5 162,-234.5 "/>
<text text-anchor="start" x="8" y="-222.5" font-family="Helvetica,sans-Serif" font-size="10.00">+ ~Object()</text>
<text text-anchor="start" x="8" y="-211.5" font-family="Helvetica,sans-Serif" font-size="10.00">+ evaluate()</text>
<text text-anchor="start" x="8" y="-200.5" font-family="Helvetica,sans-Serif" font-size="10.00">+ evaluate()</text>
<text text-anchor="start" x="8" y="-189.5" font-family="Helvetica,sans-Serif" font-size="10.00">+ evaluate()</text>
<text text-anchor="start" x="8" y="-178.5" font-family="Helvetica,sans-Serif" font-size="10.00">+ at()</text>
</a>
</g>
</g>
<!-- Node2&#45;&gt;Node1 -->
<g id="edge1" class="edge">
<title>Node2&#45;&gt;Node1</title>
<path fill="none" stroke="midnightblue" d="M112.14,-162.05C118.26,-149.39 124.65,-136.15 130.71,-123.63"/>
<polygon fill="none" stroke="midnightblue" points="108.95,-160.62 107.75,-171.15 115.25,-163.67 108.95,-160.62"/>
</g>
<!-- Node3 -->
<g id="node3" class="node">
<title>Node3</title>
<g id="a_node3"><a xlink:href="classcie_1_1geo_1_1Traits.html" target="_top" xlink:title=" ">
<polygon fill="white" stroke="black" points="22.5,-492.5 22.5,-560.5 131.5,-560.5 131.5,-492.5 22.5,-492.5"/>
<text text-anchor="start" x="30.5" y="-548.5" font-family="Helvetica,sans-Serif" font-size="10.00">cie::geo::Traits&lt; N,</text>
<text text-anchor="middle" x="77" y="-537.5" font-family="Helvetica,sans-Serif" font-size="10.00"> TCoordinate &gt;</text>
<polyline fill="none" stroke="black" points="22.5,-530.5 131.5,-530.5 "/>
<text text-anchor="start" x="30.5" y="-518.5" font-family="Helvetica,sans-Serif" font-size="10.00">+ Dimension</text>
<polyline fill="none" stroke="black" points="22.5,-511.5 131.5,-511.5 "/>
<text text-anchor="middle" x="77" y="-499.5" font-family="Helvetica,sans-Serif" font-size="10.00"> </text>
</a>
</g>
</g>
<!-- Node3&#45;&gt;Node2 -->
<g id="edge2" class="edge">
<title>Node3&#45;&gt;Node2</title>
<path fill="none" stroke="midnightblue" d="M77.58,-482.29C78.29,-429.77 79.48,-341.06 80.26,-283.65"/>
<polygon fill="none" stroke="midnightblue" points="74.08,-482.25 77.45,-492.29 81.08,-482.34 74.08,-482.25"/>
</g>
<!-- Node6 -->
<g id="node6" class="node">
<title>Node6</title>
<g id="a_node6"><a xlink:href="classcie_1_1geo_1_1Object.html" target="_top" xlink:title="Interface for point&#45;queriable objects.">
<polygon fill="white" stroke="black" points="93,-342.5 93,-454.5 221,-454.5 221,-342.5 93,-342.5"/>
<text text-anchor="start" x="101" y="-442.5" font-family="Helvetica,sans-Serif" font-size="10.00">cie::geo::Object&lt; N,</text>
<text text-anchor="middle" x="157" y="-431.5" font-family="Helvetica,sans-Serif" font-size="10.00"> TValue, TCoordinate &gt;</text>
<polyline fill="none" stroke="black" points="93,-424.5 221,-424.5 "/>
<text text-anchor="middle" x="157" y="-412.5" font-family="Helvetica,sans-Serif" font-size="10.00"> </text>
<polyline fill="none" stroke="black" points="93,-405.5 221,-405.5 "/>
<text text-anchor="start" x="101" y="-393.5" font-family="Helvetica,sans-Serif" font-size="10.00">+ ~Object()</text>
<text text-anchor="start" x="101" y="-382.5" font-family="Helvetica,sans-Serif" font-size="10.00">+ evaluate()</text>
<text text-anchor="start" x="101" y="-371.5" font-family="Helvetica,sans-Serif" font-size="10.00">+ evaluate()</text>
<text text-anchor="start" x="101" y="-360.5" font-family="Helvetica,sans-Serif" font-size="10.00">+ evaluate()</text>
<text text-anchor="start" x="101" y="-349.5" font-family="Helvetica,sans-Serif" font-size="10.00">+ at()</text>
</a>
</g>
</g>
<!-- Node3&#45;&gt;Node6 -->
<g id="edge6" class="edge">
<title>Node3&#45;&gt;Node6</title>
<path fill="none" stroke="midnightblue" d="M103.51,-483.75C109.39,-474.48 115.72,-464.51 121.89,-454.79"/>
<polygon fill="none" stroke="midnightblue" points="100.42,-482.08 98.02,-492.39 106.33,-485.83 100.42,-482.08"/>
</g>
<!-- Node4 -->
<g id="node4" class="node">
<title>Node4</title>
<g id="a_node4"><a xlink:href="classcie_1_1geo_1_1Traits.html" target="_top" xlink:title="Basic templated traits that every object has in GEO.">
<polygon fill="white" stroke="black" points="16,-608.5 16,-676.5 138,-676.5 138,-608.5 16,-608.5"/>
<text text-anchor="start" x="24" y="-664.5" font-family="Helvetica,sans-Serif" font-size="10.00">cie::geo::Traits&lt; Dim,</text>
<text text-anchor="middle" x="77" y="-653.5" font-family="Helvetica,sans-Serif" font-size="10.00"> TCoordinate &gt;</text>
<polyline fill="none" stroke="black" points="16,-646.5 138,-646.5 "/>
<text text-anchor="middle" x="77" y="-634.5" font-family="Helvetica,sans-Serif" font-size="10.00"> </text>
<polyline fill="none" stroke="black" points="16,-627.5 138,-627.5 "/>
<text text-anchor="middle" x="77" y="-615.5" font-family="Helvetica,sans-Serif" font-size="10.00"> </text>
</a>
</g>
</g>
<!-- Node4&#45;&gt;Node3 -->
<g id="edge3" class="edge">
<title>Node4&#45;&gt;Node3</title>
<path fill="none" stroke="orange" d="M77,-598.06C77,-585.64 77,-572.32 77,-560.62"/>
<polygon fill="orange" stroke="orange" points="73.5,-598.22 77,-608.22 80.5,-598.22 73.5,-598.22"/>
<text text-anchor="middle" x="126" y="-582" font-family="Helvetica,sans-Serif" font-size="10.00"> &lt; N, TCoordinate &gt;</text>
</g>
<!-- Node5 -->
<g id="node5" class="node">
<title>Node5</title>
<g id="a_node5"><a xlink:title=" ">
<polygon fill="white" stroke="#bfbfbf" points="54.5,-724.5 54.5,-781.5 99.5,-781.5 99.5,-724.5 54.5,-724.5"/>
<text text-anchor="middle" x="77" y="-769.5" font-family="Helvetica,sans-Serif" font-size="10.00">size_t</text>
<polyline fill="none" stroke="#bfbfbf" points="54.5,-762.5 99.5,-762.5 "/>
<text text-anchor="middle" x="77" y="-750.5" font-family="Helvetica,sans-Serif" font-size="10.00"> </text>
<polyline fill="none" stroke="#bfbfbf" points="54.5,-743.5 99.5,-743.5 "/>
<text text-anchor="middle" x="77" y="-731.5" font-family="Helvetica,sans-Serif" font-size="10.00"> </text>
</a>
</g>
</g>
<!-- Node5&#45;&gt;Node4 -->
<g id="edge4" class="edge">
<title>Node5&#45;&gt;Node4</title>
<path fill="none" stroke="#404040" d="M77,-724.34C77,-713.53 77,-700.85 77,-688.77"/>
<polygon fill="none" stroke="#404040" points="77,-688.52 73,-682.52 77,-676.52 81,-682.52 77,-688.52"/>
<text text-anchor="middle" x="109" y="-698" font-family="Helvetica,sans-Serif" font-size="10.00"> +Dimension</text>
</g>
<!-- Node6&#45;&gt;Node2 -->
<g id="edge5" class="edge">
<title>Node6&#45;&gt;Node2</title>
<path fill="none" stroke="orange" d="M127.89,-332.77C120.61,-316.57 112.86,-299.35 105.81,-283.67"/>
<polygon fill="orange" stroke="orange" points="124.82,-334.48 132.11,-342.16 131.21,-331.61 124.82,-334.48"/>
<text text-anchor="start" x="124" y="-316" font-family="Helvetica,sans-Serif" font-size="10.00"> &lt; Dimension, ValueType,</text>
<text text-anchor="middle" x="187" y="-305" font-family="Helvetica,sans-Serif" font-size="10.00"> CoordinateType &gt;</text>
</g>
<!-- Node7 -->
<g id="node7" class="node">
<title>Node7</title>
<g id="a_node7"><a xlink:title=" ">
<polygon fill="white" stroke="#bfbfbf" points="180.5,-193.5 180.5,-261.5 297.5,-261.5 297.5,-193.5 180.5,-193.5"/>
<text text-anchor="start" x="188.5" y="-249.5" font-family="Helvetica,sans-Serif" font-size="10.00">function&lt; ValueType</text>
<text text-anchor="middle" x="239" y="-238.5" font-family="Helvetica,sans-Serif" font-size="10.00">(const Point &amp;)&gt;</text>
<polyline fill="none" stroke="#bfbfbf" points="180.5,-231.5 297.5,-231.5 "/>
<text text-anchor="middle" x="239" y="-219.5" font-family="Helvetica,sans-Serif" font-size="10.00"> </text>
<polyline fill="none" stroke="#bfbfbf" points="180.5,-212.5 297.5,-212.5 "/>
<text text-anchor="middle" x="239" y="-200.5" font-family="Helvetica,sans-Serif" font-size="10.00"> </text>
</a>
</g>
</g>
<!-- Node7&#45;&gt;Node1 -->
<g id="edge7" class="edge">
<title>Node7&#45;&gt;Node1</title>
<path fill="none" stroke="#404040" d="M223.01,-193.41C214.83,-176.49 204.54,-155.18 194.66,-134.73"/>
<polygon fill="none" stroke="#404040" points="194.61,-134.62 188.39,-130.96 189.39,-123.82 195.6,-127.48 194.61,-134.62"/>
<text text-anchor="middle" x="228" y="-145" font-family="Helvetica,sans-Serif" font-size="10.00"> #_functor</text>
</g>
</g>
</svg>
