<?xml version="1.0" encoding="UTF-8" standalone="no"?>
<!DOCTYPE svg PUBLIC "-//W3C//DTD SVG 1.1//EN"
 "http://www.w3.org/Graphics/SVG/1.1/DTD/svg11.dtd">
<!-- Generated by graphviz version 2.43.0 (0)
 -->
<!-- Title: cie::geo::SpaceTreeNode&lt; TCell, TValue &gt; Pages: 1 -->
<svg width="220pt" height="457pt"
 viewBox="0.00 0.00 219.50 457.00" xmlns="http://www.w3.org/2000/svg" xmlns:xlink="http://www.w3.org/1999/xlink">
<g id="graph0" class="graph" transform="scale(1 1) rotate(0) translate(4 453)">
<title>cie::geo::SpaceTreeNode&lt; TCell, TValue &gt;</title>
<polygon fill="white" stroke="transparent" points="-4,4 -4,-453 215.5,-453 215.5,4 -4,4"/>
<!-- Node1 -->
<g id="node1" class="node">
<title>Node1</title>
<g id="a_node1"><a xlink:title=" ">
<polygon fill="#bfbfbf" stroke="black" points="65,-0.5 65,-200.5 201,-200.5 201,-0.5 65,-0.5"/>
<text text-anchor="start" x="73" y="-188.5" font-family="Helvetica,sans-Serif" font-size="10.00">cie::geo::SpaceTreeNode</text>
<text text-anchor="middle" x="133" y="-177.5" font-family="Helvetica,sans-Serif" font-size="10.00">&lt; TCell, TValue &gt;</text>
<polyline fill="none" stroke="black" points="65,-170.5 201,-170.5 "/>
<text text-anchor="start" x="73" y="-158.5" font-family="Helvetica,sans-Serif" font-size="10.00"># _p_splitPolicy</text>
<polyline fill="none" stroke="black" points="65,-151.5 201,-151.5 "/>
<text text-anchor="start" x="73" y="-139.5" font-family="Helvetica,sans-Serif" font-size="10.00">+ SpaceTreeNode()</text>
<text text-anchor="start" x="73" y="-128.5" font-family="Helvetica,sans-Serif" font-size="10.00">+ SpaceTreeNode()</text>
<text text-anchor="start" x="73" y="-117.5" font-family="Helvetica,sans-Serif" font-size="10.00">+ SpaceTreeNode()</text>
<text text-anchor="start" x="73" y="-106.5" font-family="Helvetica,sans-Serif" font-size="10.00">+ SpaceTreeNode()</text>
<text text-anchor="start" x="73" y="-95.5" font-family="Helvetica,sans-Serif" font-size="10.00">+ operator=()</text>
<text text-anchor="start" x="73" y="-84.5" font-family="Helvetica,sans-Serif" font-size="10.00">+ operator=()</text>
<text text-anchor="start" x="73" y="-73.5" font-family="Helvetica,sans-Serif" font-size="10.00">+ divide()</text>
<text text-anchor="start" x="73" y="-62.5" font-family="Helvetica,sans-Serif" font-size="10.00">+ divide()</text>
<text text-anchor="start" x="73" y="-51.5" font-family="Helvetica,sans-Serif" font-size="10.00">+ scan()</text>
<text text-anchor="start" x="73" y="-40.5" font-family="Helvetica,sans-Serif" font-size="10.00">+ scan()</text>
<text text-anchor="start" x="73" y="-29.5" font-family="Helvetica,sans-Serif" font-size="10.00">and 9 more...</text>
<text text-anchor="start" x="73" y="-18.5" font-family="Helvetica,sans-Serif" font-size="10.00"># divideImpl()</text>
<text text-anchor="start" x="73" y="-7.5" font-family="Helvetica,sans-Serif" font-size="10.00"># scanImpl()</text>
</a>
</g>
</g>
<!-- Node2 -->
<g id="node2" class="node">
<title>Node2</title>
<g id="a_node2"><a target="_parent" xlink:href="../../../cieutils/docs/html/classcie_1_1utils_1_1AbsTree.html" xlink:title=" ">
<polygon fill="white" stroke="black" points="0,-237.5 0,-448.5 152,-448.5 152,-237.5 0,-237.5"/>
<text text-anchor="start" x="8" y="-436.5" font-family="Helvetica,sans-Serif" font-size="10.00">detail::SpaceTreeNodeTraits</text>
<text text-anchor="start" x="8" y="-425.5" font-family="Helvetica,sans-Serif" font-size="10.00">&lt; SpaceTreeNode&lt; TCell,</text>
<text text-anchor="start" x="8" y="-414.5" font-family="Helvetica,sans-Serif" font-size="10.00"> TValue &gt;, TCell, TValue</text>
<text text-anchor="middle" x="76" y="-403.5" font-family="Helvetica,sans-Serif" font-size="10.00"> &gt;::Tree</text>
<polyline fill="none" stroke="black" points="0,-396.5 152,-396.5 "/>
<text text-anchor="start" x="8" y="-384.5" font-family="Helvetica,sans-Serif" font-size="10.00"># _children</text>
<text text-anchor="start" x="8" y="-373.5" font-family="Helvetica,sans-Serif" font-size="10.00"># _level</text>
<polyline fill="none" stroke="black" points="0,-366.5 152,-366.5 "/>
<text text-anchor="start" x="8" y="-354.5" font-family="Helvetica,sans-Serif" font-size="10.00">+ AbsTree()</text>
<text text-anchor="start" x="8" y="-343.5" font-family="Helvetica,sans-Serif" font-size="10.00">+ AbsTree()</text>
<text text-anchor="start" x="8" y="-332.5" font-family="Helvetica,sans-Serif" font-size="10.00">+ AbsTree()</text>
<text text-anchor="start" x="8" y="-321.5" font-family="Helvetica,sans-Serif" font-size="10.00">+ AbsTree()</text>
<text text-anchor="start" x="8" y="-310.5" font-family="Helvetica,sans-Serif" font-size="10.00">+ operator=()</text>
<text text-anchor="start" x="8" y="-299.5" font-family="Helvetica,sans-Serif" font-size="10.00">+ operator=()</text>
<text text-anchor="start" x="8" y="-288.5" font-family="Helvetica,sans-Serif" font-size="10.00">+ ~AbsTree()</text>
<text text-anchor="start" x="8" y="-277.5" font-family="Helvetica,sans-Serif" font-size="10.00">+ visit()</text>
<text text-anchor="start" x="8" y="-266.5" font-family="Helvetica,sans-Serif" font-size="10.00">+ visit()</text>
<text text-anchor="start" x="8" y="-255.5" font-family="Helvetica,sans-Serif" font-size="10.00">+ visit()</text>
<text text-anchor="start" x="8" y="-244.5" font-family="Helvetica,sans-Serif" font-size="10.00">and 9 more...</text>
</a>
</g>
</g>
<!-- Node2&#45;&gt;Node1 -->
<g id="edge1" class="edge">
<title>Node2&#45;&gt;Node1</title>
<path fill="none" stroke="midnightblue" d="M103.21,-227.21C105.31,-218.32 107.43,-209.39 109.51,-200.62"/>
<polygon fill="none" stroke="midnightblue" points="99.74,-226.68 100.84,-237.21 106.55,-228.29 99.74,-226.68"/>
</g>
<!-- Node3 -->
<g id="node3" class="node">
<title>Node3</title>
<g id="a_node3"><a xlink:href="classTCell.html" target="_top" xlink:title=" ">
<polygon fill="white" stroke="black" points="170.5,-314.5 170.5,-371.5 211.5,-371.5 211.5,-314.5 170.5,-314.5"/>
<text text-anchor="middle" x="191" y="-359.5" font-family="Helvetica,sans-Serif" font-size="10.00">TCell</text>
<polyline fill="none" stroke="black" points="170.5,-352.5 211.5,-352.5 "/>
<text text-anchor="middle" x="191" y="-340.5" font-family="Helvetica,sans-Serif" font-size="10.00"> </text>
<polyline fill="none" stroke="black" points="170.5,-333.5 211.5,-333.5 "/>
<text text-anchor="middle" x="191" y="-321.5" font-family="Helvetica,sans-Serif" font-size="10.00"> </text>
</a>
</g>
</g>
<!-- Node3&#45;&gt;Node1 -->
<g id="edge2" class="edge">
<title>Node3&#45;&gt;Node1</title>
<path fill="none" stroke="midnightblue" d="M181.92,-304.34C175.21,-276.52 165.75,-237.3 156.94,-200.76"/>
<polygon fill="none" stroke="midnightblue" points="178.6,-305.51 184.35,-314.41 185.4,-303.87 178.6,-305.51"/>
</g>
</g>
</svg>
