<?xml version="1.0" encoding="UTF-8" standalone="no"?>
<!DOCTYPE svg PUBLIC "-//W3C//DTD SVG 1.1//EN"
 "http://www.w3.org/Graphics/SVG/1.1/DTD/svg11.dtd">
<!-- Generated by graphviz version 2.43.0 (0)
 -->
<!-- Title: cie::geo::BinaryOperator&lt; Dimension, ValueType, CoordinateType &gt; Pages: 1 -->
<!--zoomable 1460 -->
<svg id="main" version="1.1" xmlns="http://www.w3.org/2000/svg" xmlns:xlink="http://www.w3.org/1999/xlink" xml:space="preserve" onload="init(evt)">
<style type="text/css"><![CDATA[
.edge:hover path { stroke: red; }
.edge:hover polygon { stroke: red; fill: red; }
]]></style>
<script type="text/javascript"><![CDATA[
var edges = document.getElementsByTagName('g');
if (edges && edges.length) {
  for (var i=0;i<edges.length;i++) {
    if (edges[i].id.substr(0,4)=='edge') {
      edges[i].setAttribute('class','edge');
    }
  }
}
]]></script>
        <defs>
                <circle id="rim" cx="0" cy="0" r="7"/>
                <circle id="rim2" cx="0" cy="0" r="3.5"/>
                <g id="zoomPlus">
                        <use xlink:href="#rim" fill="#404040">
                                <set attributeName="fill" to="#808080" begin="zoomplus.mouseover" end="zoomplus.mouseout"/>
                        </use>
                        <path d="M-4,0h8M0,-4v8" fill="none" stroke="white" stroke-width="1.5" pointer-events="none"/>
                </g>
                <g id="zoomMin">
                        <use xlink:href="#rim" fill="#404040">
                                <set attributeName="fill" to="#808080" begin="zoomminus.mouseover" end="zoomminus.mouseout"/>
                        </use>
                        <path d="M-4,0h8" fill="none" stroke="white" stroke-width="1.5" pointer-events="none"/>
                </g>
                <g id="dirArrow">
                        <path fill="none" stroke="white" stroke-width="1.5" d="M0,-3.0v7 M-2.5,-0.5L0,-3.0L2.5,-0.5"/>
                </g>
               <g id="resetDef">
                       <use xlink:href="#rim2" fill="#404040">
                               <set attributeName="fill" to="#808080" begin="reset.mouseover" end="reset.mouseout"/>
                       </use>
               </g>
        </defs>

<script type="text/javascript">
var viewWidth = 547;
var viewHeight = 1460;
var sectionId = 'dynsection-0';
</script>
<script xlink:href="svgpan.js"/>
<svg id="graph" class="graph">
<g id="viewport">
<title>cie::geo::BinaryOperator&lt; Dimension, ValueType, CoordinateType &gt;</title>
<polygon fill="white" stroke="transparent" points="-4,4 -4,-1456 542.5,-1456 542.5,4 -4,4"/>
<!-- Node1 -->
<g id="node1" class="node">
<title>Node1</title>
<g id="a_node1"><a xlink:title=" ">
<polygon fill="#bfbfbf" stroke="black" points="208,-354.5 208,-510.5 347,-510.5 347,-354.5 208,-354.5"/>
<text text-anchor="start" x="216" y="-498.5" font-family="Helvetica,sans-Serif" font-size="10.00">cie::geo::BinaryOperator</text>
<text text-anchor="start" x="216" y="-487.5" font-family="Helvetica,sans-Serif" font-size="10.00">&lt; Dimension, ValueType,</text>
<text text-anchor="middle" x="277.5" y="-476.5" font-family="Helvetica,sans-Serif" font-size="10.00"> CoordinateType &gt;</text>
<polyline fill="none" stroke="black" points="208,-469.5 347,-469.5 "/>
<text text-anchor="start" x="216" y="-457.5" font-family="Helvetica,sans-Serif" font-size="10.00">+ lhs</text>
<text text-anchor="start" x="216" y="-446.5" font-family="Helvetica,sans-Serif" font-size="10.00"># _p_lhs</text>
<polyline fill="none" stroke="black" points="208,-439.5 347,-439.5 "/>
<text text-anchor="start" x="216" y="-427.5" font-family="Helvetica,sans-Serif" font-size="10.00">+ BinaryOperator()</text>
<text text-anchor="start" x="216" y="-416.5" font-family="Helvetica,sans-Serif" font-size="10.00">+ BinaryOperator()</text>
<text text-anchor="start" x="216" y="-405.5" font-family="Helvetica,sans-Serif" font-size="10.00">+ BinaryOperator()</text>
<text text-anchor="start" x="216" y="-394.5" font-family="Helvetica,sans-Serif" font-size="10.00">+ operator=()</text>
<text text-anchor="start" x="216" y="-383.5" font-family="Helvetica,sans-Serif" font-size="10.00">+ bindLhs()</text>
<text text-anchor="start" x="216" y="-372.5" font-family="Helvetica,sans-Serif" font-size="10.00">+ lhs()</text>
<text text-anchor="start" x="216" y="-361.5" font-family="Helvetica,sans-Serif" font-size="10.00">+ at()</text>
</a>
</g>
</g>
<!-- Node9 -->
<g id="node9" class="node">
<title>Node9</title>
<g id="a_node9"><a xlink:href="classcie_1_1geo_1_1BinaryOperator.html" target="_top" xlink:title=" ">
<polygon fill="white" stroke="black" points="177,-150.5 177,-295.5 378,-295.5 378,-150.5 177,-150.5"/>
<text text-anchor="start" x="185" y="-283.5" font-family="Helvetica,sans-Serif" font-size="10.00">cie::geo::BinaryOperator</text>
<text text-anchor="middle" x="277.5" y="-272.5" font-family="Helvetica,sans-Serif" font-size="10.00">&lt; Dimension, Bool, CoordinateType &gt;</text>
<polyline fill="none" stroke="black" points="177,-265.5 378,-265.5 "/>
<text text-anchor="start" x="185" y="-253.5" font-family="Helvetica,sans-Serif" font-size="10.00">+ lhs</text>
<text text-anchor="start" x="185" y="-242.5" font-family="Helvetica,sans-Serif" font-size="10.00"># _p_lhs</text>
<polyline fill="none" stroke="black" points="177,-235.5 378,-235.5 "/>
<text text-anchor="start" x="185" y="-223.5" font-family="Helvetica,sans-Serif" font-size="10.00">+ lhs()</text>
<text text-anchor="start" x="185" y="-212.5" font-family="Helvetica,sans-Serif" font-size="10.00">+ BinaryOperator()</text>
<text text-anchor="start" x="185" y="-201.5" font-family="Helvetica,sans-Serif" font-size="10.00">+ BinaryOperator()</text>
<text text-anchor="start" x="185" y="-190.5" font-family="Helvetica,sans-Serif" font-size="10.00">+ BinaryOperator()</text>
<text text-anchor="start" x="185" y="-179.5" font-family="Helvetica,sans-Serif" font-size="10.00">+ operator=()</text>
<text text-anchor="start" x="185" y="-168.5" font-family="Helvetica,sans-Serif" font-size="10.00">+ bindLhs()</text>
<text text-anchor="start" x="185" y="-157.5" font-family="Helvetica,sans-Serif" font-size="10.00">+ at()</text>
</a>
</g>
</g>
<!-- Node1&#45;&gt;Node9 -->
<g id="edge11" class="edge">
<title>Node1&#45;&gt;Node9</title>
<path fill="none" stroke="orange" d="M277.5,-343.82C277.5,-327.82 277.5,-311.3 277.5,-295.84"/>
<polygon fill="orange" stroke="orange" points="274,-344.23 277.5,-354.23 281,-344.23 274,-344.23"/>
<text text-anchor="start" x="277.5" y="-328" font-family="Helvetica,sans-Serif" font-size="10.00"> &lt; Dimension, Bool,</text>
<text text-anchor="middle" x="326.5" y="-317" font-family="Helvetica,sans-Serif" font-size="10.00"> CoordinateType &gt;</text>
</g>
<!-- Node2 -->
<g id="node2" class="node">
<title>Node2</title>
<g id="a_node2"><a xlink:href="classcie_1_1geo_1_1UnaryOperator.html" target="_top" xlink:title=" ">
<polygon fill="white" stroke="black" points="197.5,-548.5 197.5,-693.5 357.5,-693.5 357.5,-548.5 197.5,-548.5"/>
<text text-anchor="start" x="205.5" y="-681.5" font-family="Helvetica,sans-Serif" font-size="10.00">cie::geo::UnaryOperator</text>
<text text-anchor="middle" x="277.5" y="-670.5" font-family="Helvetica,sans-Serif" font-size="10.00">&lt; Dimension, Bool, Double &gt;</text>
<polyline fill="none" stroke="black" points="197.5,-663.5 357.5,-663.5 "/>
<text text-anchor="start" x="205.5" y="-651.5" font-family="Helvetica,sans-Serif" font-size="10.00">+ rhs</text>
<text text-anchor="start" x="205.5" y="-640.5" font-family="Helvetica,sans-Serif" font-size="10.00"># _p_rhs</text>
<polyline fill="none" stroke="black" points="197.5,-633.5 357.5,-633.5 "/>
<text text-anchor="start" x="205.5" y="-621.5" font-family="Helvetica,sans-Serif" font-size="10.00">+ rhs()</text>
<text text-anchor="start" x="205.5" y="-610.5" font-family="Helvetica,sans-Serif" font-size="10.00">+ UnaryOperator()</text>
<text text-anchor="start" x="205.5" y="-599.5" font-family="Helvetica,sans-Serif" font-size="10.00">+ UnaryOperator()</text>
<text text-anchor="start" x="205.5" y="-588.5" font-family="Helvetica,sans-Serif" font-size="10.00">+ UnaryOperator()</text>
<text text-anchor="start" x="205.5" y="-577.5" font-family="Helvetica,sans-Serif" font-size="10.00">+ operator=()</text>
<text text-anchor="start" x="205.5" y="-566.5" font-family="Helvetica,sans-Serif" font-size="10.00">+ bindRhs()</text>
<text text-anchor="start" x="205.5" y="-555.5" font-family="Helvetica,sans-Serif" font-size="10.00">+ at()</text>
</a>
</g>
</g>
<!-- Node2&#45;&gt;Node1 -->
<g id="edge1" class="edge">
<title>Node2&#45;&gt;Node1</title>
<path fill="none" stroke="midnightblue" d="M277.5,-538.21C277.5,-529.1 277.5,-519.83 277.5,-510.77"/>
<polygon fill="none" stroke="midnightblue" points="274,-538.43 277.5,-548.43 281,-538.43 274,-538.43"/>
</g>
<!-- Node3 -->
<g id="node3" class="node">
<title>Node3</title>
<g id="a_node3"><a xlink:href="classcie_1_1geo_1_1Object.html" target="_top" xlink:title=" ">
<polygon fill="white" stroke="black" points="140.5,-946.5 140.5,-1058.5 302.5,-1058.5 302.5,-946.5 140.5,-946.5"/>
<text text-anchor="start" x="148.5" y="-1046.5" font-family="Helvetica,sans-Serif" font-size="10.00">cie::geo::Object&lt; Dimension,</text>
<text text-anchor="middle" x="221.5" y="-1035.5" font-family="Helvetica,sans-Serif" font-size="10.00"> ValueType, CoordinateType &gt;</text>
<polyline fill="none" stroke="black" points="140.5,-1028.5 302.5,-1028.5 "/>
<text text-anchor="middle" x="221.5" y="-1016.5" font-family="Helvetica,sans-Serif" font-size="10.00"> </text>
<polyline fill="none" stroke="black" points="140.5,-1009.5 302.5,-1009.5 "/>
<text text-anchor="start" x="148.5" y="-997.5" font-family="Helvetica,sans-Serif" font-size="10.00">+ ~Object()</text>
<text text-anchor="start" x="148.5" y="-986.5" font-family="Helvetica,sans-Serif" font-size="10.00">+ evaluate()</text>
<text text-anchor="start" x="148.5" y="-975.5" font-family="Helvetica,sans-Serif" font-size="10.00">+ evaluate()</text>
<text text-anchor="start" x="148.5" y="-964.5" font-family="Helvetica,sans-Serif" font-size="10.00">+ evaluate()</text>
<text text-anchor="start" x="148.5" y="-953.5" font-family="Helvetica,sans-Serif" font-size="10.00">+ at()</text>
</a>
</g>
</g>
<!-- Node3&#45;&gt;Node2 -->
<g id="edge2" class="edge">
<title>Node3&#45;&gt;Node2</title>
<path fill="none" stroke="midnightblue" d="M231.13,-936.23C241.09,-868.72 256.61,-763.6 266.91,-693.79"/>
<polygon fill="none" stroke="midnightblue" points="227.64,-935.91 229.64,-946.32 234.57,-936.94 227.64,-935.91"/>
</g>
<!-- Node4 -->
<g id="node4" class="node">
<title>Node4</title>
<g id="a_node4"><a xlink:href="classcie_1_1geo_1_1Traits.html" target="_top" xlink:title=" ">
<polygon fill="white" stroke="black" points="286,-1267.5 286,-1335.5 395,-1335.5 395,-1267.5 286,-1267.5"/>
<text text-anchor="start" x="294" y="-1323.5" font-family="Helvetica,sans-Serif" font-size="10.00">cie::geo::Traits&lt; N,</text>
<text text-anchor="middle" x="340.5" y="-1312.5" font-family="Helvetica,sans-Serif" font-size="10.00"> TCoordinate &gt;</text>
<polyline fill="none" stroke="black" points="286,-1305.5 395,-1305.5 "/>
<text text-anchor="start" x="294" y="-1293.5" font-family="Helvetica,sans-Serif" font-size="10.00">+ Dimension</text>
<polyline fill="none" stroke="black" points="286,-1286.5 395,-1286.5 "/>
<text text-anchor="middle" x="340.5" y="-1274.5" font-family="Helvetica,sans-Serif" font-size="10.00"> </text>
</a>
</g>
</g>
<!-- Node4&#45;&gt;Node3 -->
<g id="edge3" class="edge">
<title>Node4&#45;&gt;Node3</title>
<path fill="none" stroke="midnightblue" d="M291.94,-1260.18C282.91,-1250.97 274.22,-1240.72 267.5,-1230 234.95,-1178.08 235.13,-1159.35 224.5,-1099 222.21,-1086.01 221.06,-1071.88 220.55,-1058.57"/>
<polygon fill="none" stroke="midnightblue" points="289.64,-1262.82 299.23,-1267.32 294.54,-1257.82 289.64,-1262.82"/>
</g>
<!-- Node6 -->
<g id="node6" class="node">
<title>Node6</title>
<g id="a_node6"><a xlink:href="classcie_1_1geo_1_1Object.html" target="_top" xlink:title="Interface for point&#45;queriable objects.">
<polygon fill="white" stroke="black" points="276.5,-1117.5 276.5,-1229.5 404.5,-1229.5 404.5,-1117.5 276.5,-1117.5"/>
<text text-anchor="start" x="284.5" y="-1217.5" font-family="Helvetica,sans-Serif" font-size="10.00">cie::geo::Object&lt; N,</text>
<text text-anchor="middle" x="340.5" y="-1206.5" font-family="Helvetica,sans-Serif" font-size="10.00"> TValue, TCoordinate &gt;</text>
<polyline fill="none" stroke="black" points="276.5,-1199.5 404.5,-1199.5 "/>
<text text-anchor="middle" x="340.5" y="-1187.5" font-family="Helvetica,sans-Serif" font-size="10.00"> </text>
<polyline fill="none" stroke="black" points="276.5,-1180.5 404.5,-1180.5 "/>
<text text-anchor="start" x="284.5" y="-1168.5" font-family="Helvetica,sans-Serif" font-size="10.00">+ ~Object()</text>
<text text-anchor="start" x="284.5" y="-1157.5" font-family="Helvetica,sans-Serif" font-size="10.00">+ evaluate()</text>
<text text-anchor="start" x="284.5" y="-1146.5" font-family="Helvetica,sans-Serif" font-size="10.00">+ evaluate()</text>
<text text-anchor="start" x="284.5" y="-1135.5" font-family="Helvetica,sans-Serif" font-size="10.00">+ evaluate()</text>
<text text-anchor="start" x="284.5" y="-1124.5" font-family="Helvetica,sans-Serif" font-size="10.00">+ at()</text>
</a>
</g>
</g>
<!-- Node4&#45;&gt;Node6 -->
<g id="edge6" class="edge">
<title>Node4&#45;&gt;Node6</title>
<path fill="none" stroke="midnightblue" d="M340.5,-1257.31C340.5,-1248.45 340.5,-1239.01 340.5,-1229.79"/>
<polygon fill="none" stroke="midnightblue" points="337,-1257.39 340.5,-1267.39 344,-1257.4 337,-1257.39"/>
</g>
<!-- Node8 -->
<g id="node8" class="node">
<title>Node8</title>
<g id="a_node8"><a xlink:href="classcie_1_1geo_1_1Object.html" target="_top" xlink:title=" ">
<polygon fill="white" stroke="black" points="321,-946.5 321,-1058.5 480,-1058.5 480,-946.5 321,-946.5"/>
<text text-anchor="start" x="329" y="-1046.5" font-family="Helvetica,sans-Serif" font-size="10.00">cie::geo::Object&lt; Dimension,</text>
<text text-anchor="middle" x="400.5" y="-1035.5" font-family="Helvetica,sans-Serif" font-size="10.00"> Bool, Double &gt;</text>
<polyline fill="none" stroke="black" points="321,-1028.5 480,-1028.5 "/>
<text text-anchor="middle" x="400.5" y="-1016.5" font-family="Helvetica,sans-Serif" font-size="10.00"> </text>
<polyline fill="none" stroke="black" points="321,-1009.5 480,-1009.5 "/>
<text text-anchor="start" x="329" y="-997.5" font-family="Helvetica,sans-Serif" font-size="10.00">+ ~Object()</text>
<text text-anchor="start" x="329" y="-986.5" font-family="Helvetica,sans-Serif" font-size="10.00">+ evaluate()</text>
<text text-anchor="start" x="329" y="-975.5" font-family="Helvetica,sans-Serif" font-size="10.00">+ evaluate()</text>
<text text-anchor="start" x="329" y="-964.5" font-family="Helvetica,sans-Serif" font-size="10.00">+ evaluate()</text>
<text text-anchor="start" x="329" y="-953.5" font-family="Helvetica,sans-Serif" font-size="10.00">+ at()</text>
</a>
</g>
</g>
<!-- Node4&#45;&gt;Node8 -->
<g id="edge9" class="edge">
<title>Node4&#45;&gt;Node8</title>
<path fill="none" stroke="midnightblue" d="M387.11,-1260.33C396.52,-1250.95 405.85,-1240.58 413.5,-1230 451.33,-1177.63 462.14,-1161.99 476.5,-1099 478.67,-1089.47 480.32,-1086 476.5,-1077 473.78,-1070.58 470.19,-1064.44 466.05,-1058.65"/>
<polygon fill="none" stroke="midnightblue" points="384.66,-1257.83 379.93,-1267.31 389.54,-1262.85 384.66,-1257.83"/>
</g>
<!-- Node5 -->
<g id="node5" class="node">
<title>Node5</title>
<g id="a_node5"><a xlink:href="classcie_1_1geo_1_1Traits.html" target="_top" xlink:title="Basic templated traits that every object has in GEO.">
<polygon fill="white" stroke="black" points="279.5,-1383.5 279.5,-1451.5 401.5,-1451.5 401.5,-1383.5 279.5,-1383.5"/>
<text text-anchor="start" x="287.5" y="-1439.5" font-family="Helvetica,sans-Serif" font-size="10.00">cie::geo::Traits&lt; Dim,</text>
<text text-anchor="middle" x="340.5" y="-1428.5" font-family="Helvetica,sans-Serif" font-size="10.00"> TCoordinate &gt;</text>
<polyline fill="none" stroke="black" points="279.5,-1421.5 401.5,-1421.5 "/>
<text text-anchor="start" x="287.5" y="-1409.5" font-family="Helvetica,sans-Serif" font-size="10.00">+ Dimension</text>
<polyline fill="none" stroke="black" points="279.5,-1402.5 401.5,-1402.5 "/>
<text text-anchor="middle" x="340.5" y="-1390.5" font-family="Helvetica,sans-Serif" font-size="10.00"> </text>
</a>
</g>
</g>
<!-- Node5&#45;&gt;Node4 -->
<g id="edge4" class="edge">
<title>Node5&#45;&gt;Node4</title>
<path fill="none" stroke="orange" d="M340.5,-1373.06C340.5,-1360.64 340.5,-1347.32 340.5,-1335.62"/>
<polygon fill="orange" stroke="orange" points="337,-1373.22 340.5,-1383.22 344,-1373.22 337,-1373.22"/>
<text text-anchor="middle" x="389.5" y="-1357" font-family="Helvetica,sans-Serif" font-size="10.00"> &lt; N, TCoordinate &gt;</text>
</g>
<!-- Node6&#45;&gt;Node3 -->
<g id="edge5" class="edge">
<title>Node6&#45;&gt;Node3</title>
<path fill="none" stroke="orange" d="M268.17,-1132.23C256.34,-1122.74 245.4,-1111.64 237.5,-1099 230.02,-1087.02 225.72,-1072.63 223.33,-1058.68"/>
<polygon fill="orange" stroke="orange" points="266.39,-1135.28 276.47,-1138.55 270.63,-1129.71 266.39,-1135.28"/>
<text text-anchor="start" x="237.5" y="-1091" font-family="Helvetica,sans-Serif" font-size="10.00"> &lt; Dimension, ValueType,</text>
<text text-anchor="middle" x="300.5" y="-1080" font-family="Helvetica,sans-Serif" font-size="10.00"> CoordinateType &gt;</text>
</g>
<!-- Node6&#45;&gt;Node8 -->
<g id="edge10" class="edge">
<title>Node6&#45;&gt;Node8</title>
<path fill="none" stroke="orange" d="M363.64,-1107.31C369.35,-1091.25 375.4,-1074.21 380.91,-1058.67"/>
<polygon fill="orange" stroke="orange" points="360.19,-1106.57 360.15,-1117.16 366.79,-1108.91 360.19,-1106.57"/>
<text text-anchor="start" x="374.5" y="-1091" font-family="Helvetica,sans-Serif" font-size="10.00"> &lt; Dimension, Bool,</text>
<text text-anchor="middle" x="423.5" y="-1080" font-family="Helvetica,sans-Serif" font-size="10.00"> Double &gt;</text>
</g>
<!-- Node7 -->
<g id="node7" class="node">
<title>Node7</title>
<g id="a_node7"><a xlink:href="classcie_1_1geo_1_1UnaryOperator.html" target="_top" xlink:title=" ">
<polygon fill="white" stroke="black" points="310,-752.5 310,-908.5 449,-908.5 449,-752.5 310,-752.5"/>
<text text-anchor="start" x="318" y="-896.5" font-family="Helvetica,sans-Serif" font-size="10.00">cie::geo::UnaryOperator</text>
<text text-anchor="start" x="318" y="-885.5" font-family="Helvetica,sans-Serif" font-size="10.00">&lt; Dimension, ValueType,</text>
<text text-anchor="middle" x="379.5" y="-874.5" font-family="Helvetica,sans-Serif" font-size="10.00"> CoordinateType &gt;</text>
<polyline fill="none" stroke="black" points="310,-867.5 449,-867.5 "/>
<text text-anchor="start" x="318" y="-855.5" font-family="Helvetica,sans-Serif" font-size="10.00">+ rhs</text>
<text text-anchor="start" x="318" y="-844.5" font-family="Helvetica,sans-Serif" font-size="10.00"># _p_rhs</text>
<polyline fill="none" stroke="black" points="310,-837.5 449,-837.5 "/>
<text text-anchor="start" x="318" y="-825.5" font-family="Helvetica,sans-Serif" font-size="10.00">+ UnaryOperator()</text>
<text text-anchor="start" x="318" y="-814.5" font-family="Helvetica,sans-Serif" font-size="10.00">+ UnaryOperator()</text>
<text text-anchor="start" x="318" y="-803.5" font-family="Helvetica,sans-Serif" font-size="10.00">+ UnaryOperator()</text>
<text text-anchor="start" x="318" y="-792.5" font-family="Helvetica,sans-Serif" font-size="10.00">+ operator=()</text>
<text text-anchor="start" x="318" y="-781.5" font-family="Helvetica,sans-Serif" font-size="10.00">+ bindRhs()</text>
<text text-anchor="start" x="318" y="-770.5" font-family="Helvetica,sans-Serif" font-size="10.00">+ rhs()</text>
<text text-anchor="start" x="318" y="-759.5" font-family="Helvetica,sans-Serif" font-size="10.00">+ at()</text>
</a>
</g>
</g>
<!-- Node7&#45;&gt;Node2 -->
<g id="edge7" class="edge">
<title>Node7&#45;&gt;Node2</title>
<path fill="none" stroke="orange" d="M337.07,-743.19C329,-726.77 320.63,-709.75 312.81,-693.84"/>
<polygon fill="orange" stroke="orange" points="333.97,-744.8 341.52,-752.23 340.25,-741.72 333.97,-744.8"/>
<text text-anchor="start" x="332.5" y="-726" font-family="Helvetica,sans-Serif" font-size="10.00"> &lt; Dimension, Bool,</text>
<text text-anchor="middle" x="381.5" y="-715" font-family="Helvetica,sans-Serif" font-size="10.00"> Double &gt;</text>
</g>
<!-- Node8&#45;&gt;Node7 -->
<g id="edge8" class="edge">
<title>Node8&#45;&gt;Node7</title>
<path fill="none" stroke="midnightblue" d="M392.44,-936.26C391.33,-927.23 390.17,-917.88 389.03,-908.65"/>
<polygon fill="none" stroke="midnightblue" points="388.98,-936.81 393.68,-946.31 395.93,-935.95 388.98,-936.81"/>
</g>
<!-- Node10 -->
<g id="node10" class="node">
<title>Node10</title>
<g id="a_node10"><a xlink:href="classcie_1_1geo_1_1Intersection.html" target="_top" xlink:title=" ">
<polygon fill="white" stroke="black" points="0,-0.5 0,-112.5 173,-112.5 173,-0.5 0,-0.5"/>
<text text-anchor="start" x="8" y="-100.5" font-family="Helvetica,sans-Serif" font-size="10.00">cie::geo::Intersection</text>
<text text-anchor="middle" x="86.5" y="-89.5" font-family="Helvetica,sans-Serif" font-size="10.00">&lt; Dimension, CoordinateType &gt;</text>
<polyline fill="none" stroke="black" points="0,-82.5 173,-82.5 "/>
<text text-anchor="middle" x="86.5" y="-70.5" font-family="Helvetica,sans-Serif" font-size="10.00"> </text>
<polyline fill="none" stroke="black" points="0,-63.5 173,-63.5 "/>
<text text-anchor="start" x="8" y="-51.5" font-family="Helvetica,sans-Serif" font-size="10.00">+ Intersection()</text>
<text text-anchor="start" x="8" y="-40.5" font-family="Helvetica,sans-Serif" font-size="10.00">+ Intersection()</text>
<text text-anchor="start" x="8" y="-29.5" font-family="Helvetica,sans-Serif" font-size="10.00">+ Intersection()</text>
<text text-anchor="start" x="8" y="-18.5" font-family="Helvetica,sans-Serif" font-size="10.00">+ operator=()</text>
<text text-anchor="start" x="8" y="-7.5" font-family="Helvetica,sans-Serif" font-size="10.00">+ at()</text>
</a>
</g>
</g>
<!-- Node9&#45;&gt;Node10 -->
<g id="edge12" class="edge">
<title>Node9&#45;&gt;Node10</title>
<path fill="none" stroke="midnightblue" d="M186.68,-143.78C174.45,-133.25 162.12,-122.63 150.49,-112.61"/>
<polygon fill="none" stroke="midnightblue" points="184.42,-146.45 194.28,-150.33 188.99,-141.15 184.42,-146.45"/>
</g>
<!-- Node11 -->
<g id="node11" class="node">
<title>Node11</title>
<g id="a_node11"><a xlink:href="classcie_1_1geo_1_1Subtraction.html" target="_top" xlink:title=" ">
<polygon fill="white" stroke="black" points="191,-0.5 191,-112.5 364,-112.5 364,-0.5 191,-0.5"/>
<text text-anchor="start" x="199" y="-100.5" font-family="Helvetica,sans-Serif" font-size="10.00">cie::geo::Subtraction</text>
<text text-anchor="middle" x="277.5" y="-89.5" font-family="Helvetica,sans-Serif" font-size="10.00">&lt; Dimension, CoordinateType &gt;</text>
<polyline fill="none" stroke="black" points="191,-82.5 364,-82.5 "/>
<text text-anchor="middle" x="277.5" y="-70.5" font-family="Helvetica,sans-Serif" font-size="10.00"> </text>
<polyline fill="none" stroke="black" points="191,-63.5 364,-63.5 "/>
<text text-anchor="start" x="199" y="-51.5" font-family="Helvetica,sans-Serif" font-size="10.00">+ Subtraction()</text>
<text text-anchor="start" x="199" y="-40.5" font-family="Helvetica,sans-Serif" font-size="10.00">+ Subtraction()</text>
<text text-anchor="start" x="199" y="-29.5" font-family="Helvetica,sans-Serif" font-size="10.00">+ Subtraction()</text>
<text text-anchor="start" x="199" y="-18.5" font-family="Helvetica,sans-Serif" font-size="10.00">+ operator=()</text>
<text text-anchor="start" x="199" y="-7.5" font-family="Helvetica,sans-Serif" font-size="10.00">+ at()</text>
</a>
</g>
</g>
<!-- Node9&#45;&gt;Node11 -->
<g id="edge13" class="edge">
<title>Node9&#45;&gt;Node11</title>
<path fill="none" stroke="midnightblue" d="M277.5,-140.2C277.5,-130.85 277.5,-121.49 277.5,-112.61"/>
<polygon fill="none" stroke="midnightblue" points="274,-140.33 277.5,-150.33 281,-140.33 274,-140.33"/>
</g>
<!-- Node12 -->
<g id="node12" class="node">
<title>Node12</title>
<g id="a_node12"><a xlink:href="classcie_1_1geo_1_1Union.html" target="_top" xlink:title=" ">
<polygon fill="white" stroke="black" points="382.5,-0.5 382.5,-112.5 538.5,-112.5 538.5,-0.5 382.5,-0.5"/>
<text text-anchor="start" x="390.5" y="-100.5" font-family="Helvetica,sans-Serif" font-size="10.00">cie::geo::Union&lt; Dimension,</text>
<text text-anchor="middle" x="460.5" y="-89.5" font-family="Helvetica,sans-Serif" font-size="10.00"> CoordinateType &gt;</text>
<polyline fill="none" stroke="black" points="382.5,-82.5 538.5,-82.5 "/>
<text text-anchor="middle" x="460.5" y="-70.5" font-family="Helvetica,sans-Serif" font-size="10.00"> </text>
<polyline fill="none" stroke="black" points="382.5,-63.5 538.5,-63.5 "/>
<text text-anchor="start" x="390.5" y="-51.5" font-family="Helvetica,sans-Serif" font-size="10.00">+ Union()</text>
<text text-anchor="start" x="390.5" y="-40.5" font-family="Helvetica,sans-Serif" font-size="10.00">+ Union()</text>
<text text-anchor="start" x="390.5" y="-29.5" font-family="Helvetica,sans-Serif" font-size="10.00">+ Union()</text>
<text text-anchor="start" x="390.5" y="-18.5" font-family="Helvetica,sans-Serif" font-size="10.00">+ operator=()</text>
<text text-anchor="start" x="390.5" y="-7.5" font-family="Helvetica,sans-Serif" font-size="10.00">+ at()</text>
</a>
</g>
</g>
<!-- Node9&#45;&gt;Node12 -->
<g id="edge14" class="edge">
<title>Node9&#45;&gt;Node12</title>
<path fill="none" stroke="midnightblue" d="M364.84,-143.49C376.45,-133.05 388.15,-122.53 399.19,-112.61"/>
<polygon fill="none" stroke="midnightblue" points="362.33,-141.04 357.23,-150.33 367.01,-146.24 362.33,-141.04"/>
</g>
</g>
</svg>
        <g id="navigator" transform="translate(0 0)" fill="#404254">
                <rect fill="#f2f5e9" fill-opacity="0.5" stroke="#606060" stroke-width=".5" x="0" y="0" width="60" height="60"/>
                <use id="zoomplus" xlink:href="#zoomPlus" x="17" y="9" onmousedown="handleZoom(evt,'in')"/>
                <use id="zoomminus" xlink:href="#zoomMin" x="42" y="9" onmousedown="handleZoom(evt,'out')"/>
                <use id="reset" xlink:href="#resetDef" x="30" y="36" onmousedown="handleReset()"/>
                <g id="arrowUp" xlink:href="#dirArrow" transform="translate(30 24)" onmousedown="handlePan(0,-1)">
                  <use xlink:href="#rim" fill="#404040">
                        <set attributeName="fill" to="#808080" begin="arrowUp.mouseover" end="arrowUp.mouseout"/>
                  </use>
                  <path fill="none" stroke="white" stroke-width="1.5" d="M0,-3.0v7 M-2.5,-0.5L0,-3.0L2.5,-0.5"/>
                </g>
                <g id="arrowRight" xlink:href="#dirArrow" transform="rotate(90) translate(36 -43)" onmousedown="handlePan(1,0)">
                  <use xlink:href="#rim" fill="#404040">
                        <set attributeName="fill" to="#808080" begin="arrowRight.mouseover" end="arrowRight.mouseout"/>
                  </use>
                  <path fill="none" stroke="white" stroke-width="1.5" d="M0,-3.0v7 M-2.5,-0.5L0,-3.0L2.5,-0.5"/>
                </g>
                <g id="arrowDown" xlink:href="#dirArrow" transform="rotate(180) translate(-30 -48)" onmousedown="handlePan(0,1)">
                  <use xlink:href="#rim" fill="#404040">
                        <set attributeName="fill" to="#808080" begin="arrowDown.mouseover" end="arrowDown.mouseout"/>
                  </use>
                  <path fill="none" stroke="white" stroke-width="1.5" d="M0,-3.0v7 M-2.5,-0.5L0,-3.0L2.5,-0.5"/>
                </g>
                <g id="arrowLeft" xlink:href="#dirArrow" transform="rotate(270) translate(-36 17)" onmousedown="handlePan(-1,0)">
                  <use xlink:href="#rim" fill="#404040">
                        <set attributeName="fill" to="#808080" begin="arrowLeft.mouseover" end="arrowLeft.mouseout"/>
                  </use>
                  <path fill="none" stroke="white" stroke-width="1.5" d="M0,-3.0v7 M-2.5,-0.5L0,-3.0L2.5,-0.5"/>
                </g>
        </g>
        <svg viewBox="0 0 15 15" width="100%" height="30px" preserveAspectRatio="xMaxYMin meet">
         <g id="arrow_out" transform="scale(0.3 0.3)">
          <a xlink:href="classcie_1_1geo_1_1BinaryOperator__inherit__graph_org.svg" target="_base">
           <rect id="button" ry="5" rx="5" y="6" x="6" height="38" width="38"
                fill="#f2f5e9" fill-opacity="0.5" stroke="#606060" stroke-width="1.0"/>
           <path id="arrow"
             d="M 11.500037,31.436501 C 11.940474,20.09759 22.043105,11.32322 32.158766,21.979434 L 37.068811,17.246167 C 37.068811,17.246167 37.088388,32 37.088388,32 L 22.160133,31.978069 C 22.160133,31.978069 26.997745,27.140456 26.997745,27.140456 C 18.528582,18.264221 13.291696,25.230495 11.500037,31.436501 z"
             style="fill:#404040;"/>
          </a>
         </g>
        </svg>
</svg>
