<?xml version="1.0" encoding="UTF-8" standalone="no"?>
<!DOCTYPE svg PUBLIC "-//W3C//DTD SVG 1.1//EN"
 "http://www.w3.org/Graphics/SVG/1.1/DTD/svg11.dtd">
<!-- Generated by graphviz version 2.43.0 (0)
 -->
<!-- Title: cie::geo::UnaryOperator&lt; Dimension, ValueType, CoordinateType &gt; Pages: 1 -->
<svg width="457pt" height="812pt"
 viewBox="0.00 0.00 457.00 812.00" xmlns="http://www.w3.org/2000/svg" xmlns:xlink="http://www.w3.org/1999/xlink">
<g id="graph0" class="graph" transform="scale(1 1) rotate(0) translate(4 808)">
<title>cie::geo::UnaryOperator&lt; Dimension, ValueType, CoordinateType &gt;</title>
<polygon fill="white" stroke="transparent" points="-4,4 -4,-808 453,-808 453,4 -4,4"/>
<!-- Node1 -->
<g id="node1" class="node">
<title>Node1</title>
<g id="a_node1"><a xlink:title=" ">
<polygon fill="#bfbfbf" stroke="black" points="175,-0.5 175,-145.5 314,-145.5 314,-0.5 175,-0.5"/>
<text text-anchor="start" x="183" y="-133.5" font-family="Helvetica,sans-Serif" font-size="10.00">cie::geo::UnaryOperator</text>
<text text-anchor="start" x="183" y="-122.5" font-family="Helvetica,sans-Serif" font-size="10.00">&lt; Dimension, ValueType,</text>
<text text-anchor="middle" x="244.5" y="-111.5" font-family="Helvetica,sans-Serif" font-size="10.00"> CoordinateType &gt;</text>
<polyline fill="none" stroke="black" points="175,-104.5 314,-104.5 "/>
<text text-anchor="middle" x="244.5" y="-92.5" font-family="Helvetica,sans-Serif" font-size="10.00"> </text>
<polyline fill="none" stroke="black" points="175,-85.5 314,-85.5 "/>
<text text-anchor="start" x="183" y="-73.5" font-family="Helvetica,sans-Serif" font-size="10.00">+ UnaryOperator()</text>
<text text-anchor="start" x="183" y="-62.5" font-family="Helvetica,sans-Serif" font-size="10.00">+ UnaryOperator()</text>
<text text-anchor="start" x="183" y="-51.5" font-family="Helvetica,sans-Serif" font-size="10.00">+ UnaryOperator()</text>
<text text-anchor="start" x="183" y="-40.5" font-family="Helvetica,sans-Serif" font-size="10.00">+ operator=()</text>
<text text-anchor="start" x="183" y="-29.5" font-family="Helvetica,sans-Serif" font-size="10.00">+ bindRhs()</text>
<text text-anchor="start" x="183" y="-18.5" font-family="Helvetica,sans-Serif" font-size="10.00">+ rhs()</text>
<text text-anchor="start" x="183" y="-7.5" font-family="Helvetica,sans-Serif" font-size="10.00">+ at()</text>
</a>
</g>
</g>
<!-- Node2 -->
<g id="node2" class="node">
<title>Node2</title>
<g id="a_node2"><a xlink:href="classcie_1_1geo_1_1Object.html" target="_top" xlink:title=" ">
<polygon fill="white" stroke="black" points="0,-193.5 0,-305.5 159,-305.5 159,-193.5 0,-193.5"/>
<text text-anchor="start" x="8" y="-293.5" font-family="Helvetica,sans-Serif" font-size="10.00">cie::geo::Object&lt; Dimension,</text>
<text text-anchor="middle" x="79.5" y="-282.5" font-family="Helvetica,sans-Serif" font-size="10.00"> Bool, Double &gt;</text>
<polyline fill="none" stroke="black" points="0,-275.5 159,-275.5 "/>
<text text-anchor="middle" x="79.5" y="-263.5" font-family="Helvetica,sans-Serif" font-size="10.00"> </text>
<polyline fill="none" stroke="black" points="0,-256.5 159,-256.5 "/>
<text text-anchor="start" x="8" y="-244.5" font-family="Helvetica,sans-Serif" font-size="10.00">+ ~Object()</text>
<text text-anchor="start" x="8" y="-233.5" font-family="Helvetica,sans-Serif" font-size="10.00">+ evaluate()</text>
<text text-anchor="start" x="8" y="-222.5" font-family="Helvetica,sans-Serif" font-size="10.00">+ evaluate()</text>
<text text-anchor="start" x="8" y="-211.5" font-family="Helvetica,sans-Serif" font-size="10.00">+ evaluate()</text>
<text text-anchor="start" x="8" y="-200.5" font-family="Helvetica,sans-Serif" font-size="10.00">+ at()</text>
</a>
</g>
</g>
<!-- Node2&#45;&gt;Node1 -->
<g id="edge1" class="edge">
<title>Node2&#45;&gt;Node1</title>
<path fill="none" stroke="midnightblue" d="M138.83,-185.76C151.08,-172.8 164.08,-159.05 176.61,-145.79"/>
<polygon fill="none" stroke="midnightblue" points="136.03,-183.62 131.71,-193.29 141.12,-188.43 136.03,-183.62"/>
</g>
<!-- Node3 -->
<g id="node3" class="node">
<title>Node3</title>
<g id="a_node3"><a xlink:href="classcie_1_1geo_1_1Traits.html" target="_top" xlink:title=" ">
<polygon fill="white" stroke="black" points="21,-514.5 21,-582.5 130,-582.5 130,-514.5 21,-514.5"/>
<text text-anchor="start" x="29" y="-570.5" font-family="Helvetica,sans-Serif" font-size="10.00">cie::geo::Traits&lt; N,</text>
<text text-anchor="middle" x="75.5" y="-559.5" font-family="Helvetica,sans-Serif" font-size="10.00"> TCoordinate &gt;</text>
<polyline fill="none" stroke="black" points="21,-552.5 130,-552.5 "/>
<text text-anchor="start" x="29" y="-540.5" font-family="Helvetica,sans-Serif" font-size="10.00">+ Dimension</text>
<polyline fill="none" stroke="black" points="21,-533.5 130,-533.5 "/>
<text text-anchor="middle" x="75.5" y="-521.5" font-family="Helvetica,sans-Serif" font-size="10.00"> </text>
</a>
</g>
</g>
<!-- Node3&#45;&gt;Node2 -->
<g id="edge2" class="edge">
<title>Node3&#45;&gt;Node2</title>
<path fill="none" stroke="midnightblue" d="M76.08,-504.29C76.79,-451.77 77.98,-363.06 78.76,-305.65"/>
<polygon fill="none" stroke="midnightblue" points="72.58,-504.25 75.95,-514.29 79.58,-504.34 72.58,-504.25"/>
</g>
<!-- Node6 -->
<g id="node6" class="node">
<title>Node6</title>
<g id="a_node6"><a xlink:href="classcie_1_1geo_1_1Object.html" target="_top" xlink:title="Interface for point&#45;queriable objects.">
<polygon fill="white" stroke="black" points="91.5,-364.5 91.5,-476.5 219.5,-476.5 219.5,-364.5 91.5,-364.5"/>
<text text-anchor="start" x="99.5" y="-464.5" font-family="Helvetica,sans-Serif" font-size="10.00">cie::geo::Object&lt; N,</text>
<text text-anchor="middle" x="155.5" y="-453.5" font-family="Helvetica,sans-Serif" font-size="10.00"> TValue, TCoordinate &gt;</text>
<polyline fill="none" stroke="black" points="91.5,-446.5 219.5,-446.5 "/>
<text text-anchor="middle" x="155.5" y="-434.5" font-family="Helvetica,sans-Serif" font-size="10.00"> </text>
<polyline fill="none" stroke="black" points="91.5,-427.5 219.5,-427.5 "/>
<text text-anchor="start" x="99.5" y="-415.5" font-family="Helvetica,sans-Serif" font-size="10.00">+ ~Object()</text>
<text text-anchor="start" x="99.5" y="-404.5" font-family="Helvetica,sans-Serif" font-size="10.00">+ evaluate()</text>
<text text-anchor="start" x="99.5" y="-393.5" font-family="Helvetica,sans-Serif" font-size="10.00">+ evaluate()</text>
<text text-anchor="start" x="99.5" y="-382.5" font-family="Helvetica,sans-Serif" font-size="10.00">+ evaluate()</text>
<text text-anchor="start" x="99.5" y="-371.5" font-family="Helvetica,sans-Serif" font-size="10.00">+ at()</text>
</a>
</g>
</g>
<!-- Node3&#45;&gt;Node6 -->
<g id="edge6" class="edge">
<title>Node3&#45;&gt;Node6</title>
<path fill="none" stroke="midnightblue" d="M102.01,-505.75C107.89,-496.48 114.22,-486.51 120.39,-476.79"/>
<polygon fill="none" stroke="midnightblue" points="98.92,-504.08 96.52,-514.39 104.83,-507.83 98.92,-504.08"/>
</g>
<!-- Node4 -->
<g id="node4" class="node">
<title>Node4</title>
<g id="a_node4"><a xlink:href="classcie_1_1geo_1_1Traits.html" target="_top" xlink:title="Basic templated traits that every object has in GEO.">
<polygon fill="white" stroke="black" points="14.5,-630.5 14.5,-698.5 136.5,-698.5 136.5,-630.5 14.5,-630.5"/>
<text text-anchor="start" x="22.5" y="-686.5" font-family="Helvetica,sans-Serif" font-size="10.00">cie::geo::Traits&lt; Dim,</text>
<text text-anchor="middle" x="75.5" y="-675.5" font-family="Helvetica,sans-Serif" font-size="10.00"> TCoordinate &gt;</text>
<polyline fill="none" stroke="black" points="14.5,-668.5 136.5,-668.5 "/>
<text text-anchor="middle" x="75.5" y="-656.5" font-family="Helvetica,sans-Serif" font-size="10.00"> </text>
<polyline fill="none" stroke="black" points="14.5,-649.5 136.5,-649.5 "/>
<text text-anchor="middle" x="75.5" y="-637.5" font-family="Helvetica,sans-Serif" font-size="10.00"> </text>
</a>
</g>
</g>
<!-- Node4&#45;&gt;Node3 -->
<g id="edge3" class="edge">
<title>Node4&#45;&gt;Node3</title>
<path fill="none" stroke="orange" d="M75.5,-620.06C75.5,-607.64 75.5,-594.32 75.5,-582.62"/>
<polygon fill="orange" stroke="orange" points="72,-620.22 75.5,-630.22 79,-620.22 72,-620.22"/>
<text text-anchor="middle" x="124.5" y="-604" font-family="Helvetica,sans-Serif" font-size="10.00"> &lt; N, TCoordinate &gt;</text>
</g>
<!-- Node5 -->
<g id="node5" class="node">
<title>Node5</title>
<g id="a_node5"><a xlink:title=" ">
<polygon fill="white" stroke="#bfbfbf" points="53,-746.5 53,-803.5 98,-803.5 98,-746.5 53,-746.5"/>
<text text-anchor="middle" x="75.5" y="-791.5" font-family="Helvetica,sans-Serif" font-size="10.00">size_t</text>
<polyline fill="none" stroke="#bfbfbf" points="53,-784.5 98,-784.5 "/>
<text text-anchor="middle" x="75.5" y="-772.5" font-family="Helvetica,sans-Serif" font-size="10.00"> </text>
<polyline fill="none" stroke="#bfbfbf" points="53,-765.5 98,-765.5 "/>
<text text-anchor="middle" x="75.5" y="-753.5" font-family="Helvetica,sans-Serif" font-size="10.00"> </text>
</a>
</g>
</g>
<!-- Node5&#45;&gt;Node4 -->
<g id="edge4" class="edge">
<title>Node5&#45;&gt;Node4</title>
<path fill="none" stroke="#404040" d="M75.5,-746.34C75.5,-735.53 75.5,-722.85 75.5,-710.77"/>
<polygon fill="none" stroke="#404040" points="75.5,-710.52 71.5,-704.52 75.5,-698.52 79.5,-704.52 75.5,-710.52"/>
<text text-anchor="middle" x="107.5" y="-720" font-family="Helvetica,sans-Serif" font-size="10.00"> +Dimension</text>
</g>
<!-- Node6&#45;&gt;Node2 -->
<g id="edge5" class="edge">
<title>Node6&#45;&gt;Node2</title>
<path fill="none" stroke="orange" d="M126.39,-354.77C119.11,-338.57 111.36,-321.35 104.31,-305.67"/>
<polygon fill="orange" stroke="orange" points="123.32,-356.48 130.61,-364.16 129.71,-353.61 123.32,-356.48"/>
<text text-anchor="start" x="122.5" y="-338" font-family="Helvetica,sans-Serif" font-size="10.00"> &lt; Dimension, Bool,</text>
<text text-anchor="middle" x="171.5" y="-327" font-family="Helvetica,sans-Serif" font-size="10.00"> Double &gt;</text>
</g>
<!-- Node7 -->
<g id="node7" class="node">
<title>Node7</title>
<g id="a_node7"><a xlink:title=" ">
<polygon fill="white" stroke="#bfbfbf" points="177,-210 177,-289 312,-289 312,-210 177,-210"/>
<text text-anchor="start" x="185" y="-277" font-family="Helvetica,sans-Serif" font-size="10.00">void emplaceRhs(Args</text>
<text text-anchor="start" x="185" y="-266" font-family="Helvetica,sans-Serif" font-size="10.00"> &amp;&amp;... args) requires</text>
<text text-anchor="middle" x="244.5" y="-255" font-family="Helvetica,sans-Serif" font-size="10.00"> concepts operand_ptr &amp;</text>
<polyline fill="none" stroke="#bfbfbf" points="177,-248 312,-248 "/>
<text text-anchor="middle" x="244.5" y="-236" font-family="Helvetica,sans-Serif" font-size="10.00"> </text>
<polyline fill="none" stroke="#bfbfbf" points="177,-229 312,-229 "/>
<text text-anchor="middle" x="244.5" y="-217" font-family="Helvetica,sans-Serif" font-size="10.00"> </text>
</a>
</g>
</g>
<!-- Node7&#45;&gt;Node1 -->
<g id="edge7" class="edge">
<title>Node7&#45;&gt;Node1</title>
<path fill="none" stroke="#404040" d="M244.5,-209.77C244.5,-194.36 244.5,-175.99 244.5,-157.82"/>
<polygon fill="none" stroke="#404040" points="244.5,-157.62 240.5,-151.62 244.5,-145.62 248.5,-151.62 244.5,-157.62"/>
<text text-anchor="middle" x="258" y="-167" font-family="Helvetica,sans-Serif" font-size="10.00"> +rhs</text>
</g>
<!-- Node8 -->
<g id="node8" class="node">
<title>Node8</title>
<g id="a_node8"><a xlink:title=" ">
<polygon fill="white" stroke="#bfbfbf" points="330,-215.5 330,-283.5 449,-283.5 449,-215.5 330,-215.5"/>
<text text-anchor="start" x="338" y="-271.5" font-family="Helvetica,sans-Serif" font-size="10.00">shared_ptr&lt; operand</text>
<text text-anchor="middle" x="389.5" y="-260.5" font-family="Helvetica,sans-Serif" font-size="10.00">_type &gt;</text>
<polyline fill="none" stroke="#bfbfbf" points="330,-253.5 449,-253.5 "/>
<text text-anchor="middle" x="389.5" y="-241.5" font-family="Helvetica,sans-Serif" font-size="10.00"> </text>
<polyline fill="none" stroke="#bfbfbf" points="330,-234.5 449,-234.5 "/>
<text text-anchor="middle" x="389.5" y="-222.5" font-family="Helvetica,sans-Serif" font-size="10.00"> </text>
</a>
</g>
</g>
<!-- Node8&#45;&gt;Node1 -->
<g id="edge8" class="edge">
<title>Node8&#45;&gt;Node1</title>
<path fill="none" stroke="#404040" d="M361.89,-215.27C347.64,-198.13 329.59,-176.4 311.93,-155.15"/>
<polygon fill="none" stroke="#404040" points="311.81,-155 304.9,-152.94 304.14,-145.77 311.05,-147.83 311.81,-155"/>
<text text-anchor="middle" x="347" y="-167" font-family="Helvetica,sans-Serif" font-size="10.00"> #_p_rhs</text>
</g>
</g>
</svg>
