<?xml version="1.0" encoding="UTF-8" standalone="no"?>
<!DOCTYPE svg PUBLIC "-//W3C//DTD SVG 1.1//EN"
 "http://www.w3.org/Graphics/SVG/1.1/DTD/svg11.dtd">
<!-- Generated by graphviz version 2.43.0 (0)
 -->
<!-- Title: cie::geo::Sphere&lt; Dimension, CoordinateType &gt; Pages: 1 -->
<svg width="572pt" height="688pt"
 viewBox="0.00 0.00 571.50 688.00" xmlns="http://www.w3.org/2000/svg" xmlns:xlink="http://www.w3.org/1999/xlink">
<g id="graph0" class="graph" transform="scale(1 1) rotate(0) translate(4 684)">
<title>cie::geo::Sphere&lt; Dimension, CoordinateType &gt;</title>
<polygon fill="white" stroke="transparent" points="-4,4 -4,-684 567.5,-684 567.5,4 -4,4"/>
<!-- Node1 -->
<g id="node1" class="node">
<title>Node1</title>
<g id="a_node1"><a xlink:title=" ">
<polygon fill="#bfbfbf" stroke="black" points="46.5,-0.5 46.5,-145.5 207.5,-145.5 207.5,-0.5 46.5,-0.5"/>
<text text-anchor="start" x="54.5" y="-133.5" font-family="Helvetica,sans-Serif" font-size="10.00">cie::geo::Sphere&lt; Dimension,</text>
<text text-anchor="middle" x="127" y="-122.5" font-family="Helvetica,sans-Serif" font-size="10.00"> CoordinateType &gt;</text>
<polyline fill="none" stroke="black" points="46.5,-115.5 207.5,-115.5 "/>
<text text-anchor="start" x="54.5" y="-103.5" font-family="Helvetica,sans-Serif" font-size="10.00"># _center</text>
<text text-anchor="start" x="54.5" y="-92.5" font-family="Helvetica,sans-Serif" font-size="10.00"># _radius</text>
<polyline fill="none" stroke="black" points="46.5,-85.5 207.5,-85.5 "/>
<text text-anchor="start" x="54.5" y="-73.5" font-family="Helvetica,sans-Serif" font-size="10.00">+ Sphere()</text>
<text text-anchor="start" x="54.5" y="-62.5" font-family="Helvetica,sans-Serif" font-size="10.00">+ Sphere()</text>
<text text-anchor="start" x="54.5" y="-51.5" font-family="Helvetica,sans-Serif" font-size="10.00">+ isDegenerate()</text>
<text text-anchor="start" x="54.5" y="-40.5" font-family="Helvetica,sans-Serif" font-size="10.00">+ center()</text>
<text text-anchor="start" x="54.5" y="-29.5" font-family="Helvetica,sans-Serif" font-size="10.00">+ center()</text>
<text text-anchor="start" x="54.5" y="-18.5" font-family="Helvetica,sans-Serif" font-size="10.00">+ radius()</text>
<text text-anchor="start" x="54.5" y="-7.5" font-family="Helvetica,sans-Serif" font-size="10.00">+ radius()</text>
</a>
</g>
</g>
<!-- Node1&#45;&gt;Node1 -->
<g id="edge7" class="edge">
<title>Node1&#45;&gt;Node1</title>
<path fill="none" stroke="orange" d="M217.71,-78.6C222.6,-77.23 225.5,-75.36 225.5,-73 225.5,-69.31 218.43,-66.83 207.77,-65.56"/>
<polygon fill="orange" stroke="orange" points="216.97,-75.18 207.77,-80.44 218.24,-82.06 216.97,-75.18"/>
<text text-anchor="middle" x="305.5" y="-70.5" font-family="Helvetica,sans-Serif" font-size="10.00"> &lt; Dimension, CoordinateType &gt;</text>
</g>
<!-- Node1&#45;&gt;Node1 -->
<g id="edge8" class="edge">
<title>Node1&#45;&gt;Node1</title>
<path fill="none" stroke="orange" d="M217.87,-88.4C293.35,-92.71 385.5,-87.57 385.5,-73 385.5,-57.77 284.89,-52.85 207.81,-58.23"/>
<polygon fill="orange" stroke="orange" points="218.02,-84.91 207.81,-87.77 217.57,-91.89 218.02,-84.91"/>
<text text-anchor="middle" x="465.5" y="-70.5" font-family="Helvetica,sans-Serif" font-size="10.00"> &lt; Dimension, CoordinateType &gt;</text>
</g>
<!-- Node2 -->
<g id="node2" class="node">
<title>Node2</title>
<g id="a_node2"><a xlink:href="classcie_1_1geo_1_1AbsPrimitive.html" target="_top" xlink:title=" ">
<polygon fill="white" stroke="black" points="61,-183.5 61,-262.5 193,-262.5 193,-183.5 61,-183.5"/>
<text text-anchor="start" x="69" y="-250.5" font-family="Helvetica,sans-Serif" font-size="10.00">cie::geo::AbsPrimitive</text>
<text text-anchor="middle" x="127" y="-239.5" font-family="Helvetica,sans-Serif" font-size="10.00">&lt; Dimension, Double &gt;</text>
<polyline fill="none" stroke="black" points="61,-232.5 193,-232.5 "/>
<text text-anchor="middle" x="127" y="-220.5" font-family="Helvetica,sans-Serif" font-size="10.00"> </text>
<polyline fill="none" stroke="black" points="61,-213.5 193,-213.5 "/>
<text text-anchor="start" x="69" y="-201.5" font-family="Helvetica,sans-Serif" font-size="10.00">+ ~AbsPrimitive()</text>
<text text-anchor="start" x="69" y="-190.5" font-family="Helvetica,sans-Serif" font-size="10.00">+ isDegenerate()</text>
</a>
</g>
</g>
<!-- Node2&#45;&gt;Node1 -->
<g id="edge1" class="edge">
<title>Node2&#45;&gt;Node1</title>
<path fill="none" stroke="midnightblue" d="M127,-173.04C127,-164.22 127,-154.86 127,-145.55"/>
<polygon fill="none" stroke="midnightblue" points="123.5,-173.11 127,-183.11 130.5,-173.11 123.5,-173.11"/>
</g>
<!-- Node3 -->
<g id="node3" class="node">
<title>Node3</title>
<g id="a_node3"><a xlink:href="classcie_1_1geo_1_1Traits.html" target="_top" xlink:title=" ">
<polygon fill="white" stroke="black" points="0,-408.5 0,-476.5 154,-476.5 154,-408.5 0,-408.5"/>
<text text-anchor="start" x="8" y="-464.5" font-family="Helvetica,sans-Serif" font-size="10.00">cie::geo::Traits&lt; Dimension,</text>
<text text-anchor="middle" x="77" y="-453.5" font-family="Helvetica,sans-Serif" font-size="10.00"> CoordinateType &gt;</text>
<polyline fill="none" stroke="black" points="0,-446.5 154,-446.5 "/>
<text text-anchor="start" x="8" y="-434.5" font-family="Helvetica,sans-Serif" font-size="10.00">+ Dimension</text>
<polyline fill="none" stroke="black" points="0,-427.5 154,-427.5 "/>
<text text-anchor="middle" x="77" y="-415.5" font-family="Helvetica,sans-Serif" font-size="10.00"> </text>
</a>
</g>
</g>
<!-- Node3&#45;&gt;Node2 -->
<g id="edge2" class="edge">
<title>Node3&#45;&gt;Node2</title>
<path fill="none" stroke="midnightblue" d="M86.86,-398.6C95.94,-359.11 109.29,-301.03 118.07,-262.87"/>
<polygon fill="none" stroke="midnightblue" points="83.42,-397.94 84.59,-408.47 90.25,-399.5 83.42,-397.94"/>
</g>
<!-- Node4 -->
<g id="node4" class="node">
<title>Node4</title>
<g id="a_node4"><a xlink:href="classcie_1_1geo_1_1Traits.html" target="_top" xlink:title="Basic templated traits that every object has in GEO.">
<polygon fill="white" stroke="black" points="90,-611.5 90,-679.5 212,-679.5 212,-611.5 90,-611.5"/>
<text text-anchor="start" x="98" y="-667.5" font-family="Helvetica,sans-Serif" font-size="10.00">cie::geo::Traits&lt; Dim,</text>
<text text-anchor="middle" x="151" y="-656.5" font-family="Helvetica,sans-Serif" font-size="10.00"> TCoordinate &gt;</text>
<polyline fill="none" stroke="black" points="90,-649.5 212,-649.5 "/>
<text text-anchor="start" x="98" y="-637.5" font-family="Helvetica,sans-Serif" font-size="10.00">+ Dimension</text>
<polyline fill="none" stroke="black" points="90,-630.5 212,-630.5 "/>
<text text-anchor="middle" x="151" y="-618.5" font-family="Helvetica,sans-Serif" font-size="10.00"> </text>
</a>
</g>
</g>
<!-- Node4&#45;&gt;Node3 -->
<g id="edge3" class="edge">
<title>Node4&#45;&gt;Node3</title>
<path fill="none" stroke="orange" d="M80.94,-617.66C71.39,-611.03 62.87,-602.91 57,-593 35.91,-557.4 48.47,-508.8 61.18,-476.8"/>
<polygon fill="orange" stroke="orange" points="79.24,-620.72 89.56,-623.11 82.98,-614.81 79.24,-620.72"/>
<text text-anchor="middle" x="137" y="-585" font-family="Helvetica,sans-Serif" font-size="10.00"> &lt; Dimension, CoordinateType &gt;</text>
</g>
<!-- Node6 -->
<g id="node6" class="node">
<title>Node6</title>
<g id="a_node6"><a xlink:href="classcie_1_1geo_1_1Traits.html" target="_top" xlink:title=" ">
<polygon fill="white" stroke="black" points="163,-495.5 163,-563.5 317,-563.5 317,-495.5 163,-495.5"/>
<text text-anchor="start" x="171" y="-551.5" font-family="Helvetica,sans-Serif" font-size="10.00">cie::geo::Traits&lt; Dimension,</text>
<text text-anchor="middle" x="240" y="-540.5" font-family="Helvetica,sans-Serif" font-size="10.00"> Double &gt;</text>
<polyline fill="none" stroke="black" points="163,-533.5 317,-533.5 "/>
<text text-anchor="start" x="171" y="-521.5" font-family="Helvetica,sans-Serif" font-size="10.00">+ Dimension</text>
<polyline fill="none" stroke="black" points="163,-514.5 317,-514.5 "/>
<text text-anchor="middle" x="240" y="-502.5" font-family="Helvetica,sans-Serif" font-size="10.00"> </text>
</a>
</g>
</g>
<!-- Node4&#45;&gt;Node6 -->
<g id="edge6" class="edge">
<title>Node4&#45;&gt;Node6</title>
<path fill="none" stroke="orange" d="M211.57,-604.29C215.01,-600.72 218.21,-596.95 221,-593 227.09,-584.39 231.27,-573.79 234.11,-563.78"/>
<polygon fill="orange" stroke="orange" points="209,-601.9 204.18,-611.33 213.83,-606.96 209,-601.9"/>
<text text-anchor="middle" x="286.5" y="-585" font-family="Helvetica,sans-Serif" font-size="10.00"> &lt; Dimension, Double &gt;</text>
</g>
<!-- Node5 -->
<g id="node5" class="node">
<title>Node5</title>
<g id="a_node5"><a xlink:href="classcie_1_1geo_1_1AbsPrimitive.html" target="_top" xlink:title=" ">
<polygon fill="white" stroke="black" points="143.5,-310.5 143.5,-389.5 316.5,-389.5 316.5,-310.5 143.5,-310.5"/>
<text text-anchor="start" x="151.5" y="-377.5" font-family="Helvetica,sans-Serif" font-size="10.00">cie::geo::AbsPrimitive</text>
<text text-anchor="middle" x="230" y="-366.5" font-family="Helvetica,sans-Serif" font-size="10.00">&lt; Dimension, CoordinateType &gt;</text>
<polyline fill="none" stroke="black" points="143.5,-359.5 316.5,-359.5 "/>
<text text-anchor="middle" x="230" y="-347.5" font-family="Helvetica,sans-Serif" font-size="10.00"> </text>
<polyline fill="none" stroke="black" points="143.5,-340.5 316.5,-340.5 "/>
<text text-anchor="start" x="151.5" y="-328.5" font-family="Helvetica,sans-Serif" font-size="10.00">+ ~AbsPrimitive()</text>
<text text-anchor="start" x="151.5" y="-317.5" font-family="Helvetica,sans-Serif" font-size="10.00">+ isDegenerate()</text>
</a>
</g>
</g>
<!-- Node5&#45;&gt;Node2 -->
<g id="edge4" class="edge">
<title>Node5&#45;&gt;Node2</title>
<path fill="none" stroke="orange" d="M191.65,-302.46C180.84,-289.34 169.2,-275.21 158.82,-262.61"/>
<polygon fill="orange" stroke="orange" points="189.2,-304.98 198.26,-310.48 194.6,-300.53 189.2,-304.98"/>
<text text-anchor="middle" x="240.5" y="-284" font-family="Helvetica,sans-Serif" font-size="10.00"> &lt; Dimension, Double &gt;</text>
</g>
<!-- Node6&#45;&gt;Node5 -->
<g id="edge5" class="edge">
<title>Node6&#45;&gt;Node5</title>
<path fill="none" stroke="midnightblue" d="M237.54,-484.83C235.9,-455.73 233.77,-417.83 232.19,-389.8"/>
<polygon fill="none" stroke="midnightblue" points="234.06,-485.33 238.12,-495.11 241.05,-484.93 234.06,-485.33"/>
</g>
</g>
</svg>
