<?xml version="1.0" encoding="UTF-8" standalone="no"?>
<!DOCTYPE svg PUBLIC "-//W3C//DTD SVG 1.1//EN"
 "http://www.w3.org/Graphics/SVG/1.1/DTD/svg11.dtd">
<!-- Generated by graphviz version 2.43.0 (0)
 -->
<!-- Title: cie::geo::Sphere&lt; Dimension, CoordinateType &gt; Pages: 1 -->
<!--zoomable 792 -->
<svg id="main" version="1.1" xmlns="http://www.w3.org/2000/svg" xmlns:xlink="http://www.w3.org/1999/xlink" xml:space="preserve" onload="init(evt)">
<style type="text/css"><![CDATA[
.edge:hover path { stroke: red; }
.edge:hover polygon { stroke: red; fill: red; }
]]></style>
<script type="text/javascript"><![CDATA[
var edges = document.getElementsByTagName('g');
if (edges && edges.length) {
  for (var i=0;i<edges.length;i++) {
    if (edges[i].id.substr(0,4)=='edge') {
      edges[i].setAttribute('class','edge');
    }
  }
}
]]></script>
        <defs>
                <circle id="rim" cx="0" cy="0" r="7"/>
                <circle id="rim2" cx="0" cy="0" r="3.5"/>
                <g id="zoomPlus">
                        <use xlink:href="#rim" fill="#404040">
                                <set attributeName="fill" to="#808080" begin="zoomplus.mouseover" end="zoomplus.mouseout"/>
                        </use>
                        <path d="M-4,0h8M0,-4v8" fill="none" stroke="white" stroke-width="1.5" pointer-events="none"/>
                </g>
                <g id="zoomMin">
                        <use xlink:href="#rim" fill="#404040">
                                <set attributeName="fill" to="#808080" begin="zoomminus.mouseover" end="zoomminus.mouseout"/>
                        </use>
                        <path d="M-4,0h8" fill="none" stroke="white" stroke-width="1.5" pointer-events="none"/>
                </g>
                <g id="dirArrow">
                        <path fill="none" stroke="white" stroke-width="1.5" d="M0,-3.0v7 M-2.5,-0.5L0,-3.0L2.5,-0.5"/>
                </g>
               <g id="resetDef">
                       <use xlink:href="#rim2" fill="#404040">
                               <set attributeName="fill" to="#808080" begin="reset.mouseover" end="reset.mouseout"/>
                       </use>
               </g>
        </defs>

<script type="text/javascript">
var viewWidth = 354;
var viewHeight = 792;
var sectionId = 'dynsection-1';
</script>
<script xlink:href="svgpan.js"/>
<svg id="graph" class="graph">
<g id="viewport">
<title>cie::geo::Sphere&lt; Dimension, CoordinateType &gt;</title>
<polygon fill="white" stroke="transparent" points="-4,4 -4,-788 350,-788 350,4 -4,4"/>
<!-- Node1 -->
<g id="node1" class="node">
<title>Node1</title>
<g id="a_node1"><a xlink:title=" ">
<polygon fill="#bfbfbf" stroke="black" points="155.5,-0.5 155.5,-134.5 316.5,-134.5 316.5,-0.5 155.5,-0.5"/>
<text text-anchor="start" x="163.5" y="-122.5" font-family="Helvetica,sans-Serif" font-size="10.00">cie::geo::Sphere&lt; Dimension,</text>
<text text-anchor="middle" x="236" y="-111.5" font-family="Helvetica,sans-Serif" font-size="10.00"> CoordinateType &gt;</text>
<polyline fill="none" stroke="black" points="155.5,-104.5 316.5,-104.5 "/>
<text text-anchor="middle" x="236" y="-92.5" font-family="Helvetica,sans-Serif" font-size="10.00"> </text>
<polyline fill="none" stroke="black" points="155.5,-85.5 316.5,-85.5 "/>
<text text-anchor="start" x="163.5" y="-73.5" font-family="Helvetica,sans-Serif" font-size="10.00">+ Sphere()</text>
<text text-anchor="start" x="163.5" y="-62.5" font-family="Helvetica,sans-Serif" font-size="10.00">+ Sphere()</text>
<text text-anchor="start" x="163.5" y="-51.5" font-family="Helvetica,sans-Serif" font-size="10.00">+ isDegenerate()</text>
<text text-anchor="start" x="163.5" y="-40.5" font-family="Helvetica,sans-Serif" font-size="10.00">+ center()</text>
<text text-anchor="start" x="163.5" y="-29.5" font-family="Helvetica,sans-Serif" font-size="10.00">+ center()</text>
<text text-anchor="start" x="163.5" y="-18.5" font-family="Helvetica,sans-Serif" font-size="10.00">+ radius()</text>
<text text-anchor="start" x="163.5" y="-7.5" font-family="Helvetica,sans-Serif" font-size="10.00">+ radius()</text>
</a>
</g>
</g>
<!-- Node2 -->
<g id="node2" class="node">
<title>Node2</title>
<g id="a_node2"><a xlink:href="classcie_1_1geo_1_1AbsPrimitive.html" target="_top" xlink:title=" ">
<polygon fill="white" stroke="black" points="61,-182.5 61,-261.5 193,-261.5 193,-182.5 61,-182.5"/>
<text text-anchor="start" x="69" y="-249.5" font-family="Helvetica,sans-Serif" font-size="10.00">cie::geo::AbsPrimitive</text>
<text text-anchor="middle" x="127" y="-238.5" font-family="Helvetica,sans-Serif" font-size="10.00">&lt; Dimension, Double &gt;</text>
<polyline fill="none" stroke="black" points="61,-231.5 193,-231.5 "/>
<text text-anchor="middle" x="127" y="-219.5" font-family="Helvetica,sans-Serif" font-size="10.00"> </text>
<polyline fill="none" stroke="black" points="61,-212.5 193,-212.5 "/>
<text text-anchor="start" x="69" y="-200.5" font-family="Helvetica,sans-Serif" font-size="10.00">+ ~AbsPrimitive()</text>
<text text-anchor="start" x="69" y="-189.5" font-family="Helvetica,sans-Serif" font-size="10.00">+ isDegenerate()</text>
</a>
</g>
</g>
<!-- Node2&#45;&gt;Node1 -->
<g id="edge1" class="edge">
<title>Node2&#45;&gt;Node1</title>
<path fill="none" stroke="midnightblue" d="M160.77,-173.75C169.63,-161.35 179.36,-147.75 188.78,-134.56"/>
<polygon fill="none" stroke="midnightblue" points="157.75,-171.95 154.79,-182.12 163.45,-176.02 157.75,-171.95"/>
</g>
<!-- Node3 -->
<g id="node3" class="node">
<title>Node3</title>
<g id="a_node3"><a xlink:href="classcie_1_1geo_1_1Traits.html" target="_top" xlink:title=" ">
<polygon fill="white" stroke="black" points="0,-407.5 0,-475.5 154,-475.5 154,-407.5 0,-407.5"/>
<text text-anchor="start" x="8" y="-463.5" font-family="Helvetica,sans-Serif" font-size="10.00">cie::geo::Traits&lt; Dimension,</text>
<text text-anchor="middle" x="77" y="-452.5" font-family="Helvetica,sans-Serif" font-size="10.00"> CoordinateType &gt;</text>
<polyline fill="none" stroke="black" points="0,-445.5 154,-445.5 "/>
<text text-anchor="start" x="8" y="-433.5" font-family="Helvetica,sans-Serif" font-size="10.00">+ Dimension</text>
<polyline fill="none" stroke="black" points="0,-426.5 154,-426.5 "/>
<text text-anchor="middle" x="77" y="-414.5" font-family="Helvetica,sans-Serif" font-size="10.00"> </text>
</a>
</g>
</g>
<!-- Node3&#45;&gt;Node2 -->
<g id="edge2" class="edge">
<title>Node3&#45;&gt;Node2</title>
<path fill="none" stroke="midnightblue" d="M86.86,-397.6C95.94,-358.11 109.29,-300.03 118.07,-261.87"/>
<polygon fill="none" stroke="midnightblue" points="83.42,-396.94 84.59,-407.47 90.25,-398.5 83.42,-396.94"/>
</g>
<!-- Node4 -->
<g id="node4" class="node">
<title>Node4</title>
<g id="a_node4"><a xlink:href="classcie_1_1geo_1_1Traits.html" target="_top" xlink:title="Basic templated traits that every object has in GEO.">
<polygon fill="white" stroke="black" points="90,-610.5 90,-678.5 212,-678.5 212,-610.5 90,-610.5"/>
<text text-anchor="start" x="98" y="-666.5" font-family="Helvetica,sans-Serif" font-size="10.00">cie::geo::Traits&lt; Dim,</text>
<text text-anchor="middle" x="151" y="-655.5" font-family="Helvetica,sans-Serif" font-size="10.00"> TCoordinate &gt;</text>
<polyline fill="none" stroke="black" points="90,-648.5 212,-648.5 "/>
<text text-anchor="middle" x="151" y="-636.5" font-family="Helvetica,sans-Serif" font-size="10.00"> </text>
<polyline fill="none" stroke="black" points="90,-629.5 212,-629.5 "/>
<text text-anchor="middle" x="151" y="-617.5" font-family="Helvetica,sans-Serif" font-size="10.00"> </text>
</a>
</g>
</g>
<!-- Node4&#45;&gt;Node3 -->
<g id="edge3" class="edge">
<title>Node4&#45;&gt;Node3</title>
<path fill="none" stroke="orange" d="M80.94,-616.66C71.39,-610.03 62.87,-601.91 57,-592 35.91,-556.4 48.47,-507.8 61.18,-475.8"/>
<polygon fill="orange" stroke="orange" points="79.24,-619.72 89.56,-622.11 82.98,-613.81 79.24,-619.72"/>
<text text-anchor="middle" x="137" y="-584" font-family="Helvetica,sans-Serif" font-size="10.00"> &lt; Dimension, CoordinateType &gt;</text>
</g>
<!-- Node7 -->
<g id="node7" class="node">
<title>Node7</title>
<g id="a_node7"><a xlink:href="classcie_1_1geo_1_1Traits.html" target="_top" xlink:title=" ">
<polygon fill="white" stroke="black" points="163,-494.5 163,-562.5 317,-562.5 317,-494.5 163,-494.5"/>
<text text-anchor="start" x="171" y="-550.5" font-family="Helvetica,sans-Serif" font-size="10.00">cie::geo::Traits&lt; Dimension,</text>
<text text-anchor="middle" x="240" y="-539.5" font-family="Helvetica,sans-Serif" font-size="10.00"> Double &gt;</text>
<polyline fill="none" stroke="black" points="163,-532.5 317,-532.5 "/>
<text text-anchor="start" x="171" y="-520.5" font-family="Helvetica,sans-Serif" font-size="10.00">+ Dimension</text>
<polyline fill="none" stroke="black" points="163,-513.5 317,-513.5 "/>
<text text-anchor="middle" x="240" y="-501.5" font-family="Helvetica,sans-Serif" font-size="10.00"> </text>
</a>
</g>
</g>
<!-- Node4&#45;&gt;Node7 -->
<g id="edge7" class="edge">
<title>Node4&#45;&gt;Node7</title>
<path fill="none" stroke="orange" d="M211.57,-603.29C215.01,-599.72 218.21,-595.95 221,-592 227.09,-583.39 231.27,-572.79 234.11,-562.78"/>
<polygon fill="orange" stroke="orange" points="209,-600.9 204.18,-610.33 213.83,-605.96 209,-600.9"/>
<text text-anchor="middle" x="286.5" y="-584" font-family="Helvetica,sans-Serif" font-size="10.00"> &lt; Dimension, Double &gt;</text>
</g>
<!-- Node5 -->
<g id="node5" class="node">
<title>Node5</title>
<g id="a_node5"><a xlink:title=" ">
<polygon fill="white" stroke="#bfbfbf" points="128.5,-726.5 128.5,-783.5 173.5,-783.5 173.5,-726.5 128.5,-726.5"/>
<text text-anchor="middle" x="151" y="-771.5" font-family="Helvetica,sans-Serif" font-size="10.00">size_t</text>
<polyline fill="none" stroke="#bfbfbf" points="128.5,-764.5 173.5,-764.5 "/>
<text text-anchor="middle" x="151" y="-752.5" font-family="Helvetica,sans-Serif" font-size="10.00"> </text>
<polyline fill="none" stroke="#bfbfbf" points="128.5,-745.5 173.5,-745.5 "/>
<text text-anchor="middle" x="151" y="-733.5" font-family="Helvetica,sans-Serif" font-size="10.00"> </text>
</a>
</g>
</g>
<!-- Node5&#45;&gt;Node4 -->
<g id="edge4" class="edge">
<title>Node5&#45;&gt;Node4</title>
<path fill="none" stroke="#404040" d="M151,-726.34C151,-715.53 151,-702.85 151,-690.77"/>
<polygon fill="none" stroke="#404040" points="151,-690.52 147,-684.52 151,-678.52 155,-684.52 151,-690.52"/>
<text text-anchor="middle" x="183" y="-700" font-family="Helvetica,sans-Serif" font-size="10.00"> +Dimension</text>
</g>
<!-- Node6 -->
<g id="node6" class="node">
<title>Node6</title>
<g id="a_node6"><a xlink:href="classcie_1_1geo_1_1AbsPrimitive.html" target="_top" xlink:title=" ">
<polygon fill="white" stroke="black" points="143.5,-309.5 143.5,-388.5 316.5,-388.5 316.5,-309.5 143.5,-309.5"/>
<text text-anchor="start" x="151.5" y="-376.5" font-family="Helvetica,sans-Serif" font-size="10.00">cie::geo::AbsPrimitive</text>
<text text-anchor="middle" x="230" y="-365.5" font-family="Helvetica,sans-Serif" font-size="10.00">&lt; Dimension, CoordinateType &gt;</text>
<polyline fill="none" stroke="black" points="143.5,-358.5 316.5,-358.5 "/>
<text text-anchor="middle" x="230" y="-346.5" font-family="Helvetica,sans-Serif" font-size="10.00"> </text>
<polyline fill="none" stroke="black" points="143.5,-339.5 316.5,-339.5 "/>
<text text-anchor="start" x="151.5" y="-327.5" font-family="Helvetica,sans-Serif" font-size="10.00">+ ~AbsPrimitive()</text>
<text text-anchor="start" x="151.5" y="-316.5" font-family="Helvetica,sans-Serif" font-size="10.00">+ isDegenerate()</text>
</a>
</g>
</g>
<!-- Node6&#45;&gt;Node2 -->
<g id="edge5" class="edge">
<title>Node6&#45;&gt;Node2</title>
<path fill="none" stroke="orange" d="M191.65,-301.46C180.84,-288.34 169.2,-274.21 158.82,-261.61"/>
<polygon fill="orange" stroke="orange" points="189.2,-303.98 198.26,-309.48 194.6,-299.53 189.2,-303.98"/>
<text text-anchor="middle" x="241.5" y="-283" font-family="Helvetica,sans-Serif" font-size="10.00"> &lt; Dimension, Double &gt;</text>
</g>
<!-- Node7&#45;&gt;Node6 -->
<g id="edge6" class="edge">
<title>Node7&#45;&gt;Node6</title>
<path fill="none" stroke="midnightblue" d="M237.54,-483.83C235.9,-454.73 233.77,-416.83 232.19,-388.8"/>
<polygon fill="none" stroke="midnightblue" points="234.06,-484.33 238.12,-494.11 241.05,-483.93 234.06,-484.33"/>
</g>
<!-- Node8 -->
<g id="node8" class="node">
<title>Node8</title>
<g id="a_node8"><a xlink:title=" ">
<polygon fill="white" stroke="#bfbfbf" points="211,-193.5 211,-250.5 261,-250.5 261,-193.5 211,-193.5"/>
<text text-anchor="middle" x="236" y="-238.5" font-family="Helvetica,sans-Serif" font-size="10.00">double</text>
<polyline fill="none" stroke="#bfbfbf" points="211,-231.5 261,-231.5 "/>
<text text-anchor="middle" x="236" y="-219.5" font-family="Helvetica,sans-Serif" font-size="10.00"> </text>
<polyline fill="none" stroke="#bfbfbf" points="211,-212.5 261,-212.5 "/>
<text text-anchor="middle" x="236" y="-200.5" font-family="Helvetica,sans-Serif" font-size="10.00"> </text>
</a>
</g>
</g>
<!-- Node8&#45;&gt;Node1 -->
<g id="edge8" class="edge">
<title>Node8&#45;&gt;Node1</title>
<path fill="none" stroke="#404040" d="M236,-193.38C236,-180.12 236,-163.49 236,-146.74"/>
<polygon fill="none" stroke="#404040" points="236,-146.56 232,-140.56 236,-134.56 240,-140.56 236,-146.56"/>
<text text-anchor="middle" x="259.5" y="-156" font-family="Helvetica,sans-Serif" font-size="10.00"> #_radius</text>
</g>
<!-- Node9 -->
<g id="node9" class="node">
<title>Node9</title>
<g id="a_node9"><a xlink:title=" ">
<polygon fill="white" stroke="#bfbfbf" points="285.5,-193.5 285.5,-250.5 326.5,-250.5 326.5,-193.5 285.5,-193.5"/>
<text text-anchor="middle" x="306" y="-238.5" font-family="Helvetica,sans-Serif" font-size="10.00">Point</text>
<polyline fill="none" stroke="#bfbfbf" points="285.5,-231.5 326.5,-231.5 "/>
<text text-anchor="middle" x="306" y="-219.5" font-family="Helvetica,sans-Serif" font-size="10.00"> </text>
<polyline fill="none" stroke="#bfbfbf" points="285.5,-212.5 326.5,-212.5 "/>
<text text-anchor="middle" x="306" y="-200.5" font-family="Helvetica,sans-Serif" font-size="10.00"> </text>
</a>
</g>
</g>
<!-- Node9&#45;&gt;Node1 -->
<g id="edge9" class="edge">
<title>Node9&#45;&gt;Node1</title>
<path fill="none" stroke="#404040" d="M298.46,-193.39C294.69,-180.85 289.7,-165.95 284,-153 282.92,-150.55 281.8,-148.09 280.63,-145.61"/>
<polygon fill="none" stroke="#404040" points="280.57,-145.5 274.34,-141.88 275.28,-134.73 281.52,-138.35 280.57,-145.5"/>
<text text-anchor="middle" x="312" y="-156" font-family="Helvetica,sans-Serif" font-size="10.00"> #_center</text>
</g>
</g>
</svg>
        <g id="navigator" transform="translate(0 0)" fill="#404254">
                <rect fill="#f2f5e9" fill-opacity="0.5" stroke="#606060" stroke-width=".5" x="0" y="0" width="60" height="60"/>
                <use id="zoomplus" xlink:href="#zoomPlus" x="17" y="9" onmousedown="handleZoom(evt,'in')"/>
                <use id="zoomminus" xlink:href="#zoomMin" x="42" y="9" onmousedown="handleZoom(evt,'out')"/>
                <use id="reset" xlink:href="#resetDef" x="30" y="36" onmousedown="handleReset()"/>
                <g id="arrowUp" xlink:href="#dirArrow" transform="translate(30 24)" onmousedown="handlePan(0,-1)">
                  <use xlink:href="#rim" fill="#404040">
                        <set attributeName="fill" to="#808080" begin="arrowUp.mouseover" end="arrowUp.mouseout"/>
                  </use>
                  <path fill="none" stroke="white" stroke-width="1.5" d="M0,-3.0v7 M-2.5,-0.5L0,-3.0L2.5,-0.5"/>
                </g>
                <g id="arrowRight" xlink:href="#dirArrow" transform="rotate(90) translate(36 -43)" onmousedown="handlePan(1,0)">
                  <use xlink:href="#rim" fill="#404040">
                        <set attributeName="fill" to="#808080" begin="arrowRight.mouseover" end="arrowRight.mouseout"/>
                  </use>
                  <path fill="none" stroke="white" stroke-width="1.5" d="M0,-3.0v7 M-2.5,-0.5L0,-3.0L2.5,-0.5"/>
                </g>
                <g id="arrowDown" xlink:href="#dirArrow" transform="rotate(180) translate(-30 -48)" onmousedown="handlePan(0,1)">
                  <use xlink:href="#rim" fill="#404040">
                        <set attributeName="fill" to="#808080" begin="arrowDown.mouseover" end="arrowDown.mouseout"/>
                  </use>
                  <path fill="none" stroke="white" stroke-width="1.5" d="M0,-3.0v7 M-2.5,-0.5L0,-3.0L2.5,-0.5"/>
                </g>
                <g id="arrowLeft" xlink:href="#dirArrow" transform="rotate(270) translate(-36 17)" onmousedown="handlePan(-1,0)">
                  <use xlink:href="#rim" fill="#404040">
                        <set attributeName="fill" to="#808080" begin="arrowLeft.mouseover" end="arrowLeft.mouseout"/>
                  </use>
                  <path fill="none" stroke="white" stroke-width="1.5" d="M0,-3.0v7 M-2.5,-0.5L0,-3.0L2.5,-0.5"/>
                </g>
        </g>
        <svg viewBox="0 0 15 15" width="100%" height="30px" preserveAspectRatio="xMaxYMin meet">
         <g id="arrow_out" transform="scale(0.3 0.3)">
          <a xlink:href="classcie_1_1geo_1_1Sphere__coll__graph_org.svg" target="_base">
           <rect id="button" ry="5" rx="5" y="6" x="6" height="38" width="38"
                fill="#f2f5e9" fill-opacity="0.5" stroke="#606060" stroke-width="1.0"/>
           <path id="arrow"
             d="M 11.500037,31.436501 C 11.940474,20.09759 22.043105,11.32322 32.158766,21.979434 L 37.068811,17.246167 C 37.068811,17.246167 37.088388,32 37.088388,32 L 22.160133,31.978069 C 22.160133,31.978069 26.997745,27.140456 26.997745,27.140456 C 18.528582,18.264221 13.291696,25.230495 11.500037,31.436501 z"
             style="fill:#404040;"/>
          </a>
         </g>
        </svg>
</svg>
