<?xml version="1.0" encoding="UTF-8" standalone="no"?>
<!DOCTYPE svg PUBLIC "-//W3C//DTD SVG 1.1//EN"
 "http://www.w3.org/Graphics/SVG/1.1/DTD/svg11.dtd">
<!-- Generated by graphviz version 2.43.0 (0)
 -->
<!-- Title: ContiguousSpaceTree.hpp Pages: 1 -->
<svg width="1325pt" height="463pt"
 viewBox="0.00 0.00 1325.00 463.00" xmlns="http://www.w3.org/2000/svg" xmlns:xlink="http://www.w3.org/1999/xlink">
<g id="graph0" class="graph" transform="scale(1 1) rotate(0) translate(4 459)">
<title>ContiguousSpaceTree.hpp</title>
<polygon fill="white" stroke="transparent" points="-4,4 -4,-459 1321,-459 1321,4 -4,4"/>
<!-- Node1 -->
<g id="node1" class="node">
<title>Node1</title>
<g id="a_node1"><a xlink:title=" ">
<polygon fill="#bfbfbf" stroke="black" points="678,-435.5 678,-454.5 820,-454.5 820,-435.5 678,-435.5"/>
<text text-anchor="middle" x="749" y="-442.5" font-family="Helvetica,sans-Serif" font-size="10.00">ContiguousSpaceTree.hpp</text>
</a>
</g>
</g>
<!-- Node2 -->
<g id="node2" class="node">
<title>Node2</title>
<g id="a_node2"><a target="_parent" xlink:href="../../../cieutils/docs/html/typedefs_8hpp.html.html" xlink:title=" ">
<polygon fill="white" stroke="black" points="180.5,-78.5 180.5,-108.5 299.5,-108.5 299.5,-78.5 180.5,-78.5"/>
<text text-anchor="start" x="188.5" y="-96.5" font-family="Helvetica,sans-Serif" font-size="10.00">packages/macros/inc</text>
<text text-anchor="middle" x="240" y="-85.5" font-family="Helvetica,sans-Serif" font-size="10.00">/typedefs.hpp</text>
</a>
</g>
</g>
<!-- Node1&#45;&gt;Node2 -->
<g id="edge1" class="edge">
<title>Node1&#45;&gt;Node2</title>
<path fill="none" stroke="midnightblue" d="M677.79,-442.87C512.79,-439.76 114.36,-429.18 62,-399 19.12,-374.29 0,-355.99 0,-306.5 0,-306.5 0,-306.5 0,-237.5 0,-157.48 99.69,-121.2 170.57,-105.53"/>
<polygon fill="midnightblue" stroke="midnightblue" points="171.31,-108.95 180.37,-103.45 169.86,-102.1 171.31,-108.95"/>
</g>
<!-- Node3 -->
<g id="node3" class="node">
<title>Node3</title>
<g id="a_node3"><a xlink:href="Traits_8hpp.html" target="_top" xlink:title=" ">
<polygon fill="white" stroke="black" points="612.5,-78.5 612.5,-108.5 727.5,-108.5 727.5,-78.5 612.5,-78.5"/>
<text text-anchor="start" x="620.5" y="-96.5" font-family="Helvetica,sans-Serif" font-size="10.00">packages/primitives</text>
<text text-anchor="middle" x="670" y="-85.5" font-family="Helvetica,sans-Serif" font-size="10.00">/inc/Traits.hpp</text>
</a>
</g>
</g>
<!-- Node1&#45;&gt;Node3 -->
<g id="edge2" class="edge">
<title>Node1&#45;&gt;Node3</title>
<path fill="none" stroke="midnightblue" d="M750.09,-435.39C752.28,-419.51 757.87,-384.74 768,-357 774.21,-340.01 782.65,-338.56 787,-321 790.31,-307.63 790.67,-303.28 787,-290 767.86,-220.76 717,-151.37 689.05,-116.89"/>
<polygon fill="midnightblue" stroke="midnightblue" points="691.53,-114.4 682.47,-108.9 686.12,-118.84 691.53,-114.4"/>
</g>
<!-- Node6 -->
<g id="node6" class="node">
<title>Node6</title>
<g id="a_node6"><a target="_parent" xlink:href="../../../cieutils/docs/html/StaticArray_8hpp.html.html" xlink:title=" ">
<polygon fill="white" stroke="black" points="328.5,-6 328.5,-36 459.5,-36 459.5,-6 328.5,-6"/>
<text text-anchor="start" x="336.5" y="-24" font-family="Helvetica,sans-Serif" font-size="10.00">packages/stl_extension</text>
<text text-anchor="middle" x="394" y="-13" font-family="Helvetica,sans-Serif" font-size="10.00">/inc/StaticArray.hpp</text>
</a>
</g>
</g>
<!-- Node1&#45;&gt;Node6 -->
<g id="edge34" class="edge">
<title>Node1&#45;&gt;Node6</title>
<path fill="none" stroke="midnightblue" d="M677.81,-441.75C529.47,-435.29 196.19,-410.86 138,-321 99.68,-261.82 -48.13,-318.18 171,-78 190.83,-56.27 261.75,-41 318.36,-31.95"/>
<polygon fill="midnightblue" stroke="midnightblue" points="319.04,-35.39 328.39,-30.39 317.97,-28.47 319.04,-35.39"/>
</g>
<!-- Node8 -->
<g id="node8" class="node">
<title>Node8</title>
<g id="a_node8"><a xlink:href="Cube_8hpp.html" target="_top" xlink:title=" ">
<polygon fill="white" stroke="black" points="321.5,-363 321.5,-393 436.5,-393 436.5,-363 321.5,-363"/>
<text text-anchor="start" x="329.5" y="-381" font-family="Helvetica,sans-Serif" font-size="10.00">packages/primitives</text>
<text text-anchor="middle" x="379" y="-370" font-family="Helvetica,sans-Serif" font-size="10.00">/inc/Cube.hpp</text>
</a>
</g>
</g>
<!-- Node1&#45;&gt;Node8 -->
<g id="edge7" class="edge">
<title>Node1&#45;&gt;Node8</title>
<path fill="none" stroke="midnightblue" d="M700.25,-435.44C635.31,-424.03 520.11,-403.79 446.75,-390.9"/>
<polygon fill="midnightblue" stroke="midnightblue" points="447.14,-387.42 436.68,-389.13 445.93,-394.31 447.14,-387.42"/>
</g>
<!-- Node17 -->
<g id="node17" class="node">
<title>Node17</title>
<g id="a_node17"><a xlink:href="Box_8hpp.html" target="_top" xlink:title=" ">
<polygon fill="white" stroke="black" points="543.5,-363 543.5,-393 658.5,-393 658.5,-363 543.5,-363"/>
<text text-anchor="start" x="551.5" y="-381" font-family="Helvetica,sans-Serif" font-size="10.00">packages/primitives</text>
<text text-anchor="middle" x="601" y="-370" font-family="Helvetica,sans-Serif" font-size="10.00">/inc/Box.hpp</text>
</a>
</g>
</g>
<!-- Node1&#45;&gt;Node17 -->
<g id="edge25" class="edge">
<title>Node1&#45;&gt;Node17</title>
<path fill="none" stroke="midnightblue" d="M729.35,-435.37C707.23,-425.66 670.69,-409.61 642.25,-397.11"/>
<polygon fill="midnightblue" stroke="midnightblue" points="643.5,-393.84 632.94,-393.03 640.69,-400.25 643.5,-393.84"/>
</g>
<!-- Node19 -->
<g id="node19" class="node">
<title>Node19</title>
<g id="a_node19"><a target="_parent" xlink:href="../../../cieutils/docs/html/ContiguousTree_8hpp.html.html" xlink:title=" ">
<polygon fill="white" stroke="black" points="777,-363 777,-393 893,-393 893,-363 777,-363"/>
<text text-anchor="start" x="785" y="-381" font-family="Helvetica,sans-Serif" font-size="10.00">packages/trees/inc</text>
<text text-anchor="middle" x="835" y="-370" font-family="Helvetica,sans-Serif" font-size="10.00">/ContiguousTree.hpp</text>
</a>
</g>
</g>
<!-- Node1&#45;&gt;Node19 -->
<g id="edge32" class="edge">
<title>Node1&#45;&gt;Node19</title>
<path fill="none" stroke="midnightblue" d="M760.6,-435.23C772.78,-426.03 792.35,-411.23 808.37,-399.13"/>
<polygon fill="midnightblue" stroke="midnightblue" points="810.49,-401.91 816.36,-393.09 806.27,-396.33 810.49,-401.91"/>
</g>
<!-- Node20 -->
<g id="node20" class="node">
<title>Node20</title>
<g id="a_node20"><a target="_parent" xlink:href="../../../cieutils/docs/html/power_8hpp.html.html" xlink:title=" ">
<polygon fill="white" stroke="black" points="911.5,-363 911.5,-393 1024.5,-393 1024.5,-363 911.5,-363"/>
<text text-anchor="start" x="919.5" y="-381" font-family="Helvetica,sans-Serif" font-size="10.00">packages/maths/inc</text>
<text text-anchor="middle" x="968" y="-370" font-family="Helvetica,sans-Serif" font-size="10.00">/power.hpp</text>
</a>
</g>
</g>
<!-- Node1&#45;&gt;Node20 -->
<g id="edge33" class="edge">
<title>Node1&#45;&gt;Node20</title>
<path fill="none" stroke="midnightblue" d="M778.35,-435.44C809.17,-426.44 859.02,-411.83 902,-399 905.31,-398.01 908.72,-396.99 912.15,-395.96"/>
<polygon fill="midnightblue" stroke="midnightblue" points="913.29,-399.27 921.86,-393.04 911.27,-392.57 913.29,-399.27"/>
</g>
<!-- Node21 -->
<g id="node21" class="node">
<title>Node21</title>
<g id="a_node21"><a target="_parent" xlink:href="../../../cieutils/docs/html/integer_8hpp.html.html" xlink:title=" ">
<polygon fill="white" stroke="black" points="1043,-357.5 1043,-398.5 1175,-398.5 1175,-357.5 1043,-357.5"/>
<text text-anchor="start" x="1051" y="-386.5" font-family="Helvetica,sans-Serif" font-size="10.00">packages/compile_time</text>
<text text-anchor="start" x="1051" y="-375.5" font-family="Helvetica,sans-Serif" font-size="10.00">/packages/type_select</text>
<text text-anchor="middle" x="1109" y="-364.5" font-family="Helvetica,sans-Serif" font-size="10.00">/inc/integer.hpp</text>
</a>
</g>
</g>
<!-- Node1&#45;&gt;Node21 -->
<g id="edge35" class="edge">
<title>Node1&#45;&gt;Node21</title>
<path fill="none" stroke="midnightblue" d="M815.58,-435.48C871.19,-427.91 952.73,-415.76 1032.6,-399.19"/>
<polygon fill="midnightblue" stroke="midnightblue" points="1033.77,-402.52 1042.84,-397.04 1032.33,-395.67 1033.77,-402.52"/>
</g>
<!-- Node22 -->
<g id="node22" class="node">
<title>Node22</title>
<g id="a_node22"><a xlink:title=" ">
<polygon fill="white" stroke="#bfbfbf" points="1193,-357.5 1193,-398.5 1317,-398.5 1317,-357.5 1193,-357.5"/>
<text text-anchor="start" x="1201" y="-386.5" font-family="Helvetica,sans-Serif" font-size="10.00">packages/trees/impl</text>
<text text-anchor="start" x="1201" y="-375.5" font-family="Helvetica,sans-Serif" font-size="10.00">/ContiguousSpaceTree</text>
<text text-anchor="middle" x="1255" y="-364.5" font-family="Helvetica,sans-Serif" font-size="10.00">_impl.hpp</text>
</a>
</g>
</g>
<!-- Node1&#45;&gt;Node22 -->
<g id="edge36" class="edge">
<title>Node1&#45;&gt;Node22</title>
<path fill="none" stroke="midnightblue" d="M820.37,-440.38C904.88,-435.25 1049.93,-423.8 1182.85,-399.05"/>
<polygon fill="midnightblue" stroke="midnightblue" points="1183.63,-402.47 1192.81,-397.17 1182.33,-395.59 1183.63,-402.47"/>
</g>
<!-- Node4 -->
<g id="node4" class="node">
<title>Node4</title>
<g id="a_node4"><a target="_parent" xlink:href="../../../cieutils/docs/html/types_8hpp.html.html" xlink:title=" ">
<polygon fill="white" stroke="black" points="568,-6 568,-36 678,-36 678,-6 568,-6"/>
<text text-anchor="start" x="576" y="-24" font-family="Helvetica,sans-Serif" font-size="10.00">packages/types/inc</text>
<text text-anchor="middle" x="623" y="-13" font-family="Helvetica,sans-Serif" font-size="10.00">/types.hpp</text>
</a>
</g>
</g>
<!-- Node3&#45;&gt;Node4 -->
<g id="edge3" class="edge">
<title>Node3&#45;&gt;Node4</title>
<path fill="none" stroke="midnightblue" d="M660.49,-78.23C654.05,-68.58 645.42,-55.63 638.06,-44.59"/>
<polygon fill="midnightblue" stroke="midnightblue" points="640.96,-42.62 632.5,-36.25 635.13,-46.51 640.96,-42.62"/>
</g>
<!-- Node5 -->
<g id="node5" class="node">
<title>Node5</title>
<g id="a_node5"><a target="_parent" xlink:href="../../../cieutils/docs/html/container__concepts_8hpp.html.html" xlink:title=" ">
<polygon fill="white" stroke="black" points="46.5,-0.5 46.5,-41.5 181.5,-41.5 181.5,-0.5 46.5,-0.5"/>
<text text-anchor="start" x="54.5" y="-29.5" font-family="Helvetica,sans-Serif" font-size="10.00">packages/compile_time</text>
<text text-anchor="start" x="54.5" y="-18.5" font-family="Helvetica,sans-Serif" font-size="10.00">/packages/concepts/inc</text>
<text text-anchor="middle" x="114" y="-7.5" font-family="Helvetica,sans-Serif" font-size="10.00">/container_concepts.hpp</text>
</a>
</g>
</g>
<!-- Node3&#45;&gt;Node5 -->
<g id="edge4" class="edge">
<title>Node3&#45;&gt;Node5</title>
<path fill="none" stroke="midnightblue" d="M612.25,-84.38C596.9,-82.26 580.33,-80.01 565,-78 434.12,-60.84 281.69,-42.19 191.77,-31.33"/>
<polygon fill="midnightblue" stroke="midnightblue" points="192,-27.83 181.66,-30.11 191.17,-34.78 192,-27.83"/>
</g>
<!-- Node3&#45;&gt;Node6 -->
<g id="edge5" class="edge">
<title>Node3&#45;&gt;Node6</title>
<path fill="none" stroke="midnightblue" d="M615.14,-78.49C570.23,-67.02 506.59,-50.76 459.1,-38.63"/>
<polygon fill="midnightblue" stroke="midnightblue" points="459.78,-35.19 449.23,-36.11 458.05,-41.97 459.78,-35.19"/>
</g>
<!-- Node7 -->
<g id="node7" class="node">
<title>Node7</title>
<g id="a_node7"><a xlink:title=" ">
<polygon fill="white" stroke="#bfbfbf" points="754,-11.5 754,-30.5 796,-30.5 796,-11.5 754,-11.5"/>
<text text-anchor="middle" x="775" y="-18.5" font-family="Helvetica,sans-Serif" font-size="10.00">array</text>
</a>
</g>
</g>
<!-- Node3&#45;&gt;Node7 -->
<g id="edge6" class="edge">
<title>Node3&#45;&gt;Node7</title>
<path fill="none" stroke="midnightblue" d="M691,-78.4C709.22,-66.17 735.49,-48.53 753.78,-36.25"/>
<polygon fill="midnightblue" stroke="midnightblue" points="755.94,-39.01 762.29,-30.53 752.04,-33.2 755.94,-39.01"/>
</g>
<!-- Node8&#45;&gt;Node5 -->
<g id="edge8" class="edge">
<title>Node8&#45;&gt;Node5</title>
<path fill="none" stroke="midnightblue" d="M321.49,-369.79C259.27,-360.94 165.28,-344.2 138,-321 53.73,-249.32 56.27,-185.1 84,-78 86.46,-68.51 90.82,-58.86 95.48,-50.31"/>
<polygon fill="midnightblue" stroke="midnightblue" points="98.58,-51.92 100.56,-41.52 92.53,-48.42 98.58,-51.92"/>
</g>
<!-- Node8&#45;&gt;Node7 -->
<g id="edge23" class="edge">
<title>Node8&#45;&gt;Node7</title>
<path fill="none" stroke="midnightblue" d="M395.49,-362.94C420.4,-341.78 466.56,-302.84 484,-290 602.74,-202.6 682.32,-233.05 762,-109 775.19,-88.46 776.98,-59.66 776.46,-40.91"/>
<polygon fill="midnightblue" stroke="midnightblue" points="779.94,-40.51 775.92,-30.71 772.95,-40.88 779.94,-40.51"/>
</g>
<!-- Node9 -->
<g id="node9" class="node">
<title>Node9</title>
<g id="a_node9"><a xlink:href="Primitive_8hpp.html" target="_top" xlink:title=" ">
<polygon fill="white" stroke="black" points="355.5,-223.5 355.5,-253.5 470.5,-253.5 470.5,-223.5 355.5,-223.5"/>
<text text-anchor="start" x="363.5" y="-241.5" font-family="Helvetica,sans-Serif" font-size="10.00">packages/primitives</text>
<text text-anchor="middle" x="413" y="-230.5" font-family="Helvetica,sans-Serif" font-size="10.00">/inc/Primitive.hpp</text>
</a>
</g>
</g>
<!-- Node8&#45;&gt;Node9 -->
<g id="edge9" class="edge">
<title>Node8&#45;&gt;Node9</title>
<path fill="none" stroke="midnightblue" d="M354.72,-362.88C329.28,-346.2 295.16,-317.24 312,-290 320.83,-275.71 335.07,-265.32 350.11,-257.83"/>
<polygon fill="midnightblue" stroke="midnightblue" points="351.89,-260.87 359.53,-253.54 348.98,-254.5 351.89,-260.87"/>
</g>
<!-- Node14 -->
<g id="node14" class="node">
<title>Node14</title>
<g id="a_node14"><a xlink:href="primitives_2inc_2concepts_8hpp.html" target="_top" xlink:title=" ">
<polygon fill="white" stroke="black" points="321.5,-290.5 321.5,-320.5 436.5,-320.5 436.5,-290.5 321.5,-290.5"/>
<text text-anchor="start" x="329.5" y="-308.5" font-family="Helvetica,sans-Serif" font-size="10.00">packages/primitives</text>
<text text-anchor="middle" x="379" y="-297.5" font-family="Helvetica,sans-Serif" font-size="10.00">/inc/concepts.hpp</text>
</a>
</g>
</g>
<!-- Node8&#45;&gt;Node14 -->
<g id="edge19" class="edge">
<title>Node8&#45;&gt;Node14</title>
<path fill="none" stroke="midnightblue" d="M379,-362.73C379,-353.66 379,-341.66 379,-331.08"/>
<polygon fill="midnightblue" stroke="midnightblue" points="382.5,-330.75 379,-320.75 375.5,-330.75 382.5,-330.75"/>
</g>
<!-- Node15 -->
<g id="node15" class="node">
<title>Node15</title>
<g id="a_node15"><a xlink:title=" ">
<polygon fill="white" stroke="#bfbfbf" points="493.5,-296 493.5,-315 534.5,-315 534.5,-296 493.5,-296"/>
<text text-anchor="middle" x="514" y="-303" font-family="Helvetica,sans-Serif" font-size="10.00">tuple</text>
</a>
</g>
</g>
<!-- Node8&#45;&gt;Node15 -->
<g id="edge22" class="edge">
<title>Node8&#45;&gt;Node15</title>
<path fill="none" stroke="midnightblue" d="M405.99,-362.9C430.07,-350.33 465.06,-332.06 488.63,-319.75"/>
<polygon fill="midnightblue" stroke="midnightblue" points="490.42,-322.77 497.66,-315.03 487.17,-316.56 490.42,-322.77"/>
</g>
<!-- Node16 -->
<g id="node16" class="node">
<title>Node16</title>
<g id="a_node16"><a xlink:title=" ">
<polygon fill="white" stroke="#bfbfbf" points="147.5,-290.5 147.5,-320.5 264.5,-320.5 264.5,-290.5 147.5,-290.5"/>
<text text-anchor="start" x="155.5" y="-308.5" font-family="Helvetica,sans-Serif" font-size="10.00">packages/primitives</text>
<text text-anchor="middle" x="206" y="-297.5" font-family="Helvetica,sans-Serif" font-size="10.00">/impl/Cube_impl.hpp</text>
</a>
</g>
</g>
<!-- Node8&#45;&gt;Node16 -->
<g id="edge24" class="edge">
<title>Node8&#45;&gt;Node16</title>
<path fill="none" stroke="midnightblue" d="M344.41,-362.9C317.3,-351.86 279.4,-336.41 250.11,-324.47"/>
<polygon fill="midnightblue" stroke="midnightblue" points="251.11,-321.11 240.53,-320.57 248.47,-327.59 251.11,-321.11"/>
</g>
<!-- Node10 -->
<g id="node10" class="node">
<title>Node10</title>
<g id="a_node10"><a target="_parent" xlink:href="../../../cieutils/docs/html/basic__concepts_8hpp.html.html" xlink:title=" ">
<polygon fill="white" stroke="black" points="489,-145.5 489,-186.5 621,-186.5 621,-145.5 489,-145.5"/>
<text text-anchor="start" x="497" y="-174.5" font-family="Helvetica,sans-Serif" font-size="10.00">packages/compile_time</text>
<text text-anchor="start" x="497" y="-163.5" font-family="Helvetica,sans-Serif" font-size="10.00">/packages/concepts/inc</text>
<text text-anchor="middle" x="555" y="-152.5" font-family="Helvetica,sans-Serif" font-size="10.00">/basic_concepts.hpp</text>
</a>
</g>
</g>
<!-- Node9&#45;&gt;Node10 -->
<g id="edge10" class="edge">
<title>Node9&#45;&gt;Node10</title>
<path fill="none" stroke="midnightblue" d="M441.39,-223.4C460.02,-214.16 484.85,-201.83 506.55,-191.05"/>
<polygon fill="midnightblue" stroke="midnightblue" points="508.23,-194.13 515.63,-186.55 505.12,-187.86 508.23,-194.13"/>
</g>
<!-- Node11 -->
<g id="node11" class="node">
<title>Node11</title>
<g id="a_node11"><a xlink:href="Object_8hpp.html" target="_top" xlink:title=" ">
<polygon fill="white" stroke="black" points="355.5,-151 355.5,-181 470.5,-181 470.5,-151 355.5,-151"/>
<text text-anchor="start" x="363.5" y="-169" font-family="Helvetica,sans-Serif" font-size="10.00">packages/primitives</text>
<text text-anchor="middle" x="413" y="-158" font-family="Helvetica,sans-Serif" font-size="10.00">/inc/Object.hpp</text>
</a>
</g>
</g>
<!-- Node9&#45;&gt;Node11 -->
<g id="edge11" class="edge">
<title>Node9&#45;&gt;Node11</title>
<path fill="none" stroke="midnightblue" d="M413,-223.23C413,-214.16 413,-202.16 413,-191.58"/>
<polygon fill="midnightblue" stroke="midnightblue" points="416.5,-191.25 413,-181.25 409.5,-191.25 416.5,-191.25"/>
</g>
<!-- Node11&#45;&gt;Node2 -->
<g id="edge13" class="edge">
<title>Node11&#45;&gt;Node2</title>
<path fill="none" stroke="midnightblue" d="M378.41,-150.9C351.3,-139.86 313.4,-124.41 284.11,-112.47"/>
<polygon fill="midnightblue" stroke="midnightblue" points="285.11,-109.11 274.53,-108.57 282.47,-115.59 285.11,-109.11"/>
</g>
<!-- Node11&#45;&gt;Node3 -->
<g id="edge15" class="edge">
<title>Node11&#45;&gt;Node3</title>
<path fill="none" stroke="midnightblue" d="M459.44,-150.94C466.33,-148.91 473.34,-146.88 480,-145 521.59,-133.27 568.51,-120.79 605.32,-111.17"/>
<polygon fill="midnightblue" stroke="midnightblue" points="606.62,-114.45 615.42,-108.54 604.86,-107.68 606.62,-114.45"/>
</g>
<!-- Node11&#45;&gt;Node4 -->
<g id="edge14" class="edge">
<title>Node11&#45;&gt;Node4</title>
<path fill="none" stroke="midnightblue" d="M460.7,-150.98C498.77,-139.16 548.38,-122.11 565,-109 586.58,-91.98 602.92,-64.65 612.67,-45.17"/>
<polygon fill="midnightblue" stroke="midnightblue" points="615.88,-46.59 617.05,-36.06 609.57,-43.56 615.88,-46.59"/>
</g>
<!-- Node11&#45;&gt;Node5 -->
<g id="edge12" class="edge">
<title>Node11&#45;&gt;Node5</title>
<path fill="none" stroke="midnightblue" d="M396.2,-150.78C367.82,-126.79 312.94,-80.61 308,-78 271.88,-58.9 228.45,-45.58 191.84,-36.75"/>
<polygon fill="midnightblue" stroke="midnightblue" points="192.24,-33.24 181.7,-34.37 190.64,-40.06 192.24,-33.24"/>
</g>
<!-- Node11&#45;&gt;Node7 -->
<g id="edge17" class="edge">
<title>Node11&#45;&gt;Node7</title>
<path fill="none" stroke="midnightblue" d="M456.72,-150.92C464.43,-148.74 472.41,-146.66 480,-145 592.25,-120.5 644.15,-178.03 736,-109 757.99,-92.47 767.87,-60.73 772.09,-40.5"/>
<polygon fill="midnightblue" stroke="midnightblue" points="775.54,-41.08 773.89,-30.61 768.65,-39.82 775.54,-41.08"/>
</g>
<!-- Node12 -->
<g id="node12" class="node">
<title>Node12</title>
<g id="a_node12"><a xlink:title=" ">
<polygon fill="white" stroke="#bfbfbf" points="356,-84 356,-103 414,-103 414,-84 356,-84"/>
<text text-anchor="middle" x="385" y="-91" font-family="Helvetica,sans-Serif" font-size="10.00">memory</text>
</a>
</g>
</g>
<!-- Node11&#45;&gt;Node12 -->
<g id="edge16" class="edge">
<title>Node11&#45;&gt;Node12</title>
<path fill="none" stroke="midnightblue" d="M407.33,-150.73C402.98,-139.78 396.94,-124.57 392.24,-112.74"/>
<polygon fill="midnightblue" stroke="midnightblue" points="395.48,-111.4 388.53,-103.39 388.97,-113.98 395.48,-111.4"/>
</g>
<!-- Node13 -->
<g id="node13" class="node">
<title>Node13</title>
<g id="a_node13"><a xlink:title=" ">
<polygon fill="white" stroke="#bfbfbf" points="432,-78.5 432,-108.5 556,-108.5 556,-78.5 432,-78.5"/>
<text text-anchor="start" x="440" y="-96.5" font-family="Helvetica,sans-Serif" font-size="10.00">packages/primitives</text>
<text text-anchor="middle" x="494" y="-85.5" font-family="Helvetica,sans-Serif" font-size="10.00">/impl/Object_impl.hpp</text>
</a>
</g>
</g>
<!-- Node11&#45;&gt;Node13 -->
<g id="edge18" class="edge">
<title>Node11&#45;&gt;Node13</title>
<path fill="none" stroke="midnightblue" d="M429.39,-150.73C441.11,-140.54 457.05,-126.66 470.17,-115.24"/>
<polygon fill="midnightblue" stroke="midnightblue" points="472.66,-117.71 477.91,-108.5 468.07,-112.43 472.66,-117.71"/>
</g>
<!-- Node14&#45;&gt;Node5 -->
<g id="edge20" class="edge">
<title>Node14&#45;&gt;Node5</title>
<path fill="none" stroke="midnightblue" d="M327.42,-290.43C253.97,-269.2 125.32,-227.19 100,-187 73.92,-145.6 88.7,-86.32 101.55,-51.23"/>
<polygon fill="midnightblue" stroke="midnightblue" points="104.93,-52.18 105.25,-41.59 98.4,-49.67 104.93,-52.18"/>
</g>
<!-- Node14&#45;&gt;Node9 -->
<g id="edge21" class="edge">
<title>Node14&#45;&gt;Node9</title>
<path fill="none" stroke="midnightblue" d="M386.38,-290.4C390.61,-282.3 396.03,-271.94 400.87,-262.69"/>
<polygon fill="midnightblue" stroke="midnightblue" points="404.1,-264.06 405.64,-253.58 397.9,-260.82 404.1,-264.06"/>
</g>
<!-- Node17&#45;&gt;Node5 -->
<g id="edge26" class="edge">
<title>Node17&#45;&gt;Node5</title>
<path fill="none" stroke="midnightblue" d="M595.78,-362.97C587.69,-343.28 570.15,-307.86 543,-290 468.64,-241.09 426.67,-291.62 346,-254 254.46,-211.31 238.32,-184.31 171,-109 155.01,-91.12 140.27,-68.37 129.78,-50.61"/>
<polygon fill="midnightblue" stroke="midnightblue" points="132.74,-48.74 124.7,-41.84 126.68,-52.25 132.74,-48.74"/>
</g>
<!-- Node17&#45;&gt;Node7 -->
<g id="edge30" class="edge">
<title>Node17&#45;&gt;Node7</title>
<path fill="none" stroke="midnightblue" d="M658.5,-369.1C690.54,-361.79 728.74,-347.79 753,-321 818.34,-248.84 795.68,-205.56 808,-109 809.74,-95.33 811.63,-91.29 808,-78 804.14,-63.85 795.7,-49.64 788.32,-39.07"/>
<polygon fill="midnightblue" stroke="midnightblue" points="790.99,-36.8 782.25,-30.82 785.35,-40.95 790.99,-36.8"/>
</g>
<!-- Node17&#45;&gt;Node9 -->
<g id="edge27" class="edge">
<title>Node17&#45;&gt;Node9</title>
<path fill="none" stroke="midnightblue" d="M601.07,-362.94C600.4,-343.87 596.32,-309.9 577,-290 551.89,-264.14 513.89,-251.44 480.78,-245.24"/>
<polygon fill="midnightblue" stroke="midnightblue" points="481.13,-241.75 470.69,-243.52 479.96,-248.65 481.13,-241.75"/>
</g>
<!-- Node17&#45;&gt;Node14 -->
<g id="edge28" class="edge">
<title>Node17&#45;&gt;Node14</title>
<path fill="none" stroke="midnightblue" d="M556.87,-362.99C521.36,-351.71 471.27,-335.8 433.29,-323.74"/>
<polygon fill="midnightblue" stroke="midnightblue" points="434.01,-320.3 423.42,-320.61 431.89,-326.97 434.01,-320.3"/>
</g>
<!-- Node17&#45;&gt;Node15 -->
<g id="edge29" class="edge">
<title>Node17&#45;&gt;Node15</title>
<path fill="none" stroke="midnightblue" d="M583.39,-362.73C568.78,-350.89 548.05,-334.09 533.05,-321.94"/>
<polygon fill="midnightblue" stroke="midnightblue" points="534.95,-318.97 524.97,-315.39 530.54,-324.41 534.95,-318.97"/>
</g>
<!-- Node18 -->
<g id="node18" class="node">
<title>Node18</title>
<g id="a_node18"><a xlink:title=" ">
<polygon fill="white" stroke="#bfbfbf" points="629.5,-290.5 629.5,-320.5 744.5,-320.5 744.5,-290.5 629.5,-290.5"/>
<text text-anchor="start" x="637.5" y="-308.5" font-family="Helvetica,sans-Serif" font-size="10.00">packages/primitives</text>
<text text-anchor="middle" x="687" y="-297.5" font-family="Helvetica,sans-Serif" font-size="10.00">/impl/Box_impl.hpp</text>
</a>
</g>
</g>
<!-- Node17&#45;&gt;Node18 -->
<g id="edge31" class="edge">
<title>Node17&#45;&gt;Node18</title>
<path fill="none" stroke="midnightblue" d="M618.4,-362.73C630.96,-352.44 648.09,-338.4 662.09,-326.92"/>
<polygon fill="midnightblue" stroke="midnightblue" points="664.4,-329.55 669.92,-320.5 659.96,-324.14 664.4,-329.55"/>
</g>
</g>
</svg>
