<?xml version="1.0" encoding="UTF-8" standalone="no"?>
<!DOCTYPE svg PUBLIC "-//W3C//DTD SVG 1.1//EN"
 "http://www.w3.org/Graphics/SVG/1.1/DTD/svg11.dtd">
<!-- Generated by graphviz version 2.43.0 (0)
 -->
<!-- Title: CornerSampler.hpp Pages: 1 -->
<svg width="1804pt" height="463pt"
 viewBox="0.00 0.00 1803.80 463.00" xmlns="http://www.w3.org/2000/svg" xmlns:xlink="http://www.w3.org/1999/xlink">
<g id="graph0" class="graph" transform="scale(1 1) rotate(0) translate(4 459)">
<title>CornerSampler.hpp</title>
<polygon fill="white" stroke="transparent" points="-4,4 -4,-459 1799.8,-459 1799.8,4 -4,4"/>
<!-- Node1 -->
<g id="node1" class="node">
<title>Node1</title>
<g id="a_node1"><a xlink:title=" ">
<polygon fill="#bfbfbf" stroke="black" points="1183,-435.5 1183,-454.5 1293,-454.5 1293,-435.5 1183,-435.5"/>
<text text-anchor="middle" x="1238" y="-442.5" font-family="Helvetica,sans-Serif" font-size="10.00">CornerSampler.hpp</text>
</a>
</g>
</g>
<!-- Node2 -->
<g id="node2" class="node">
<title>Node2</title>
<g id="a_node2"><a target="_parent" xlink:href="../../../cieutils/docs/html/partial__specialization_8hpp.html.html" xlink:title=" ">
<polygon fill="white" stroke="black" points="890.5,-357.5 890.5,-398.5 1035.5,-398.5 1035.5,-357.5 890.5,-357.5"/>
<text text-anchor="start" x="898.5" y="-386.5" font-family="Helvetica,sans-Serif" font-size="10.00">packages/compile_time</text>
<text text-anchor="start" x="898.5" y="-375.5" font-family="Helvetica,sans-Serif" font-size="10.00">/packages/concepts/inc</text>
<text text-anchor="middle" x="963" y="-364.5" font-family="Helvetica,sans-Serif" font-size="10.00">/partial_specialization.hpp</text>
</a>
</g>
</g>
<!-- Node1&#45;&gt;Node2 -->
<g id="edge1" class="edge">
<title>Node1&#45;&gt;Node2</title>
<path fill="none" stroke="midnightblue" d="M1201.77,-435.44C1162.24,-426.09 1097.65,-410.83 1045.61,-398.53"/>
<polygon fill="midnightblue" stroke="midnightblue" points="1046.25,-395.08 1035.72,-396.19 1044.64,-401.89 1046.25,-395.08"/>
</g>
<!-- Node3 -->
<g id="node3" class="node">
<title>Node3</title>
<g id="a_node3"><a xlink:href="PrimitiveSampler_8hpp.html" target="_top" xlink:title=" ">
<polygon fill="white" stroke="black" points="1101.5,-363 1101.5,-393 1226.5,-393 1226.5,-363 1101.5,-363"/>
<text text-anchor="start" x="1109.5" y="-381" font-family="Helvetica,sans-Serif" font-size="10.00">packages/trees/inc</text>
<text text-anchor="middle" x="1164" y="-370" font-family="Helvetica,sans-Serif" font-size="10.00">/PrimitiveSampler.hpp</text>
</a>
</g>
</g>
<!-- Node1&#45;&gt;Node3 -->
<g id="edge2" class="edge">
<title>Node1&#45;&gt;Node3</title>
<path fill="none" stroke="midnightblue" d="M1228.02,-435.23C1217.73,-426.2 1201.31,-411.77 1187.68,-399.8"/>
<polygon fill="midnightblue" stroke="midnightblue" points="1189.86,-397.06 1180.04,-393.09 1185.24,-402.32 1189.86,-397.06"/>
</g>
<!-- Node16 -->
<g id="node16" class="node">
<title>Node16</title>
<g id="a_node16"><a xlink:href="Box_8hpp.html" target="_top" xlink:title=" ">
<polygon fill="white" stroke="black" points="1501.5,-363 1501.5,-393 1616.5,-393 1616.5,-363 1501.5,-363"/>
<text text-anchor="start" x="1509.5" y="-381" font-family="Helvetica,sans-Serif" font-size="10.00">packages/primitives</text>
<text text-anchor="middle" x="1559" y="-370" font-family="Helvetica,sans-Serif" font-size="10.00">/inc/Box.hpp</text>
</a>
</g>
</g>
<!-- Node1&#45;&gt;Node16 -->
<g id="edge21" class="edge">
<title>Node1&#45;&gt;Node16</title>
<path fill="none" stroke="midnightblue" d="M1280.3,-435.44C1334.11,-424.54 1427.7,-405.59 1491.45,-392.68"/>
<polygon fill="midnightblue" stroke="midnightblue" points="1492.3,-396.08 1501.41,-390.66 1490.92,-389.22 1492.3,-396.08"/>
</g>
<!-- Node19 -->
<g id="node19" class="node">
<title>Node19</title>
<g id="a_node19"><a xlink:href="Cube_8hpp.html" target="_top" xlink:title=" ">
<polygon fill="white" stroke="black" points="1254.5,-363 1254.5,-393 1369.5,-393 1369.5,-363 1254.5,-363"/>
<text text-anchor="start" x="1262.5" y="-381" font-family="Helvetica,sans-Serif" font-size="10.00">packages/primitives</text>
<text text-anchor="middle" x="1312" y="-370" font-family="Helvetica,sans-Serif" font-size="10.00">/inc/Cube.hpp</text>
</a>
</g>
</g>
<!-- Node1&#45;&gt;Node19 -->
<g id="edge28" class="edge">
<title>Node1&#45;&gt;Node19</title>
<path fill="none" stroke="midnightblue" d="M1247.98,-435.23C1258.27,-426.2 1274.69,-411.77 1288.32,-399.8"/>
<polygon fill="midnightblue" stroke="midnightblue" points="1290.76,-402.32 1295.96,-393.09 1286.14,-397.06 1290.76,-402.32"/>
</g>
<!-- Node21 -->
<g id="node21" class="node">
<title>Node21</title>
<g id="a_node21"><a xlink:href="CartesianIndexConverter_8hpp.html" target="_top" xlink:title=" ">
<polygon fill="white" stroke="black" points="559.5,-156.5 559.5,-186.5 720.5,-186.5 720.5,-156.5 559.5,-156.5"/>
<text text-anchor="start" x="567.5" y="-174.5" font-family="Helvetica,sans-Serif" font-size="10.00">packages/trees/inc</text>
<text text-anchor="middle" x="640" y="-163.5" font-family="Helvetica,sans-Serif" font-size="10.00">/CartesianIndexConverter.hpp</text>
</a>
</g>
</g>
<!-- Node1&#45;&gt;Node21 -->
<g id="edge35" class="edge">
<title>Node1&#45;&gt;Node21</title>
<path fill="none" stroke="midnightblue" d="M1193.91,-435.5C1163.89,-428.52 1123.96,-416.83 1092,-399 1067.25,-385.19 1067.81,-372.38 1044,-357 925.22,-280.26 769.27,-218.78 690.38,-190.08"/>
<polygon fill="midnightblue" stroke="midnightblue" points="691.28,-186.69 680.69,-186.58 688.91,-193.27 691.28,-186.69"/>
</g>
<!-- Node27 -->
<g id="node27" class="node">
<title>Node27</title>
<g id="a_node27"><a xlink:title=" ">
<polygon fill="white" stroke="#bfbfbf" points="1635,-363 1635,-393 1775,-393 1775,-363 1635,-363"/>
<text text-anchor="start" x="1643" y="-381" font-family="Helvetica,sans-Serif" font-size="10.00">packages/trees/impl</text>
<text text-anchor="middle" x="1705" y="-370" font-family="Helvetica,sans-Serif" font-size="10.00">/CornerSampler_impl.hpp</text>
</a>
</g>
</g>
<!-- Node1&#45;&gt;Node27 -->
<g id="edge46" class="edge">
<title>Node1&#45;&gt;Node27</title>
<path fill="none" stroke="midnightblue" d="M1293.28,-439.91C1368.85,-433.79 1508.45,-420.6 1626,-399 1631.79,-397.94 1637.79,-396.69 1643.78,-395.35"/>
<polygon fill="midnightblue" stroke="midnightblue" points="1644.85,-398.69 1653.8,-393.01 1643.26,-391.87 1644.85,-398.69"/>
</g>
<!-- Node4 -->
<g id="node4" class="node">
<title>Node4</title>
<g id="a_node4"><a target="_parent" xlink:href="../../../cieutils/docs/html/basic__concepts_8hpp.html.html" xlink:title=" ">
<polygon fill="white" stroke="black" points="0,-78.5 0,-119.5 132,-119.5 132,-78.5 0,-78.5"/>
<text text-anchor="start" x="8" y="-107.5" font-family="Helvetica,sans-Serif" font-size="10.00">packages/compile_time</text>
<text text-anchor="start" x="8" y="-96.5" font-family="Helvetica,sans-Serif" font-size="10.00">/packages/concepts/inc</text>
<text text-anchor="middle" x="66" y="-85.5" font-family="Helvetica,sans-Serif" font-size="10.00">/basic_concepts.hpp</text>
</a>
</g>
</g>
<!-- Node3&#45;&gt;Node4 -->
<g id="edge3" class="edge">
<title>Node3&#45;&gt;Node4</title>
<path fill="none" stroke="midnightblue" d="M1101.44,-364.01C964.24,-335.17 626.9,-262.39 348,-187 274.59,-167.16 191.52,-141.08 134.66,-122.67"/>
<polygon fill="midnightblue" stroke="midnightblue" points="135.65,-119.31 125.06,-119.55 133.49,-125.97 135.65,-119.31"/>
</g>
<!-- Node5 -->
<g id="node5" class="node">
<title>Node5</title>
<g id="a_node5"><a xlink:href="primitives_2inc_2concepts_8hpp.html" target="_top" xlink:title=" ">
<polygon fill="white" stroke="black" points="1168.5,-290.5 1168.5,-320.5 1283.5,-320.5 1283.5,-290.5 1168.5,-290.5"/>
<text text-anchor="start" x="1176.5" y="-308.5" font-family="Helvetica,sans-Serif" font-size="10.00">packages/primitives</text>
<text text-anchor="middle" x="1226" y="-297.5" font-family="Helvetica,sans-Serif" font-size="10.00">/inc/concepts.hpp</text>
</a>
</g>
</g>
<!-- Node3&#45;&gt;Node5 -->
<g id="edge4" class="edge">
<title>Node3&#45;&gt;Node5</title>
<path fill="none" stroke="midnightblue" d="M1176.55,-362.73C1185.2,-352.89 1196.88,-339.62 1206.71,-328.44"/>
<polygon fill="midnightblue" stroke="midnightblue" points="1209.5,-330.57 1213.47,-320.75 1204.24,-325.94 1209.5,-330.57"/>
</g>
<!-- Node9 -->
<g id="node9" class="node">
<title>Node9</title>
<g id="a_node9"><a target="_parent" xlink:href="../../../cieutils/docs/html/typedefs_8hpp.html.html" xlink:title=" ">
<polygon fill="white" stroke="black" points="879.5,-84 879.5,-114 998.5,-114 998.5,-84 879.5,-84"/>
<text text-anchor="start" x="887.5" y="-102" font-family="Helvetica,sans-Serif" font-size="10.00">packages/macros/inc</text>
<text text-anchor="middle" x="939" y="-91" font-family="Helvetica,sans-Serif" font-size="10.00">/typedefs.hpp</text>
</a>
</g>
</g>
<!-- Node3&#45;&gt;Node9 -->
<g id="edge20" class="edge">
<title>Node3&#45;&gt;Node9</title>
<path fill="none" stroke="midnightblue" d="M1158.06,-362.86C1145.74,-334.52 1115.45,-269.51 1078,-223 1044.89,-181.88 997.23,-143.02 967.21,-120.36"/>
<polygon fill="midnightblue" stroke="midnightblue" points="968.97,-117.31 958.86,-114.14 964.79,-122.92 968.97,-117.31"/>
</g>
<!-- Node6 -->
<g id="node6" class="node">
<title>Node6</title>
<g id="a_node6"><a target="_parent" xlink:href="../../../cieutils/docs/html/container__concepts_8hpp.html.html" xlink:title=" ">
<polygon fill="white" stroke="black" points="1425.5,-0.5 1425.5,-41.5 1560.5,-41.5 1560.5,-0.5 1425.5,-0.5"/>
<text text-anchor="start" x="1433.5" y="-29.5" font-family="Helvetica,sans-Serif" font-size="10.00">packages/compile_time</text>
<text text-anchor="start" x="1433.5" y="-18.5" font-family="Helvetica,sans-Serif" font-size="10.00">/packages/concepts/inc</text>
<text text-anchor="middle" x="1493" y="-7.5" font-family="Helvetica,sans-Serif" font-size="10.00">/container_concepts.hpp</text>
</a>
</g>
</g>
<!-- Node5&#45;&gt;Node6 -->
<g id="edge5" class="edge">
<title>Node5&#45;&gt;Node6</title>
<path fill="none" stroke="midnightblue" d="M1244.96,-290.5C1283.33,-261.57 1371.63,-191.87 1432,-120 1450.11,-98.44 1466.71,-71.03 1478.01,-50.68"/>
<polygon fill="midnightblue" stroke="midnightblue" points="1481.1,-52.33 1482.81,-41.88 1474.95,-48.98 1481.1,-52.33"/>
</g>
<!-- Node7 -->
<g id="node7" class="node">
<title>Node7</title>
<g id="a_node7"><a xlink:href="Primitive_8hpp.html" target="_top" xlink:title=" ">
<polygon fill="white" stroke="black" points="1131.5,-223.5 1131.5,-253.5 1246.5,-253.5 1246.5,-223.5 1131.5,-223.5"/>
<text text-anchor="start" x="1139.5" y="-241.5" font-family="Helvetica,sans-Serif" font-size="10.00">packages/primitives</text>
<text text-anchor="middle" x="1189" y="-230.5" font-family="Helvetica,sans-Serif" font-size="10.00">/inc/Primitive.hpp</text>
</a>
</g>
</g>
<!-- Node5&#45;&gt;Node7 -->
<g id="edge6" class="edge">
<title>Node5&#45;&gt;Node7</title>
<path fill="none" stroke="midnightblue" d="M1217.97,-290.4C1213.32,-282.22 1207.34,-271.73 1202.03,-262.39"/>
<polygon fill="midnightblue" stroke="midnightblue" points="1205,-260.54 1197.01,-253.58 1198.92,-264 1205,-260.54"/>
</g>
<!-- Node7&#45;&gt;Node4 -->
<g id="edge7" class="edge">
<title>Node7&#45;&gt;Node4</title>
<path fill="none" stroke="midnightblue" d="M1131.1,-234.75C1018.73,-229.01 763.36,-213.98 550,-187 378.12,-165.26 336.29,-151.88 166,-120 158.21,-118.54 150.08,-116.98 141.97,-115.4"/>
<polygon fill="midnightblue" stroke="midnightblue" points="142.6,-111.96 132.12,-113.46 141.26,-118.82 142.6,-111.96"/>
</g>
<!-- Node8 -->
<g id="node8" class="node">
<title>Node8</title>
<g id="a_node8"><a xlink:href="Object_8hpp.html" target="_top" xlink:title=" ">
<polygon fill="white" stroke="black" points="1131.5,-156.5 1131.5,-186.5 1246.5,-186.5 1246.5,-156.5 1131.5,-156.5"/>
<text text-anchor="start" x="1139.5" y="-174.5" font-family="Helvetica,sans-Serif" font-size="10.00">packages/primitives</text>
<text text-anchor="middle" x="1189" y="-163.5" font-family="Helvetica,sans-Serif" font-size="10.00">/inc/Object.hpp</text>
</a>
</g>
</g>
<!-- Node7&#45;&gt;Node8 -->
<g id="edge8" class="edge">
<title>Node7&#45;&gt;Node8</title>
<path fill="none" stroke="midnightblue" d="M1189,-223.4C1189,-215.64 1189,-205.81 1189,-196.86"/>
<polygon fill="midnightblue" stroke="midnightblue" points="1192.5,-196.58 1189,-186.58 1185.5,-196.58 1192.5,-196.58"/>
</g>
<!-- Node8&#45;&gt;Node6 -->
<g id="edge9" class="edge">
<title>Node8&#45;&gt;Node6</title>
<path fill="none" stroke="midnightblue" d="M1246.75,-165.33C1290.61,-159.4 1351.16,-146.76 1398,-120 1402.26,-117.57 1440.69,-77.35 1467.35,-49.2"/>
<polygon fill="midnightblue" stroke="midnightblue" points="1470.19,-51.29 1474.51,-41.62 1465.1,-46.48 1470.19,-51.29"/>
</g>
<!-- Node8&#45;&gt;Node9 -->
<g id="edge10" class="edge">
<title>Node8&#45;&gt;Node9</title>
<path fill="none" stroke="midnightblue" d="M1138.25,-156.49C1101.94,-146.43 1051.93,-132.49 1008,-120 1004.43,-118.98 1000.76,-117.94 997.06,-116.87"/>
<polygon fill="midnightblue" stroke="midnightblue" points="997.82,-113.45 987.24,-114.05 995.88,-120.18 997.82,-113.45"/>
</g>
<!-- Node10 -->
<g id="node10" class="node">
<title>Node10</title>
<g id="a_node10"><a target="_parent" xlink:href="../../../cieutils/docs/html/types_8hpp.html.html" xlink:title=" ">
<polygon fill="white" stroke="black" points="1048,-6 1048,-36 1158,-36 1158,-6 1048,-6"/>
<text text-anchor="start" x="1056" y="-24" font-family="Helvetica,sans-Serif" font-size="10.00">packages/types/inc</text>
<text text-anchor="middle" x="1103" y="-13" font-family="Helvetica,sans-Serif" font-size="10.00">/types.hpp</text>
</a>
</g>
</g>
<!-- Node8&#45;&gt;Node10 -->
<g id="edge11" class="edge">
<title>Node8&#45;&gt;Node10</title>
<path fill="none" stroke="midnightblue" d="M1161.9,-156.49C1147.84,-147.85 1131.64,-135.44 1122,-120 1108.01,-97.59 1103.94,-67.12 1102.94,-46.14"/>
<polygon fill="midnightblue" stroke="midnightblue" points="1106.44,-46.02 1102.66,-36.12 1099.44,-46.22 1106.44,-46.02"/>
</g>
<!-- Node11 -->
<g id="node11" class="node">
<title>Node11</title>
<g id="a_node11"><a xlink:href="Traits_8hpp.html" target="_top" xlink:title=" ">
<polygon fill="white" stroke="black" points="1131.5,-84 1131.5,-114 1246.5,-114 1246.5,-84 1131.5,-84"/>
<text text-anchor="start" x="1139.5" y="-102" font-family="Helvetica,sans-Serif" font-size="10.00">packages/primitives</text>
<text text-anchor="middle" x="1189" y="-91" font-family="Helvetica,sans-Serif" font-size="10.00">/inc/Traits.hpp</text>
</a>
</g>
</g>
<!-- Node8&#45;&gt;Node11 -->
<g id="edge12" class="edge">
<title>Node8&#45;&gt;Node11</title>
<path fill="none" stroke="midnightblue" d="M1189,-156.23C1189,-147.16 1189,-135.16 1189,-124.58"/>
<polygon fill="midnightblue" stroke="midnightblue" points="1192.5,-124.25 1189,-114.25 1185.5,-124.25 1192.5,-124.25"/>
</g>
<!-- Node13 -->
<g id="node13" class="node">
<title>Node13</title>
<g id="a_node13"><a xlink:title=" ">
<polygon fill="white" stroke="#bfbfbf" points="1582,-11.5 1582,-30.5 1624,-30.5 1624,-11.5 1582,-11.5"/>
<text text-anchor="middle" x="1603" y="-18.5" font-family="Helvetica,sans-Serif" font-size="10.00">array</text>
</a>
</g>
</g>
<!-- Node8&#45;&gt;Node13 -->
<g id="edge18" class="edge">
<title>Node8&#45;&gt;Node13</title>
<path fill="none" stroke="midnightblue" d="M1246.87,-163.61C1297.01,-156.44 1370.9,-142.98 1432,-120 1490.3,-98.08 1552.15,-57.78 1583.02,-36.33"/>
<polygon fill="midnightblue" stroke="midnightblue" points="1585.06,-39.17 1591.23,-30.56 1581.03,-33.45 1585.06,-39.17"/>
</g>
<!-- Node14 -->
<g id="node14" class="node">
<title>Node14</title>
<g id="a_node14"><a xlink:title=" ">
<polygon fill="white" stroke="#bfbfbf" points="1017,-89.5 1017,-108.5 1075,-108.5 1075,-89.5 1017,-89.5"/>
<text text-anchor="middle" x="1046" y="-96.5" font-family="Helvetica,sans-Serif" font-size="10.00">memory</text>
</a>
</g>
</g>
<!-- Node8&#45;&gt;Node14 -->
<g id="edge17" class="edge">
<title>Node8&#45;&gt;Node14</title>
<path fill="none" stroke="midnightblue" d="M1160.41,-156.4C1134.79,-143.77 1097.51,-125.4 1072.55,-113.09"/>
<polygon fill="midnightblue" stroke="midnightblue" points="1073.83,-109.82 1063.31,-108.53 1070.73,-116.09 1073.83,-109.82"/>
</g>
<!-- Node15 -->
<g id="node15" class="node">
<title>Node15</title>
<g id="a_node15"><a xlink:title=" ">
<polygon fill="white" stroke="#bfbfbf" points="1265,-84 1265,-114 1389,-114 1389,-84 1265,-84"/>
<text text-anchor="start" x="1273" y="-102" font-family="Helvetica,sans-Serif" font-size="10.00">packages/primitives</text>
<text text-anchor="middle" x="1327" y="-91" font-family="Helvetica,sans-Serif" font-size="10.00">/impl/Object_impl.hpp</text>
</a>
</g>
</g>
<!-- Node8&#45;&gt;Node15 -->
<g id="edge19" class="edge">
<title>Node8&#45;&gt;Node15</title>
<path fill="none" stroke="midnightblue" d="M1216.59,-156.4C1237.75,-145.6 1267.14,-130.58 1290.28,-118.76"/>
<polygon fill="midnightblue" stroke="midnightblue" points="1292.14,-121.74 1299.45,-114.07 1288.96,-115.51 1292.14,-121.74"/>
</g>
<!-- Node11&#45;&gt;Node6 -->
<g id="edge14" class="edge">
<title>Node11&#45;&gt;Node6</title>
<path fill="none" stroke="midnightblue" d="M1234.67,-83.98C1241.79,-81.91 1249.08,-79.85 1256,-78 1308.9,-63.87 1368.92,-49.7 1415.33,-39.16"/>
<polygon fill="midnightblue" stroke="midnightblue" points="1416.34,-42.52 1425.32,-36.89 1414.79,-35.69 1416.34,-42.52"/>
</g>
<!-- Node11&#45;&gt;Node10 -->
<g id="edge13" class="edge">
<title>Node11&#45;&gt;Node10</title>
<path fill="none" stroke="midnightblue" d="M1172.82,-83.7C1159.85,-72.24 1141.45,-55.98 1126.8,-43.03"/>
<polygon fill="midnightblue" stroke="midnightblue" points="1128.91,-40.23 1119.1,-36.23 1124.28,-45.48 1128.91,-40.23"/>
</g>
<!-- Node12 -->
<g id="node12" class="node">
<title>Node12</title>
<g id="a_node12"><a target="_parent" xlink:href="../../../cieutils/docs/html/StaticArray_8hpp.html.html" xlink:title=" ">
<polygon fill="white" stroke="black" points="496.5,-6 496.5,-36 627.5,-36 627.5,-6 496.5,-6"/>
<text text-anchor="start" x="504.5" y="-24" font-family="Helvetica,sans-Serif" font-size="10.00">packages/stl_extension</text>
<text text-anchor="middle" x="562" y="-13" font-family="Helvetica,sans-Serif" font-size="10.00">/inc/StaticArray.hpp</text>
</a>
</g>
</g>
<!-- Node11&#45;&gt;Node12 -->
<g id="edge15" class="edge">
<title>Node11&#45;&gt;Node12</title>
<path fill="none" stroke="midnightblue" d="M1131.38,-86.15C1116.02,-83.23 1099.42,-80.29 1084,-78 926.02,-54.52 739.74,-36.95 637.92,-28.19"/>
<polygon fill="midnightblue" stroke="midnightblue" points="637.99,-24.69 627.73,-27.32 637.4,-31.66 637.99,-24.69"/>
</g>
<!-- Node11&#45;&gt;Node13 -->
<g id="edge16" class="edge">
<title>Node11&#45;&gt;Node13</title>
<path fill="none" stroke="midnightblue" d="M1231.97,-83.96C1239.9,-81.72 1248.15,-79.61 1256,-78 1393.61,-49.8 1437.09,-87.45 1570,-42 1574.47,-40.47 1578.98,-38.27 1583.17,-35.87"/>
<polygon fill="midnightblue" stroke="midnightblue" points="1585.09,-38.81 1591.7,-30.53 1581.37,-32.88 1585.09,-38.81"/>
</g>
<!-- Node16&#45;&gt;Node5 -->
<g id="edge24" class="edge">
<title>Node16&#45;&gt;Node5</title>
<path fill="none" stroke="midnightblue" d="M1501.38,-364.8C1443.63,-352.57 1354.76,-333.76 1293.69,-320.83"/>
<polygon fill="midnightblue" stroke="midnightblue" points="1294.26,-317.37 1283.75,-318.73 1292.81,-324.22 1294.26,-317.37"/>
</g>
<!-- Node16&#45;&gt;Node6 -->
<g id="edge22" class="edge">
<title>Node16&#45;&gt;Node6</title>
<path fill="none" stroke="midnightblue" d="M1567,-362.79C1572.73,-351.77 1579.94,-335.92 1583,-321 1585.77,-307.5 1584.22,-303.72 1583,-290 1574.52,-194.65 1587.74,-163.65 1545,-78 1539.68,-67.35 1531.71,-57.29 1523.59,-48.71"/>
<polygon fill="midnightblue" stroke="midnightblue" points="1526.02,-46.18 1516.48,-41.57 1521.06,-51.13 1526.02,-46.18"/>
</g>
<!-- Node16&#45;&gt;Node7 -->
<g id="edge23" class="edge">
<title>Node16&#45;&gt;Node7</title>
<path fill="none" stroke="midnightblue" d="M1565.53,-362.7C1573.13,-343.66 1582.54,-310.06 1565,-290 1545.04,-267.18 1359.3,-251.06 1256.56,-243.81"/>
<polygon fill="midnightblue" stroke="midnightblue" points="1256.81,-240.32 1246.59,-243.12 1256.32,-247.3 1256.81,-240.32"/>
</g>
<!-- Node16&#45;&gt;Node13 -->
<g id="edge26" class="edge">
<title>Node16&#45;&gt;Node13</title>
<path fill="none" stroke="midnightblue" d="M1605.04,-362.91C1612.05,-360.86 1619.2,-358.83 1626,-357 1691.77,-339.25 1727.02,-369.37 1775,-321 1801.19,-294.59 1794,-276.69 1794,-239.5 1794,-239.5 1794,-239.5 1794,-170.5 1794,-90.4 1688,-47.23 1633.93,-30.42"/>
<polygon fill="midnightblue" stroke="midnightblue" points="1634.75,-27.01 1624.17,-27.5 1632.75,-33.72 1634.75,-27.01"/>
</g>
<!-- Node17 -->
<g id="node17" class="node">
<title>Node17</title>
<g id="a_node17"><a xlink:title=" ">
<polygon fill="white" stroke="#bfbfbf" points="1514.5,-296 1514.5,-315 1555.5,-315 1555.5,-296 1514.5,-296"/>
<text text-anchor="middle" x="1535" y="-303" font-family="Helvetica,sans-Serif" font-size="10.00">tuple</text>
</a>
</g>
</g>
<!-- Node16&#45;&gt;Node17 -->
<g id="edge25" class="edge">
<title>Node16&#45;&gt;Node17</title>
<path fill="none" stroke="midnightblue" d="M1554.14,-362.73C1550.45,-351.89 1545.34,-336.88 1541.33,-325.1"/>
<polygon fill="midnightblue" stroke="midnightblue" points="1544.56,-323.73 1538.03,-315.39 1537.94,-325.99 1544.56,-323.73"/>
</g>
<!-- Node18 -->
<g id="node18" class="node">
<title>Node18</title>
<g id="a_node18"><a xlink:title=" ">
<polygon fill="white" stroke="#bfbfbf" points="1650.5,-290.5 1650.5,-320.5 1765.5,-320.5 1765.5,-290.5 1650.5,-290.5"/>
<text text-anchor="start" x="1658.5" y="-308.5" font-family="Helvetica,sans-Serif" font-size="10.00">packages/primitives</text>
<text text-anchor="middle" x="1708" y="-297.5" font-family="Helvetica,sans-Serif" font-size="10.00">/impl/Box_impl.hpp</text>
</a>
</g>
</g>
<!-- Node16&#45;&gt;Node18 -->
<g id="edge27" class="edge">
<title>Node16&#45;&gt;Node18</title>
<path fill="none" stroke="midnightblue" d="M1588.79,-362.9C1611.84,-352 1643.94,-336.81 1669.02,-324.94"/>
<polygon fill="midnightblue" stroke="midnightblue" points="1670.72,-328.01 1678.26,-320.57 1667.72,-321.69 1670.72,-328.01"/>
</g>
<!-- Node19&#45;&gt;Node5 -->
<g id="edge31" class="edge">
<title>Node19&#45;&gt;Node5</title>
<path fill="none" stroke="midnightblue" d="M1294.6,-362.73C1282.04,-352.44 1264.91,-338.4 1250.91,-326.92"/>
<polygon fill="midnightblue" stroke="midnightblue" points="1253.04,-324.14 1243.08,-320.5 1248.6,-329.55 1253.04,-324.14"/>
</g>
<!-- Node19&#45;&gt;Node6 -->
<g id="edge29" class="edge">
<title>Node19&#45;&gt;Node6</title>
<path fill="none" stroke="midnightblue" d="M1313.2,-362.85C1315.12,-345.12 1319.86,-314.15 1331,-290 1370.72,-203.87 1415.62,-203.82 1460,-120 1471.59,-98.11 1480.27,-71.36 1485.81,-51.33"/>
<polygon fill="midnightblue" stroke="midnightblue" points="1489.23,-52.1 1488.42,-41.54 1482.47,-50.3 1489.23,-52.1"/>
</g>
<!-- Node19&#45;&gt;Node7 -->
<g id="edge30" class="edge">
<title>Node19&#45;&gt;Node7</title>
<path fill="none" stroke="midnightblue" d="M1265.52,-362.94C1222.9,-349.59 1165.44,-330.22 1159,-321 1146.5,-303.11 1157.73,-279.39 1169.85,-262.16"/>
<polygon fill="midnightblue" stroke="midnightblue" points="1172.92,-263.89 1176.15,-253.8 1167.33,-259.68 1172.92,-263.89"/>
</g>
<!-- Node19&#45;&gt;Node13 -->
<g id="edge33" class="edge">
<title>Node19&#45;&gt;Node13</title>
<path fill="none" stroke="midnightblue" d="M1369.69,-367.54C1401.64,-359.73 1440.19,-345.74 1467,-321 1554.47,-240.28 1589.71,-92.43 1599.75,-40.57"/>
<polygon fill="midnightblue" stroke="midnightblue" points="1603.23,-40.99 1601.6,-30.52 1596.34,-39.72 1603.23,-40.99"/>
</g>
<!-- Node19&#45;&gt;Node17 -->
<g id="edge32" class="edge">
<title>Node19&#45;&gt;Node17</title>
<path fill="none" stroke="midnightblue" d="M1364.33,-362.98C1402.31,-352.42 1454.75,-337.06 1500,-321 1501.86,-320.34 1503.76,-319.64 1505.68,-318.91"/>
<polygon fill="midnightblue" stroke="midnightblue" points="1507.15,-322.09 1515.15,-315.14 1504.56,-315.58 1507.15,-322.09"/>
</g>
<!-- Node20 -->
<g id="node20" class="node">
<title>Node20</title>
<g id="a_node20"><a xlink:title=" ">
<polygon fill="white" stroke="#bfbfbf" points="1340.5,-290.5 1340.5,-320.5 1457.5,-320.5 1457.5,-290.5 1340.5,-290.5"/>
<text text-anchor="start" x="1348.5" y="-308.5" font-family="Helvetica,sans-Serif" font-size="10.00">packages/primitives</text>
<text text-anchor="middle" x="1399" y="-297.5" font-family="Helvetica,sans-Serif" font-size="10.00">/impl/Cube_impl.hpp</text>
</a>
</g>
</g>
<!-- Node19&#45;&gt;Node20 -->
<g id="edge34" class="edge">
<title>Node19&#45;&gt;Node20</title>
<path fill="none" stroke="midnightblue" d="M1329.61,-362.73C1342.31,-352.44 1359.64,-338.4 1373.8,-326.92"/>
<polygon fill="midnightblue" stroke="midnightblue" points="1376.15,-329.52 1381.72,-320.5 1371.74,-324.08 1376.15,-329.52"/>
</g>
<!-- Node21&#45;&gt;Node4 -->
<g id="edge39" class="edge">
<title>Node21&#45;&gt;Node4</title>
<path fill="none" stroke="midnightblue" d="M559.4,-163.67C440.36,-153.35 223.28,-133.54 146,-120 144.73,-119.78 143.45,-119.55 142.17,-119.31"/>
<polygon fill="midnightblue" stroke="midnightblue" points="142.69,-115.84 132.2,-117.32 141.32,-122.71 142.69,-115.84"/>
</g>
<!-- Node21&#45;&gt;Node9 -->
<g id="edge42" class="edge">
<title>Node21&#45;&gt;Node9</title>
<path fill="none" stroke="midnightblue" d="M706.14,-156.44C751.06,-146.7 811.76,-133.16 865,-120 869.33,-118.93 873.8,-117.8 878.29,-116.63"/>
<polygon fill="midnightblue" stroke="midnightblue" points="879.33,-119.98 888.12,-114.06 877.56,-113.21 879.33,-119.98"/>
</g>
<!-- Node21&#45;&gt;Node10 -->
<g id="edge36" class="edge">
<title>Node21&#45;&gt;Node10</title>
<path fill="none" stroke="midnightblue" d="M720.63,-159.6C756.29,-152.23 797.62,-140.03 831,-120 852.84,-106.89 848.01,-90.86 870,-78 921.63,-47.81 988.76,-33.86 1037.69,-27.44"/>
<polygon fill="midnightblue" stroke="midnightblue" points="1038.36,-30.89 1047.85,-26.18 1037.49,-23.94 1038.36,-30.89"/>
</g>
<!-- Node21&#45;&gt;Node12 -->
<g id="edge37" class="edge">
<title>Node21&#45;&gt;Node12</title>
<path fill="none" stroke="midnightblue" d="M559.29,-164.45C430.47,-154.39 191.53,-133.98 179,-120 166.54,-106.1 166.79,-92.12 179,-78 217.88,-33.03 385.95,-23.47 486.07,-21.86"/>
<polygon fill="midnightblue" stroke="midnightblue" points="486.19,-25.35 496.14,-21.72 486.09,-18.35 486.19,-25.35"/>
</g>
<!-- Node21&#45;&gt;Node14 -->
<g id="edge44" class="edge">
<title>Node21&#45;&gt;Node14</title>
<path fill="none" stroke="midnightblue" d="M720.81,-167.18C796.33,-162.27 911.46,-150.11 1007,-120 1012.31,-118.33 1017.76,-115.98 1022.85,-113.48"/>
<polygon fill="midnightblue" stroke="midnightblue" points="1024.84,-116.38 1032.05,-108.61 1021.57,-110.19 1024.84,-116.38"/>
</g>
<!-- Node22 -->
<g id="node22" class="node">
<title>Node22</title>
<g id="a_node22"><a target="_parent" xlink:href="../../../cieutils/docs/html/DynamicArray_8hpp.html.html" xlink:title=" ">
<polygon fill="white" stroke="black" points="188.5,-84 188.5,-114 319.5,-114 319.5,-84 188.5,-84"/>
<text text-anchor="start" x="196.5" y="-102" font-family="Helvetica,sans-Serif" font-size="10.00">packages/stl_extension</text>
<text text-anchor="middle" x="254" y="-91" font-family="Helvetica,sans-Serif" font-size="10.00">/inc/DynamicArray.hpp</text>
</a>
</g>
</g>
<!-- Node21&#45;&gt;Node22 -->
<g id="edge38" class="edge">
<title>Node21&#45;&gt;Node22</title>
<path fill="none" stroke="midnightblue" d="M559.37,-159.66C496.34,-150.64 406.69,-136.62 329,-120 324.02,-118.93 318.88,-117.75 313.73,-116.5"/>
<polygon fill="midnightblue" stroke="midnightblue" points="314.41,-113.06 303.86,-114.04 312.71,-119.85 314.41,-113.06"/>
</g>
<!-- Node23 -->
<g id="node23" class="node">
<title>Node23</title>
<g id="a_node23"><a target="_parent" xlink:href="../../../cieutils/docs/html/iterator__concepts_8hpp.html.html" xlink:title=" ">
<polygon fill="white" stroke="black" points="338,-78.5 338,-119.5 470,-119.5 470,-78.5 338,-78.5"/>
<text text-anchor="start" x="346" y="-107.5" font-family="Helvetica,sans-Serif" font-size="10.00">packages/compile_time</text>
<text text-anchor="start" x="346" y="-96.5" font-family="Helvetica,sans-Serif" font-size="10.00">/packages/concepts/inc</text>
<text text-anchor="middle" x="404" y="-85.5" font-family="Helvetica,sans-Serif" font-size="10.00">/iterator_concepts.hpp</text>
</a>
</g>
</g>
<!-- Node21&#45;&gt;Node23 -->
<g id="edge40" class="edge">
<title>Node21&#45;&gt;Node23</title>
<path fill="none" stroke="midnightblue" d="M593.09,-156.49C560.64,-146.79 516.75,-133.68 479.42,-122.53"/>
<polygon fill="midnightblue" stroke="midnightblue" points="480.17,-119.1 469.58,-119.59 478.16,-125.81 480.17,-119.1"/>
</g>
<!-- Node24 -->
<g id="node24" class="node">
<title>Node24</title>
<g id="a_node24"><a target="_parent" xlink:href="../../../cieutils/docs/html/tags_8hpp.html.html" xlink:title=" ">
<polygon fill="white" stroke="black" points="488,-84 488,-114 598,-114 598,-84 488,-84"/>
<text text-anchor="start" x="496" y="-102" font-family="Helvetica,sans-Serif" font-size="10.00">packages/types/inc</text>
<text text-anchor="middle" x="543" y="-91" font-family="Helvetica,sans-Serif" font-size="10.00">/tags.hpp</text>
</a>
</g>
</g>
<!-- Node21&#45;&gt;Node24 -->
<g id="edge41" class="edge">
<title>Node21&#45;&gt;Node24</title>
<path fill="none" stroke="midnightblue" d="M620.37,-156.23C606.08,-145.85 586.53,-131.63 570.65,-120.1"/>
<polygon fill="midnightblue" stroke="midnightblue" points="572.42,-117.05 562.27,-114 568.3,-122.72 572.42,-117.05"/>
</g>
<!-- Node25 -->
<g id="node25" class="node">
<title>Node25</title>
<g id="a_node25"><a xlink:title=" ">
<polygon fill="white" stroke="#bfbfbf" points="616.5,-89.5 616.5,-108.5 663.5,-108.5 663.5,-89.5 616.5,-89.5"/>
<text text-anchor="middle" x="640" y="-96.5" font-family="Helvetica,sans-Serif" font-size="10.00">vector</text>
</a>
</g>
</g>
<!-- Node21&#45;&gt;Node25 -->
<g id="edge43" class="edge">
<title>Node21&#45;&gt;Node25</title>
<path fill="none" stroke="midnightblue" d="M640,-156.23C640,-145.5 640,-130.69 640,-118.96"/>
<polygon fill="midnightblue" stroke="midnightblue" points="643.5,-118.89 640,-108.89 636.5,-118.89 643.5,-118.89"/>
</g>
<!-- Node26 -->
<g id="node26" class="node">
<title>Node26</title>
<g id="a_node26"><a xlink:title=" ">
<polygon fill="white" stroke="#bfbfbf" points="681.5,-78.5 681.5,-119.5 822.5,-119.5 822.5,-78.5 681.5,-78.5"/>
<text text-anchor="start" x="689.5" y="-107.5" font-family="Helvetica,sans-Serif" font-size="10.00">packages/trees/impl</text>
<text text-anchor="start" x="689.5" y="-96.5" font-family="Helvetica,sans-Serif" font-size="10.00">/CartesianIndexConverter</text>
<text text-anchor="middle" x="752" y="-85.5" font-family="Helvetica,sans-Serif" font-size="10.00">_impl.hpp</text>
</a>
</g>
</g>
<!-- Node21&#45;&gt;Node26 -->
<g id="edge45" class="edge">
<title>Node21&#45;&gt;Node26</title>
<path fill="none" stroke="midnightblue" d="M662.4,-156.4C676.64,-147.44 695.48,-135.58 712.21,-125.04"/>
<polygon fill="midnightblue" stroke="midnightblue" points="714.14,-127.97 720.74,-119.68 710.41,-122.05 714.14,-127.97"/>
</g>
</g>
</svg>
