<?xml version="1.0" encoding="UTF-8" standalone="no"?>
<!DOCTYPE svg PUBLIC "-//W3C//DTD SVG 1.1//EN"
 "http://www.w3.org/Graphics/SVG/1.1/DTD/svg11.dtd">
<!-- Generated by graphviz version 2.43.0 (0)
 -->
<!-- Title: Ellipsoid.hpp Pages: 1 -->
<svg width="755pt" height="318pt"
 viewBox="0.00 0.00 754.50 318.00" xmlns="http://www.w3.org/2000/svg" xmlns:xlink="http://www.w3.org/1999/xlink">
<g id="graph0" class="graph" transform="scale(1 1) rotate(0) translate(4 314)">
<title>Ellipsoid.hpp</title>
<polygon fill="white" stroke="transparent" points="-4,4 -4,-314 750.5,-314 750.5,4 -4,4"/>
<!-- Node1 -->
<g id="node1" class="node">
<title>Node1</title>
<g id="a_node1"><a xlink:title=" ">
<polygon fill="#bfbfbf" stroke="black" points="341,-290.5 341,-309.5 420,-309.5 420,-290.5 341,-290.5"/>
<text text-anchor="middle" x="380.5" y="-297.5" font-family="Helvetica,sans-Serif" font-size="10.00">Ellipsoid.hpp</text>
</a>
</g>
</g>
<!-- Node2 -->
<g id="node2" class="node">
<title>Node2</title>
<g id="a_node2"><a xlink:href="Primitive_8hpp.html" target="_top" xlink:title=" ">
<polygon fill="white" stroke="black" points="237,-223.5 237,-253.5 352,-253.5 352,-223.5 237,-223.5"/>
<text text-anchor="start" x="245" y="-241.5" font-family="Helvetica,sans-Serif" font-size="10.00">packages/primitives</text>
<text text-anchor="middle" x="294.5" y="-230.5" font-family="Helvetica,sans-Serif" font-size="10.00">/inc/Primitive.hpp</text>
</a>
</g>
</g>
<!-- Node1&#45;&gt;Node2 -->
<g id="edge1" class="edge">
<title>Node1&#45;&gt;Node2</title>
<path fill="none" stroke="midnightblue" d="M368.18,-290.48C356.53,-282.42 338.62,-270.02 323.37,-259.47"/>
<polygon fill="midnightblue" stroke="midnightblue" points="324.98,-256.33 314.77,-253.52 321,-262.09 324.98,-256.33"/>
</g>
<!-- Node4 -->
<g id="node4" class="node">
<title>Node4</title>
<g id="a_node4"><a xlink:href="Object_8hpp.html" target="_top" xlink:title=" ">
<polygon fill="white" stroke="black" points="323,-151 323,-181 438,-181 438,-151 323,-151"/>
<text text-anchor="start" x="331" y="-169" font-family="Helvetica,sans-Serif" font-size="10.00">packages/primitives</text>
<text text-anchor="middle" x="380.5" y="-158" font-family="Helvetica,sans-Serif" font-size="10.00">/inc/Object.hpp</text>
</a>
</g>
</g>
<!-- Node1&#45;&gt;Node4 -->
<g id="edge15" class="edge">
<title>Node1&#45;&gt;Node4</title>
<path fill="none" stroke="midnightblue" d="M380.5,-290.34C380.5,-270.52 380.5,-221.27 380.5,-191.34"/>
<polygon fill="midnightblue" stroke="midnightblue" points="384,-191.28 380.5,-181.28 377,-191.28 384,-191.28"/>
</g>
<!-- Node13 -->
<g id="node13" class="node">
<title>Node13</title>
<g id="a_node13"><a xlink:title=" ">
<polygon fill="white" stroke="#bfbfbf" points="408.5,-223.5 408.5,-253.5 542.5,-253.5 542.5,-223.5 408.5,-223.5"/>
<text text-anchor="start" x="416.5" y="-241.5" font-family="Helvetica,sans-Serif" font-size="10.00">packages/primitives</text>
<text text-anchor="middle" x="475.5" y="-230.5" font-family="Helvetica,sans-Serif" font-size="10.00">/impl/Ellipsoid_impl.hpp</text>
</a>
</g>
</g>
<!-- Node1&#45;&gt;Node13 -->
<g id="edge16" class="edge">
<title>Node1&#45;&gt;Node13</title>
<path fill="none" stroke="midnightblue" d="M394.11,-290.48C407.22,-282.27 427.51,-269.56 444.55,-258.88"/>
<polygon fill="midnightblue" stroke="midnightblue" points="446.49,-261.8 453.11,-253.52 442.78,-255.86 446.49,-261.8"/>
</g>
<!-- Node3 -->
<g id="node3" class="node">
<title>Node3</title>
<g id="a_node3"><a target="_parent" xlink:href="../../../cieutils/docs/html/basic__concepts_8hpp.html.html" xlink:title=" ">
<polygon fill="white" stroke="black" points="172.5,-145.5 172.5,-186.5 304.5,-186.5 304.5,-145.5 172.5,-145.5"/>
<text text-anchor="start" x="180.5" y="-174.5" font-family="Helvetica,sans-Serif" font-size="10.00">packages/compile_time</text>
<text text-anchor="start" x="180.5" y="-163.5" font-family="Helvetica,sans-Serif" font-size="10.00">/packages/concepts/inc</text>
<text text-anchor="middle" x="238.5" y="-152.5" font-family="Helvetica,sans-Serif" font-size="10.00">/basic_concepts.hpp</text>
</a>
</g>
</g>
<!-- Node2&#45;&gt;Node3 -->
<g id="edge2" class="edge">
<title>Node2&#45;&gt;Node3</title>
<path fill="none" stroke="midnightblue" d="M283.17,-223.23C276.63,-215 268.18,-204.36 260.39,-194.56"/>
<polygon fill="midnightblue" stroke="midnightblue" points="263.02,-192.24 254.06,-186.59 257.54,-196.6 263.02,-192.24"/>
</g>
<!-- Node2&#45;&gt;Node4 -->
<g id="edge3" class="edge">
<title>Node2&#45;&gt;Node4</title>
<path fill="none" stroke="midnightblue" d="M311.9,-223.23C324.46,-212.94 341.59,-198.9 355.59,-187.42"/>
<polygon fill="midnightblue" stroke="midnightblue" points="357.9,-190.05 363.42,-181 353.46,-184.64 357.9,-190.05"/>
</g>
<!-- Node5 -->
<g id="node5" class="node">
<title>Node5</title>
<g id="a_node5"><a target="_parent" xlink:href="../../../cieutils/docs/html/container__concepts_8hpp.html.html" xlink:title=" ">
<polygon fill="white" stroke="black" points="0,-0.5 0,-41.5 135,-41.5 135,-0.5 0,-0.5"/>
<text text-anchor="start" x="8" y="-29.5" font-family="Helvetica,sans-Serif" font-size="10.00">packages/compile_time</text>
<text text-anchor="start" x="8" y="-18.5" font-family="Helvetica,sans-Serif" font-size="10.00">/packages/concepts/inc</text>
<text text-anchor="middle" x="67.5" y="-7.5" font-family="Helvetica,sans-Serif" font-size="10.00">/container_concepts.hpp</text>
</a>
</g>
</g>
<!-- Node4&#45;&gt;Node5 -->
<g id="edge4" class="edge">
<title>Node4&#45;&gt;Node5</title>
<path fill="none" stroke="midnightblue" d="M333.55,-150.97C291.03,-138.02 231.76,-119.29 209.5,-109 171.73,-91.54 131.55,-66.21 103.6,-47.38"/>
<polygon fill="midnightblue" stroke="midnightblue" points="105.21,-44.25 94.98,-41.52 101.28,-50.04 105.21,-44.25"/>
</g>
<!-- Node6 -->
<g id="node6" class="node">
<title>Node6</title>
<g id="a_node6"><a target="_parent" xlink:href="../../../cieutils/docs/html/typedefs_8hpp.html.html" xlink:title=" ">
<polygon fill="white" stroke="black" points="409,-78.5 409,-108.5 528,-108.5 528,-78.5 409,-78.5"/>
<text text-anchor="start" x="417" y="-96.5" font-family="Helvetica,sans-Serif" font-size="10.00">packages/macros/inc</text>
<text text-anchor="middle" x="468.5" y="-85.5" font-family="Helvetica,sans-Serif" font-size="10.00">/typedefs.hpp</text>
</a>
</g>
</g>
<!-- Node4&#45;&gt;Node6 -->
<g id="edge5" class="edge">
<title>Node4&#45;&gt;Node6</title>
<path fill="none" stroke="midnightblue" d="M398.31,-150.73C411.15,-140.44 428.69,-126.4 443.01,-114.92"/>
<polygon fill="midnightblue" stroke="midnightblue" points="445.4,-117.49 451.02,-108.5 441.03,-112.03 445.4,-117.49"/>
</g>
<!-- Node7 -->
<g id="node7" class="node">
<title>Node7</title>
<g id="a_node7"><a target="_parent" xlink:href="../../../cieutils/docs/html/types_8hpp.html.html" xlink:title=" ">
<polygon fill="white" stroke="black" points="153.5,-6 153.5,-36 263.5,-36 263.5,-6 153.5,-6"/>
<text text-anchor="start" x="161.5" y="-24" font-family="Helvetica,sans-Serif" font-size="10.00">packages/types/inc</text>
<text text-anchor="middle" x="208.5" y="-13" font-family="Helvetica,sans-Serif" font-size="10.00">/types.hpp</text>
</a>
</g>
</g>
<!-- Node4&#45;&gt;Node7 -->
<g id="edge6" class="edge">
<title>Node4&#45;&gt;Node7</title>
<path fill="none" stroke="midnightblue" d="M335.23,-150.88C292.84,-137.27 234.94,-117.53 227.5,-109 212.48,-91.78 208.47,-65.44 207.76,-46.26"/>
<polygon fill="midnightblue" stroke="midnightblue" points="211.26,-46.14 207.67,-36.17 204.26,-46.2 211.26,-46.14"/>
</g>
<!-- Node8 -->
<g id="node8" class="node">
<title>Node8</title>
<g id="a_node8"><a xlink:href="Traits_8hpp.html" target="_top" xlink:title=" ">
<polygon fill="white" stroke="black" points="237,-78.5 237,-108.5 352,-108.5 352,-78.5 237,-78.5"/>
<text text-anchor="start" x="245" y="-96.5" font-family="Helvetica,sans-Serif" font-size="10.00">packages/primitives</text>
<text text-anchor="middle" x="294.5" y="-85.5" font-family="Helvetica,sans-Serif" font-size="10.00">/inc/Traits.hpp</text>
</a>
</g>
</g>
<!-- Node4&#45;&gt;Node8 -->
<g id="edge7" class="edge">
<title>Node4&#45;&gt;Node8</title>
<path fill="none" stroke="midnightblue" d="M363.1,-150.73C350.54,-140.44 333.41,-126.4 319.41,-114.92"/>
<polygon fill="midnightblue" stroke="midnightblue" points="321.54,-112.14 311.58,-108.5 317.1,-117.55 321.54,-112.14"/>
</g>
<!-- Node10 -->
<g id="node10" class="node">
<title>Node10</title>
<g id="a_node10"><a xlink:title=" ">
<polygon fill="white" stroke="#bfbfbf" points="431.5,-11.5 431.5,-30.5 473.5,-30.5 473.5,-11.5 431.5,-11.5"/>
<text text-anchor="middle" x="452.5" y="-18.5" font-family="Helvetica,sans-Serif" font-size="10.00">array</text>
</a>
</g>
</g>
<!-- Node4&#45;&gt;Node10 -->
<g id="edge13" class="edge">
<title>Node4&#45;&gt;Node10</title>
<path fill="none" stroke="midnightblue" d="M381.25,-150.95C382.72,-133.06 387,-101.64 399.5,-78 407.86,-62.19 421.92,-47.64 433.47,-37.33"/>
<polygon fill="midnightblue" stroke="midnightblue" points="435.99,-39.78 441.31,-30.61 431.43,-34.46 435.99,-39.78"/>
</g>
<!-- Node11 -->
<g id="node11" class="node">
<title>Node11</title>
<g id="a_node11"><a xlink:title=" ">
<polygon fill="white" stroke="#bfbfbf" points="546.5,-84 546.5,-103 604.5,-103 604.5,-84 546.5,-84"/>
<text text-anchor="middle" x="575.5" y="-91" font-family="Helvetica,sans-Serif" font-size="10.00">memory</text>
</a>
</g>
</g>
<!-- Node4&#45;&gt;Node11 -->
<g id="edge12" class="edge">
<title>Node4&#45;&gt;Node11</title>
<path fill="none" stroke="midnightblue" d="M419.97,-150.97C451.54,-139.72 496.9,-123.47 536.5,-109 538.59,-108.23 540.75,-107.44 542.93,-106.64"/>
<polygon fill="midnightblue" stroke="midnightblue" points="544.25,-109.88 552.42,-103.13 541.83,-103.32 544.25,-109.88"/>
</g>
<!-- Node12 -->
<g id="node12" class="node">
<title>Node12</title>
<g id="a_node12"><a xlink:title=" ">
<polygon fill="white" stroke="#bfbfbf" points="622.5,-78.5 622.5,-108.5 746.5,-108.5 746.5,-78.5 622.5,-78.5"/>
<text text-anchor="start" x="630.5" y="-96.5" font-family="Helvetica,sans-Serif" font-size="10.00">packages/primitives</text>
<text text-anchor="middle" x="684.5" y="-85.5" font-family="Helvetica,sans-Serif" font-size="10.00">/impl/Object_impl.hpp</text>
</a>
</g>
</g>
<!-- Node4&#45;&gt;Node12 -->
<g id="edge14" class="edge">
<title>Node4&#45;&gt;Node12</title>
<path fill="none" stroke="midnightblue" d="M438.04,-151.66C488.11,-140.04 560.84,-123.18 614.32,-110.77"/>
<polygon fill="midnightblue" stroke="midnightblue" points="615.12,-114.18 624.08,-108.51 613.54,-107.36 615.12,-114.18"/>
</g>
<!-- Node8&#45;&gt;Node5 -->
<g id="edge9" class="edge">
<title>Node8&#45;&gt;Node5</title>
<path fill="none" stroke="midnightblue" d="M249.38,-78.49C218.3,-68.83 176.31,-55.79 140.5,-44.67"/>
<polygon fill="midnightblue" stroke="midnightblue" points="141.17,-41.22 130.58,-41.59 139.1,-47.9 141.17,-41.22"/>
</g>
<!-- Node8&#45;&gt;Node7 -->
<g id="edge8" class="edge">
<title>Node8&#45;&gt;Node7</title>
<path fill="none" stroke="midnightblue" d="M277.1,-78.23C264.54,-67.94 247.41,-53.9 233.41,-42.42"/>
<polygon fill="midnightblue" stroke="midnightblue" points="235.54,-39.64 225.58,-36 231.1,-45.05 235.54,-39.64"/>
</g>
<!-- Node9 -->
<g id="node9" class="node">
<title>Node9</title>
<g id="a_node9"><a target="_parent" xlink:href="../../../cieutils/docs/html/StaticArray_8hpp.html.html" xlink:title=" ">
<polygon fill="white" stroke="black" points="282,-6 282,-36 413,-36 413,-6 282,-6"/>
<text text-anchor="start" x="290" y="-24" font-family="Helvetica,sans-Serif" font-size="10.00">packages/stl_extension</text>
<text text-anchor="middle" x="347.5" y="-13" font-family="Helvetica,sans-Serif" font-size="10.00">/inc/StaticArray.hpp</text>
</a>
</g>
</g>
<!-- Node8&#45;&gt;Node9 -->
<g id="edge10" class="edge">
<title>Node8&#45;&gt;Node9</title>
<path fill="none" stroke="midnightblue" d="M305.23,-78.23C312.55,-68.49 322.41,-55.37 330.76,-44.26"/>
<polygon fill="midnightblue" stroke="midnightblue" points="333.58,-46.34 336.79,-36.25 327.98,-42.14 333.58,-46.34"/>
</g>
<!-- Node8&#45;&gt;Node10 -->
<g id="edge11" class="edge">
<title>Node8&#45;&gt;Node10</title>
<path fill="none" stroke="midnightblue" d="M335.72,-78.42C361.01,-69.22 393.76,-56.29 421.5,-42 424.95,-40.22 428.5,-38.17 431.91,-36.07"/>
<polygon fill="midnightblue" stroke="midnightblue" points="433.96,-38.91 440.46,-30.55 430.16,-33.03 433.96,-38.91"/>
</g>
</g>
</svg>
