<?xml version="1.0" encoding="UTF-8" standalone="no"?>
<!DOCTYPE svg PUBLIC "-//W3C//DTD SVG 1.1//EN"
 "http://www.w3.org/Graphics/SVG/1.1/DTD/svg11.dtd">
<!-- Generated by graphviz version 2.43.0 (0)
 -->
<!-- Title: InfiniteDomain.hpp Pages: 1 -->
<svg width="755pt" height="240pt"
 viewBox="0.00 0.00 754.50 240.00" xmlns="http://www.w3.org/2000/svg" xmlns:xlink="http://www.w3.org/1999/xlink">
<g id="graph0" class="graph" transform="scale(1 1) rotate(0) translate(4 236)">
<title>InfiniteDomain.hpp</title>
<polygon fill="white" stroke="transparent" points="-4,4 -4,-236 750.5,-236 750.5,4 -4,4"/>
<!-- Node1 -->
<g id="node1" class="node">
<title>Node1</title>
<g id="a_node1"><a xlink:title=" ">
<polygon fill="#bfbfbf" stroke="black" points="403.5,-212.5 403.5,-231.5 513.5,-231.5 513.5,-212.5 403.5,-212.5"/>
<text text-anchor="middle" x="458.5" y="-219.5" font-family="Helvetica,sans-Serif" font-size="10.00">InfiniteDomain.hpp</text>
</a>
</g>
</g>
<!-- Node2 -->
<g id="node2" class="node">
<title>Node2</title>
<g id="a_node2"><a xlink:href="Object_8hpp.html" target="_top" xlink:title=" ">
<polygon fill="white" stroke="black" points="323,-145.5 323,-175.5 438,-175.5 438,-145.5 323,-145.5"/>
<text text-anchor="start" x="331" y="-163.5" font-family="Helvetica,sans-Serif" font-size="10.00">packages/primitives</text>
<text text-anchor="middle" x="380.5" y="-152.5" font-family="Helvetica,sans-Serif" font-size="10.00">/inc/Object.hpp</text>
</a>
</g>
</g>
<!-- Node1&#45;&gt;Node2 -->
<g id="edge1" class="edge">
<title>Node1&#45;&gt;Node2</title>
<path fill="none" stroke="midnightblue" d="M447.32,-212.48C436.86,-204.49 420.82,-192.25 407.07,-181.77"/>
<polygon fill="midnightblue" stroke="midnightblue" points="408.96,-178.81 398.88,-175.52 404.71,-184.37 408.96,-178.81"/>
</g>
<!-- Node11 -->
<g id="node11" class="node">
<title>Node11</title>
<g id="a_node11"><a xlink:title=" ">
<polygon fill="white" stroke="#bfbfbf" points="456.5,-145.5 456.5,-175.5 618.5,-175.5 618.5,-145.5 456.5,-145.5"/>
<text text-anchor="start" x="464.5" y="-163.5" font-family="Helvetica,sans-Serif" font-size="10.00">packages/primitives</text>
<text text-anchor="middle" x="537.5" y="-152.5" font-family="Helvetica,sans-Serif" font-size="10.00">/impl/EmptyDomain_impl.hpp</text>
</a>
</g>
</g>
<!-- Node1&#45;&gt;Node11 -->
<g id="edge13" class="edge">
<title>Node1&#45;&gt;Node11</title>
<path fill="none" stroke="midnightblue" d="M469.82,-212.48C480.42,-204.49 496.67,-192.25 510.59,-181.77"/>
<polygon fill="midnightblue" stroke="midnightblue" points="513,-184.33 518.88,-175.52 508.79,-178.74 513,-184.33"/>
</g>
<!-- Node3 -->
<g id="node3" class="node">
<title>Node3</title>
<g id="a_node3"><a target="_parent" xlink:href="../../../cieutils/docs/html/container__concepts_8hpp.html.html" xlink:title=" ">
<polygon fill="white" stroke="black" points="0,-0.5 0,-41.5 135,-41.5 135,-0.5 0,-0.5"/>
<text text-anchor="start" x="8" y="-29.5" font-family="Helvetica,sans-Serif" font-size="10.00">packages/compile_time</text>
<text text-anchor="start" x="8" y="-18.5" font-family="Helvetica,sans-Serif" font-size="10.00">/packages/concepts/inc</text>
<text text-anchor="middle" x="67.5" y="-7.5" font-family="Helvetica,sans-Serif" font-size="10.00">/container_concepts.hpp</text>
</a>
</g>
</g>
<!-- Node2&#45;&gt;Node3 -->
<g id="edge2" class="edge">
<title>Node2&#45;&gt;Node3</title>
<path fill="none" stroke="midnightblue" d="M322.98,-146.71C288.9,-138.14 245.31,-125.4 208.5,-109 170.57,-92.1 130.57,-66.59 102.91,-47.56"/>
<polygon fill="midnightblue" stroke="midnightblue" points="104.59,-44.46 94.38,-41.62 100.59,-50.21 104.59,-44.46"/>
</g>
<!-- Node4 -->
<g id="node4" class="node">
<title>Node4</title>
<g id="a_node4"><a target="_parent" xlink:href="../../../cieutils/docs/html/typedefs_8hpp.html.html" xlink:title=" ">
<polygon fill="white" stroke="black" points="409,-78.5 409,-108.5 528,-108.5 528,-78.5 409,-78.5"/>
<text text-anchor="start" x="417" y="-96.5" font-family="Helvetica,sans-Serif" font-size="10.00">packages/macros/inc</text>
<text text-anchor="middle" x="468.5" y="-85.5" font-family="Helvetica,sans-Serif" font-size="10.00">/typedefs.hpp</text>
</a>
</g>
</g>
<!-- Node2&#45;&gt;Node4 -->
<g id="edge3" class="edge">
<title>Node2&#45;&gt;Node4</title>
<path fill="none" stroke="midnightblue" d="M399.59,-145.4C411.82,-136.37 427.87,-124.51 441.4,-114.52"/>
<polygon fill="midnightblue" stroke="midnightblue" points="443.48,-117.33 449.44,-108.58 439.32,-111.7 443.48,-117.33"/>
</g>
<!-- Node5 -->
<g id="node5" class="node">
<title>Node5</title>
<g id="a_node5"><a target="_parent" xlink:href="../../../cieutils/docs/html/types_8hpp.html.html" xlink:title=" ">
<polygon fill="white" stroke="black" points="153.5,-6 153.5,-36 263.5,-36 263.5,-6 153.5,-6"/>
<text text-anchor="start" x="161.5" y="-24" font-family="Helvetica,sans-Serif" font-size="10.00">packages/types/inc</text>
<text text-anchor="middle" x="208.5" y="-13" font-family="Helvetica,sans-Serif" font-size="10.00">/types.hpp</text>
</a>
</g>
</g>
<!-- Node2&#45;&gt;Node5 -->
<g id="edge4" class="edge">
<title>Node2&#45;&gt;Node5</title>
<path fill="none" stroke="midnightblue" d="M322.84,-154.07C290.74,-148.06 252.54,-135.44 228.5,-109 213.09,-92.05 208.81,-65.67 207.94,-46.4"/>
<polygon fill="midnightblue" stroke="midnightblue" points="211.44,-46.2 207.76,-36.27 204.44,-46.33 211.44,-46.2"/>
</g>
<!-- Node6 -->
<g id="node6" class="node">
<title>Node6</title>
<g id="a_node6"><a xlink:href="Traits_8hpp.html" target="_top" xlink:title=" ">
<polygon fill="white" stroke="black" points="237,-78.5 237,-108.5 352,-108.5 352,-78.5 237,-78.5"/>
<text text-anchor="start" x="245" y="-96.5" font-family="Helvetica,sans-Serif" font-size="10.00">packages/primitives</text>
<text text-anchor="middle" x="294.5" y="-85.5" font-family="Helvetica,sans-Serif" font-size="10.00">/inc/Traits.hpp</text>
</a>
</g>
</g>
<!-- Node2&#45;&gt;Node6 -->
<g id="edge5" class="edge">
<title>Node2&#45;&gt;Node6</title>
<path fill="none" stroke="midnightblue" d="M361.84,-145.4C350.01,-136.45 334.51,-124.74 321.36,-114.8"/>
<polygon fill="midnightblue" stroke="midnightblue" points="323.21,-111.81 313.12,-108.58 318.99,-117.4 323.21,-111.81"/>
</g>
<!-- Node8 -->
<g id="node8" class="node">
<title>Node8</title>
<g id="a_node8"><a xlink:title=" ">
<polygon fill="white" stroke="#bfbfbf" points="431.5,-11.5 431.5,-30.5 473.5,-30.5 473.5,-11.5 431.5,-11.5"/>
<text text-anchor="middle" x="452.5" y="-18.5" font-family="Helvetica,sans-Serif" font-size="10.00">array</text>
</a>
</g>
</g>
<!-- Node2&#45;&gt;Node8 -->
<g id="edge11" class="edge">
<title>Node2&#45;&gt;Node8</title>
<path fill="none" stroke="midnightblue" d="M381.78,-145.47C383.78,-128.59 388.75,-99.8 400.5,-78 408.91,-62.4 422.7,-47.83 433.97,-37.47"/>
<polygon fill="midnightblue" stroke="midnightblue" points="436.44,-39.96 441.61,-30.71 431.8,-34.71 436.44,-39.96"/>
</g>
<!-- Node9 -->
<g id="node9" class="node">
<title>Node9</title>
<g id="a_node9"><a xlink:title=" ">
<polygon fill="white" stroke="#bfbfbf" points="546.5,-84 546.5,-103 604.5,-103 604.5,-84 546.5,-84"/>
<text text-anchor="middle" x="575.5" y="-91" font-family="Helvetica,sans-Serif" font-size="10.00">memory</text>
</a>
</g>
</g>
<!-- Node2&#45;&gt;Node9 -->
<g id="edge10" class="edge">
<title>Node2&#45;&gt;Node9</title>
<path fill="none" stroke="midnightblue" d="M426.4,-145.44C457.82,-135.65 500.36,-122.05 537.5,-109 539.61,-108.26 541.78,-107.48 543.96,-106.68"/>
<polygon fill="midnightblue" stroke="midnightblue" points="545.32,-109.91 553.47,-103.13 542.88,-103.35 545.32,-109.91"/>
</g>
<!-- Node10 -->
<g id="node10" class="node">
<title>Node10</title>
<g id="a_node10"><a xlink:title=" ">
<polygon fill="white" stroke="#bfbfbf" points="622.5,-78.5 622.5,-108.5 746.5,-108.5 746.5,-78.5 622.5,-78.5"/>
<text text-anchor="start" x="630.5" y="-96.5" font-family="Helvetica,sans-Serif" font-size="10.00">packages/primitives</text>
<text text-anchor="middle" x="684.5" y="-85.5" font-family="Helvetica,sans-Serif" font-size="10.00">/impl/Object_impl.hpp</text>
</a>
</g>
</g>
<!-- Node2&#45;&gt;Node10 -->
<g id="edge12" class="edge">
<title>Node2&#45;&gt;Node10</title>
<path fill="none" stroke="midnightblue" d="M438.24,-146.99C441.37,-146.32 444.47,-145.65 447.5,-145 502.68,-133.15 565.11,-119.85 612.04,-109.88"/>
<polygon fill="midnightblue" stroke="midnightblue" points="613.06,-113.24 622.11,-107.74 611.6,-106.39 613.06,-113.24"/>
</g>
<!-- Node6&#45;&gt;Node3 -->
<g id="edge7" class="edge">
<title>Node6&#45;&gt;Node3</title>
<path fill="none" stroke="midnightblue" d="M249.38,-78.49C218.3,-68.83 176.31,-55.79 140.5,-44.67"/>
<polygon fill="midnightblue" stroke="midnightblue" points="141.17,-41.22 130.58,-41.59 139.1,-47.9 141.17,-41.22"/>
</g>
<!-- Node6&#45;&gt;Node5 -->
<g id="edge6" class="edge">
<title>Node6&#45;&gt;Node5</title>
<path fill="none" stroke="midnightblue" d="M277.1,-78.23C264.54,-67.94 247.41,-53.9 233.41,-42.42"/>
<polygon fill="midnightblue" stroke="midnightblue" points="235.54,-39.64 225.58,-36 231.1,-45.05 235.54,-39.64"/>
</g>
<!-- Node7 -->
<g id="node7" class="node">
<title>Node7</title>
<g id="a_node7"><a target="_parent" xlink:href="../../../cieutils/docs/html/StaticArray_8hpp.html.html" xlink:title=" ">
<polygon fill="white" stroke="black" points="282,-6 282,-36 413,-36 413,-6 282,-6"/>
<text text-anchor="start" x="290" y="-24" font-family="Helvetica,sans-Serif" font-size="10.00">packages/stl_extension</text>
<text text-anchor="middle" x="347.5" y="-13" font-family="Helvetica,sans-Serif" font-size="10.00">/inc/StaticArray.hpp</text>
</a>
</g>
</g>
<!-- Node6&#45;&gt;Node7 -->
<g id="edge8" class="edge">
<title>Node6&#45;&gt;Node7</title>
<path fill="none" stroke="midnightblue" d="M305.23,-78.23C312.55,-68.49 322.41,-55.37 330.76,-44.26"/>
<polygon fill="midnightblue" stroke="midnightblue" points="333.58,-46.34 336.79,-36.25 327.98,-42.14 333.58,-46.34"/>
</g>
<!-- Node6&#45;&gt;Node8 -->
<g id="edge9" class="edge">
<title>Node6&#45;&gt;Node8</title>
<path fill="none" stroke="midnightblue" d="M336.71,-78.41C362.15,-69.29 394.87,-56.45 422.5,-42 425.76,-40.29 429.11,-38.32 432.32,-36.28"/>
<polygon fill="midnightblue" stroke="midnightblue" points="434.5,-39.04 440.89,-30.58 430.62,-33.21 434.5,-39.04"/>
</g>
</g>
</svg>
