<?xml version="1.0" encoding="UTF-8" standalone="no"?>
<!DOCTYPE svg PUBLIC "-//W3C//DTD SVG 1.1//EN"
 "http://www.w3.org/Graphics/SVG/1.1/DTD/svg11.dtd">
<!-- Generated by graphviz version 2.43.0 (0)
 -->
<!-- Title: Graphical Class Hierarchy Pages: 1 -->
<svg width="691pt" height="88pt"
 viewBox="0.00 0.00 691.00 88.00" xmlns="http://www.w3.org/2000/svg" xmlns:xlink="http://www.w3.org/1999/xlink">
<g id="graph0" class="graph" transform="scale(1 1) rotate(0) translate(4 84)">
<title>Graphical Class Hierarchy</title>
<polygon fill="white" stroke="transparent" points="-4,4 -4,-84 687,-84 687,4 -4,4"/>
<!-- Node0 -->
<g id="node1" class="node">
<title>Node0</title>
<g id="a_node1"><a xlink:href="classGetTraitsT.html" target="_top" xlink:title=" ">
<polygon fill="white" stroke="black" points="0,-30 0,-49 66,-49 66,-30 0,-30"/>
<text text-anchor="middle" x="33" y="-37" font-family="Helvetica,sans-Serif" font-size="10.00">GetTraitsT</text>
</a>
</g>
</g>
<!-- Node1 -->
<g id="node2" class="node">
<title>Node1</title>
<g id="a_node2"><a xlink:href="classcie_1_1geo_1_1AbsMarchingPrimitives.html" target="_top" xlink:title=" ">
<polygon fill="white" stroke="black" points="102,-24.5 102,-54.5 275,-54.5 275,-24.5 102,-24.5"/>
<text text-anchor="start" x="110" y="-42.5" font-family="Helvetica,sans-Serif" font-size="10.00">cie::geo::AbsMarchingPrimitives</text>
<text text-anchor="middle" x="188.5" y="-31.5" font-family="Helvetica,sans-Serif" font-size="10.00">&lt; TTarget &gt;</text>
</a>
</g>
</g>
<!-- Node0&#45;&gt;Node1 -->
<g id="edge1" class="edge">
<title>Node0&#45;&gt;Node1</title>
<path fill="none" stroke="midnightblue" d="M76.35,-39.5C84.39,-39.5 93.08,-39.5 101.91,-39.5"/>
<polygon fill="midnightblue" stroke="midnightblue" points="76.18,-36 66.18,-39.5 76.18,-43 76.18,-36"/>
</g>
<!-- Node2 -->
<g id="node3" class="node">
<title>Node2</title>
<g id="a_node3"><a xlink:href="classcie_1_1geo_1_1MarchingPrimitives.html" target="_top" xlink:title=" ">
<polygon fill="white" stroke="black" points="311,-24.5 311,-54.5 466,-54.5 466,-24.5 311,-24.5"/>
<text text-anchor="start" x="319" y="-42.5" font-family="Helvetica,sans-Serif" font-size="10.00">cie::geo::MarchingPrimitives</text>
<text text-anchor="middle" x="388.5" y="-31.5" font-family="Helvetica,sans-Serif" font-size="10.00">&lt; TTarget, TPrimitive &gt;</text>
</a>
</g>
</g>
<!-- Node1&#45;&gt;Node2 -->
<g id="edge2" class="edge">
<title>Node1&#45;&gt;Node2</title>
<path fill="none" stroke="midnightblue" d="M285.2,-39.5C293.76,-39.5 302.34,-39.5 310.71,-39.5"/>
<polygon fill="midnightblue" stroke="midnightblue" points="285.19,-36 275.19,-39.5 285.19,-43 285.19,-36"/>
</g>
<!-- Node3 -->
<g id="node4" class="node">
<title>Node3</title>
<g id="a_node4"><a xlink:href="classcie_1_1geo_1_1StructuredMarchingPrimitives.html" target="_top" xlink:title="MarchingPrimitives that scans a cartesian mesh of primitives.">
<polygon fill="white" stroke="black" points="502,-49.5 502,-79.5 683,-79.5 683,-49.5 502,-49.5"/>
<text text-anchor="start" x="510" y="-67.5" font-family="Helvetica,sans-Serif" font-size="10.00">cie::geo::StructuredMarching</text>
<text text-anchor="middle" x="592.5" y="-56.5" font-family="Helvetica,sans-Serif" font-size="10.00">Primitives&lt; TTarget, TPrimitive &gt;</text>
</a>
</g>
</g>
<!-- Node2&#45;&gt;Node3 -->
<g id="edge3" class="edge">
<title>Node2&#45;&gt;Node3</title>
<path fill="none" stroke="midnightblue" d="M476.32,-50.25C484.72,-51.28 493.25,-52.34 501.68,-53.38"/>
<polygon fill="midnightblue" stroke="midnightblue" points="476.51,-46.74 466.16,-48.99 475.65,-53.69 476.51,-46.74"/>
</g>
<!-- Node4 -->
<g id="node5" class="node">
<title>Node4</title>
<g id="a_node5"><a xlink:href="classcie_1_1geo_1_1UnstructuredMarchingPrimitives.html" target="_top" xlink:title="MarchingPrimitives that scans a container of primitives.">
<polygon fill="white" stroke="black" points="502,-0.5 502,-30.5 683,-30.5 683,-0.5 502,-0.5"/>
<text text-anchor="start" x="510" y="-18.5" font-family="Helvetica,sans-Serif" font-size="10.00">cie::geo::UnstructuredMarching</text>
<text text-anchor="middle" x="592.5" y="-7.5" font-family="Helvetica,sans-Serif" font-size="10.00">Primitives&lt; TTarget, TPrimitive &gt;</text>
</a>
</g>
</g>
<!-- Node2&#45;&gt;Node4 -->
<g id="edge4" class="edge">
<title>Node2&#45;&gt;Node4</title>
<path fill="none" stroke="midnightblue" d="M476.32,-29.18C484.72,-28.19 493.25,-27.17 501.68,-26.17"/>
<polygon fill="midnightblue" stroke="midnightblue" points="475.67,-25.74 466.16,-30.39 476.5,-32.69 475.67,-25.74"/>
</g>
</g>
</svg>
