<?xml version="1.0" encoding="UTF-8" standalone="no"?>
<!DOCTYPE svg PUBLIC "-//W3C//DTD SVG 1.1//EN"
 "http://www.w3.org/Graphics/SVG/1.1/DTD/svg11.dtd">
<!-- Generated by graphviz version 2.43.0 (0)
 -->
<!-- Title: Graphical Class Hierarchy Pages: 1 -->
<svg width="361pt" height="100pt"
 viewBox="0.00 0.00 361.00 99.50" xmlns="http://www.w3.org/2000/svg" xmlns:xlink="http://www.w3.org/1999/xlink">
<g id="graph0" class="graph" transform="scale(1 1) rotate(0) translate(4 95.5)">
<title>Graphical Class Hierarchy</title>
<polygon fill="white" stroke="transparent" points="-4,4 -4,-95.5 357,-95.5 357,4 -4,4"/>
<!-- Node12 -->
<g id="node1" class="node">
<title>Node12</title>
<g id="a_node1"><a xlink:title=" ">
<polygon fill="white" stroke="#bfbfbf" points="0,-39 0,-91 172,-91 172,-39 0,-39"/>
<text text-anchor="start" x="8" y="-79" font-family="Helvetica,sans-Serif" font-size="10.00">cie::utils::ContiguousTree</text>
<text text-anchor="start" x="8" y="-68" font-family="Helvetica,sans-Serif" font-size="10.00">&lt; detail::CSTNode&lt; TGeometry</text>
<text text-anchor="start" x="8" y="-57" font-family="Helvetica,sans-Serif" font-size="10.00">::Dimension, TIndex &gt;, TIndex,</text>
<text text-anchor="middle" x="86" y="-46" font-family="Helvetica,sans-Serif" font-size="10.00"> tags::Serial &gt;</text>
</a>
</g>
</g>
<!-- Node0 -->
<g id="node2" class="node">
<title>Node0</title>
<g id="a_node2"><a xlink:href="classcie_1_1geo_1_1ContiguousSpaceTree.html" target="_top" xlink:title=" ">
<polygon fill="white" stroke="black" points="208,-16.5 208,-57.5 353,-57.5 353,-16.5 208,-16.5"/>
<text text-anchor="start" x="216" y="-45.5" font-family="Helvetica,sans-Serif" font-size="10.00">cie::geo::ContiguousSpace</text>
<text text-anchor="start" x="216" y="-34.5" font-family="Helvetica,sans-Serif" font-size="10.00">Tree&lt; TGeometry, TIndex,</text>
<text text-anchor="middle" x="280.5" y="-23.5" font-family="Helvetica,sans-Serif" font-size="10.00"> TParallelTag &gt;</text>
</a>
</g>
</g>
<!-- Node12&#45;&gt;Node0 -->
<g id="edge1" class="edge">
<title>Node12&#45;&gt;Node0</title>
<path fill="none" stroke="midnightblue" d="M182.32,-51.13C190.9,-49.89 199.49,-48.64 207.82,-47.43"/>
<polygon fill="midnightblue" stroke="midnightblue" points="181.67,-47.69 172.27,-52.6 182.67,-54.62 181.67,-47.69"/>
</g>
<!-- Node103 -->
<g id="node3" class="node">
<title>Node103</title>
<g id="a_node3"><a xlink:href="classcie_1_1geo_1_1TGeometry.html" target="_top" xlink:title=" ">
<polygon fill="white" stroke="black" points="28,-0.5 28,-19.5 144,-19.5 144,-0.5 28,-0.5"/>
<text text-anchor="middle" x="86" y="-7.5" font-family="Helvetica,sans-Serif" font-size="10.00">cie::geo::TGeometry</text>
</a>
</g>
</g>
<!-- Node103&#45;&gt;Node0 -->
<g id="edge2" class="edge">
<title>Node103&#45;&gt;Node0</title>
<path fill="none" stroke="midnightblue" d="M154.25,-19.43C171.57,-21.86 190.27,-24.48 207.8,-26.94"/>
<polygon fill="midnightblue" stroke="midnightblue" points="154.62,-15.95 144.24,-18.03 153.65,-22.88 154.62,-15.95"/>
</g>
</g>
</svg>
