<?xml version="1.0" encoding="UTF-8" standalone="no"?>
<!DOCTYPE svg PUBLIC "-//W3C//DTD SVG 1.1//EN"
 "http://www.w3.org/Graphics/SVG/1.1/DTD/svg11.dtd">
<!-- Generated by graphviz version 2.43.0 (0)
 -->
<!-- Title: Graphical Class Hierarchy Pages: 1 -->
<svg width="746pt" height="112pt"
 viewBox="0.00 0.00 746.00 112.00" xmlns="http://www.w3.org/2000/svg" xmlns:xlink="http://www.w3.org/1999/xlink">
<g id="graph0" class="graph" transform="scale(1 1) rotate(0) translate(4 108)">
<title>Graphical Class Hierarchy</title>
<polygon fill="white" stroke="transparent" points="-4,4 -4,-108 742,-108 742,4 -4,4"/>
<!-- Node0 -->
<g id="node1" class="node">
<title>Node0</title>
<g id="a_node1"><a xlink:href="classcie_1_1geo_1_1Traits.html" target="_top" xlink:title=" ">
<polygon fill="white" stroke="black" points="0,-19 0,-60 170,-60 170,-19 0,-19"/>
<text text-anchor="start" x="8" y="-48" font-family="Helvetica,sans-Serif" font-size="10.00">cie::geo::Traits&lt; Primitive</text>
<text text-anchor="start" x="8" y="-37" font-family="Helvetica,sans-Serif" font-size="10.00">Type::Dimension, PrimitiveType</text>
<text text-anchor="middle" x="85" y="-26" font-family="Helvetica,sans-Serif" font-size="10.00">::Coordinate &gt;</text>
</a>
</g>
</g>
<!-- Node1 -->
<g id="node2" class="node">
<title>Node1</title>
<g id="a_node2"><a xlink:href="classcie_1_1geo_1_1PrimitiveSampler.html" target="_top" xlink:title=" ">
<polygon fill="white" stroke="black" points="206,-49.5 206,-79.5 352,-79.5 352,-49.5 206,-49.5"/>
<text text-anchor="start" x="214" y="-67.5" font-family="Helvetica,sans-Serif" font-size="10.00">cie::geo::PrimitiveSampler</text>
<text text-anchor="middle" x="279" y="-56.5" font-family="Helvetica,sans-Serif" font-size="10.00">&lt; TPrimitive &gt;</text>
</a>
</g>
</g>
<!-- Node0&#45;&gt;Node1 -->
<g id="edge1" class="edge">
<title>Node0&#45;&gt;Node1</title>
<path fill="none" stroke="midnightblue" d="M180.29,-51.78C188.89,-52.9 197.51,-54.02 205.87,-55.11"/>
<polygon fill="midnightblue" stroke="midnightblue" points="180.58,-48.29 170.21,-50.47 179.68,-55.23 180.58,-48.29"/>
</g>
<!-- Node5 -->
<g id="node6" class="node">
<title>Node5</title>
<g id="a_node6"><a xlink:href="classcie_1_1geo_1_1PrimitiveSampler.html" target="_top" xlink:title="Interface for computing sample points on primitives.">
<polygon fill="white" stroke="black" points="206,-0.5 206,-30.5 352,-30.5 352,-0.5 206,-0.5"/>
<text text-anchor="start" x="214" y="-18.5" font-family="Helvetica,sans-Serif" font-size="10.00">cie::geo::PrimitiveSampler</text>
<text text-anchor="middle" x="279" y="-7.5" font-family="Helvetica,sans-Serif" font-size="10.00">&lt; PrimitiveType &gt;</text>
</a>
</g>
</g>
<!-- Node0&#45;&gt;Node5 -->
<g id="edge5" class="edge">
<title>Node0&#45;&gt;Node5</title>
<path fill="none" stroke="midnightblue" d="M180.29,-27.71C188.89,-26.64 197.51,-25.56 205.87,-24.52"/>
<polygon fill="midnightblue" stroke="midnightblue" points="179.7,-24.26 170.21,-28.97 180.57,-31.21 179.7,-24.26"/>
</g>
<!-- Node2 -->
<g id="node3" class="node">
<title>Node2</title>
<g id="a_node3"><a xlink:href="classcie_1_1geo_1_1AbsCartesianGridSampler.html" target="_top" xlink:title="Interface for cartesian samplers.">
<polygon fill="white" stroke="black" points="388,-73.5 388,-103.5 534,-103.5 534,-73.5 388,-73.5"/>
<text text-anchor="start" x="396" y="-91.5" font-family="Helvetica,sans-Serif" font-size="10.00">cie::geo::AbsCartesianGrid</text>
<text text-anchor="middle" x="461" y="-80.5" font-family="Helvetica,sans-Serif" font-size="10.00">Sampler&lt; TPrimitive &gt;</text>
</a>
</g>
</g>
<!-- Node1&#45;&gt;Node2 -->
<g id="edge2" class="edge">
<title>Node1&#45;&gt;Node2</title>
<path fill="none" stroke="midnightblue" d="M362.16,-75.45C370.72,-76.6 379.37,-77.75 387.81,-78.87"/>
<polygon fill="midnightblue" stroke="midnightblue" points="362.55,-71.98 352.18,-74.12 361.63,-78.91 362.55,-71.98"/>
</g>
<!-- Node4 -->
<g id="node5" class="node">
<title>Node4</title>
<g id="a_node5"><a xlink:href="classcie_1_1geo_1_1CornerSampler_3_01TPrimitive_01_4.html" target="_top" xlink:title=" ">
<polygon fill="white" stroke="black" points="394,-24.5 394,-54.5 528,-54.5 528,-24.5 394,-24.5"/>
<text text-anchor="start" x="402" y="-42.5" font-family="Helvetica,sans-Serif" font-size="10.00">cie::geo::CornerSampler</text>
<text text-anchor="middle" x="461" y="-31.5" font-family="Helvetica,sans-Serif" font-size="10.00">&lt; TPrimitive &gt;</text>
</a>
</g>
</g>
<!-- Node1&#45;&gt;Node4 -->
<g id="edge4" class="edge">
<title>Node1&#45;&gt;Node4</title>
<path fill="none" stroke="midnightblue" d="M362.28,-53.07C372.88,-51.6 383.63,-50.11 393.93,-48.68"/>
<polygon fill="midnightblue" stroke="midnightblue" points="361.6,-49.63 352.18,-54.48 362.56,-56.57 361.6,-49.63"/>
</g>
<!-- Node3 -->
<g id="node4" class="node">
<title>Node3</title>
<g id="a_node4"><a xlink:href="classcie_1_1geo_1_1CartesianGridSampler_3_01TPrimitive_01_4.html" target="_top" xlink:title="Invalid default template.">
<polygon fill="white" stroke="black" points="570,-73.5 570,-103.5 738,-103.5 738,-73.5 570,-73.5"/>
<text text-anchor="start" x="578" y="-91.5" font-family="Helvetica,sans-Serif" font-size="10.00">cie::geo::CartesianGridSampler</text>
<text text-anchor="middle" x="654" y="-80.5" font-family="Helvetica,sans-Serif" font-size="10.00">&lt; TPrimitive &gt;</text>
</a>
</g>
</g>
<!-- Node2&#45;&gt;Node3 -->
<g id="edge3" class="edge">
<title>Node2&#45;&gt;Node3</title>
<path fill="none" stroke="midnightblue" d="M544.39,-88.5C552.81,-88.5 561.37,-88.5 569.79,-88.5"/>
<polygon fill="midnightblue" stroke="midnightblue" points="544.21,-85 534.21,-88.5 544.21,-92 544.21,-85"/>
</g>
</g>
</svg>
