<?xml version="1.0" encoding="UTF-8" standalone="no"?>
<!DOCTYPE svg PUBLIC "-//W3C//DTD SVG 1.1//EN"
 "http://www.w3.org/Graphics/SVG/1.1/DTD/svg11.dtd">
<!-- Generated by graphviz version 2.43.0 (0)
 -->
<!-- Title: Graphical Class Hierarchy Pages: 1 -->
<svg width="382pt" height="137pt"
 viewBox="0.00 0.00 382.00 137.00" xmlns="http://www.w3.org/2000/svg" xmlns:xlink="http://www.w3.org/1999/xlink">
<g id="graph0" class="graph" transform="scale(1 1) rotate(0) translate(4 133)">
<title>Graphical Class Hierarchy</title>
<polygon fill="white" stroke="transparent" points="-4,4 -4,-133 378,-133 378,4 -4,4"/>
<!-- Node0 -->
<g id="node1" class="node">
<title>Node0</title>
<g id="a_node1"><a xlink:href="classcie_1_1geo_1_1SplitPolicy.html" target="_top" xlink:title=" ">
<polygon fill="white" stroke="black" points="0,-49.5 0,-79.5 169,-79.5 169,-49.5 0,-49.5"/>
<text text-anchor="start" x="8" y="-67.5" font-family="Helvetica,sans-Serif" font-size="10.00">cie::geo::SplitPolicy</text>
<text text-anchor="middle" x="84.5" y="-56.5" font-family="Helvetica,sans-Serif" font-size="10.00">&lt; PointIterator, ValueIterator &gt;</text>
</a>
</g>
</g>
<!-- Node1 -->
<g id="node2" class="node">
<title>Node1</title>
<g id="a_node2"><a xlink:href="classcie_1_1geo_1_1LinearSplitPolicy.html" target="_top" xlink:title=" ">
<polygon fill="white" stroke="black" points="205,-98.5 205,-128.5 374,-128.5 374,-98.5 205,-98.5"/>
<text text-anchor="start" x="213" y="-116.5" font-family="Helvetica,sans-Serif" font-size="10.00">cie::geo::LinearSplitPolicy</text>
<text text-anchor="middle" x="289.5" y="-105.5" font-family="Helvetica,sans-Serif" font-size="10.00">&lt; PointIterator, ValueIterator &gt;</text>
</a>
</g>
</g>
<!-- Node0&#45;&gt;Node1 -->
<g id="edge1" class="edge">
<title>Node0&#45;&gt;Node1</title>
<path fill="none" stroke="midnightblue" d="M157.6,-81.9C180.06,-87.32 204.62,-93.25 226.33,-98.49"/>
<polygon fill="midnightblue" stroke="midnightblue" points="158.33,-78.48 147.79,-79.53 156.69,-85.28 158.33,-78.48"/>
</g>
<!-- Node2 -->
<g id="node3" class="node">
<title>Node2</title>
<g id="a_node3"><a xlink:href="classcie_1_1geo_1_1MidPointSplitPolicy.html" target="_top" xlink:title="Compute the arithmetic mean of the input points.">
<polygon fill="white" stroke="black" points="205,-49.5 205,-79.5 374,-79.5 374,-49.5 205,-49.5"/>
<text text-anchor="start" x="213" y="-67.5" font-family="Helvetica,sans-Serif" font-size="10.00">cie::geo::MidPointSplitPolicy</text>
<text text-anchor="middle" x="289.5" y="-56.5" font-family="Helvetica,sans-Serif" font-size="10.00">&lt; PointIterator, ValueIterator &gt;</text>
</a>
</g>
</g>
<!-- Node0&#45;&gt;Node2 -->
<g id="edge2" class="edge">
<title>Node0&#45;&gt;Node2</title>
<path fill="none" stroke="midnightblue" d="M179.26,-64.5C187.83,-64.5 196.48,-64.5 204.95,-64.5"/>
<polygon fill="midnightblue" stroke="midnightblue" points="179.24,-61 169.24,-64.5 179.24,-68 179.24,-61"/>
</g>
<!-- Node3 -->
<g id="node4" class="node">
<title>Node3</title>
<g id="a_node4"><a xlink:href="classcie_1_1geo_1_1WeightedSplitPolicy.html" target="_top" xlink:title=" ">
<polygon fill="white" stroke="black" points="205,-0.5 205,-30.5 374,-30.5 374,-0.5 205,-0.5"/>
<text text-anchor="start" x="213" y="-18.5" font-family="Helvetica,sans-Serif" font-size="10.00">cie::geo::WeightedSplitPolicy</text>
<text text-anchor="middle" x="289.5" y="-7.5" font-family="Helvetica,sans-Serif" font-size="10.00">&lt; PointIterator, ValueIterator &gt;</text>
</a>
</g>
</g>
<!-- Node0&#45;&gt;Node3 -->
<g id="edge3" class="edge">
<title>Node0&#45;&gt;Node3</title>
<path fill="none" stroke="midnightblue" d="M157.6,-47.1C180.06,-41.68 204.62,-35.75 226.33,-30.51"/>
<polygon fill="midnightblue" stroke="midnightblue" points="156.69,-43.72 147.79,-49.47 158.33,-50.52 156.69,-43.72"/>
</g>
</g>
</svg>
