<?xml version="1.0" encoding="UTF-8" standalone="no"?>
<!DOCTYPE svg PUBLIC "-//W3C//DTD SVG 1.1//EN"
 "http://www.w3.org/Graphics/SVG/1.1/DTD/svg11.dtd">
<!-- Generated by graphviz version 2.43.0 (0)
 -->
<!-- Title: Graphical Class Hierarchy Pages: 1 -->
<svg width="1235pt" height="751pt"
 viewBox="0.00 0.00 1235.00 750.50" xmlns="http://www.w3.org/2000/svg" xmlns:xlink="http://www.w3.org/1999/xlink">
<g id="graph0" class="graph" transform="scale(1 1) rotate(0) translate(4 746.5)">
<title>Graphical Class Hierarchy</title>
<polygon fill="white" stroke="transparent" points="-4,4 -4,-746.5 1231,-746.5 1231,4 -4,4"/>
<!-- Node0 -->
<g id="node1" class="node">
<title>Node0</title>
<g id="a_node1"><a xlink:href="classcie_1_1geo_1_1Traits.html" target="_top" xlink:title=" ">
<polygon fill="white" stroke="black" points="0,-49.5 0,-79.5 154,-79.5 154,-49.5 0,-49.5"/>
<text text-anchor="start" x="8" y="-67.5" font-family="Helvetica,sans-Serif" font-size="10.00">cie::geo::Traits&lt; Dimension,</text>
<text text-anchor="middle" x="77" y="-56.5" font-family="Helvetica,sans-Serif" font-size="10.00"> CoordinateType &gt;</text>
</a>
</g>
</g>
<!-- Node1 -->
<g id="node2" class="node">
<title>Node1</title>
<g id="a_node2"><a xlink:href="classcie_1_1geo_1_1AbsPrimitive.html" target="_top" xlink:title=" ">
<polygon fill="white" stroke="black" points="210.5,-98.5 210.5,-128.5 342.5,-128.5 342.5,-98.5 210.5,-98.5"/>
<text text-anchor="start" x="218.5" y="-116.5" font-family="Helvetica,sans-Serif" font-size="10.00">cie::geo::AbsPrimitive</text>
<text text-anchor="middle" x="276.5" y="-105.5" font-family="Helvetica,sans-Serif" font-size="10.00">&lt; Dimension, Double &gt;</text>
</a>
</g>
</g>
<!-- Node0&#45;&gt;Node1 -->
<g id="edge1" class="edge">
<title>Node0&#45;&gt;Node1</title>
<path fill="none" stroke="midnightblue" d="M148.44,-81.98C170.21,-87.38 193.98,-93.28 215.02,-98.49"/>
<polygon fill="midnightblue" stroke="midnightblue" points="149.15,-78.55 138.6,-79.53 147.46,-85.34 149.15,-78.55"/>
</g>
<!-- Node10 -->
<g id="node11" class="node">
<title>Node10</title>
<g id="a_node11"><a xlink:href="classcie_1_1geo_1_1AbsBoundableObject.html" target="_top" xlink:title=" ">
<polygon fill="white" stroke="black" points="190,-49.5 190,-79.5 363,-79.5 363,-49.5 190,-49.5"/>
<text text-anchor="start" x="198" y="-67.5" font-family="Helvetica,sans-Serif" font-size="10.00">cie::geo::AbsBoundableObject</text>
<text text-anchor="middle" x="276.5" y="-56.5" font-family="Helvetica,sans-Serif" font-size="10.00">&lt; Dimension, CoordinateType &gt;</text>
</a>
</g>
</g>
<!-- Node0&#45;&gt;Node10 -->
<g id="edge10" class="edge">
<title>Node0&#45;&gt;Node10</title>
<path fill="none" stroke="midnightblue" d="M164.35,-64.5C172.84,-64.5 181.45,-64.5 189.93,-64.5"/>
<polygon fill="midnightblue" stroke="midnightblue" points="164.08,-61 154.08,-64.5 164.08,-68 164.08,-61"/>
</g>
<!-- Node11 -->
<g id="node12" class="node">
<title>Node11</title>
<g id="a_node12"><a xlink:href="structcie_1_1geo_1_1MeshTraits.html" target="_top" xlink:title=" ">
<polygon fill="white" stroke="black" points="190,-0.5 190,-30.5 363,-30.5 363,-0.5 190,-0.5"/>
<text text-anchor="start" x="198" y="-18.5" font-family="Helvetica,sans-Serif" font-size="10.00">cie::geo::MeshTraits</text>
<text text-anchor="middle" x="276.5" y="-7.5" font-family="Helvetica,sans-Serif" font-size="10.00">&lt; Dimension, CoordinateType &gt;</text>
</a>
</g>
</g>
<!-- Node0&#45;&gt;Node11 -->
<g id="edge11" class="edge">
<title>Node0&#45;&gt;Node11</title>
<path fill="none" stroke="midnightblue" d="M148.44,-47.02C170.21,-41.62 193.98,-35.72 215.02,-30.51"/>
<polygon fill="midnightblue" stroke="midnightblue" points="147.46,-43.66 138.6,-49.47 149.15,-50.45 147.46,-43.66"/>
</g>
<!-- Node2 -->
<g id="node3" class="node">
<title>Node2</title>
<g id="a_node3"><a xlink:href="classcie_1_1geo_1_1Box.html" target="_top" xlink:title=" ">
<polygon fill="white" stroke="black" points="412.5,-171.5 412.5,-201.5 558.5,-201.5 558.5,-171.5 412.5,-171.5"/>
<text text-anchor="start" x="420.5" y="-189.5" font-family="Helvetica,sans-Serif" font-size="10.00">cie::geo::Box&lt; Dimension,</text>
<text text-anchor="middle" x="485.5" y="-178.5" font-family="Helvetica,sans-Serif" font-size="10.00"> CoordinateType &gt;</text>
</a>
</g>
</g>
<!-- Node1&#45;&gt;Node2 -->
<g id="edge2" class="edge">
<title>Node1&#45;&gt;Node2</title>
<path fill="none" stroke="midnightblue" d="M322.46,-132.4C345.21,-141.68 373.38,-152.71 399,-161.5 408.95,-164.91 419.64,-168.27 429.99,-171.37"/>
<polygon fill="midnightblue" stroke="midnightblue" points="323.64,-129.11 313.06,-128.55 320.99,-135.58 323.64,-129.11"/>
</g>
<!-- Node7 -->
<g id="node8" class="node">
<title>Node7</title>
<g id="a_node8"><a xlink:href="classcie_1_1geo_1_1Cube.html" target="_top" xlink:title="Cube template.">
<polygon fill="white" stroke="black" points="409.5,-122.5 409.5,-152.5 561.5,-152.5 561.5,-122.5 409.5,-122.5"/>
<text text-anchor="start" x="417.5" y="-140.5" font-family="Helvetica,sans-Serif" font-size="10.00">cie::geo::Cube&lt; Dimension,</text>
<text text-anchor="middle" x="485.5" y="-129.5" font-family="Helvetica,sans-Serif" font-size="10.00"> CoordinateType &gt;</text>
</a>
</g>
</g>
<!-- Node1&#45;&gt;Node7 -->
<g id="edge7" class="edge">
<title>Node1&#45;&gt;Node7</title>
<path fill="none" stroke="midnightblue" d="M352.76,-122.23C371.13,-124.36 390.77,-126.63 409.14,-128.76"/>
<polygon fill="midnightblue" stroke="midnightblue" points="353.05,-118.74 342.71,-121.06 352.24,-125.69 353.05,-118.74"/>
</g>
<!-- Node8 -->
<g id="node9" class="node">
<title>Node8</title>
<g id="a_node9"><a xlink:href="classcie_1_1geo_1_1Ellipsoid.html" target="_top" xlink:title="Ellipsoid template.">
<polygon fill="white" stroke="black" points="399,-73.5 399,-103.5 572,-103.5 572,-73.5 399,-73.5"/>
<text text-anchor="start" x="407" y="-91.5" font-family="Helvetica,sans-Serif" font-size="10.00">cie::geo::Ellipsoid</text>
<text text-anchor="middle" x="485.5" y="-80.5" font-family="Helvetica,sans-Serif" font-size="10.00">&lt; Dimension, CoordinateType &gt;</text>
</a>
</g>
</g>
<!-- Node1&#45;&gt;Node8 -->
<g id="edge8" class="edge">
<title>Node1&#45;&gt;Node8</title>
<path fill="none" stroke="midnightblue" d="M352.88,-104.4C367.78,-102.6 383.53,-100.69 398.75,-98.86"/>
<polygon fill="midnightblue" stroke="midnightblue" points="352.22,-100.95 342.71,-105.62 353.06,-107.9 352.22,-100.95"/>
</g>
<!-- Node9 -->
<g id="node10" class="node">
<title>Node9</title>
<g id="a_node10"><a xlink:href="classcie_1_1geo_1_1Sphere.html" target="_top" xlink:title=" ">
<polygon fill="white" stroke="black" points="405,-24.5 405,-54.5 566,-54.5 566,-24.5 405,-24.5"/>
<text text-anchor="start" x="413" y="-42.5" font-family="Helvetica,sans-Serif" font-size="10.00">cie::geo::Sphere&lt; Dimension,</text>
<text text-anchor="middle" x="485.5" y="-31.5" font-family="Helvetica,sans-Serif" font-size="10.00"> CoordinateType &gt;</text>
</a>
</g>
</g>
<!-- Node1&#45;&gt;Node9 -->
<g id="edge9" class="edge">
<title>Node1&#45;&gt;Node9</title>
<path fill="none" stroke="midnightblue" d="M347.72,-94.99C352.97,-93 358.12,-90.83 363,-88.5 380.58,-80.1 381.38,-71.8 399,-63.5 406.11,-60.15 413.79,-57.18 421.51,-54.57"/>
<polygon fill="midnightblue" stroke="midnightblue" points="346.44,-91.73 338.21,-98.4 348.8,-98.32 346.44,-91.73"/>
</g>
<!-- Node3 -->
<g id="node4" class="node">
<title>Node3</title>
<g id="a_node4"><a xlink:href="classcie_1_1geo_1_1boolean_1_1Box.html" target="_top" xlink:title=" ">
<polygon fill="white" stroke="black" points="619,-143.5 619,-173.5 770,-173.5 770,-143.5 619,-143.5"/>
<text text-anchor="start" x="627" y="-161.5" font-family="Helvetica,sans-Serif" font-size="10.00">cie::geo::boolean::</text>
<text text-anchor="middle" x="694.5" y="-150.5" font-family="Helvetica,sans-Serif" font-size="10.00">Box&lt; Dimension, Double &gt;</text>
</a>
</g>
</g>
<!-- Node2&#45;&gt;Node3 -->
<g id="edge3" class="edge">
<title>Node2&#45;&gt;Node3</title>
<path fill="none" stroke="midnightblue" d="M568.78,-175.37C585.31,-173.13 602.59,-170.8 618.84,-168.6"/>
<polygon fill="midnightblue" stroke="midnightblue" points="568.05,-171.94 558.61,-176.75 568.99,-178.87 568.05,-171.94"/>
</g>
<!-- Node5 -->
<g id="node6" class="node">
<title>Node5</title>
<g id="a_node6"><a xlink:href="classcie_1_1geo_1_1boolean_1_1Box.html" target="_top" xlink:title=" ">
<polygon fill="white" stroke="black" points="615.5,-193 615.5,-234 773.5,-234 773.5,-193 615.5,-193"/>
<text text-anchor="start" x="623.5" y="-222" font-family="Helvetica,sans-Serif" font-size="10.00">cie::geo::boolean::</text>
<text text-anchor="start" x="623.5" y="-211" font-family="Helvetica,sans-Serif" font-size="10.00">Box&lt; Dimension, Coordinate</text>
<text text-anchor="middle" x="694.5" y="-200" font-family="Helvetica,sans-Serif" font-size="10.00">Type &gt;</text>
</a>
</g>
</g>
<!-- Node2&#45;&gt;Node5 -->
<g id="edge5" class="edge">
<title>Node2&#45;&gt;Node5</title>
<path fill="none" stroke="midnightblue" d="M568.61,-197.21C583.99,-199.22 600.04,-201.31 615.3,-203.3"/>
<polygon fill="midnightblue" stroke="midnightblue" points="568.98,-193.73 558.61,-195.91 568.07,-200.67 568.98,-193.73"/>
</g>
<!-- Node4 -->
<g id="node5" class="node">
<title>Node4</title>
<g id="a_node5"><a xlink:href="classcie_1_1geo_1_1AABBox.html" target="_top" xlink:title=" ">
<polygon fill="white" stroke="black" points="834,-143.5 834,-173.5 1001,-173.5 1001,-143.5 834,-143.5"/>
<text text-anchor="start" x="842" y="-161.5" font-family="Helvetica,sans-Serif" font-size="10.00">cie::geo::AABBox&lt; Dimension,</text>
<text text-anchor="middle" x="917.5" y="-150.5" font-family="Helvetica,sans-Serif" font-size="10.00"> CoordinateType &gt;</text>
</a>
</g>
</g>
<!-- Node3&#45;&gt;Node4 -->
<g id="edge4" class="edge">
<title>Node3&#45;&gt;Node4</title>
<path fill="none" stroke="midnightblue" d="M780.26,-158.5C797.88,-158.5 816.42,-158.5 833.95,-158.5"/>
<polygon fill="midnightblue" stroke="midnightblue" points="780.01,-155 770.01,-158.5 780.01,-162 780.01,-155"/>
</g>
<!-- Node6 -->
<g id="node7" class="node">
<title>Node6</title>
<g id="a_node7"><a xlink:href="classcie_1_1geo_1_1AABBox.html" target="_top" xlink:title=" ">
<polygon fill="white" stroke="black" points="834,-198.5 834,-228.5 1001,-228.5 1001,-198.5 834,-198.5"/>
<text text-anchor="start" x="842" y="-216.5" font-family="Helvetica,sans-Serif" font-size="10.00">cie::geo::AABBox&lt; Dimension,</text>
<text text-anchor="middle" x="917.5" y="-205.5" font-family="Helvetica,sans-Serif" font-size="10.00"> CoordinateType &gt;</text>
</a>
</g>
</g>
<!-- Node5&#45;&gt;Node6 -->
<g id="edge6" class="edge">
<title>Node5&#45;&gt;Node6</title>
<path fill="none" stroke="midnightblue" d="M783.9,-213.5C800.39,-213.5 817.57,-213.5 833.88,-213.5"/>
<polygon fill="midnightblue" stroke="midnightblue" points="783.73,-210 773.73,-213.5 783.73,-217 783.73,-210"/>
</g>
<!-- Node61 -->
<g id="node13" class="node">
<title>Node61</title>
<g id="a_node13"><a xlink:href="classcie_1_1geo_1_1Traits.html" target="_top" xlink:title=" ">
<polygon fill="white" stroke="black" points="0,-646.5 0,-676.5 154,-676.5 154,-646.5 0,-646.5"/>
<text text-anchor="start" x="8" y="-664.5" font-family="Helvetica,sans-Serif" font-size="10.00">cie::geo::Traits&lt; Dimension,</text>
<text text-anchor="middle" x="77" y="-653.5" font-family="Helvetica,sans-Serif" font-size="10.00"> Double &gt;</text>
</a>
</g>
</g>
<!-- Node62 -->
<g id="node14" class="node">
<title>Node62</title>
<g id="a_node14"><a xlink:href="classcie_1_1geo_1_1AbsPrimitive.html" target="_top" xlink:title=" ">
<polygon fill="white" stroke="black" points="190,-646.5 190,-676.5 363,-676.5 363,-646.5 190,-646.5"/>
<text text-anchor="start" x="198" y="-664.5" font-family="Helvetica,sans-Serif" font-size="10.00">cie::geo::AbsPrimitive</text>
<text text-anchor="middle" x="276.5" y="-653.5" font-family="Helvetica,sans-Serif" font-size="10.00">&lt; Dimension, CoordinateType &gt;</text>
</a>
</g>
</g>
<!-- Node61&#45;&gt;Node62 -->
<g id="edge12" class="edge">
<title>Node61&#45;&gt;Node62</title>
<path fill="none" stroke="midnightblue" d="M164.35,-661.5C172.84,-661.5 181.45,-661.5 189.93,-661.5"/>
<polygon fill="midnightblue" stroke="midnightblue" points="164.08,-658 154.08,-661.5 164.08,-665 164.08,-658"/>
</g>
<!-- Node63 -->
<g id="node15" class="node">
<title>Node63</title>
<g id="a_node15"><a xlink:href="classcie_1_1geo_1_1Cube.html" target="_top" xlink:title=" ">
<polygon fill="white" stroke="black" points="409.5,-700.5 409.5,-730.5 561.5,-730.5 561.5,-700.5 409.5,-700.5"/>
<text text-anchor="start" x="417.5" y="-718.5" font-family="Helvetica,sans-Serif" font-size="10.00">cie::geo::Cube&lt; Dimension,</text>
<text text-anchor="middle" x="485.5" y="-707.5" font-family="Helvetica,sans-Serif" font-size="10.00"> Double &gt;</text>
</a>
</g>
</g>
<!-- Node62&#45;&gt;Node63 -->
<g id="edge13" class="edge">
<title>Node62&#45;&gt;Node63</title>
<path fill="none" stroke="midnightblue" d="M345.09,-679.13C371.48,-686.02 401.43,-693.83 426.79,-700.45"/>
<polygon fill="midnightblue" stroke="midnightblue" points="345.72,-675.68 335.16,-676.54 343.95,-682.45 345.72,-675.68"/>
</g>
<!-- Node65 -->
<g id="node17" class="node">
<title>Node65</title>
<g id="a_node17"><a xlink:href="classcie_1_1geo_1_1Ellipsoid.html" target="_top" xlink:title=" ">
<polygon fill="white" stroke="black" points="419.5,-646.5 419.5,-676.5 551.5,-676.5 551.5,-646.5 419.5,-646.5"/>
<text text-anchor="start" x="427.5" y="-664.5" font-family="Helvetica,sans-Serif" font-size="10.00">cie::geo::Ellipsoid</text>
<text text-anchor="middle" x="485.5" y="-653.5" font-family="Helvetica,sans-Serif" font-size="10.00">&lt; Dimension, Double &gt;</text>
</a>
</g>
</g>
<!-- Node62&#45;&gt;Node65 -->
<g id="edge15" class="edge">
<title>Node62&#45;&gt;Node65</title>
<path fill="none" stroke="midnightblue" d="M373.39,-661.5C388.97,-661.5 404.8,-661.5 419.42,-661.5"/>
<polygon fill="midnightblue" stroke="midnightblue" points="373.19,-658 363.19,-661.5 373.19,-665 373.19,-658"/>
</g>
<!-- Node67 -->
<g id="node19" class="node">
<title>Node67</title>
<g id="a_node19"><a xlink:href="classcie_1_1geo_1_1Sphere.html" target="_top" xlink:title=" ">
<polygon fill="white" stroke="black" points="405,-542.5 405,-572.5 566,-572.5 566,-542.5 405,-542.5"/>
<text text-anchor="start" x="413" y="-560.5" font-family="Helvetica,sans-Serif" font-size="10.00">cie::geo::Sphere&lt; Dimension,</text>
<text text-anchor="middle" x="485.5" y="-549.5" font-family="Helvetica,sans-Serif" font-size="10.00"> CoordinateType &gt;</text>
</a>
</g>
</g>
<!-- Node62&#45;&gt;Node67 -->
<g id="edge17" class="edge">
<title>Node62&#45;&gt;Node67</title>
<path fill="none" stroke="midnightblue" d="M304.77,-639.98C328.5,-622.16 364.41,-597.28 399,-581.5 406.29,-578.17 414.15,-575.21 422.05,-572.59"/>
<polygon fill="midnightblue" stroke="midnightblue" points="302.44,-637.36 296.61,-646.2 306.68,-642.93 302.44,-637.36"/>
</g>
<!-- Node64 -->
<g id="node16" class="node">
<title>Node64</title>
<g id="a_node16"><a xlink:href="classcie_1_1geo_1_1boolean_1_1Cube.html" target="_top" xlink:title="Cube with point membership test.">
<polygon fill="white" stroke="black" points="612.5,-701 612.5,-742 776.5,-742 776.5,-701 612.5,-701"/>
<text text-anchor="start" x="620.5" y="-730" font-family="Helvetica,sans-Serif" font-size="10.00">cie::geo::boolean::</text>
<text text-anchor="start" x="620.5" y="-719" font-family="Helvetica,sans-Serif" font-size="10.00">Cube&lt; Dimension, Coordinate</text>
<text text-anchor="middle" x="694.5" y="-708" font-family="Helvetica,sans-Serif" font-size="10.00">Type &gt;</text>
</a>
</g>
</g>
<!-- Node63&#45;&gt;Node64 -->
<g id="edge14" class="edge">
<title>Node63&#45;&gt;Node64</title>
<path fill="none" stroke="midnightblue" d="M571.72,-717.97C585.19,-718.36 599.08,-718.76 612.44,-719.15"/>
<polygon fill="midnightblue" stroke="midnightblue" points="571.62,-714.47 561.52,-717.67 571.42,-721.46 571.62,-714.47"/>
</g>
<!-- Node66 -->
<g id="node18" class="node">
<title>Node66</title>
<g id="a_node18"><a xlink:href="classcie_1_1geo_1_1boolean_1_1Ellipsoid.html" target="_top" xlink:title="Ellipsoid with point membership test.">
<polygon fill="white" stroke="black" points="632,-641 632,-682 757,-682 757,-641 632,-641"/>
<text text-anchor="start" x="640" y="-670" font-family="Helvetica,sans-Serif" font-size="10.00">cie::geo::boolean::</text>
<text text-anchor="start" x="640" y="-659" font-family="Helvetica,sans-Serif" font-size="10.00">Ellipsoid&lt; Dimension,</text>
<text text-anchor="middle" x="694.5" y="-648" font-family="Helvetica,sans-Serif" font-size="10.00"> CoordinateType &gt;</text>
</a>
</g>
</g>
<!-- Node65&#45;&gt;Node66 -->
<g id="edge16" class="edge">
<title>Node65&#45;&gt;Node66</title>
<path fill="none" stroke="midnightblue" d="M561.78,-661.5C584.78,-661.5 609.8,-661.5 631.79,-661.5"/>
<polygon fill="midnightblue" stroke="midnightblue" points="561.71,-658 551.71,-661.5 561.71,-665 561.71,-658"/>
</g>
<!-- Node68 -->
<g id="node20" class="node">
<title>Node68</title>
<g id="a_node20"><a xlink:href="classcie_1_1geo_1_1boolean_1_1Sphere.html" target="_top" xlink:title=" ">
<polygon fill="white" stroke="black" points="608,-401 608,-442 781,-442 781,-401 608,-401"/>
<text text-anchor="start" x="616" y="-430" font-family="Helvetica,sans-Serif" font-size="10.00">cie::geo::boolean::</text>
<text text-anchor="start" x="616" y="-419" font-family="Helvetica,sans-Serif" font-size="10.00">Sphere&lt; Dimension, Coordinate</text>
<text text-anchor="middle" x="694.5" y="-408" font-family="Helvetica,sans-Serif" font-size="10.00">Type &gt;</text>
</a>
</g>
</g>
<!-- Node67&#45;&gt;Node68 -->
<g id="edge18" class="edge">
<title>Node67&#45;&gt;Node68</title>
<path fill="none" stroke="midnightblue" d="M565.89,-537.24C568.02,-535.77 570.06,-534.19 572,-532.5 601.66,-506.57 579.04,-478.21 608,-451.5 611.82,-447.98 616.07,-444.87 620.58,-442.12"/>
<polygon fill="midnightblue" stroke="midnightblue" points="564.06,-534.26 557.28,-542.4 567.66,-540.26 564.06,-534.26"/>
</g>
<!-- Node69 -->
<g id="node21" class="node">
<title>Node69</title>
<g id="a_node21"><a xlink:href="classcie_1_1geo_1_1Traits.html" target="_top" xlink:title=" ">
<polygon fill="white" stroke="black" points="222,-468.5 222,-498.5 331,-498.5 331,-468.5 222,-468.5"/>
<text text-anchor="start" x="230" y="-486.5" font-family="Helvetica,sans-Serif" font-size="10.00">cie::geo::Traits&lt; N,</text>
<text text-anchor="middle" x="276.5" y="-475.5" font-family="Helvetica,sans-Serif" font-size="10.00"> TCoordinate &gt;</text>
</a>
</g>
</g>
<!-- Node70 -->
<g id="node22" class="node">
<title>Node70</title>
<g id="a_node22"><a xlink:href="classcie_1_1geo_1_1Object.html" target="_top" xlink:title=" ">
<polygon fill="white" stroke="black" points="406,-302.5 406,-332.5 565,-332.5 565,-302.5 406,-302.5"/>
<text text-anchor="start" x="414" y="-320.5" font-family="Helvetica,sans-Serif" font-size="10.00">cie::geo::Object&lt; Dimension,</text>
<text text-anchor="middle" x="485.5" y="-309.5" font-family="Helvetica,sans-Serif" font-size="10.00"> Bool, CoordinateType &gt;</text>
</a>
</g>
</g>
<!-- Node69&#45;&gt;Node70 -->
<g id="edge19" class="edge">
<title>Node69&#45;&gt;Node70</title>
<path fill="none" stroke="midnightblue" d="M304.18,-462.1C346.68,-428.02 428.72,-362.23 465.66,-332.61"/>
<polygon fill="midnightblue" stroke="midnightblue" points="301.85,-459.49 296.23,-468.48 306.23,-464.95 301.85,-459.49"/>
</g>
<!-- Node73 -->
<g id="node25" class="node">
<title>Node73</title>
<g id="a_node25"><a xlink:href="classcie_1_1geo_1_1Object.html" target="_top" xlink:title=" ">
<polygon fill="white" stroke="black" points="406,-591.5 406,-621.5 565,-621.5 565,-591.5 406,-591.5"/>
<text text-anchor="start" x="414" y="-609.5" font-family="Helvetica,sans-Serif" font-size="10.00">cie::geo::Object&lt; Dimension,</text>
<text text-anchor="middle" x="485.5" y="-598.5" font-family="Helvetica,sans-Serif" font-size="10.00"> Bool, Double &gt;</text>
</a>
</g>
</g>
<!-- Node69&#45;&gt;Node73 -->
<g id="edge24" class="edge">
<title>Node69&#45;&gt;Node73</title>
<path fill="none" stroke="midnightblue" d="M299.38,-505.7C322.33,-527.81 360.37,-561.31 399,-581.5 406.26,-585.3 414.19,-588.59 422.18,-591.43"/>
<polygon fill="midnightblue" stroke="midnightblue" points="301.79,-503.16 292.2,-498.67 296.9,-508.16 301.79,-503.16"/>
</g>
<!-- Node79 -->
<g id="node31" class="node">
<title>Node79</title>
<g id="a_node31"><a xlink:href="classcie_1_1geo_1_1Object.html" target="_top" xlink:title=" ">
<polygon fill="white" stroke="black" points="404.5,-444.5 404.5,-474.5 566.5,-474.5 566.5,-444.5 404.5,-444.5"/>
<text text-anchor="start" x="412.5" y="-462.5" font-family="Helvetica,sans-Serif" font-size="10.00">cie::geo::Object&lt; Dimension,</text>
<text text-anchor="middle" x="485.5" y="-451.5" font-family="Helvetica,sans-Serif" font-size="10.00"> ValueType, CoordinateType &gt;</text>
</a>
</g>
</g>
<!-- Node69&#45;&gt;Node79 -->
<g id="edge33" class="edge">
<title>Node69&#45;&gt;Node79</title>
<path fill="none" stroke="midnightblue" d="M341.25,-476.11C361.14,-473.8 383.34,-471.23 404.21,-468.81"/>
<polygon fill="midnightblue" stroke="midnightblue" points="340.61,-472.66 331.08,-477.29 341.41,-479.61 340.61,-472.66"/>
</g>
<!-- Node85 -->
<g id="node37" class="node">
<title>Node85</title>
<g id="a_node37"><a xlink:href="classcie_1_1geo_1_1Object.html" target="_top" xlink:title="Interface for point&#45;queriable objects.">
<polygon fill="white" stroke="black" points="421.5,-493.5 421.5,-523.5 549.5,-523.5 549.5,-493.5 421.5,-493.5"/>
<text text-anchor="start" x="429.5" y="-511.5" font-family="Helvetica,sans-Serif" font-size="10.00">cie::geo::Object&lt; N,</text>
<text text-anchor="middle" x="485.5" y="-500.5" font-family="Helvetica,sans-Serif" font-size="10.00"> TValue, TCoordinate &gt;</text>
</a>
</g>
</g>
<!-- Node69&#45;&gt;Node85 -->
<g id="edge39" class="edge">
<title>Node69&#45;&gt;Node85</title>
<path fill="none" stroke="midnightblue" d="M341.34,-491.21C366.73,-494.28 395.88,-497.8 421.22,-500.86"/>
<polygon fill="midnightblue" stroke="midnightblue" points="341.42,-487.69 331.08,-489.97 340.59,-494.64 341.42,-487.69"/>
</g>
<!-- Node70&#45;&gt;Node3 -->
<g id="edge20" class="edge">
<title>Node70&#45;&gt;Node3</title>
<path fill="none" stroke="midnightblue" d="M501.98,-293.52C522.61,-263.44 561.93,-212.34 608,-183.5 614.16,-179.64 620.94,-176.36 627.91,-173.57"/>
<polygon fill="midnightblue" stroke="midnightblue" points="498.87,-291.88 496.19,-302.13 504.67,-295.78 498.87,-291.88"/>
</g>
<!-- Node70&#45;&gt;Node68 -->
<g id="edge23" class="edge">
<title>Node70&#45;&gt;Node68</title>
<path fill="none" stroke="midnightblue" d="M517.28,-338.27C541.31,-353.91 575.89,-375.21 608,-390.5 615.7,-394.17 623.95,-397.66 632.19,-400.9"/>
<polygon fill="midnightblue" stroke="midnightblue" points="518.89,-335.14 508.62,-332.57 515.05,-340.99 518.89,-335.14"/>
</g>
<!-- Node71 -->
<g id="node23" class="node">
<title>Node71</title>
<g id="a_node23"><a xlink:href="classcie_1_1geo_1_1EmptyDomain.html" target="_top" xlink:title=" ">
<polygon fill="white" stroke="black" points="608,-253.5 608,-283.5 781,-283.5 781,-253.5 608,-253.5"/>
<text text-anchor="start" x="616" y="-271.5" font-family="Helvetica,sans-Serif" font-size="10.00">cie::geo::EmptyDomain</text>
<text text-anchor="middle" x="694.5" y="-260.5" font-family="Helvetica,sans-Serif" font-size="10.00">&lt; Dimension, CoordinateType &gt;</text>
</a>
</g>
</g>
<!-- Node70&#45;&gt;Node71 -->
<g id="edge21" class="edge">
<title>Node70&#45;&gt;Node71</title>
<path fill="none" stroke="midnightblue" d="M560.02,-300.1C582.92,-294.68 607.96,-288.75 630.11,-283.51"/>
<polygon fill="midnightblue" stroke="midnightblue" points="558.94,-296.76 550.01,-302.47 560.55,-303.57 558.94,-296.76"/>
</g>
<!-- Node72 -->
<g id="node24" class="node">
<title>Node72</title>
<g id="a_node24"><a xlink:href="classcie_1_1geo_1_1InfiniteDomain.html" target="_top" xlink:title=" ">
<polygon fill="white" stroke="black" points="608,-302.5 608,-332.5 781,-332.5 781,-302.5 608,-302.5"/>
<text text-anchor="start" x="616" y="-320.5" font-family="Helvetica,sans-Serif" font-size="10.00">cie::geo::InfiniteDomain</text>
<text text-anchor="middle" x="694.5" y="-309.5" font-family="Helvetica,sans-Serif" font-size="10.00">&lt; Dimension, CoordinateType &gt;</text>
</a>
</g>
</g>
<!-- Node70&#45;&gt;Node72 -->
<g id="edge22" class="edge">
<title>Node70&#45;&gt;Node72</title>
<path fill="none" stroke="midnightblue" d="M575.29,-317.5C586.05,-317.5 597.03,-317.5 607.74,-317.5"/>
<polygon fill="midnightblue" stroke="midnightblue" points="575.05,-314 565.05,-317.5 575.05,-321 575.05,-314"/>
</g>
<!-- Node73&#45;&gt;Node5 -->
<g id="edge30" class="edge">
<title>Node73&#45;&gt;Node5</title>
<path fill="none" stroke="midnightblue" d="M568.87,-584.9C569.96,-583.82 571.01,-582.69 572,-581.5 668.89,-465.59 514.22,-361.94 608,-243.5 610.73,-240.05 613.89,-236.99 617.35,-234.28"/>
<polygon fill="midnightblue" stroke="midnightblue" points="566.57,-582.26 561.04,-591.3 571,-587.68 566.57,-582.26"/>
</g>
<!-- Node73&#45;&gt;Node64 -->
<g id="edge31" class="edge">
<title>Node73&#45;&gt;Node64</title>
<path fill="none" stroke="midnightblue" d="M554.8,-625.73C560.91,-628.83 566.76,-632.39 572,-636.5 595,-654.51 585,-673.49 608,-691.5 612.46,-694.99 617.35,-698.09 622.48,-700.85"/>
<polygon fill="midnightblue" stroke="midnightblue" points="556.26,-622.55 545.71,-621.52 553.32,-628.9 556.26,-622.55"/>
</g>
<!-- Node73&#45;&gt;Node66 -->
<g id="edge32" class="edge">
<title>Node73&#45;&gt;Node66</title>
<path fill="none" stroke="midnightblue" d="M552.96,-624.16C578.3,-630.89 607.05,-638.53 631.92,-645.14"/>
<polygon fill="midnightblue" stroke="midnightblue" points="553.63,-620.71 543.06,-621.53 551.83,-627.48 553.63,-620.71"/>
</g>
<!-- Node74 -->
<g id="node26" class="node">
<title>Node74</title>
<g id="a_node26"><a xlink:href="classcie_1_1geo_1_1UnaryOperator.html" target="_top" xlink:title=" ">
<polygon fill="white" stroke="black" points="625,-581 625,-622 764,-622 764,-581 625,-581"/>
<text text-anchor="start" x="633" y="-610" font-family="Helvetica,sans-Serif" font-size="10.00">cie::geo::UnaryOperator</text>
<text text-anchor="start" x="633" y="-599" font-family="Helvetica,sans-Serif" font-size="10.00">&lt; Dimension, ValueType,</text>
<text text-anchor="middle" x="694.5" y="-588" font-family="Helvetica,sans-Serif" font-size="10.00"> CoordinateType &gt;</text>
</a>
</g>
</g>
<!-- Node73&#45;&gt;Node74 -->
<g id="edge25" class="edge">
<title>Node73&#45;&gt;Node74</title>
<path fill="none" stroke="midnightblue" d="M575.29,-604.36C591.87,-603.95 608.97,-603.54 624.83,-603.16"/>
<polygon fill="midnightblue" stroke="midnightblue" points="574.97,-600.86 565.05,-604.6 575.13,-607.86 574.97,-600.86"/>
</g>
<!-- Node75 -->
<g id="node27" class="node">
<title>Node75</title>
<g id="a_node27"><a xlink:href="classcie_1_1geo_1_1BinaryOperator.html" target="_top" xlink:title=" ">
<polygon fill="white" stroke="black" points="817,-586.5 817,-616.5 1018,-616.5 1018,-586.5 817,-586.5"/>
<text text-anchor="start" x="825" y="-604.5" font-family="Helvetica,sans-Serif" font-size="10.00">cie::geo::BinaryOperator</text>
<text text-anchor="middle" x="917.5" y="-593.5" font-family="Helvetica,sans-Serif" font-size="10.00">&lt; Dimension, Bool, CoordinateType &gt;</text>
</a>
</g>
</g>
<!-- Node74&#45;&gt;Node75 -->
<g id="edge26" class="edge">
<title>Node74&#45;&gt;Node75</title>
<path fill="none" stroke="midnightblue" d="M774.5,-601.5C788.14,-601.5 802.48,-601.5 816.6,-601.5"/>
<polygon fill="midnightblue" stroke="midnightblue" points="774.21,-598 764.21,-601.5 774.21,-605 774.21,-598"/>
</g>
<!-- Node76 -->
<g id="node28" class="node">
<title>Node76</title>
<g id="a_node28"><a xlink:href="classcie_1_1geo_1_1Intersection.html" target="_top" xlink:title=" ">
<polygon fill="white" stroke="black" points="1054,-635.5 1054,-665.5 1227,-665.5 1227,-635.5 1054,-635.5"/>
<text text-anchor="start" x="1062" y="-653.5" font-family="Helvetica,sans-Serif" font-size="10.00">cie::geo::Intersection</text>
<text text-anchor="middle" x="1140.5" y="-642.5" font-family="Helvetica,sans-Serif" font-size="10.00">&lt; Dimension, CoordinateType &gt;</text>
</a>
</g>
</g>
<!-- Node75&#45;&gt;Node76 -->
<g id="edge27" class="edge">
<title>Node75&#45;&gt;Node76</title>
<path fill="none" stroke="midnightblue" d="M996.34,-618.76C1020.96,-624.22 1047.97,-630.21 1071.82,-635.49"/>
<polygon fill="midnightblue" stroke="midnightblue" points="996.83,-615.28 986.31,-616.53 995.31,-622.12 996.83,-615.28"/>
</g>
<!-- Node77 -->
<g id="node29" class="node">
<title>Node77</title>
<g id="a_node29"><a xlink:href="classcie_1_1geo_1_1Subtraction.html" target="_top" xlink:title=" ">
<polygon fill="white" stroke="black" points="1054,-586.5 1054,-616.5 1227,-616.5 1227,-586.5 1054,-586.5"/>
<text text-anchor="start" x="1062" y="-604.5" font-family="Helvetica,sans-Serif" font-size="10.00">cie::geo::Subtraction</text>
<text text-anchor="middle" x="1140.5" y="-593.5" font-family="Helvetica,sans-Serif" font-size="10.00">&lt; Dimension, CoordinateType &gt;</text>
</a>
</g>
</g>
<!-- Node75&#45;&gt;Node77 -->
<g id="edge28" class="edge">
<title>Node75&#45;&gt;Node77</title>
<path fill="none" stroke="midnightblue" d="M1028.09,-601.5C1036.69,-601.5 1045.3,-601.5 1053.71,-601.5"/>
<polygon fill="midnightblue" stroke="midnightblue" points="1028.01,-598 1018.01,-601.5 1028.01,-605 1028.01,-598"/>
</g>
<!-- Node78 -->
<g id="node30" class="node">
<title>Node78</title>
<g id="a_node30"><a xlink:href="classcie_1_1geo_1_1Union.html" target="_top" xlink:title=" ">
<polygon fill="white" stroke="black" points="1062.5,-537.5 1062.5,-567.5 1218.5,-567.5 1218.5,-537.5 1062.5,-537.5"/>
<text text-anchor="start" x="1070.5" y="-555.5" font-family="Helvetica,sans-Serif" font-size="10.00">cie::geo::Union&lt; Dimension,</text>
<text text-anchor="middle" x="1140.5" y="-544.5" font-family="Helvetica,sans-Serif" font-size="10.00"> CoordinateType &gt;</text>
</a>
</g>
</g>
<!-- Node75&#45;&gt;Node78 -->
<g id="edge29" class="edge">
<title>Node75&#45;&gt;Node78</title>
<path fill="none" stroke="midnightblue" d="M996.34,-584.24C1020.96,-578.78 1047.97,-572.79 1071.82,-567.51"/>
<polygon fill="midnightblue" stroke="midnightblue" points="995.31,-580.88 986.31,-586.47 996.83,-587.72 995.31,-580.88"/>
</g>
<!-- Node80 -->
<g id="node32" class="node">
<title>Node80</title>
<g id="a_node32"><a xlink:href="classcie_1_1geo_1_1UnaryOperator.html" target="_top" xlink:title=" ">
<polygon fill="white" stroke="black" points="611,-461 611,-502 778,-502 778,-461 611,-461"/>
<text text-anchor="start" x="619" y="-490" font-family="Helvetica,sans-Serif" font-size="10.00">cie::geo::UnaryOperator</text>
<text text-anchor="start" x="619" y="-479" font-family="Helvetica,sans-Serif" font-size="10.00">&lt; Dimension, Bool, Coordinate</text>
<text text-anchor="middle" x="694.5" y="-468" font-family="Helvetica,sans-Serif" font-size="10.00">Type &gt;</text>
</a>
</g>
</g>
<!-- Node79&#45;&gt;Node80 -->
<g id="edge34" class="edge">
<title>Node79&#45;&gt;Node80</title>
<path fill="none" stroke="midnightblue" d="M576.52,-469.07C587.96,-470.28 599.63,-471.52 610.94,-472.73"/>
<polygon fill="midnightblue" stroke="midnightblue" points="576.85,-465.58 566.53,-468.01 576.11,-472.54 576.85,-465.58"/>
</g>
<!-- Node82 -->
<g id="node34" class="node">
<title>Node82</title>
<g id="a_node34"><a xlink:href="classcie_1_1geo_1_1UnaryOperator.html" target="_top" xlink:title=" ">
<polygon fill="white" stroke="black" points="614.5,-351.5 614.5,-381.5 774.5,-381.5 774.5,-351.5 614.5,-351.5"/>
<text text-anchor="start" x="622.5" y="-369.5" font-family="Helvetica,sans-Serif" font-size="10.00">cie::geo::UnaryOperator</text>
<text text-anchor="middle" x="694.5" y="-358.5" font-family="Helvetica,sans-Serif" font-size="10.00">&lt; Dimension, Bool, Double &gt;</text>
</a>
</g>
</g>
<!-- Node79&#45;&gt;Node82 -->
<g id="edge36" class="edge">
<title>Node79&#45;&gt;Node82</title>
<path fill="none" stroke="midnightblue" d="M518.56,-438.92C542.49,-424.22 576.38,-404.77 608,-391.5 616.7,-387.85 626.11,-384.52 635.39,-381.56"/>
<polygon fill="midnightblue" stroke="midnightblue" points="516.55,-436.05 509.9,-444.3 520.24,-441.99 516.55,-436.05"/>
</g>
<!-- Node84 -->
<g id="node36" class="node">
<title>Node84</title>
<g id="a_node36"><a xlink:href="classcie_1_1geo_1_1ObjectWrapper.html" target="_top" xlink:title=" ">
<polygon fill="white" stroke="black" points="625,-521 625,-562 764,-562 764,-521 625,-521"/>
<text text-anchor="start" x="633" y="-550" font-family="Helvetica,sans-Serif" font-size="10.00">cie::geo::ObjectWrapper</text>
<text text-anchor="start" x="633" y="-539" font-family="Helvetica,sans-Serif" font-size="10.00">&lt; Dimension, ValueType,</text>
<text text-anchor="middle" x="694.5" y="-528" font-family="Helvetica,sans-Serif" font-size="10.00"> CoordinateType &gt;</text>
</a>
</g>
</g>
<!-- Node79&#45;&gt;Node84 -->
<g id="edge38" class="edge">
<title>Node79&#45;&gt;Node84</title>
<path fill="none" stroke="midnightblue" d="M560.18,-478.15C564.24,-479.81 568.21,-481.59 572,-483.5 590.1,-492.63 590.2,-501.8 608,-511.5 614.21,-514.89 620.89,-518.01 627.66,-520.86"/>
<polygon fill="midnightblue" stroke="midnightblue" points="561.16,-474.78 550.57,-474.52 558.69,-481.33 561.16,-474.78"/>
</g>
<!-- Node81 -->
<g id="node33" class="node">
<title>Node81</title>
<g id="a_node33"><a xlink:href="classcie_1_1geo_1_1Complement.html" target="_top" xlink:title=" ">
<polygon fill="white" stroke="black" points="831,-466.5 831,-496.5 1004,-496.5 1004,-466.5 831,-466.5"/>
<text text-anchor="start" x="839" y="-484.5" font-family="Helvetica,sans-Serif" font-size="10.00">cie::geo::Complement</text>
<text text-anchor="middle" x="917.5" y="-473.5" font-family="Helvetica,sans-Serif" font-size="10.00">&lt; Dimension, CoordinateType &gt;</text>
</a>
</g>
</g>
<!-- Node80&#45;&gt;Node81 -->
<g id="edge35" class="edge">
<title>Node80&#45;&gt;Node81</title>
<path fill="none" stroke="midnightblue" d="M788.26,-481.5C802.32,-481.5 816.77,-481.5 830.67,-481.5"/>
<polygon fill="midnightblue" stroke="midnightblue" points="788.11,-478 778.11,-481.5 788.11,-485 788.11,-478"/>
</g>
<!-- Node83 -->
<g id="node35" class="node">
<title>Node83</title>
<g id="a_node35"><a xlink:href="classcie_1_1geo_1_1BinaryOperator.html" target="_top" xlink:title=" ">
<polygon fill="white" stroke="black" points="848,-346 848,-387 987,-387 987,-346 848,-346"/>
<text text-anchor="start" x="856" y="-375" font-family="Helvetica,sans-Serif" font-size="10.00">cie::geo::BinaryOperator</text>
<text text-anchor="start" x="856" y="-364" font-family="Helvetica,sans-Serif" font-size="10.00">&lt; Dimension, ValueType,</text>
<text text-anchor="middle" x="917.5" y="-353" font-family="Helvetica,sans-Serif" font-size="10.00"> CoordinateType &gt;</text>
</a>
</g>
</g>
<!-- Node82&#45;&gt;Node83 -->
<g id="edge37" class="edge">
<title>Node82&#45;&gt;Node83</title>
<path fill="none" stroke="midnightblue" d="M784.86,-366.5C805.83,-366.5 827.86,-366.5 847.77,-366.5"/>
<polygon fill="midnightblue" stroke="midnightblue" points="784.66,-363 774.66,-366.5 784.66,-370 784.66,-363"/>
</g>
</g>
</svg>
