<?xml version="1.0" encoding="UTF-8" standalone="no"?>
<!DOCTYPE svg PUBLIC "-//W3C//DTD SVG 1.1//EN"
 "http://www.w3.org/Graphics/SVG/1.1/DTD/svg11.dtd">
<!-- Generated by graphviz version 2.43.0 (0)
 -->
<!-- Title: Graphical Class Hierarchy Pages: 1 -->
<svg width="363pt" height="149pt"
 viewBox="0.00 0.00 363.00 149.00" xmlns="http://www.w3.org/2000/svg" xmlns:xlink="http://www.w3.org/1999/xlink">
<g id="graph0" class="graph" transform="scale(1 1) rotate(0) translate(4 145)">
<title>Graphical Class Hierarchy</title>
<polygon fill="white" stroke="transparent" points="-4,4 -4,-145 359,-145 359,4 -4,4"/>
<!-- Node0 -->
<g id="node1" class="node">
<title>Node0</title>
<g id="a_node1"><a target="_parent" xlink:href="../../../cieutils/docs/html/classcie_1_1utils_1_1AbsTree.html" xlink:title=" ">
<polygon fill="white" stroke="black" points="0,-88.5 0,-140.5 194,-140.5 194,-88.5 0,-88.5"/>
<text text-anchor="start" x="8" y="-128.5" font-family="Helvetica,sans-Serif" font-size="10.00">cie::utils::AbsTree</text>
<text text-anchor="start" x="8" y="-117.5" font-family="Helvetica,sans-Serif" font-size="10.00">&lt; AABBoxNode&lt; TObject</text>
<text text-anchor="start" x="8" y="-106.5" font-family="Helvetica,sans-Serif" font-size="10.00"> &gt;, std::deque, std::shared</text>
<text text-anchor="middle" x="97" y="-95.5" font-family="Helvetica,sans-Serif" font-size="10.00">_ptr&lt; AABBoxNode&lt; TObject &gt; &gt; &gt;</text>
</a>
</g>
</g>
<!-- Node1 -->
<g id="node2" class="node">
<title>Node1</title>
<g id="a_node2"><a xlink:href="classcie_1_1geo_1_1AABBoxNode.html" target="_top" xlink:title=" ">
<polygon fill="white" stroke="black" points="230,-44.5 230,-74.5 355,-74.5 355,-44.5 230,-44.5"/>
<text text-anchor="start" x="238" y="-62.5" font-family="Helvetica,sans-Serif" font-size="10.00">cie::geo::AABBoxNode</text>
<text text-anchor="middle" x="292.5" y="-51.5" font-family="Helvetica,sans-Serif" font-size="10.00">&lt; TObject &gt;</text>
</a>
</g>
</g>
<!-- Node0&#45;&gt;Node1 -->
<g id="edge1" class="edge">
<title>Node0&#45;&gt;Node1</title>
<path fill="none" stroke="midnightblue" d="M199.5,-85.65C213.03,-81.81 226.42,-78 238.64,-74.53"/>
<polygon fill="midnightblue" stroke="midnightblue" points="198.31,-82.35 189.65,-88.45 200.23,-89.08 198.31,-82.35"/>
</g>
<!-- Node11 -->
<g id="node3" class="node">
<title>Node11</title>
<g id="a_node3"><a xlink:href="classCell.html" target="_top" xlink:title=" ">
<polygon fill="white" stroke="black" points="79.5,-50 79.5,-69 114.5,-69 114.5,-50 79.5,-50"/>
<text text-anchor="middle" x="97" y="-57" font-family="Helvetica,sans-Serif" font-size="10.00">Cell</text>
</a>
</g>
</g>
<!-- Node11&#45;&gt;Node1 -->
<g id="edge2" class="edge">
<title>Node11&#45;&gt;Node1</title>
<path fill="none" stroke="midnightblue" d="M125.05,-59.5C152.03,-59.5 194.42,-59.5 229.67,-59.5"/>
<polygon fill="midnightblue" stroke="midnightblue" points="124.83,-56 114.83,-59.5 124.83,-63 124.83,-56"/>
</g>
<!-- Node15 -->
<g id="node4" class="node">
<title>Node15</title>
<g id="a_node4"><a xlink:title=" ">
<polygon fill="white" stroke="#bfbfbf" points="42.5,-0.5 42.5,-30.5 151.5,-30.5 151.5,-0.5 42.5,-0.5"/>
<text text-anchor="start" x="50.5" y="-18.5" font-family="Helvetica,sans-Serif" font-size="10.00">std::enable_shared</text>
<text text-anchor="middle" x="97" y="-7.5" font-family="Helvetica,sans-Serif" font-size="10.00">_from_this</text>
</a>
</g>
</g>
<!-- Node15&#45;&gt;Node1 -->
<g id="edge3" class="edge">
<title>Node15&#45;&gt;Node1</title>
<path fill="none" stroke="midnightblue" d="M161.54,-29.95C183.5,-34.94 208.07,-40.53 229.89,-45.49"/>
<polygon fill="midnightblue" stroke="midnightblue" points="162.17,-26.5 151.64,-27.7 160.62,-33.33 162.17,-26.5"/>
</g>
</g>
</svg>
