<?xml version="1.0" encoding="UTF-8" standalone="no"?>
<!DOCTYPE svg PUBLIC "-//W3C//DTD SVG 1.1//EN"
 "http://www.w3.org/Graphics/SVG/1.1/DTD/svg11.dtd">
<!-- Generated by graphviz version 2.43.0 (0)
 -->
<!-- Title: Graphical Class Hierarchy Pages: 1 -->
<svg width="294pt" height="88pt"
 viewBox="0.00 0.00 294.00 88.00" xmlns="http://www.w3.org/2000/svg" xmlns:xlink="http://www.w3.org/1999/xlink">
<g id="graph0" class="graph" transform="scale(1 1) rotate(0) translate(4 84)">
<title>Graphical Class Hierarchy</title>
<polygon fill="white" stroke="transparent" points="-4,4 -4,-84 290,-84 290,4 -4,4"/>
<!-- Node0 -->
<g id="node1" class="node">
<title>Node0</title>
<g id="a_node1"><a target="_parent" xlink:href="../../../cieutils/docs/html/classcie_1_1utils_1_1AbsTree.html" xlink:title=" ">
<polygon fill="white" stroke="black" points="0,-38.5 0,-79.5 114,-79.5 114,-38.5 0,-38.5"/>
<text text-anchor="start" x="8" y="-67.5" font-family="Helvetica,sans-Serif" font-size="10.00">cie::utils::AbsTree</text>
<text text-anchor="start" x="8" y="-56.5" font-family="Helvetica,sans-Serif" font-size="10.00">&lt; class, TContainer,</text>
<text text-anchor="middle" x="57" y="-45.5" font-family="Helvetica,sans-Serif" font-size="10.00"> class, TArgs &gt;</text>
</a>
</g>
</g>
<!-- Node1 -->
<g id="node2" class="node">
<title>Node1</title>
<g id="a_node2"><a xlink:href="classcie_1_1geo_1_1SpaceTreeNode.html" target="_top" xlink:title=" ">
<polygon fill="white" stroke="black" points="150,-19 150,-49 286,-49 286,-19 150,-19"/>
<text text-anchor="start" x="158" y="-37" font-family="Helvetica,sans-Serif" font-size="10.00">cie::geo::SpaceTreeNode</text>
<text text-anchor="middle" x="218" y="-26" font-family="Helvetica,sans-Serif" font-size="10.00">&lt; TCell, TValue &gt;</text>
</a>
</g>
</g>
<!-- Node0&#45;&gt;Node1 -->
<g id="edge1" class="edge">
<title>Node0&#45;&gt;Node1</title>
<path fill="none" stroke="midnightblue" d="M123.94,-48.63C132.46,-47.29 141.19,-45.92 149.73,-44.58"/>
<polygon fill="midnightblue" stroke="midnightblue" points="123.39,-45.18 114.06,-50.19 124.48,-52.09 123.39,-45.18"/>
</g>
<!-- Node47 -->
<g id="node3" class="node">
<title>Node47</title>
<g id="a_node3"><a xlink:href="classTCell.html" target="_top" xlink:title=" ">
<polygon fill="white" stroke="black" points="36.5,-0.5 36.5,-19.5 77.5,-19.5 77.5,-0.5 36.5,-0.5"/>
<text text-anchor="middle" x="57" y="-7.5" font-family="Helvetica,sans-Serif" font-size="10.00">TCell</text>
</a>
</g>
</g>
<!-- Node47&#45;&gt;Node1 -->
<g id="edge2" class="edge">
<title>Node47&#45;&gt;Node1</title>
<path fill="none" stroke="midnightblue" d="M87.98,-14.53C105.51,-17.17 128.37,-20.62 149.98,-23.88"/>
<polygon fill="midnightblue" stroke="midnightblue" points="88.23,-11.02 77.82,-12.99 87.18,-17.94 88.23,-11.02"/>
</g>
</g>
</svg>
