<?xml version="1.0" encoding="UTF-8" standalone="no"?>
<!DOCTYPE svg PUBLIC "-//W3C//DTD SVG 1.1//EN"
 "http://www.w3.org/Graphics/SVG/1.1/DTD/svg11.dtd">
<!-- Generated by graphviz version 2.43.0 (0)
 -->
<!-- Title: Graphical Class Hierarchy Pages: 1 -->
<svg width="246pt" height="88pt"
 viewBox="0.00 0.00 246.00 88.00" xmlns="http://www.w3.org/2000/svg" xmlns:xlink="http://www.w3.org/1999/xlink">
<g id="graph0" class="graph" transform="scale(1 1) rotate(0) translate(4 84)">
<title>Graphical Class Hierarchy</title>
<polygon fill="white" stroke="transparent" points="-4,4 -4,-84 242,-84 242,4 -4,4"/>
<!-- Node0 -->
<g id="node1" class="node">
<title>Node0</title>
<g id="a_node1"><a xlink:href="classQWidget.html" target="_top" xlink:title=" ">
<polygon fill="white" stroke="black" points="0,-30 0,-49 59,-49 59,-30 0,-30"/>
<text text-anchor="middle" x="29.5" y="-37" font-family="Helvetica,sans-Serif" font-size="10.00">QWidget</text>
</a>
</g>
</g>
<!-- Node1 -->
<g id="node2" class="node">
<title>Node1</title>
<g id="a_node2"><a xlink:href="classsplinekernel_1_1appSpline2D_1_1ControlWidget.html" target="_top" xlink:title=" ">
<polygon fill="white" stroke="black" points="95,-49.5 95,-79.5 238,-79.5 238,-49.5 95,-49.5"/>
<text text-anchor="start" x="103" y="-67.5" font-family="Helvetica,sans-Serif" font-size="10.00">splinekernel.appSpline2D.</text>
<text text-anchor="middle" x="166.5" y="-56.5" font-family="Helvetica,sans-Serif" font-size="10.00">ControlWidget</text>
</a>
</g>
</g>
<!-- Node0&#45;&gt;Node1 -->
<g id="edge1" class="edge">
<title>Node0&#45;&gt;Node1</title>
<path fill="none" stroke="midnightblue" d="M69.04,-46.64C77.19,-48.15 86.05,-49.79 94.97,-51.44"/>
<polygon fill="midnightblue" stroke="midnightblue" points="69.6,-43.18 59.13,-44.8 68.33,-50.06 69.6,-43.18"/>
</g>
<!-- Node2 -->
<g id="node3" class="node">
<title>Node2</title>
<g id="a_node3"><a xlink:href="classsplinekernel_1_1appSurface_1_1ControlWidget.html" target="_top" xlink:title=" ">
<polygon fill="white" stroke="black" points="98,-0.5 98,-30.5 235,-30.5 235,-0.5 98,-0.5"/>
<text text-anchor="start" x="106" y="-18.5" font-family="Helvetica,sans-Serif" font-size="10.00">splinekernel.appSurface.</text>
<text text-anchor="middle" x="166.5" y="-7.5" font-family="Helvetica,sans-Serif" font-size="10.00">ControlWidget</text>
</a>
</g>
</g>
<!-- Node0&#45;&gt;Node2 -->
<g id="edge2" class="edge">
<title>Node0&#45;&gt;Node2</title>
<path fill="none" stroke="midnightblue" d="M69.21,-32.62C78.17,-31.03 87.95,-29.29 97.75,-27.55"/>
<polygon fill="midnightblue" stroke="midnightblue" points="68.36,-29.21 59.13,-34.41 69.59,-36.11 68.36,-29.21"/>
</g>
</g>
</svg>
