<?xml version="1.0" encoding="UTF-8" standalone="no"?>
<!DOCTYPE svg PUBLIC "-//W3C//DTD SVG 1.1//EN"
 "http://www.w3.org/Graphics/SVG/1.1/DTD/svg11.dtd">
<!-- Generated by graphviz version 2.43.0 (0)
 -->
<!-- Title: Graphical Class Hierarchy Pages: 1 -->
<svg width="298pt" height="88pt"
 viewBox="0.00 0.00 298.00 88.00" xmlns="http://www.w3.org/2000/svg" xmlns:xlink="http://www.w3.org/1999/xlink">
<g id="graph0" class="graph" transform="scale(1 1) rotate(0) translate(4 84)">
<title>Graphical Class Hierarchy</title>
<polygon fill="white" stroke="transparent" points="-4,4 -4,-84 294,-84 294,4 -4,4"/>
<!-- Node0 -->
<g id="node1" class="node">
<title>Node0</title>
<g id="a_node1"><a xlink:href="classscene_1_1visuals_1_1Line.html" target="_top" xlink:title=" ">
<polygon fill="white" stroke="black" points="0,-30 0,-49 106,-49 106,-30 0,-30"/>
<text text-anchor="middle" x="53" y="-37" font-family="Helvetica,sans-Serif" font-size="10.00">scene.visuals.Line</text>
</a>
</g>
</g>
<!-- Node1 -->
<g id="node2" class="node">
<title>Node1</title>
<g id="a_node2"><a xlink:href="classsplinekernel_1_1editlinevisual_1_1EditLineVisual.html" target="_top" xlink:title=" ">
<polygon fill="white" stroke="black" points="142,-49.5 142,-79.5 290,-79.5 290,-49.5 142,-49.5"/>
<text text-anchor="start" x="150" y="-67.5" font-family="Helvetica,sans-Serif" font-size="10.00">splinekernel.editlinevisual.</text>
<text text-anchor="middle" x="216" y="-56.5" font-family="Helvetica,sans-Serif" font-size="10.00">EditLineVisual</text>
</a>
</g>
</g>
<!-- Node0&#45;&gt;Node1 -->
<g id="edge1" class="edge">
<title>Node0&#45;&gt;Node1</title>
<path fill="none" stroke="midnightblue" d="M116.34,-49.18C124.72,-50.48 133.38,-51.83 141.93,-53.15"/>
<polygon fill="midnightblue" stroke="midnightblue" points="116.69,-45.69 106.27,-47.62 115.62,-52.61 116.69,-45.69"/>
</g>
<!-- Node2 -->
<g id="node3" class="node">
<title>Node2</title>
<g id="a_node3"><a xlink:href="classsplinekernel_1_1splinevisual_1_1SplineVisual.html" target="_top" xlink:title=" ">
<polygon fill="white" stroke="black" points="146,-0.5 146,-30.5 286,-30.5 286,-0.5 146,-0.5"/>
<text text-anchor="start" x="154" y="-18.5" font-family="Helvetica,sans-Serif" font-size="10.00">splinekernel.splinevisual.</text>
<text text-anchor="middle" x="216" y="-7.5" font-family="Helvetica,sans-Serif" font-size="10.00">SplineVisual</text>
</a>
</g>
</g>
<!-- Node0&#45;&gt;Node2 -->
<g id="edge2" class="edge">
<title>Node0&#45;&gt;Node2</title>
<path fill="none" stroke="midnightblue" d="M116.26,-30.22C126,-28.77 136.11,-27.26 145.99,-25.79"/>
<polygon fill="midnightblue" stroke="midnightblue" points="115.65,-26.77 106.27,-31.71 116.68,-33.7 115.65,-26.77"/>
</g>
</g>
</svg>
