<?xml version="1.0" encoding="UTF-8" standalone="no"?>
<!DOCTYPE svg PUBLIC "-//W3C//DTD SVG 1.1//EN"
 "http://www.w3.org/Graphics/SVG/1.1/DTD/svg11.dtd">
<!-- Generated by graphviz version 2.43.0 (0)
 -->
<!-- Title: LinearSplitPolicy.hpp Pages: 1 -->
<svg width="802pt" height="530pt"
 viewBox="0.00 0.00 802.00 530.00" xmlns="http://www.w3.org/2000/svg" xmlns:xlink="http://www.w3.org/1999/xlink">
<g id="graph0" class="graph" transform="scale(1 1) rotate(0) translate(4 526)">
<title>LinearSplitPolicy.hpp</title>
<polygon fill="white" stroke="transparent" points="-4,4 -4,-526 798,-526 798,4 -4,4"/>
<!-- Node1 -->
<g id="node1" class="node">
<title>Node1</title>
<g id="a_node1"><a xlink:title=" ">
<polygon fill="#bfbfbf" stroke="black" points="588,-502.5 588,-521.5 705,-521.5 705,-502.5 588,-502.5"/>
<text text-anchor="middle" x="646.5" y="-509.5" font-family="Helvetica,sans-Serif" font-size="10.00">LinearSplitPolicy.hpp</text>
</a>
</g>
</g>
<!-- Node2 -->
<g id="node2" class="node">
<title>Node2</title>
<g id="a_node2"><a xlink:href="SplitPolicy_8hpp.html" target="_top" xlink:title=" ">
<polygon fill="white" stroke="black" points="520,-435.5 520,-465.5 627,-465.5 627,-435.5 520,-435.5"/>
<text text-anchor="start" x="528" y="-453.5" font-family="Helvetica,sans-Serif" font-size="10.00">packages/trees/inc</text>
<text text-anchor="middle" x="573.5" y="-442.5" font-family="Helvetica,sans-Serif" font-size="10.00">/SplitPolicy.hpp</text>
</a>
</g>
</g>
<!-- Node1&#45;&gt;Node2 -->
<g id="edge1" class="edge">
<title>Node1&#45;&gt;Node2</title>
<path fill="none" stroke="midnightblue" d="M636.04,-502.48C626.34,-494.57 611.51,-482.48 598.73,-472.07"/>
<polygon fill="midnightblue" stroke="midnightblue" points="600.67,-469.13 590.7,-465.52 596.24,-474.55 600.67,-469.13"/>
</g>
<!-- Node17 -->
<g id="node17" class="node">
<title>Node17</title>
<g id="a_node17"><a xlink:title=" ">
<polygon fill="white" stroke="#bfbfbf" points="645,-435.5 645,-465.5 794,-465.5 794,-435.5 645,-435.5"/>
<text text-anchor="start" x="653" y="-453.5" font-family="Helvetica,sans-Serif" font-size="10.00">packages/trees/impl</text>
<text text-anchor="middle" x="719.5" y="-442.5" font-family="Helvetica,sans-Serif" font-size="10.00">/LinearSplitPolicy_impl.hpp</text>
</a>
</g>
</g>
<!-- Node1&#45;&gt;Node17 -->
<g id="edge24" class="edge">
<title>Node1&#45;&gt;Node17</title>
<path fill="none" stroke="midnightblue" d="M656.96,-502.48C666.66,-494.57 681.49,-482.48 694.27,-472.07"/>
<polygon fill="midnightblue" stroke="midnightblue" points="696.76,-474.55 702.3,-465.52 692.33,-469.13 696.76,-474.55"/>
</g>
<!-- Node3 -->
<g id="node3" class="node">
<title>Node3</title>
<g id="a_node3"><a target="_parent" xlink:href="../../../cieutils/docs/html/iterator__concepts_8hpp.html.html" xlink:title=" ">
<polygon fill="white" stroke="black" points="315.5,-357.5 315.5,-398.5 447.5,-398.5 447.5,-357.5 315.5,-357.5"/>
<text text-anchor="start" x="323.5" y="-386.5" font-family="Helvetica,sans-Serif" font-size="10.00">packages/compile_time</text>
<text text-anchor="start" x="323.5" y="-375.5" font-family="Helvetica,sans-Serif" font-size="10.00">/packages/concepts/inc</text>
<text text-anchor="middle" x="381.5" y="-364.5" font-family="Helvetica,sans-Serif" font-size="10.00">/iterator_concepts.hpp</text>
</a>
</g>
</g>
<!-- Node2&#45;&gt;Node3 -->
<g id="edge2" class="edge">
<title>Node2&#45;&gt;Node3</title>
<path fill="none" stroke="midnightblue" d="M535.11,-435.4C509.14,-425.87 474.24,-413.05 444.27,-402.05"/>
<polygon fill="midnightblue" stroke="midnightblue" points="445.33,-398.71 434.73,-398.55 442.91,-405.28 445.33,-398.71"/>
</g>
<!-- Node4 -->
<g id="node4" class="node">
<title>Node4</title>
<g id="a_node4"><a xlink:href="PrimitiveSampler_8hpp.html" target="_top" xlink:title=" ">
<polygon fill="white" stroke="black" points="466,-363 466,-393 591,-393 591,-363 466,-363"/>
<text text-anchor="start" x="474" y="-381" font-family="Helvetica,sans-Serif" font-size="10.00">packages/trees/inc</text>
<text text-anchor="middle" x="528.5" y="-370" font-family="Helvetica,sans-Serif" font-size="10.00">/PrimitiveSampler.hpp</text>
</a>
</g>
</g>
<!-- Node2&#45;&gt;Node4 -->
<g id="edge3" class="edge">
<title>Node2&#45;&gt;Node4</title>
<path fill="none" stroke="midnightblue" d="M564.39,-435.23C558.29,-425.68 550.13,-412.89 543.13,-401.92"/>
<polygon fill="midnightblue" stroke="midnightblue" points="545.92,-399.79 537.59,-393.25 540.02,-403.56 545.92,-399.79"/>
</g>
<!-- Node10 -->
<g id="node10" class="node">
<title>Node10</title>
<g id="a_node10"><a target="_parent" xlink:href="../../../cieutils/docs/html/typedefs_8hpp.html.html" xlink:title=" ">
<polygon fill="white" stroke="black" points="522,-78.5 522,-108.5 641,-108.5 641,-78.5 522,-78.5"/>
<text text-anchor="start" x="530" y="-96.5" font-family="Helvetica,sans-Serif" font-size="10.00">packages/macros/inc</text>
<text text-anchor="middle" x="581.5" y="-85.5" font-family="Helvetica,sans-Serif" font-size="10.00">/typedefs.hpp</text>
</a>
</g>
</g>
<!-- Node2&#45;&gt;Node10 -->
<g id="edge22" class="edge">
<title>Node2&#45;&gt;Node10</title>
<path fill="none" stroke="midnightblue" d="M582.05,-435.37C587.71,-425.48 594.91,-411.81 599.5,-399 613.69,-359.41 619.5,-348.56 619.5,-306.5 619.5,-306.5 619.5,-306.5 619.5,-237.5 619.5,-194.26 603.07,-146.06 591.82,-118.11"/>
<polygon fill="midnightblue" stroke="midnightblue" points="595.01,-116.68 587.95,-108.78 588.55,-119.36 595.01,-116.68"/>
</g>
<!-- Node15 -->
<g id="node15" class="node">
<title>Node15</title>
<g id="a_node15"><a xlink:title=" ">
<polygon fill="white" stroke="#bfbfbf" points="659.5,-84 659.5,-103 717.5,-103 717.5,-84 659.5,-84"/>
<text text-anchor="middle" x="688.5" y="-91" font-family="Helvetica,sans-Serif" font-size="10.00">memory</text>
</a>
</g>
</g>
<!-- Node2&#45;&gt;Node15 -->
<g id="edge23" class="edge">
<title>Node2&#45;&gt;Node15</title>
<path fill="none" stroke="midnightblue" d="M592.12,-435.49C620.8,-412.16 672.5,-362.36 672.5,-306.5 672.5,-306.5 672.5,-306.5 672.5,-237.5 672.5,-192.69 680.36,-140.47 685.06,-113.22"/>
<polygon fill="midnightblue" stroke="midnightblue" points="688.54,-113.63 686.85,-103.17 681.65,-112.4 688.54,-113.63"/>
</g>
<!-- Node5 -->
<g id="node5" class="node">
<title>Node5</title>
<g id="a_node5"><a target="_parent" xlink:href="../../../cieutils/docs/html/basic__concepts_8hpp.html.html" xlink:title=" ">
<polygon fill="white" stroke="black" points="421.5,-145.5 421.5,-186.5 553.5,-186.5 553.5,-145.5 421.5,-145.5"/>
<text text-anchor="start" x="429.5" y="-174.5" font-family="Helvetica,sans-Serif" font-size="10.00">packages/compile_time</text>
<text text-anchor="start" x="429.5" y="-163.5" font-family="Helvetica,sans-Serif" font-size="10.00">/packages/concepts/inc</text>
<text text-anchor="middle" x="487.5" y="-152.5" font-family="Helvetica,sans-Serif" font-size="10.00">/basic_concepts.hpp</text>
</a>
</g>
</g>
<!-- Node4&#45;&gt;Node5 -->
<g id="edge4" class="edge">
<title>Node4&#45;&gt;Node5</title>
<path fill="none" stroke="midnightblue" d="M525.75,-362.9C519.13,-329.02 502.24,-242.51 493.28,-196.62"/>
<polygon fill="midnightblue" stroke="midnightblue" points="496.69,-195.83 491.34,-186.68 489.82,-197.17 496.69,-195.83"/>
</g>
<!-- Node6 -->
<g id="node6" class="node">
<title>Node6</title>
<g id="a_node6"><a xlink:href="primitives_2inc_2concepts_8hpp.html" target="_top" xlink:title=" ">
<polygon fill="white" stroke="black" points="326,-290.5 326,-320.5 441,-320.5 441,-290.5 326,-290.5"/>
<text text-anchor="start" x="334" y="-308.5" font-family="Helvetica,sans-Serif" font-size="10.00">packages/primitives</text>
<text text-anchor="middle" x="383.5" y="-297.5" font-family="Helvetica,sans-Serif" font-size="10.00">/inc/concepts.hpp</text>
</a>
</g>
</g>
<!-- Node4&#45;&gt;Node6 -->
<g id="edge5" class="edge">
<title>Node4&#45;&gt;Node6</title>
<path fill="none" stroke="midnightblue" d="M499.51,-362.9C477.18,-352.05 446.12,-336.95 421.76,-325.1"/>
<polygon fill="midnightblue" stroke="midnightblue" points="422.97,-321.8 412.44,-320.57 419.91,-328.09 422.97,-321.8"/>
</g>
<!-- Node4&#45;&gt;Node10 -->
<g id="edge21" class="edge">
<title>Node4&#45;&gt;Node10</title>
<path fill="none" stroke="midnightblue" d="M531.13,-362.99C539.61,-317.81 566.29,-175.56 576.99,-118.51"/>
<polygon fill="midnightblue" stroke="midnightblue" points="580.45,-119.07 578.86,-108.59 573.57,-117.78 580.45,-119.07"/>
</g>
<!-- Node7 -->
<g id="node7" class="node">
<title>Node7</title>
<g id="a_node7"><a target="_parent" xlink:href="../../../cieutils/docs/html/container__concepts_8hpp.html.html" xlink:title=" ">
<polygon fill="white" stroke="black" points="0,-0.5 0,-41.5 135,-41.5 135,-0.5 0,-0.5"/>
<text text-anchor="start" x="8" y="-29.5" font-family="Helvetica,sans-Serif" font-size="10.00">packages/compile_time</text>
<text text-anchor="start" x="8" y="-18.5" font-family="Helvetica,sans-Serif" font-size="10.00">/packages/concepts/inc</text>
<text text-anchor="middle" x="67.5" y="-7.5" font-family="Helvetica,sans-Serif" font-size="10.00">/container_concepts.hpp</text>
</a>
</g>
</g>
<!-- Node6&#45;&gt;Node7 -->
<g id="edge6" class="edge">
<title>Node6&#45;&gt;Node7</title>
<path fill="none" stroke="midnightblue" d="M357.68,-290.46C306.74,-261.79 191.78,-192.12 117.5,-109 102.12,-91.79 89.27,-69.1 80.45,-51.2"/>
<polygon fill="midnightblue" stroke="midnightblue" points="83.44,-49.34 75.97,-41.82 77.12,-52.35 83.44,-49.34"/>
</g>
<!-- Node8 -->
<g id="node8" class="node">
<title>Node8</title>
<g id="a_node8"><a xlink:href="Primitive_8hpp.html" target="_top" xlink:title=" ">
<polygon fill="white" stroke="black" points="326,-223.5 326,-253.5 441,-253.5 441,-223.5 326,-223.5"/>
<text text-anchor="start" x="334" y="-241.5" font-family="Helvetica,sans-Serif" font-size="10.00">packages/primitives</text>
<text text-anchor="middle" x="383.5" y="-230.5" font-family="Helvetica,sans-Serif" font-size="10.00">/inc/Primitive.hpp</text>
</a>
</g>
</g>
<!-- Node6&#45;&gt;Node8 -->
<g id="edge7" class="edge">
<title>Node6&#45;&gt;Node8</title>
<path fill="none" stroke="midnightblue" d="M383.5,-290.4C383.5,-282.64 383.5,-272.81 383.5,-263.86"/>
<polygon fill="midnightblue" stroke="midnightblue" points="387,-263.58 383.5,-253.58 380,-263.58 387,-263.58"/>
</g>
<!-- Node8&#45;&gt;Node5 -->
<g id="edge8" class="edge">
<title>Node8&#45;&gt;Node5</title>
<path fill="none" stroke="midnightblue" d="M404.55,-223.23C417.67,-214.34 434.92,-202.64 450.29,-192.22"/>
<polygon fill="midnightblue" stroke="midnightblue" points="452.29,-195.1 458.6,-186.59 448.36,-189.3 452.29,-195.1"/>
</g>
<!-- Node9 -->
<g id="node9" class="node">
<title>Node9</title>
<g id="a_node9"><a xlink:href="Object_8hpp.html" target="_top" xlink:title=" ">
<polygon fill="white" stroke="black" points="288,-151 288,-181 403,-181 403,-151 288,-151"/>
<text text-anchor="start" x="296" y="-169" font-family="Helvetica,sans-Serif" font-size="10.00">packages/primitives</text>
<text text-anchor="middle" x="345.5" y="-158" font-family="Helvetica,sans-Serif" font-size="10.00">/inc/Object.hpp</text>
</a>
</g>
</g>
<!-- Node8&#45;&gt;Node9 -->
<g id="edge9" class="edge">
<title>Node8&#45;&gt;Node9</title>
<path fill="none" stroke="midnightblue" d="M375.81,-223.23C370.71,-213.77 363.9,-201.14 358.03,-190.25"/>
<polygon fill="midnightblue" stroke="midnightblue" points="361,-188.39 353.18,-181.25 354.84,-191.71 361,-188.39"/>
</g>
<!-- Node9&#45;&gt;Node7 -->
<g id="edge10" class="edge">
<title>Node9&#45;&gt;Node7</title>
<path fill="none" stroke="midnightblue" d="M287.72,-154.65C249.78,-146.18 200.04,-131.8 160.5,-109 133.4,-93.37 107.84,-68.44 90.4,-49.26"/>
<polygon fill="midnightblue" stroke="midnightblue" points="92.94,-46.85 83.68,-41.71 87.71,-51.5 92.94,-46.85"/>
</g>
<!-- Node9&#45;&gt;Node10 -->
<g id="edge11" class="edge">
<title>Node9&#45;&gt;Node10</title>
<path fill="none" stroke="midnightblue" d="M392.41,-150.99C430.41,-139.64 484.09,-123.6 524.55,-111.51"/>
<polygon fill="midnightblue" stroke="midnightblue" points="525.7,-114.82 534.28,-108.61 523.69,-108.12 525.7,-114.82"/>
</g>
<!-- Node11 -->
<g id="node11" class="node">
<title>Node11</title>
<g id="a_node11"><a target="_parent" xlink:href="../../../cieutils/docs/html/types_8hpp.html.html" xlink:title=" ">
<polygon fill="white" stroke="black" points="362.5,-6 362.5,-36 472.5,-36 472.5,-6 362.5,-6"/>
<text text-anchor="start" x="370.5" y="-24" font-family="Helvetica,sans-Serif" font-size="10.00">packages/types/inc</text>
<text text-anchor="middle" x="417.5" y="-13" font-family="Helvetica,sans-Serif" font-size="10.00">/types.hpp</text>
</a>
</g>
</g>
<!-- Node9&#45;&gt;Node11 -->
<g id="edge12" class="edge">
<title>Node9&#45;&gt;Node11</title>
<path fill="none" stroke="midnightblue" d="M347.71,-150.75C350.88,-132.93 357.8,-101.86 370.5,-78 377.09,-65.62 386.74,-53.5 395.59,-43.72"/>
<polygon fill="midnightblue" stroke="midnightblue" points="398.15,-46.1 402.44,-36.41 393.04,-41.31 398.15,-46.1"/>
</g>
<!-- Node12 -->
<g id="node12" class="node">
<title>Node12</title>
<g id="a_node12"><a xlink:href="Traits_8hpp.html" target="_top" xlink:title=" ">
<polygon fill="white" stroke="black" points="170,-78.5 170,-108.5 285,-108.5 285,-78.5 170,-78.5"/>
<text text-anchor="start" x="178" y="-96.5" font-family="Helvetica,sans-Serif" font-size="10.00">packages/primitives</text>
<text text-anchor="middle" x="227.5" y="-85.5" font-family="Helvetica,sans-Serif" font-size="10.00">/inc/Traits.hpp</text>
</a>
</g>
</g>
<!-- Node9&#45;&gt;Node12 -->
<g id="edge13" class="edge">
<title>Node9&#45;&gt;Node12</title>
<path fill="none" stroke="midnightblue" d="M321.9,-150.9C304.06,-140.24 279.35,-125.48 259.69,-113.73"/>
<polygon fill="midnightblue" stroke="midnightblue" points="261.43,-110.7 251.05,-108.57 257.84,-116.71 261.43,-110.7"/>
</g>
<!-- Node14 -->
<g id="node14" class="node">
<title>Node14</title>
<g id="a_node14"><a xlink:title=" ">
<polygon fill="white" stroke="#bfbfbf" points="302.5,-11.5 302.5,-30.5 344.5,-30.5 344.5,-11.5 302.5,-11.5"/>
<text text-anchor="middle" x="323.5" y="-18.5" font-family="Helvetica,sans-Serif" font-size="10.00">array</text>
</a>
</g>
</g>
<!-- Node9&#45;&gt;Node14 -->
<g id="edge19" class="edge">
<title>Node9&#45;&gt;Node14</title>
<path fill="none" stroke="midnightblue" d="M343.31,-150.77C339.32,-124.82 330.86,-69.85 326.4,-40.84"/>
<polygon fill="midnightblue" stroke="midnightblue" points="329.83,-40.14 324.85,-30.78 322.91,-41.2 329.83,-40.14"/>
</g>
<!-- Node9&#45;&gt;Node15 -->
<g id="edge18" class="edge">
<title>Node9&#45;&gt;Node15</title>
<path fill="none" stroke="midnightblue" d="M389.24,-150.99C396.94,-148.8 404.92,-146.7 412.5,-145 516.46,-121.71 546.36,-135.7 649.5,-109 652.32,-108.27 655.22,-107.41 658.1,-106.48"/>
<polygon fill="midnightblue" stroke="midnightblue" points="659.41,-109.73 667.7,-103.13 657.11,-103.12 659.41,-109.73"/>
</g>
<!-- Node16 -->
<g id="node16" class="node">
<title>Node16</title>
<g id="a_node16"><a xlink:title=" ">
<polygon fill="white" stroke="#bfbfbf" points="379.5,-78.5 379.5,-108.5 503.5,-108.5 503.5,-78.5 379.5,-78.5"/>
<text text-anchor="start" x="387.5" y="-96.5" font-family="Helvetica,sans-Serif" font-size="10.00">packages/primitives</text>
<text text-anchor="middle" x="441.5" y="-85.5" font-family="Helvetica,sans-Serif" font-size="10.00">/impl/Object_impl.hpp</text>
</a>
</g>
</g>
<!-- Node9&#45;&gt;Node16 -->
<g id="edge20" class="edge">
<title>Node9&#45;&gt;Node16</title>
<path fill="none" stroke="midnightblue" d="M364.93,-150.73C379.07,-140.35 398.42,-126.13 414.13,-114.6"/>
<polygon fill="midnightblue" stroke="midnightblue" points="416.44,-117.25 422.43,-108.5 412.3,-111.6 416.44,-117.25"/>
</g>
<!-- Node12&#45;&gt;Node7 -->
<g id="edge15" class="edge">
<title>Node12&#45;&gt;Node7</title>
<path fill="none" stroke="midnightblue" d="M195.51,-78.4C174.24,-69.03 145.79,-56.5 121.11,-45.62"/>
<polygon fill="midnightblue" stroke="midnightblue" points="122.42,-42.38 111.86,-41.55 119.6,-48.78 122.42,-42.38"/>
</g>
<!-- Node12&#45;&gt;Node11 -->
<g id="edge14" class="edge">
<title>Node12&#45;&gt;Node11</title>
<path fill="none" stroke="midnightblue" d="M265.49,-78.4C295.52,-67.26 337.62,-51.64 369.9,-39.66"/>
<polygon fill="midnightblue" stroke="midnightblue" points="371.42,-42.83 379.57,-36.07 368.98,-36.27 371.42,-42.83"/>
</g>
<!-- Node13 -->
<g id="node13" class="node">
<title>Node13</title>
<g id="a_node13"><a target="_parent" xlink:href="../../../cieutils/docs/html/StaticArray_8hpp.html.html" xlink:title=" ">
<polygon fill="white" stroke="black" points="153,-6 153,-36 284,-36 284,-6 153,-6"/>
<text text-anchor="start" x="161" y="-24" font-family="Helvetica,sans-Serif" font-size="10.00">packages/stl_extension</text>
<text text-anchor="middle" x="218.5" y="-13" font-family="Helvetica,sans-Serif" font-size="10.00">/inc/StaticArray.hpp</text>
</a>
</g>
</g>
<!-- Node12&#45;&gt;Node13 -->
<g id="edge16" class="edge">
<title>Node12&#45;&gt;Node13</title>
<path fill="none" stroke="midnightblue" d="M225.68,-78.23C224.51,-69.06 222.96,-56.91 221.59,-46.24"/>
<polygon fill="midnightblue" stroke="midnightblue" points="225.06,-45.72 220.32,-36.25 218.11,-46.61 225.06,-45.72"/>
</g>
<!-- Node12&#45;&gt;Node14 -->
<g id="edge17" class="edge">
<title>Node12&#45;&gt;Node14</title>
<path fill="none" stroke="midnightblue" d="M246.93,-78.23C263.29,-66.22 286.62,-49.08 303.22,-36.89"/>
<polygon fill="midnightblue" stroke="midnightblue" points="305.68,-39.43 311.67,-30.69 301.53,-33.79 305.68,-39.43"/>
</g>
</g>
</svg>
