<?xml version="1.0" encoding="UTF-8" standalone="no"?>
<!DOCTYPE svg PUBLIC "-//W3C//DTD SVG 1.1//EN"
 "http://www.w3.org/Graphics/SVG/1.1/DTD/svg11.dtd">
<!-- Generated by graphviz version 2.43.0 (0)
 -->
<!-- Title: concepts.hpp Pages: 1 -->
<svg width="500pt" height="251pt"
 viewBox="0.00 0.00 499.50 251.00" xmlns="http://www.w3.org/2000/svg" xmlns:xlink="http://www.w3.org/1999/xlink">
<g id="graph0" class="graph" transform="scale(1 1) rotate(0) translate(4 247)">
<title>concepts.hpp</title>
<polygon fill="white" stroke="transparent" points="-4,4 -4,-247 495.5,-247 495.5,4 -4,4"/>
<!-- Node1 -->
<g id="node1" class="node">
<title>Node1</title>
<g id="a_node1"><a xlink:title=" ">
<polygon fill="#bfbfbf" stroke="black" points="223.5,-223.5 223.5,-242.5 304.5,-242.5 304.5,-223.5 223.5,-223.5"/>
<text text-anchor="middle" x="264" y="-230.5" font-family="Helvetica,sans-Serif" font-size="10.00">concepts.hpp</text>
</a>
</g>
</g>
<!-- Node2 -->
<g id="node2" class="node">
<title>Node2</title>
<g id="a_node2"><a target="_parent" xlink:href="../../../cieutils/docs/html/basic__concepts_8hpp.html.html" xlink:title=" ">
<polygon fill="white" stroke="black" points="51,-145.5 51,-186.5 183,-186.5 183,-145.5 51,-145.5"/>
<text text-anchor="start" x="59" y="-174.5" font-family="Helvetica,sans-Serif" font-size="10.00">packages/compile_time</text>
<text text-anchor="start" x="59" y="-163.5" font-family="Helvetica,sans-Serif" font-size="10.00">/packages/concepts/inc</text>
<text text-anchor="middle" x="117" y="-152.5" font-family="Helvetica,sans-Serif" font-size="10.00">/basic_concepts.hpp</text>
</a>
</g>
</g>
<!-- Node1&#45;&gt;Node2 -->
<g id="edge1" class="edge">
<title>Node1&#45;&gt;Node2</title>
<path fill="none" stroke="midnightblue" d="M244.48,-223.37C225.7,-215.06 196.44,-202.13 170.69,-190.74"/>
<polygon fill="midnightblue" stroke="midnightblue" points="171.94,-187.47 161.38,-186.63 169.11,-193.87 171.94,-187.47"/>
</g>
<!-- Node3 -->
<g id="node3" class="node">
<title>Node3</title>
<g id="a_node3"><a target="_parent" xlink:href="../../../cieutils/docs/html/ThreadPool_8hpp.html.html" xlink:title=" ">
<polygon fill="white" stroke="black" points="201.5,-151 201.5,-181 326.5,-181 326.5,-151 201.5,-151"/>
<text text-anchor="start" x="209.5" y="-169" font-family="Helvetica,sans-Serif" font-size="10.00">packages/concurrency</text>
<text text-anchor="middle" x="264" y="-158" font-family="Helvetica,sans-Serif" font-size="10.00">/inc/ThreadPool.hpp</text>
</a>
</g>
</g>
<!-- Node1&#45;&gt;Node3 -->
<g id="edge2" class="edge">
<title>Node1&#45;&gt;Node3</title>
<path fill="none" stroke="midnightblue" d="M264,-223.23C264,-215.04 264,-202.42 264,-191.21"/>
<polygon fill="midnightblue" stroke="midnightblue" points="267.5,-191.09 264,-181.09 260.5,-191.09 267.5,-191.09"/>
</g>
<!-- Node4 -->
<g id="node4" class="node">
<title>Node4</title>
<g id="a_node4"><a xlink:href="MeshTraits_8hpp.html" target="_top" xlink:title=" ">
<polygon fill="white" stroke="black" points="345,-151 345,-181 453,-181 453,-151 345,-151"/>
<text text-anchor="start" x="353" y="-169" font-family="Helvetica,sans-Serif" font-size="10.00">packages/traits/inc</text>
<text text-anchor="middle" x="399" y="-158" font-family="Helvetica,sans-Serif" font-size="10.00">/MeshTraits.hpp</text>
</a>
</g>
</g>
<!-- Node1&#45;&gt;Node4 -->
<g id="edge3" class="edge">
<title>Node1&#45;&gt;Node4</title>
<path fill="none" stroke="midnightblue" d="M281.93,-223.37C301.92,-213.74 334.85,-197.89 360.7,-185.44"/>
<polygon fill="midnightblue" stroke="midnightblue" points="362.37,-188.52 369.86,-181.03 359.34,-182.21 362.37,-188.52"/>
</g>
<!-- Node5 -->
<g id="node5" class="node">
<title>Node5</title>
<g id="a_node5"><a xlink:href="Traits_8hpp.html" target="_top" xlink:title=" ">
<polygon fill="white" stroke="black" points="236.5,-78.5 236.5,-108.5 351.5,-108.5 351.5,-78.5 236.5,-78.5"/>
<text text-anchor="start" x="244.5" y="-96.5" font-family="Helvetica,sans-Serif" font-size="10.00">packages/primitives</text>
<text text-anchor="middle" x="294" y="-85.5" font-family="Helvetica,sans-Serif" font-size="10.00">/inc/Traits.hpp</text>
</a>
</g>
</g>
<!-- Node4&#45;&gt;Node5 -->
<g id="edge4" class="edge">
<title>Node4&#45;&gt;Node5</title>
<path fill="none" stroke="midnightblue" d="M378,-150.9C362.41,-140.43 340.93,-126.01 323.59,-114.37"/>
<polygon fill="midnightblue" stroke="midnightblue" points="325.21,-111.24 314.96,-108.57 321.31,-117.05 325.21,-111.24"/>
</g>
<!-- Node8 -->
<g id="node8" class="node">
<title>Node8</title>
<g id="a_node8"><a target="_parent" xlink:href="../../../cieutils/docs/html/StaticArray_8hpp.html.html" xlink:title=" ">
<polygon fill="white" stroke="black" points="281.5,-6 281.5,-36 412.5,-36 412.5,-6 281.5,-6"/>
<text text-anchor="start" x="289.5" y="-24" font-family="Helvetica,sans-Serif" font-size="10.00">packages/stl_extension</text>
<text text-anchor="middle" x="347" y="-13" font-family="Helvetica,sans-Serif" font-size="10.00">/inc/StaticArray.hpp</text>
</a>
</g>
</g>
<!-- Node4&#45;&gt;Node8 -->
<g id="edge9" class="edge">
<title>Node4&#45;&gt;Node8</title>
<path fill="none" stroke="midnightblue" d="M393.82,-150.77C384.91,-126.25 366.56,-75.8 355.67,-45.84"/>
<polygon fill="midnightblue" stroke="midnightblue" points="358.86,-44.38 352.16,-36.18 352.28,-46.77 358.86,-44.38"/>
</g>
<!-- Node9 -->
<g id="node9" class="node">
<title>Node9</title>
<g id="a_node9"><a xlink:title=" ">
<polygon fill="white" stroke="#bfbfbf" points="431,-11.5 431,-30.5 473,-30.5 473,-11.5 431,-11.5"/>
<text text-anchor="middle" x="452" y="-18.5" font-family="Helvetica,sans-Serif" font-size="10.00">array</text>
</a>
</g>
</g>
<!-- Node4&#45;&gt;Node9 -->
<g id="edge10" class="edge">
<title>Node4&#45;&gt;Node9</title>
<path fill="none" stroke="midnightblue" d="M404.28,-150.77C413.93,-124.71 434.45,-69.36 445.16,-40.45"/>
<polygon fill="midnightblue" stroke="midnightblue" points="448.55,-41.38 448.74,-30.78 441.99,-38.94 448.55,-41.38"/>
</g>
<!-- Node10 -->
<g id="node10" class="node">
<title>Node10</title>
<g id="a_node10"><a xlink:title=" ">
<polygon fill="white" stroke="#bfbfbf" points="446.5,-84 446.5,-103 491.5,-103 491.5,-84 446.5,-84"/>
<text text-anchor="middle" x="469" y="-91" font-family="Helvetica,sans-Serif" font-size="10.00">utility</text>
</a>
</g>
</g>
<!-- Node4&#45;&gt;Node10 -->
<g id="edge11" class="edge">
<title>Node4&#45;&gt;Node10</title>
<path fill="none" stroke="midnightblue" d="M413.17,-150.73C424.7,-139.12 440.98,-122.72 452.99,-110.62"/>
<polygon fill="midnightblue" stroke="midnightblue" points="455.61,-112.96 460.17,-103.39 450.64,-108.02 455.61,-112.96"/>
</g>
<!-- Node6 -->
<g id="node6" class="node">
<title>Node6</title>
<g id="a_node6"><a target="_parent" xlink:href="../../../cieutils/docs/html/types_8hpp.html.html" xlink:title=" ">
<polygon fill="white" stroke="black" points="0,-6 0,-36 110,-36 110,-6 0,-6"/>
<text text-anchor="start" x="8" y="-24" font-family="Helvetica,sans-Serif" font-size="10.00">packages/types/inc</text>
<text text-anchor="middle" x="55" y="-13" font-family="Helvetica,sans-Serif" font-size="10.00">/types.hpp</text>
</a>
</g>
</g>
<!-- Node5&#45;&gt;Node6 -->
<g id="edge5" class="edge">
<title>Node5&#45;&gt;Node6</title>
<path fill="none" stroke="midnightblue" d="M244.13,-78.42C209.07,-68.45 161.09,-54.65 119,-42 115.72,-41.02 112.36,-39.99 108.96,-38.96"/>
<polygon fill="midnightblue" stroke="midnightblue" points="109.96,-35.6 99.37,-36.01 107.9,-42.29 109.96,-35.6"/>
</g>
<!-- Node7 -->
<g id="node7" class="node">
<title>Node7</title>
<g id="a_node7"><a target="_parent" xlink:href="../../../cieutils/docs/html/container__concepts_8hpp.html.html" xlink:title=" ">
<polygon fill="white" stroke="black" points="128.5,-0.5 128.5,-41.5 263.5,-41.5 263.5,-0.5 128.5,-0.5"/>
<text text-anchor="start" x="136.5" y="-29.5" font-family="Helvetica,sans-Serif" font-size="10.00">packages/compile_time</text>
<text text-anchor="start" x="136.5" y="-18.5" font-family="Helvetica,sans-Serif" font-size="10.00">/packages/concepts/inc</text>
<text text-anchor="middle" x="196" y="-7.5" font-family="Helvetica,sans-Serif" font-size="10.00">/container_concepts.hpp</text>
</a>
</g>
</g>
<!-- Node5&#45;&gt;Node7 -->
<g id="edge6" class="edge">
<title>Node5&#45;&gt;Node7</title>
<path fill="none" stroke="midnightblue" d="M274.17,-78.23C261.92,-69.42 245.85,-57.86 231.46,-47.51"/>
<polygon fill="midnightblue" stroke="midnightblue" points="233.39,-44.59 223.23,-41.59 229.3,-50.27 233.39,-44.59"/>
</g>
<!-- Node5&#45;&gt;Node8 -->
<g id="edge7" class="edge">
<title>Node5&#45;&gt;Node8</title>
<path fill="none" stroke="midnightblue" d="M304.73,-78.23C312.05,-68.49 321.91,-55.37 330.26,-44.26"/>
<polygon fill="midnightblue" stroke="midnightblue" points="333.08,-46.34 336.29,-36.25 327.48,-42.14 333.08,-46.34"/>
</g>
<!-- Node5&#45;&gt;Node9 -->
<g id="edge8" class="edge">
<title>Node5&#45;&gt;Node9</title>
<path fill="none" stroke="midnightblue" d="M336.21,-78.41C361.65,-69.29 394.37,-56.45 422,-42 425.26,-40.29 428.61,-38.32 431.82,-36.28"/>
<polygon fill="midnightblue" stroke="midnightblue" points="434,-39.04 440.39,-30.58 430.12,-33.21 434,-39.04"/>
</g>
</g>
</svg>
