<?xml version="1.0" encoding="UTF-8" standalone="no"?>
<!DOCTYPE svg PUBLIC "-//W3C//DTD SVG 1.1//EN"
 "http://www.w3.org/Graphics/SVG/1.1/DTD/svg11.dtd">
<!-- Generated by graphviz version 2.43.0 (0)
 -->
<!-- Title: MarchingCubes.hpp Pages: 1 -->
<!--zoomable 541 -->
<svg id="main" version="1.1" xmlns="http://www.w3.org/2000/svg" xmlns:xlink="http://www.w3.org/1999/xlink" xml:space="preserve" onload="init(evt)">
<style type="text/css"><![CDATA[
.edge:hover path { stroke: red; }
.edge:hover polygon { stroke: red; fill: red; }
]]></style>
<script type="text/javascript"><![CDATA[
var edges = document.getElementsByTagName('g');
if (edges && edges.length) {
  for (var i=0;i<edges.length;i++) {
    if (edges[i].id.substr(0,4)=='edge') {
      edges[i].setAttribute('class','edge');
    }
  }
}
]]></script>
        <defs>
                <circle id="rim" cx="0" cy="0" r="7"/>
                <circle id="rim2" cx="0" cy="0" r="3.5"/>
                <g id="zoomPlus">
                        <use xlink:href="#rim" fill="#404040">
                                <set attributeName="fill" to="#808080" begin="zoomplus.mouseover" end="zoomplus.mouseout"/>
                        </use>
                        <path d="M-4,0h8M0,-4v8" fill="none" stroke="white" stroke-width="1.5" pointer-events="none"/>
                </g>
                <g id="zoomMin">
                        <use xlink:href="#rim" fill="#404040">
                                <set attributeName="fill" to="#808080" begin="zoomminus.mouseover" end="zoomminus.mouseout"/>
                        </use>
                        <path d="M-4,0h8" fill="none" stroke="white" stroke-width="1.5" pointer-events="none"/>
                </g>
                <g id="dirArrow">
                        <path fill="none" stroke="white" stroke-width="1.5" d="M0,-3.0v7 M-2.5,-0.5L0,-3.0L2.5,-0.5"/>
                </g>
               <g id="resetDef">
                       <use xlink:href="#rim2" fill="#404040">
                               <set attributeName="fill" to="#808080" begin="reset.mouseover" end="reset.mouseout"/>
                       </use>
               </g>
        </defs>

<script type="text/javascript">
var viewWidth = 2011;
var viewHeight = 541;
var sectionId = 'dynsection-0';
</script>
<script xlink:href="svgpan.js"/>
<svg id="graph" class="graph">
<g id="viewport">
<title>MarchingCubes.hpp</title>
<polygon fill="white" stroke="transparent" points="-4,4 -4,-537 2006.5,-537 2006.5,4 -4,4"/>
<!-- Node1 -->
<g id="node1" class="node">
<title>Node1</title>
<g id="a_node1"><a xlink:title=" ">
<polygon fill="#bfbfbf" stroke="black" points="838.5,-513.5 838.5,-532.5 951.5,-532.5 951.5,-513.5 838.5,-513.5"/>
<text text-anchor="middle" x="895" y="-520.5" font-family="Helvetica,sans-Serif" font-size="10.00">MarchingCubes.hpp</text>
</a>
</g>
</g>
<!-- Node2 -->
<g id="node2" class="node">
<title>Node2</title>
<g id="a_node2"><a target="_parent" xlink:href="../../../cieutils/docs/html/typedefs_8hpp.html.html" xlink:title=" ">
<polygon fill="white" stroke="black" points="264.5,-78.5 264.5,-108.5 383.5,-108.5 383.5,-78.5 264.5,-78.5"/>
<text text-anchor="start" x="272.5" y="-96.5" font-family="Helvetica,sans-Serif" font-size="10.00">packages/macros/inc</text>
<text text-anchor="middle" x="324" y="-85.5" font-family="Helvetica,sans-Serif" font-size="10.00">/typedefs.hpp</text>
</a>
</g>
</g>
<!-- Node1&#45;&gt;Node2 -->
<g id="edge1" class="edge">
<title>Node1&#45;&gt;Node2</title>
<path fill="none" stroke="midnightblue" d="M838.33,-519.64C641.6,-510.72 0,-475.11 0,-390 0,-390 0,-390 0,-237.5 0,-127.31 158.79,-101.32 254.05,-95.64"/>
<polygon fill="midnightblue" stroke="midnightblue" points="254.4,-99.12 264.2,-95.09 254.02,-92.13 254.4,-99.12"/>
</g>
<!-- Node3 -->
<g id="node3" class="node">
<title>Node3</title>
<g id="a_node3"><a xlink:href="Cube_8hpp.html" target="_top" xlink:title=" ">
<polygon fill="white" stroke="black" points="192.5,-374 192.5,-404 307.5,-404 307.5,-374 192.5,-374"/>
<text text-anchor="start" x="200.5" y="-392" font-family="Helvetica,sans-Serif" font-size="10.00">packages/primitives</text>
<text text-anchor="middle" x="250" y="-381" font-family="Helvetica,sans-Serif" font-size="10.00">/inc/Cube.hpp</text>
</a>
</g>
</g>
<!-- Node1&#45;&gt;Node3 -->
<g id="edge2" class="edge">
<title>Node1&#45;&gt;Node3</title>
<path fill="none" stroke="midnightblue" d="M850.44,-513.47C804.08,-504.54 729.4,-490.05 665,-477 542.41,-452.16 399.73,-421.97 317.64,-404.47"/>
<polygon fill="midnightblue" stroke="midnightblue" points="318.2,-401.01 307.69,-402.35 316.74,-407.86 318.2,-401.01"/>
</g>
<!-- Node11 -->
<g id="node11" class="node">
<title>Node11</title>
<g id="a_node11"><a xlink:title=" ">
<polygon fill="white" stroke="#bfbfbf" points="719,-11.5 719,-30.5 761,-30.5 761,-11.5 719,-11.5"/>
<text text-anchor="middle" x="740" y="-18.5" font-family="Helvetica,sans-Serif" font-size="10.00">array</text>
</a>
</g>
</g>
<!-- Node1&#45;&gt;Node11 -->
<g id="edge54" class="edge">
<title>Node1&#45;&gt;Node11</title>
<path fill="none" stroke="midnightblue" d="M892.33,-513.42C889.56,-504.4 885.21,-489.78 882,-477 865.96,-413.08 864.25,-396.55 851,-332 827.86,-219.3 857.29,-178.34 801,-78 791.54,-61.13 775.17,-46.53 761.78,-36.47"/>
<polygon fill="midnightblue" stroke="midnightblue" points="763.67,-33.52 753.5,-30.53 759.59,-39.2 763.67,-33.52"/>
</g>
<!-- Node17 -->
<g id="node17" class="node">
<title>Node17</title>
<g id="a_node17"><a xlink:href="Box_8hpp.html" target="_top" xlink:title=" ">
<polygon fill="white" stroke="black" points="462.5,-374 462.5,-404 577.5,-404 577.5,-374 462.5,-374"/>
<text text-anchor="start" x="470.5" y="-392" font-family="Helvetica,sans-Serif" font-size="10.00">packages/primitives</text>
<text text-anchor="middle" x="520" y="-381" font-family="Helvetica,sans-Serif" font-size="10.00">/inc/Box.hpp</text>
</a>
</g>
</g>
<!-- Node1&#45;&gt;Node17 -->
<g id="edge24" class="edge">
<title>Node1&#45;&gt;Node17</title>
<path fill="none" stroke="midnightblue" d="M866.78,-513.42C838.22,-504.64 792.86,-490.42 754,-477 688.21,-454.29 612.89,-425.84 565.88,-407.78"/>
<polygon fill="midnightblue" stroke="midnightblue" points="566.88,-404.42 556.29,-404.1 564.36,-410.95 566.88,-404.42"/>
</g>
<!-- Node19 -->
<g id="node19" class="node">
<title>Node19</title>
<g id="a_node19"><a xlink:href="MarchingPrimitives_8hpp.html" target="_top" xlink:title=" ">
<polygon fill="white" stroke="black" points="890.5,-446.5 890.5,-476.5 1051.5,-476.5 1051.5,-446.5 890.5,-446.5"/>
<text text-anchor="start" x="898.5" y="-464.5" font-family="Helvetica,sans-Serif" font-size="10.00">packages/marchingprimitives</text>
<text text-anchor="middle" x="971" y="-453.5" font-family="Helvetica,sans-Serif" font-size="10.00">/inc/MarchingPrimitives.hpp</text>
</a>
</g>
</g>
<!-- Node1&#45;&gt;Node19 -->
<g id="edge31" class="edge">
<title>Node1&#45;&gt;Node19</title>
<path fill="none" stroke="midnightblue" d="M905.89,-513.48C916.09,-505.49 931.72,-493.25 945.11,-482.77"/>
<polygon fill="midnightblue" stroke="midnightblue" points="947.37,-485.44 953.09,-476.52 943.06,-479.93 947.37,-485.44"/>
</g>
<!-- Node26 -->
<g id="node26" class="node">
<title>Node26</title>
<g id="a_node26"><a xlink:title=" ">
<polygon fill="white" stroke="#bfbfbf" points="1676.5,-229 1676.5,-248 1721.5,-248 1721.5,-229 1676.5,-229"/>
<text text-anchor="middle" x="1699" y="-236" font-family="Helvetica,sans-Serif" font-size="10.00">utility</text>
</a>
</g>
</g>
<!-- Node1&#45;&gt;Node26 -->
<g id="edge55" class="edge">
<title>Node1&#45;&gt;Node26</title>
<path fill="none" stroke="midnightblue" d="M951.7,-516.77C1116.56,-500.33 1590.37,-444.04 1689,-332 1706.74,-311.85 1705.66,-278.87 1702.72,-258.22"/>
<polygon fill="midnightblue" stroke="midnightblue" points="1706.14,-257.44 1701,-248.17 1699.24,-258.62 1706.14,-257.44"/>
</g>
<!-- Node30 -->
<g id="node30" class="node">
<title>Node30</title>
<g id="a_node30"><a xlink:title=" ">
<polygon fill="white" stroke="#bfbfbf" points="1752.5,-452 1752.5,-471 1817.5,-471 1817.5,-452 1752.5,-452"/>
<text text-anchor="middle" x="1785" y="-459" font-family="Helvetica,sans-Serif" font-size="10.00">functional</text>
</a>
</g>
</g>
<!-- Node1&#45;&gt;Node30 -->
<g id="edge56" class="edge">
<title>Node1&#45;&gt;Node30</title>
<path fill="none" stroke="midnightblue" d="M951.61,-520.79C1115.17,-517.01 1586.31,-504.02 1738,-477 1742.47,-476.2 1747.11,-475.11 1751.66,-473.88"/>
<polygon fill="midnightblue" stroke="midnightblue" points="1752.76,-477.21 1761.37,-471.03 1750.79,-470.49 1752.76,-477.21"/>
</g>
<!-- Node31 -->
<g id="node31" class="node">
<title>Node31</title>
<g id="a_node31"><a xlink:title=" ">
<polygon fill="white" stroke="#bfbfbf" points="1835.5,-446.5 1835.5,-476.5 2002.5,-476.5 2002.5,-446.5 1835.5,-446.5"/>
<text text-anchor="start" x="1843.5" y="-464.5" font-family="Helvetica,sans-Serif" font-size="10.00">packages/marchingprimitives</text>
<text text-anchor="middle" x="1919" y="-453.5" font-family="Helvetica,sans-Serif" font-size="10.00">/impl/MarchingCubes_impl.hpp</text>
</a>
</g>
</g>
<!-- Node1&#45;&gt;Node31 -->
<g id="edge57" class="edge">
<title>Node1&#45;&gt;Node31</title>
<path fill="none" stroke="midnightblue" d="M951.63,-521.39C1095.75,-519.4 1488.29,-511.1 1824.87,-477.15"/>
<polygon fill="midnightblue" stroke="midnightblue" points="1825.72,-480.58 1835.31,-476.08 1825.01,-473.61 1825.72,-480.58"/>
</g>
<!-- Node4 -->
<g id="node4" class="node">
<title>Node4</title>
<g id="a_node4"><a target="_parent" xlink:href="../../../cieutils/docs/html/container__concepts_8hpp.html.html" xlink:title=" ">
<polygon fill="white" stroke="black" points="168.5,-0.5 168.5,-41.5 303.5,-41.5 303.5,-0.5 168.5,-0.5"/>
<text text-anchor="start" x="176.5" y="-29.5" font-family="Helvetica,sans-Serif" font-size="10.00">packages/compile_time</text>
<text text-anchor="start" x="176.5" y="-18.5" font-family="Helvetica,sans-Serif" font-size="10.00">/packages/concepts/inc</text>
<text text-anchor="middle" x="236" y="-7.5" font-family="Helvetica,sans-Serif" font-size="10.00">/container_concepts.hpp</text>
</a>
</g>
</g>
<!-- Node3&#45;&gt;Node4 -->
<g id="edge3" class="edge">
<title>Node3&#45;&gt;Node4</title>
<path fill="none" stroke="midnightblue" d="M192.41,-386.55C149.07,-382.29 91.43,-369.3 57,-332 28.53,-301.16 38,-281.47 38,-239.5 38,-239.5 38,-239.5 38,-165 38,-102.67 103.28,-64.77 158.88,-43.8"/>
<polygon fill="midnightblue" stroke="midnightblue" points="160.21,-47.04 168.41,-40.33 157.82,-40.46 160.21,-47.04"/>
</g>
<!-- Node5 -->
<g id="node5" class="node">
<title>Node5</title>
<g id="a_node5"><a xlink:href="Primitive_8hpp.html" target="_top" xlink:title=" ">
<polygon fill="white" stroke="black" points="453.5,-223.5 453.5,-253.5 568.5,-253.5 568.5,-223.5 453.5,-223.5"/>
<text text-anchor="start" x="461.5" y="-241.5" font-family="Helvetica,sans-Serif" font-size="10.00">packages/primitives</text>
<text text-anchor="middle" x="511" y="-230.5" font-family="Helvetica,sans-Serif" font-size="10.00">/inc/Primitive.hpp</text>
</a>
</g>
</g>
<!-- Node3&#45;&gt;Node5 -->
<g id="edge4" class="edge">
<title>Node3&#45;&gt;Node5</title>
<path fill="none" stroke="midnightblue" d="M248.29,-373.8C246.59,-352.52 246.86,-312.46 269,-290 292.9,-265.75 380.14,-252.16 443.02,-245.33"/>
<polygon fill="midnightblue" stroke="midnightblue" points="443.7,-248.78 453.28,-244.26 442.97,-241.82 443.7,-248.78"/>
</g>
<!-- Node3&#45;&gt;Node11 -->
<g id="edge22" class="edge">
<title>Node3&#45;&gt;Node11</title>
<path fill="none" stroke="midnightblue" d="M245.79,-373.91C240.69,-354.13 234.27,-317.49 247,-290 308.22,-157.81 366.78,-143.32 497,-78 567.52,-42.63 660.76,-29.24 708.65,-24.46"/>
<polygon fill="midnightblue" stroke="midnightblue" points="709.08,-27.93 718.71,-23.52 708.43,-20.97 709.08,-27.93"/>
</g>
<!-- Node14 -->
<g id="node14" class="node">
<title>Node14</title>
<g id="a_node14"><a xlink:href="primitives_2inc_2concepts_8hpp.html" target="_top" xlink:title=" ">
<polygon fill="white" stroke="black" points="376.5,-296 376.5,-326 491.5,-326 491.5,-296 376.5,-296"/>
<text text-anchor="start" x="384.5" y="-314" font-family="Helvetica,sans-Serif" font-size="10.00">packages/primitives</text>
<text text-anchor="middle" x="434" y="-303" font-family="Helvetica,sans-Serif" font-size="10.00">/inc/concepts.hpp</text>
</a>
</g>
</g>
<!-- Node3&#45;&gt;Node14 -->
<g id="edge18" class="edge">
<title>Node3&#45;&gt;Node14</title>
<path fill="none" stroke="midnightblue" d="M284.18,-373.88C314.26,-361.46 358.21,-343.31 390.73,-329.87"/>
<polygon fill="midnightblue" stroke="midnightblue" points="392.1,-333.09 400.01,-326.04 389.43,-326.62 392.1,-333.09"/>
</g>
<!-- Node15 -->
<g id="node15" class="node">
<title>Node15</title>
<g id="a_node15"><a xlink:title=" ">
<polygon fill="white" stroke="#bfbfbf" points="278.5,-301.5 278.5,-320.5 319.5,-320.5 319.5,-301.5 278.5,-301.5"/>
<text text-anchor="middle" x="299" y="-308.5" font-family="Helvetica,sans-Serif" font-size="10.00">tuple</text>
</a>
</g>
</g>
<!-- Node3&#45;&gt;Node15 -->
<g id="edge21" class="edge">
<title>Node3&#45;&gt;Node15</title>
<path fill="none" stroke="midnightblue" d="M259.22,-373.7C267.34,-361.11 279.19,-342.73 287.84,-329.31"/>
<polygon fill="midnightblue" stroke="midnightblue" points="291,-330.86 293.48,-320.56 285.12,-327.07 291,-330.86"/>
</g>
<!-- Node16 -->
<g id="node16" class="node">
<title>Node16</title>
<g id="a_node16"><a xlink:title=" ">
<polygon fill="white" stroke="#bfbfbf" points="66.5,-296 66.5,-326 183.5,-326 183.5,-296 66.5,-296"/>
<text text-anchor="start" x="74.5" y="-314" font-family="Helvetica,sans-Serif" font-size="10.00">packages/primitives</text>
<text text-anchor="middle" x="125" y="-303" font-family="Helvetica,sans-Serif" font-size="10.00">/impl/Cube_impl.hpp</text>
</a>
</g>
</g>
<!-- Node3&#45;&gt;Node16 -->
<g id="edge23" class="edge">
<title>Node3&#45;&gt;Node16</title>
<path fill="none" stroke="midnightblue" d="M226.78,-373.88C207.05,-361.89 178.53,-344.55 156.7,-331.27"/>
<polygon fill="midnightblue" stroke="midnightblue" points="158.46,-328.25 148.09,-326.04 154.82,-334.23 158.46,-328.25"/>
</g>
<!-- Node6 -->
<g id="node6" class="node">
<title>Node6</title>
<g id="a_node6"><a target="_parent" xlink:href="../../../cieutils/docs/html/basic__concepts_8hpp.html.html" xlink:title=" ">
<polygon fill="white" stroke="black" points="441,-145.5 441,-186.5 573,-186.5 573,-145.5 441,-145.5"/>
<text text-anchor="start" x="449" y="-174.5" font-family="Helvetica,sans-Serif" font-size="10.00">packages/compile_time</text>
<text text-anchor="start" x="449" y="-163.5" font-family="Helvetica,sans-Serif" font-size="10.00">/packages/concepts/inc</text>
<text text-anchor="middle" x="507" y="-152.5" font-family="Helvetica,sans-Serif" font-size="10.00">/basic_concepts.hpp</text>
</a>
</g>
</g>
<!-- Node5&#45;&gt;Node6 -->
<g id="edge5" class="edge">
<title>Node5&#45;&gt;Node6</title>
<path fill="none" stroke="midnightblue" d="M510.19,-223.23C509.76,-215.57 509.2,-205.84 508.68,-196.63"/>
<polygon fill="midnightblue" stroke="midnightblue" points="512.17,-196.37 508.11,-186.59 505.18,-196.77 512.17,-196.37"/>
</g>
<!-- Node7 -->
<g id="node7" class="node">
<title>Node7</title>
<g id="a_node7"><a xlink:href="Object_8hpp.html" target="_top" xlink:title=" ">
<polygon fill="white" stroke="black" points="629.5,-151 629.5,-181 744.5,-181 744.5,-151 629.5,-151"/>
<text text-anchor="start" x="637.5" y="-169" font-family="Helvetica,sans-Serif" font-size="10.00">packages/primitives</text>
<text text-anchor="middle" x="687" y="-158" font-family="Helvetica,sans-Serif" font-size="10.00">/inc/Object.hpp</text>
</a>
</g>
</g>
<!-- Node5&#45;&gt;Node7 -->
<g id="edge6" class="edge">
<title>Node5&#45;&gt;Node7</title>
<path fill="none" stroke="midnightblue" d="M546.19,-223.4C573.89,-212.31 612.67,-196.78 642.52,-184.82"/>
<polygon fill="midnightblue" stroke="midnightblue" points="643.89,-188.04 651.87,-181.07 641.28,-181.54 643.89,-188.04"/>
</g>
<!-- Node7&#45;&gt;Node2 -->
<g id="edge8" class="edge">
<title>Node7&#45;&gt;Node2</title>
<path fill="none" stroke="midnightblue" d="M629.48,-153.83C565.46,-141.39 462.01,-121.3 393.51,-108"/>
<polygon fill="midnightblue" stroke="midnightblue" points="394.15,-104.56 383.66,-106.09 392.81,-111.43 394.15,-104.56"/>
</g>
<!-- Node7&#45;&gt;Node4 -->
<g id="edge7" class="edge">
<title>Node7&#45;&gt;Node4</title>
<path fill="none" stroke="midnightblue" d="M641.47,-150.96C605.06,-139.7 552.72,-123.45 507,-109 438.55,-87.37 360.52,-62.27 305.82,-44.6"/>
<polygon fill="midnightblue" stroke="midnightblue" points="306.82,-41.25 296.23,-41.51 304.67,-47.91 306.82,-41.25"/>
</g>
<!-- Node8 -->
<g id="node8" class="node">
<title>Node8</title>
<g id="a_node8"><a target="_parent" xlink:href="../../../cieutils/docs/html/types_8hpp.html.html" xlink:title=" ">
<polygon fill="white" stroke="black" points="851,-6 851,-36 961,-36 961,-6 851,-6"/>
<text text-anchor="start" x="859" y="-24" font-family="Helvetica,sans-Serif" font-size="10.00">packages/types/inc</text>
<text text-anchor="middle" x="906" y="-13" font-family="Helvetica,sans-Serif" font-size="10.00">/types.hpp</text>
</a>
</g>
</g>
<!-- Node7&#45;&gt;Node8 -->
<g id="edge9" class="edge">
<title>Node7&#45;&gt;Node8</title>
<path fill="none" stroke="midnightblue" d="M689.41,-150.81C693.41,-131.59 703.25,-97.44 725,-78 756.85,-49.52 802.98,-35.53 840.69,-28.65"/>
<polygon fill="midnightblue" stroke="midnightblue" points="841.31,-32.09 850.59,-26.97 840.14,-25.19 841.31,-32.09"/>
</g>
<!-- Node9 -->
<g id="node9" class="node">
<title>Node9</title>
<g id="a_node9"><a xlink:href="Traits_8hpp.html" target="_top" xlink:title=" ">
<polygon fill="white" stroke="black" points="848.5,-78.5 848.5,-108.5 963.5,-108.5 963.5,-78.5 848.5,-78.5"/>
<text text-anchor="start" x="856.5" y="-96.5" font-family="Helvetica,sans-Serif" font-size="10.00">packages/primitives</text>
<text text-anchor="middle" x="906" y="-85.5" font-family="Helvetica,sans-Serif" font-size="10.00">/inc/Traits.hpp</text>
</a>
</g>
</g>
<!-- Node7&#45;&gt;Node9 -->
<g id="edge10" class="edge">
<title>Node7&#45;&gt;Node9</title>
<path fill="none" stroke="midnightblue" d="M730.53,-150.99C765.57,-139.71 814.98,-123.8 852.44,-111.74"/>
<polygon fill="midnightblue" stroke="midnightblue" points="853.73,-115 862.18,-108.61 851.59,-108.34 853.73,-115"/>
</g>
<!-- Node7&#45;&gt;Node11 -->
<g id="edge16" class="edge">
<title>Node7&#45;&gt;Node11</title>
<path fill="none" stroke="midnightblue" d="M685.12,-150.84C683.36,-133.11 682.28,-102.14 692,-78 698.33,-62.29 710.93,-47.86 721.64,-37.59"/>
<polygon fill="midnightblue" stroke="midnightblue" points="724.29,-39.91 729.32,-30.59 719.57,-34.74 724.29,-39.91"/>
</g>
<!-- Node12 -->
<g id="node12" class="node">
<title>Node12</title>
<g id="a_node12"><a xlink:title=" ">
<polygon fill="white" stroke="#bfbfbf" points="734,-84 734,-103 792,-103 792,-84 734,-84"/>
<text text-anchor="middle" x="763" y="-91" font-family="Helvetica,sans-Serif" font-size="10.00">memory</text>
</a>
</g>
</g>
<!-- Node7&#45;&gt;Node12 -->
<g id="edge15" class="edge">
<title>Node7&#45;&gt;Node12</title>
<path fill="none" stroke="midnightblue" d="M702.38,-150.73C715.02,-139 732.92,-122.4 745.99,-110.28"/>
<polygon fill="midnightblue" stroke="midnightblue" points="748.46,-112.76 753.41,-103.39 743.7,-107.63 748.46,-112.76"/>
</g>
<!-- Node13 -->
<g id="node13" class="node">
<title>Node13</title>
<g id="a_node13"><a xlink:title=" ">
<polygon fill="white" stroke="#bfbfbf" points="516,-78.5 516,-108.5 640,-108.5 640,-78.5 516,-78.5"/>
<text text-anchor="start" x="524" y="-96.5" font-family="Helvetica,sans-Serif" font-size="10.00">packages/primitives</text>
<text text-anchor="middle" x="578" y="-85.5" font-family="Helvetica,sans-Serif" font-size="10.00">/impl/Object_impl.hpp</text>
</a>
</g>
</g>
<!-- Node7&#45;&gt;Node13 -->
<g id="edge17" class="edge">
<title>Node7&#45;&gt;Node13</title>
<path fill="none" stroke="midnightblue" d="M665.2,-150.9C648.87,-140.34 626.31,-125.74 608.23,-114.05"/>
<polygon fill="midnightblue" stroke="midnightblue" points="610.06,-111.06 599.76,-108.57 606.25,-116.94 610.06,-111.06"/>
</g>
<!-- Node9&#45;&gt;Node4 -->
<g id="edge12" class="edge">
<title>Node9&#45;&gt;Node4</title>
<path fill="none" stroke="midnightblue" d="M848.28,-84.12C832.93,-82.01 816.35,-79.82 801,-78 627.47,-57.43 423.33,-38.49 314.19,-28.79"/>
<polygon fill="midnightblue" stroke="midnightblue" points="314.2,-25.28 303.93,-27.88 313.58,-32.25 314.2,-25.28"/>
</g>
<!-- Node9&#45;&gt;Node8 -->
<g id="edge11" class="edge">
<title>Node9&#45;&gt;Node8</title>
<path fill="none" stroke="midnightblue" d="M906,-78.23C906,-69.16 906,-57.16 906,-46.58"/>
<polygon fill="midnightblue" stroke="midnightblue" points="909.5,-46.25 906,-36.25 902.5,-46.25 909.5,-46.25"/>
</g>
<!-- Node10 -->
<g id="node10" class="node">
<title>Node10</title>
<g id="a_node10"><a target="_parent" xlink:href="../../../cieutils/docs/html/StaticArray_8hpp.html.html" xlink:title=" ">
<polygon fill="white" stroke="black" points="1191.5,-6 1191.5,-36 1322.5,-36 1322.5,-6 1191.5,-6"/>
<text text-anchor="start" x="1199.5" y="-24" font-family="Helvetica,sans-Serif" font-size="10.00">packages/stl_extension</text>
<text text-anchor="middle" x="1257" y="-13" font-family="Helvetica,sans-Serif" font-size="10.00">/inc/StaticArray.hpp</text>
</a>
</g>
</g>
<!-- Node9&#45;&gt;Node10 -->
<g id="edge13" class="edge">
<title>Node9&#45;&gt;Node10</title>
<path fill="none" stroke="midnightblue" d="M963.6,-82.71C1018.4,-73.16 1103.06,-57.81 1176,-42 1181.09,-40.9 1186.35,-39.71 1191.63,-38.48"/>
<polygon fill="midnightblue" stroke="midnightblue" points="1192.83,-41.79 1201.76,-36.09 1191.22,-34.98 1192.83,-41.79"/>
</g>
<!-- Node9&#45;&gt;Node11 -->
<g id="edge14" class="edge">
<title>Node9&#45;&gt;Node11</title>
<path fill="none" stroke="midnightblue" d="M872.81,-78.4C842.68,-65.61 798.65,-46.91 769.67,-34.6"/>
<polygon fill="midnightblue" stroke="midnightblue" points="770.67,-31.22 760.09,-30.53 767.93,-37.66 770.67,-31.22"/>
</g>
<!-- Node14&#45;&gt;Node4 -->
<g id="edge19" class="edge">
<title>Node14&#45;&gt;Node4</title>
<path fill="none" stroke="midnightblue" d="M416.52,-295.96C380.27,-265.83 296.8,-191.02 255,-109 245.93,-91.2 241.18,-69.21 238.69,-51.79"/>
<polygon fill="midnightblue" stroke="midnightblue" points="242.13,-51.11 237.42,-41.62 235.19,-51.97 242.13,-51.11"/>
</g>
<!-- Node14&#45;&gt;Node5 -->
<g id="edge20" class="edge">
<title>Node14&#45;&gt;Node5</title>
<path fill="none" stroke="midnightblue" d="M449.58,-295.73C460.61,-285.63 475.59,-271.92 487.99,-260.57"/>
<polygon fill="midnightblue" stroke="midnightblue" points="490.69,-262.84 495.7,-253.5 485.96,-257.68 490.69,-262.84"/>
</g>
<!-- Node17&#45;&gt;Node4 -->
<g id="edge25" class="edge">
<title>Node17&#45;&gt;Node4</title>
<path fill="none" stroke="midnightblue" d="M462.17,-376.05C431.75,-367.59 395.24,-353.77 368,-332 323.37,-296.32 252.94,-164.65 240,-109 235.67,-90.4 234.64,-68.97 234.71,-52.03"/>
<polygon fill="midnightblue" stroke="midnightblue" points="238.22,-51.69 234.89,-41.63 231.22,-51.57 238.22,-51.69"/>
</g>
<!-- Node17&#45;&gt;Node5 -->
<g id="edge26" class="edge">
<title>Node17&#45;&gt;Node5</title>
<path fill="none" stroke="midnightblue" d="M519.14,-373.76C517.6,-348.44 514.38,-295.29 512.48,-263.99"/>
<polygon fill="midnightblue" stroke="midnightblue" points="515.97,-263.68 511.87,-253.91 508.99,-264.11 515.97,-263.68"/>
</g>
<!-- Node17&#45;&gt;Node11 -->
<g id="edge29" class="edge">
<title>Node17&#45;&gt;Node11</title>
<path fill="none" stroke="midnightblue" d="M577.86,-382.85C611.6,-376.54 651.61,-362.6 673,-332 683.69,-316.7 678.16,-307.94 673,-290 662.48,-253.44 610.38,-170.34 582,-145 554.42,-120.37 526.69,-140.29 507,-109 499.66,-97.34 498.47,-88.82 507,-78 531.79,-46.55 651.06,-30.73 708.7,-24.82"/>
<polygon fill="midnightblue" stroke="midnightblue" points="709.1,-28.3 718.7,-23.83 708.41,-21.33 709.1,-28.3"/>
</g>
<!-- Node17&#45;&gt;Node14 -->
<g id="edge27" class="edge">
<title>Node17&#45;&gt;Node14</title>
<path fill="none" stroke="midnightblue" d="M503.82,-373.7C490.85,-362.24 472.45,-345.98 457.8,-333.03"/>
<polygon fill="midnightblue" stroke="midnightblue" points="459.91,-330.23 450.1,-326.23 455.28,-335.48 459.91,-330.23"/>
</g>
<!-- Node17&#45;&gt;Node15 -->
<g id="edge28" class="edge">
<title>Node17&#45;&gt;Node15</title>
<path fill="none" stroke="midnightblue" d="M462.24,-374.23C424.9,-364.45 375.67,-349.91 334,-332 329.69,-330.15 325.23,-327.89 321.01,-325.57"/>
<polygon fill="midnightblue" stroke="midnightblue" points="322.67,-322.49 312.26,-320.53 319.17,-328.56 322.67,-322.49"/>
</g>
<!-- Node18 -->
<g id="node18" class="node">
<title>Node18</title>
<g id="a_node18"><a xlink:title=" ">
<polygon fill="white" stroke="#bfbfbf" points="548.5,-296 548.5,-326 663.5,-326 663.5,-296 548.5,-296"/>
<text text-anchor="start" x="556.5" y="-314" font-family="Helvetica,sans-Serif" font-size="10.00">packages/primitives</text>
<text text-anchor="middle" x="606" y="-303" font-family="Helvetica,sans-Serif" font-size="10.00">/impl/Box_impl.hpp</text>
</a>
</g>
</g>
<!-- Node17&#45;&gt;Node18 -->
<g id="edge30" class="edge">
<title>Node17&#45;&gt;Node18</title>
<path fill="none" stroke="midnightblue" d="M536.18,-373.7C549.15,-362.24 567.55,-345.98 582.2,-333.03"/>
<polygon fill="midnightblue" stroke="midnightblue" points="584.72,-335.48 589.9,-326.23 580.09,-330.23 584.72,-335.48"/>
</g>
<!-- Node20 -->
<g id="node20" class="node">
<title>Node20</title>
<g id="a_node20"><a xlink:href="AbsMarchingPrimitives_8hpp.html" target="_top" xlink:title=" ">
<polygon fill="white" stroke="black" points="886,-374 886,-404 1056,-404 1056,-374 886,-374"/>
<text text-anchor="start" x="894" y="-392" font-family="Helvetica,sans-Serif" font-size="10.00">packages/marchingprimitives</text>
<text text-anchor="middle" x="971" y="-381" font-family="Helvetica,sans-Serif" font-size="10.00">/inc/AbsMarchingPrimitives.hpp</text>
</a>
</g>
</g>
<!-- Node19&#45;&gt;Node20 -->
<g id="edge32" class="edge">
<title>Node19&#45;&gt;Node20</title>
<path fill="none" stroke="midnightblue" d="M971,-446.23C971,-437.16 971,-425.16 971,-414.58"/>
<polygon fill="midnightblue" stroke="midnightblue" points="974.5,-414.25 971,-404.25 967.5,-414.25 974.5,-414.25"/>
</g>
<!-- Node29 -->
<g id="node29" class="node">
<title>Node29</title>
<g id="a_node29"><a xlink:title=" ">
<polygon fill="white" stroke="#bfbfbf" points="1074.5,-368.5 1074.5,-409.5 1235.5,-409.5 1235.5,-368.5 1074.5,-368.5"/>
<text text-anchor="start" x="1082.5" y="-397.5" font-family="Helvetica,sans-Serif" font-size="10.00">packages/marchingprimitives</text>
<text text-anchor="start" x="1082.5" y="-386.5" font-family="Helvetica,sans-Serif" font-size="10.00">/impl/MarchingPrimitives</text>
<text text-anchor="middle" x="1155" y="-375.5" font-family="Helvetica,sans-Serif" font-size="10.00">_impl.hpp</text>
</a>
</g>
</g>
<!-- Node19&#45;&gt;Node29 -->
<g id="edge53" class="edge">
<title>Node19&#45;&gt;Node29</title>
<path fill="none" stroke="midnightblue" d="M1007.79,-446.4C1032.57,-436.91 1065.83,-424.16 1094.47,-413.19"/>
<polygon fill="midnightblue" stroke="midnightblue" points="1095.9,-416.39 1103.99,-409.55 1093.4,-409.86 1095.9,-416.39"/>
</g>
<!-- Node20&#45;&gt;Node5 -->
<g id="edge36" class="edge">
<title>Node20&#45;&gt;Node5</title>
<path fill="none" stroke="midnightblue" d="M924.49,-373.95C888.28,-362.89 836.8,-346.91 792,-332 738.78,-314.29 726.23,-307.68 673,-290 638.06,-278.39 598.63,-266.08 567.41,-256.52"/>
<polygon fill="midnightblue" stroke="midnightblue" points="568.17,-253.09 557.58,-253.52 566.12,-259.79 568.17,-253.09"/>
</g>
<!-- Node20&#45;&gt;Node7 -->
<g id="edge37" class="edge">
<title>Node20&#45;&gt;Node7</title>
<path fill="none" stroke="midnightblue" d="M919.11,-373.99C891.09,-364.86 856.85,-351.06 830,-332 773.54,-291.91 724.84,-225.02 701.58,-189.99"/>
<polygon fill="midnightblue" stroke="midnightblue" points="704.37,-187.86 695.96,-181.4 698.51,-191.69 704.37,-187.86"/>
</g>
<!-- Node20&#45;&gt;Node9 -->
<g id="edge38" class="edge">
<title>Node20&#45;&gt;Node9</title>
<path fill="none" stroke="midnightblue" d="M945.79,-373.89C931.22,-364.2 914.19,-349.87 906,-332 873.14,-260.32 889.37,-163.2 899.69,-118.65"/>
<polygon fill="midnightblue" stroke="midnightblue" points="903.14,-119.29 902.09,-108.74 896.33,-117.64 903.14,-119.29"/>
</g>
<!-- Node20&#45;&gt;Node10 -->
<g id="edge35" class="edge">
<title>Node20&#45;&gt;Node10</title>
<path fill="none" stroke="midnightblue" d="M1031.08,-373.99C1042.62,-371.69 1054.64,-369.55 1066,-368 1128.11,-359.52 1581.71,-373.15 1629,-332 1660.66,-304.45 1648,-281.47 1648,-239.5 1648,-239.5 1648,-239.5 1648,-165 1648,-98.61 1446.65,-53.86 1332.93,-33.89"/>
<polygon fill="midnightblue" stroke="midnightblue" points="1333.34,-30.41 1322.89,-32.15 1332.14,-37.3 1333.34,-30.41"/>
</g>
<!-- Node20&#45;&gt;Node12 -->
<g id="edge49" class="edge">
<title>Node20&#45;&gt;Node12</title>
<path fill="none" stroke="midnightblue" d="M943.01,-373.78C925.56,-363.87 903.55,-349.34 888,-332 825.34,-262.1 783.89,-155.13 769.07,-112.73"/>
<polygon fill="midnightblue" stroke="midnightblue" points="772.36,-111.52 765.81,-103.19 765.73,-113.78 772.36,-111.52"/>
</g>
<!-- Node20&#45;&gt;Node14 -->
<g id="edge39" class="edge">
<title>Node20&#45;&gt;Node14</title>
<path fill="none" stroke="midnightblue" d="M885.74,-378.38C798.65,-368.22 659.6,-351.04 540,-332 527.6,-330.03 514.42,-327.71 501.72,-325.37"/>
<polygon fill="midnightblue" stroke="midnightblue" points="502.13,-321.89 491.66,-323.5 500.85,-328.77 502.13,-321.89"/>
</g>
<!-- Node21 -->
<g id="node21" class="node">
<title>Node21</title>
<g id="a_node21"><a target="_parent" xlink:href="../../../cieutils/docs/html/MarchingContainer_8hpp.html.html" xlink:title=" ">
<polygon fill="white" stroke="black" points="947.5,-296 947.5,-326 1096.5,-326 1096.5,-296 947.5,-296"/>
<text text-anchor="start" x="955.5" y="-314" font-family="Helvetica,sans-Serif" font-size="10.00">packages/stl_extension</text>
<text text-anchor="middle" x="1022" y="-303" font-family="Helvetica,sans-Serif" font-size="10.00">/inc/MarchingContainer.hpp</text>
</a>
</g>
</g>
<!-- Node20&#45;&gt;Node21 -->
<g id="edge33" class="edge">
<title>Node20&#45;&gt;Node21</title>
<path fill="none" stroke="midnightblue" d="M980.59,-373.7C987.93,-362.77 998.19,-347.48 1006.66,-334.85"/>
<polygon fill="midnightblue" stroke="midnightblue" points="1009.78,-336.48 1012.45,-326.23 1003.97,-332.58 1009.78,-336.48"/>
</g>
<!-- Node22 -->
<g id="node22" class="node">
<title>Node22</title>
<g id="a_node22"><a target="_parent" xlink:href="../../../cieutils/docs/html/ThreadPool_8hpp.html.html" xlink:title=" ">
<polygon fill="white" stroke="black" points="1114.5,-296 1114.5,-326 1239.5,-326 1239.5,-296 1114.5,-296"/>
<text text-anchor="start" x="1122.5" y="-314" font-family="Helvetica,sans-Serif" font-size="10.00">packages/concurrency</text>
<text text-anchor="middle" x="1177" y="-303" font-family="Helvetica,sans-Serif" font-size="10.00">/inc/ThreadPool.hpp</text>
</a>
</g>
</g>
<!-- Node20&#45;&gt;Node22 -->
<g id="edge34" class="edge">
<title>Node20&#45;&gt;Node22</title>
<path fill="none" stroke="midnightblue" d="M1009.26,-373.88C1043.23,-361.35 1092.99,-342.99 1129.49,-329.53"/>
<polygon fill="midnightblue" stroke="midnightblue" points="1130.77,-332.79 1138.94,-326.04 1128.35,-326.22 1130.77,-332.79"/>
</g>
<!-- Node23 -->
<g id="node23" class="node">
<title>Node23</title>
<g id="a_node23"><a xlink:href="connectivitytables_8hpp.html" target="_top" xlink:title=" ">
<polygon fill="white" stroke="black" points="1020.5,-78.5 1020.5,-108.5 1181.5,-108.5 1181.5,-78.5 1020.5,-78.5"/>
<text text-anchor="start" x="1028.5" y="-96.5" font-family="Helvetica,sans-Serif" font-size="10.00">packages/marchingprimitives</text>
<text text-anchor="middle" x="1101" y="-85.5" font-family="Helvetica,sans-Serif" font-size="10.00">/inc/connectivitytables.hpp</text>
</a>
</g>
</g>
<!-- Node20&#45;&gt;Node23 -->
<g id="edge40" class="edge">
<title>Node20&#45;&gt;Node23</title>
<path fill="none" stroke="midnightblue" d="M960.04,-373.72C952.48,-362.92 943.08,-347.37 939,-332 934.21,-313.96 932.67,-307.56 939,-290 966.17,-214.63 1036.42,-147.74 1074.88,-115.28"/>
<polygon fill="midnightblue" stroke="midnightblue" points="1077.57,-117.59 1083.03,-108.51 1073.1,-112.21 1077.57,-117.59"/>
</g>
<!-- Node25 -->
<g id="node25" class="node">
<title>Node25</title>
<g id="a_node25"><a xlink:href="MeshTraits_8hpp.html" target="_top" xlink:title=" ">
<polygon fill="white" stroke="black" points="1258,-296 1258,-326 1366,-326 1366,-296 1258,-296"/>
<text text-anchor="start" x="1266" y="-314" font-family="Helvetica,sans-Serif" font-size="10.00">packages/traits/inc</text>
<text text-anchor="middle" x="1312" y="-303" font-family="Helvetica,sans-Serif" font-size="10.00">/MeshTraits.hpp</text>
</a>
</g>
</g>
<!-- Node20&#45;&gt;Node25 -->
<g id="edge44" class="edge">
<title>Node20&#45;&gt;Node25</title>
<path fill="none" stroke="midnightblue" d="M1037.16,-373.95C1046.83,-371.94 1056.67,-369.9 1066,-368 1147.23,-351.46 1168.7,-352.57 1249,-332 1252.77,-331.03 1256.65,-329.97 1260.53,-328.86"/>
<polygon fill="midnightblue" stroke="midnightblue" points="1261.58,-332.2 1270.17,-326.01 1259.59,-325.49 1261.58,-332.2"/>
</g>
<!-- Node20&#45;&gt;Node26 -->
<g id="edge50" class="edge">
<title>Node20&#45;&gt;Node26</title>
<path fill="none" stroke="midnightblue" d="M1031.08,-373.96C1042.61,-371.66 1054.64,-369.53 1066,-368 1131.75,-359.14 1608.21,-370.83 1662,-332 1685.76,-314.84 1694.28,-279.87 1697.32,-258.18"/>
<polygon fill="midnightblue" stroke="midnightblue" points="1700.8,-258.55 1698.46,-248.22 1693.85,-257.75 1700.8,-258.55"/>
</g>
<!-- Node27 -->
<g id="node27" class="node">
<title>Node27</title>
<g id="a_node27"><a xlink:title=" ">
<polygon fill="white" stroke="#bfbfbf" points="1384,-301.5 1384,-320.5 1440,-320.5 1440,-301.5 1384,-301.5"/>
<text text-anchor="middle" x="1412" y="-308.5" font-family="Helvetica,sans-Serif" font-size="10.00">optional</text>
</a>
</g>
</g>
<!-- Node20&#45;&gt;Node27 -->
<g id="edge51" class="edge">
<title>Node20&#45;&gt;Node27</title>
<path fill="none" stroke="midnightblue" d="M1033.7,-373.95C1044.45,-371.79 1055.52,-369.71 1066,-368 1202.46,-345.73 1243.15,-373.62 1375,-332 1379.96,-330.43 1385.03,-328.19 1389.75,-325.77"/>
<polygon fill="midnightblue" stroke="midnightblue" points="1391.81,-328.63 1398.84,-320.7 1388.4,-322.51 1391.81,-328.63"/>
</g>
<!-- Node28 -->
<g id="node28" class="node">
<title>Node28</title>
<g id="a_node28"><a xlink:title=" ">
<polygon fill="white" stroke="#bfbfbf" points="1458.5,-290.5 1458.5,-331.5 1619.5,-331.5 1619.5,-290.5 1458.5,-290.5"/>
<text text-anchor="start" x="1466.5" y="-319.5" font-family="Helvetica,sans-Serif" font-size="10.00">packages/marchingprimitives</text>
<text text-anchor="start" x="1466.5" y="-308.5" font-family="Helvetica,sans-Serif" font-size="10.00">/impl/AbsMarchingPrimitives</text>
<text text-anchor="middle" x="1539" y="-297.5" font-family="Helvetica,sans-Serif" font-size="10.00">_impl.hpp</text>
</a>
</g>
</g>
<!-- Node20&#45;&gt;Node28 -->
<g id="edge52" class="edge">
<title>Node20&#45;&gt;Node28</title>
<path fill="none" stroke="midnightblue" d="M1032.65,-373.96C1043.71,-371.74 1055.17,-369.64 1066,-368 1231.82,-342.84 1278.35,-357.99 1448.11,-332.03"/>
<polygon fill="midnightblue" stroke="midnightblue" points="1448.79,-335.46 1458.14,-330.47 1447.72,-328.55 1448.79,-335.46"/>
</g>
<!-- Node23&#45;&gt;Node8 -->
<g id="edge41" class="edge">
<title>Node23&#45;&gt;Node8</title>
<path fill="none" stroke="midnightblue" d="M1062.01,-78.4C1031.05,-67.21 987.61,-51.51 954.43,-39.51"/>
<polygon fill="midnightblue" stroke="midnightblue" points="955.52,-36.18 944.92,-36.07 953.14,-42.76 955.52,-36.18"/>
</g>
<!-- Node23&#45;&gt;Node10 -->
<g id="edge43" class="edge">
<title>Node23&#45;&gt;Node10</title>
<path fill="none" stroke="midnightblue" d="M1132.19,-78.4C1156.43,-67.45 1190.22,-52.18 1216.54,-40.29"/>
<polygon fill="midnightblue" stroke="midnightblue" points="1218.19,-43.38 1225.86,-36.07 1215.31,-37 1218.19,-43.38"/>
</g>
<!-- Node24 -->
<g id="node24" class="node">
<title>Node24</title>
<g id="a_node24"><a target="_parent" xlink:href="../../../cieutils/docs/html/DynamicArray_8hpp.html.html" xlink:title=" ">
<polygon fill="white" stroke="black" points="1035.5,-6 1035.5,-36 1166.5,-36 1166.5,-6 1035.5,-6"/>
<text text-anchor="start" x="1043.5" y="-24" font-family="Helvetica,sans-Serif" font-size="10.00">packages/stl_extension</text>
<text text-anchor="middle" x="1101" y="-13" font-family="Helvetica,sans-Serif" font-size="10.00">/inc/DynamicArray.hpp</text>
</a>
</g>
</g>
<!-- Node23&#45;&gt;Node24 -->
<g id="edge42" class="edge">
<title>Node23&#45;&gt;Node24</title>
<path fill="none" stroke="midnightblue" d="M1101,-78.23C1101,-69.16 1101,-57.16 1101,-46.58"/>
<polygon fill="midnightblue" stroke="midnightblue" points="1104.5,-46.25 1101,-36.25 1097.5,-46.25 1104.5,-46.25"/>
</g>
<!-- Node25&#45;&gt;Node9 -->
<g id="edge45" class="edge">
<title>Node25&#45;&gt;Node9</title>
<path fill="none" stroke="midnightblue" d="M1271.28,-295.93C1263.92,-293.72 1256.28,-291.63 1249,-290 1189.71,-276.76 1026.75,-290.25 978,-254 933.81,-221.14 916.1,-154.86 909.53,-118.95"/>
<polygon fill="midnightblue" stroke="midnightblue" points="912.94,-118.13 907.83,-108.85 906.04,-119.29 912.94,-118.13"/>
</g>
<!-- Node25&#45;&gt;Node10 -->
<g id="edge46" class="edge">
<title>Node25&#45;&gt;Node10</title>
<path fill="none" stroke="midnightblue" d="M1309.27,-295.72C1300.46,-249.55 1272.65,-103.96 1261.6,-46.08"/>
<polygon fill="midnightblue" stroke="midnightblue" points="1264.99,-45.19 1259.68,-36.03 1258.12,-46.51 1264.99,-45.19"/>
</g>
<!-- Node25&#45;&gt;Node11 -->
<g id="edge47" class="edge">
<title>Node25&#45;&gt;Node11</title>
<path fill="none" stroke="midnightblue" d="M1289.75,-295.97C1239.4,-264.04 1113.24,-182.97 1012,-109 994.12,-95.94 992.9,-87.71 973,-78 954.88,-69.16 830.59,-41.6 771.32,-28.73"/>
<polygon fill="midnightblue" stroke="midnightblue" points="771.89,-25.28 761.38,-26.58 770.41,-32.12 771.89,-25.28"/>
</g>
<!-- Node25&#45;&gt;Node26 -->
<g id="edge48" class="edge">
<title>Node25&#45;&gt;Node26</title>
<path fill="none" stroke="midnightblue" d="M1353.09,-295.96C1360.34,-293.77 1367.85,-291.68 1375,-290 1480.12,-265.27 1607.35,-249.46 1666.21,-242.93"/>
<polygon fill="midnightblue" stroke="midnightblue" points="1666.82,-246.39 1676.38,-241.82 1666.06,-239.43 1666.82,-246.39"/>
</g>
</g>
</svg>
        <g id="navigator" transform="translate(0 0)" fill="#404254">
                <rect fill="#f2f5e9" fill-opacity="0.5" stroke="#606060" stroke-width=".5" x="0" y="0" width="60" height="60"/>
                <use id="zoomplus" xlink:href="#zoomPlus" x="17" y="9" onmousedown="handleZoom(evt,'in')"/>
                <use id="zoomminus" xlink:href="#zoomMin" x="42" y="9" onmousedown="handleZoom(evt,'out')"/>
                <use id="reset" xlink:href="#resetDef" x="30" y="36" onmousedown="handleReset()"/>
                <g id="arrowUp" xlink:href="#dirArrow" transform="translate(30 24)" onmousedown="handlePan(0,-1)">
                  <use xlink:href="#rim" fill="#404040">
                        <set attributeName="fill" to="#808080" begin="arrowUp.mouseover" end="arrowUp.mouseout"/>
                  </use>
                  <path fill="none" stroke="white" stroke-width="1.5" d="M0,-3.0v7 M-2.5,-0.5L0,-3.0L2.5,-0.5"/>
                </g>
                <g id="arrowRight" xlink:href="#dirArrow" transform="rotate(90) translate(36 -43)" onmousedown="handlePan(1,0)">
                  <use xlink:href="#rim" fill="#404040">
                        <set attributeName="fill" to="#808080" begin="arrowRight.mouseover" end="arrowRight.mouseout"/>
                  </use>
                  <path fill="none" stroke="white" stroke-width="1.5" d="M0,-3.0v7 M-2.5,-0.5L0,-3.0L2.5,-0.5"/>
                </g>
                <g id="arrowDown" xlink:href="#dirArrow" transform="rotate(180) translate(-30 -48)" onmousedown="handlePan(0,1)">
                  <use xlink:href="#rim" fill="#404040">
                        <set attributeName="fill" to="#808080" begin="arrowDown.mouseover" end="arrowDown.mouseout"/>
                  </use>
                  <path fill="none" stroke="white" stroke-width="1.5" d="M0,-3.0v7 M-2.5,-0.5L0,-3.0L2.5,-0.5"/>
                </g>
                <g id="arrowLeft" xlink:href="#dirArrow" transform="rotate(270) translate(-36 17)" onmousedown="handlePan(-1,0)">
                  <use xlink:href="#rim" fill="#404040">
                        <set attributeName="fill" to="#808080" begin="arrowLeft.mouseover" end="arrowLeft.mouseout"/>
                  </use>
                  <path fill="none" stroke="white" stroke-width="1.5" d="M0,-3.0v7 M-2.5,-0.5L0,-3.0L2.5,-0.5"/>
                </g>
        </g>
        <svg viewBox="0 0 15 15" width="100%" height="30px" preserveAspectRatio="xMaxYMin meet">
         <g id="arrow_out" transform="scale(0.3 0.3)">
          <a xlink:href="MarchingCubes_8hpp__incl_org.svg" target="_base">
           <rect id="button" ry="5" rx="5" y="6" x="6" height="38" width="38"
                fill="#f2f5e9" fill-opacity="0.5" stroke="#606060" stroke-width="1.0"/>
           <path id="arrow"
             d="M 11.500037,31.436501 C 11.940474,20.09759 22.043105,11.32322 32.158766,21.979434 L 37.068811,17.246167 C 37.068811,17.246167 37.088388,32 37.088388,32 L 22.160133,31.978069 C 22.160133,31.978069 26.997745,27.140456 26.997745,27.140456 C 18.528582,18.264221 13.291696,25.230495 11.500037,31.436501 z"
             style="fill:#404040;"/>
          </a>
         </g>
        </svg>
</svg>
