<?xml version="1.0" encoding="UTF-8" standalone="no"?>
<!DOCTYPE svg PUBLIC "-//W3C//DTD SVG 1.1//EN"
 "http://www.w3.org/Graphics/SVG/1.1/DTD/svg11.dtd">
<!-- Generated by graphviz version 2.43.0 (0)
 -->
<!-- Title: MarchingPrimitives.hpp Pages: 1 -->
<svg width="1274pt" height="474pt"
 viewBox="0.00 0.00 1274.00 474.00" xmlns="http://www.w3.org/2000/svg" xmlns:xlink="http://www.w3.org/1999/xlink">
<g id="graph0" class="graph" transform="scale(1 1) rotate(0) translate(4 470)">
<title>MarchingPrimitives.hpp</title>
<polygon fill="white" stroke="transparent" points="-4,4 -4,-470 1270,-470 1270,4 -4,4"/>
<!-- Node1 -->
<g id="node1" class="node">
<title>Node1</title>
<g id="a_node1"><a xlink:title=" ">
<polygon fill="#bfbfbf" stroke="black" points="665.5,-446.5 665.5,-465.5 797.5,-465.5 797.5,-446.5 665.5,-446.5"/>
<text text-anchor="middle" x="731.5" y="-453.5" font-family="Helvetica,sans-Serif" font-size="10.00">MarchingPrimitives.hpp</text>
</a>
</g>
</g>
<!-- Node2 -->
<g id="node2" class="node">
<title>Node2</title>
<g id="a_node2"><a xlink:href="AbsMarchingPrimitives_8hpp.html" target="_top" xlink:title=" ">
<polygon fill="white" stroke="black" points="554.5,-374 554.5,-404 724.5,-404 724.5,-374 554.5,-374"/>
<text text-anchor="start" x="562.5" y="-392" font-family="Helvetica,sans-Serif" font-size="10.00">packages/marchingprimitives</text>
<text text-anchor="middle" x="639.5" y="-381" font-family="Helvetica,sans-Serif" font-size="10.00">/inc/AbsMarchingPrimitives.hpp</text>
</a>
</g>
</g>
<!-- Node1&#45;&gt;Node2 -->
<g id="edge1" class="edge">
<title>Node1&#45;&gt;Node2</title>
<path fill="none" stroke="midnightblue" d="M719.09,-446.23C706.06,-437.03 685.12,-422.23 667.99,-410.13"/>
<polygon fill="midnightblue" stroke="midnightblue" points="669.63,-407 659.44,-404.09 665.59,-412.72 669.63,-407"/>
</g>
<!-- Node23 -->
<g id="node23" class="node">
<title>Node23</title>
<g id="a_node23"><a xlink:title=" ">
<polygon fill="white" stroke="#bfbfbf" points="743,-368.5 743,-409.5 904,-409.5 904,-368.5 743,-368.5"/>
<text text-anchor="start" x="751" y="-397.5" font-family="Helvetica,sans-Serif" font-size="10.00">packages/marchingprimitives</text>
<text text-anchor="start" x="751" y="-386.5" font-family="Helvetica,sans-Serif" font-size="10.00">/impl/MarchingPrimitives</text>
<text text-anchor="middle" x="823.5" y="-375.5" font-family="Helvetica,sans-Serif" font-size="10.00">_impl.hpp</text>
</a>
</g>
</g>
<!-- Node1&#45;&gt;Node23 -->
<g id="edge37" class="edge">
<title>Node1&#45;&gt;Node23</title>
<path fill="none" stroke="midnightblue" d="M743.91,-446.23C755.08,-438.34 772.07,-426.34 787.48,-415.45"/>
<polygon fill="midnightblue" stroke="midnightblue" points="789.69,-418.17 795.84,-409.54 785.65,-412.45 789.69,-418.17"/>
</g>
<!-- Node3 -->
<g id="node3" class="node">
<title>Node3</title>
<g id="a_node3"><a target="_parent" xlink:href="../../../cieutils/docs/html/MarchingContainer_8hpp.html.html" xlink:title=" ">
<polygon fill="white" stroke="black" points="0,-296 0,-326 149,-326 149,-296 0,-296"/>
<text text-anchor="start" x="8" y="-314" font-family="Helvetica,sans-Serif" font-size="10.00">packages/stl_extension</text>
<text text-anchor="middle" x="74.5" y="-303" font-family="Helvetica,sans-Serif" font-size="10.00">/inc/MarchingContainer.hpp</text>
</a>
</g>
</g>
<!-- Node2&#45;&gt;Node3 -->
<g id="edge2" class="edge">
<title>Node2&#45;&gt;Node3</title>
<path fill="none" stroke="midnightblue" d="M554.16,-381.22C457.46,-372.82 295.39,-356.53 157.5,-332 151.37,-330.91 145.02,-329.64 138.68,-328.28"/>
<polygon fill="midnightblue" stroke="midnightblue" points="139.29,-324.83 128.77,-326.07 137.77,-331.66 139.29,-324.83"/>
</g>
<!-- Node4 -->
<g id="node4" class="node">
<title>Node4</title>
<g id="a_node4"><a target="_parent" xlink:href="../../../cieutils/docs/html/ThreadPool_8hpp.html.html" xlink:title=" ">
<polygon fill="white" stroke="black" points="167,-296 167,-326 292,-326 292,-296 167,-296"/>
<text text-anchor="start" x="175" y="-314" font-family="Helvetica,sans-Serif" font-size="10.00">packages/concurrency</text>
<text text-anchor="middle" x="229.5" y="-303" font-family="Helvetica,sans-Serif" font-size="10.00">/inc/ThreadPool.hpp</text>
</a>
</g>
</g>
<!-- Node2&#45;&gt;Node4 -->
<g id="edge3" class="edge">
<title>Node2&#45;&gt;Node4</title>
<path fill="none" stroke="midnightblue" d="M554.36,-376.61C485.5,-366.75 386.24,-351.1 300.5,-332 295.9,-330.98 291.15,-329.83 286.4,-328.62"/>
<polygon fill="midnightblue" stroke="midnightblue" points="287.23,-325.22 276.67,-326.08 285.46,-332 287.23,-325.22"/>
</g>
<!-- Node5 -->
<g id="node5" class="node">
<title>Node5</title>
<g id="a_node5"><a target="_parent" xlink:href="../../../cieutils/docs/html/StaticArray_8hpp.html.html" xlink:title=" ">
<polygon fill="white" stroke="black" points="675,-6 675,-36 806,-36 806,-6 675,-6"/>
<text text-anchor="start" x="683" y="-24" font-family="Helvetica,sans-Serif" font-size="10.00">packages/stl_extension</text>
<text text-anchor="middle" x="740.5" y="-13" font-family="Helvetica,sans-Serif" font-size="10.00">/inc/StaticArray.hpp</text>
</a>
</g>
</g>
<!-- Node2&#45;&gt;Node5 -->
<g id="edge4" class="edge">
<title>Node2&#45;&gt;Node5</title>
<path fill="none" stroke="midnightblue" d="M686.58,-373.89C784.8,-343.78 1002.5,-273.25 1002.5,-239.5 1002.5,-239.5 1002.5,-239.5 1002.5,-165 1002.5,-125.42 1011.47,-106 983.5,-78 930.76,-25.2 892.12,-59.16 819.5,-42 814.84,-40.9 810.03,-39.74 805.2,-38.56"/>
<polygon fill="midnightblue" stroke="midnightblue" points="805.81,-35.1 795.27,-36.11 804.14,-41.9 805.81,-35.1"/>
</g>
<!-- Node6 -->
<g id="node6" class="node">
<title>Node6</title>
<g id="a_node6"><a xlink:href="Primitive_8hpp.html" target="_top" xlink:title=" ">
<polygon fill="white" stroke="black" points="458,-223.5 458,-253.5 573,-253.5 573,-223.5 458,-223.5"/>
<text text-anchor="start" x="466" y="-241.5" font-family="Helvetica,sans-Serif" font-size="10.00">packages/primitives</text>
<text text-anchor="middle" x="515.5" y="-230.5" font-family="Helvetica,sans-Serif" font-size="10.00">/inc/Primitive.hpp</text>
</a>
</g>
</g>
<!-- Node2&#45;&gt;Node6 -->
<g id="edge5" class="edge">
<title>Node2&#45;&gt;Node6</title>
<path fill="none" stroke="midnightblue" d="M625.46,-373.58C614.78,-362.45 599.88,-346.55 587.5,-332 567.6,-308.61 546.15,-280.66 531.88,-261.65"/>
<polygon fill="midnightblue" stroke="midnightblue" points="534.65,-259.51 525.87,-253.59 529.05,-263.7 534.65,-259.51"/>
</g>
<!-- Node8 -->
<g id="node8" class="node">
<title>Node8</title>
<g id="a_node8"><a xlink:href="Object_8hpp.html" target="_top" xlink:title=" ">
<polygon fill="white" stroke="black" points="308,-151 308,-181 423,-181 423,-151 308,-151"/>
<text text-anchor="start" x="316" y="-169" font-family="Helvetica,sans-Serif" font-size="10.00">packages/primitives</text>
<text text-anchor="middle" x="365.5" y="-158" font-family="Helvetica,sans-Serif" font-size="10.00">/inc/Object.hpp</text>
</a>
</g>
</g>
<!-- Node2&#45;&gt;Node8 -->
<g id="edge19" class="edge">
<title>Node2&#45;&gt;Node8</title>
<path fill="none" stroke="midnightblue" d="M616.37,-374C598.43,-362.96 573.06,-346.99 551.5,-332 504.35,-299.23 491.35,-292.23 448.5,-254 425.27,-233.27 400.93,-207.16 384.66,-188.98"/>
<polygon fill="midnightblue" stroke="midnightblue" points="387.05,-186.39 377.79,-181.23 381.81,-191.04 387.05,-186.39"/>
</g>
<!-- Node12 -->
<g id="node12" class="node">
<title>Node12</title>
<g id="a_node12"><a xlink:href="Traits_8hpp.html" target="_top" xlink:title=" ">
<polygon fill="white" stroke="black" points="540,-78.5 540,-108.5 655,-108.5 655,-78.5 540,-78.5"/>
<text text-anchor="start" x="548" y="-96.5" font-family="Helvetica,sans-Serif" font-size="10.00">packages/primitives</text>
<text text-anchor="middle" x="597.5" y="-85.5" font-family="Helvetica,sans-Serif" font-size="10.00">/inc/Traits.hpp</text>
</a>
</g>
</g>
<!-- Node2&#45;&gt;Node12 -->
<g id="edge20" class="edge">
<title>Node2&#45;&gt;Node12</title>
<path fill="none" stroke="midnightblue" d="M639.3,-373.84C638.52,-336.15 634.64,-230.42 615.5,-145 613.5,-136.09 610.39,-126.59 607.32,-118.27"/>
<polygon fill="midnightblue" stroke="midnightblue" points="610.53,-116.87 603.66,-108.81 604,-119.4 610.53,-116.87"/>
</g>
<!-- Node14 -->
<g id="node14" class="node">
<title>Node14</title>
<g id="a_node14"><a xlink:title=" ">
<polygon fill="white" stroke="#bfbfbf" points="463.5,-84 463.5,-103 521.5,-103 521.5,-84 463.5,-84"/>
<text text-anchor="middle" x="492.5" y="-91" font-family="Helvetica,sans-Serif" font-size="10.00">memory</text>
</a>
</g>
</g>
<!-- Node2&#45;&gt;Node14 -->
<g id="edge33" class="edge">
<title>Node2&#45;&gt;Node14</title>
<path fill="none" stroke="midnightblue" d="M637.69,-373.84C631.58,-327.64 610.44,-182.14 582.5,-145 574.31,-134.11 544.1,-118.34 520.92,-107.33"/>
<polygon fill="midnightblue" stroke="midnightblue" points="522.35,-104.14 511.81,-103.08 519.39,-110.48 522.35,-104.14"/>
</g>
<!-- Node16 -->
<g id="node16" class="node">
<title>Node16</title>
<g id="a_node16"><a xlink:href="primitives_2inc_2concepts_8hpp.html" target="_top" xlink:title=" ">
<polygon fill="white" stroke="black" points="310,-296 310,-326 425,-326 425,-296 310,-296"/>
<text text-anchor="start" x="318" y="-314" font-family="Helvetica,sans-Serif" font-size="10.00">packages/primitives</text>
<text text-anchor="middle" x="367.5" y="-303" font-family="Helvetica,sans-Serif" font-size="10.00">/inc/concepts.hpp</text>
</a>
</g>
</g>
<!-- Node2&#45;&gt;Node16 -->
<g id="edge21" class="edge">
<title>Node2&#45;&gt;Node16</title>
<path fill="none" stroke="midnightblue" d="M589.29,-373.97C543.63,-361.21 476.15,-342.36 427.62,-328.8"/>
<polygon fill="midnightblue" stroke="midnightblue" points="428.45,-325.4 417.87,-326.07 426.56,-332.14 428.45,-325.4"/>
</g>
<!-- Node17 -->
<g id="node17" class="node">
<title>Node17</title>
<g id="a_node17"><a xlink:href="connectivitytables_8hpp.html" target="_top" xlink:title=" ">
<polygon fill="white" stroke="black" points="813,-78.5 813,-108.5 974,-108.5 974,-78.5 813,-78.5"/>
<text text-anchor="start" x="821" y="-96.5" font-family="Helvetica,sans-Serif" font-size="10.00">packages/marchingprimitives</text>
<text text-anchor="middle" x="893.5" y="-85.5" font-family="Helvetica,sans-Serif" font-size="10.00">/inc/connectivitytables.hpp</text>
</a>
</g>
</g>
<!-- Node2&#45;&gt;Node17 -->
<g id="edge24" class="edge">
<title>Node2&#45;&gt;Node17</title>
<path fill="none" stroke="midnightblue" d="M666.57,-373.92C684.52,-363.77 707.91,-348.92 725.5,-332 796.02,-264.14 856.04,-162.93 881.05,-117.74"/>
<polygon fill="midnightblue" stroke="midnightblue" points="884.25,-119.19 885.98,-108.74 878.11,-115.83 884.25,-119.19"/>
</g>
<!-- Node19 -->
<g id="node19" class="node">
<title>Node19</title>
<g id="a_node19"><a xlink:href="MeshTraits_8hpp.html" target="_top" xlink:title=" ">
<polygon fill="white" stroke="black" points="667.5,-151 667.5,-181 775.5,-181 775.5,-151 667.5,-151"/>
<text text-anchor="start" x="675.5" y="-169" font-family="Helvetica,sans-Serif" font-size="10.00">packages/traits/inc</text>
<text text-anchor="middle" x="721.5" y="-158" font-family="Helvetica,sans-Serif" font-size="10.00">/MeshTraits.hpp</text>
</a>
</g>
</g>
<!-- Node2&#45;&gt;Node19 -->
<g id="edge28" class="edge">
<title>Node2&#45;&gt;Node19</title>
<path fill="none" stroke="midnightblue" d="M644.75,-373.84C658.52,-336.73 695.76,-236.36 712.79,-190.47"/>
<polygon fill="midnightblue" stroke="midnightblue" points="716.09,-191.64 716.29,-181.04 709.53,-189.2 716.09,-191.64"/>
</g>
<!-- Node20 -->
<g id="node20" class="node">
<title>Node20</title>
<g id="a_node20"><a xlink:title=" ">
<polygon fill="white" stroke="#bfbfbf" points="750,-84 750,-103 795,-103 795,-84 750,-84"/>
<text text-anchor="middle" x="772.5" y="-91" font-family="Helvetica,sans-Serif" font-size="10.00">utility</text>
</a>
</g>
</g>
<!-- Node2&#45;&gt;Node20 -->
<g id="edge34" class="edge">
<title>Node2&#45;&gt;Node20</title>
<path fill="none" stroke="midnightblue" d="M654.98,-373.77C686.84,-343.28 758.92,-267.81 784.5,-187 792.42,-161.98 785.5,-131.56 779.36,-112.61"/>
<polygon fill="midnightblue" stroke="midnightblue" points="782.65,-111.41 776.04,-103.14 776.04,-113.73 782.65,-111.41"/>
</g>
<!-- Node21 -->
<g id="node21" class="node">
<title>Node21</title>
<g id="a_node21"><a xlink:title=" ">
<polygon fill="white" stroke="#bfbfbf" points="1030.5,-301.5 1030.5,-320.5 1086.5,-320.5 1086.5,-301.5 1030.5,-301.5"/>
<text text-anchor="middle" x="1058.5" y="-308.5" font-family="Helvetica,sans-Serif" font-size="10.00">optional</text>
</a>
</g>
</g>
<!-- Node2&#45;&gt;Node21 -->
<g id="edge35" class="edge">
<title>Node2&#45;&gt;Node21</title>
<path fill="none" stroke="midnightblue" d="M702.47,-374C713.14,-371.84 724.11,-369.75 734.5,-368 859.09,-346.97 895.27,-367.61 1016.5,-332 1022.46,-330.25 1028.62,-327.75 1034.34,-325.1"/>
<polygon fill="midnightblue" stroke="midnightblue" points="1035.99,-328.19 1043.41,-320.62 1032.89,-321.91 1035.99,-328.19"/>
</g>
<!-- Node22 -->
<g id="node22" class="node">
<title>Node22</title>
<g id="a_node22"><a xlink:title=" ">
<polygon fill="white" stroke="#bfbfbf" points="1105,-290.5 1105,-331.5 1266,-331.5 1266,-290.5 1105,-290.5"/>
<text text-anchor="start" x="1113" y="-319.5" font-family="Helvetica,sans-Serif" font-size="10.00">packages/marchingprimitives</text>
<text text-anchor="start" x="1113" y="-308.5" font-family="Helvetica,sans-Serif" font-size="10.00">/impl/AbsMarchingPrimitives</text>
<text text-anchor="middle" x="1185.5" y="-297.5" font-family="Helvetica,sans-Serif" font-size="10.00">_impl.hpp</text>
</a>
</g>
</g>
<!-- Node2&#45;&gt;Node22 -->
<g id="edge36" class="edge">
<title>Node2&#45;&gt;Node22</title>
<path fill="none" stroke="midnightblue" d="M701.41,-373.96C712.4,-371.76 723.76,-369.66 734.5,-368 890.58,-343.86 934.5,-356.97 1094.43,-332.06"/>
<polygon fill="midnightblue" stroke="midnightblue" points="1095.3,-335.47 1104.63,-330.45 1094.21,-328.55 1095.3,-335.47"/>
</g>
<!-- Node7 -->
<g id="node7" class="node">
<title>Node7</title>
<g id="a_node7"><a target="_parent" xlink:href="../../../cieutils/docs/html/basic__concepts_8hpp.html.html" xlink:title=" ">
<polygon fill="white" stroke="black" points="441.5,-145.5 441.5,-186.5 573.5,-186.5 573.5,-145.5 441.5,-145.5"/>
<text text-anchor="start" x="449.5" y="-174.5" font-family="Helvetica,sans-Serif" font-size="10.00">packages/compile_time</text>
<text text-anchor="start" x="449.5" y="-163.5" font-family="Helvetica,sans-Serif" font-size="10.00">/packages/concepts/inc</text>
<text text-anchor="middle" x="507.5" y="-152.5" font-family="Helvetica,sans-Serif" font-size="10.00">/basic_concepts.hpp</text>
</a>
</g>
</g>
<!-- Node6&#45;&gt;Node7 -->
<g id="edge6" class="edge">
<title>Node6&#45;&gt;Node7</title>
<path fill="none" stroke="midnightblue" d="M513.88,-223.23C513.01,-215.57 511.91,-205.84 510.86,-196.63"/>
<polygon fill="midnightblue" stroke="midnightblue" points="514.33,-196.13 509.72,-186.59 507.37,-196.92 514.33,-196.13"/>
</g>
<!-- Node6&#45;&gt;Node8 -->
<g id="edge7" class="edge">
<title>Node6&#45;&gt;Node8</title>
<path fill="none" stroke="midnightblue" d="M485.51,-223.4C462.31,-212.5 429.99,-197.31 404.74,-185.44"/>
<polygon fill="midnightblue" stroke="midnightblue" points="405.98,-182.16 395.44,-181.07 403,-188.49 405.98,-182.16"/>
</g>
<!-- Node9 -->
<g id="node9" class="node">
<title>Node9</title>
<g id="a_node9"><a target="_parent" xlink:href="../../../cieutils/docs/html/container__concepts_8hpp.html.html" xlink:title=" ">
<polygon fill="white" stroke="black" points="292,-0.5 292,-41.5 427,-41.5 427,-0.5 292,-0.5"/>
<text text-anchor="start" x="300" y="-29.5" font-family="Helvetica,sans-Serif" font-size="10.00">packages/compile_time</text>
<text text-anchor="start" x="300" y="-18.5" font-family="Helvetica,sans-Serif" font-size="10.00">/packages/concepts/inc</text>
<text text-anchor="middle" x="359.5" y="-7.5" font-family="Helvetica,sans-Serif" font-size="10.00">/container_concepts.hpp</text>
</a>
</g>
</g>
<!-- Node8&#45;&gt;Node9 -->
<g id="edge8" class="edge">
<title>Node8&#45;&gt;Node9</title>
<path fill="none" stroke="midnightblue" d="M364.9,-150.77C363.94,-127.76 362.01,-81.94 360.74,-51.62"/>
<polygon fill="midnightblue" stroke="midnightblue" points="364.24,-51.46 360.32,-41.61 357.25,-51.75 364.24,-51.46"/>
</g>
<!-- Node10 -->
<g id="node10" class="node">
<title>Node10</title>
<g id="a_node10"><a target="_parent" xlink:href="../../../cieutils/docs/html/typedefs_8hpp.html.html" xlink:title=" ">
<polygon fill="white" stroke="black" points="212,-78.5 212,-108.5 331,-108.5 331,-78.5 212,-78.5"/>
<text text-anchor="start" x="220" y="-96.5" font-family="Helvetica,sans-Serif" font-size="10.00">packages/macros/inc</text>
<text text-anchor="middle" x="271.5" y="-85.5" font-family="Helvetica,sans-Serif" font-size="10.00">/typedefs.hpp</text>
</a>
</g>
</g>
<!-- Node8&#45;&gt;Node10 -->
<g id="edge9" class="edge">
<title>Node8&#45;&gt;Node10</title>
<path fill="none" stroke="midnightblue" d="M346.48,-150.73C332.63,-140.35 313.68,-126.13 298.3,-114.6"/>
<polygon fill="midnightblue" stroke="midnightblue" points="300.27,-111.7 290.17,-108.5 296.07,-117.3 300.27,-111.7"/>
</g>
<!-- Node11 -->
<g id="node11" class="node">
<title>Node11</title>
<g id="a_node11"><a target="_parent" xlink:href="../../../cieutils/docs/html/types_8hpp.html.html" xlink:title=" ">
<polygon fill="white" stroke="black" points="544.5,-6 544.5,-36 654.5,-36 654.5,-6 544.5,-6"/>
<text text-anchor="start" x="552.5" y="-24" font-family="Helvetica,sans-Serif" font-size="10.00">packages/types/inc</text>
<text text-anchor="middle" x="599.5" y="-13" font-family="Helvetica,sans-Serif" font-size="10.00">/types.hpp</text>
</a>
</g>
</g>
<!-- Node8&#45;&gt;Node11 -->
<g id="edge10" class="edge">
<title>Node8&#45;&gt;Node11</title>
<path fill="none" stroke="midnightblue" d="M379.72,-150.81C403.74,-126.86 450.21,-80.76 454.5,-78 470.53,-67.7 513,-51.72 547.86,-39.46"/>
<polygon fill="midnightblue" stroke="midnightblue" points="549.17,-42.71 557.46,-36.11 546.87,-36.1 549.17,-42.71"/>
</g>
<!-- Node8&#45;&gt;Node12 -->
<g id="edge11" class="edge">
<title>Node8&#45;&gt;Node12</title>
<path fill="none" stroke="midnightblue" d="M411.61,-150.99C448.89,-139.66 501.52,-123.67 541.27,-111.59"/>
<polygon fill="midnightblue" stroke="midnightblue" points="542.53,-114.86 551.08,-108.61 540.49,-108.17 542.53,-114.86"/>
</g>
<!-- Node13 -->
<g id="node13" class="node">
<title>Node13</title>
<g id="a_node13"><a xlink:title=" ">
<polygon fill="white" stroke="#bfbfbf" points="484.5,-11.5 484.5,-30.5 526.5,-30.5 526.5,-11.5 484.5,-11.5"/>
<text text-anchor="middle" x="505.5" y="-18.5" font-family="Helvetica,sans-Serif" font-size="10.00">array</text>
</a>
</g>
</g>
<!-- Node8&#45;&gt;Node13 -->
<g id="edge17" class="edge">
<title>Node8&#45;&gt;Node13</title>
<path fill="none" stroke="midnightblue" d="M372.31,-150.8C381.59,-132.46 399.58,-100.28 421.5,-78 438.51,-60.71 461.67,-45.75 479.37,-35.65"/>
<polygon fill="midnightblue" stroke="midnightblue" points="481.51,-38.47 488.56,-30.56 478.12,-32.35 481.51,-38.47"/>
</g>
<!-- Node8&#45;&gt;Node14 -->
<g id="edge16" class="edge">
<title>Node8&#45;&gt;Node14</title>
<path fill="none" stroke="midnightblue" d="M390.9,-150.9C413.44,-138.39 446.16,-120.22 468.33,-107.92"/>
<polygon fill="midnightblue" stroke="midnightblue" points="470.08,-110.95 477.13,-103.03 466.69,-104.83 470.08,-110.95"/>
</g>
<!-- Node15 -->
<g id="node15" class="node">
<title>Node15</title>
<g id="a_node15"><a xlink:title=" ">
<polygon fill="white" stroke="#bfbfbf" points="69.5,-78.5 69.5,-108.5 193.5,-108.5 193.5,-78.5 69.5,-78.5"/>
<text text-anchor="start" x="77.5" y="-96.5" font-family="Helvetica,sans-Serif" font-size="10.00">packages/primitives</text>
<text text-anchor="middle" x="131.5" y="-85.5" font-family="Helvetica,sans-Serif" font-size="10.00">/impl/Object_impl.hpp</text>
</a>
</g>
</g>
<!-- Node8&#45;&gt;Node15 -->
<g id="edge18" class="edge">
<title>Node8&#45;&gt;Node15</title>
<path fill="none" stroke="midnightblue" d="M318.99,-150.99C281.31,-139.64 228.08,-123.6 187.96,-111.51"/>
<polygon fill="midnightblue" stroke="midnightblue" points="188.91,-108.14 178.32,-108.61 186.89,-114.84 188.91,-108.14"/>
</g>
<!-- Node12&#45;&gt;Node5 -->
<g id="edge14" class="edge">
<title>Node12&#45;&gt;Node5</title>
<path fill="none" stroke="midnightblue" d="M626.09,-78.4C648.11,-67.55 678.74,-52.45 702.77,-40.6"/>
<polygon fill="midnightblue" stroke="midnightblue" points="704.53,-43.63 711.96,-36.07 701.44,-37.36 704.53,-43.63"/>
</g>
<!-- Node12&#45;&gt;Node9 -->
<g id="edge13" class="edge">
<title>Node12&#45;&gt;Node9</title>
<path fill="none" stroke="midnightblue" d="M550.19,-78.49C517.47,-68.79 473.2,-55.68 435.56,-44.53"/>
<polygon fill="midnightblue" stroke="midnightblue" points="436.22,-41.08 425.64,-41.59 434.23,-47.79 436.22,-41.08"/>
</g>
<!-- Node12&#45;&gt;Node11 -->
<g id="edge12" class="edge">
<title>Node12&#45;&gt;Node11</title>
<path fill="none" stroke="midnightblue" d="M597.9,-78.23C598.16,-69.06 598.51,-56.91 598.81,-46.24"/>
<polygon fill="midnightblue" stroke="midnightblue" points="602.31,-46.34 599.1,-36.25 595.31,-46.14 602.31,-46.34"/>
</g>
<!-- Node12&#45;&gt;Node13 -->
<g id="edge15" class="edge">
<title>Node12&#45;&gt;Node13</title>
<path fill="none" stroke="midnightblue" d="M578.88,-78.23C563.2,-66.22 540.84,-49.08 524.93,-36.89"/>
<polygon fill="midnightblue" stroke="midnightblue" points="526.91,-34 516.84,-30.69 522.65,-39.55 526.91,-34"/>
</g>
<!-- Node16&#45;&gt;Node6 -->
<g id="edge23" class="edge">
<title>Node16&#45;&gt;Node6</title>
<path fill="none" stroke="midnightblue" d="M397.09,-295.9C419.98,-285 451.87,-269.81 476.78,-257.94"/>
<polygon fill="midnightblue" stroke="midnightblue" points="478.43,-261.03 485.96,-253.57 475.42,-254.71 478.43,-261.03"/>
</g>
<!-- Node16&#45;&gt;Node9 -->
<g id="edge22" class="edge">
<title>Node16&#45;&gt;Node9</title>
<path fill="none" stroke="midnightblue" d="M337.9,-295.89C252.67,-254.38 15.54,-132.17 60.5,-78 88.06,-44.8 202.27,-31.17 281.27,-25.65"/>
<polygon fill="midnightblue" stroke="midnightblue" points="281.95,-29.11 291.69,-24.95 281.48,-22.13 281.95,-29.11"/>
</g>
<!-- Node17&#45;&gt;Node5 -->
<g id="edge27" class="edge">
<title>Node17&#45;&gt;Node5</title>
<path fill="none" stroke="midnightblue" d="M862.91,-78.4C839.14,-67.45 805.99,-52.18 780.19,-40.29"/>
<polygon fill="midnightblue" stroke="midnightblue" points="781.59,-37.08 771.04,-36.07 778.66,-43.44 781.59,-37.08"/>
</g>
<!-- Node17&#45;&gt;Node11 -->
<g id="edge25" class="edge">
<title>Node17&#45;&gt;Node11</title>
<path fill="none" stroke="midnightblue" d="M824.4,-78.46C779.27,-68.97 719.15,-55.7 666.5,-42 662.71,-41.01 658.81,-39.96 654.89,-38.87"/>
<polygon fill="midnightblue" stroke="midnightblue" points="655.73,-35.47 645.15,-36.1 653.81,-42.2 655.73,-35.47"/>
</g>
<!-- Node18 -->
<g id="node18" class="node">
<title>Node18</title>
<g id="a_node18"><a target="_parent" xlink:href="../../../cieutils/docs/html/DynamicArray_8hpp.html.html" xlink:title=" ">
<polygon fill="white" stroke="black" points="828,-6 828,-36 959,-36 959,-6 828,-6"/>
<text text-anchor="start" x="836" y="-24" font-family="Helvetica,sans-Serif" font-size="10.00">packages/stl_extension</text>
<text text-anchor="middle" x="893.5" y="-13" font-family="Helvetica,sans-Serif" font-size="10.00">/inc/DynamicArray.hpp</text>
</a>
</g>
</g>
<!-- Node17&#45;&gt;Node18 -->
<g id="edge26" class="edge">
<title>Node17&#45;&gt;Node18</title>
<path fill="none" stroke="midnightblue" d="M893.5,-78.23C893.5,-69.16 893.5,-57.16 893.5,-46.58"/>
<polygon fill="midnightblue" stroke="midnightblue" points="897,-46.25 893.5,-36.25 890,-46.25 897,-46.25"/>
</g>
<!-- Node19&#45;&gt;Node5 -->
<g id="edge30" class="edge">
<title>Node19&#45;&gt;Node5</title>
<path fill="none" stroke="midnightblue" d="M723.39,-150.77C726.63,-126.35 733.29,-76.24 737.28,-46.24"/>
<polygon fill="midnightblue" stroke="midnightblue" points="740.77,-46.55 738.62,-36.18 733.83,-45.63 740.77,-46.55"/>
</g>
<!-- Node19&#45;&gt;Node12 -->
<g id="edge29" class="edge">
<title>Node19&#45;&gt;Node12</title>
<path fill="none" stroke="midnightblue" d="M696.7,-150.9C677.87,-140.19 651.75,-125.35 631.05,-113.57"/>
<polygon fill="midnightblue" stroke="midnightblue" points="632.68,-110.47 622.25,-108.57 629.22,-116.56 632.68,-110.47"/>
</g>
<!-- Node19&#45;&gt;Node13 -->
<g id="edge31" class="edge">
<title>Node19&#45;&gt;Node13</title>
<path fill="none" stroke="midnightblue" d="M715.91,-150.98C707.47,-131.64 689.64,-97 663.5,-78 615.7,-43.26 589.19,-66.69 535.5,-42 532,-40.39 528.44,-38.39 525.06,-36.29"/>
<polygon fill="midnightblue" stroke="midnightblue" points="526.94,-33.34 516.68,-30.68 523.04,-39.15 526.94,-33.34"/>
</g>
<!-- Node19&#45;&gt;Node20 -->
<g id="edge32" class="edge">
<title>Node19&#45;&gt;Node20</title>
<path fill="none" stroke="midnightblue" d="M731.82,-150.73C739.98,-139.45 751.41,-123.65 760.08,-111.67"/>
<polygon fill="midnightblue" stroke="midnightblue" points="763.04,-113.55 766.07,-103.39 757.37,-109.44 763.04,-113.55"/>
</g>
</g>
</svg>
