<?xml version="1.0" encoding="UTF-8" standalone="no"?>
<!DOCTYPE svg PUBLIC "-//W3C//DTD SVG 1.1//EN"
 "http://www.w3.org/Graphics/SVG/1.1/DTD/svg11.dtd">
<!-- Generated by graphviz version 2.43.0 (0)
 -->
<!-- Title: meshgenerator_helper.hpp Pages: 1 -->
<svg width="453pt" height="162pt"
 viewBox="0.00 0.00 452.50 162.00" xmlns="http://www.w3.org/2000/svg" xmlns:xlink="http://www.w3.org/1999/xlink">
<g id="graph0" class="graph" transform="scale(1 1) rotate(0) translate(4 158)">
<title>meshgenerator_helper.hpp</title>
<polygon fill="white" stroke="transparent" points="-4,4 -4,-158 448.5,-158 448.5,4 -4,4"/>
<!-- Node1 -->
<g id="node1" class="node">
<title>Node1</title>
<g id="a_node1"><a xlink:title=" ">
<polygon fill="#bfbfbf" stroke="black" points="227.5,-134.5 227.5,-153.5 374.5,-153.5 374.5,-134.5 227.5,-134.5"/>
<text text-anchor="middle" x="301" y="-141.5" font-family="Helvetica,sans-Serif" font-size="10.00">meshgenerator_helper.hpp</text>
</a>
</g>
</g>
<!-- Node2 -->
<g id="node2" class="node">
<title>Node2</title>
<g id="a_node2"><a xlink:href="meshgenerator_8hpp.html" target="_top" xlink:title=" ">
<polygon fill="white" stroke="black" points="235.5,-67.5 235.5,-97.5 366.5,-97.5 366.5,-67.5 235.5,-67.5"/>
<text text-anchor="start" x="243.5" y="-85.5" font-family="Helvetica,sans-Serif" font-size="10.00">packages/triangulation</text>
<text text-anchor="middle" x="301" y="-74.5" font-family="Helvetica,sans-Serif" font-size="10.00">/inc/meshgenerator.hpp</text>
</a>
</g>
</g>
<!-- Node1&#45;&gt;Node2 -->
<g id="edge1" class="edge">
<title>Node1&#45;&gt;Node2</title>
<path fill="none" stroke="midnightblue" d="M301,-134.48C301,-127.47 301,-117.19 301,-107.7"/>
<polygon fill="midnightblue" stroke="midnightblue" points="304.5,-107.52 301,-97.52 297.5,-107.52 304.5,-107.52"/>
</g>
<!-- Node3 -->
<g id="node3" class="node">
<title>Node3</title>
<g id="a_node3"><a target="_parent" xlink:href="../../../cieutils/docs/html/types_8hpp.html.html" xlink:title=" ">
<polygon fill="white" stroke="black" points="0,-0.5 0,-30.5 110,-30.5 110,-0.5 0,-0.5"/>
<text text-anchor="start" x="8" y="-18.5" font-family="Helvetica,sans-Serif" font-size="10.00">packages/types/inc</text>
<text text-anchor="middle" x="55" y="-7.5" font-family="Helvetica,sans-Serif" font-size="10.00">/types.hpp</text>
</a>
</g>
</g>
<!-- Node2&#45;&gt;Node3 -->
<g id="edge2" class="edge">
<title>Node2&#45;&gt;Node3</title>
<path fill="none" stroke="midnightblue" d="M247.92,-67.48C209.82,-57.41 158.32,-43.8 118.11,-33.17"/>
<polygon fill="midnightblue" stroke="midnightblue" points="118.97,-29.78 108.4,-30.61 117.18,-36.55 118.97,-29.78"/>
</g>
<!-- Node4 -->
<g id="node4" class="node">
<title>Node4</title>
<g id="a_node4"><a target="_parent" xlink:href="../../../cieutils/docs/html/StaticArray_8hpp.html.html" xlink:title=" ">
<polygon fill="white" stroke="black" points="128.5,-0.5 128.5,-30.5 259.5,-30.5 259.5,-0.5 128.5,-0.5"/>
<text text-anchor="start" x="136.5" y="-18.5" font-family="Helvetica,sans-Serif" font-size="10.00">packages/stl_extension</text>
<text text-anchor="middle" x="194" y="-7.5" font-family="Helvetica,sans-Serif" font-size="10.00">/inc/StaticArray.hpp</text>
</a>
</g>
</g>
<!-- Node2&#45;&gt;Node4 -->
<g id="edge3" class="edge">
<title>Node2&#45;&gt;Node4</title>
<path fill="none" stroke="midnightblue" d="M277.78,-67.4C262.64,-58.2 242.67,-46.07 226.03,-35.95"/>
<polygon fill="midnightblue" stroke="midnightblue" points="227.54,-32.78 217.17,-30.58 223.9,-38.76 227.54,-32.78"/>
</g>
<!-- Node5 -->
<g id="node5" class="node">
<title>Node5</title>
<g id="a_node5"><a xlink:title=" ">
<polygon fill="white" stroke="#bfbfbf" points="277.5,-6 277.5,-25 324.5,-25 324.5,-6 277.5,-6"/>
<text text-anchor="middle" x="301" y="-13" font-family="Helvetica,sans-Serif" font-size="10.00">vector</text>
</a>
</g>
</g>
<!-- Node2&#45;&gt;Node5 -->
<g id="edge4" class="edge">
<title>Node2&#45;&gt;Node5</title>
<path fill="none" stroke="midnightblue" d="M301,-67.4C301,-58.06 301,-45.71 301,-35.52"/>
<polygon fill="midnightblue" stroke="midnightblue" points="304.5,-35.19 301,-25.19 297.5,-35.19 304.5,-35.19"/>
</g>
<!-- Node6 -->
<g id="node6" class="node">
<title>Node6</title>
<g id="a_node6"><a xlink:title=" ">
<polygon fill="white" stroke="#bfbfbf" points="343,-6 343,-25 385,-25 385,-6 343,-6"/>
<text text-anchor="middle" x="364" y="-13" font-family="Helvetica,sans-Serif" font-size="10.00">array</text>
</a>
</g>
</g>
<!-- Node2&#45;&gt;Node6 -->
<g id="edge5" class="edge">
<title>Node2&#45;&gt;Node6</title>
<path fill="none" stroke="midnightblue" d="M314.67,-67.4C324.59,-57.16 338.03,-43.3 348.37,-32.62"/>
<polygon fill="midnightblue" stroke="midnightblue" points="351.13,-34.81 355.57,-25.19 346.1,-29.94 351.13,-34.81"/>
</g>
<!-- Node7 -->
<g id="node7" class="node">
<title>Node7</title>
<g id="a_node7"><a xlink:title=" ">
<polygon fill="white" stroke="#bfbfbf" points="403.5,-6 403.5,-25 444.5,-25 444.5,-6 403.5,-6"/>
<text text-anchor="middle" x="424" y="-13" font-family="Helvetica,sans-Serif" font-size="10.00">tuple</text>
</a>
</g>
</g>
<!-- Node2&#45;&gt;Node7 -->
<g id="edge6" class="edge">
<title>Node2&#45;&gt;Node7</title>
<path fill="none" stroke="midnightblue" d="M327.69,-67.4C348.89,-56.19 378.32,-40.64 399.05,-29.69"/>
<polygon fill="midnightblue" stroke="midnightblue" points="400.7,-32.77 407.9,-25.01 397.43,-26.58 400.7,-32.77"/>
</g>
</g>
</svg>
