<?xml version="1.0" encoding="UTF-8" standalone="no"?>
<!DOCTYPE svg PUBLIC "-//W3C//DTD SVG 1.1//EN"
 "http://www.w3.org/Graphics/SVG/1.1/DTD/svg11.dtd">
<!-- Generated by graphviz version 2.43.0 (0)
 -->
<!-- Title: MeshTraits.hpp Pages: 1 -->
<svg width="500pt" height="173pt"
 viewBox="0.00 0.00 499.50 173.00" xmlns="http://www.w3.org/2000/svg" xmlns:xlink="http://www.w3.org/1999/xlink">
<g id="graph0" class="graph" transform="scale(1 1) rotate(0) translate(4 169)">
<title>MeshTraits.hpp</title>
<polygon fill="white" stroke="transparent" points="-4,4 -4,-169 495.5,-169 495.5,4 -4,4"/>
<!-- Node1 -->
<g id="node1" class="node">
<title>Node1</title>
<g id="a_node1"><a xlink:title=" ">
<polygon fill="#bfbfbf" stroke="black" points="354,-145.5 354,-164.5 444,-164.5 444,-145.5 354,-145.5"/>
<text text-anchor="middle" x="399" y="-152.5" font-family="Helvetica,sans-Serif" font-size="10.00">MeshTraits.hpp</text>
</a>
</g>
</g>
<!-- Node2 -->
<g id="node2" class="node">
<title>Node2</title>
<g id="a_node2"><a xlink:href="Traits_8hpp.html" target="_top" xlink:title=" ">
<polygon fill="white" stroke="black" points="236.5,-78.5 236.5,-108.5 351.5,-108.5 351.5,-78.5 236.5,-78.5"/>
<text text-anchor="start" x="244.5" y="-96.5" font-family="Helvetica,sans-Serif" font-size="10.00">packages/primitives</text>
<text text-anchor="middle" x="294" y="-85.5" font-family="Helvetica,sans-Serif" font-size="10.00">/inc/Traits.hpp</text>
</a>
</g>
</g>
<!-- Node1&#45;&gt;Node2 -->
<g id="edge1" class="edge">
<title>Node1&#45;&gt;Node2</title>
<path fill="none" stroke="midnightblue" d="M383.96,-145.48C369.34,-137.19 346.63,-124.32 327.69,-113.59"/>
<polygon fill="midnightblue" stroke="midnightblue" points="329.17,-110.41 318.75,-108.52 325.72,-116.5 329.17,-110.41"/>
</g>
<!-- Node5 -->
<g id="node5" class="node">
<title>Node5</title>
<g id="a_node5"><a target="_parent" xlink:href="../../../cieutils/docs/html/StaticArray_8hpp.html.html" xlink:title=" ">
<polygon fill="white" stroke="black" points="281.5,-6 281.5,-36 412.5,-36 412.5,-6 281.5,-6"/>
<text text-anchor="start" x="289.5" y="-24" font-family="Helvetica,sans-Serif" font-size="10.00">packages/stl_extension</text>
<text text-anchor="middle" x="347" y="-13" font-family="Helvetica,sans-Serif" font-size="10.00">/inc/StaticArray.hpp</text>
</a>
</g>
</g>
<!-- Node1&#45;&gt;Node5 -->
<g id="edge6" class="edge">
<title>Node1&#45;&gt;Node5</title>
<path fill="none" stroke="midnightblue" d="M395.59,-145.34C387.75,-125.43 368.21,-75.84 356.44,-45.95"/>
<polygon fill="midnightblue" stroke="midnightblue" points="359.55,-44.3 352.63,-36.28 353.04,-46.87 359.55,-44.3"/>
</g>
<!-- Node6 -->
<g id="node6" class="node">
<title>Node6</title>
<g id="a_node6"><a xlink:title=" ">
<polygon fill="white" stroke="#bfbfbf" points="431,-11.5 431,-30.5 473,-30.5 473,-11.5 431,-11.5"/>
<text text-anchor="middle" x="452" y="-18.5" font-family="Helvetica,sans-Serif" font-size="10.00">array</text>
</a>
</g>
</g>
<!-- Node1&#45;&gt;Node6 -->
<g id="edge7" class="edge">
<title>Node1&#45;&gt;Node6</title>
<path fill="none" stroke="midnightblue" d="M402.48,-145.34C411.01,-124.08 433.14,-68.96 444.71,-40.15"/>
<polygon fill="midnightblue" stroke="midnightblue" points="448.1,-41.11 448.58,-30.52 441.6,-38.5 448.1,-41.11"/>
</g>
<!-- Node7 -->
<g id="node7" class="node">
<title>Node7</title>
<g id="a_node7"><a xlink:title=" ">
<polygon fill="white" stroke="#bfbfbf" points="446.5,-84 446.5,-103 491.5,-103 491.5,-84 446.5,-84"/>
<text text-anchor="middle" x="469" y="-91" font-family="Helvetica,sans-Serif" font-size="10.00">utility</text>
</a>
</g>
</g>
<!-- Node1&#45;&gt;Node7 -->
<g id="edge8" class="edge">
<title>Node1&#45;&gt;Node7</title>
<path fill="none" stroke="midnightblue" d="M409.03,-145.48C420.05,-136.11 437.96,-120.88 451.34,-109.51"/>
<polygon fill="midnightblue" stroke="midnightblue" points="453.64,-112.15 458.99,-103.01 449.1,-106.82 453.64,-112.15"/>
</g>
<!-- Node3 -->
<g id="node3" class="node">
<title>Node3</title>
<g id="a_node3"><a target="_parent" xlink:href="../../../cieutils/docs/html/types_8hpp.html.html" xlink:title=" ">
<polygon fill="white" stroke="black" points="0,-6 0,-36 110,-36 110,-6 0,-6"/>
<text text-anchor="start" x="8" y="-24" font-family="Helvetica,sans-Serif" font-size="10.00">packages/types/inc</text>
<text text-anchor="middle" x="55" y="-13" font-family="Helvetica,sans-Serif" font-size="10.00">/types.hpp</text>
</a>
</g>
</g>
<!-- Node2&#45;&gt;Node3 -->
<g id="edge2" class="edge">
<title>Node2&#45;&gt;Node3</title>
<path fill="none" stroke="midnightblue" d="M244.13,-78.42C209.07,-68.45 161.09,-54.65 119,-42 115.72,-41.02 112.36,-39.99 108.96,-38.96"/>
<polygon fill="midnightblue" stroke="midnightblue" points="109.96,-35.6 99.37,-36.01 107.9,-42.29 109.96,-35.6"/>
</g>
<!-- Node4 -->
<g id="node4" class="node">
<title>Node4</title>
<g id="a_node4"><a target="_parent" xlink:href="../../../cieutils/docs/html/container__concepts_8hpp.html.html" xlink:title=" ">
<polygon fill="white" stroke="black" points="128.5,-0.5 128.5,-41.5 263.5,-41.5 263.5,-0.5 128.5,-0.5"/>
<text text-anchor="start" x="136.5" y="-29.5" font-family="Helvetica,sans-Serif" font-size="10.00">packages/compile_time</text>
<text text-anchor="start" x="136.5" y="-18.5" font-family="Helvetica,sans-Serif" font-size="10.00">/packages/concepts/inc</text>
<text text-anchor="middle" x="196" y="-7.5" font-family="Helvetica,sans-Serif" font-size="10.00">/container_concepts.hpp</text>
</a>
</g>
</g>
<!-- Node2&#45;&gt;Node4 -->
<g id="edge3" class="edge">
<title>Node2&#45;&gt;Node4</title>
<path fill="none" stroke="midnightblue" d="M274.17,-78.23C261.92,-69.42 245.85,-57.86 231.46,-47.51"/>
<polygon fill="midnightblue" stroke="midnightblue" points="233.39,-44.59 223.23,-41.59 229.3,-50.27 233.39,-44.59"/>
</g>
<!-- Node2&#45;&gt;Node5 -->
<g id="edge4" class="edge">
<title>Node2&#45;&gt;Node5</title>
<path fill="none" stroke="midnightblue" d="M304.73,-78.23C312.05,-68.49 321.91,-55.37 330.26,-44.26"/>
<polygon fill="midnightblue" stroke="midnightblue" points="333.08,-46.34 336.29,-36.25 327.48,-42.14 333.08,-46.34"/>
</g>
<!-- Node2&#45;&gt;Node6 -->
<g id="edge5" class="edge">
<title>Node2&#45;&gt;Node6</title>
<path fill="none" stroke="midnightblue" d="M336.21,-78.41C361.65,-69.29 394.37,-56.45 422,-42 425.26,-40.29 428.61,-38.32 431.82,-36.28"/>
<polygon fill="midnightblue" stroke="midnightblue" points="434,-39.04 440.39,-30.58 430.12,-33.21 434,-39.04"/>
</g>
</g>
</svg>
