<?xml version="1.0" encoding="UTF-8" standalone="no"?>
<!DOCTYPE svg PUBLIC "-//W3C//DTD SVG 1.1//EN"
 "http://www.w3.org/Graphics/SVG/1.1/DTD/svg11.dtd">
<!-- Generated by graphviz version 2.43.0 (0)
 -->
<!-- Title: minimumdisc.hpp Pages: 1 -->
<svg width="580pt" height="95pt"
 viewBox="0.00 0.00 580.00 95.00" xmlns="http://www.w3.org/2000/svg" xmlns:xlink="http://www.w3.org/1999/xlink">
<g id="graph0" class="graph" transform="scale(1 1) rotate(0) translate(4 91)">
<title>minimumdisc.hpp</title>
<polygon fill="white" stroke="transparent" points="-4,4 -4,-91 576,-91 576,4 -4,4"/>
<!-- Node1 -->
<g id="node1" class="node">
<title>Node1</title>
<g id="a_node1"><a xlink:title=" ">
<polygon fill="#bfbfbf" stroke="black" points="310,-67.5 310,-86.5 414,-86.5 414,-67.5 310,-67.5"/>
<text text-anchor="middle" x="362" y="-74.5" font-family="Helvetica,sans-Serif" font-size="10.00">minimumdisc.hpp</text>
</a>
</g>
</g>
<!-- Node2 -->
<g id="node2" class="node">
<title>Node2</title>
<g id="a_node2"><a target="_parent" xlink:href="../../../linalg/docs/html/vectortypes_8hpp.html.html" xlink:title=" ">
<polygon fill="white" stroke="black" points="0,-0.5 0,-30.5 110,-30.5 110,-0.5 0,-0.5"/>
<text text-anchor="start" x="8" y="-18.5" font-family="Helvetica,sans-Serif" font-size="10.00">packages/types/inc</text>
<text text-anchor="middle" x="55" y="-7.5" font-family="Helvetica,sans-Serif" font-size="10.00">/vectortypes.hpp</text>
</a>
</g>
</g>
<!-- Node1&#45;&gt;Node2 -->
<g id="edge1" class="edge">
<title>Node1&#45;&gt;Node2</title>
<path fill="none" stroke="midnightblue" d="M312.56,-67.44C265.58,-59.17 192.73,-46 120.34,-31.23"/>
<polygon fill="midnightblue" stroke="midnightblue" points="120.63,-27.72 110.13,-29.14 119.22,-34.57 120.63,-27.72"/>
</g>
<!-- Node3 -->
<g id="node3" class="node">
<title>Node3</title>
<g id="a_node3"><a target="_parent" xlink:href="../../../linalg/docs/html/arraytypes_8hpp.html.html" xlink:title=" ">
<polygon fill="white" stroke="black" points="128,-0.5 128,-30.5 238,-30.5 238,-0.5 128,-0.5"/>
<text text-anchor="start" x="136" y="-18.5" font-family="Helvetica,sans-Serif" font-size="10.00">packages/types/inc</text>
<text text-anchor="middle" x="183" y="-7.5" font-family="Helvetica,sans-Serif" font-size="10.00">/arraytypes.hpp</text>
</a>
</g>
</g>
<!-- Node1&#45;&gt;Node3 -->
<g id="edge2" class="edge">
<title>Node1&#45;&gt;Node3</title>
<path fill="none" stroke="midnightblue" d="M336.35,-67.48C309.96,-58.7 268.1,-44.79 234.78,-33.71"/>
<polygon fill="midnightblue" stroke="midnightblue" points="235.78,-30.36 225.19,-30.52 233.57,-37 235.78,-30.36"/>
</g>
<!-- Node4 -->
<g id="node4" class="node">
<title>Node4</title>
<g id="a_node4"><a target="_parent" xlink:href="../../../linalg/docs/html/typeoperations_8hpp.html.html" xlink:title=" ">
<polygon fill="white" stroke="black" points="256,-0.5 256,-30.5 370,-30.5 370,-0.5 256,-0.5"/>
<text text-anchor="start" x="264" y="-18.5" font-family="Helvetica,sans-Serif" font-size="10.00">packages/types/inc</text>
<text text-anchor="middle" x="313" y="-7.5" font-family="Helvetica,sans-Serif" font-size="10.00">/typeoperations.hpp</text>
</a>
</g>
</g>
<!-- Node1&#45;&gt;Node4 -->
<g id="edge3" class="edge">
<title>Node1&#45;&gt;Node4</title>
<path fill="none" stroke="midnightblue" d="M354.98,-67.48C348.72,-59.87 339.27,-48.4 330.92,-38.26"/>
<polygon fill="midnightblue" stroke="midnightblue" points="333.61,-36.02 324.55,-30.52 328.2,-40.47 333.61,-36.02"/>
</g>
<!-- Node5 -->
<g id="node5" class="node">
<title>Node5</title>
<g id="a_node5"><a xlink:title=" ">
<polygon fill="white" stroke="#bfbfbf" points="388.5,-6 388.5,-25 435.5,-25 435.5,-6 388.5,-6"/>
<text text-anchor="middle" x="412" y="-13" font-family="Helvetica,sans-Serif" font-size="10.00">vector</text>
</a>
</g>
</g>
<!-- Node1&#45;&gt;Node5 -->
<g id="edge4" class="edge">
<title>Node1&#45;&gt;Node5</title>
<path fill="none" stroke="midnightblue" d="M369.16,-67.48C376.74,-58.46 388.87,-44.02 398.29,-32.81"/>
<polygon fill="midnightblue" stroke="midnightblue" points="401.1,-34.92 404.85,-25.01 395.74,-30.41 401.1,-34.92"/>
</g>
<!-- Node6 -->
<g id="node6" class="node">
<title>Node6</title>
<g id="a_node6"><a xlink:title=" ">
<polygon fill="white" stroke="#bfbfbf" points="454,-6 454,-25 496,-25 496,-6 454,-6"/>
<text text-anchor="middle" x="475" y="-13" font-family="Helvetica,sans-Serif" font-size="10.00">array</text>
</a>
</g>
</g>
<!-- Node1&#45;&gt;Node6 -->
<g id="edge5" class="edge">
<title>Node1&#45;&gt;Node6</title>
<path fill="none" stroke="midnightblue" d="M378.19,-67.48C396.9,-57.62 427.92,-41.29 449.8,-29.77"/>
<polygon fill="midnightblue" stroke="midnightblue" points="451.62,-32.77 458.84,-25.01 448.36,-26.57 451.62,-32.77"/>
</g>
<!-- Node7 -->
<g id="node7" class="node">
<title>Node7</title>
<g id="a_node7"><a xlink:title=" ">
<polygon fill="white" stroke="#bfbfbf" points="514,-6 514,-25 572,-25 572,-6 514,-6"/>
<text text-anchor="middle" x="543" y="-13" font-family="Helvetica,sans-Serif" font-size="10.00">memory</text>
</a>
</g>
</g>
<!-- Node1&#45;&gt;Node7 -->
<g id="edge6" class="edge">
<title>Node1&#45;&gt;Node7</title>
<path fill="none" stroke="midnightblue" d="M390.93,-67.45C419.93,-58.75 465.79,-44.64 505,-31 507.25,-30.22 509.57,-29.39 511.9,-28.54"/>
<polygon fill="midnightblue" stroke="midnightblue" points="513.23,-31.78 521.38,-25.01 510.79,-25.22 513.23,-31.78"/>
</g>
</g>
</svg>
