<?xml version="1.0" encoding="UTF-8" standalone="no"?>
<!DOCTYPE svg PUBLIC "-//W3C//DTD SVG 1.1//EN"
 "http://www.w3.org/Graphics/SVG/1.1/DTD/svg11.dtd">
<!-- Generated by graphviz version 2.43.0 (0)
 -->
<!-- Title: Object.hpp Pages: 1 -->
<!--zoomable 420 -->
<svg id="main" version="1.1" xmlns="http://www.w3.org/2000/svg" xmlns:xlink="http://www.w3.org/1999/xlink" xml:space="preserve" onload="init(evt)">
<style type="text/css"><![CDATA[
.edge:hover path { stroke: red; }
.edge:hover polygon { stroke: red; fill: red; }
]]></style>
<script type="text/javascript"><![CDATA[
var edges = document.getElementsByTagName('g');
if (edges && edges.length) {
  for (var i=0;i<edges.length;i++) {
    if (edges[i].id.substr(0,4)=='edge') {
      edges[i].setAttribute('class','edge');
    }
  }
}
]]></script>
        <defs>
                <circle id="rim" cx="0" cy="0" r="7"/>
                <circle id="rim2" cx="0" cy="0" r="3.5"/>
                <g id="zoomPlus">
                        <use xlink:href="#rim" fill="#404040">
                                <set attributeName="fill" to="#808080" begin="zoomplus.mouseover" end="zoomplus.mouseout"/>
                        </use>
                        <path d="M-4,0h8M0,-4v8" fill="none" stroke="white" stroke-width="1.5" pointer-events="none"/>
                </g>
                <g id="zoomMin">
                        <use xlink:href="#rim" fill="#404040">
                                <set attributeName="fill" to="#808080" begin="zoomminus.mouseover" end="zoomminus.mouseout"/>
                        </use>
                        <path d="M-4,0h8" fill="none" stroke="white" stroke-width="1.5" pointer-events="none"/>
                </g>
                <g id="dirArrow">
                        <path fill="none" stroke="white" stroke-width="1.5" d="M0,-3.0v7 M-2.5,-0.5L0,-3.0L2.5,-0.5"/>
                </g>
               <g id="resetDef">
                       <use xlink:href="#rim2" fill="#404040">
                               <set attributeName="fill" to="#808080" begin="reset.mouseover" end="reset.mouseout"/>
                       </use>
               </g>
        </defs>

<script type="text/javascript">
var viewWidth = 1693;
var viewHeight = 420;
var sectionId = 'dynsection-1';
</script>
<script xlink:href="svgpan.js"/>
<svg id="graph" class="graph">
<g id="viewport">
<title>Object.hpp</title>
<polygon fill="white" stroke="transparent" points="-4,4 -4,-416 1689,-416 1689,4 -4,4"/>
<!-- Node1 -->
<g id="node1" class="node">
<title>Node1</title>
<g id="a_node1"><a xlink:title=" ">
<polygon fill="#bfbfbf" stroke="black" points="845,-392.5 845,-411.5 914,-411.5 914,-392.5 845,-392.5"/>
<text text-anchor="middle" x="879.5" y="-399.5" font-family="Helvetica,sans-Serif" font-size="10.00">Object.hpp</text>
</a>
</g>
</g>
<!-- Node2 -->
<g id="node2" class="node">
<title>Node2</title>
<g id="a_node2"><a xlink:href="AbsMarchingPrimitives_8hpp.html" target="_top" xlink:title=" ">
<polygon fill="white" stroke="black" points="1199.5,-224.5 1199.5,-243.5 1349.5,-243.5 1349.5,-224.5 1199.5,-224.5"/>
<text text-anchor="middle" x="1274.5" y="-231.5" font-family="Helvetica,sans-Serif" font-size="10.00">AbsMarchingPrimitives.hpp</text>
</a>
</g>
</g>
<!-- Node1&#45;&gt;Node2 -->
<g id="edge1" class="edge">
<title>Node1&#45;&gt;Node2</title>
<path fill="none" stroke="midnightblue" d="M924.25,-398.64C1018.76,-393.24 1232.01,-378.65 1255.5,-356 1287.04,-325.6 1280.12,-265.77 1276.22,-243.57"/>
<polygon fill="midnightblue" stroke="midnightblue" points="923.92,-395.15 914.14,-399.21 924.32,-402.14 923.92,-395.15"/>
</g>
<!-- Node5 -->
<g id="node5" class="node">
<title>Node5</title>
<g id="a_node5"><a xlink:href="UnaryOperator_8hpp.html" target="_top" xlink:title=" ">
<polygon fill="white" stroke="black" points="241,-336.5 241,-355.5 350,-355.5 350,-336.5 241,-336.5"/>
<text text-anchor="middle" x="295.5" y="-343.5" font-family="Helvetica,sans-Serif" font-size="10.00">UnaryOperator.hpp</text>
</a>
</g>
</g>
<!-- Node1&#45;&gt;Node5 -->
<g id="edge4" class="edge">
<title>Node1&#45;&gt;Node5</title>
<path fill="none" stroke="midnightblue" d="M834.73,-397.73C745.26,-391.06 538.08,-374.9 364.5,-356 359.82,-355.49 354.96,-354.93 350.09,-354.34"/>
<polygon fill="midnightblue" stroke="midnightblue" points="834.56,-401.23 844.79,-398.48 835.08,-394.25 834.56,-401.23"/>
</g>
<!-- Node12 -->
<g id="node12" class="node">
<title>Node12</title>
<g id="a_node12"><a xlink:href="boundingBox_8hpp.html" target="_top" xlink:title=" ">
<polygon fill="white" stroke="black" points="426,-56.5 426,-75.5 527,-75.5 527,-56.5 426,-56.5"/>
<text text-anchor="middle" x="476.5" y="-63.5" font-family="Helvetica,sans-Serif" font-size="10.00">boundingBox.hpp</text>
</a>
</g>
</g>
<!-- Node1&#45;&gt;Node12 -->
<g id="edge14" class="edge">
<title>Node1&#45;&gt;Node12</title>
<path fill="none" stroke="midnightblue" d="M834.45,-400.64C711.37,-398.44 378.5,-383.91 378.5,-291 378.5,-291 378.5,-291 378.5,-177 378.5,-146.77 379.66,-135.63 398.5,-112 412.24,-94.76 434.51,-82.86 451.74,-75.65"/>
<polygon fill="midnightblue" stroke="midnightblue" points="834.61,-404.14 844.67,-400.8 834.73,-397.14 834.61,-404.14"/>
</g>
<!-- Node14 -->
<g id="node14" class="node">
<title>Node14</title>
<g id="a_node14"><a xlink:href="Ellipsoid_8hpp.html" target="_top" xlink:title=" ">
<polygon fill="white" stroke="black" points="693,-280.5 693,-299.5 772,-299.5 772,-280.5 693,-280.5"/>
<text text-anchor="middle" x="732.5" y="-287.5" font-family="Helvetica,sans-Serif" font-size="10.00">Ellipsoid.hpp</text>
</a>
</g>
</g>
<!-- Node1&#45;&gt;Node14 -->
<g id="edge16" class="edge">
<title>Node1&#45;&gt;Node14</title>
<path fill="none" stroke="midnightblue" d="M835.83,-389.14C815.29,-381.99 791.43,-371.25 773.5,-356 754.8,-340.1 741.8,-313.47 735.97,-299.76"/>
<polygon fill="midnightblue" stroke="midnightblue" points="835.01,-392.56 845.61,-392.37 837.21,-385.91 835.01,-392.56"/>
</g>
<!-- Node15 -->
<g id="node15" class="node">
<title>Node15</title>
<g id="a_node15"><a xlink:href="EmptyDomain_8hpp.html" target="_top" xlink:title=" ">
<polygon fill="white" stroke="black" points="883,-336.5 883,-355.5 990,-355.5 990,-336.5 883,-336.5"/>
<text text-anchor="middle" x="936.5" y="-343.5" font-family="Helvetica,sans-Serif" font-size="10.00">EmptyDomain.hpp</text>
</a>
</g>
</g>
<!-- Node1&#45;&gt;Node15 -->
<g id="edge17" class="edge">
<title>Node1&#45;&gt;Node15</title>
<path fill="none" stroke="midnightblue" d="M896.12,-385.25C906.23,-375.67 918.78,-363.79 927.18,-355.83"/>
<polygon fill="midnightblue" stroke="midnightblue" points="893.51,-382.91 888.66,-392.32 898.32,-387.99 893.51,-382.91"/>
</g>
<!-- Node16 -->
<g id="node16" class="node">
<title>Node16</title>
<g id="a_node16"><a xlink:href="InfiniteDomain_8hpp.html" target="_top" xlink:title=" ">
<polygon fill="white" stroke="black" points="1008.5,-336.5 1008.5,-355.5 1118.5,-355.5 1118.5,-336.5 1008.5,-336.5"/>
<text text-anchor="middle" x="1063.5" y="-343.5" font-family="Helvetica,sans-Serif" font-size="10.00">InfiniteDomain.hpp</text>
</a>
</g>
</g>
<!-- Node1&#45;&gt;Node16 -->
<g id="edge18" class="edge">
<title>Node1&#45;&gt;Node16</title>
<path fill="none" stroke="midnightblue" d="M918.45,-389.57C953.16,-379.38 1003.18,-364.7 1034.48,-355.52"/>
<polygon fill="midnightblue" stroke="midnightblue" points="917.27,-386.27 908.66,-392.44 919.24,-392.99 917.27,-386.27"/>
</g>
<!-- Node17 -->
<g id="node17" class="node">
<title>Node17</title>
<g id="a_node17"><a xlink:href="ObjectWrapper_8hpp.html" target="_top" xlink:title=" ">
<polygon fill="white" stroke="black" points="1136.5,-336.5 1136.5,-355.5 1246.5,-355.5 1246.5,-336.5 1136.5,-336.5"/>
<text text-anchor="middle" x="1191.5" y="-343.5" font-family="Helvetica,sans-Serif" font-size="10.00">ObjectWrapper.hpp</text>
</a>
</g>
</g>
<!-- Node1&#45;&gt;Node17 -->
<g id="edge19" class="edge">
<title>Node1&#45;&gt;Node17</title>
<path fill="none" stroke="midnightblue" d="M924,-393.3C981.74,-383.31 1082.15,-365.93 1142.16,-355.54"/>
<polygon fill="midnightblue" stroke="midnightblue" points="923.34,-389.86 914.08,-395.01 924.53,-396.76 923.34,-389.86"/>
</g>
<!-- Node18 -->
<g id="node18" class="node">
<title>Node18</title>
<g id="a_node18"><a xlink:href="Primitive_8hpp.html" target="_top" xlink:title=" ">
<polygon fill="white" stroke="black" points="782.5,-336.5 782.5,-355.5 864.5,-355.5 864.5,-336.5 782.5,-336.5"/>
<text text-anchor="middle" x="823.5" y="-343.5" font-family="Helvetica,sans-Serif" font-size="10.00">Primitive.hpp</text>
</a>
</g>
</g>
<!-- Node1&#45;&gt;Node18 -->
<g id="edge20" class="edge">
<title>Node1&#45;&gt;Node18</title>
<path fill="none" stroke="midnightblue" d="M863.17,-385.25C853.24,-375.67 840.91,-363.79 832.66,-355.83"/>
<polygon fill="midnightblue" stroke="midnightblue" points="860.87,-387.9 870.5,-392.32 865.73,-382.86 860.87,-387.9"/>
</g>
<!-- Node3 -->
<g id="node3" class="node">
<title>Node3</title>
<g id="a_node3"><a xlink:href="MarchingPrimitives_8hpp.html" target="_top" xlink:title=" ">
<polygon fill="white" stroke="black" points="1230.5,-168.5 1230.5,-187.5 1362.5,-187.5 1362.5,-168.5 1230.5,-168.5"/>
<text text-anchor="middle" x="1296.5" y="-175.5" font-family="Helvetica,sans-Serif" font-size="10.00">MarchingPrimitives.hpp</text>
</a>
</g>
</g>
<!-- Node2&#45;&gt;Node3 -->
<g id="edge2" class="edge">
<title>Node2&#45;&gt;Node3</title>
<path fill="none" stroke="midnightblue" d="M1281.96,-214.69C1285.67,-205.59 1289.98,-195.01 1292.93,-187.75"/>
<polygon fill="midnightblue" stroke="midnightblue" points="1278.66,-213.5 1278.13,-224.08 1285.15,-216.14 1278.66,-213.5"/>
</g>
<!-- Node4 -->
<g id="node4" class="node">
<title>Node4</title>
<g id="a_node4"><a xlink:href="MarchingCubes_8hpp.html" target="_top" xlink:title=" ">
<polygon fill="white" stroke="black" points="968,-112.5 968,-131.5 1081,-131.5 1081,-112.5 968,-112.5"/>
<text text-anchor="middle" x="1024.5" y="-119.5" font-family="Helvetica,sans-Serif" font-size="10.00">MarchingCubes.hpp</text>
</a>
</g>
</g>
<!-- Node3&#45;&gt;Node4 -->
<g id="edge3" class="edge">
<title>Node3&#45;&gt;Node4</title>
<path fill="none" stroke="midnightblue" d="M1243.48,-166.47C1192.07,-156.27 1115.06,-140.98 1067.4,-131.52"/>
<polygon fill="midnightblue" stroke="midnightblue" points="1242.91,-169.93 1253.4,-168.44 1244.27,-163.06 1242.91,-169.93"/>
</g>
<!-- Node6 -->
<g id="node6" class="node">
<title>Node6</title>
<g id="a_node6"><a xlink:href="BinaryOperator_8hpp.html" target="_top" xlink:title=" ">
<polygon fill="white" stroke="black" points="113,-280.5 113,-299.5 224,-299.5 224,-280.5 113,-280.5"/>
<text text-anchor="middle" x="168.5" y="-287.5" font-family="Helvetica,sans-Serif" font-size="10.00">BinaryOperator.hpp</text>
</a>
</g>
</g>
<!-- Node5&#45;&gt;Node6 -->
<g id="edge5" class="edge">
<title>Node5&#45;&gt;Node6</title>
<path fill="none" stroke="midnightblue" d="M266.11,-332.5C242.3,-322.38 209.39,-308.39 188.53,-299.52"/>
<polygon fill="midnightblue" stroke="midnightblue" points="264.8,-335.75 275.38,-336.44 267.54,-329.31 264.8,-335.75"/>
</g>
<!-- Node11 -->
<g id="node11" class="node">
<title>Node11</title>
<g id="a_node11"><a xlink:href="Complement_8hpp.html" target="_top" xlink:title=" ">
<polygon fill="white" stroke="black" points="247,-280.5 247,-299.5 348,-299.5 348,-280.5 247,-280.5"/>
<text text-anchor="middle" x="297.5" y="-287.5" font-family="Helvetica,sans-Serif" font-size="10.00">Complement.hpp</text>
</a>
</g>
</g>
<!-- Node5&#45;&gt;Node11 -->
<g id="edge12" class="edge">
<title>Node5&#45;&gt;Node11</title>
<path fill="none" stroke="midnightblue" d="M296.21,-325.8C296.54,-316.91 296.92,-306.78 297.18,-299.75"/>
<polygon fill="midnightblue" stroke="midnightblue" points="292.7,-325.96 295.83,-336.08 299.7,-326.22 292.7,-325.96"/>
</g>
<!-- Node7 -->
<g id="node7" class="node">
<title>Node7</title>
<g id="a_node7"><a xlink:href="Intersection_8hpp.html" target="_top" xlink:title=" ">
<polygon fill="white" stroke="black" points="196,-224.5 196,-243.5 291,-243.5 291,-224.5 196,-224.5"/>
<text text-anchor="middle" x="243.5" y="-231.5" font-family="Helvetica,sans-Serif" font-size="10.00">Intersection.hpp</text>
</a>
</g>
</g>
<!-- Node6&#45;&gt;Node7 -->
<g id="edge6" class="edge">
<title>Node6&#45;&gt;Node7</title>
<path fill="none" stroke="midnightblue" d="M188.81,-274.38C202.36,-264.62 219.74,-252.11 231.23,-243.83"/>
<polygon fill="midnightblue" stroke="midnightblue" points="186.62,-271.64 180.55,-280.32 190.71,-277.32 186.62,-271.64"/>
</g>
<!-- Node9 -->
<g id="node9" class="node">
<title>Node9</title>
<g id="a_node9"><a xlink:href="Subtraction_8hpp.html" target="_top" xlink:title=" ">
<polygon fill="white" stroke="black" points="0,-224.5 0,-243.5 93,-243.5 93,-224.5 0,-224.5"/>
<text text-anchor="middle" x="46.5" y="-231.5" font-family="Helvetica,sans-Serif" font-size="10.00">Subtraction.hpp</text>
</a>
</g>
</g>
<!-- Node6&#45;&gt;Node9 -->
<g id="edge8" class="edge">
<title>Node6&#45;&gt;Node9</title>
<path fill="none" stroke="midnightblue" d="M139.96,-276.37C117.11,-266.26 85.69,-252.35 65.74,-243.52"/>
<polygon fill="midnightblue" stroke="midnightblue" points="138.61,-279.6 149.17,-280.44 141.44,-273.2 138.61,-279.6"/>
</g>
<!-- Node10 -->
<g id="node10" class="node">
<title>Node10</title>
<g id="a_node10"><a xlink:href="Union_8hpp.html" target="_top" xlink:title=" ">
<polygon fill="white" stroke="black" points="111.5,-224.5 111.5,-243.5 177.5,-243.5 177.5,-224.5 111.5,-224.5"/>
<text text-anchor="middle" x="144.5" y="-231.5" font-family="Helvetica,sans-Serif" font-size="10.00">Union.hpp</text>
</a>
</g>
</g>
<!-- Node6&#45;&gt;Node10 -->
<g id="edge10" class="edge">
<title>Node6&#45;&gt;Node10</title>
<path fill="none" stroke="midnightblue" d="M160.36,-270.69C156.32,-261.59 151.62,-251.01 148.39,-243.75"/>
<polygon fill="midnightblue" stroke="midnightblue" points="157.28,-272.37 164.54,-280.08 163.67,-269.52 157.28,-272.37"/>
</g>
<!-- Node8 -->
<g id="node8" class="node">
<title>Node8</title>
<g id="a_node8"><a xlink:href="overloads_8hpp.html" target="_top" xlink:title=" ">
<polygon fill="white" stroke="black" points="151.5,-168.5 151.5,-187.5 237.5,-187.5 237.5,-168.5 151.5,-168.5"/>
<text text-anchor="middle" x="194.5" y="-175.5" font-family="Helvetica,sans-Serif" font-size="10.00">overloads.hpp</text>
</a>
</g>
</g>
<!-- Node7&#45;&gt;Node8 -->
<g id="edge7" class="edge">
<title>Node7&#45;&gt;Node8</title>
<path fill="none" stroke="midnightblue" d="M228.47,-216.43C219.88,-206.97 209.46,-195.48 202.44,-187.75"/>
<polygon fill="midnightblue" stroke="midnightblue" points="226.1,-219.03 235.41,-224.08 231.28,-214.33 226.1,-219.03"/>
</g>
<!-- Node9&#45;&gt;Node8 -->
<g id="edge9" class="edge">
<title>Node9&#45;&gt;Node8</title>
<path fill="none" stroke="midnightblue" d="M79.65,-220.91C107.47,-210.75 146.52,-196.51 171.16,-187.52"/>
<polygon fill="midnightblue" stroke="midnightblue" points="78.15,-217.73 69.95,-224.44 80.54,-224.3 78.15,-217.73"/>
</g>
<!-- Node10&#45;&gt;Node8 -->
<g id="edge11" class="edge">
<title>Node10&#45;&gt;Node8</title>
<path fill="none" stroke="midnightblue" d="M159.58,-216.72C168.39,-207.2 179.17,-195.56 186.4,-187.75"/>
<polygon fill="midnightblue" stroke="midnightblue" points="156.98,-214.37 152.76,-224.08 162.12,-219.12 156.98,-214.37"/>
</g>
<!-- Node11&#45;&gt;Node8 -->
<g id="edge13" class="edge">
<title>Node11&#45;&gt;Node8</title>
<path fill="none" stroke="midnightblue" d="M303.9,-270.24C307.42,-256.33 309.45,-237.53 300.5,-224 286.54,-202.91 260.5,-191.68 237.72,-185.71"/>
<polygon fill="midnightblue" stroke="midnightblue" points="300.45,-269.56 300.95,-280.14 307.16,-271.56 300.45,-269.56"/>
</g>
<!-- Node13 -->
<g id="node13" class="node">
<title>Node13</title>
<g id="a_node13"><a xlink:href="AABBoxNode_8hpp.html" target="_top" xlink:title=" ">
<polygon fill="white" stroke="black" points="523.5,-0.5 523.5,-19.5 625.5,-19.5 625.5,-0.5 523.5,-0.5"/>
<text text-anchor="middle" x="574.5" y="-7.5" font-family="Helvetica,sans-Serif" font-size="10.00">AABBoxNode.hpp</text>
</a>
</g>
</g>
<!-- Node12&#45;&gt;Node13 -->
<g id="edge15" class="edge">
<title>Node12&#45;&gt;Node13</title>
<path fill="none" stroke="midnightblue" d="M501.09,-51.45C519.18,-41.48 543.23,-28.23 558.79,-19.65"/>
<polygon fill="midnightblue" stroke="midnightblue" points="499.31,-48.43 492.25,-56.32 502.69,-54.56 499.31,-48.43"/>
</g>
<!-- Node18&#45;&gt;Node2 -->
<g id="edge21" class="edge">
<title>Node18&#45;&gt;Node2</title>
<path fill="none" stroke="midnightblue" d="M874.59,-336.02C971.26,-319.87 998.1,-323.22 1088.5,-300 1149.79,-284.26 1219.63,-257.32 1253.66,-243.59"/>
<polygon fill="midnightblue" stroke="midnightblue" points="873.96,-332.58 864.69,-337.7 875.14,-339.48 873.96,-332.58"/>
</g>
<!-- Node18&#45;&gt;Node14 -->
<g id="edge56" class="edge">
<title>Node18&#45;&gt;Node14</title>
<path fill="none" stroke="midnightblue" d="M800.21,-331.18C783.46,-321.24 761.4,-308.15 747.08,-299.65"/>
<polygon fill="midnightblue" stroke="midnightblue" points="798.49,-334.23 808.88,-336.32 802.07,-328.21 798.49,-334.23"/>
</g>
<!-- Node19 -->
<g id="node19" class="node">
<title>Node19</title>
<g id="a_node19"><a xlink:href="Box_8hpp.html" target="_top" xlink:title=" ">
<polygon fill="white" stroke="black" points="772.5,-224.5 772.5,-243.5 828.5,-243.5 828.5,-224.5 772.5,-224.5"/>
<text text-anchor="middle" x="800.5" y="-231.5" font-family="Helvetica,sans-Serif" font-size="10.00">Box.hpp</text>
</a>
</g>
</g>
<!-- Node18&#45;&gt;Node19 -->
<g id="edge22" class="edge">
<title>Node18&#45;&gt;Node19</title>
<path fill="none" stroke="midnightblue" d="M819.6,-326.35C814.56,-302.25 806,-261.31 802.3,-243.59"/>
<polygon fill="midnightblue" stroke="midnightblue" points="816.22,-327.3 821.7,-336.37 823.07,-325.86 816.22,-327.3"/>
</g>
<!-- Node27 -->
<g id="node27" class="node">
<title>Node27</title>
<g id="a_node27"><a xlink:href="primitives_2inc_2concepts_8hpp.html" target="_top" xlink:title=" ">
<polygon fill="white" stroke="black" points="968,-280.5 968,-299.5 1049,-299.5 1049,-280.5 968,-280.5"/>
<text text-anchor="middle" x="1008.5" y="-287.5" font-family="Helvetica,sans-Serif" font-size="10.00">concepts.hpp</text>
</a>
</g>
</g>
<!-- Node18&#45;&gt;Node27 -->
<g id="edge34" class="edge">
<title>Node18&#45;&gt;Node27</title>
<path fill="none" stroke="midnightblue" d="M862.67,-333.57C897.57,-323.38 947.85,-308.7 979.32,-299.52"/>
<polygon fill="midnightblue" stroke="midnightblue" points="861.43,-330.28 852.81,-336.44 863.39,-337 861.43,-330.28"/>
</g>
<!-- Node28 -->
<g id="node28" class="node">
<title>Node28</title>
<g id="a_node28"><a xlink:href="Cube_8hpp.html" target="_top" xlink:title=" ">
<polygon fill="white" stroke="black" points="887.5,-224.5 887.5,-243.5 949.5,-243.5 949.5,-224.5 887.5,-224.5"/>
<text text-anchor="middle" x="918.5" y="-231.5" font-family="Helvetica,sans-Serif" font-size="10.00">Cube.hpp</text>
</a>
</g>
</g>
<!-- Node18&#45;&gt;Node28 -->
<g id="edge55" class="edge">
<title>Node18&#45;&gt;Node28</title>
<path fill="none" stroke="midnightblue" d="M864.95,-332.64C881.35,-325.66 898.8,-315.21 909.5,-300 921.43,-283.04 920.95,-257.34 919.67,-243.9"/>
<polygon fill="midnightblue" stroke="midnightblue" points="863.51,-329.45 855.48,-336.36 866.06,-335.97 863.51,-329.45"/>
</g>
<!-- Node29 -->
<g id="node29" class="node">
<title>Node29</title>
<g id="a_node29"><a xlink:href="AbsCell_8hpp.html" target="_top" xlink:title=" ">
<polygon fill="white" stroke="black" points="1107.5,-224.5 1107.5,-243.5 1181.5,-243.5 1181.5,-224.5 1107.5,-224.5"/>
<text text-anchor="middle" x="1144.5" y="-231.5" font-family="Helvetica,sans-Serif" font-size="10.00">AbsCell.hpp</text>
</a>
</g>
</g>
<!-- Node18&#45;&gt;Node29 -->
<g id="edge58" class="edge">
<title>Node18&#45;&gt;Node29</title>
<path fill="none" stroke="midnightblue" d="M874.52,-335.84C941.08,-323.8 1050.11,-303.73 1058.5,-300 1090.31,-285.86 1121.3,-257.96 1135.86,-243.75"/>
<polygon fill="midnightblue" stroke="midnightblue" points="873.84,-332.4 864.62,-337.63 875.09,-339.29 873.84,-332.4"/>
</g>
<!-- Node36 -->
<g id="node36" class="node">
<title>Node36</title>
<g id="a_node36"><a xlink:href="Sphere_8hpp.html" target="_top" xlink:title=" ">
<polygon fill="white" stroke="black" points="829,-280.5 829,-299.5 900,-299.5 900,-280.5 829,-280.5"/>
<text text-anchor="middle" x="864.5" y="-287.5" font-family="Helvetica,sans-Serif" font-size="10.00">Sphere.hpp</text>
</a>
</g>
</g>
<!-- Node18&#45;&gt;Node36 -->
<g id="edge57" class="edge">
<title>Node18&#45;&gt;Node36</title>
<path fill="none" stroke="midnightblue" d="M836.52,-327.86C843.62,-318.5 852.1,-307.33 857.86,-299.75"/>
<polygon fill="midnightblue" stroke="midnightblue" points="833.53,-326 830.27,-336.08 839.11,-330.24 833.53,-326"/>
</g>
<!-- Node19&#45;&gt;Node4 -->
<g id="edge23" class="edge">
<title>Node19&#45;&gt;Node4</title>
<path fill="none" stroke="midnightblue" d="M762.21,-232.42C695.11,-230.52 560.61,-222.39 531.5,-188 525.76,-181.22 525.51,-174.56 531.5,-168 560.44,-136.3 844.37,-126.67 967.75,-123.97"/>
<polygon fill="midnightblue" stroke="midnightblue" points="762.29,-235.93 772.38,-232.68 762.47,-228.93 762.29,-235.93"/>
</g>
<!-- Node20 -->
<g id="node20" class="node">
<title>Node20</title>
<g id="a_node20"><a xlink:href="AABBox_8hpp.html" target="_top" xlink:title=" ">
<polygon fill="white" stroke="black" points="407,-168.5 407,-187.5 484,-187.5 484,-168.5 407,-168.5"/>
<text text-anchor="middle" x="445.5" y="-175.5" font-family="Helvetica,sans-Serif" font-size="10.00">AABBox.hpp</text>
</a>
</g>
</g>
<!-- Node19&#45;&gt;Node20 -->
<g id="edge24" class="edge">
<title>Node19&#45;&gt;Node20</title>
<path fill="none" stroke="midnightblue" d="M762.09,-227.53C704.68,-219.3 593.12,-203.08 498.5,-188 493.89,-187.27 489.06,-186.47 484.27,-185.68"/>
<polygon fill="midnightblue" stroke="midnightblue" points="761.76,-231.02 772.16,-228.97 762.75,-224.09 761.76,-231.02"/>
</g>
<!-- Node22 -->
<g id="node22" class="node">
<title>Node22</title>
<g id="a_node22"><a xlink:href="cartesianmesh_8hpp.html" target="_top" xlink:title=" ">
<polygon fill="white" stroke="black" points="540.5,-168.5 540.5,-187.5 650.5,-187.5 650.5,-168.5 540.5,-168.5"/>
<text text-anchor="middle" x="595.5" y="-175.5" font-family="Helvetica,sans-Serif" font-size="10.00">cartesianmesh.hpp</text>
</a>
</g>
</g>
<!-- Node19&#45;&gt;Node22 -->
<g id="edge28" class="edge">
<title>Node19&#45;&gt;Node22</title>
<path fill="none" stroke="midnightblue" d="M762.58,-223.01C723.91,-212.83 664.54,-197.18 627.96,-187.55"/>
<polygon fill="midnightblue" stroke="midnightblue" points="761.86,-226.44 772.43,-225.6 763.65,-219.67 761.86,-226.44"/>
</g>
<!-- Node23 -->
<g id="node23" class="node">
<title>Node23</title>
<g id="a_node23"><a xlink:href="CartesianGridSampler_8hpp.html" target="_top" xlink:title=" ">
<polygon fill="white" stroke="black" points="956.5,-168.5 956.5,-187.5 1100.5,-187.5 1100.5,-168.5 956.5,-168.5"/>
<text text-anchor="middle" x="1028.5" y="-175.5" font-family="Helvetica,sans-Serif" font-size="10.00">CartesianGridSampler.hpp</text>
</a>
</g>
</g>
<!-- Node19&#45;&gt;Node23 -->
<g id="edge29" class="edge">
<title>Node19&#45;&gt;Node23</title>
<path fill="none" stroke="midnightblue" d="M838.7,-223.95C881.59,-213.8 950.65,-197.44 992.58,-187.51"/>
<polygon fill="midnightblue" stroke="midnightblue" points="837.84,-220.56 828.92,-226.27 839.45,-227.37 837.84,-220.56"/>
</g>
<!-- Node24 -->
<g id="node24" class="node">
<title>Node24</title>
<g id="a_node24"><a xlink:href="Cell_8hpp.html" target="_top" xlink:title=" ">
<polygon fill="white" stroke="black" points="1156.5,-168.5 1156.5,-187.5 1212.5,-187.5 1212.5,-168.5 1156.5,-168.5"/>
<text text-anchor="middle" x="1184.5" y="-175.5" font-family="Helvetica,sans-Serif" font-size="10.00">Cell.hpp</text>
</a>
</g>
</g>
<!-- Node19&#45;&gt;Node24 -->
<g id="edge30" class="edge">
<title>Node19&#45;&gt;Node24</title>
<path fill="none" stroke="midnightblue" d="M838.99,-227.59C916.3,-216.72 1088.8,-192.46 1156.48,-182.94"/>
<polygon fill="midnightblue" stroke="midnightblue" points="838.15,-224.17 828.74,-229.03 839.13,-231.1 838.15,-224.17"/>
</g>
<!-- Node25 -->
<g id="node25" class="node">
<title>Node25</title>
<g id="a_node25"><a xlink:href="ContiguousSpaceTree_8hpp.html" target="_top" xlink:title=" ">
<polygon fill="white" stroke="black" points="668.5,-168.5 668.5,-187.5 810.5,-187.5 810.5,-168.5 668.5,-168.5"/>
<text text-anchor="middle" x="739.5" y="-175.5" font-family="Helvetica,sans-Serif" font-size="10.00">ContiguousSpaceTree.hpp</text>
</a>
</g>
</g>
<!-- Node19&#45;&gt;Node25 -->
<g id="edge32" class="edge">
<title>Node19&#45;&gt;Node25</title>
<path fill="none" stroke="midnightblue" d="M783.03,-217.54C772.16,-207.91 758.56,-195.87 749.48,-187.83"/>
<polygon fill="midnightblue" stroke="midnightblue" points="780.89,-220.32 790.7,-224.32 785.53,-215.07 780.89,-220.32"/>
</g>
<!-- Node26 -->
<g id="node26" class="node">
<title>Node26</title>
<g id="a_node26"><a xlink:href="CornerSampler_8hpp.html" target="_top" xlink:title=" ">
<polygon fill="white" stroke="black" points="828.5,-168.5 828.5,-187.5 938.5,-187.5 938.5,-168.5 828.5,-168.5"/>
<text text-anchor="middle" x="883.5" y="-175.5" font-family="Helvetica,sans-Serif" font-size="10.00">CornerSampler.hpp</text>
</a>
</g>
</g>
<!-- Node19&#45;&gt;Node26 -->
<g id="edge33" class="edge">
<title>Node19&#45;&gt;Node26</title>
<path fill="none" stroke="midnightblue" d="M822.6,-218.62C837.76,-208.76 857.38,-195.99 870.2,-187.65"/>
<polygon fill="midnightblue" stroke="midnightblue" points="820.31,-215.94 813.84,-224.32 824.13,-221.8 820.31,-215.94"/>
</g>
<!-- Node20&#45;&gt;Node13 -->
<g id="edge25" class="edge">
<title>Node20&#45;&gt;Node13</title>
<path fill="none" stroke="midnightblue" d="M494.04,-168.44C516.05,-162.06 540.46,-151.02 555.5,-132 582.41,-97.97 578.5,-41.34 575.8,-19.74"/>
<polygon fill="midnightblue" stroke="midnightblue" points="492.92,-165.11 484.14,-171.05 494.71,-171.88 492.92,-165.11"/>
</g>
<!-- Node21 -->
<g id="node21" class="node">
<title>Node21</title>
<g id="a_node21"><a xlink:href="AbsBoundableObject_8hpp.html" target="_top" xlink:title=" ">
<polygon fill="white" stroke="black" points="407,-112.5 407,-131.5 546,-131.5 546,-112.5 407,-112.5"/>
<text text-anchor="middle" x="476.5" y="-119.5" font-family="Helvetica,sans-Serif" font-size="10.00">AbsBoundableObject.hpp</text>
</a>
</g>
</g>
<!-- Node20&#45;&gt;Node21 -->
<g id="edge26" class="edge">
<title>Node20&#45;&gt;Node21</title>
<path fill="none" stroke="midnightblue" d="M455.68,-159.27C460.97,-150.05 467.22,-139.17 471.48,-131.75"/>
<polygon fill="midnightblue" stroke="midnightblue" points="452.56,-157.67 450.62,-168.08 458.63,-161.15 452.56,-157.67"/>
</g>
<!-- Node21&#45;&gt;Node12 -->
<g id="edge27" class="edge">
<title>Node21&#45;&gt;Node12</title>
<path fill="none" stroke="midnightblue" d="M476.5,-101.8C476.5,-92.91 476.5,-82.78 476.5,-75.75"/>
<polygon fill="midnightblue" stroke="midnightblue" points="473,-102.08 476.5,-112.08 480,-102.08 473,-102.08"/>
</g>
<!-- Node24&#45;&gt;Node13 -->
<g id="edge31" class="edge">
<title>Node24&#45;&gt;Node13</title>
<path fill="none" stroke="midnightblue" d="M1167.05,-161.59C1149.1,-146.6 1119.72,-124.33 1090.5,-112 929.43,-44.06 720.6,-21.25 625.59,-14.07"/>
<polygon fill="midnightblue" stroke="midnightblue" points="1165.01,-164.46 1174.89,-168.29 1169.56,-159.14 1165.01,-164.46"/>
</g>
<!-- Node27&#45;&gt;Node2 -->
<g id="edge35" class="edge">
<title>Node27&#45;&gt;Node2</title>
<path fill="none" stroke="midnightblue" d="M1059.19,-278.71C1109.44,-268.51 1185.52,-253.06 1232.5,-243.53"/>
<polygon fill="midnightblue" stroke="midnightblue" points="1058.29,-275.32 1049.19,-280.74 1059.69,-282.18 1058.29,-275.32"/>
</g>
<!-- Node27&#45;&gt;Node19 -->
<g id="edge36" class="edge">
<title>Node27&#45;&gt;Node19</title>
<path fill="none" stroke="midnightblue" d="M965.82,-277.92C924.78,-267.27 863.93,-251.47 828.63,-242.3"/>
<polygon fill="midnightblue" stroke="midnightblue" points="964.98,-281.32 975.54,-280.44 966.74,-274.54 964.98,-281.32"/>
</g>
<!-- Node27&#45;&gt;Node28 -->
<g id="edge37" class="edge">
<title>Node27&#45;&gt;Node28</title>
<path fill="none" stroke="midnightblue" d="M985.46,-275.18C968.9,-265.24 947.08,-252.15 932.92,-243.65"/>
<polygon fill="midnightblue" stroke="midnightblue" points="983.66,-278.18 994.04,-280.32 987.27,-272.18 983.66,-278.18"/>
</g>
<!-- Node27&#45;&gt;Node29 -->
<g id="edge44" class="edge">
<title>Node27&#45;&gt;Node29</title>
<path fill="none" stroke="midnightblue" d="M1039.63,-276.64C1065.16,-266.5 1100.61,-252.43 1123.05,-243.52"/>
<polygon fill="midnightblue" stroke="midnightblue" points="1038.05,-273.5 1030.05,-280.44 1040.64,-280.01 1038.05,-273.5"/>
</g>
<!-- Node31 -->
<g id="node31" class="node">
<title>Node31</title>
<g id="a_node31"><a xlink:href="PrimitiveSampler_8hpp.html" target="_top" xlink:title=" ">
<polygon fill="white" stroke="black" points="967.5,-224.5 967.5,-243.5 1089.5,-243.5 1089.5,-224.5 967.5,-224.5"/>
<text text-anchor="middle" x="1028.5" y="-231.5" font-family="Helvetica,sans-Serif" font-size="10.00">PrimitiveSampler.hpp</text>
</a>
</g>
</g>
<!-- Node27&#45;&gt;Node31 -->
<g id="edge47" class="edge">
<title>Node27&#45;&gt;Node31</title>
<path fill="none" stroke="midnightblue" d="M1015.28,-270.69C1018.65,-261.59 1022.57,-251.01 1025.26,-243.75"/>
<polygon fill="midnightblue" stroke="midnightblue" points="1011.99,-269.49 1011.8,-280.08 1018.56,-271.92 1011.99,-269.49"/>
</g>
<!-- Node28&#45;&gt;Node4 -->
<g id="edge38" class="edge">
<title>Node28&#45;&gt;Node4</title>
<path fill="none" stroke="midnightblue" d="M959.75,-223.61C1015.54,-210.87 1108.32,-189.49 1109.5,-188 1129.22,-163.09 1084.67,-142.46 1052.91,-131.5"/>
<polygon fill="midnightblue" stroke="midnightblue" points="958.76,-220.25 949.79,-225.89 960.32,-227.07 958.76,-220.25"/>
</g>
<!-- Node28&#45;&gt;Node22 -->
<g id="edge39" class="edge">
<title>Node28&#45;&gt;Node22</title>
<path fill="none" stroke="midnightblue" d="M877.18,-226.09C818.31,-216.25 710.35,-198.2 646.55,-187.53"/>
<polygon fill="midnightblue" stroke="midnightblue" points="876.8,-229.58 887.24,-227.77 877.95,-222.67 876.8,-229.58"/>
</g>
<!-- Node28&#45;&gt;Node23 -->
<g id="edge40" class="edge">
<title>Node28&#45;&gt;Node23</title>
<path fill="none" stroke="midnightblue" d="M945.26,-219.86C965.66,-209.85 993.17,-196.35 1010.87,-187.65"/>
<polygon fill="midnightblue" stroke="midnightblue" points="943.61,-216.78 936.17,-224.32 946.69,-223.06 943.61,-216.78"/>
</g>
<!-- Node28&#45;&gt;Node24 -->
<g id="edge41" class="edge">
<title>Node28&#45;&gt;Node24</title>
<path fill="none" stroke="midnightblue" d="M960.18,-223.69C1041.76,-206.66 1064.06,-204.08 1142.5,-188 1146.88,-187.1 1151.52,-186.13 1156.05,-185.17"/>
<polygon fill="midnightblue" stroke="midnightblue" points="958.99,-220.36 949.92,-225.84 960.43,-227.21 958.99,-220.36"/>
</g>
<!-- Node28&#45;&gt;Node25 -->
<g id="edge42" class="edge">
<title>Node28&#45;&gt;Node25</title>
<path fill="none" stroke="midnightblue" d="M880.17,-221.44C846.42,-211.26 798.05,-196.66 767.73,-187.52"/>
<polygon fill="midnightblue" stroke="midnightblue" points="879.55,-224.91 890.14,-224.44 881.57,-218.2 879.55,-224.91"/>
</g>
<!-- Node28&#45;&gt;Node26 -->
<g id="edge43" class="edge">
<title>Node28&#45;&gt;Node26</title>
<path fill="none" stroke="midnightblue" d="M907.2,-215.57C901.18,-206.27 894.03,-195.25 889.17,-187.75"/>
<polygon fill="midnightblue" stroke="midnightblue" points="904.34,-217.6 912.72,-224.08 910.22,-213.79 904.34,-217.6"/>
</g>
<!-- Node29&#45;&gt;Node24 -->
<g id="edge45" class="edge">
<title>Node29&#45;&gt;Node24</title>
<path fill="none" stroke="midnightblue" d="M1157.2,-215.86C1164.13,-206.5 1172.41,-195.33 1178.02,-187.75"/>
<polygon fill="midnightblue" stroke="midnightblue" points="1154.25,-213.96 1151.11,-224.08 1159.87,-218.13 1154.25,-213.96"/>
</g>
<!-- Node30 -->
<g id="node30" class="node">
<title>Node30</title>
<g id="a_node30"><a xlink:href="SpaceTreeNode_8hpp.html" target="_top" xlink:title=" ">
<polygon fill="white" stroke="black" points="1572,-112.5 1572,-131.5 1685,-131.5 1685,-112.5 1572,-112.5"/>
<text text-anchor="middle" x="1628.5" y="-119.5" font-family="Helvetica,sans-Serif" font-size="10.00">SpaceTreeNode.hpp</text>
</a>
</g>
</g>
<!-- Node29&#45;&gt;Node30 -->
<g id="edge46" class="edge">
<title>Node29&#45;&gt;Node30</title>
<path fill="none" stroke="midnightblue" d="M1191.77,-223.92C1319.32,-204.53 1356.6,-220.89 1477.5,-188 1529,-173.99 1585.83,-145.76 1612.73,-131.57"/>
<polygon fill="midnightblue" stroke="midnightblue" points="1190.96,-220.51 1181.62,-225.51 1192.04,-227.42 1190.96,-220.51"/>
</g>
<!-- Node31&#45;&gt;Node23 -->
<g id="edge48" class="edge">
<title>Node31&#45;&gt;Node23</title>
<path fill="none" stroke="midnightblue" d="M1028.5,-213.8C1028.5,-204.91 1028.5,-194.78 1028.5,-187.75"/>
<polygon fill="midnightblue" stroke="midnightblue" points="1025,-214.08 1028.5,-224.08 1032,-214.08 1025,-214.08"/>
</g>
<!-- Node31&#45;&gt;Node26 -->
<g id="edge49" class="edge">
<title>Node31&#45;&gt;Node26</title>
<path fill="none" stroke="midnightblue" d="M996.02,-220.91C968.76,-210.75 930.51,-196.51 906.37,-187.52"/>
<polygon fill="midnightblue" stroke="midnightblue" points="994.93,-224.23 1005.52,-224.44 997.37,-217.67 994.93,-224.23"/>
</g>
<!-- Node32 -->
<g id="node32" class="node">
<title>Node32</title>
<g id="a_node32"><a xlink:href="SplitPolicy_8hpp.html" target="_top" xlink:title=" ">
<polygon fill="white" stroke="black" points="1381,-168.5 1381,-187.5 1468,-187.5 1468,-168.5 1381,-168.5"/>
<text text-anchor="middle" x="1424.5" y="-175.5" font-family="Helvetica,sans-Serif" font-size="10.00">SplitPolicy.hpp</text>
</a>
</g>
</g>
<!-- Node31&#45;&gt;Node32 -->
<g id="edge50" class="edge">
<title>Node31&#45;&gt;Node32</title>
<path fill="none" stroke="midnightblue" d="M1099.79,-223.79C1192.37,-211.81 1345.31,-191.94 1371.5,-188 1374.55,-187.54 1377.69,-187.05 1380.85,-186.55"/>
<polygon fill="midnightblue" stroke="midnightblue" points="1099.11,-220.35 1089.64,-225.11 1100,-227.29 1099.11,-220.35"/>
</g>
<!-- Node32&#45;&gt;Node30 -->
<g id="edge53" class="edge">
<title>Node32&#45;&gt;Node30</title>
<path fill="none" stroke="midnightblue" d="M1466.7,-165.83C1505.22,-155.63 1561.32,-140.78 1596.33,-131.52"/>
<polygon fill="midnightblue" stroke="midnightblue" points="1465.6,-162.5 1456.82,-168.44 1467.39,-169.27 1465.6,-162.5"/>
</g>
<!-- Node33 -->
<g id="node33" class="node">
<title>Node33</title>
<g id="a_node33"><a xlink:href="LinearSplitPolicy_8hpp.html" target="_top" xlink:title=" ">
<polygon fill="white" stroke="black" points="1437,-112.5 1437,-131.5 1554,-131.5 1554,-112.5 1437,-112.5"/>
<text text-anchor="middle" x="1495.5" y="-119.5" font-family="Helvetica,sans-Serif" font-size="10.00">LinearSplitPolicy.hpp</text>
</a>
</g>
</g>
<!-- Node32&#45;&gt;Node33 -->
<g id="edge51" class="edge">
<title>Node32&#45;&gt;Node33</title>
<path fill="none" stroke="midnightblue" d="M1444.09,-162.1C1456.87,-152.38 1473.11,-140.03 1483.89,-131.83"/>
<polygon fill="midnightblue" stroke="midnightblue" points="1441.75,-159.48 1435.91,-168.32 1445.99,-165.06 1441.75,-159.48"/>
</g>
<!-- Node34 -->
<g id="node34" class="node">
<title>Node34</title>
<g id="a_node34"><a xlink:href="MidPointSplitPolicy_8hpp.html" target="_top" xlink:title=" ">
<polygon fill="white" stroke="black" points="1137.5,-112.5 1137.5,-131.5 1267.5,-131.5 1267.5,-112.5 1137.5,-112.5"/>
<text text-anchor="middle" x="1202.5" y="-119.5" font-family="Helvetica,sans-Serif" font-size="10.00">MidPointSplitPolicy.hpp</text>
</a>
</g>
</g>
<!-- Node32&#45;&gt;Node34 -->
<g id="edge52" class="edge">
<title>Node32&#45;&gt;Node34</title>
<path fill="none" stroke="midnightblue" d="M1379.38,-166.02C1337.44,-155.82 1275.85,-140.84 1237.51,-131.52"/>
<polygon fill="midnightblue" stroke="midnightblue" points="1378.78,-169.48 1389.32,-168.44 1380.43,-162.68 1378.78,-169.48"/>
</g>
<!-- Node35 -->
<g id="node35" class="node">
<title>Node35</title>
<g id="a_node35"><a xlink:href="WeightedSplitPolicy_8hpp.html" target="_top" xlink:title=" ">
<polygon fill="white" stroke="black" points="1286,-112.5 1286,-131.5 1419,-131.5 1419,-112.5 1286,-112.5"/>
<text text-anchor="middle" x="1352.5" y="-119.5" font-family="Helvetica,sans-Serif" font-size="10.00">WeightedSplitPolicy.hpp</text>
</a>
</g>
</g>
<!-- Node32&#45;&gt;Node35 -->
<g id="edge54" class="edge">
<title>Node32&#45;&gt;Node35</title>
<path fill="none" stroke="midnightblue" d="M1404.63,-162.1C1391.68,-152.38 1375.2,-140.03 1364.28,-131.83"/>
<polygon fill="midnightblue" stroke="midnightblue" points="1402.83,-165.12 1412.93,-168.32 1407.03,-159.52 1402.83,-165.12"/>
</g>
</g>
</svg>
        <g id="navigator" transform="translate(0 0)" fill="#404254">
                <rect fill="#f2f5e9" fill-opacity="0.5" stroke="#606060" stroke-width=".5" x="0" y="0" width="60" height="60"/>
                <use id="zoomplus" xlink:href="#zoomPlus" x="17" y="9" onmousedown="handleZoom(evt,'in')"/>
                <use id="zoomminus" xlink:href="#zoomMin" x="42" y="9" onmousedown="handleZoom(evt,'out')"/>
                <use id="reset" xlink:href="#resetDef" x="30" y="36" onmousedown="handleReset()"/>
                <g id="arrowUp" xlink:href="#dirArrow" transform="translate(30 24)" onmousedown="handlePan(0,-1)">
                  <use xlink:href="#rim" fill="#404040">
                        <set attributeName="fill" to="#808080" begin="arrowUp.mouseover" end="arrowUp.mouseout"/>
                  </use>
                  <path fill="none" stroke="white" stroke-width="1.5" d="M0,-3.0v7 M-2.5,-0.5L0,-3.0L2.5,-0.5"/>
                </g>
                <g id="arrowRight" xlink:href="#dirArrow" transform="rotate(90) translate(36 -43)" onmousedown="handlePan(1,0)">
                  <use xlink:href="#rim" fill="#404040">
                        <set attributeName="fill" to="#808080" begin="arrowRight.mouseover" end="arrowRight.mouseout"/>
                  </use>
                  <path fill="none" stroke="white" stroke-width="1.5" d="M0,-3.0v7 M-2.5,-0.5L0,-3.0L2.5,-0.5"/>
                </g>
                <g id="arrowDown" xlink:href="#dirArrow" transform="rotate(180) translate(-30 -48)" onmousedown="handlePan(0,1)">
                  <use xlink:href="#rim" fill="#404040">
                        <set attributeName="fill" to="#808080" begin="arrowDown.mouseover" end="arrowDown.mouseout"/>
                  </use>
                  <path fill="none" stroke="white" stroke-width="1.5" d="M0,-3.0v7 M-2.5,-0.5L0,-3.0L2.5,-0.5"/>
                </g>
                <g id="arrowLeft" xlink:href="#dirArrow" transform="rotate(270) translate(-36 17)" onmousedown="handlePan(-1,0)">
                  <use xlink:href="#rim" fill="#404040">
                        <set attributeName="fill" to="#808080" begin="arrowLeft.mouseover" end="arrowLeft.mouseout"/>
                  </use>
                  <path fill="none" stroke="white" stroke-width="1.5" d="M0,-3.0v7 M-2.5,-0.5L0,-3.0L2.5,-0.5"/>
                </g>
        </g>
        <svg viewBox="0 0 15 15" width="100%" height="30px" preserveAspectRatio="xMaxYMin meet">
         <g id="arrow_out" transform="scale(0.3 0.3)">
          <a xlink:href="Object_8hpp__dep__incl_org.svg" target="_base">
           <rect id="button" ry="5" rx="5" y="6" x="6" height="38" width="38"
                fill="#f2f5e9" fill-opacity="0.5" stroke="#606060" stroke-width="1.0"/>
           <path id="arrow"
             d="M 11.500037,31.436501 C 11.940474,20.09759 22.043105,11.32322 32.158766,21.979434 L 37.068811,17.246167 C 37.068811,17.246167 37.088388,32 37.088388,32 L 22.160133,31.978069 C 22.160133,31.978069 26.997745,27.140456 26.997745,27.140456 C 18.528582,18.264221 13.291696,25.230495 11.500037,31.436501 z"
             style="fill:#404040;"/>
          </a>
         </g>
        </svg>
</svg>
