<?xml version="1.0" encoding="UTF-8" standalone="no"?>
<!DOCTYPE svg PUBLIC "-//W3C//DTD SVG 1.1//EN"
 "http://www.w3.org/Graphics/SVG/1.1/DTD/svg11.dtd">
<!-- Generated by graphviz version 2.43.0 (0)
 -->
<!-- Title: overloads.hpp Pages: 1 -->
<!--zoomable 463 -->
<svg id="main" version="1.1" xmlns="http://www.w3.org/2000/svg" xmlns:xlink="http://www.w3.org/1999/xlink" xml:space="preserve" onload="init(evt)">
<style type="text/css"><![CDATA[
.edge:hover path { stroke: red; }
.edge:hover polygon { stroke: red; fill: red; }
]]></style>
<script type="text/javascript"><![CDATA[
var edges = document.getElementsByTagName('g');
if (edges && edges.length) {
  for (var i=0;i<edges.length;i++) {
    if (edges[i].id.substr(0,4)=='edge') {
      edges[i].setAttribute('class','edge');
    }
  }
}
]]></script>
        <defs>
                <circle id="rim" cx="0" cy="0" r="7"/>
                <circle id="rim2" cx="0" cy="0" r="3.5"/>
                <g id="zoomPlus">
                        <use xlink:href="#rim" fill="#404040">
                                <set attributeName="fill" to="#808080" begin="zoomplus.mouseover" end="zoomplus.mouseout"/>
                        </use>
                        <path d="M-4,0h8M0,-4v8" fill="none" stroke="white" stroke-width="1.5" pointer-events="none"/>
                </g>
                <g id="zoomMin">
                        <use xlink:href="#rim" fill="#404040">
                                <set attributeName="fill" to="#808080" begin="zoomminus.mouseover" end="zoomminus.mouseout"/>
                        </use>
                        <path d="M-4,0h8" fill="none" stroke="white" stroke-width="1.5" pointer-events="none"/>
                </g>
                <g id="dirArrow">
                        <path fill="none" stroke="white" stroke-width="1.5" d="M0,-3.0v7 M-2.5,-0.5L0,-3.0L2.5,-0.5"/>
                </g>
               <g id="resetDef">
                       <use xlink:href="#rim2" fill="#404040">
                               <set attributeName="fill" to="#808080" begin="reset.mouseover" end="reset.mouseout"/>
                       </use>
               </g>
        </defs>

<script type="text/javascript">
var viewWidth = 1345;
var viewHeight = 463;
var sectionId = 'dynsection-0';
</script>
<script xlink:href="svgpan.js"/>
<svg id="graph" class="graph">
<g id="viewport">
<title>overloads.hpp</title>
<polygon fill="white" stroke="transparent" points="-4,4 -4,-459 1340.5,-459 1340.5,4 -4,4"/>
<!-- Node1 -->
<g id="node1" class="node">
<title>Node1</title>
<g id="a_node1"><a xlink:title=" ">
<polygon fill="#bfbfbf" stroke="black" points="918.5,-435.5 918.5,-454.5 1004.5,-454.5 1004.5,-435.5 918.5,-435.5"/>
<text text-anchor="middle" x="961.5" y="-442.5" font-family="Helvetica,sans-Serif" font-size="10.00">overloads.hpp</text>
</a>
</g>
</g>
<!-- Node2 -->
<g id="node2" class="node">
<title>Node2</title>
<g id="a_node2"><a xlink:href="Complement_8hpp.html" target="_top" xlink:title=" ">
<polygon fill="white" stroke="black" points="452,-301.5 452,-331.5 573,-331.5 573,-301.5 452,-301.5"/>
<text text-anchor="start" x="460" y="-319.5" font-family="Helvetica,sans-Serif" font-size="10.00">packages/operators</text>
<text text-anchor="middle" x="512.5" y="-308.5" font-family="Helvetica,sans-Serif" font-size="10.00">/inc/Complement.hpp</text>
</a>
</g>
</g>
<!-- Node1&#45;&gt;Node2 -->
<g id="edge1" class="edge">
<title>Node1&#45;&gt;Node2</title>
<path fill="none" stroke="midnightblue" d="M918.29,-437.08C873.42,-429.46 801.41,-415.99 740.5,-399 675.43,-380.84 602.2,-353.37 556.71,-335.42"/>
<polygon fill="midnightblue" stroke="midnightblue" points="557.74,-332.07 547.15,-331.64 555.16,-338.58 557.74,-332.07"/>
</g>
<!-- Node15 -->
<g id="node15" class="node">
<title>Node15</title>
<g id="a_node15"><a xlink:href="Intersection_8hpp.html" target="_top" xlink:title=" ">
<polygon fill="white" stroke="black" points="903.5,-368.5 903.5,-398.5 1019.5,-398.5 1019.5,-368.5 903.5,-368.5"/>
<text text-anchor="start" x="911.5" y="-386.5" font-family="Helvetica,sans-Serif" font-size="10.00">packages/operators</text>
<text text-anchor="middle" x="961.5" y="-375.5" font-family="Helvetica,sans-Serif" font-size="10.00">/inc/Intersection.hpp</text>
</a>
</g>
</g>
<!-- Node1&#45;&gt;Node15 -->
<g id="edge18" class="edge">
<title>Node1&#45;&gt;Node15</title>
<path fill="none" stroke="midnightblue" d="M961.5,-435.48C961.5,-428.47 961.5,-418.19 961.5,-408.7"/>
<polygon fill="midnightblue" stroke="midnightblue" points="965,-408.52 961.5,-398.52 958,-408.52 965,-408.52"/>
</g>
<!-- Node19 -->
<g id="node19" class="node">
<title>Node19</title>
<g id="a_node19"><a xlink:href="Union_8hpp.html" target="_top" xlink:title=" ">
<polygon fill="white" stroke="black" points="749.5,-368.5 749.5,-398.5 861.5,-398.5 861.5,-368.5 749.5,-368.5"/>
<text text-anchor="start" x="757.5" y="-386.5" font-family="Helvetica,sans-Serif" font-size="10.00">packages/operators</text>
<text text-anchor="middle" x="805.5" y="-375.5" font-family="Helvetica,sans-Serif" font-size="10.00">/inc/Union.hpp</text>
</a>
</g>
</g>
<!-- Node1&#45;&gt;Node19 -->
<g id="edge24" class="edge">
<title>Node1&#45;&gt;Node19</title>
<path fill="none" stroke="midnightblue" d="M939.15,-435.48C916.44,-426.81 880.6,-413.15 851.75,-402.14"/>
<polygon fill="midnightblue" stroke="midnightblue" points="852.86,-398.82 842.27,-398.52 850.36,-405.36 852.86,-398.82"/>
</g>
<!-- Node21 -->
<g id="node21" class="node">
<title>Node21</title>
<g id="a_node21"><a xlink:href="Subtraction_8hpp.html" target="_top" xlink:title=" ">
<polygon fill="white" stroke="black" points="1038,-368.5 1038,-398.5 1151,-398.5 1151,-368.5 1038,-368.5"/>
<text text-anchor="start" x="1046" y="-386.5" font-family="Helvetica,sans-Serif" font-size="10.00">packages/operators</text>
<text text-anchor="middle" x="1094.5" y="-375.5" font-family="Helvetica,sans-Serif" font-size="10.00">/inc/Subtraction.hpp</text>
</a>
</g>
</g>
<!-- Node1&#45;&gt;Node21 -->
<g id="edge28" class="edge">
<title>Node1&#45;&gt;Node21</title>
<path fill="none" stroke="midnightblue" d="M980.56,-435.48C999.58,-426.96 1029.41,-413.62 1053.78,-402.72"/>
<polygon fill="midnightblue" stroke="midnightblue" points="1055.46,-405.8 1063.15,-398.52 1052.6,-399.41 1055.46,-405.8"/>
</g>
<!-- Node23 -->
<g id="node23" class="node">
<title>Node23</title>
<g id="a_node23"><a xlink:title=" ">
<polygon fill="white" stroke="#bfbfbf" points="1169.5,-368.5 1169.5,-398.5 1309.5,-398.5 1309.5,-368.5 1169.5,-368.5"/>
<text text-anchor="start" x="1177.5" y="-386.5" font-family="Helvetica,sans-Serif" font-size="10.00">packages/operators</text>
<text text-anchor="middle" x="1239.5" y="-375.5" font-family="Helvetica,sans-Serif" font-size="10.00">/impl/overloads_impl.hpp</text>
</a>
</g>
</g>
<!-- Node1&#45;&gt;Node23 -->
<g id="edge32" class="edge">
<title>Node1&#45;&gt;Node23</title>
<path fill="none" stroke="midnightblue" d="M1001.33,-435.48C1043.64,-426.42 1111.54,-411.89 1164.03,-400.65"/>
<polygon fill="midnightblue" stroke="midnightblue" points="1164.93,-404.04 1173.98,-398.52 1163.47,-397.19 1164.93,-404.04"/>
</g>
<!-- Node3 -->
<g id="node3" class="node">
<title>Node3</title>
<g id="a_node3"><a xlink:href="UnaryOperator_8hpp.html" target="_top" xlink:title=" ">
<polygon fill="white" stroke="black" points="495,-229 495,-259 624,-259 624,-229 495,-229"/>
<text text-anchor="start" x="503" y="-247" font-family="Helvetica,sans-Serif" font-size="10.00">packages/operators</text>
<text text-anchor="middle" x="559.5" y="-236" font-family="Helvetica,sans-Serif" font-size="10.00">/inc/UnaryOperator.hpp</text>
</a>
</g>
</g>
<!-- Node2&#45;&gt;Node3 -->
<g id="edge2" class="edge">
<title>Node2&#45;&gt;Node3</title>
<path fill="none" stroke="midnightblue" d="M522.01,-301.23C528.45,-291.58 537.08,-278.63 544.44,-267.59"/>
<polygon fill="midnightblue" stroke="midnightblue" points="547.37,-269.51 550,-259.25 541.54,-265.62 547.37,-269.51"/>
</g>
<!-- Node11 -->
<g id="node11" class="node">
<title>Node11</title>
<g id="a_node11"><a xlink:title=" ">
<polygon fill="white" stroke="#bfbfbf" points="688.5,-84 688.5,-103 746.5,-103 746.5,-84 688.5,-84"/>
<text text-anchor="middle" x="717.5" y="-91" font-family="Helvetica,sans-Serif" font-size="10.00">memory</text>
</a>
</g>
</g>
<!-- Node2&#45;&gt;Node11 -->
<g id="edge16" class="edge">
<title>Node2&#45;&gt;Node11</title>
<path fill="none" stroke="midnightblue" d="M502.43,-301.26C496.2,-291.55 488.79,-278.12 485.5,-265 479.3,-240.27 491.95,-145.61 492.5,-145 549.26,-82.22 598.1,-132.17 679.5,-109 682.08,-108.26 684.74,-107.43 687.39,-106.53"/>
<polygon fill="midnightblue" stroke="midnightblue" points="688.59,-109.82 696.81,-103.14 686.22,-103.24 688.59,-109.82"/>
</g>
<!-- Node14 -->
<g id="node14" class="node">
<title>Node14</title>
<g id="a_node14"><a xlink:title=" ">
<polygon fill="white" stroke="#bfbfbf" points="283,-229 283,-259 438,-259 438,-229 283,-229"/>
<text text-anchor="start" x="291" y="-247" font-family="Helvetica,sans-Serif" font-size="10.00">packages/operators</text>
<text text-anchor="middle" x="360.5" y="-236" font-family="Helvetica,sans-Serif" font-size="10.00">/impl/Complement_impl.hpp</text>
</a>
</g>
</g>
<!-- Node2&#45;&gt;Node14 -->
<g id="edge17" class="edge">
<title>Node2&#45;&gt;Node14</title>
<path fill="none" stroke="midnightblue" d="M482.11,-301.4C458.49,-290.45 425.57,-275.18 399.93,-263.29"/>
<polygon fill="midnightblue" stroke="midnightblue" points="401.39,-260.11 390.84,-259.07 398.44,-266.46 401.39,-260.11"/>
</g>
<!-- Node4 -->
<g id="node4" class="node">
<title>Node4</title>
<g id="a_node4"><a xlink:href="Object_8hpp.html" target="_top" xlink:title=" ">
<polygon fill="white" stroke="black" points="323,-151 323,-181 438,-181 438,-151 323,-151"/>
<text text-anchor="start" x="331" y="-169" font-family="Helvetica,sans-Serif" font-size="10.00">packages/primitives</text>
<text text-anchor="middle" x="380.5" y="-158" font-family="Helvetica,sans-Serif" font-size="10.00">/inc/Object.hpp</text>
</a>
</g>
</g>
<!-- Node3&#45;&gt;Node4 -->
<g id="edge3" class="edge">
<title>Node3&#45;&gt;Node4</title>
<path fill="none" stroke="midnightblue" d="M526.25,-228.88C497.11,-216.51 454.6,-198.46 423,-185.04"/>
<polygon fill="midnightblue" stroke="midnightblue" points="424.14,-181.73 413.57,-181.04 421.41,-188.17 424.14,-181.73"/>
</g>
<!-- Node13 -->
<g id="node13" class="node">
<title>Node13</title>
<g id="a_node13"><a xlink:title=" ">
<polygon fill="white" stroke="#bfbfbf" points="501.5,-145.5 501.5,-186.5 617.5,-186.5 617.5,-145.5 501.5,-145.5"/>
<text text-anchor="start" x="509.5" y="-174.5" font-family="Helvetica,sans-Serif" font-size="10.00">packages/operators</text>
<text text-anchor="start" x="509.5" y="-163.5" font-family="Helvetica,sans-Serif" font-size="10.00">/impl/UnaryOperator</text>
<text text-anchor="middle" x="559.5" y="-152.5" font-family="Helvetica,sans-Serif" font-size="10.00">_impl.hpp</text>
</a>
</g>
</g>
<!-- Node3&#45;&gt;Node13 -->
<g id="edge15" class="edge">
<title>Node3&#45;&gt;Node13</title>
<path fill="none" stroke="midnightblue" d="M559.5,-228.7C559.5,-219.71 559.5,-207.77 559.5,-196.79"/>
<polygon fill="midnightblue" stroke="midnightblue" points="563,-196.68 559.5,-186.68 556,-196.68 563,-196.68"/>
</g>
<!-- Node5 -->
<g id="node5" class="node">
<title>Node5</title>
<g id="a_node5"><a target="_parent" xlink:href="../../../cieutils/docs/html/container__concepts_8hpp.html.html" xlink:title=" ">
<polygon fill="white" stroke="black" points="0,-0.5 0,-41.5 135,-41.5 135,-0.5 0,-0.5"/>
<text text-anchor="start" x="8" y="-29.5" font-family="Helvetica,sans-Serif" font-size="10.00">packages/compile_time</text>
<text text-anchor="start" x="8" y="-18.5" font-family="Helvetica,sans-Serif" font-size="10.00">/packages/concepts/inc</text>
<text text-anchor="middle" x="67.5" y="-7.5" font-family="Helvetica,sans-Serif" font-size="10.00">/container_concepts.hpp</text>
</a>
</g>
</g>
<!-- Node4&#45;&gt;Node5 -->
<g id="edge4" class="edge">
<title>Node4&#45;&gt;Node5</title>
<path fill="none" stroke="midnightblue" d="M326.89,-150.94C292.57,-141.09 247.5,-126.57 209.5,-109 171.73,-91.54 131.55,-66.21 103.6,-47.38"/>
<polygon fill="midnightblue" stroke="midnightblue" points="105.21,-44.25 94.98,-41.52 101.28,-50.04 105.21,-44.25"/>
</g>
<!-- Node6 -->
<g id="node6" class="node">
<title>Node6</title>
<g id="a_node6"><a target="_parent" xlink:href="../../../cieutils/docs/html/typedefs_8hpp.html.html" xlink:title=" ">
<polygon fill="white" stroke="black" points="409,-78.5 409,-108.5 528,-108.5 528,-78.5 409,-78.5"/>
<text text-anchor="start" x="417" y="-96.5" font-family="Helvetica,sans-Serif" font-size="10.00">packages/macros/inc</text>
<text text-anchor="middle" x="468.5" y="-85.5" font-family="Helvetica,sans-Serif" font-size="10.00">/typedefs.hpp</text>
</a>
</g>
</g>
<!-- Node4&#45;&gt;Node6 -->
<g id="edge5" class="edge">
<title>Node4&#45;&gt;Node6</title>
<path fill="none" stroke="midnightblue" d="M398.31,-150.73C411.15,-140.44 428.69,-126.4 443.01,-114.92"/>
<polygon fill="midnightblue" stroke="midnightblue" points="445.4,-117.49 451.02,-108.5 441.03,-112.03 445.4,-117.49"/>
</g>
<!-- Node7 -->
<g id="node7" class="node">
<title>Node7</title>
<g id="a_node7"><a target="_parent" xlink:href="../../../cieutils/docs/html/types_8hpp.html.html" xlink:title=" ">
<polygon fill="white" stroke="black" points="153.5,-6 153.5,-36 263.5,-36 263.5,-6 153.5,-6"/>
<text text-anchor="start" x="161.5" y="-24" font-family="Helvetica,sans-Serif" font-size="10.00">packages/types/inc</text>
<text text-anchor="middle" x="208.5" y="-13" font-family="Helvetica,sans-Serif" font-size="10.00">/types.hpp</text>
</a>
</g>
</g>
<!-- Node4&#45;&gt;Node7 -->
<g id="edge6" class="edge">
<title>Node4&#45;&gt;Node7</title>
<path fill="none" stroke="midnightblue" d="M322.99,-157.71C290.45,-150.61 251.58,-136.6 227.5,-109 212.48,-91.78 208.47,-65.44 207.76,-46.26"/>
<polygon fill="midnightblue" stroke="midnightblue" points="211.26,-46.14 207.67,-36.17 204.26,-46.2 211.26,-46.14"/>
</g>
<!-- Node8 -->
<g id="node8" class="node">
<title>Node8</title>
<g id="a_node8"><a xlink:href="Traits_8hpp.html" target="_top" xlink:title=" ">
<polygon fill="white" stroke="black" points="237,-78.5 237,-108.5 352,-108.5 352,-78.5 237,-78.5"/>
<text text-anchor="start" x="245" y="-96.5" font-family="Helvetica,sans-Serif" font-size="10.00">packages/primitives</text>
<text text-anchor="middle" x="294.5" y="-85.5" font-family="Helvetica,sans-Serif" font-size="10.00">/inc/Traits.hpp</text>
</a>
</g>
</g>
<!-- Node4&#45;&gt;Node8 -->
<g id="edge7" class="edge">
<title>Node4&#45;&gt;Node8</title>
<path fill="none" stroke="midnightblue" d="M363.1,-150.73C350.54,-140.44 333.41,-126.4 319.41,-114.92"/>
<polygon fill="midnightblue" stroke="midnightblue" points="321.54,-112.14 311.58,-108.5 317.1,-117.55 321.54,-112.14"/>
</g>
<!-- Node10 -->
<g id="node10" class="node">
<title>Node10</title>
<g id="a_node10"><a xlink:title=" ">
<polygon fill="white" stroke="#bfbfbf" points="431.5,-11.5 431.5,-30.5 473.5,-30.5 473.5,-11.5 431.5,-11.5"/>
<text text-anchor="middle" x="452.5" y="-18.5" font-family="Helvetica,sans-Serif" font-size="10.00">array</text>
</a>
</g>
</g>
<!-- Node4&#45;&gt;Node10 -->
<g id="edge13" class="edge">
<title>Node4&#45;&gt;Node10</title>
<path fill="none" stroke="midnightblue" d="M381.25,-150.95C382.72,-133.06 387,-101.64 399.5,-78 407.86,-62.19 421.92,-47.64 433.47,-37.33"/>
<polygon fill="midnightblue" stroke="midnightblue" points="435.99,-39.78 441.31,-30.61 431.43,-34.46 435.99,-39.78"/>
</g>
<!-- Node4&#45;&gt;Node11 -->
<g id="edge12" class="edge">
<title>Node4&#45;&gt;Node11</title>
<path fill="none" stroke="midnightblue" d="M427.95,-151C436.1,-148.83 444.51,-146.74 452.5,-145 552.32,-123.3 580.81,-135.35 679.5,-109 682.16,-108.29 684.89,-107.46 687.61,-106.56"/>
<polygon fill="midnightblue" stroke="midnightblue" points="689.01,-109.78 697.25,-103.12 686.65,-103.19 689.01,-109.78"/>
</g>
<!-- Node12 -->
<g id="node12" class="node">
<title>Node12</title>
<g id="a_node12"><a xlink:title=" ">
<polygon fill="white" stroke="#bfbfbf" points="546.5,-78.5 546.5,-108.5 670.5,-108.5 670.5,-78.5 546.5,-78.5"/>
<text text-anchor="start" x="554.5" y="-96.5" font-family="Helvetica,sans-Serif" font-size="10.00">packages/primitives</text>
<text text-anchor="middle" x="608.5" y="-85.5" font-family="Helvetica,sans-Serif" font-size="10.00">/impl/Object_impl.hpp</text>
</a>
</g>
</g>
<!-- Node4&#45;&gt;Node12 -->
<g id="edge14" class="edge">
<title>Node4&#45;&gt;Node12</title>
<path fill="none" stroke="midnightblue" d="M425.82,-150.99C462.45,-139.66 514.17,-123.67 553.24,-111.59"/>
<polygon fill="midnightblue" stroke="midnightblue" points="554.36,-114.9 562.88,-108.61 552.29,-108.22 554.36,-114.9"/>
</g>
<!-- Node8&#45;&gt;Node5 -->
<g id="edge9" class="edge">
<title>Node8&#45;&gt;Node5</title>
<path fill="none" stroke="midnightblue" d="M249.38,-78.49C218.3,-68.83 176.31,-55.79 140.5,-44.67"/>
<polygon fill="midnightblue" stroke="midnightblue" points="141.17,-41.22 130.58,-41.59 139.1,-47.9 141.17,-41.22"/>
</g>
<!-- Node8&#45;&gt;Node7 -->
<g id="edge8" class="edge">
<title>Node8&#45;&gt;Node7</title>
<path fill="none" stroke="midnightblue" d="M277.1,-78.23C264.54,-67.94 247.41,-53.9 233.41,-42.42"/>
<polygon fill="midnightblue" stroke="midnightblue" points="235.54,-39.64 225.58,-36 231.1,-45.05 235.54,-39.64"/>
</g>
<!-- Node9 -->
<g id="node9" class="node">
<title>Node9</title>
<g id="a_node9"><a target="_parent" xlink:href="../../../cieutils/docs/html/StaticArray_8hpp.html.html" xlink:title=" ">
<polygon fill="white" stroke="black" points="282,-6 282,-36 413,-36 413,-6 282,-6"/>
<text text-anchor="start" x="290" y="-24" font-family="Helvetica,sans-Serif" font-size="10.00">packages/stl_extension</text>
<text text-anchor="middle" x="347.5" y="-13" font-family="Helvetica,sans-Serif" font-size="10.00">/inc/StaticArray.hpp</text>
</a>
</g>
</g>
<!-- Node8&#45;&gt;Node9 -->
<g id="edge10" class="edge">
<title>Node8&#45;&gt;Node9</title>
<path fill="none" stroke="midnightblue" d="M305.23,-78.23C312.55,-68.49 322.41,-55.37 330.76,-44.26"/>
<polygon fill="midnightblue" stroke="midnightblue" points="333.58,-46.34 336.79,-36.25 327.98,-42.14 333.58,-46.34"/>
</g>
<!-- Node8&#45;&gt;Node10 -->
<g id="edge11" class="edge">
<title>Node8&#45;&gt;Node10</title>
<path fill="none" stroke="midnightblue" d="M335.72,-78.42C361.01,-69.22 393.76,-56.29 421.5,-42 424.95,-40.22 428.5,-38.17 431.91,-36.07"/>
<polygon fill="midnightblue" stroke="midnightblue" points="433.96,-38.91 440.46,-30.55 430.16,-33.03 433.96,-38.91"/>
</g>
<!-- Node15&#45;&gt;Node11 -->
<g id="edge22" class="edge">
<title>Node15&#45;&gt;Node11</title>
<path fill="none" stroke="midnightblue" d="M1019.86,-368.99C1054.38,-359.68 1093.32,-346.43 1103.5,-332 1116.1,-314.15 1120.24,-252.26 1097.5,-223 1013.75,-115.26 835.57,-97.17 756.59,-94.61"/>
<polygon fill="midnightblue" stroke="midnightblue" points="756.66,-91.11 746.57,-94.35 756.48,-98.11 756.66,-91.11"/>
</g>
<!-- Node16 -->
<g id="node16" class="node">
<title>Node16</title>
<g id="a_node16"><a xlink:href="BinaryOperator_8hpp.html" target="_top" xlink:title=" ">
<polygon fill="white" stroke="black" points="963,-301.5 963,-331.5 1094,-331.5 1094,-301.5 963,-301.5"/>
<text text-anchor="start" x="971" y="-319.5" font-family="Helvetica,sans-Serif" font-size="10.00">packages/operators</text>
<text text-anchor="middle" x="1028.5" y="-308.5" font-family="Helvetica,sans-Serif" font-size="10.00">/inc/BinaryOperator.hpp</text>
</a>
</g>
</g>
<!-- Node15&#45;&gt;Node16 -->
<g id="edge19" class="edge">
<title>Node15&#45;&gt;Node16</title>
<path fill="none" stroke="midnightblue" d="M976.04,-368.4C984.99,-359.71 996.64,-348.4 1006.69,-338.66"/>
<polygon fill="midnightblue" stroke="midnightblue" points="1009.25,-341.05 1013.99,-331.58 1004.38,-336.03 1009.25,-341.05"/>
</g>
<!-- Node18 -->
<g id="node18" class="node">
<title>Node18</title>
<g id="a_node18"><a xlink:title=" ">
<polygon fill="white" stroke="#bfbfbf" points="794.5,-301.5 794.5,-331.5 944.5,-331.5 944.5,-301.5 794.5,-301.5"/>
<text text-anchor="start" x="802.5" y="-319.5" font-family="Helvetica,sans-Serif" font-size="10.00">packages/operators</text>
<text text-anchor="middle" x="869.5" y="-308.5" font-family="Helvetica,sans-Serif" font-size="10.00">/impl/Intersection_impl.hpp</text>
</a>
</g>
</g>
<!-- Node15&#45;&gt;Node18 -->
<g id="edge23" class="edge">
<title>Node15&#45;&gt;Node18</title>
<path fill="none" stroke="midnightblue" d="M941.54,-368.4C928.76,-359.37 911.98,-347.51 897.83,-337.52"/>
<polygon fill="midnightblue" stroke="midnightblue" points="899.61,-334.49 889.42,-331.58 895.57,-340.21 899.61,-334.49"/>
</g>
<!-- Node16&#45;&gt;Node3 -->
<g id="edge20" class="edge">
<title>Node16&#45;&gt;Node3</title>
<path fill="none" stroke="midnightblue" d="M962.68,-302.58C959.58,-302.03 956.51,-301.5 953.5,-301 842.8,-282.44 713.93,-264.89 634.54,-254.53"/>
<polygon fill="midnightblue" stroke="midnightblue" points="634.51,-251 624.15,-253.18 633.61,-257.94 634.51,-251"/>
</g>
<!-- Node17 -->
<g id="node17" class="node">
<title>Node17</title>
<g id="a_node17"><a xlink:title=" ">
<polygon fill="white" stroke="#bfbfbf" points="969,-223.5 969,-264.5 1088,-264.5 1088,-223.5 969,-223.5"/>
<text text-anchor="start" x="977" y="-252.5" font-family="Helvetica,sans-Serif" font-size="10.00">packages/operators</text>
<text text-anchor="start" x="977" y="-241.5" font-family="Helvetica,sans-Serif" font-size="10.00">/impl/BinaryOperator</text>
<text text-anchor="middle" x="1028.5" y="-230.5" font-family="Helvetica,sans-Serif" font-size="10.00">_impl.hpp</text>
</a>
</g>
</g>
<!-- Node16&#45;&gt;Node17 -->
<g id="edge21" class="edge">
<title>Node16&#45;&gt;Node17</title>
<path fill="none" stroke="midnightblue" d="M1028.5,-301.23C1028.5,-293.57 1028.5,-283.84 1028.5,-274.63"/>
<polygon fill="midnightblue" stroke="midnightblue" points="1032,-274.59 1028.5,-264.59 1025,-274.59 1032,-274.59"/>
</g>
<!-- Node19&#45;&gt;Node11 -->
<g id="edge26" class="edge">
<title>Node19&#45;&gt;Node11</title>
<path fill="none" stroke="midnightblue" d="M749.23,-372.04C708.34,-363.16 658.07,-349.15 645.5,-332 618.93,-295.75 683.5,-160.81 708.3,-112.14"/>
<polygon fill="midnightblue" stroke="midnightblue" points="711.47,-113.63 712.94,-103.13 705.25,-110.42 711.47,-113.63"/>
</g>
<!-- Node19&#45;&gt;Node16 -->
<g id="edge25" class="edge">
<title>Node19&#45;&gt;Node16</title>
<path fill="none" stroke="midnightblue" d="M853.61,-368.48C887.79,-358.51 933.86,-345.09 970.13,-334.51"/>
<polygon fill="midnightblue" stroke="midnightblue" points="971.47,-337.77 980.09,-331.61 969.51,-331.05 971.47,-337.77"/>
</g>
<!-- Node20 -->
<g id="node20" class="node">
<title>Node20</title>
<g id="a_node20"><a xlink:title=" ">
<polygon fill="white" stroke="#bfbfbf" points="655,-301.5 655,-331.5 776,-331.5 776,-301.5 655,-301.5"/>
<text text-anchor="start" x="663" y="-319.5" font-family="Helvetica,sans-Serif" font-size="10.00">packages/operators</text>
<text text-anchor="middle" x="715.5" y="-308.5" font-family="Helvetica,sans-Serif" font-size="10.00">/impl/Union_impl.hpp</text>
</a>
</g>
</g>
<!-- Node19&#45;&gt;Node20 -->
<g id="edge27" class="edge">
<title>Node19&#45;&gt;Node20</title>
<path fill="none" stroke="midnightblue" d="M785.97,-368.4C773.47,-359.37 757.06,-347.51 743.22,-337.52"/>
<polygon fill="midnightblue" stroke="midnightblue" points="745.15,-334.59 734.99,-331.58 741.05,-340.27 745.15,-334.59"/>
</g>
<!-- Node21&#45;&gt;Node11 -->
<g id="edge30" class="edge">
<title>Node21&#45;&gt;Node11</title>
<path fill="none" stroke="midnightblue" d="M1104.57,-368.26C1110.8,-358.55 1118.21,-345.12 1121.5,-332 1126.78,-310.93 1127.26,-243.61 1118.5,-223 1099.68,-178.74 1086.17,-167.18 1043.5,-145 994.18,-119.36 832.21,-103.57 756.79,-97.43"/>
<polygon fill="midnightblue" stroke="midnightblue" points="756.99,-93.94 746.74,-96.63 756.43,-100.91 756.99,-93.94"/>
</g>
<!-- Node21&#45;&gt;Node16 -->
<g id="edge29" class="edge">
<title>Node21&#45;&gt;Node16</title>
<path fill="none" stroke="midnightblue" d="M1080.18,-368.4C1071.36,-359.71 1059.88,-348.4 1049.98,-338.66"/>
<polygon fill="midnightblue" stroke="midnightblue" points="1052.37,-336.1 1042.79,-331.58 1047.46,-341.09 1052.37,-336.1"/>
</g>
<!-- Node22 -->
<g id="node22" class="node">
<title>Node22</title>
<g id="a_node22"><a xlink:title=" ">
<polygon fill="white" stroke="#bfbfbf" points="1188.5,-301.5 1188.5,-331.5 1336.5,-331.5 1336.5,-301.5 1188.5,-301.5"/>
<text text-anchor="start" x="1196.5" y="-319.5" font-family="Helvetica,sans-Serif" font-size="10.00">packages/operators</text>
<text text-anchor="middle" x="1262.5" y="-308.5" font-family="Helvetica,sans-Serif" font-size="10.00">/impl/Subtraction_impl.hpp</text>
</a>
</g>
</g>
<!-- Node21&#45;&gt;Node22 -->
<g id="edge31" class="edge">
<title>Node21&#45;&gt;Node22</title>
<path fill="none" stroke="midnightblue" d="M1130.95,-368.4C1156.05,-358.69 1189.59,-345.71 1216.52,-335.29"/>
<polygon fill="midnightblue" stroke="midnightblue" points="1218.05,-338.45 1226.12,-331.58 1215.53,-331.92 1218.05,-338.45"/>
</g>
</g>
</svg>
        <g id="navigator" transform="translate(0 0)" fill="#404254">
                <rect fill="#f2f5e9" fill-opacity="0.5" stroke="#606060" stroke-width=".5" x="0" y="0" width="60" height="60"/>
                <use id="zoomplus" xlink:href="#zoomPlus" x="17" y="9" onmousedown="handleZoom(evt,'in')"/>
                <use id="zoomminus" xlink:href="#zoomMin" x="42" y="9" onmousedown="handleZoom(evt,'out')"/>
                <use id="reset" xlink:href="#resetDef" x="30" y="36" onmousedown="handleReset()"/>
                <g id="arrowUp" xlink:href="#dirArrow" transform="translate(30 24)" onmousedown="handlePan(0,-1)">
                  <use xlink:href="#rim" fill="#404040">
                        <set attributeName="fill" to="#808080" begin="arrowUp.mouseover" end="arrowUp.mouseout"/>
                  </use>
                  <path fill="none" stroke="white" stroke-width="1.5" d="M0,-3.0v7 M-2.5,-0.5L0,-3.0L2.5,-0.5"/>
                </g>
                <g id="arrowRight" xlink:href="#dirArrow" transform="rotate(90) translate(36 -43)" onmousedown="handlePan(1,0)">
                  <use xlink:href="#rim" fill="#404040">
                        <set attributeName="fill" to="#808080" begin="arrowRight.mouseover" end="arrowRight.mouseout"/>
                  </use>
                  <path fill="none" stroke="white" stroke-width="1.5" d="M0,-3.0v7 M-2.5,-0.5L0,-3.0L2.5,-0.5"/>
                </g>
                <g id="arrowDown" xlink:href="#dirArrow" transform="rotate(180) translate(-30 -48)" onmousedown="handlePan(0,1)">
                  <use xlink:href="#rim" fill="#404040">
                        <set attributeName="fill" to="#808080" begin="arrowDown.mouseover" end="arrowDown.mouseout"/>
                  </use>
                  <path fill="none" stroke="white" stroke-width="1.5" d="M0,-3.0v7 M-2.5,-0.5L0,-3.0L2.5,-0.5"/>
                </g>
                <g id="arrowLeft" xlink:href="#dirArrow" transform="rotate(270) translate(-36 17)" onmousedown="handlePan(-1,0)">
                  <use xlink:href="#rim" fill="#404040">
                        <set attributeName="fill" to="#808080" begin="arrowLeft.mouseover" end="arrowLeft.mouseout"/>
                  </use>
                  <path fill="none" stroke="white" stroke-width="1.5" d="M0,-3.0v7 M-2.5,-0.5L0,-3.0L2.5,-0.5"/>
                </g>
        </g>
        <svg viewBox="0 0 15 15" width="100%" height="30px" preserveAspectRatio="xMaxYMin meet">
         <g id="arrow_out" transform="scale(0.3 0.3)">
          <a xlink:href="overloads_8hpp__incl_org.svg" target="_base">
           <rect id="button" ry="5" rx="5" y="6" x="6" height="38" width="38"
                fill="#f2f5e9" fill-opacity="0.5" stroke="#606060" stroke-width="1.0"/>
           <path id="arrow"
             d="M 11.500037,31.436501 C 11.940474,20.09759 22.043105,11.32322 32.158766,21.979434 L 37.068811,17.246167 C 37.068811,17.246167 37.088388,32 37.088388,32 L 22.160133,31.978069 C 22.160133,31.978069 26.997745,27.140456 26.997745,27.140456 C 18.528582,18.264221 13.291696,25.230495 11.500037,31.436501 z"
             style="fill:#404040;"/>
          </a>
         </g>
        </svg>
</svg>
