<?xml version="1.0" encoding="UTF-8" standalone="no"?>
<!DOCTYPE svg PUBLIC "-//W3C//DTD SVG 1.1//EN"
 "http://www.w3.org/Graphics/SVG/1.1/DTD/svg11.dtd">
<!-- Generated by graphviz version 2.43.0 (0)
 -->
<!-- Title: PrimitiveSampler.hpp Pages: 1 -->
<svg width="621pt" height="385pt"
 viewBox="0.00 0.00 621.00 385.00" xmlns="http://www.w3.org/2000/svg" xmlns:xlink="http://www.w3.org/1999/xlink">
<g id="graph0" class="graph" transform="scale(1 1) rotate(0) translate(4 381)">
<title>PrimitiveSampler.hpp</title>
<polygon fill="white" stroke="transparent" points="-4,4 -4,-381 617,-381 617,4 -4,4"/>
<!-- Node1 -->
<g id="node1" class="node">
<title>Node1</title>
<g id="a_node1"><a xlink:title=" ">
<polygon fill="#bfbfbf" stroke="black" points="398.5,-357.5 398.5,-376.5 520.5,-376.5 520.5,-357.5 398.5,-357.5"/>
<text text-anchor="middle" x="459.5" y="-364.5" font-family="Helvetica,sans-Serif" font-size="10.00">PrimitiveSampler.hpp</text>
</a>
</g>
</g>
<!-- Node2 -->
<g id="node2" class="node">
<title>Node2</title>
<g id="a_node2"><a target="_parent" xlink:href="../../../cieutils/docs/html/basic__concepts_8hpp.html.html" xlink:title=" ">
<polygon fill="white" stroke="black" points="393.5,-145.5 393.5,-186.5 525.5,-186.5 525.5,-145.5 393.5,-145.5"/>
<text text-anchor="start" x="401.5" y="-174.5" font-family="Helvetica,sans-Serif" font-size="10.00">packages/compile_time</text>
<text text-anchor="start" x="401.5" y="-163.5" font-family="Helvetica,sans-Serif" font-size="10.00">/packages/concepts/inc</text>
<text text-anchor="middle" x="459.5" y="-152.5" font-family="Helvetica,sans-Serif" font-size="10.00">/basic_concepts.hpp</text>
</a>
</g>
</g>
<!-- Node1&#45;&gt;Node2 -->
<g id="edge1" class="edge">
<title>Node1&#45;&gt;Node2</title>
<path fill="none" stroke="midnightblue" d="M459.5,-357.45C459.5,-329.98 459.5,-243.08 459.5,-196.76"/>
<polygon fill="midnightblue" stroke="midnightblue" points="463,-196.72 459.5,-186.72 456,-196.72 463,-196.72"/>
</g>
<!-- Node3 -->
<g id="node3" class="node">
<title>Node3</title>
<g id="a_node3"><a xlink:href="primitives_2inc_2concepts_8hpp.html" target="_top" xlink:title=" ">
<polygon fill="white" stroke="black" points="288,-290.5 288,-320.5 403,-320.5 403,-290.5 288,-290.5"/>
<text text-anchor="start" x="296" y="-308.5" font-family="Helvetica,sans-Serif" font-size="10.00">packages/primitives</text>
<text text-anchor="middle" x="345.5" y="-297.5" font-family="Helvetica,sans-Serif" font-size="10.00">/inc/concepts.hpp</text>
</a>
</g>
</g>
<!-- Node1&#45;&gt;Node3 -->
<g id="edge2" class="edge">
<title>Node1&#45;&gt;Node3</title>
<path fill="none" stroke="midnightblue" d="M443.17,-357.48C427.08,-349.08 401.97,-335.97 381.24,-325.15"/>
<polygon fill="midnightblue" stroke="midnightblue" points="382.85,-322.05 372.37,-320.52 379.61,-328.25 382.85,-322.05"/>
</g>
<!-- Node7 -->
<g id="node7" class="node">
<title>Node7</title>
<g id="a_node7"><a target="_parent" xlink:href="../../../cieutils/docs/html/typedefs_8hpp.html.html" xlink:title=" ">
<polygon fill="white" stroke="black" points="494,-78.5 494,-108.5 613,-108.5 613,-78.5 494,-78.5"/>
<text text-anchor="start" x="502" y="-96.5" font-family="Helvetica,sans-Serif" font-size="10.00">packages/macros/inc</text>
<text text-anchor="middle" x="553.5" y="-85.5" font-family="Helvetica,sans-Serif" font-size="10.00">/typedefs.hpp</text>
</a>
</g>
</g>
<!-- Node1&#45;&gt;Node7 -->
<g id="edge18" class="edge">
<title>Node1&#45;&gt;Node7</title>
<path fill="none" stroke="midnightblue" d="M463.87,-357.29C476.52,-331.75 513.61,-254.6 534.5,-187 541.54,-164.22 546.71,-137.46 549.87,-118.6"/>
<polygon fill="midnightblue" stroke="midnightblue" points="553.36,-118.93 551.49,-108.5 546.45,-117.82 553.36,-118.93"/>
</g>
<!-- Node4 -->
<g id="node4" class="node">
<title>Node4</title>
<g id="a_node4"><a target="_parent" xlink:href="../../../cieutils/docs/html/container__concepts_8hpp.html.html" xlink:title=" ">
<polygon fill="white" stroke="black" points="0,-0.5 0,-41.5 135,-41.5 135,-0.5 0,-0.5"/>
<text text-anchor="start" x="8" y="-29.5" font-family="Helvetica,sans-Serif" font-size="10.00">packages/compile_time</text>
<text text-anchor="start" x="8" y="-18.5" font-family="Helvetica,sans-Serif" font-size="10.00">/packages/concepts/inc</text>
<text text-anchor="middle" x="67.5" y="-7.5" font-family="Helvetica,sans-Serif" font-size="10.00">/container_concepts.hpp</text>
</a>
</g>
</g>
<!-- Node3&#45;&gt;Node4 -->
<g id="edge3" class="edge">
<title>Node3&#45;&gt;Node4</title>
<path fill="none" stroke="midnightblue" d="M291.68,-290.42C215.04,-267.14 77.24,-212.56 18.5,-109 7.15,-88.99 20.73,-66.36 36.44,-49.19"/>
<polygon fill="midnightblue" stroke="midnightblue" points="39.26,-51.32 43.73,-41.71 34.24,-46.43 39.26,-51.32"/>
</g>
<!-- Node5 -->
<g id="node5" class="node">
<title>Node5</title>
<g id="a_node5"><a xlink:href="Primitive_8hpp.html" target="_top" xlink:title=" ">
<polygon fill="white" stroke="black" points="288,-223.5 288,-253.5 403,-253.5 403,-223.5 288,-223.5"/>
<text text-anchor="start" x="296" y="-241.5" font-family="Helvetica,sans-Serif" font-size="10.00">packages/primitives</text>
<text text-anchor="middle" x="345.5" y="-230.5" font-family="Helvetica,sans-Serif" font-size="10.00">/inc/Primitive.hpp</text>
</a>
</g>
</g>
<!-- Node3&#45;&gt;Node5 -->
<g id="edge4" class="edge">
<title>Node3&#45;&gt;Node5</title>
<path fill="none" stroke="midnightblue" d="M345.5,-290.4C345.5,-282.64 345.5,-272.81 345.5,-263.86"/>
<polygon fill="midnightblue" stroke="midnightblue" points="349,-263.58 345.5,-253.58 342,-263.58 349,-263.58"/>
</g>
<!-- Node5&#45;&gt;Node2 -->
<g id="edge5" class="edge">
<title>Node5&#45;&gt;Node2</title>
<path fill="none" stroke="midnightblue" d="M368.3,-223.4C382.79,-214.44 401.97,-202.58 419,-192.04"/>
<polygon fill="midnightblue" stroke="midnightblue" points="421.01,-194.92 427.68,-186.68 417.33,-188.96 421.01,-194.92"/>
</g>
<!-- Node6 -->
<g id="node6" class="node">
<title>Node6</title>
<g id="a_node6"><a xlink:href="Object_8hpp.html" target="_top" xlink:title=" ">
<polygon fill="white" stroke="black" points="260,-151 260,-181 375,-181 375,-151 260,-151"/>
<text text-anchor="start" x="268" y="-169" font-family="Helvetica,sans-Serif" font-size="10.00">packages/primitives</text>
<text text-anchor="middle" x="317.5" y="-158" font-family="Helvetica,sans-Serif" font-size="10.00">/inc/Object.hpp</text>
</a>
</g>
</g>
<!-- Node5&#45;&gt;Node6 -->
<g id="edge6" class="edge">
<title>Node5&#45;&gt;Node6</title>
<path fill="none" stroke="midnightblue" d="M339.83,-223.23C336.11,-213.87 331.16,-201.4 326.86,-190.58"/>
<polygon fill="midnightblue" stroke="midnightblue" points="330.1,-189.25 323.16,-181.25 323.6,-191.83 330.1,-189.25"/>
</g>
<!-- Node6&#45;&gt;Node4 -->
<g id="edge7" class="edge">
<title>Node6&#45;&gt;Node4</title>
<path fill="none" stroke="midnightblue" d="M281.95,-150.98C257.66,-140.75 225.16,-125.79 198.5,-109 180.06,-97.38 178.33,-90.54 160.5,-78 145.04,-67.12 127.41,-56.17 111.7,-46.87"/>
<polygon fill="midnightblue" stroke="midnightblue" points="113.09,-43.63 102.69,-41.6 109.56,-49.67 113.09,-43.63"/>
</g>
<!-- Node6&#45;&gt;Node7 -->
<g id="edge8" class="edge">
<title>Node6&#45;&gt;Node7</title>
<path fill="none" stroke="midnightblue" d="M364.41,-150.99C402.41,-139.64 456.09,-123.6 496.55,-111.51"/>
<polygon fill="midnightblue" stroke="midnightblue" points="497.7,-114.82 506.28,-108.61 495.69,-108.12 497.7,-114.82"/>
</g>
<!-- Node8 -->
<g id="node8" class="node">
<title>Node8</title>
<g id="a_node8"><a target="_parent" xlink:href="../../../cieutils/docs/html/types_8hpp.html.html" xlink:title=" ">
<polygon fill="white" stroke="black" points="362.5,-6 362.5,-36 472.5,-36 472.5,-6 362.5,-6"/>
<text text-anchor="start" x="370.5" y="-24" font-family="Helvetica,sans-Serif" font-size="10.00">packages/types/inc</text>
<text text-anchor="middle" x="417.5" y="-13" font-family="Helvetica,sans-Serif" font-size="10.00">/types.hpp</text>
</a>
</g>
</g>
<!-- Node6&#45;&gt;Node8 -->
<g id="edge9" class="edge">
<title>Node6&#45;&gt;Node8</title>
<path fill="none" stroke="midnightblue" d="M327.45,-150.77C344.82,-125.93 380.81,-74.47 401.64,-44.68"/>
<polygon fill="midnightblue" stroke="midnightblue" points="404.72,-46.38 407.59,-36.18 398.99,-42.37 404.72,-46.38"/>
</g>
<!-- Node9 -->
<g id="node9" class="node">
<title>Node9</title>
<g id="a_node9"><a xlink:href="Traits_8hpp.html" target="_top" xlink:title=" ">
<polygon fill="white" stroke="black" points="208,-78.5 208,-108.5 323,-108.5 323,-78.5 208,-78.5"/>
<text text-anchor="start" x="216" y="-96.5" font-family="Helvetica,sans-Serif" font-size="10.00">packages/primitives</text>
<text text-anchor="middle" x="265.5" y="-85.5" font-family="Helvetica,sans-Serif" font-size="10.00">/inc/Traits.hpp</text>
</a>
</g>
</g>
<!-- Node6&#45;&gt;Node9 -->
<g id="edge10" class="edge">
<title>Node6&#45;&gt;Node9</title>
<path fill="none" stroke="midnightblue" d="M306.98,-150.73C299.86,-141.08 290.31,-128.13 282.16,-117.09"/>
<polygon fill="midnightblue" stroke="midnightblue" points="284.76,-114.72 276.01,-108.75 279.13,-118.87 284.76,-114.72"/>
</g>
<!-- Node11 -->
<g id="node11" class="node">
<title>Node11</title>
<g id="a_node11"><a xlink:title=" ">
<polygon fill="white" stroke="#bfbfbf" points="302.5,-11.5 302.5,-30.5 344.5,-30.5 344.5,-11.5 302.5,-11.5"/>
<text text-anchor="middle" x="323.5" y="-18.5" font-family="Helvetica,sans-Serif" font-size="10.00">array</text>
</a>
</g>
</g>
<!-- Node6&#45;&gt;Node11 -->
<g id="edge16" class="edge">
<title>Node6&#45;&gt;Node11</title>
<path fill="none" stroke="midnightblue" d="M322.04,-150.91C325.41,-139.69 329.71,-123.52 331.5,-109 334.4,-85.42 330.76,-58.14 327.49,-40.5"/>
<polygon fill="midnightblue" stroke="midnightblue" points="330.92,-39.78 325.52,-30.66 324.06,-41.16 330.92,-39.78"/>
</g>
<!-- Node12 -->
<g id="node12" class="node">
<title>Node12</title>
<g id="a_node12"><a xlink:title=" ">
<polygon fill="white" stroke="#bfbfbf" points="417.5,-84 417.5,-103 475.5,-103 475.5,-84 417.5,-84"/>
<text text-anchor="middle" x="446.5" y="-91" font-family="Helvetica,sans-Serif" font-size="10.00">memory</text>
</a>
</g>
</g>
<!-- Node6&#45;&gt;Node12 -->
<g id="edge15" class="edge">
<title>Node6&#45;&gt;Node12</title>
<path fill="none" stroke="midnightblue" d="M343.3,-150.9C366.2,-138.39 399.43,-120.22 421.95,-107.92"/>
<polygon fill="midnightblue" stroke="midnightblue" points="423.79,-110.9 430.89,-103.03 420.43,-104.76 423.79,-110.9"/>
</g>
<!-- Node13 -->
<g id="node13" class="node">
<title>Node13</title>
<g id="a_node13"><a xlink:title=" ">
<polygon fill="white" stroke="#bfbfbf" points="27.5,-78.5 27.5,-108.5 151.5,-108.5 151.5,-78.5 27.5,-78.5"/>
<text text-anchor="start" x="35.5" y="-96.5" font-family="Helvetica,sans-Serif" font-size="10.00">packages/primitives</text>
<text text-anchor="middle" x="89.5" y="-85.5" font-family="Helvetica,sans-Serif" font-size="10.00">/impl/Object_impl.hpp</text>
</a>
</g>
</g>
<!-- Node6&#45;&gt;Node13 -->
<g id="edge17" class="edge">
<title>Node6&#45;&gt;Node13</title>
<path fill="none" stroke="midnightblue" d="M272.18,-150.99C235.55,-139.66 183.83,-123.67 144.76,-111.59"/>
<polygon fill="midnightblue" stroke="midnightblue" points="145.71,-108.22 135.12,-108.61 143.64,-114.9 145.71,-108.22"/>
</g>
<!-- Node9&#45;&gt;Node4 -->
<g id="edge12" class="edge">
<title>Node9&#45;&gt;Node4</title>
<path fill="none" stroke="midnightblue" d="M225.91,-78.4C199.01,-68.83 162.83,-55.94 131.83,-44.91"/>
<polygon fill="midnightblue" stroke="midnightblue" points="132.99,-41.6 122.4,-41.55 130.64,-48.2 132.99,-41.6"/>
</g>
<!-- Node9&#45;&gt;Node8 -->
<g id="edge11" class="edge">
<title>Node9&#45;&gt;Node8</title>
<path fill="none" stroke="midnightblue" d="M295.89,-78.4C319.51,-67.45 352.43,-52.18 378.07,-40.29"/>
<polygon fill="midnightblue" stroke="midnightblue" points="379.56,-43.46 387.16,-36.07 376.61,-37.11 379.56,-43.46"/>
</g>
<!-- Node10 -->
<g id="node10" class="node">
<title>Node10</title>
<g id="a_node10"><a target="_parent" xlink:href="../../../cieutils/docs/html/StaticArray_8hpp.html.html" xlink:title=" ">
<polygon fill="white" stroke="black" points="153,-6 153,-36 284,-36 284,-6 153,-6"/>
<text text-anchor="start" x="161" y="-24" font-family="Helvetica,sans-Serif" font-size="10.00">packages/stl_extension</text>
<text text-anchor="middle" x="218.5" y="-13" font-family="Helvetica,sans-Serif" font-size="10.00">/inc/StaticArray.hpp</text>
</a>
</g>
</g>
<!-- Node9&#45;&gt;Node10 -->
<g id="edge13" class="edge">
<title>Node9&#45;&gt;Node10</title>
<path fill="none" stroke="midnightblue" d="M255.99,-78.23C249.55,-68.58 240.92,-55.63 233.56,-44.59"/>
<polygon fill="midnightblue" stroke="midnightblue" points="236.46,-42.62 228,-36.25 230.63,-46.51 236.46,-42.62"/>
</g>
<!-- Node9&#45;&gt;Node11 -->
<g id="edge14" class="edge">
<title>Node9&#45;&gt;Node11</title>
<path fill="none" stroke="midnightblue" d="M277.24,-78.23C286.61,-66.84 299.77,-50.84 309.66,-38.82"/>
<polygon fill="midnightblue" stroke="midnightblue" points="312.53,-40.84 316.18,-30.89 307.13,-36.39 312.53,-40.84"/>
</g>
</g>
</svg>
