<?xml version="1.0" encoding="UTF-8" standalone="no"?>
<!DOCTYPE svg PUBLIC "-//W3C//DTD SVG 1.1//EN"
 "http://www.w3.org/Graphics/SVG/1.1/DTD/svg11.dtd">
<!-- Generated by graphviz version 2.43.0 (0)
 -->
<!-- Title: concepts.hpp Pages: 1 -->
<svg width="670pt" height="318pt"
 viewBox="0.00 0.00 670.00 318.00" xmlns="http://www.w3.org/2000/svg" xmlns:xlink="http://www.w3.org/1999/xlink">
<g id="graph0" class="graph" transform="scale(1 1) rotate(0) translate(4 314)">
<title>concepts.hpp</title>
<polygon fill="white" stroke="transparent" points="-4,4 -4,-314 666,-314 666,4 -4,4"/>
<!-- Node1 -->
<g id="node1" class="node">
<title>Node1</title>
<g id="a_node1"><a xlink:title=" ">
<polygon fill="#bfbfbf" stroke="black" points="55,-290.5 55,-309.5 136,-309.5 136,-290.5 55,-290.5"/>
<text text-anchor="middle" x="95.5" y="-297.5" font-family="Helvetica,sans-Serif" font-size="10.00">concepts.hpp</text>
</a>
</g>
</g>
<!-- Node2 -->
<g id="node2" class="node">
<title>Node2</title>
<g id="a_node2"><a target="_parent" xlink:href="../../../cieutils/docs/html/container__concepts_8hpp.html.html" xlink:title=" ">
<polygon fill="white" stroke="black" points="0,-0.5 0,-41.5 135,-41.5 135,-0.5 0,-0.5"/>
<text text-anchor="start" x="8" y="-29.5" font-family="Helvetica,sans-Serif" font-size="10.00">packages/compile_time</text>
<text text-anchor="start" x="8" y="-18.5" font-family="Helvetica,sans-Serif" font-size="10.00">/packages/concepts/inc</text>
<text text-anchor="middle" x="67.5" y="-7.5" font-family="Helvetica,sans-Serif" font-size="10.00">/container_concepts.hpp</text>
</a>
</g>
</g>
<!-- Node1&#45;&gt;Node2 -->
<g id="edge1" class="edge">
<title>Node1&#45;&gt;Node2</title>
<path fill="none" stroke="midnightblue" d="M94.63,-290.41C90.98,-254.31 76.8,-113.98 70.52,-51.87"/>
<polygon fill="midnightblue" stroke="midnightblue" points="73.97,-51.16 69.48,-41.56 67,-51.86 73.97,-51.16"/>
</g>
<!-- Node3 -->
<g id="node3" class="node">
<title>Node3</title>
<g id="a_node3"><a xlink:href="Primitive_8hpp.html" target="_top" xlink:title=" ">
<polygon fill="white" stroke="black" points="136,-223.5 136,-253.5 251,-253.5 251,-223.5 136,-223.5"/>
<text text-anchor="start" x="144" y="-241.5" font-family="Helvetica,sans-Serif" font-size="10.00">packages/primitives</text>
<text text-anchor="middle" x="193.5" y="-230.5" font-family="Helvetica,sans-Serif" font-size="10.00">/inc/Primitive.hpp</text>
</a>
</g>
</g>
<!-- Node1&#45;&gt;Node3 -->
<g id="edge2" class="edge">
<title>Node1&#45;&gt;Node3</title>
<path fill="none" stroke="midnightblue" d="M109.54,-290.48C123.06,-282.27 143.99,-269.56 161.57,-258.88"/>
<polygon fill="midnightblue" stroke="midnightblue" points="163.67,-261.7 170.4,-253.52 160.04,-255.72 163.67,-261.7"/>
</g>
<!-- Node4 -->
<g id="node4" class="node">
<title>Node4</title>
<g id="a_node4"><a target="_parent" xlink:href="../../../cieutils/docs/html/basic__concepts_8hpp.html.html" xlink:title=" ">
<polygon fill="white" stroke="black" points="127.5,-145.5 127.5,-186.5 259.5,-186.5 259.5,-145.5 127.5,-145.5"/>
<text text-anchor="start" x="135.5" y="-174.5" font-family="Helvetica,sans-Serif" font-size="10.00">packages/compile_time</text>
<text text-anchor="start" x="135.5" y="-163.5" font-family="Helvetica,sans-Serif" font-size="10.00">/packages/concepts/inc</text>
<text text-anchor="middle" x="193.5" y="-152.5" font-family="Helvetica,sans-Serif" font-size="10.00">/basic_concepts.hpp</text>
</a>
</g>
</g>
<!-- Node3&#45;&gt;Node4 -->
<g id="edge3" class="edge">
<title>Node3&#45;&gt;Node4</title>
<path fill="none" stroke="midnightblue" d="M193.5,-223.23C193.5,-215.57 193.5,-205.84 193.5,-196.63"/>
<polygon fill="midnightblue" stroke="midnightblue" points="197,-196.59 193.5,-186.59 190,-196.59 197,-196.59"/>
</g>
<!-- Node5 -->
<g id="node5" class="node">
<title>Node5</title>
<g id="a_node5"><a xlink:href="Object_8hpp.html" target="_top" xlink:title=" ">
<polygon fill="white" stroke="black" points="303,-151 303,-181 418,-181 418,-151 303,-151"/>
<text text-anchor="start" x="311" y="-169" font-family="Helvetica,sans-Serif" font-size="10.00">packages/primitives</text>
<text text-anchor="middle" x="360.5" y="-158" font-family="Helvetica,sans-Serif" font-size="10.00">/inc/Object.hpp</text>
</a>
</g>
</g>
<!-- Node3&#45;&gt;Node5 -->
<g id="edge4" class="edge">
<title>Node3&#45;&gt;Node5</title>
<path fill="none" stroke="midnightblue" d="M226.89,-223.4C253.06,-212.36 289.65,-196.91 317.92,-184.97"/>
<polygon fill="midnightblue" stroke="midnightblue" points="319.31,-188.19 327.16,-181.07 316.59,-181.74 319.31,-188.19"/>
</g>
<!-- Node5&#45;&gt;Node2 -->
<g id="edge5" class="edge">
<title>Node5&#45;&gt;Node2</title>
<path fill="none" stroke="midnightblue" d="M302.77,-152.41C227.7,-136.02 105.98,-109.4 105.5,-109 88.01,-94.64 78.35,-70.65 73.15,-51.5"/>
<polygon fill="midnightblue" stroke="midnightblue" points="76.54,-50.6 70.76,-41.72 69.74,-52.27 76.54,-50.6"/>
</g>
<!-- Node6 -->
<g id="node6" class="node">
<title>Node6</title>
<g id="a_node6"><a target="_parent" xlink:href="../../../cieutils/docs/html/typedefs_8hpp.html.html" xlink:title=" ">
<polygon fill="white" stroke="black" points="543,-78.5 543,-108.5 662,-108.5 662,-78.5 543,-78.5"/>
<text text-anchor="start" x="551" y="-96.5" font-family="Helvetica,sans-Serif" font-size="10.00">packages/macros/inc</text>
<text text-anchor="middle" x="602.5" y="-85.5" font-family="Helvetica,sans-Serif" font-size="10.00">/typedefs.hpp</text>
</a>
</g>
</g>
<!-- Node5&#45;&gt;Node6 -->
<g id="edge6" class="edge">
<title>Node5&#45;&gt;Node6</title>
<path fill="none" stroke="midnightblue" d="M408.6,-150.99C447.65,-139.61 502.85,-123.53 544.37,-111.43"/>
<polygon fill="midnightblue" stroke="midnightblue" points="545.45,-114.76 554.08,-108.61 543.5,-108.04 545.45,-114.76"/>
</g>
<!-- Node7 -->
<g id="node7" class="node">
<title>Node7</title>
<g id="a_node7"><a target="_parent" xlink:href="../../../cieutils/docs/html/types_8hpp.html.html" xlink:title=" ">
<polygon fill="white" stroke="black" points="333.5,-6 333.5,-36 443.5,-36 443.5,-6 333.5,-6"/>
<text text-anchor="start" x="341.5" y="-24" font-family="Helvetica,sans-Serif" font-size="10.00">packages/types/inc</text>
<text text-anchor="middle" x="388.5" y="-13" font-family="Helvetica,sans-Serif" font-size="10.00">/types.hpp</text>
</a>
</g>
</g>
<!-- Node5&#45;&gt;Node7 -->
<g id="edge7" class="edge">
<title>Node5&#45;&gt;Node7</title>
<path fill="none" stroke="midnightblue" d="M404.92,-150.94C424.7,-142.21 446.08,-128.79 457.5,-109 464.39,-97.07 463.42,-90.44 457.5,-78 450.43,-63.15 437.27,-50.95 424.33,-41.78"/>
<polygon fill="midnightblue" stroke="midnightblue" points="426.19,-38.81 415.92,-36.18 422.31,-44.64 426.19,-38.81"/>
</g>
<!-- Node8 -->
<g id="node8" class="node">
<title>Node8</title>
<g id="a_node8"><a xlink:href="Traits_8hpp.html" target="_top" xlink:title=" ">
<polygon fill="white" stroke="black" points="115,-78.5 115,-108.5 230,-108.5 230,-78.5 115,-78.5"/>
<text text-anchor="start" x="123" y="-96.5" font-family="Helvetica,sans-Serif" font-size="10.00">packages/primitives</text>
<text text-anchor="middle" x="172.5" y="-85.5" font-family="Helvetica,sans-Serif" font-size="10.00">/inc/Traits.hpp</text>
</a>
</g>
</g>
<!-- Node5&#45;&gt;Node8 -->
<g id="edge8" class="edge">
<title>Node5&#45;&gt;Node8</title>
<path fill="none" stroke="midnightblue" d="M322.91,-150.9C293.19,-139.76 251.54,-124.14 219.6,-112.16"/>
<polygon fill="midnightblue" stroke="midnightblue" points="220.62,-108.81 210.03,-108.57 218.16,-115.36 220.62,-108.81"/>
</g>
<!-- Node10 -->
<g id="node10" class="node">
<title>Node10</title>
<g id="a_node10"><a xlink:title=" ">
<polygon fill="white" stroke="#bfbfbf" points="477.5,-11.5 477.5,-30.5 519.5,-30.5 519.5,-11.5 477.5,-11.5"/>
<text text-anchor="middle" x="498.5" y="-18.5" font-family="Helvetica,sans-Serif" font-size="10.00">array</text>
</a>
</g>
</g>
<!-- Node5&#45;&gt;Node10 -->
<g id="edge14" class="edge">
<title>Node5&#45;&gt;Node10</title>
<path fill="none" stroke="midnightblue" d="M409.47,-150.91C431.86,-142.17 457.02,-128.76 473.5,-109 489.75,-89.52 495.45,-60.02 497.44,-40.88"/>
<polygon fill="midnightblue" stroke="midnightblue" points="500.94,-40.96 498.25,-30.72 493.96,-40.41 500.94,-40.96"/>
</g>
<!-- Node11 -->
<g id="node11" class="node">
<title>Node11</title>
<g id="a_node11"><a xlink:title=" ">
<polygon fill="white" stroke="#bfbfbf" points="248.5,-84 248.5,-103 306.5,-103 306.5,-84 248.5,-84"/>
<text text-anchor="middle" x="277.5" y="-91" font-family="Helvetica,sans-Serif" font-size="10.00">memory</text>
</a>
</g>
</g>
<!-- Node5&#45;&gt;Node11 -->
<g id="edge13" class="edge">
<title>Node5&#45;&gt;Node11</title>
<path fill="none" stroke="midnightblue" d="M343.7,-150.73C329.77,-138.89 309.98,-122.09 295.68,-109.94"/>
<polygon fill="midnightblue" stroke="midnightblue" points="297.86,-107.2 287.97,-103.39 293.33,-112.53 297.86,-107.2"/>
</g>
<!-- Node12 -->
<g id="node12" class="node">
<title>Node12</title>
<g id="a_node12"><a xlink:title=" ">
<polygon fill="white" stroke="#bfbfbf" points="324.5,-78.5 324.5,-108.5 448.5,-108.5 448.5,-78.5 324.5,-78.5"/>
<text text-anchor="start" x="332.5" y="-96.5" font-family="Helvetica,sans-Serif" font-size="10.00">packages/primitives</text>
<text text-anchor="middle" x="386.5" y="-85.5" font-family="Helvetica,sans-Serif" font-size="10.00">/impl/Object_impl.hpp</text>
</a>
</g>
</g>
<!-- Node5&#45;&gt;Node12 -->
<g id="edge15" class="edge">
<title>Node5&#45;&gt;Node12</title>
<path fill="none" stroke="midnightblue" d="M365.76,-150.73C369.18,-141.46 373.72,-129.15 377.68,-118.41"/>
<polygon fill="midnightblue" stroke="midnightblue" points="381.07,-119.34 381.25,-108.75 374.5,-116.92 381.07,-119.34"/>
</g>
<!-- Node8&#45;&gt;Node2 -->
<g id="edge10" class="edge">
<title>Node8&#45;&gt;Node2</title>
<path fill="none" stroke="midnightblue" d="M151.5,-78.4C138.27,-69.52 120.81,-57.79 105.23,-47.33"/>
<polygon fill="midnightblue" stroke="midnightblue" points="107.06,-44.35 96.81,-41.68 103.16,-50.16 107.06,-44.35"/>
</g>
<!-- Node8&#45;&gt;Node7 -->
<g id="edge9" class="edge">
<title>Node8&#45;&gt;Node7</title>
<path fill="none" stroke="midnightblue" d="M215.43,-78.49C249.99,-67.21 298.72,-51.3 335.67,-39.24"/>
<polygon fill="midnightblue" stroke="midnightblue" points="336.86,-42.54 345.28,-36.11 334.69,-35.88 336.86,-42.54"/>
</g>
<!-- Node9 -->
<g id="node9" class="node">
<title>Node9</title>
<g id="a_node9"><a target="_parent" xlink:href="../../../cieutils/docs/html/StaticArray_8hpp.html.html" xlink:title=" ">
<polygon fill="white" stroke="black" points="153,-6 153,-36 284,-36 284,-6 153,-6"/>
<text text-anchor="start" x="161" y="-24" font-family="Helvetica,sans-Serif" font-size="10.00">packages/stl_extension</text>
<text text-anchor="middle" x="218.5" y="-13" font-family="Helvetica,sans-Serif" font-size="10.00">/inc/StaticArray.hpp</text>
</a>
</g>
</g>
<!-- Node8&#45;&gt;Node9 -->
<g id="edge11" class="edge">
<title>Node8&#45;&gt;Node9</title>
<path fill="none" stroke="midnightblue" d="M181.81,-78.23C188.04,-68.68 196.39,-55.89 203.55,-44.92"/>
<polygon fill="midnightblue" stroke="midnightblue" points="206.67,-46.53 209.21,-36.25 200.81,-42.71 206.67,-46.53"/>
</g>
<!-- Node8&#45;&gt;Node10 -->
<g id="edge12" class="edge">
<title>Node8&#45;&gt;Node10</title>
<path fill="none" stroke="midnightblue" d="M230.21,-79.84C233.35,-79.2 236.46,-78.59 239.5,-78 333.78,-59.84 360.47,-69.34 452.5,-42 458.96,-40.08 465.73,-37.49 472.02,-34.81"/>
<polygon fill="midnightblue" stroke="midnightblue" points="473.7,-37.9 481.4,-30.62 470.84,-31.51 473.7,-37.9"/>
</g>
</g>
</svg>
