<?xml version="1.0" encoding="UTF-8" standalone="no"?>
<!DOCTYPE svg PUBLIC "-//W3C//DTD SVG 1.1//EN"
 "http://www.w3.org/Graphics/SVG/1.1/DTD/svg11.dtd">
<!-- Generated by graphviz version 2.43.0 (0)
 -->
<!-- Title: Primitive.hpp Pages: 1 -->
<svg width="1224pt" height="364pt"
 viewBox="0.00 0.00 1223.50 364.00" xmlns="http://www.w3.org/2000/svg" xmlns:xlink="http://www.w3.org/1999/xlink">
<g id="graph0" class="graph" transform="scale(1 1) rotate(0) translate(4 360)">
<title>Primitive.hpp</title>
<polygon fill="white" stroke="transparent" points="-4,4 -4,-360 1219.5,-360 1219.5,4 -4,4"/>
<!-- Node1 -->
<g id="node1" class="node">
<title>Node1</title>
<g id="a_node1"><a xlink:title=" ">
<polygon fill="#bfbfbf" stroke="black" points="699,-336.5 699,-355.5 781,-355.5 781,-336.5 699,-336.5"/>
<text text-anchor="middle" x="740" y="-343.5" font-family="Helvetica,sans-Serif" font-size="10.00">Primitive.hpp</text>
</a>
</g>
</g>
<!-- Node2 -->
<g id="node2" class="node">
<title>Node2</title>
<g id="a_node2"><a xlink:href="AbsMarchingPrimitives_8hpp.html" target="_top" xlink:title=" ">
<polygon fill="white" stroke="black" points="406,-224.5 406,-243.5 556,-243.5 556,-224.5 406,-224.5"/>
<text text-anchor="middle" x="481" y="-231.5" font-family="Helvetica,sans-Serif" font-size="10.00">AbsMarchingPrimitives.hpp</text>
</a>
</g>
</g>
<!-- Node1&#45;&gt;Node2 -->
<g id="edge1" class="edge">
<title>Node1&#45;&gt;Node2</title>
<path fill="none" stroke="midnightblue" d="M700.37,-333.47C673.38,-325.19 637.04,-313.19 606,-300 564.8,-282.5 518.63,-256.8 495.65,-243.57"/>
<polygon fill="midnightblue" stroke="midnightblue" points="699.65,-336.91 710.23,-336.46 701.68,-330.21 699.65,-336.91"/>
</g>
<!-- Node5 -->
<g id="node5" class="node">
<title>Node5</title>
<g id="a_node5"><a xlink:href="Box_8hpp.html" target="_top" xlink:title=" ">
<polygon fill="white" stroke="black" points="574,-224.5 574,-243.5 630,-243.5 630,-224.5 574,-224.5"/>
<text text-anchor="middle" x="602" y="-231.5" font-family="Helvetica,sans-Serif" font-size="10.00">Box.hpp</text>
</a>
</g>
</g>
<!-- Node1&#45;&gt;Node5 -->
<g id="edge4" class="edge">
<title>Node1&#45;&gt;Node5</title>
<path fill="none" stroke="midnightblue" d="M689.05,-336.56C665.43,-330.21 638.72,-319.15 621,-300 606.3,-284.12 602.92,-257.49 602.18,-243.77"/>
<polygon fill="midnightblue" stroke="midnightblue" points="688.4,-340.01 698.95,-339.01 690.08,-333.21 688.4,-340.01"/>
</g>
<!-- Node15 -->
<g id="node15" class="node">
<title>Node15</title>
<g id="a_node15"><a xlink:href="primitives_2inc_2concepts_8hpp.html" target="_top" xlink:title=" ">
<polygon fill="white" stroke="black" points="630.5,-280.5 630.5,-299.5 711.5,-299.5 711.5,-280.5 630.5,-280.5"/>
<text text-anchor="middle" x="671" y="-287.5" font-family="Helvetica,sans-Serif" font-size="10.00">concepts.hpp</text>
</a>
</g>
</g>
<!-- Node1&#45;&gt;Node15 -->
<g id="edge17" class="edge">
<title>Node1&#45;&gt;Node15</title>
<path fill="none" stroke="midnightblue" d="M720.96,-330.1C708.54,-320.38 692.76,-308.03 682.29,-299.83"/>
<polygon fill="midnightblue" stroke="midnightblue" points="718.88,-332.92 728.91,-336.32 723.2,-327.4 718.88,-332.92"/>
</g>
<!-- Node16 -->
<g id="node16" class="node">
<title>Node16</title>
<g id="a_node16"><a xlink:href="Cube_8hpp.html" target="_top" xlink:title=" ">
<polygon fill="white" stroke="black" points="648,-224.5 648,-243.5 710,-243.5 710,-224.5 648,-224.5"/>
<text text-anchor="middle" x="679" y="-231.5" font-family="Helvetica,sans-Serif" font-size="10.00">Cube.hpp</text>
</a>
</g>
</g>
<!-- Node1&#45;&gt;Node16 -->
<g id="edge38" class="edge">
<title>Node1&#45;&gt;Node16</title>
<path fill="none" stroke="midnightblue" d="M736.49,-326.08C733.45,-312.61 728.23,-294.42 720,-280 711.83,-265.68 698.39,-252.1 689.14,-243.68"/>
<polygon fill="midnightblue" stroke="midnightblue" points="733.11,-327 738.54,-336.1 739.96,-325.6 733.11,-327"/>
</g>
<!-- Node17 -->
<g id="node17" class="node">
<title>Node17</title>
<g id="a_node17"><a xlink:href="AbsCell_8hpp.html" target="_top" xlink:title=" ">
<polygon fill="white" stroke="black" points="879,-224.5 879,-243.5 953,-243.5 953,-224.5 879,-224.5"/>
<text text-anchor="middle" x="916" y="-231.5" font-family="Helvetica,sans-Serif" font-size="10.00">AbsCell.hpp</text>
</a>
</g>
</g>
<!-- Node1&#45;&gt;Node17 -->
<g id="edge41" class="edge">
<title>Node1&#45;&gt;Node17</title>
<path fill="none" stroke="midnightblue" d="M751.79,-327.69C762.41,-313.23 779.2,-292.95 798,-280 823.37,-262.52 856.43,-250.67 881.11,-243.54"/>
<polygon fill="midnightblue" stroke="midnightblue" points="748.67,-326.03 745.74,-336.21 754.38,-330.08 748.67,-326.03"/>
</g>
<!-- Node24 -->
<g id="node24" class="node">
<title>Node24</title>
<g id="a_node24"><a xlink:href="Ellipsoid_8hpp.html" target="_top" xlink:title=" ">
<polygon fill="white" stroke="black" points="806.5,-280.5 806.5,-299.5 885.5,-299.5 885.5,-280.5 806.5,-280.5"/>
<text text-anchor="middle" x="846" y="-287.5" font-family="Helvetica,sans-Serif" font-size="10.00">Ellipsoid.hpp</text>
</a>
</g>
</g>
<!-- Node1&#45;&gt;Node24 -->
<g id="edge39" class="edge">
<title>Node1&#45;&gt;Node24</title>
<path fill="none" stroke="midnightblue" d="M766.06,-331.73C785.68,-321.73 812.03,-308.31 829.01,-299.65"/>
<polygon fill="midnightblue" stroke="midnightblue" points="764.35,-328.67 757.03,-336.32 767.53,-334.9 764.35,-328.67"/>
</g>
<!-- Node25 -->
<g id="node25" class="node">
<title>Node25</title>
<g id="a_node25"><a xlink:href="Sphere_8hpp.html" target="_top" xlink:title=" ">
<polygon fill="white" stroke="black" points="903.5,-280.5 903.5,-299.5 974.5,-299.5 974.5,-280.5 903.5,-280.5"/>
<text text-anchor="middle" x="939" y="-287.5" font-family="Helvetica,sans-Serif" font-size="10.00">Sphere.hpp</text>
</a>
</g>
</g>
<!-- Node1&#45;&gt;Node25 -->
<g id="edge40" class="edge">
<title>Node1&#45;&gt;Node25</title>
<path fill="none" stroke="midnightblue" d="M781.65,-333.7C819.21,-323.51 873.61,-308.74 907.62,-299.52"/>
<polygon fill="midnightblue" stroke="midnightblue" points="780.27,-330.45 771.53,-336.44 782.1,-337.2 780.27,-330.45"/>
</g>
<!-- Node3 -->
<g id="node3" class="node">
<title>Node3</title>
<g id="a_node3"><a xlink:href="MarchingPrimitives_8hpp.html" target="_top" xlink:title=" ">
<polygon fill="white" stroke="black" points="0,-168.5 0,-187.5 132,-187.5 132,-168.5 0,-168.5"/>
<text text-anchor="middle" x="66" y="-175.5" font-family="Helvetica,sans-Serif" font-size="10.00">MarchingPrimitives.hpp</text>
</a>
</g>
</g>
<!-- Node2&#45;&gt;Node3 -->
<g id="edge2" class="edge">
<title>Node2&#45;&gt;Node3</title>
<path fill="none" stroke="midnightblue" d="M404.95,-223.1C326.58,-212.91 205.69,-197.18 131.45,-187.52"/>
<polygon fill="midnightblue" stroke="midnightblue" points="404.87,-226.62 415.24,-224.44 405.78,-219.68 404.87,-226.62"/>
</g>
<!-- Node4 -->
<g id="node4" class="node">
<title>Node4</title>
<g id="a_node4"><a xlink:href="MarchingCubes_8hpp.html" target="_top" xlink:title=" ">
<polygon fill="white" stroke="black" points="94.5,-112.5 94.5,-131.5 207.5,-131.5 207.5,-112.5 94.5,-112.5"/>
<text text-anchor="middle" x="151" y="-119.5" font-family="Helvetica,sans-Serif" font-size="10.00">MarchingCubes.hpp</text>
</a>
</g>
</g>
<!-- Node3&#45;&gt;Node4 -->
<g id="edge3" class="edge">
<title>Node3&#45;&gt;Node4</title>
<path fill="none" stroke="midnightblue" d="M88.19,-162.9C103.78,-153 124.13,-140.07 137.38,-131.65"/>
<polygon fill="midnightblue" stroke="midnightblue" points="86.22,-160.01 79.66,-168.32 89.97,-165.92 86.22,-160.01"/>
</g>
<!-- Node5&#45;&gt;Node4 -->
<g id="edge5" class="edge">
<title>Node5&#45;&gt;Node4</title>
<path fill="none" stroke="midnightblue" d="M563.72,-224.21C464.41,-211.66 246.3,-236.92 179,-188 160.51,-174.56 154.11,-146.34 151.99,-131.91"/>
<polygon fill="midnightblue" stroke="midnightblue" points="563.4,-227.71 573.81,-225.69 564.42,-220.78 563.4,-227.71"/>
</g>
<!-- Node6 -->
<g id="node6" class="node">
<title>Node6</title>
<g id="a_node6"><a xlink:href="AABBox_8hpp.html" target="_top" xlink:title=" ">
<polygon fill="white" stroke="black" points="188.5,-168.5 188.5,-187.5 265.5,-187.5 265.5,-168.5 188.5,-168.5"/>
<text text-anchor="middle" x="227" y="-175.5" font-family="Helvetica,sans-Serif" font-size="10.00">AABBox.hpp</text>
</a>
</g>
</g>
<!-- Node5&#45;&gt;Node6 -->
<g id="edge6" class="edge">
<title>Node5&#45;&gt;Node6</title>
<path fill="none" stroke="midnightblue" d="M563.58,-223.93C435.46,-200.97 400.07,-207.47 275,-188 271.98,-187.53 268.87,-187.02 265.74,-186.48"/>
<polygon fill="midnightblue" stroke="midnightblue" points="563.33,-227.44 573.79,-225.78 564.58,-220.55 563.33,-227.44"/>
</g>
<!-- Node10 -->
<g id="node10" class="node">
<title>Node10</title>
<g id="a_node10"><a xlink:href="cartesianmesh_8hpp.html" target="_top" xlink:title=" ">
<polygon fill="white" stroke="black" points="284,-168.5 284,-187.5 394,-187.5 394,-168.5 284,-168.5"/>
<text text-anchor="middle" x="339" y="-175.5" font-family="Helvetica,sans-Serif" font-size="10.00">cartesianmesh.hpp</text>
</a>
</g>
</g>
<!-- Node5&#45;&gt;Node10 -->
<g id="edge11" class="edge">
<title>Node5&#45;&gt;Node10</title>
<path fill="none" stroke="midnightblue" d="M563.78,-223.8C496.18,-208.97 428.61,-195.83 385,-187.57"/>
<polygon fill="midnightblue" stroke="midnightblue" points="563.23,-227.26 573.75,-226 564.74,-220.43 563.23,-227.26"/>
</g>
<!-- Node11 -->
<g id="node11" class="node">
<title>Node11</title>
<g id="a_node11"><a xlink:href="CartesianGridSampler_8hpp.html" target="_top" xlink:title=" ">
<polygon fill="white" stroke="black" points="572,-168.5 572,-187.5 716,-187.5 716,-168.5 572,-168.5"/>
<text text-anchor="middle" x="644" y="-175.5" font-family="Helvetica,sans-Serif" font-size="10.00">CartesianGridSampler.hpp</text>
</a>
</g>
</g>
<!-- Node5&#45;&gt;Node11 -->
<g id="edge12" class="edge">
<title>Node5&#45;&gt;Node11</title>
<path fill="none" stroke="midnightblue" d="M615.11,-216.14C622.43,-206.74 631.24,-195.4 637.19,-187.75"/>
<polygon fill="midnightblue" stroke="midnightblue" points="612.31,-214.04 608.94,-224.08 617.84,-218.34 612.31,-214.04"/>
</g>
<!-- Node12 -->
<g id="node12" class="node">
<title>Node12</title>
<g id="a_node12"><a xlink:href="Cell_8hpp.html" target="_top" xlink:title=" ">
<polygon fill="white" stroke="black" points="900,-168.5 900,-187.5 956,-187.5 956,-168.5 900,-168.5"/>
<text text-anchor="middle" x="928" y="-175.5" font-family="Helvetica,sans-Serif" font-size="10.00">Cell.hpp</text>
</a>
</g>
</g>
<!-- Node5&#45;&gt;Node12 -->
<g id="edge13" class="edge">
<title>Node5&#45;&gt;Node12</title>
<path fill="none" stroke="midnightblue" d="M640.3,-223.88C741.41,-204.06 849.85,-189.11 899.96,-182.57"/>
<polygon fill="midnightblue" stroke="midnightblue" points="639.36,-220.5 630.23,-225.87 640.72,-227.36 639.36,-220.5"/>
</g>
<!-- Node13 -->
<g id="node13" class="node">
<title>Node13</title>
<g id="a_node13"><a xlink:href="ContiguousSpaceTree_8hpp.html" target="_top" xlink:title=" ">
<polygon fill="white" stroke="black" points="412,-168.5 412,-187.5 554,-187.5 554,-168.5 412,-168.5"/>
<text text-anchor="middle" x="483" y="-175.5" font-family="Helvetica,sans-Serif" font-size="10.00">ContiguousSpaceTree.hpp</text>
</a>
</g>
</g>
<!-- Node5&#45;&gt;Node13 -->
<g id="edge15" class="edge">
<title>Node5&#45;&gt;Node13</title>
<path fill="none" stroke="midnightblue" d="M573.86,-220.23C551.6,-210.13 521.14,-196.31 501.77,-187.52"/>
<polygon fill="midnightblue" stroke="midnightblue" points="572.59,-223.5 583.14,-224.44 575.48,-217.12 572.59,-223.5"/>
</g>
<!-- Node14 -->
<g id="node14" class="node">
<title>Node14</title>
<g id="a_node14"><a xlink:href="CornerSampler_8hpp.html" target="_top" xlink:title=" ">
<polygon fill="white" stroke="black" points="734,-168.5 734,-187.5 844,-187.5 844,-168.5 734,-168.5"/>
<text text-anchor="middle" x="789" y="-175.5" font-family="Helvetica,sans-Serif" font-size="10.00">CornerSampler.hpp</text>
</a>
</g>
</g>
<!-- Node5&#45;&gt;Node14 -->
<g id="edge16" class="edge">
<title>Node5&#45;&gt;Node14</title>
<path fill="none" stroke="midnightblue" d="M640.34,-221.93C675.62,-211.74 727.2,-196.85 759.4,-187.55"/>
<polygon fill="midnightblue" stroke="midnightblue" points="639.04,-218.66 630.4,-224.8 640.98,-225.39 639.04,-218.66"/>
</g>
<!-- Node7 -->
<g id="node7" class="node">
<title>Node7</title>
<g id="a_node7"><a xlink:href="AABBoxNode_8hpp.html" target="_top" xlink:title=" ">
<polygon fill="white" stroke="black" points="283,-0.5 283,-19.5 385,-19.5 385,-0.5 283,-0.5"/>
<text text-anchor="middle" x="334" y="-7.5" font-family="Helvetica,sans-Serif" font-size="10.00">AABBoxNode.hpp</text>
</a>
</g>
</g>
<!-- Node6&#45;&gt;Node7 -->
<g id="edge7" class="edge">
<title>Node6&#45;&gt;Node7</title>
<path fill="none" stroke="midnightblue" d="M230.87,-158.21C236.8,-132.96 250.03,-87.61 274,-56 285.88,-40.33 304.62,-27.49 318,-19.59"/>
<polygon fill="midnightblue" stroke="midnightblue" points="227.39,-157.76 228.65,-168.28 234.23,-159.26 227.39,-157.76"/>
</g>
<!-- Node8 -->
<g id="node8" class="node">
<title>Node8</title>
<g id="a_node8"><a xlink:href="AbsBoundableObject_8hpp.html" target="_top" xlink:title=" ">
<polygon fill="white" stroke="black" points="264.5,-112.5 264.5,-131.5 403.5,-131.5 403.5,-112.5 264.5,-112.5"/>
<text text-anchor="middle" x="334" y="-119.5" font-family="Helvetica,sans-Serif" font-size="10.00">AbsBoundableObject.hpp</text>
</a>
</g>
</g>
<!-- Node6&#45;&gt;Node8 -->
<g id="edge8" class="edge">
<title>Node6&#45;&gt;Node8</title>
<path fill="none" stroke="midnightblue" d="M253.3,-163.73C273.11,-153.73 299.71,-140.31 316.85,-131.65"/>
<polygon fill="midnightblue" stroke="midnightblue" points="251.54,-160.69 244.19,-168.32 254.7,-166.94 251.54,-160.69"/>
</g>
<!-- Node9 -->
<g id="node9" class="node">
<title>Node9</title>
<g id="a_node9"><a xlink:href="boundingBox_8hpp.html" target="_top" xlink:title=" ">
<polygon fill="white" stroke="black" points="283.5,-56.5 283.5,-75.5 384.5,-75.5 384.5,-56.5 283.5,-56.5"/>
<text text-anchor="middle" x="334" y="-63.5" font-family="Helvetica,sans-Serif" font-size="10.00">boundingBox.hpp</text>
</a>
</g>
</g>
<!-- Node8&#45;&gt;Node9 -->
<g id="edge9" class="edge">
<title>Node8&#45;&gt;Node9</title>
<path fill="none" stroke="midnightblue" d="M334,-101.8C334,-92.91 334,-82.78 334,-75.75"/>
<polygon fill="midnightblue" stroke="midnightblue" points="330.5,-102.08 334,-112.08 337.5,-102.08 330.5,-102.08"/>
</g>
<!-- Node9&#45;&gt;Node7 -->
<g id="edge10" class="edge">
<title>Node9&#45;&gt;Node7</title>
<path fill="none" stroke="midnightblue" d="M334,-45.8C334,-36.91 334,-26.78 334,-19.75"/>
<polygon fill="midnightblue" stroke="midnightblue" points="330.5,-46.08 334,-56.08 337.5,-46.08 330.5,-46.08"/>
</g>
<!-- Node12&#45;&gt;Node7 -->
<g id="edge14" class="edge">
<title>Node12&#45;&gt;Node7</title>
<path fill="none" stroke="midnightblue" d="M889.58,-171.02C820.4,-160.18 680,-137.88 658,-132 538.8,-100.13 402.19,-41.45 352.93,-19.55"/>
<polygon fill="midnightblue" stroke="midnightblue" points="889.22,-174.5 899.64,-172.59 890.3,-167.59 889.22,-174.5"/>
</g>
<!-- Node15&#45;&gt;Node2 -->
<g id="edge18" class="edge">
<title>Node15&#45;&gt;Node2</title>
<path fill="none" stroke="midnightblue" d="M631.24,-277.7C595.38,-267.51 543.43,-252.74 510.97,-243.52"/>
<polygon fill="midnightblue" stroke="midnightblue" points="630.32,-281.08 640.89,-280.44 632.23,-274.34 630.32,-281.08"/>
</g>
<!-- Node15&#45;&gt;Node5 -->
<g id="edge19" class="edge">
<title>Node15&#45;&gt;Node5</title>
<path fill="none" stroke="midnightblue" d="M651.96,-274.1C639.54,-264.38 623.76,-252.03 613.29,-243.83"/>
<polygon fill="midnightblue" stroke="midnightblue" points="649.88,-276.92 659.91,-280.32 654.2,-271.4 649.88,-276.92"/>
</g>
<!-- Node15&#45;&gt;Node16 -->
<g id="edge20" class="edge">
<title>Node15&#45;&gt;Node16</title>
<path fill="none" stroke="midnightblue" d="M673.8,-270.1C675.13,-261.14 676.65,-250.86 677.7,-243.75"/>
<polygon fill="midnightblue" stroke="midnightblue" points="670.32,-269.68 672.32,-280.08 677.25,-270.7 670.32,-269.68"/>
</g>
<!-- Node15&#45;&gt;Node17 -->
<g id="edge27" class="edge">
<title>Node15&#45;&gt;Node17</title>
<path fill="none" stroke="midnightblue" d="M719.75,-278.26C766.63,-267.92 836.47,-252.53 878.96,-243.16"/>
<polygon fill="midnightblue" stroke="midnightblue" points="718.83,-274.87 709.82,-280.44 720.34,-281.71 718.83,-274.87"/>
</g>
<!-- Node19 -->
<g id="node19" class="node">
<title>Node19</title>
<g id="a_node19"><a xlink:href="PrimitiveSampler_8hpp.html" target="_top" xlink:title=" ">
<polygon fill="white" stroke="black" points="728,-224.5 728,-243.5 850,-243.5 850,-224.5 728,-224.5"/>
<text text-anchor="middle" x="789" y="-231.5" font-family="Helvetica,sans-Serif" font-size="10.00">PrimitiveSampler.hpp</text>
</a>
</g>
</g>
<!-- Node15&#45;&gt;Node19 -->
<g id="edge30" class="edge">
<title>Node15&#45;&gt;Node19</title>
<path fill="none" stroke="midnightblue" d="M698.9,-276.23C720.97,-266.13 751.18,-252.31 770.39,-243.52"/>
<polygon fill="midnightblue" stroke="midnightblue" points="697.33,-273.1 689.7,-280.44 700.25,-279.46 697.33,-273.1"/>
</g>
<!-- Node16&#45;&gt;Node4 -->
<g id="edge21" class="edge">
<title>Node16&#45;&gt;Node4</title>
<path fill="none" stroke="midnightblue" d="M720.24,-223.67C770.37,-212.13 848.86,-193.35 853,-188 858.44,-180.97 859.09,-174.47 853,-168 807.37,-119.54 321.39,-136.87 255,-132 239.64,-130.87 223.01,-129.5 207.65,-128.17"/>
<polygon fill="midnightblue" stroke="midnightblue" points="719.28,-220.3 710.31,-225.94 720.84,-227.12 719.28,-220.3"/>
</g>
<!-- Node16&#45;&gt;Node10 -->
<g id="edge22" class="edge">
<title>Node16&#45;&gt;Node10</title>
<path fill="none" stroke="midnightblue" d="M637.7,-223.89C579.19,-213.4 463.51,-196.65 394.3,-186.8"/>
<polygon fill="midnightblue" stroke="midnightblue" points="637.13,-227.34 647.6,-225.71 638.4,-220.46 637.13,-227.34"/>
</g>
<!-- Node16&#45;&gt;Node11 -->
<g id="edge23" class="edge">
<title>Node16&#45;&gt;Node11</title>
<path fill="none" stroke="midnightblue" d="M667.7,-215.57C661.68,-206.27 654.53,-195.25 649.67,-187.75"/>
<polygon fill="midnightblue" stroke="midnightblue" points="664.84,-217.6 673.22,-224.08 670.72,-213.79 664.84,-217.6"/>
</g>
<!-- Node16&#45;&gt;Node12 -->
<g id="edge24" class="edge">
<title>Node16&#45;&gt;Node12</title>
<path fill="none" stroke="midnightblue" d="M719.92,-223.82C766.88,-213.53 854.78,-194.68 899.97,-185"/>
<polygon fill="midnightblue" stroke="midnightblue" points="719.02,-220.43 710,-225.99 720.52,-227.27 719.02,-220.43"/>
</g>
<!-- Node16&#45;&gt;Node13 -->
<g id="edge25" class="edge">
<title>Node16&#45;&gt;Node13</title>
<path fill="none" stroke="midnightblue" d="M637.98,-221.7C600.99,-211.51 547.4,-196.74 513.91,-187.52"/>
<polygon fill="midnightblue" stroke="midnightblue" points="637.37,-225.16 647.94,-224.44 639.23,-218.41 637.37,-225.16"/>
</g>
<!-- Node16&#45;&gt;Node14 -->
<g id="edge26" class="edge">
<title>Node16&#45;&gt;Node14</title>
<path fill="none" stroke="midnightblue" d="M705.76,-219.86C726.16,-209.85 753.67,-196.35 771.37,-187.65"/>
<polygon fill="midnightblue" stroke="midnightblue" points="704.11,-216.78 696.67,-224.32 707.19,-223.06 704.11,-216.78"/>
</g>
<!-- Node17&#45;&gt;Node12 -->
<g id="edge28" class="edge">
<title>Node17&#45;&gt;Node12</title>
<path fill="none" stroke="midnightblue" d="M920.2,-214.1C922.19,-205.14 924.48,-194.86 926.06,-187.75"/>
<polygon fill="midnightblue" stroke="midnightblue" points="916.73,-213.56 917.98,-224.08 923.57,-215.08 916.73,-213.56"/>
</g>
<!-- Node18 -->
<g id="node18" class="node">
<title>Node18</title>
<g id="a_node18"><a xlink:href="SpaceTreeNode_8hpp.html" target="_top" xlink:title=" ">
<polygon fill="white" stroke="black" points="1102.5,-112.5 1102.5,-131.5 1215.5,-131.5 1215.5,-112.5 1102.5,-112.5"/>
<text text-anchor="middle" x="1159" y="-119.5" font-family="Helvetica,sans-Serif" font-size="10.00">SpaceTreeNode.hpp</text>
</a>
</g>
</g>
<!-- Node17&#45;&gt;Node18 -->
<g id="edge29" class="edge">
<title>Node17&#45;&gt;Node18</title>
<path fill="none" stroke="midnightblue" d="M962.93,-223.93C994.52,-216.74 1036.55,-205.04 1071,-188 1102.33,-172.5 1134.08,-145.7 1149.47,-131.86"/>
<polygon fill="midnightblue" stroke="midnightblue" points="962.07,-220.53 953.06,-226.1 963.58,-227.37 962.07,-220.53"/>
</g>
<!-- Node19&#45;&gt;Node11 -->
<g id="edge31" class="edge">
<title>Node19&#45;&gt;Node11</title>
<path fill="none" stroke="midnightblue" d="M756.52,-220.91C729.26,-210.75 691.01,-196.51 666.87,-187.52"/>
<polygon fill="midnightblue" stroke="midnightblue" points="755.43,-224.23 766.02,-224.44 757.87,-217.67 755.43,-224.23"/>
</g>
<!-- Node19&#45;&gt;Node14 -->
<g id="edge32" class="edge">
<title>Node19&#45;&gt;Node14</title>
<path fill="none" stroke="midnightblue" d="M789,-213.8C789,-204.91 789,-194.78 789,-187.75"/>
<polygon fill="midnightblue" stroke="midnightblue" points="785.5,-214.08 789,-224.08 792.5,-214.08 785.5,-214.08"/>
</g>
<!-- Node20 -->
<g id="node20" class="node">
<title>Node20</title>
<g id="a_node20"><a xlink:href="SplitPolicy_8hpp.html" target="_top" xlink:title=" ">
<polygon fill="white" stroke="black" points="974.5,-168.5 974.5,-187.5 1061.5,-187.5 1061.5,-168.5 974.5,-168.5"/>
<text text-anchor="middle" x="1018" y="-175.5" font-family="Helvetica,sans-Serif" font-size="10.00">SplitPolicy.hpp</text>
</a>
</g>
</g>
<!-- Node19&#45;&gt;Node20 -->
<g id="edge33" class="edge">
<title>Node19&#45;&gt;Node20</title>
<path fill="none" stroke="midnightblue" d="M835.27,-222.09C878.54,-211.89 942.26,-196.86 981.88,-187.52"/>
<polygon fill="midnightblue" stroke="midnightblue" points="834.22,-218.74 825.29,-224.44 835.82,-225.55 834.22,-218.74"/>
</g>
<!-- Node20&#45;&gt;Node18 -->
<g id="edge36" class="edge">
<title>Node20&#45;&gt;Node18</title>
<path fill="none" stroke="midnightblue" d="M1049.93,-164.77C1076.41,-154.63 1113.39,-140.47 1136.76,-131.52"/>
<polygon fill="midnightblue" stroke="midnightblue" points="1048.43,-161.6 1040.34,-168.44 1050.93,-168.14 1048.43,-161.6"/>
</g>
<!-- Node21 -->
<g id="node21" class="node">
<title>Node21</title>
<g id="a_node21"><a xlink:href="LinearSplitPolicy_8hpp.html" target="_top" xlink:title=" ">
<polygon fill="white" stroke="black" points="667.5,-112.5 667.5,-131.5 784.5,-131.5 784.5,-112.5 667.5,-112.5"/>
<text text-anchor="middle" x="726" y="-119.5" font-family="Helvetica,sans-Serif" font-size="10.00">LinearSplitPolicy.hpp</text>
</a>
</g>
</g>
<!-- Node20&#45;&gt;Node21 -->
<g id="edge34" class="edge">
<title>Node20&#45;&gt;Node21</title>
<path fill="none" stroke="midnightblue" d="M964.37,-167.08C909.36,-156.91 824.66,-141.25 772.43,-131.59"/>
<polygon fill="midnightblue" stroke="midnightblue" points="963.81,-170.54 974.28,-168.92 965.09,-163.66 963.81,-170.54"/>
</g>
<!-- Node22 -->
<g id="node22" class="node">
<title>Node22</title>
<g id="a_node22"><a xlink:href="MidPointSplitPolicy_8hpp.html" target="_top" xlink:title=" ">
<polygon fill="white" stroke="black" points="803,-112.5 803,-131.5 933,-131.5 933,-112.5 803,-112.5"/>
<text text-anchor="middle" x="868" y="-119.5" font-family="Helvetica,sans-Serif" font-size="10.00">MidPointSplitPolicy.hpp</text>
</a>
</g>
</g>
<!-- Node20&#45;&gt;Node22 -->
<g id="edge35" class="edge">
<title>Node20&#45;&gt;Node22</title>
<path fill="none" stroke="midnightblue" d="M984.78,-165.04C956.55,-154.88 916.74,-140.55 891.66,-131.52"/>
<polygon fill="midnightblue" stroke="midnightblue" points="983.64,-168.35 994.23,-168.44 986.01,-161.76 983.64,-168.35"/>
</g>
<!-- Node23 -->
<g id="node23" class="node">
<title>Node23</title>
<g id="a_node23"><a xlink:href="WeightedSplitPolicy_8hpp.html" target="_top" xlink:title=" ">
<polygon fill="white" stroke="black" points="951.5,-112.5 951.5,-131.5 1084.5,-131.5 1084.5,-112.5 951.5,-112.5"/>
<text text-anchor="middle" x="1018" y="-119.5" font-family="Helvetica,sans-Serif" font-size="10.00">WeightedSplitPolicy.hpp</text>
</a>
</g>
</g>
<!-- Node20&#45;&gt;Node23 -->
<g id="edge37" class="edge">
<title>Node20&#45;&gt;Node23</title>
<path fill="none" stroke="midnightblue" d="M1018,-157.8C1018,-148.91 1018,-138.78 1018,-131.75"/>
<polygon fill="midnightblue" stroke="midnightblue" points="1014.5,-158.08 1018,-168.08 1021.5,-158.08 1014.5,-158.08"/>
</g>
</g>
</svg>
