<?xml version="1.0" encoding="UTF-8" standalone="no"?>
<!DOCTYPE svg PUBLIC "-//W3C//DTD SVG 1.1//EN"
 "http://www.w3.org/Graphics/SVG/1.1/DTD/svg11.dtd">
<!-- Generated by graphviz version 2.43.0 (0)
 -->
<!-- Title: PrimitiveSampler.hpp Pages: 1 -->
<svg width="620pt" height="140pt"
 viewBox="0.00 0.00 619.50 140.00" xmlns="http://www.w3.org/2000/svg" xmlns:xlink="http://www.w3.org/1999/xlink">
<g id="graph0" class="graph" transform="scale(1 1) rotate(0) translate(4 136)">
<title>PrimitiveSampler.hpp</title>
<polygon fill="white" stroke="transparent" points="-4,4 -4,-136 615.5,-136 615.5,4 -4,4"/>
<!-- Node1 -->
<g id="node1" class="node">
<title>Node1</title>
<g id="a_node1"><a xlink:title=" ">
<polygon fill="#bfbfbf" stroke="black" points="156,-112.5 156,-131.5 278,-131.5 278,-112.5 156,-112.5"/>
<text text-anchor="middle" x="217" y="-119.5" font-family="Helvetica,sans-Serif" font-size="10.00">PrimitiveSampler.hpp</text>
</a>
</g>
</g>
<!-- Node2 -->
<g id="node2" class="node">
<title>Node2</title>
<g id="a_node2"><a xlink:href="CartesianGridSampler_8hpp.html" target="_top" xlink:title=" ">
<polygon fill="white" stroke="black" points="0,-56.5 0,-75.5 144,-75.5 144,-56.5 0,-56.5"/>
<text text-anchor="middle" x="72" y="-63.5" font-family="Helvetica,sans-Serif" font-size="10.00">CartesianGridSampler.hpp</text>
</a>
</g>
</g>
<!-- Node1&#45;&gt;Node2 -->
<g id="edge1" class="edge">
<title>Node1&#45;&gt;Node2</title>
<path fill="none" stroke="midnightblue" d="M184.52,-108.91C157.26,-98.75 119.01,-84.51 94.87,-75.52"/>
<polygon fill="midnightblue" stroke="midnightblue" points="183.43,-112.23 194.02,-112.44 185.87,-105.67 183.43,-112.23"/>
</g>
<!-- Node3 -->
<g id="node3" class="node">
<title>Node3</title>
<g id="a_node3"><a xlink:href="CornerSampler_8hpp.html" target="_top" xlink:title=" ">
<polygon fill="white" stroke="black" points="162,-56.5 162,-75.5 272,-75.5 272,-56.5 162,-56.5"/>
<text text-anchor="middle" x="217" y="-63.5" font-family="Helvetica,sans-Serif" font-size="10.00">CornerSampler.hpp</text>
</a>
</g>
</g>
<!-- Node1&#45;&gt;Node3 -->
<g id="edge2" class="edge">
<title>Node1&#45;&gt;Node3</title>
<path fill="none" stroke="midnightblue" d="M217,-101.8C217,-92.91 217,-82.78 217,-75.75"/>
<polygon fill="midnightblue" stroke="midnightblue" points="213.5,-102.08 217,-112.08 220.5,-102.08 213.5,-102.08"/>
</g>
<!-- Node4 -->
<g id="node4" class="node">
<title>Node4</title>
<g id="a_node4"><a xlink:href="SplitPolicy_8hpp.html" target="_top" xlink:title=" ">
<polygon fill="white" stroke="black" points="290.5,-56.5 290.5,-75.5 377.5,-75.5 377.5,-56.5 290.5,-56.5"/>
<text text-anchor="middle" x="334" y="-63.5" font-family="Helvetica,sans-Serif" font-size="10.00">SplitPolicy.hpp</text>
</a>
</g>
</g>
<!-- Node1&#45;&gt;Node4 -->
<g id="edge3" class="edge">
<title>Node1&#45;&gt;Node4</title>
<path fill="none" stroke="midnightblue" d="M244.66,-108.23C266.55,-98.13 296.5,-84.31 315.55,-75.52"/>
<polygon fill="midnightblue" stroke="midnightblue" points="243.15,-105.08 235.54,-112.44 246.09,-111.43 243.15,-105.08"/>
</g>
<!-- Node5 -->
<g id="node5" class="node">
<title>Node5</title>
<g id="a_node5"><a xlink:href="LinearSplitPolicy_8hpp.html" target="_top" xlink:title=" ">
<polygon fill="white" stroke="black" points="63.5,-0.5 63.5,-19.5 180.5,-19.5 180.5,-0.5 63.5,-0.5"/>
<text text-anchor="middle" x="122" y="-7.5" font-family="Helvetica,sans-Serif" font-size="10.00">LinearSplitPolicy.hpp</text>
</a>
</g>
</g>
<!-- Node4&#45;&gt;Node5 -->
<g id="edge4" class="edge">
<title>Node4&#45;&gt;Node5</title>
<path fill="none" stroke="midnightblue" d="M290.65,-53.96C250.61,-43.76 191.97,-28.82 155.43,-19.52"/>
<polygon fill="midnightblue" stroke="midnightblue" points="289.85,-57.37 300.41,-56.44 291.58,-50.58 289.85,-57.37"/>
</g>
<!-- Node6 -->
<g id="node6" class="node">
<title>Node6</title>
<g id="a_node6"><a xlink:href="MidPointSplitPolicy_8hpp.html" target="_top" xlink:title=" ">
<polygon fill="white" stroke="black" points="199,-0.5 199,-19.5 329,-19.5 329,-0.5 199,-0.5"/>
<text text-anchor="middle" x="264" y="-7.5" font-family="Helvetica,sans-Serif" font-size="10.00">MidPointSplitPolicy.hpp</text>
</a>
</g>
</g>
<!-- Node4&#45;&gt;Node6 -->
<g id="edge5" class="edge">
<title>Node4&#45;&gt;Node6</title>
<path fill="none" stroke="midnightblue" d="M314.69,-50.1C302.09,-40.38 286.07,-28.03 275.45,-19.83"/>
<polygon fill="midnightblue" stroke="midnightblue" points="312.7,-52.99 322.75,-56.32 316.97,-47.44 312.7,-52.99"/>
</g>
<!-- Node7 -->
<g id="node7" class="node">
<title>Node7</title>
<g id="a_node7"><a xlink:href="SpaceTreeNode_8hpp.html" target="_top" xlink:title=" ">
<polygon fill="white" stroke="black" points="347.5,-0.5 347.5,-19.5 460.5,-19.5 460.5,-0.5 347.5,-0.5"/>
<text text-anchor="middle" x="404" y="-7.5" font-family="Helvetica,sans-Serif" font-size="10.00">SpaceTreeNode.hpp</text>
</a>
</g>
</g>
<!-- Node4&#45;&gt;Node7 -->
<g id="edge6" class="edge">
<title>Node4&#45;&gt;Node7</title>
<path fill="none" stroke="midnightblue" d="M353.31,-50.1C365.91,-40.38 381.93,-28.03 392.55,-19.83"/>
<polygon fill="midnightblue" stroke="midnightblue" points="351.03,-47.44 345.25,-56.32 355.3,-52.99 351.03,-47.44"/>
</g>
<!-- Node8 -->
<g id="node8" class="node">
<title>Node8</title>
<g id="a_node8"><a xlink:href="WeightedSplitPolicy_8hpp.html" target="_top" xlink:title=" ">
<polygon fill="white" stroke="black" points="478.5,-0.5 478.5,-19.5 611.5,-19.5 611.5,-0.5 478.5,-0.5"/>
<text text-anchor="middle" x="545" y="-7.5" font-family="Helvetica,sans-Serif" font-size="10.00">WeightedSplitPolicy.hpp</text>
</a>
</g>
</g>
<!-- Node4&#45;&gt;Node8 -->
<g id="edge7" class="edge">
<title>Node4&#45;&gt;Node8</title>
<path fill="none" stroke="midnightblue" d="M377.14,-53.96C416.99,-43.76 475.36,-28.82 511.72,-19.52"/>
<polygon fill="midnightblue" stroke="midnightblue" points="376.25,-50.57 367.43,-56.44 377.99,-57.35 376.25,-50.57"/>
</g>
</g>
</svg>
