<?xml version="1.0" encoding="UTF-8" standalone="no"?>
<!DOCTYPE svg PUBLIC "-//W3C//DTD SVG 1.1//EN"
 "http://www.w3.org/Graphics/SVG/1.1/DTD/svg11.dtd">
<!-- Generated by graphviz version 2.43.0 (0)
 -->
<!-- Title: concepts.hpp Pages: 1 -->
<svg width="1224pt" height="308pt"
 viewBox="0.00 0.00 1223.50 308.00" xmlns="http://www.w3.org/2000/svg" xmlns:xlink="http://www.w3.org/1999/xlink">
<g id="graph0" class="graph" transform="scale(1 1) rotate(0) translate(4 304)">
<title>concepts.hpp</title>
<polygon fill="white" stroke="transparent" points="-4,4 -4,-304 1219.5,-304 1219.5,4 -4,4"/>
<!-- Node1 -->
<g id="node1" class="node">
<title>Node1</title>
<g id="a_node1"><a xlink:title=" ">
<polygon fill="#bfbfbf" stroke="black" points="571.5,-280.5 571.5,-299.5 652.5,-299.5 652.5,-280.5 571.5,-280.5"/>
<text text-anchor="middle" x="612" y="-287.5" font-family="Helvetica,sans-Serif" font-size="10.00">concepts.hpp</text>
</a>
</g>
</g>
<!-- Node2 -->
<g id="node2" class="node">
<title>Node2</title>
<g id="a_node2"><a xlink:href="AbsMarchingPrimitives_8hpp.html" target="_top" xlink:title=" ">
<polygon fill="white" stroke="black" points="177,-224.5 177,-243.5 327,-243.5 327,-224.5 177,-224.5"/>
<text text-anchor="middle" x="252" y="-231.5" font-family="Helvetica,sans-Serif" font-size="10.00">AbsMarchingPrimitives.hpp</text>
</a>
</g>
</g>
<!-- Node1&#45;&gt;Node2 -->
<g id="edge1" class="edge">
<title>Node1&#45;&gt;Node2</title>
<path fill="none" stroke="midnightblue" d="M561.15,-281.37C494.54,-271.38 378.07,-253.91 308.68,-243.5"/>
<polygon fill="midnightblue" stroke="midnightblue" points="560.99,-284.89 571.4,-282.91 562.03,-277.97 560.99,-284.89"/>
</g>
<!-- Node5 -->
<g id="node5" class="node">
<title>Node5</title>
<g id="a_node5"><a xlink:href="Box_8hpp.html" target="_top" xlink:title=" ">
<polygon fill="white" stroke="black" points="504,-224.5 504,-243.5 560,-243.5 560,-224.5 504,-224.5"/>
<text text-anchor="middle" x="532" y="-231.5" font-family="Helvetica,sans-Serif" font-size="10.00">Box.hpp</text>
</a>
</g>
</g>
<!-- Node1&#45;&gt;Node5 -->
<g id="edge4" class="edge">
<title>Node1&#45;&gt;Node5</title>
<path fill="none" stroke="midnightblue" d="M590.7,-274.62C576.08,-264.76 557.17,-251.99 544.82,-243.65"/>
<polygon fill="midnightblue" stroke="midnightblue" points="588.9,-277.63 599.15,-280.32 592.82,-271.83 588.9,-277.63"/>
</g>
<!-- Node15 -->
<g id="node15" class="node">
<title>Node15</title>
<g id="a_node15"><a xlink:href="Cube_8hpp.html" target="_top" xlink:title=" ">
<polygon fill="white" stroke="black" points="581,-224.5 581,-243.5 643,-243.5 643,-224.5 581,-224.5"/>
<text text-anchor="middle" x="612" y="-231.5" font-family="Helvetica,sans-Serif" font-size="10.00">Cube.hpp</text>
</a>
</g>
</g>
<!-- Node1&#45;&gt;Node15 -->
<g id="edge17" class="edge">
<title>Node1&#45;&gt;Node15</title>
<path fill="none" stroke="midnightblue" d="M612,-269.8C612,-260.91 612,-250.78 612,-243.75"/>
<polygon fill="midnightblue" stroke="midnightblue" points="608.5,-270.08 612,-280.08 615.5,-270.08 608.5,-270.08"/>
</g>
<!-- Node16 -->
<g id="node16" class="node">
<title>Node16</title>
<g id="a_node16"><a xlink:href="AbsCell_8hpp.html" target="_top" xlink:title=" ">
<polygon fill="white" stroke="black" points="891,-224.5 891,-243.5 965,-243.5 965,-224.5 891,-224.5"/>
<text text-anchor="middle" x="928" y="-231.5" font-family="Helvetica,sans-Serif" font-size="10.00">AbsCell.hpp</text>
</a>
</g>
</g>
<!-- Node1&#45;&gt;Node16 -->
<g id="edge24" class="edge">
<title>Node1&#45;&gt;Node16</title>
<path fill="none" stroke="midnightblue" d="M662.89,-280.3C726.67,-269.41 834.44,-250.99 890.93,-241.34"/>
<polygon fill="midnightblue" stroke="midnightblue" points="661.93,-276.92 652.66,-282.05 663.11,-283.82 661.93,-276.92"/>
</g>
<!-- Node18 -->
<g id="node18" class="node">
<title>Node18</title>
<g id="a_node18"><a xlink:href="PrimitiveSampler_8hpp.html" target="_top" xlink:title=" ">
<polygon fill="white" stroke="black" points="691,-224.5 691,-243.5 813,-243.5 813,-224.5 691,-224.5"/>
<text text-anchor="middle" x="752" y="-231.5" font-family="Helvetica,sans-Serif" font-size="10.00">PrimitiveSampler.hpp</text>
</a>
</g>
</g>
<!-- Node1&#45;&gt;Node18 -->
<g id="edge27" class="edge">
<title>Node1&#45;&gt;Node18</title>
<path fill="none" stroke="midnightblue" d="M643.7,-276.77C670,-266.63 706.72,-252.47 729.92,-243.52"/>
<polygon fill="midnightblue" stroke="midnightblue" points="642.25,-273.58 634.18,-280.44 644.77,-280.11 642.25,-273.58"/>
</g>
<!-- Node3 -->
<g id="node3" class="node">
<title>Node3</title>
<g id="a_node3"><a xlink:href="MarchingPrimitives_8hpp.html" target="_top" xlink:title=" ">
<polygon fill="white" stroke="black" points="0,-168.5 0,-187.5 132,-187.5 132,-168.5 0,-168.5"/>
<text text-anchor="middle" x="66" y="-175.5" font-family="Helvetica,sans-Serif" font-size="10.00">MarchingPrimitives.hpp</text>
</a>
</g>
</g>
<!-- Node2&#45;&gt;Node3 -->
<g id="edge2" class="edge">
<title>Node2&#45;&gt;Node3</title>
<path fill="none" stroke="midnightblue" d="M212.62,-221.57C177.53,-211.38 126.98,-196.7 95.33,-187.52"/>
<polygon fill="midnightblue" stroke="midnightblue" points="211.95,-225.02 222.53,-224.44 213.9,-218.29 211.95,-225.02"/>
</g>
<!-- Node4 -->
<g id="node4" class="node">
<title>Node4</title>
<g id="a_node4"><a xlink:href="MarchingCubes_8hpp.html" target="_top" xlink:title=" ">
<polygon fill="white" stroke="black" points="64.5,-112.5 64.5,-131.5 177.5,-131.5 177.5,-112.5 64.5,-112.5"/>
<text text-anchor="middle" x="121" y="-119.5" font-family="Helvetica,sans-Serif" font-size="10.00">MarchingCubes.hpp</text>
</a>
</g>
</g>
<!-- Node3&#45;&gt;Node4 -->
<g id="edge3" class="edge">
<title>Node3&#45;&gt;Node4</title>
<path fill="none" stroke="midnightblue" d="M82.29,-161C92.04,-151.43 104.05,-139.64 112.09,-131.75"/>
<polygon fill="midnightblue" stroke="midnightblue" points="79.77,-158.58 75.08,-168.08 84.67,-163.57 79.77,-158.58"/>
</g>
<!-- Node5&#45;&gt;Node4 -->
<g id="edge5" class="edge">
<title>Node5&#45;&gt;Node4</title>
<path fill="none" stroke="midnightblue" d="M493.74,-231.48C414.01,-227.79 233.02,-216.44 179,-188 153.84,-174.76 134.35,-145.91 125.78,-131.52"/>
<polygon fill="midnightblue" stroke="midnightblue" points="493.69,-234.98 503.84,-231.94 494.01,-227.99 493.69,-234.98"/>
</g>
<!-- Node6 -->
<g id="node6" class="node">
<title>Node6</title>
<g id="a_node6"><a xlink:href="AABBox_8hpp.html" target="_top" xlink:title=" ">
<polygon fill="white" stroke="black" points="188.5,-168.5 188.5,-187.5 265.5,-187.5 265.5,-168.5 188.5,-168.5"/>
<text text-anchor="middle" x="227" y="-175.5" font-family="Helvetica,sans-Serif" font-size="10.00">AABBox.hpp</text>
</a>
</g>
</g>
<!-- Node5&#45;&gt;Node6 -->
<g id="edge6" class="edge">
<title>Node5&#45;&gt;Node6</title>
<path fill="none" stroke="midnightblue" d="M493.76,-226.45C443.53,-217.82 352.6,-202.07 275,-188 271.91,-187.44 268.72,-186.85 265.5,-186.26"/>
<polygon fill="midnightblue" stroke="midnightblue" points="493.39,-229.94 503.84,-228.18 494.58,-223.04 493.39,-229.94"/>
</g>
<!-- Node10 -->
<g id="node10" class="node">
<title>Node10</title>
<g id="a_node10"><a xlink:href="cartesianmesh_8hpp.html" target="_top" xlink:title=" ">
<polygon fill="white" stroke="black" points="444,-168.5 444,-187.5 554,-187.5 554,-168.5 444,-168.5"/>
<text text-anchor="middle" x="499" y="-175.5" font-family="Helvetica,sans-Serif" font-size="10.00">cartesianmesh.hpp</text>
</a>
</g>
</g>
<!-- Node5&#45;&gt;Node10 -->
<g id="edge11" class="edge">
<title>Node5&#45;&gt;Node10</title>
<path fill="none" stroke="midnightblue" d="M521.17,-215.27C515.53,-206.05 508.88,-195.17 504.35,-187.75"/>
<polygon fill="midnightblue" stroke="midnightblue" points="518.35,-217.38 526.55,-224.08 524.32,-213.73 518.35,-217.38"/>
</g>
<!-- Node11 -->
<g id="node11" class="node">
<title>Node11</title>
<g id="a_node11"><a xlink:href="CartesianGridSampler_8hpp.html" target="_top" xlink:title=" ">
<polygon fill="white" stroke="black" points="610,-168.5 610,-187.5 754,-187.5 754,-168.5 610,-168.5"/>
<text text-anchor="middle" x="682" y="-175.5" font-family="Helvetica,sans-Serif" font-size="10.00">CartesianGridSampler.hpp</text>
</a>
</g>
</g>
<!-- Node5&#45;&gt;Node11 -->
<g id="edge12" class="edge">
<title>Node5&#45;&gt;Node11</title>
<path fill="none" stroke="midnightblue" d="M565.22,-221.04C593.45,-210.88 633.26,-196.55 658.34,-187.52"/>
<polygon fill="midnightblue" stroke="midnightblue" points="563.99,-217.76 555.77,-224.44 566.36,-224.35 563.99,-217.76"/>
</g>
<!-- Node12 -->
<g id="node12" class="node">
<title>Node12</title>
<g id="a_node12"><a xlink:href="Cell_8hpp.html" target="_top" xlink:title=" ">
<polygon fill="white" stroke="black" points="900,-168.5 900,-187.5 956,-187.5 956,-168.5 900,-168.5"/>
<text text-anchor="middle" x="928" y="-175.5" font-family="Helvetica,sans-Serif" font-size="10.00">Cell.hpp</text>
</a>
</g>
</g>
<!-- Node5&#45;&gt;Node12 -->
<g id="edge13" class="edge">
<title>Node5&#45;&gt;Node12</title>
<path fill="none" stroke="midnightblue" d="M570.21,-224.31C570.81,-224.2 571.41,-224.1 572,-224 712.7,-200.31 750.51,-212.91 891,-188 893.86,-187.49 896.84,-186.89 899.8,-186.25"/>
<polygon fill="midnightblue" stroke="midnightblue" points="569.48,-220.88 560.33,-226.22 570.82,-227.76 569.48,-220.88"/>
</g>
<!-- Node13 -->
<g id="node13" class="node">
<title>Node13</title>
<g id="a_node13"><a xlink:href="ContiguousSpaceTree_8hpp.html" target="_top" xlink:title=" ">
<polygon fill="white" stroke="black" points="284,-168.5 284,-187.5 426,-187.5 426,-168.5 284,-168.5"/>
<text text-anchor="middle" x="355" y="-175.5" font-family="Helvetica,sans-Serif" font-size="10.00">ContiguousSpaceTree.hpp</text>
</a>
</g>
</g>
<!-- Node5&#45;&gt;Node13 -->
<g id="edge15" class="edge">
<title>Node5&#45;&gt;Node13</title>
<path fill="none" stroke="midnightblue" d="M494.1,-221.44C460.72,-211.26 412.9,-196.66 382.91,-187.52"/>
<polygon fill="midnightblue" stroke="midnightblue" points="493.37,-224.87 503.95,-224.44 495.41,-218.18 493.37,-224.87"/>
</g>
<!-- Node14 -->
<g id="node14" class="node">
<title>Node14</title>
<g id="a_node14"><a xlink:href="CornerSampler_8hpp.html" target="_top" xlink:title=" ">
<polygon fill="white" stroke="black" points="772,-168.5 772,-187.5 882,-187.5 882,-168.5 772,-168.5"/>
<text text-anchor="middle" x="827" y="-175.5" font-family="Helvetica,sans-Serif" font-size="10.00">CornerSampler.hpp</text>
</a>
</g>
</g>
<!-- Node5&#45;&gt;Node14 -->
<g id="edge16" class="edge">
<title>Node5&#45;&gt;Node14</title>
<path fill="none" stroke="midnightblue" d="M570.22,-224.36C570.82,-224.24 571.41,-224.12 572,-224 641.86,-209.98 722.97,-196.07 774.61,-187.51"/>
<polygon fill="midnightblue" stroke="midnightblue" points="569.43,-220.95 560.37,-226.44 570.88,-227.8 569.43,-220.95"/>
</g>
<!-- Node7 -->
<g id="node7" class="node">
<title>Node7</title>
<g id="a_node7"><a xlink:href="AABBoxNode_8hpp.html" target="_top" xlink:title=" ">
<polygon fill="white" stroke="black" points="312,-0.5 312,-19.5 414,-19.5 414,-0.5 312,-0.5"/>
<text text-anchor="middle" x="363" y="-7.5" font-family="Helvetica,sans-Serif" font-size="10.00">AABBoxNode.hpp</text>
</a>
</g>
</g>
<!-- Node6&#45;&gt;Node7 -->
<g id="edge7" class="edge">
<title>Node6&#45;&gt;Node7</title>
<path fill="none" stroke="midnightblue" d="M268.7,-165.58C297.84,-156.76 333.21,-144.05 343,-132 370.39,-98.29 366.83,-41.47 364.25,-19.78"/>
<polygon fill="midnightblue" stroke="midnightblue" points="267.7,-162.23 259.11,-168.42 269.69,-168.94 267.7,-162.23"/>
</g>
<!-- Node8 -->
<g id="node8" class="node">
<title>Node8</title>
<g id="a_node8"><a xlink:href="AbsBoundableObject_8hpp.html" target="_top" xlink:title=" ">
<polygon fill="white" stroke="black" points="195.5,-112.5 195.5,-131.5 334.5,-131.5 334.5,-112.5 195.5,-112.5"/>
<text text-anchor="middle" x="265" y="-119.5" font-family="Helvetica,sans-Serif" font-size="10.00">AbsBoundableObject.hpp</text>
</a>
</g>
</g>
<!-- Node6&#45;&gt;Node8 -->
<g id="edge8" class="edge">
<title>Node6&#45;&gt;Node8</title>
<path fill="none" stroke="midnightblue" d="M239.06,-159.86C245.64,-150.5 253.51,-139.33 258.84,-131.75"/>
<polygon fill="midnightblue" stroke="midnightblue" points="236.17,-157.89 233.27,-168.08 241.89,-161.92 236.17,-157.89"/>
</g>
<!-- Node9 -->
<g id="node9" class="node">
<title>Node9</title>
<g id="a_node9"><a xlink:href="boundingBox_8hpp.html" target="_top" xlink:title=" ">
<polygon fill="white" stroke="black" points="224.5,-56.5 224.5,-75.5 325.5,-75.5 325.5,-56.5 224.5,-56.5"/>
<text text-anchor="middle" x="275" y="-63.5" font-family="Helvetica,sans-Serif" font-size="10.00">boundingBox.hpp</text>
</a>
</g>
</g>
<!-- Node8&#45;&gt;Node9 -->
<g id="edge9" class="edge">
<title>Node8&#45;&gt;Node9</title>
<path fill="none" stroke="midnightblue" d="M268.5,-102.1C270.16,-93.14 272.06,-82.86 273.38,-75.75"/>
<polygon fill="midnightblue" stroke="midnightblue" points="265.03,-101.61 266.65,-112.08 271.91,-102.89 265.03,-101.61"/>
</g>
<!-- Node9&#45;&gt;Node7 -->
<g id="edge10" class="edge">
<title>Node9&#45;&gt;Node7</title>
<path fill="none" stroke="midnightblue" d="M297.98,-50.9C314.11,-41 335.18,-28.07 348.9,-19.65"/>
<polygon fill="midnightblue" stroke="midnightblue" points="295.83,-48.11 289.14,-56.32 299.49,-54.08 295.83,-48.11"/>
</g>
<!-- Node12&#45;&gt;Node7 -->
<g id="edge14" class="edge">
<title>Node12&#45;&gt;Node7</title>
<path fill="none" stroke="midnightblue" d="M889.86,-167.94C786.38,-148.32 755.9,-159.23 658,-132 548.14,-101.44 424.07,-41.71 379.79,-19.55"/>
<polygon fill="midnightblue" stroke="midnightblue" points="889.29,-171.4 899.77,-169.87 890.63,-164.52 889.29,-171.4"/>
</g>
<!-- Node15&#45;&gt;Node4 -->
<g id="edge18" class="edge">
<title>Node15&#45;&gt;Node4</title>
<path fill="none" stroke="midnightblue" d="M603.94,-215.39C595.91,-200.05 582.02,-178.64 563,-168 489.55,-126.91 269.59,-141.77 186,-132 183.28,-131.68 180.51,-131.35 177.7,-131"/>
<polygon fill="midnightblue" stroke="midnightblue" points="600.83,-216.99 608.37,-224.42 607.11,-213.9 600.83,-216.99"/>
</g>
<!-- Node15&#45;&gt;Node10 -->
<g id="edge19" class="edge">
<title>Node15&#45;&gt;Node10</title>
<path fill="none" stroke="midnightblue" d="M585,-220.1C563.89,-210.01 535.14,-196.27 516.82,-187.52"/>
<polygon fill="midnightblue" stroke="midnightblue" points="583.56,-223.29 594.09,-224.44 586.58,-216.97 583.56,-223.29"/>
</g>
<!-- Node15&#45;&gt;Node11 -->
<g id="edge20" class="edge">
<title>Node15&#45;&gt;Node11</title>
<path fill="none" stroke="midnightblue" d="M631.31,-218.1C643.91,-208.38 659.93,-196.03 670.55,-187.83"/>
<polygon fill="midnightblue" stroke="midnightblue" points="629.03,-215.44 623.25,-224.32 633.3,-220.99 629.03,-215.44"/>
</g>
<!-- Node15&#45;&gt;Node12 -->
<g id="edge21" class="edge">
<title>Node15&#45;&gt;Node12</title>
<path fill="none" stroke="midnightblue" d="M653.09,-227.41C707.66,-219.74 806.96,-204.97 891,-188 893.85,-187.42 896.82,-186.78 899.77,-186.11"/>
<polygon fill="midnightblue" stroke="midnightblue" points="652.53,-223.95 643.11,-228.8 653.5,-230.88 652.53,-223.95"/>
</g>
<!-- Node15&#45;&gt;Node13 -->
<g id="edge22" class="edge">
<title>Node15&#45;&gt;Node13</title>
<path fill="none" stroke="midnightblue" d="M570.95,-224.37C522.9,-214.28 443.81,-197.66 395.85,-187.58"/>
<polygon fill="midnightblue" stroke="midnightblue" points="570.49,-227.86 581,-226.49 571.93,-221 570.49,-227.86"/>
</g>
<!-- Node15&#45;&gt;Node14 -->
<g id="edge23" class="edge">
<title>Node15&#45;&gt;Node14</title>
<path fill="none" stroke="midnightblue" d="M653.1,-222.68C693.64,-212.49 754.91,-197.11 792.86,-187.58"/>
<polygon fill="midnightblue" stroke="midnightblue" points="652.11,-219.32 643.26,-225.15 653.81,-226.11 652.11,-219.32"/>
</g>
<!-- Node16&#45;&gt;Node12 -->
<g id="edge25" class="edge">
<title>Node16&#45;&gt;Node12</title>
<path fill="none" stroke="midnightblue" d="M928,-213.8C928,-204.91 928,-194.78 928,-187.75"/>
<polygon fill="midnightblue" stroke="midnightblue" points="924.5,-214.08 928,-224.08 931.5,-214.08 924.5,-214.08"/>
</g>
<!-- Node17 -->
<g id="node17" class="node">
<title>Node17</title>
<g id="a_node17"><a xlink:href="SpaceTreeNode_8hpp.html" target="_top" xlink:title=" ">
<polygon fill="white" stroke="black" points="1102.5,-112.5 1102.5,-131.5 1215.5,-131.5 1215.5,-112.5 1102.5,-112.5"/>
<text text-anchor="middle" x="1159" y="-119.5" font-family="Helvetica,sans-Serif" font-size="10.00">SpaceTreeNode.hpp</text>
</a>
</g>
</g>
<!-- Node16&#45;&gt;Node17 -->
<g id="edge26" class="edge">
<title>Node16&#45;&gt;Node17</title>
<path fill="none" stroke="midnightblue" d="M974.93,-222.43C1003.6,-214.96 1040.5,-203.52 1071,-188 1102.15,-172.16 1133.98,-145.51 1149.42,-131.77"/>
<polygon fill="midnightblue" stroke="midnightblue" points="973.99,-219.06 965.15,-224.91 975.7,-225.84 973.99,-219.06"/>
</g>
<!-- Node18&#45;&gt;Node11 -->
<g id="edge28" class="edge">
<title>Node18&#45;&gt;Node11</title>
<path fill="none" stroke="midnightblue" d="M732.69,-218.1C720.09,-208.38 704.07,-196.03 693.45,-187.83"/>
<polygon fill="midnightblue" stroke="midnightblue" points="730.7,-220.99 740.75,-224.32 734.97,-215.44 730.7,-220.99"/>
</g>
<!-- Node18&#45;&gt;Node14 -->
<g id="edge29" class="edge">
<title>Node18&#45;&gt;Node14</title>
<path fill="none" stroke="midnightblue" d="M772.31,-218.38C785.86,-208.62 803.24,-196.11 814.73,-187.83"/>
<polygon fill="midnightblue" stroke="midnightblue" points="770.12,-215.64 764.05,-224.32 774.21,-221.32 770.12,-215.64"/>
</g>
<!-- Node19 -->
<g id="node19" class="node">
<title>Node19</title>
<g id="a_node19"><a xlink:href="SplitPolicy_8hpp.html" target="_top" xlink:title=" ">
<polygon fill="white" stroke="black" points="974.5,-168.5 974.5,-187.5 1061.5,-187.5 1061.5,-168.5 974.5,-168.5"/>
<text text-anchor="middle" x="1018" y="-175.5" font-family="Helvetica,sans-Serif" font-size="10.00">SplitPolicy.hpp</text>
</a>
</g>
</g>
<!-- Node18&#45;&gt;Node19 -->
<g id="edge30" class="edge">
<title>Node18&#45;&gt;Node19</title>
<path fill="none" stroke="midnightblue" d="M804.17,-222.41C854.44,-212.2 929.53,-196.96 976.05,-187.52"/>
<polygon fill="midnightblue" stroke="midnightblue" points="803.25,-219.02 794.15,-224.44 804.64,-225.88 803.25,-219.02"/>
</g>
<!-- Node19&#45;&gt;Node17 -->
<g id="edge33" class="edge">
<title>Node19&#45;&gt;Node17</title>
<path fill="none" stroke="midnightblue" d="M1049.93,-164.77C1076.41,-154.63 1113.39,-140.47 1136.76,-131.52"/>
<polygon fill="midnightblue" stroke="midnightblue" points="1048.43,-161.6 1040.34,-168.44 1050.93,-168.14 1048.43,-161.6"/>
</g>
<!-- Node20 -->
<g id="node20" class="node">
<title>Node20</title>
<g id="a_node20"><a xlink:href="LinearSplitPolicy_8hpp.html" target="_top" xlink:title=" ">
<polygon fill="white" stroke="black" points="667.5,-112.5 667.5,-131.5 784.5,-131.5 784.5,-112.5 667.5,-112.5"/>
<text text-anchor="middle" x="726" y="-119.5" font-family="Helvetica,sans-Serif" font-size="10.00">LinearSplitPolicy.hpp</text>
</a>
</g>
</g>
<!-- Node19&#45;&gt;Node20 -->
<g id="edge31" class="edge">
<title>Node19&#45;&gt;Node20</title>
<path fill="none" stroke="midnightblue" d="M964.37,-167.08C909.36,-156.91 824.66,-141.25 772.43,-131.59"/>
<polygon fill="midnightblue" stroke="midnightblue" points="963.81,-170.54 974.28,-168.92 965.09,-163.66 963.81,-170.54"/>
</g>
<!-- Node21 -->
<g id="node21" class="node">
<title>Node21</title>
<g id="a_node21"><a xlink:href="MidPointSplitPolicy_8hpp.html" target="_top" xlink:title=" ">
<polygon fill="white" stroke="black" points="803,-112.5 803,-131.5 933,-131.5 933,-112.5 803,-112.5"/>
<text text-anchor="middle" x="868" y="-119.5" font-family="Helvetica,sans-Serif" font-size="10.00">MidPointSplitPolicy.hpp</text>
</a>
</g>
</g>
<!-- Node19&#45;&gt;Node21 -->
<g id="edge32" class="edge">
<title>Node19&#45;&gt;Node21</title>
<path fill="none" stroke="midnightblue" d="M984.78,-165.04C956.55,-154.88 916.74,-140.55 891.66,-131.52"/>
<polygon fill="midnightblue" stroke="midnightblue" points="983.64,-168.35 994.23,-168.44 986.01,-161.76 983.64,-168.35"/>
</g>
<!-- Node22 -->
<g id="node22" class="node">
<title>Node22</title>
<g id="a_node22"><a xlink:href="WeightedSplitPolicy_8hpp.html" target="_top" xlink:title=" ">
<polygon fill="white" stroke="black" points="951.5,-112.5 951.5,-131.5 1084.5,-131.5 1084.5,-112.5 951.5,-112.5"/>
<text text-anchor="middle" x="1018" y="-119.5" font-family="Helvetica,sans-Serif" font-size="10.00">WeightedSplitPolicy.hpp</text>
</a>
</g>
</g>
<!-- Node19&#45;&gt;Node22 -->
<g id="edge34" class="edge">
<title>Node19&#45;&gt;Node22</title>
<path fill="none" stroke="midnightblue" d="M1018,-157.8C1018,-148.91 1018,-138.78 1018,-131.75"/>
<polygon fill="midnightblue" stroke="midnightblue" points="1014.5,-158.08 1018,-168.08 1021.5,-158.08 1014.5,-158.08"/>
</g>
</g>
</svg>
