<?xml version="1.0" encoding="UTF-8" standalone="no"?>
<!DOCTYPE svg PUBLIC "-//W3C//DTD SVG 1.1//EN"
 "http://www.w3.org/Graphics/SVG/1.1/DTD/svg11.dtd">
<!-- Generated by graphviz version 2.43.0 (0)
 -->
<!-- Title: SpaceTreeNode.hpp Pages: 1 -->
<svg width="2392pt" height="552pt"
 viewBox="0.00 0.00 2392.00 552.00" xmlns="http://www.w3.org/2000/svg" xmlns:xlink="http://www.w3.org/1999/xlink">
<g id="graph0" class="graph" transform="scale(1 1) rotate(0) translate(4 548)">
<title>SpaceTreeNode.hpp</title>
<polygon fill="white" stroke="transparent" points="-4,4 -4,-548 2388,-548 2388,4 -4,4"/>
<!-- Node1 -->
<g id="node1" class="node">
<title>Node1</title>
<g id="a_node1"><a xlink:title=" ">
<polygon fill="#bfbfbf" stroke="black" points="1364,-524.5 1364,-543.5 1477,-543.5 1477,-524.5 1364,-524.5"/>
<text text-anchor="middle" x="1420.5" y="-531.5" font-family="Helvetica,sans-Serif" font-size="10.00">SpaceTreeNode.hpp</text>
</a>
</g>
</g>
<!-- Node2 -->
<g id="node2" class="node">
<title>Node2</title>
<g id="a_node2"><a target="_parent" xlink:href="../../../cieutils/docs/html/exception_8hpp.html.html" xlink:title=" ">
<polygon fill="white" stroke="black" points="0,-452 0,-482 119,-482 119,-452 0,-452"/>
<text text-anchor="start" x="8" y="-470" font-family="Helvetica,sans-Serif" font-size="10.00">packages/exceptions</text>
<text text-anchor="middle" x="59.5" y="-459" font-family="Helvetica,sans-Serif" font-size="10.00">/inc/exception.hpp</text>
</a>
</g>
</g>
<!-- Node1&#45;&gt;Node2 -->
<g id="edge1" class="edge">
<title>Node1&#45;&gt;Node2</title>
<path fill="none" stroke="midnightblue" d="M1363.98,-532.92C1147.47,-532.31 370.85,-527.38 127.5,-488 122.11,-487.13 116.54,-485.96 111.03,-484.62"/>
<polygon fill="midnightblue" stroke="midnightblue" points="111.76,-481.19 101.2,-482.05 109.99,-487.96 111.76,-481.19"/>
</g>
<!-- Node3 -->
<g id="node3" class="node">
<title>Node3</title>
<g id="a_node3"><a target="_parent" xlink:href="../../../cieutils/docs/html/checks_8hpp.html.html" xlink:title=" ">
<polygon fill="white" stroke="black" points="137,-452 137,-482 256,-482 256,-452 137,-452"/>
<text text-anchor="start" x="145" y="-470" font-family="Helvetica,sans-Serif" font-size="10.00">packages/macros/inc</text>
<text text-anchor="middle" x="196.5" y="-459" font-family="Helvetica,sans-Serif" font-size="10.00">/checks.hpp</text>
</a>
</g>
</g>
<!-- Node1&#45;&gt;Node3 -->
<g id="edge2" class="edge">
<title>Node1&#45;&gt;Node3</title>
<path fill="none" stroke="midnightblue" d="M1363.83,-532.47C1162.88,-530.32 484.93,-520.74 270.5,-488 264.37,-487.06 258.02,-485.81 251.73,-484.37"/>
<polygon fill="midnightblue" stroke="midnightblue" points="252.49,-480.96 241.95,-482 250.84,-487.76 252.49,-480.96"/>
</g>
<!-- Node4 -->
<g id="node4" class="node">
<title>Node4</title>
<g id="a_node4"><a target="_parent" xlink:href="../../../cieutils/docs/html/typedefs_8hpp.html.html" xlink:title=" ">
<polygon fill="white" stroke="black" points="1185,-78.5 1185,-108.5 1304,-108.5 1304,-78.5 1185,-78.5"/>
<text text-anchor="start" x="1193" y="-96.5" font-family="Helvetica,sans-Serif" font-size="10.00">packages/macros/inc</text>
<text text-anchor="middle" x="1244.5" y="-85.5" font-family="Helvetica,sans-Serif" font-size="10.00">/typedefs.hpp</text>
</a>
</g>
</g>
<!-- Node1&#45;&gt;Node4 -->
<g id="edge3" class="edge">
<title>Node1&#45;&gt;Node4</title>
<path fill="none" stroke="midnightblue" d="M1396.5,-524.41C1379.91,-517.23 1358.7,-505.34 1346.5,-488 1320.93,-451.64 1326.5,-434.45 1326.5,-390 1326.5,-390 1326.5,-390 1326.5,-310 1326.5,-235.83 1283.54,-156.13 1259.81,-117.76"/>
<polygon fill="midnightblue" stroke="midnightblue" points="1262.53,-115.51 1254.23,-108.93 1256.61,-119.25 1262.53,-115.51"/>
</g>
<!-- Node5 -->
<g id="node5" class="node">
<title>Node5</title>
<g id="a_node5"><a xlink:href="AbsCell_8hpp.html" target="_top" xlink:title=" ">
<polygon fill="white" stroke="black" points="656,-374 656,-404 763,-404 763,-374 656,-374"/>
<text text-anchor="start" x="664" y="-392" font-family="Helvetica,sans-Serif" font-size="10.00">packages/trees/inc</text>
<text text-anchor="middle" x="709.5" y="-381" font-family="Helvetica,sans-Serif" font-size="10.00">/AbsCell.hpp</text>
</a>
</g>
</g>
<!-- Node1&#45;&gt;Node5 -->
<g id="edge4" class="edge">
<title>Node1&#45;&gt;Node5</title>
<path fill="none" stroke="midnightblue" d="M1363.89,-531.79C1241.85,-528.62 957.65,-518.16 866.5,-488 815.14,-471 763.42,-433.97 734.04,-410.61"/>
<polygon fill="midnightblue" stroke="midnightblue" points="735.99,-407.69 726.01,-404.12 731.59,-413.13 735.99,-407.69"/>
</g>
<!-- Node13 -->
<g id="node13" class="node">
<title>Node13</title>
<g id="a_node13"><a xlink:title=" ">
<polygon fill="white" stroke="#bfbfbf" points="936.5,-11.5 936.5,-30.5 978.5,-30.5 978.5,-11.5 936.5,-11.5"/>
<text text-anchor="middle" x="957.5" y="-18.5" font-family="Helvetica,sans-Serif" font-size="10.00">array</text>
</a>
</g>
</g>
<!-- Node1&#45;&gt;Node13 -->
<g id="edge46" class="edge">
<title>Node1&#45;&gt;Node13</title>
<path fill="none" stroke="midnightblue" d="M1386.37,-524.45C1365.67,-517.67 1340.14,-506.24 1323.5,-488 1292.32,-453.84 1288.5,-436.25 1288.5,-390 1288.5,-390 1288.5,-390 1288.5,-310 1288.5,-206.29 1381.83,-156.01 1313.5,-78 1273.47,-32.3 1102.25,-52.97 1042.5,-42 1024.52,-38.7 1004.62,-34.07 988.6,-30.1"/>
<polygon fill="midnightblue" stroke="midnightblue" points="989.24,-26.65 978.69,-27.6 987.53,-33.44 989.24,-26.65"/>
</g>
<!-- Node14 -->
<g id="node14" class="node">
<title>Node14</title>
<g id="a_node14"><a xlink:title=" ">
<polygon fill="white" stroke="#bfbfbf" points="483.5,-84 483.5,-103 541.5,-103 541.5,-84 483.5,-84"/>
<text text-anchor="middle" x="512.5" y="-91" font-family="Helvetica,sans-Serif" font-size="10.00">memory</text>
</a>
</g>
</g>
<!-- Node1&#45;&gt;Node14 -->
<g id="edge44" class="edge">
<title>Node1&#45;&gt;Node14</title>
<path fill="none" stroke="midnightblue" d="M1363.78,-531.9C1133.98,-526.69 284.5,-500.01 284.5,-390 284.5,-390 284.5,-390 284.5,-310 284.5,-203.5 417.52,-133.96 480.35,-107.06"/>
<polygon fill="midnightblue" stroke="midnightblue" points="481.93,-110.2 489.8,-103.11 479.23,-103.74 481.93,-110.2"/>
</g>
<!-- Node17 -->
<g id="node17" class="node">
<title>Node17</title>
<g id="a_node17"><a target="_parent" xlink:href="../../../cieutils/docs/html/abstree_8hpp.html.html" xlink:title=" ">
<polygon fill="white" stroke="black" points="827,-296 827,-326 934,-326 934,-296 827,-296"/>
<text text-anchor="start" x="835" y="-314" font-family="Helvetica,sans-Serif" font-size="10.00">packages/trees/inc</text>
<text text-anchor="middle" x="880.5" y="-303" font-family="Helvetica,sans-Serif" font-size="10.00">/abstree.hpp</text>
</a>
</g>
</g>
<!-- Node1&#45;&gt;Node17 -->
<g id="edge37" class="edge">
<title>Node1&#45;&gt;Node17</title>
<path fill="none" stroke="midnightblue" d="M1363.98,-529.54C1298.28,-524.52 1187.04,-512.95 1094.5,-488 1006.36,-464.24 964.05,-479.18 904.5,-410 886.81,-389.44 881.74,-357.9 880.49,-336.18"/>
<polygon fill="midnightblue" stroke="midnightblue" points="883.99,-335.99 880.15,-326.12 876.99,-336.23 883.99,-335.99"/>
</g>
<!-- Node21 -->
<g id="node21" class="node">
<title>Node21</title>
<g id="a_node21"><a xlink:href="SplitPolicy_8hpp.html" target="_top" xlink:title=" ">
<polygon fill="white" stroke="black" points="1103,-452 1103,-482 1210,-482 1210,-452 1103,-452"/>
<text text-anchor="start" x="1111" y="-470" font-family="Helvetica,sans-Serif" font-size="10.00">packages/trees/inc</text>
<text text-anchor="middle" x="1156.5" y="-459" font-family="Helvetica,sans-Serif" font-size="10.00">/SplitPolicy.hpp</text>
</a>
</g>
</g>
<!-- Node1&#45;&gt;Node21 -->
<g id="edge29" class="edge">
<title>Node1&#45;&gt;Node21</title>
<path fill="none" stroke="midnightblue" d="M1385.72,-524.44C1343.62,-514.07 1271.94,-496.42 1219.92,-483.62"/>
<polygon fill="midnightblue" stroke="midnightblue" points="1220.67,-480.19 1210.12,-481.2 1219,-486.99 1220.67,-480.19"/>
</g>
<!-- Node24 -->
<g id="node24" class="node">
<title>Node24</title>
<g id="a_node24"><a target="_parent" xlink:href="../../../cieutils/docs/html/DynamicArray_8hpp.html.html" xlink:title=" ">
<polygon fill="white" stroke="black" points="1355,-452 1355,-482 1486,-482 1486,-452 1355,-452"/>
<text text-anchor="start" x="1363" y="-470" font-family="Helvetica,sans-Serif" font-size="10.00">packages/stl_extension</text>
<text text-anchor="middle" x="1420.5" y="-459" font-family="Helvetica,sans-Serif" font-size="10.00">/inc/DynamicArray.hpp</text>
</a>
</g>
</g>
<!-- Node1&#45;&gt;Node24 -->
<g id="edge38" class="edge">
<title>Node1&#45;&gt;Node24</title>
<path fill="none" stroke="midnightblue" d="M1420.5,-524.23C1420.5,-516.04 1420.5,-503.42 1420.5,-492.21"/>
<polygon fill="midnightblue" stroke="midnightblue" points="1424,-492.09 1420.5,-482.09 1417,-492.09 1424,-492.09"/>
</g>
<!-- Node25 -->
<g id="node25" class="node">
<title>Node25</title>
<g id="a_node25"><a target="_parent" xlink:href="../../../cieutils/docs/html/ThreadPool_8hpp.html.html" xlink:title=" ">
<polygon fill="white" stroke="black" points="1504,-452 1504,-482 1629,-482 1629,-452 1504,-452"/>
<text text-anchor="start" x="1512" y="-470" font-family="Helvetica,sans-Serif" font-size="10.00">packages/concurrency</text>
<text text-anchor="middle" x="1566.5" y="-459" font-family="Helvetica,sans-Serif" font-size="10.00">/inc/ThreadPool.hpp</text>
</a>
</g>
</g>
<!-- Node1&#45;&gt;Node25 -->
<g id="edge39" class="edge">
<title>Node1&#45;&gt;Node25</title>
<path fill="none" stroke="midnightblue" d="M1439.89,-524.37C1461.7,-514.66 1497.75,-498.61 1525.81,-486.11"/>
<polygon fill="midnightblue" stroke="midnightblue" points="1527.28,-489.29 1534.99,-482.03 1524.43,-482.9 1527.28,-489.29"/>
</g>
<!-- Node26 -->
<g id="node26" class="node">
<title>Node26</title>
<g id="a_node26"><a target="_parent" xlink:href="../../../cieutils/docs/html/functional_8hpp.html.html" xlink:title=" ">
<polygon fill="white" stroke="black" points="1647.5,-446.5 1647.5,-487.5 1779.5,-487.5 1779.5,-446.5 1647.5,-446.5"/>
<text text-anchor="start" x="1655.5" y="-475.5" font-family="Helvetica,sans-Serif" font-size="10.00">packages/compile_time</text>
<text text-anchor="start" x="1655.5" y="-464.5" font-family="Helvetica,sans-Serif" font-size="10.00">/packages/concepts/inc</text>
<text text-anchor="middle" x="1713.5" y="-453.5" font-family="Helvetica,sans-Serif" font-size="10.00">/functional.hpp</text>
</a>
</g>
</g>
<!-- Node1&#45;&gt;Node26 -->
<g id="edge40" class="edge">
<title>Node1&#45;&gt;Node26</title>
<path fill="none" stroke="midnightblue" d="M1465.76,-524.44C1507.81,-516.31 1572.39,-503.38 1637.3,-488.22"/>
<polygon fill="midnightblue" stroke="midnightblue" points="1638.37,-491.57 1647.3,-485.87 1636.76,-484.76 1638.37,-491.57"/>
</g>
<!-- Node27 -->
<g id="node27" class="node">
<title>Node27</title>
<g id="a_node27"><a target="_parent" xlink:href="../../../cieutils/docs/html/OptionalRef_8hpp.html.html" xlink:title=" ">
<polygon fill="white" stroke="black" points="1798,-452 1798,-482 1929,-482 1929,-452 1798,-452"/>
<text text-anchor="start" x="1806" y="-470" font-family="Helvetica,sans-Serif" font-size="10.00">packages/stl_extension</text>
<text text-anchor="middle" x="1863.5" y="-459" font-family="Helvetica,sans-Serif" font-size="10.00">/inc/OptionalRef.hpp</text>
</a>
</g>
</g>
<!-- Node1&#45;&gt;Node27 -->
<g id="edge41" class="edge">
<title>Node1&#45;&gt;Node27</title>
<path fill="none" stroke="midnightblue" d="M1477.31,-528.52C1549.93,-522.23 1679.33,-509.12 1788.5,-488 1793.87,-486.96 1799.43,-485.75 1804.98,-484.44"/>
<polygon fill="midnightblue" stroke="midnightblue" points="1806.03,-487.79 1814.91,-482.01 1804.37,-480.99 1806.03,-487.79"/>
</g>
<!-- Node28 -->
<g id="node28" class="node">
<title>Node28</title>
<g id="a_node28"><a xlink:title=" ">
<polygon fill="white" stroke="#bfbfbf" points="1947,-457.5 1947,-476.5 2000,-476.5 2000,-457.5 1947,-457.5"/>
<text text-anchor="middle" x="1973.5" y="-464.5" font-family="Helvetica,sans-Serif" font-size="10.00">iterator</text>
</a>
</g>
</g>
<!-- Node1&#45;&gt;Node28 -->
<g id="edge42" class="edge">
<title>Node1&#45;&gt;Node28</title>
<path fill="none" stroke="midnightblue" d="M1477.28,-531.14C1593.3,-526.84 1853.74,-514.49 1938.5,-488 1943.34,-486.49 1948.24,-484.23 1952.78,-481.77"/>
<polygon fill="midnightblue" stroke="midnightblue" points="1954.66,-484.73 1961.47,-476.61 1951.08,-478.71 1954.66,-484.73"/>
</g>
<!-- Node29 -->
<g id="node29" class="node">
<title>Node29</title>
<g id="a_node29"><a xlink:title=" ">
<polygon fill="white" stroke="#bfbfbf" points="2018,-457.5 2018,-476.5 2071,-476.5 2071,-457.5 2018,-457.5"/>
<text text-anchor="middle" x="2044.5" y="-464.5" font-family="Helvetica,sans-Serif" font-size="10.00">stdint.h</text>
</a>
</g>
</g>
<!-- Node1&#45;&gt;Node29 -->
<g id="edge43" class="edge">
<title>Node1&#45;&gt;Node29</title>
<path fill="none" stroke="midnightblue" d="M1477.21,-531.84C1604.82,-528.71 1911.09,-518.19 2009.5,-488 2014.35,-486.51 2019.25,-484.27 2023.8,-481.81"/>
<polygon fill="midnightblue" stroke="midnightblue" points="2025.67,-484.76 2032.48,-476.64 2022.1,-478.75 2025.67,-484.76"/>
</g>
<!-- Node30 -->
<g id="node30" class="node">
<title>Node30</title>
<g id="a_node30"><a xlink:title=" ">
<polygon fill="white" stroke="#bfbfbf" points="2089,-457.5 2089,-476.5 2154,-476.5 2154,-457.5 2089,-457.5"/>
<text text-anchor="middle" x="2121.5" y="-464.5" font-family="Helvetica,sans-Serif" font-size="10.00">functional</text>
</a>
</g>
</g>
<!-- Node1&#45;&gt;Node30 -->
<g id="edge45" class="edge">
<title>Node1&#45;&gt;Node30</title>
<path fill="none" stroke="midnightblue" d="M1477.12,-531.93C1615.41,-528.85 1967.32,-518.22 2080.5,-488 2086.48,-486.4 2092.63,-483.92 2098.29,-481.23"/>
<polygon fill="midnightblue" stroke="midnightblue" points="2099.93,-484.33 2107.23,-476.65 2096.74,-478.1 2099.93,-484.33"/>
</g>
<!-- Node31 -->
<g id="node31" class="node">
<title>Node31</title>
<g id="a_node31"><a xlink:title=" ">
<polygon fill="white" stroke="#bfbfbf" points="2172.5,-457.5 2172.5,-476.5 2222.5,-476.5 2222.5,-457.5 2172.5,-457.5"/>
<text text-anchor="middle" x="2197.5" y="-464.5" font-family="Helvetica,sans-Serif" font-size="10.00">ranges</text>
</a>
</g>
</g>
<!-- Node1&#45;&gt;Node31 -->
<g id="edge47" class="edge">
<title>Node1&#45;&gt;Node31</title>
<path fill="none" stroke="midnightblue" d="M1477.13,-532.98C1627.75,-532.38 2035.41,-527.08 2163.5,-488 2168.12,-486.59 2172.78,-484.44 2177.1,-482.06"/>
<polygon fill="midnightblue" stroke="midnightblue" points="2179.17,-484.9 2185.87,-476.7 2175.52,-478.93 2179.17,-484.9"/>
</g>
<!-- Node32 -->
<g id="node32" class="node">
<title>Node32</title>
<g id="a_node32"><a xlink:title=" ">
<polygon fill="white" stroke="#bfbfbf" points="2241,-452 2241,-482 2384,-482 2384,-452 2241,-452"/>
<text text-anchor="start" x="2249" y="-470" font-family="Helvetica,sans-Serif" font-size="10.00">packages/trees/impl</text>
<text text-anchor="middle" x="2312.5" y="-459" font-family="Helvetica,sans-Serif" font-size="10.00">/SpaceTreeNode_impl.hpp</text>
</a>
</g>
</g>
<!-- Node1&#45;&gt;Node32 -->
<g id="edge48" class="edge">
<title>Node1&#45;&gt;Node32</title>
<path fill="none" stroke="midnightblue" d="M1477.41,-533.48C1610.25,-533.8 1950.84,-530.06 2231.5,-488 2238.14,-487 2245.03,-485.71 2251.87,-484.27"/>
<polygon fill="midnightblue" stroke="midnightblue" points="2252.8,-487.64 2261.8,-482.05 2251.28,-480.81 2252.8,-487.64"/>
</g>
<!-- Node6 -->
<g id="node6" class="node">
<title>Node6</title>
<g id="a_node6"><a xlink:href="Primitive_8hpp.html" target="_top" xlink:title=" ">
<polygon fill="white" stroke="black" points="1013,-223.5 1013,-253.5 1128,-253.5 1128,-223.5 1013,-223.5"/>
<text text-anchor="start" x="1021" y="-241.5" font-family="Helvetica,sans-Serif" font-size="10.00">packages/primitives</text>
<text text-anchor="middle" x="1070.5" y="-230.5" font-family="Helvetica,sans-Serif" font-size="10.00">/inc/Primitive.hpp</text>
</a>
</g>
</g>
<!-- Node5&#45;&gt;Node6 -->
<g id="edge5" class="edge">
<title>Node5&#45;&gt;Node6</title>
<path fill="none" stroke="midnightblue" d="M726.59,-373.78C739.85,-362.63 758.59,-346.6 774.5,-332 794.18,-313.94 793.87,-302.46 817.5,-290 875.47,-259.43 949.82,-247.31 1002.89,-242.53"/>
<polygon fill="midnightblue" stroke="midnightblue" points="1003.21,-246.02 1012.88,-241.7 1002.62,-239.04 1003.21,-246.02"/>
</g>
<!-- Node7 -->
<g id="node7" class="node">
<title>Node7</title>
<g id="a_node7"><a target="_parent" xlink:href="../../../cieutils/docs/html/basic__concepts_8hpp.html.html" xlink:title=" ">
<polygon fill="white" stroke="black" points="820.5,-145.5 820.5,-186.5 952.5,-186.5 952.5,-145.5 820.5,-145.5"/>
<text text-anchor="start" x="828.5" y="-174.5" font-family="Helvetica,sans-Serif" font-size="10.00">packages/compile_time</text>
<text text-anchor="start" x="828.5" y="-163.5" font-family="Helvetica,sans-Serif" font-size="10.00">/packages/concepts/inc</text>
<text text-anchor="middle" x="886.5" y="-152.5" font-family="Helvetica,sans-Serif" font-size="10.00">/basic_concepts.hpp</text>
</a>
</g>
</g>
<!-- Node5&#45;&gt;Node7 -->
<g id="edge23" class="edge">
<title>Node5&#45;&gt;Node7</title>
<path fill="none" stroke="midnightblue" d="M717.9,-373.9C729.72,-354.44 752.28,-318.5 774.5,-290 801.58,-255.27 836.14,-218.27 859.66,-194.03"/>
<polygon fill="midnightblue" stroke="midnightblue" points="862.4,-196.23 866.88,-186.62 857.39,-191.34 862.4,-196.23"/>
</g>
<!-- Node10 -->
<g id="node10" class="node">
<title>Node10</title>
<g id="a_node10"><a target="_parent" xlink:href="../../../cieutils/docs/html/types_8hpp.html.html" xlink:title=" ">
<polygon fill="white" stroke="black" points="658.5,-6 658.5,-36 768.5,-36 768.5,-6 658.5,-6"/>
<text text-anchor="start" x="666.5" y="-24" font-family="Helvetica,sans-Serif" font-size="10.00">packages/types/inc</text>
<text text-anchor="middle" x="713.5" y="-13" font-family="Helvetica,sans-Serif" font-size="10.00">/types.hpp</text>
</a>
</g>
</g>
<!-- Node5&#45;&gt;Node10 -->
<g id="edge25" class="edge">
<title>Node5&#45;&gt;Node10</title>
<path fill="none" stroke="midnightblue" d="M655.77,-387.55C567.29,-385.53 396.93,-375.9 359.5,-332 279.09,-237.71 366.22,-138.25 474.5,-78 528.5,-47.95 598.01,-33.98 648.13,-27.51"/>
<polygon fill="midnightblue" stroke="midnightblue" points="648.7,-30.96 658.2,-26.27 647.85,-24.01 648.7,-30.96"/>
</g>
<!-- Node5&#45;&gt;Node14 -->
<g id="edge26" class="edge">
<title>Node5&#45;&gt;Node14</title>
<path fill="none" stroke="midnightblue" d="M655.77,-386.95C571.5,-384.05 414.23,-373.12 379.5,-332 316.52,-257.43 441.75,-148.58 492.48,-109.31"/>
<polygon fill="midnightblue" stroke="midnightblue" points="494.65,-112.06 500.49,-103.22 490.41,-106.49 494.65,-112.06"/>
</g>
<!-- Node16 -->
<g id="node16" class="node">
<title>Node16</title>
<g id="a_node16"><a xlink:href="primitives_2inc_2concepts_8hpp.html" target="_top" xlink:title=" ">
<polygon fill="white" stroke="black" points="1029,-296 1029,-326 1144,-326 1144,-296 1029,-296"/>
<text text-anchor="start" x="1037" y="-314" font-family="Helvetica,sans-Serif" font-size="10.00">packages/primitives</text>
<text text-anchor="middle" x="1086.5" y="-303" font-family="Helvetica,sans-Serif" font-size="10.00">/inc/concepts.hpp</text>
</a>
</g>
</g>
<!-- Node5&#45;&gt;Node16 -->
<g id="edge19" class="edge">
<title>Node5&#45;&gt;Node16</title>
<path fill="none" stroke="midnightblue" d="M763.11,-377.19C830.29,-363.65 945.47,-340.43 1018.7,-325.67"/>
<polygon fill="midnightblue" stroke="midnightblue" points="1019.63,-329.05 1028.74,-323.64 1018.25,-322.19 1019.63,-329.05"/>
</g>
<!-- Node5&#45;&gt;Node17 -->
<g id="edge22" class="edge">
<title>Node5&#45;&gt;Node17</title>
<path fill="none" stroke="midnightblue" d="M741.26,-373.88C768.98,-361.57 809.36,-343.62 839.51,-330.22"/>
<polygon fill="midnightblue" stroke="midnightblue" points="841.19,-333.3 848.91,-326.04 838.35,-326.9 841.19,-333.3"/>
</g>
<!-- Node18 -->
<g id="node18" class="node">
<title>Node18</title>
<g id="a_node18"><a target="_parent" xlink:href="../../../cieutils/docs/html/partial__specialization_8hpp.html.html" xlink:title=" ">
<polygon fill="white" stroke="black" points="587,-290.5 587,-331.5 732,-331.5 732,-290.5 587,-290.5"/>
<text text-anchor="start" x="595" y="-319.5" font-family="Helvetica,sans-Serif" font-size="10.00">packages/compile_time</text>
<text text-anchor="start" x="595" y="-308.5" font-family="Helvetica,sans-Serif" font-size="10.00">/packages/concepts/inc</text>
<text text-anchor="middle" x="659.5" y="-297.5" font-family="Helvetica,sans-Serif" font-size="10.00">/partial_specialization.hpp</text>
</a>
</g>
</g>
<!-- Node5&#45;&gt;Node18 -->
<g id="edge24" class="edge">
<title>Node5&#45;&gt;Node18</title>
<path fill="none" stroke="midnightblue" d="M700.1,-373.7C693.87,-364.25 685.51,-351.53 677.98,-340.1"/>
<polygon fill="midnightblue" stroke="midnightblue" points="680.87,-338.11 672.45,-331.68 675.02,-341.96 680.87,-338.11"/>
</g>
<!-- Node19 -->
<g id="node19" class="node">
<title>Node19</title>
<g id="a_node19"><a xlink:title=" ">
<polygon fill="white" stroke="#bfbfbf" points="389,-301.5 389,-320.5 436,-320.5 436,-301.5 389,-301.5"/>
<text text-anchor="middle" x="412.5" y="-308.5" font-family="Helvetica,sans-Serif" font-size="10.00">vector</text>
</a>
</g>
</g>
<!-- Node5&#45;&gt;Node19 -->
<g id="edge27" class="edge">
<title>Node5&#45;&gt;Node19</title>
<path fill="none" stroke="midnightblue" d="M655.86,-382.26C601.15,-375.12 514.6,-360.28 444.5,-332 440.58,-330.42 436.6,-328.36 432.85,-326.17"/>
<polygon fill="midnightblue" stroke="midnightblue" points="434.44,-323.04 424.12,-320.65 430.7,-328.96 434.44,-323.04"/>
</g>
<!-- Node20 -->
<g id="node20" class="node">
<title>Node20</title>
<g id="a_node20"><a xlink:title=" ">
<polygon fill="white" stroke="#bfbfbf" points="454,-296 454,-326 569,-326 569,-296 454,-296"/>
<text text-anchor="start" x="462" y="-314" font-family="Helvetica,sans-Serif" font-size="10.00">packages/trees/impl</text>
<text text-anchor="middle" x="511.5" y="-303" font-family="Helvetica,sans-Serif" font-size="10.00">/AbsCell_impl.hpp</text>
</a>
</g>
</g>
<!-- Node5&#45;&gt;Node20 -->
<g id="edge28" class="edge">
<title>Node5&#45;&gt;Node20</title>
<path fill="none" stroke="midnightblue" d="M672.72,-373.88C640.21,-361.41 592.65,-343.15 557.61,-329.7"/>
<polygon fill="midnightblue" stroke="midnightblue" points="558.67,-326.36 548.08,-326.04 556.16,-332.89 558.67,-326.36"/>
</g>
<!-- Node6&#45;&gt;Node7 -->
<g id="edge6" class="edge">
<title>Node6&#45;&gt;Node7</title>
<path fill="none" stroke="midnightblue" d="M1033.71,-223.4C1008.93,-213.91 975.67,-201.16 947.03,-190.19"/>
<polygon fill="midnightblue" stroke="midnightblue" points="948.1,-186.86 937.51,-186.55 945.6,-193.39 948.1,-186.86"/>
</g>
<!-- Node8 -->
<g id="node8" class="node">
<title>Node8</title>
<g id="a_node8"><a xlink:href="Object_8hpp.html" target="_top" xlink:title=" ">
<polygon fill="white" stroke="black" points="971,-151 971,-181 1086,-181 1086,-151 971,-151"/>
<text text-anchor="start" x="979" y="-169" font-family="Helvetica,sans-Serif" font-size="10.00">packages/primitives</text>
<text text-anchor="middle" x="1028.5" y="-158" font-family="Helvetica,sans-Serif" font-size="10.00">/inc/Object.hpp</text>
</a>
</g>
</g>
<!-- Node6&#45;&gt;Node8 -->
<g id="edge7" class="edge">
<title>Node6&#45;&gt;Node8</title>
<path fill="none" stroke="midnightblue" d="M1062,-223.23C1056.31,-213.68 1048.69,-200.89 1042.15,-189.92"/>
<polygon fill="midnightblue" stroke="midnightblue" points="1045.11,-188.05 1036.99,-181.25 1039.1,-191.63 1045.11,-188.05"/>
</g>
<!-- Node8&#45;&gt;Node4 -->
<g id="edge9" class="edge">
<title>Node8&#45;&gt;Node4</title>
<path fill="none" stroke="midnightblue" d="M1071.43,-150.99C1105.99,-139.71 1154.72,-123.8 1191.67,-111.74"/>
<polygon fill="midnightblue" stroke="midnightblue" points="1192.86,-115.04 1201.28,-108.61 1190.69,-108.38 1192.86,-115.04"/>
</g>
<!-- Node9 -->
<g id="node9" class="node">
<title>Node9</title>
<g id="a_node9"><a target="_parent" xlink:href="../../../cieutils/docs/html/container__concepts_8hpp.html.html" xlink:title=" ">
<polygon fill="white" stroke="black" points="1051,-0.5 1051,-41.5 1186,-41.5 1186,-0.5 1051,-0.5"/>
<text text-anchor="start" x="1059" y="-29.5" font-family="Helvetica,sans-Serif" font-size="10.00">packages/compile_time</text>
<text text-anchor="start" x="1059" y="-18.5" font-family="Helvetica,sans-Serif" font-size="10.00">/packages/concepts/inc</text>
<text text-anchor="middle" x="1118.5" y="-7.5" font-family="Helvetica,sans-Serif" font-size="10.00">/container_concepts.hpp</text>
</a>
</g>
</g>
<!-- Node8&#45;&gt;Node9 -->
<g id="edge8" class="edge">
<title>Node8&#45;&gt;Node9</title>
<path fill="none" stroke="midnightblue" d="M1054.25,-150.9C1069.7,-141.13 1088.43,-126.7 1099.5,-109 1110.16,-91.96 1114.89,-69.79 1116.97,-52.09"/>
<polygon fill="midnightblue" stroke="midnightblue" points="1120.49,-52.02 1117.95,-41.74 1113.52,-51.36 1120.49,-52.02"/>
</g>
<!-- Node8&#45;&gt;Node10 -->
<g id="edge10" class="edge">
<title>Node8&#45;&gt;Node10</title>
<path fill="none" stroke="midnightblue" d="M983.24,-150.9C976,-148.81 968.56,-146.77 961.5,-145 884.06,-125.56 853.96,-150.09 785.5,-109 759.67,-93.49 738.91,-65.26 726.43,-45.16"/>
<polygon fill="midnightblue" stroke="midnightblue" points="729.28,-43.1 721.15,-36.31 723.27,-46.69 729.28,-43.1"/>
</g>
<!-- Node11 -->
<g id="node11" class="node">
<title>Node11</title>
<g id="a_node11"><a xlink:href="Traits_8hpp.html" target="_top" xlink:title=" ">
<polygon fill="white" stroke="black" points="795,-78.5 795,-108.5 910,-108.5 910,-78.5 795,-78.5"/>
<text text-anchor="start" x="803" y="-96.5" font-family="Helvetica,sans-Serif" font-size="10.00">packages/primitives</text>
<text text-anchor="middle" x="852.5" y="-85.5" font-family="Helvetica,sans-Serif" font-size="10.00">/inc/Traits.hpp</text>
</a>
</g>
</g>
<!-- Node8&#45;&gt;Node11 -->
<g id="edge11" class="edge">
<title>Node8&#45;&gt;Node11</title>
<path fill="none" stroke="midnightblue" d="M993.31,-150.9C965.61,-139.81 926.83,-124.28 896.98,-112.32"/>
<polygon fill="midnightblue" stroke="midnightblue" points="898.22,-109.04 887.63,-108.57 895.61,-115.54 898.22,-109.04"/>
</g>
<!-- Node8&#45;&gt;Node13 -->
<g id="edge17" class="edge">
<title>Node8&#45;&gt;Node13</title>
<path fill="none" stroke="midnightblue" d="M999.94,-150.78C984.3,-141.3 966.34,-127.22 957.5,-109 947.02,-87.39 949.56,-59.06 952.99,-40.7"/>
<polygon fill="midnightblue" stroke="midnightblue" points="956.46,-41.21 955.13,-30.7 949.61,-39.75 956.46,-41.21"/>
</g>
<!-- Node8&#45;&gt;Node14 -->
<g id="edge16" class="edge">
<title>Node8&#45;&gt;Node14</title>
<path fill="none" stroke="midnightblue" d="M985.54,-150.95C977.61,-148.7 969.35,-146.6 961.5,-145 812.11,-114.55 630.75,-101.23 552.08,-96.58"/>
<polygon fill="midnightblue" stroke="midnightblue" points="551.86,-93.06 541.67,-95.98 551.45,-100.05 551.86,-93.06"/>
</g>
<!-- Node15 -->
<g id="node15" class="node">
<title>Node15</title>
<g id="a_node15"><a xlink:title=" ">
<polygon fill="white" stroke="#bfbfbf" points="966.5,-78.5 966.5,-108.5 1090.5,-108.5 1090.5,-78.5 966.5,-78.5"/>
<text text-anchor="start" x="974.5" y="-96.5" font-family="Helvetica,sans-Serif" font-size="10.00">packages/primitives</text>
<text text-anchor="middle" x="1028.5" y="-85.5" font-family="Helvetica,sans-Serif" font-size="10.00">/impl/Object_impl.hpp</text>
</a>
</g>
</g>
<!-- Node8&#45;&gt;Node15 -->
<g id="edge18" class="edge">
<title>Node8&#45;&gt;Node15</title>
<path fill="none" stroke="midnightblue" d="M1028.5,-150.73C1028.5,-141.66 1028.5,-129.66 1028.5,-119.08"/>
<polygon fill="midnightblue" stroke="midnightblue" points="1032,-118.75 1028.5,-108.75 1025,-118.75 1032,-118.75"/>
</g>
<!-- Node11&#45;&gt;Node9 -->
<g id="edge13" class="edge">
<title>Node11&#45;&gt;Node9</title>
<path fill="none" stroke="midnightblue" d="M905.37,-78.49C944.11,-68.22 997.3,-54.12 1040.85,-42.58"/>
<polygon fill="midnightblue" stroke="midnightblue" points="1041.79,-45.95 1050.56,-40.01 1040,-39.19 1041.79,-45.95"/>
</g>
<!-- Node11&#45;&gt;Node10 -->
<g id="edge12" class="edge">
<title>Node11&#45;&gt;Node10</title>
<path fill="none" stroke="midnightblue" d="M824.71,-78.4C803.3,-67.55 773.53,-52.45 750.17,-40.6"/>
<polygon fill="midnightblue" stroke="midnightblue" points="751.75,-37.47 741.25,-36.07 748.58,-43.72 751.75,-37.47"/>
</g>
<!-- Node12 -->
<g id="node12" class="node">
<title>Node12</title>
<g id="a_node12"><a target="_parent" xlink:href="../../../cieutils/docs/html/StaticArray_8hpp.html.html" xlink:title=" ">
<polygon fill="white" stroke="black" points="787,-6 787,-36 918,-36 918,-6 787,-6"/>
<text text-anchor="start" x="795" y="-24" font-family="Helvetica,sans-Serif" font-size="10.00">packages/stl_extension</text>
<text text-anchor="middle" x="852.5" y="-13" font-family="Helvetica,sans-Serif" font-size="10.00">/inc/StaticArray.hpp</text>
</a>
</g>
</g>
<!-- Node11&#45;&gt;Node12 -->
<g id="edge14" class="edge">
<title>Node11&#45;&gt;Node12</title>
<path fill="none" stroke="midnightblue" d="M852.5,-78.23C852.5,-69.16 852.5,-57.16 852.5,-46.58"/>
<polygon fill="midnightblue" stroke="midnightblue" points="856,-46.25 852.5,-36.25 849,-46.25 856,-46.25"/>
</g>
<!-- Node11&#45;&gt;Node13 -->
<g id="edge15" class="edge">
<title>Node11&#45;&gt;Node13</title>
<path fill="none" stroke="midnightblue" d="M873.5,-78.4C891.72,-66.17 917.99,-48.53 936.28,-36.25"/>
<polygon fill="midnightblue" stroke="midnightblue" points="938.44,-39.01 944.79,-30.53 934.54,-33.2 938.44,-39.01"/>
</g>
<!-- Node16&#45;&gt;Node6 -->
<g id="edge21" class="edge">
<title>Node16&#45;&gt;Node6</title>
<path fill="none" stroke="midnightblue" d="M1083.26,-295.73C1081.18,-286.56 1078.42,-274.41 1076,-263.74"/>
<polygon fill="midnightblue" stroke="midnightblue" points="1079.36,-262.72 1073.73,-253.75 1072.53,-264.27 1079.36,-262.72"/>
</g>
<!-- Node16&#45;&gt;Node9 -->
<g id="edge20" class="edge">
<title>Node16&#45;&gt;Node9</title>
<path fill="none" stroke="midnightblue" d="M1105.1,-295.84C1116.85,-285.66 1131,-270.8 1137.5,-254 1164.1,-185.3 1143.18,-96.79 1128.93,-51.53"/>
<polygon fill="midnightblue" stroke="midnightblue" points="1132.18,-50.19 1125.75,-41.77 1125.52,-52.36 1132.18,-50.19"/>
</g>
<!-- Node21&#45;&gt;Node4 -->
<g id="edge35" class="edge">
<title>Node21&#45;&gt;Node4</title>
<path fill="none" stroke="midnightblue" d="M1184.59,-451.88C1200.81,-442.27 1220.18,-428.03 1231.5,-410 1255.08,-372.42 1250.5,-356.37 1250.5,-312 1250.5,-312 1250.5,-312 1250.5,-237.5 1250.5,-195.82 1247.92,-147.37 1246.15,-118.91"/>
<polygon fill="midnightblue" stroke="midnightblue" points="1249.63,-118.45 1245.49,-108.7 1242.64,-118.9 1249.63,-118.45"/>
</g>
<!-- Node21&#45;&gt;Node14 -->
<g id="edge36" class="edge">
<title>Node21&#45;&gt;Node14</title>
<path fill="none" stroke="midnightblue" d="M1102.94,-455.78C1041.74,-443.57 948.69,-423.14 938.5,-410 905.8,-367.83 971.39,-334.87 942.5,-290 896.89,-219.16 647.47,-136.09 550.8,-106.06"/>
<polygon fill="midnightblue" stroke="midnightblue" points="551.72,-102.68 541.13,-103.07 549.65,-109.37 551.72,-102.68"/>
</g>
<!-- Node22 -->
<g id="node22" class="node">
<title>Node22</title>
<g id="a_node22"><a target="_parent" xlink:href="../../../cieutils/docs/html/iterator__concepts_8hpp.html.html" xlink:title=" ">
<polygon fill="white" stroke="black" points="1090.5,-368.5 1090.5,-409.5 1222.5,-409.5 1222.5,-368.5 1090.5,-368.5"/>
<text text-anchor="start" x="1098.5" y="-397.5" font-family="Helvetica,sans-Serif" font-size="10.00">packages/compile_time</text>
<text text-anchor="start" x="1098.5" y="-386.5" font-family="Helvetica,sans-Serif" font-size="10.00">/packages/concepts/inc</text>
<text text-anchor="middle" x="1156.5" y="-375.5" font-family="Helvetica,sans-Serif" font-size="10.00">/iterator_concepts.hpp</text>
</a>
</g>
</g>
<!-- Node21&#45;&gt;Node22 -->
<g id="edge30" class="edge">
<title>Node21&#45;&gt;Node22</title>
<path fill="none" stroke="midnightblue" d="M1156.5,-451.7C1156.5,-442.71 1156.5,-430.77 1156.5,-419.79"/>
<polygon fill="midnightblue" stroke="midnightblue" points="1160,-419.68 1156.5,-409.68 1153,-419.68 1160,-419.68"/>
</g>
<!-- Node23 -->
<g id="node23" class="node">
<title>Node23</title>
<g id="a_node23"><a xlink:href="PrimitiveSampler_8hpp.html" target="_top" xlink:title=" ">
<polygon fill="white" stroke="black" points="947,-374 947,-404 1072,-404 1072,-374 947,-374"/>
<text text-anchor="start" x="955" y="-392" font-family="Helvetica,sans-Serif" font-size="10.00">packages/trees/inc</text>
<text text-anchor="middle" x="1009.5" y="-381" font-family="Helvetica,sans-Serif" font-size="10.00">/PrimitiveSampler.hpp</text>
</a>
</g>
</g>
<!-- Node21&#45;&gt;Node23 -->
<g id="edge31" class="edge">
<title>Node21&#45;&gt;Node23</title>
<path fill="none" stroke="midnightblue" d="M1129.19,-451.88C1105.68,-439.73 1071.55,-422.08 1045.75,-408.74"/>
<polygon fill="midnightblue" stroke="midnightblue" points="1047.15,-405.52 1036.66,-404.04 1043.93,-411.74 1047.15,-405.52"/>
</g>
<!-- Node23&#45;&gt;Node4 -->
<g id="edge34" class="edge">
<title>Node23&#45;&gt;Node4</title>
<path fill="none" stroke="midnightblue" d="M1057.65,-373.91C1093.87,-362.48 1139.55,-346.02 1153.5,-332 1184.82,-300.53 1223.08,-171.95 1238.06,-118.25"/>
<polygon fill="midnightblue" stroke="midnightblue" points="1241.45,-119.12 1240.73,-108.55 1234.7,-117.26 1241.45,-119.12"/>
</g>
<!-- Node23&#45;&gt;Node7 -->
<g id="edge32" class="edge">
<title>Node23&#45;&gt;Node7</title>
<path fill="none" stroke="midnightblue" d="M1006.19,-373.82C1001.3,-354.26 991.12,-318.21 976.5,-290 958.2,-254.7 930.37,-218.45 910.51,-194.54"/>
<polygon fill="midnightblue" stroke="midnightblue" points="912.96,-192.02 903.84,-186.62 907.6,-196.53 912.96,-192.02"/>
</g>
<!-- Node23&#45;&gt;Node16 -->
<g id="edge33" class="edge">
<title>Node23&#45;&gt;Node16</title>
<path fill="none" stroke="midnightblue" d="M1023.98,-373.7C1035.49,-362.35 1051.77,-346.28 1064.82,-333.39"/>
<polygon fill="midnightblue" stroke="midnightblue" points="1067.42,-335.75 1072.08,-326.23 1062.51,-330.76 1067.42,-335.75"/>
</g>
</g>
</svg>
