<?xml version="1.0" encoding="UTF-8" standalone="no"?>
<!DOCTYPE svg PUBLIC "-//W3C//DTD SVG 1.1//EN"
 "http://www.w3.org/Graphics/SVG/1.1/DTD/svg11.dtd">
<!-- Generated by graphviz version 2.43.0 (0)
 -->
<!-- Title: cie::geo::Disc Pages: 1 -->
<svg width="230pt" height="540pt"
 viewBox="0.00 0.00 230.00 540.00" xmlns="http://www.w3.org/2000/svg" xmlns:xlink="http://www.w3.org/1999/xlink">
<g id="graph0" class="graph" transform="scale(1 1) rotate(0) translate(4 536)">
<title>cie::geo::Disc</title>
<polygon fill="white" stroke="transparent" points="-4,4 -4,-536 226,-536 226,4 -4,4"/>
<!-- Node1 -->
<g id="node1" class="node">
<title>Node1</title>
<g id="a_node1"><a xlink:title=" ">
<polygon fill="#bfbfbf" stroke="black" points="33,-0.5 33,-90.5 115,-90.5 115,-0.5 33,-0.5"/>
<text text-anchor="middle" x="74" y="-78.5" font-family="Helvetica,sans-Serif" font-size="10.00">cie::geo::Disc</text>
<polyline fill="none" stroke="black" points="33,-71.5 115,-71.5 "/>
<text text-anchor="middle" x="74" y="-59.5" font-family="Helvetica,sans-Serif" font-size="10.00"> </text>
<polyline fill="none" stroke="black" points="33,-52.5 115,-52.5 "/>
<text text-anchor="start" x="41" y="-40.5" font-family="Helvetica,sans-Serif" font-size="10.00">+ Disc()</text>
<text text-anchor="start" x="41" y="-29.5" font-family="Helvetica,sans-Serif" font-size="10.00">+ Disc()</text>
<text text-anchor="start" x="41" y="-18.5" font-family="Helvetica,sans-Serif" font-size="10.00">+ Disc()</text>
<text text-anchor="start" x="41" y="-7.5" font-family="Helvetica,sans-Serif" font-size="10.00">+ isInside()</text>
</a>
</g>
</g>
<!-- Node2 -->
<g id="node2" class="node">
<title>Node2</title>
<g id="a_node2"><a xlink:title=" ">
<polygon fill="white" stroke="#bfbfbf" points="0,-193.5 0,-250.5 50,-250.5 50,-193.5 0,-193.5"/>
<text text-anchor="middle" x="25" y="-238.5" font-family="Helvetica,sans-Serif" font-size="10.00">double</text>
<polyline fill="none" stroke="#bfbfbf" points="0,-231.5 50,-231.5 "/>
<text text-anchor="middle" x="25" y="-219.5" font-family="Helvetica,sans-Serif" font-size="10.00"> </text>
<polyline fill="none" stroke="#bfbfbf" points="0,-212.5 50,-212.5 "/>
<text text-anchor="middle" x="25" y="-200.5" font-family="Helvetica,sans-Serif" font-size="10.00"> </text>
</a>
</g>
</g>
<!-- Node2&#45;&gt;Node1 -->
<g id="edge1" class="edge">
<title>Node2&#45;&gt;Node1</title>
<path fill="none" stroke="#404040" d="M29.14,-193.47C32.94,-170.57 39.31,-137.27 48,-109 48.73,-106.63 49.51,-104.23 50.34,-101.81"/>
<polygon fill="none" stroke="#404040" points="50.36,-101.77 48.65,-94.77 54.47,-90.5 56.17,-97.51 50.36,-101.77"/>
<text text-anchor="middle" x="74.5" y="-112" font-family="Helvetica,sans-Serif" font-size="10.00"> +_radius2</text>
</g>
<!-- Node3 -->
<g id="node3" class="node">
<title>Node3</title>
<g id="a_node3"><a target="_parent" xlink:href="../../../cieutils/docs/html/classcie_1_1STLContainerBase.html" xlink:title=" ">
<polygon fill="white" stroke="black" points="68,-138.5 68,-305.5 222,-305.5 222,-138.5 68,-138.5"/>
<text text-anchor="middle" x="145" y="-293.5" font-family="Helvetica,sans-Serif" font-size="10.00">cie::STLContainerBase&lt; 2 &gt;</text>
<polyline fill="none" stroke="black" points="68,-286.5 222,-286.5 "/>
<text text-anchor="middle" x="145" y="-274.5" font-family="Helvetica,sans-Serif" font-size="10.00"> </text>
<polyline fill="none" stroke="black" points="68,-267.5 222,-267.5 "/>
<text text-anchor="start" x="76" y="-255.5" font-family="Helvetica,sans-Serif" font-size="10.00">+ STLContainerBase()</text>
<text text-anchor="start" x="76" y="-244.5" font-family="Helvetica,sans-Serif" font-size="10.00">+ STLContainerBase()</text>
<text text-anchor="start" x="76" y="-233.5" font-family="Helvetica,sans-Serif" font-size="10.00">+ STLContainerBase()</text>
<text text-anchor="start" x="76" y="-222.5" font-family="Helvetica,sans-Serif" font-size="10.00">+ STLContainerBase()</text>
<text text-anchor="start" x="76" y="-211.5" font-family="Helvetica,sans-Serif" font-size="10.00">+ STLContainerBase()</text>
<text text-anchor="start" x="76" y="-200.5" font-family="Helvetica,sans-Serif" font-size="10.00">+ STLContainerBase()</text>
<text text-anchor="start" x="76" y="-189.5" font-family="Helvetica,sans-Serif" font-size="10.00">+ STLContainerBase()</text>
<text text-anchor="start" x="76" y="-178.5" font-family="Helvetica,sans-Serif" font-size="10.00">+ STLContainerBase()</text>
<text text-anchor="start" x="76" y="-167.5" font-family="Helvetica,sans-Serif" font-size="10.00">+ STLContainerBase()</text>
<text text-anchor="start" x="76" y="-156.5" font-family="Helvetica,sans-Serif" font-size="10.00">+ STLContainerBase()</text>
<text text-anchor="start" x="76" y="-145.5" font-family="Helvetica,sans-Serif" font-size="10.00">and 37 more...</text>
</a>
</g>
</g>
<!-- Node3&#45;&gt;Node1 -->
<g id="edge2" class="edge">
<title>Node3&#45;&gt;Node1</title>
<path fill="none" stroke="#404040" d="M112.87,-138.3C108.92,-128.41 104.9,-118.46 101,-109 100.05,-106.69 99.07,-104.35 98.08,-101.97"/>
<polygon fill="none" stroke="#404040" points="98.03,-101.86 92.01,-97.89 93.36,-90.81 99.38,-94.78 98.03,-101.86"/>
<text text-anchor="middle" x="128" y="-112" font-family="Helvetica,sans-Serif" font-size="10.00"> +_center</text>
</g>
<!-- Node4 -->
<g id="node4" class="node">
<title>Node4</title>
<g id="a_node4"><a target="_parent" xlink:href="../../../cieutils/docs/html/classcie_1_1STLContainerBase.html" xlink:title=" ">
<polygon fill="white" stroke="black" points="79,-353.5 79,-531.5 211,-531.5 211,-353.5 79,-353.5"/>
<text text-anchor="start" x="87" y="-519.5" font-family="Helvetica,sans-Serif" font-size="10.00">cie::STLContainerBase</text>
<text text-anchor="middle" x="145" y="-508.5" font-family="Helvetica,sans-Serif" font-size="10.00">&lt; TBase &gt;</text>
<polyline fill="none" stroke="black" points="79,-501.5 211,-501.5 "/>
<text text-anchor="middle" x="145" y="-489.5" font-family="Helvetica,sans-Serif" font-size="10.00"> </text>
<polyline fill="none" stroke="black" points="79,-482.5 211,-482.5 "/>
<text text-anchor="start" x="87" y="-470.5" font-family="Helvetica,sans-Serif" font-size="10.00">+ STLContainerBase()</text>
<text text-anchor="start" x="87" y="-459.5" font-family="Helvetica,sans-Serif" font-size="10.00">+ STLContainerBase()</text>
<text text-anchor="start" x="87" y="-448.5" font-family="Helvetica,sans-Serif" font-size="10.00">+ STLContainerBase()</text>
<text text-anchor="start" x="87" y="-437.5" font-family="Helvetica,sans-Serif" font-size="10.00">+ STLContainerBase()</text>
<text text-anchor="start" x="87" y="-426.5" font-family="Helvetica,sans-Serif" font-size="10.00">+ STLContainerBase()</text>
<text text-anchor="start" x="87" y="-415.5" font-family="Helvetica,sans-Serif" font-size="10.00">+ STLContainerBase()</text>
<text text-anchor="start" x="87" y="-404.5" font-family="Helvetica,sans-Serif" font-size="10.00">+ operator=()</text>
<text text-anchor="start" x="87" y="-393.5" font-family="Helvetica,sans-Serif" font-size="10.00">+ operator=()</text>
<text text-anchor="start" x="87" y="-382.5" font-family="Helvetica,sans-Serif" font-size="10.00">+ ~STLContainerBase()</text>
<text text-anchor="start" x="87" y="-371.5" font-family="Helvetica,sans-Serif" font-size="10.00">+ size()</text>
<text text-anchor="start" x="87" y="-360.5" font-family="Helvetica,sans-Serif" font-size="10.00">and 37 more...</text>
</a>
</g>
</g>
<!-- Node4&#45;&gt;Node3 -->
<g id="edge3" class="edge">
<title>Node4&#45;&gt;Node3</title>
<path fill="none" stroke="orange" d="M145,-343.22C145,-330.64 145,-317.86 145,-305.56"/>
<polygon fill="orange" stroke="orange" points="141.5,-343.26 145,-353.26 148.5,-343.26 141.5,-343.26"/>
<text text-anchor="middle" x="161" y="-327" font-family="Helvetica,sans-Serif" font-size="10.00"> &lt; 2 &gt;</text>
</g>
</g>
</svg>
