<?xml version="1.0" encoding="UTF-8" standalone="no"?>
<!DOCTYPE svg PUBLIC "-//W3C//DTD SVG 1.1//EN"
 "http://www.w3.org/Graphics/SVG/1.1/DTD/svg11.dtd">
<!-- Generated by graphviz version 2.43.0 (0)
 -->
<!-- Title: cie::concepts::conditional_t&lt; false, HasBoundingBoxTypeHelper&lt; typename T::bounding_box &gt;, void &gt;&gt; Pages: 1 -->
<svg width="226pt" height="182pt"
 viewBox="0.00 0.00 226.00 182.00" xmlns="http://www.w3.org/2000/svg" xmlns:xlink="http://www.w3.org/1999/xlink">
<g id="graph0" class="graph" transform="scale(1 1) rotate(0) translate(4 178)">
<title>cie::concepts::conditional_t&lt; false, HasBoundingBoxTypeHelper&lt; typename T::bounding_box &gt;, void &gt;&gt;</title>
<polygon fill="white" stroke="transparent" points="-4,4 -4,-178 222,-178 222,4 -4,4"/>
<!-- Node1 -->
<g id="node1" class="node">
<title>Node1</title>
<g id="a_node1"><a xlink:title=" ">
<polygon fill="#bfbfbf" stroke="black" points="0,-0.5 0,-79.5 218,-79.5 218,-0.5 0,-0.5"/>
<text text-anchor="start" x="8" y="-67.5" font-family="Helvetica,sans-Serif" font-size="10.00">cie::concepts::conditional</text>
<text text-anchor="start" x="8" y="-56.5" font-family="Helvetica,sans-Serif" font-size="10.00">_t&lt; false, HasBoundingBoxTypeHelper</text>
<text text-anchor="middle" x="109" y="-45.5" font-family="Helvetica,sans-Serif" font-size="10.00">&lt; typename T::bounding_box &gt;, void &gt;&gt;</text>
<polyline fill="none" stroke="black" points="0,-38.5 218,-38.5 "/>
<text text-anchor="middle" x="109" y="-26.5" font-family="Helvetica,sans-Serif" font-size="10.00"> </text>
<polyline fill="none" stroke="black" points="0,-19.5 218,-19.5 "/>
<text text-anchor="middle" x="109" y="-7.5" font-family="Helvetica,sans-Serif" font-size="10.00"> </text>
</a>
</g>
</g>
<!-- Node2 -->
<g id="node2" class="node">
<title>Node2</title>
<g id="a_node2"><a xlink:title=" ">
<polygon fill="white" stroke="#bfbfbf" points="67,-116.5 67,-173.5 151,-173.5 151,-116.5 67,-116.5"/>
<text text-anchor="middle" x="109" y="-161.5" font-family="Helvetica,sans-Serif" font-size="10.00">std::true_type</text>
<polyline fill="none" stroke="#bfbfbf" points="67,-154.5 151,-154.5 "/>
<text text-anchor="middle" x="109" y="-142.5" font-family="Helvetica,sans-Serif" font-size="10.00"> </text>
<polyline fill="none" stroke="#bfbfbf" points="67,-135.5 151,-135.5 "/>
<text text-anchor="middle" x="109" y="-123.5" font-family="Helvetica,sans-Serif" font-size="10.00"> </text>
</a>
</g>
</g>
<!-- Node2&#45;&gt;Node1 -->
<g id="edge1" class="edge">
<title>Node2&#45;&gt;Node1</title>
<path fill="none" stroke="midnightblue" d="M109,-106.16C109,-97.47 109,-88.23 109,-79.52"/>
<polygon fill="none" stroke="midnightblue" points="105.5,-106.4 109,-116.4 112.5,-106.4 105.5,-106.4"/>
</g>
</g>
</svg>
