<?xml version="1.0" encoding="UTF-8" standalone="no"?>
<!DOCTYPE svg PUBLIC "-//W3C//DTD SVG 1.1//EN"
 "http://www.w3.org/Graphics/SVG/1.1/DTD/svg11.dtd">
<!-- Generated by graphviz version 2.43.0 (0)
 -->
<!-- Title: Subtraction.hpp Pages: 1 -->
<!--zoomable 396 -->
<svg id="main" version="1.1" xmlns="http://www.w3.org/2000/svg" xmlns:xlink="http://www.w3.org/1999/xlink" xml:space="preserve" onload="init(evt)">
<style type="text/css"><![CDATA[
.edge:hover path { stroke: red; }
.edge:hover polygon { stroke: red; fill: red; }
]]></style>
<script type="text/javascript"><![CDATA[
var edges = document.getElementsByTagName('g');
if (edges && edges.length) {
  for (var i=0;i<edges.length;i++) {
    if (edges[i].id.substr(0,4)=='edge') {
      edges[i].setAttribute('class','edge');
    }
  }
}
]]></script>
        <defs>
                <circle id="rim" cx="0" cy="0" r="7"/>
                <circle id="rim2" cx="0" cy="0" r="3.5"/>
                <g id="zoomPlus">
                        <use xlink:href="#rim" fill="#404040">
                                <set attributeName="fill" to="#808080" begin="zoomplus.mouseover" end="zoomplus.mouseout"/>
                        </use>
                        <path d="M-4,0h8M0,-4v8" fill="none" stroke="white" stroke-width="1.5" pointer-events="none"/>
                </g>
                <g id="zoomMin">
                        <use xlink:href="#rim" fill="#404040">
                                <set attributeName="fill" to="#808080" begin="zoomminus.mouseover" end="zoomminus.mouseout"/>
                        </use>
                        <path d="M-4,0h8" fill="none" stroke="white" stroke-width="1.5" pointer-events="none"/>
                </g>
                <g id="dirArrow">
                        <path fill="none" stroke="white" stroke-width="1.5" d="M0,-3.0v7 M-2.5,-0.5L0,-3.0L2.5,-0.5"/>
                </g>
               <g id="resetDef">
                       <use xlink:href="#rim2" fill="#404040">
                               <set attributeName="fill" to="#808080" begin="reset.mouseover" end="reset.mouseout"/>
                       </use>
               </g>
        </defs>

<script type="text/javascript">
var viewWidth = 724;
var viewHeight = 396;
var sectionId = 'dynsection-0';
</script>
<script xlink:href="svgpan.js"/>
<svg id="graph" class="graph">
<g id="viewport">
<title>Subtraction.hpp</title>
<polygon fill="white" stroke="transparent" points="-4,4 -4,-392 719.5,-392 719.5,4 -4,4"/>
<!-- Node1 -->
<g id="node1" class="node">
<title>Node1</title>
<g id="a_node1"><a xlink:title=" ">
<polygon fill="#bfbfbf" stroke="black" points="493,-368.5 493,-387.5 586,-387.5 586,-368.5 493,-368.5"/>
<text text-anchor="middle" x="539.5" y="-375.5" font-family="Helvetica,sans-Serif" font-size="10.00">Subtraction.hpp</text>
</a>
</g>
</g>
<!-- Node2 -->
<g id="node2" class="node">
<title>Node2</title>
<g id="a_node2"><a xlink:href="BinaryOperator_8hpp.html" target="_top" xlink:title=" ">
<polygon fill="white" stroke="black" points="337,-301.5 337,-331.5 468,-331.5 468,-301.5 337,-301.5"/>
<text text-anchor="start" x="345" y="-319.5" font-family="Helvetica,sans-Serif" font-size="10.00">packages/operators</text>
<text text-anchor="middle" x="402.5" y="-308.5" font-family="Helvetica,sans-Serif" font-size="10.00">/inc/BinaryOperator.hpp</text>
</a>
</g>
</g>
<!-- Node1&#45;&gt;Node2 -->
<g id="edge1" class="edge">
<title>Node1&#45;&gt;Node2</title>
<path fill="none" stroke="midnightblue" d="M519.87,-368.48C500.19,-359.93 469.28,-346.5 444.11,-335.57"/>
<polygon fill="midnightblue" stroke="midnightblue" points="445.35,-332.3 434.79,-331.52 442.57,-338.72 445.35,-332.3"/>
</g>
<!-- Node11 -->
<g id="node11" class="node">
<title>Node11</title>
<g id="a_node11"><a xlink:title=" ">
<polygon fill="white" stroke="#bfbfbf" points="532.5,-84 532.5,-103 590.5,-103 590.5,-84 532.5,-84"/>
<text text-anchor="middle" x="561.5" y="-91" font-family="Helvetica,sans-Serif" font-size="10.00">memory</text>
</a>
</g>
</g>
<!-- Node1&#45;&gt;Node11 -->
<g id="edge17" class="edge">
<title>Node1&#45;&gt;Node11</title>
<path fill="none" stroke="midnightblue" d="M540.18,-368.24C543.24,-328.94 555.74,-168.47 560.04,-113.26"/>
<polygon fill="midnightblue" stroke="midnightblue" points="563.54,-113.4 560.83,-103.16 556.56,-112.86 563.54,-113.4"/>
</g>
<!-- Node15 -->
<g id="node15" class="node">
<title>Node15</title>
<g id="a_node15"><a xlink:title=" ">
<polygon fill="white" stroke="#bfbfbf" points="567.5,-301.5 567.5,-331.5 715.5,-331.5 715.5,-301.5 567.5,-301.5"/>
<text text-anchor="start" x="575.5" y="-319.5" font-family="Helvetica,sans-Serif" font-size="10.00">packages/operators</text>
<text text-anchor="middle" x="641.5" y="-308.5" font-family="Helvetica,sans-Serif" font-size="10.00">/impl/Subtraction_impl.hpp</text>
</a>
</g>
</g>
<!-- Node1&#45;&gt;Node15 -->
<g id="edge18" class="edge">
<title>Node1&#45;&gt;Node15</title>
<path fill="none" stroke="midnightblue" d="M554.11,-368.48C568.32,-360.19 590.37,-347.32 608.77,-336.59"/>
<polygon fill="midnightblue" stroke="midnightblue" points="610.59,-339.58 617.46,-331.52 607.06,-333.54 610.59,-339.58"/>
</g>
<!-- Node3 -->
<g id="node3" class="node">
<title>Node3</title>
<g id="a_node3"><a xlink:href="UnaryOperator_8hpp.html" target="_top" xlink:title=" ">
<polygon fill="white" stroke="black" points="338,-229 338,-259 467,-259 467,-229 338,-229"/>
<text text-anchor="start" x="346" y="-247" font-family="Helvetica,sans-Serif" font-size="10.00">packages/operators</text>
<text text-anchor="middle" x="402.5" y="-236" font-family="Helvetica,sans-Serif" font-size="10.00">/inc/UnaryOperator.hpp</text>
</a>
</g>
</g>
<!-- Node2&#45;&gt;Node3 -->
<g id="edge2" class="edge">
<title>Node2&#45;&gt;Node3</title>
<path fill="none" stroke="midnightblue" d="M402.5,-301.23C402.5,-292.16 402.5,-280.16 402.5,-269.58"/>
<polygon fill="midnightblue" stroke="midnightblue" points="406,-269.25 402.5,-259.25 399,-269.25 406,-269.25"/>
</g>
<!-- Node14 -->
<g id="node14" class="node">
<title>Node14</title>
<g id="a_node14"><a xlink:title=" ">
<polygon fill="white" stroke="#bfbfbf" points="201,-223.5 201,-264.5 320,-264.5 320,-223.5 201,-223.5"/>
<text text-anchor="start" x="209" y="-252.5" font-family="Helvetica,sans-Serif" font-size="10.00">packages/operators</text>
<text text-anchor="start" x="209" y="-241.5" font-family="Helvetica,sans-Serif" font-size="10.00">/impl/BinaryOperator</text>
<text text-anchor="middle" x="260.5" y="-230.5" font-family="Helvetica,sans-Serif" font-size="10.00">_impl.hpp</text>
</a>
</g>
</g>
<!-- Node2&#45;&gt;Node14 -->
<g id="edge16" class="edge">
<title>Node2&#45;&gt;Node14</title>
<path fill="none" stroke="midnightblue" d="M374.11,-301.4C355.48,-292.16 330.65,-279.83 308.95,-269.05"/>
<polygon fill="midnightblue" stroke="midnightblue" points="310.38,-265.86 299.87,-264.55 307.27,-272.13 310.38,-265.86"/>
</g>
<!-- Node4 -->
<g id="node4" class="node">
<title>Node4</title>
<g id="a_node4"><a xlink:href="Object_8hpp.html" target="_top" xlink:title=" ">
<polygon fill="white" stroke="black" points="345,-151 345,-181 460,-181 460,-151 345,-151"/>
<text text-anchor="start" x="353" y="-169" font-family="Helvetica,sans-Serif" font-size="10.00">packages/primitives</text>
<text text-anchor="middle" x="402.5" y="-158" font-family="Helvetica,sans-Serif" font-size="10.00">/inc/Object.hpp</text>
</a>
</g>
</g>
<!-- Node3&#45;&gt;Node4 -->
<g id="edge3" class="edge">
<title>Node3&#45;&gt;Node4</title>
<path fill="none" stroke="midnightblue" d="M402.5,-228.7C402.5,-218.2 402.5,-203.66 402.5,-191.33"/>
<polygon fill="midnightblue" stroke="midnightblue" points="406,-191.23 402.5,-181.23 399,-191.23 406,-191.23"/>
</g>
<!-- Node13 -->
<g id="node13" class="node">
<title>Node13</title>
<g id="a_node13"><a xlink:title=" ">
<polygon fill="white" stroke="#bfbfbf" points="210.5,-145.5 210.5,-186.5 326.5,-186.5 326.5,-145.5 210.5,-145.5"/>
<text text-anchor="start" x="218.5" y="-174.5" font-family="Helvetica,sans-Serif" font-size="10.00">packages/operators</text>
<text text-anchor="start" x="218.5" y="-163.5" font-family="Helvetica,sans-Serif" font-size="10.00">/impl/UnaryOperator</text>
<text text-anchor="middle" x="268.5" y="-152.5" font-family="Helvetica,sans-Serif" font-size="10.00">_impl.hpp</text>
</a>
</g>
</g>
<!-- Node3&#45;&gt;Node13 -->
<g id="edge15" class="edge">
<title>Node3&#45;&gt;Node13</title>
<path fill="none" stroke="midnightblue" d="M377.61,-228.88C359.18,-218.43 333.61,-203.93 311.85,-191.59"/>
<polygon fill="midnightblue" stroke="midnightblue" points="313.53,-188.52 303.11,-186.63 310.08,-194.61 313.53,-188.52"/>
</g>
<!-- Node5 -->
<g id="node5" class="node">
<title>Node5</title>
<g id="a_node5"><a target="_parent" xlink:href="../../../cieutils/docs/html/container__concepts_8hpp.html.html" xlink:title=" ">
<polygon fill="white" stroke="black" points="0,-0.5 0,-41.5 135,-41.5 135,-0.5 0,-0.5"/>
<text text-anchor="start" x="8" y="-29.5" font-family="Helvetica,sans-Serif" font-size="10.00">packages/compile_time</text>
<text text-anchor="start" x="8" y="-18.5" font-family="Helvetica,sans-Serif" font-size="10.00">/packages/concepts/inc</text>
<text text-anchor="middle" x="67.5" y="-7.5" font-family="Helvetica,sans-Serif" font-size="10.00">/container_concepts.hpp</text>
</a>
</g>
</g>
<!-- Node4&#45;&gt;Node5 -->
<g id="edge4" class="edge">
<title>Node4&#45;&gt;Node5</title>
<path fill="none" stroke="midnightblue" d="M359.53,-150.99C351.6,-148.74 343.35,-146.63 335.5,-145 269.32,-131.28 78.37,-159.54 33.5,-109 18.65,-92.28 29.66,-68.33 42.98,-49.79"/>
<polygon fill="midnightblue" stroke="midnightblue" points="45.88,-51.77 49.18,-41.7 40.32,-47.51 45.88,-51.77"/>
</g>
<!-- Node6 -->
<g id="node6" class="node">
<title>Node6</title>
<g id="a_node6"><a target="_parent" xlink:href="../../../cieutils/docs/html/typedefs_8hpp.html.html" xlink:title=" ">
<polygon fill="white" stroke="black" points="43,-78.5 43,-108.5 162,-108.5 162,-78.5 43,-78.5"/>
<text text-anchor="start" x="51" y="-96.5" font-family="Helvetica,sans-Serif" font-size="10.00">packages/macros/inc</text>
<text text-anchor="middle" x="102.5" y="-85.5" font-family="Helvetica,sans-Serif" font-size="10.00">/typedefs.hpp</text>
</a>
</g>
</g>
<!-- Node4&#45;&gt;Node6 -->
<g id="edge5" class="edge">
<title>Node4&#45;&gt;Node6</title>
<path fill="none" stroke="midnightblue" d="M357.22,-150.97C349.98,-148.88 342.55,-146.81 335.5,-145 319.69,-140.93 234.83,-122.69 172.06,-109.29"/>
<polygon fill="midnightblue" stroke="midnightblue" points="172.7,-105.85 162.19,-107.19 171.24,-112.7 172.7,-105.85"/>
</g>
<!-- Node7 -->
<g id="node7" class="node">
<title>Node7</title>
<g id="a_node7"><a target="_parent" xlink:href="../../../cieutils/docs/html/types_8hpp.html.html" xlink:title=" ">
<polygon fill="white" stroke="black" points="355.5,-6 355.5,-36 465.5,-36 465.5,-6 355.5,-6"/>
<text text-anchor="start" x="363.5" y="-24" font-family="Helvetica,sans-Serif" font-size="10.00">packages/types/inc</text>
<text text-anchor="middle" x="410.5" y="-13" font-family="Helvetica,sans-Serif" font-size="10.00">/types.hpp</text>
</a>
</g>
</g>
<!-- Node4&#45;&gt;Node7 -->
<g id="edge6" class="edge">
<title>Node4&#45;&gt;Node7</title>
<path fill="none" stroke="midnightblue" d="M418.37,-150.55C428.57,-140.14 440.92,-125.13 446.5,-109 451,-95.98 450.38,-91.22 446.5,-78 442.96,-65.94 435.93,-54.03 429.02,-44.31"/>
<polygon fill="midnightblue" stroke="midnightblue" points="431.62,-41.94 422.81,-36.06 426.03,-46.15 431.62,-41.94"/>
</g>
<!-- Node8 -->
<g id="node8" class="node">
<title>Node8</title>
<g id="a_node8"><a xlink:href="Traits_8hpp.html" target="_top" xlink:title=" ">
<polygon fill="white" stroke="black" points="323,-78.5 323,-108.5 438,-108.5 438,-78.5 323,-78.5"/>
<text text-anchor="start" x="331" y="-96.5" font-family="Helvetica,sans-Serif" font-size="10.00">packages/primitives</text>
<text text-anchor="middle" x="380.5" y="-85.5" font-family="Helvetica,sans-Serif" font-size="10.00">/inc/Traits.hpp</text>
</a>
</g>
</g>
<!-- Node4&#45;&gt;Node8 -->
<g id="edge7" class="edge">
<title>Node4&#45;&gt;Node8</title>
<path fill="none" stroke="midnightblue" d="M398.05,-150.73C395.16,-141.46 391.31,-129.15 387.96,-118.41"/>
<polygon fill="midnightblue" stroke="midnightblue" points="391.27,-117.25 384.95,-108.75 384.58,-119.33 391.27,-117.25"/>
</g>
<!-- Node10 -->
<g id="node10" class="node">
<title>Node10</title>
<g id="a_node10"><a xlink:title=" ">
<polygon fill="white" stroke="#bfbfbf" points="483.5,-11.5 483.5,-30.5 525.5,-30.5 525.5,-11.5 483.5,-11.5"/>
<text text-anchor="middle" x="504.5" y="-18.5" font-family="Helvetica,sans-Serif" font-size="10.00">array</text>
</a>
</g>
</g>
<!-- Node4&#45;&gt;Node10 -->
<g id="edge13" class="edge">
<title>Node4&#45;&gt;Node10</title>
<path fill="none" stroke="midnightblue" d="M421.01,-150.82C433.83,-140.3 450.67,-125.06 462.5,-109 478.46,-87.33 490.92,-58.63 497.99,-40.24"/>
<polygon fill="midnightblue" stroke="midnightblue" points="501.32,-41.33 501.52,-30.73 494.76,-38.89 501.32,-41.33"/>
</g>
<!-- Node4&#45;&gt;Node11 -->
<g id="edge12" class="edge">
<title>Node4&#45;&gt;Node11</title>
<path fill="none" stroke="midnightblue" d="M434.29,-150.9C463.15,-138.11 505.32,-119.41 533.08,-107.1"/>
<polygon fill="midnightblue" stroke="midnightblue" points="534.53,-110.29 542.25,-103.03 531.69,-103.89 534.53,-110.29"/>
</g>
<!-- Node12 -->
<g id="node12" class="node">
<title>Node12</title>
<g id="a_node12"><a xlink:title=" ">
<polygon fill="white" stroke="#bfbfbf" points="180.5,-78.5 180.5,-108.5 304.5,-108.5 304.5,-78.5 180.5,-78.5"/>
<text text-anchor="start" x="188.5" y="-96.5" font-family="Helvetica,sans-Serif" font-size="10.00">packages/primitives</text>
<text text-anchor="middle" x="242.5" y="-85.5" font-family="Helvetica,sans-Serif" font-size="10.00">/impl/Object_impl.hpp</text>
</a>
</g>
</g>
<!-- Node4&#45;&gt;Node12 -->
<g id="edge14" class="edge">
<title>Node4&#45;&gt;Node12</title>
<path fill="none" stroke="midnightblue" d="M370.51,-150.9C345.54,-139.9 310.69,-124.54 283.65,-112.63"/>
<polygon fill="midnightblue" stroke="midnightblue" points="285,-109.4 274.44,-108.57 282.18,-115.81 285,-109.4"/>
</g>
<!-- Node8&#45;&gt;Node5 -->
<g id="edge9" class="edge">
<title>Node8&#45;&gt;Node5</title>
<path fill="none" stroke="midnightblue" d="M322.73,-79.49C272.76,-68.23 200.09,-51.86 145.06,-39.47"/>
<polygon fill="midnightblue" stroke="midnightblue" points="145.53,-35.99 135,-37.2 143.99,-42.82 145.53,-35.99"/>
</g>
<!-- Node8&#45;&gt;Node7 -->
<g id="edge8" class="edge">
<title>Node8&#45;&gt;Node7</title>
<path fill="none" stroke="midnightblue" d="M386.57,-78.23C390.56,-68.87 395.86,-56.4 400.47,-45.58"/>
<polygon fill="midnightblue" stroke="midnightblue" points="403.74,-46.82 404.44,-36.25 397.3,-44.08 403.74,-46.82"/>
</g>
<!-- Node9 -->
<g id="node9" class="node">
<title>Node9</title>
<g id="a_node9"><a target="_parent" xlink:href="../../../cieutils/docs/html/StaticArray_8hpp.html.html" xlink:title=" ">
<polygon fill="white" stroke="black" points="206,-6 206,-36 337,-36 337,-6 206,-6"/>
<text text-anchor="start" x="214" y="-24" font-family="Helvetica,sans-Serif" font-size="10.00">packages/stl_extension</text>
<text text-anchor="middle" x="271.5" y="-13" font-family="Helvetica,sans-Serif" font-size="10.00">/inc/StaticArray.hpp</text>
</a>
</g>
</g>
<!-- Node8&#45;&gt;Node9 -->
<g id="edge10" class="edge">
<title>Node8&#45;&gt;Node9</title>
<path fill="none" stroke="midnightblue" d="M358.7,-78.4C342.37,-67.84 319.81,-53.24 301.73,-41.55"/>
<polygon fill="midnightblue" stroke="midnightblue" points="303.56,-38.56 293.26,-36.07 299.75,-44.44 303.56,-38.56"/>
</g>
<!-- Node8&#45;&gt;Node10 -->
<g id="edge11" class="edge">
<title>Node8&#45;&gt;Node10</title>
<path fill="none" stroke="midnightblue" d="M408.44,-78.37C427.35,-68.6 452.74,-55.06 474.5,-42 477.45,-40.23 480.52,-38.29 483.52,-36.35"/>
<polygon fill="midnightblue" stroke="midnightblue" points="485.73,-39.09 492.12,-30.64 481.85,-33.26 485.73,-39.09"/>
</g>
</g>
</svg>
        <g id="navigator" transform="translate(0 0)" fill="#404254">
                <rect fill="#f2f5e9" fill-opacity="0.5" stroke="#606060" stroke-width=".5" x="0" y="0" width="60" height="60"/>
                <use id="zoomplus" xlink:href="#zoomPlus" x="17" y="9" onmousedown="handleZoom(evt,'in')"/>
                <use id="zoomminus" xlink:href="#zoomMin" x="42" y="9" onmousedown="handleZoom(evt,'out')"/>
                <use id="reset" xlink:href="#resetDef" x="30" y="36" onmousedown="handleReset()"/>
                <g id="arrowUp" xlink:href="#dirArrow" transform="translate(30 24)" onmousedown="handlePan(0,-1)">
                  <use xlink:href="#rim" fill="#404040">
                        <set attributeName="fill" to="#808080" begin="arrowUp.mouseover" end="arrowUp.mouseout"/>
                  </use>
                  <path fill="none" stroke="white" stroke-width="1.5" d="M0,-3.0v7 M-2.5,-0.5L0,-3.0L2.5,-0.5"/>
                </g>
                <g id="arrowRight" xlink:href="#dirArrow" transform="rotate(90) translate(36 -43)" onmousedown="handlePan(1,0)">
                  <use xlink:href="#rim" fill="#404040">
                        <set attributeName="fill" to="#808080" begin="arrowRight.mouseover" end="arrowRight.mouseout"/>
                  </use>
                  <path fill="none" stroke="white" stroke-width="1.5" d="M0,-3.0v7 M-2.5,-0.5L0,-3.0L2.5,-0.5"/>
                </g>
                <g id="arrowDown" xlink:href="#dirArrow" transform="rotate(180) translate(-30 -48)" onmousedown="handlePan(0,1)">
                  <use xlink:href="#rim" fill="#404040">
                        <set attributeName="fill" to="#808080" begin="arrowDown.mouseover" end="arrowDown.mouseout"/>
                  </use>
                  <path fill="none" stroke="white" stroke-width="1.5" d="M0,-3.0v7 M-2.5,-0.5L0,-3.0L2.5,-0.5"/>
                </g>
                <g id="arrowLeft" xlink:href="#dirArrow" transform="rotate(270) translate(-36 17)" onmousedown="handlePan(-1,0)">
                  <use xlink:href="#rim" fill="#404040">
                        <set attributeName="fill" to="#808080" begin="arrowLeft.mouseover" end="arrowLeft.mouseout"/>
                  </use>
                  <path fill="none" stroke="white" stroke-width="1.5" d="M0,-3.0v7 M-2.5,-0.5L0,-3.0L2.5,-0.5"/>
                </g>
        </g>
        <svg viewBox="0 0 15 15" width="100%" height="30px" preserveAspectRatio="xMaxYMin meet">
         <g id="arrow_out" transform="scale(0.3 0.3)">
          <a xlink:href="Subtraction_8hpp__incl_org.svg" target="_base">
           <rect id="button" ry="5" rx="5" y="6" x="6" height="38" width="38"
                fill="#f2f5e9" fill-opacity="0.5" stroke="#606060" stroke-width="1.0"/>
           <path id="arrow"
             d="M 11.500037,31.436501 C 11.940474,20.09759 22.043105,11.32322 32.158766,21.979434 L 37.068811,17.246167 C 37.068811,17.246167 37.088388,32 37.088388,32 L 22.160133,31.978069 C 22.160133,31.978069 26.997745,27.140456 26.997745,27.140456 C 18.528582,18.264221 13.291696,25.230495 11.500037,31.436501 z"
             style="fill:#404040;"/>
          </a>
         </g>
        </svg>
</svg>
