<?xml version="1.0" encoding="UTF-8" standalone="no"?>
<!DOCTYPE svg PUBLIC "-//W3C//DTD SVG 1.1//EN"
 "http://www.w3.org/Graphics/SVG/1.1/DTD/svg11.dtd">
<!-- Generated by graphviz version 2.43.0 (0)
 -->
<!-- Title: Traits.hpp Pages: 1 -->
<svg width="1326pt" height="476pt"
 viewBox="0.00 0.00 1326.06 476.00" xmlns="http://www.w3.org/2000/svg" xmlns:xlink="http://www.w3.org/1999/xlink">
<g id="graph0" class="graph" transform="scale(1 1) rotate(0) translate(4 472)">
<title>Traits.hpp</title>
<polygon fill="white" stroke="transparent" points="-4,4 -4,-472 1322.06,-472 1322.06,4 -4,4"/>
<!-- Node1 -->
<g id="node1" class="node">
<title>Node1</title>
<g id="a_node1"><a xlink:title=" ">
<polygon fill="#bfbfbf" stroke="black" points="1020,-448.5 1020,-467.5 1084,-467.5 1084,-448.5 1020,-448.5"/>
<text text-anchor="middle" x="1052" y="-455.5" font-family="Helvetica,sans-Serif" font-size="10.00">Traits.hpp</text>
</a>
</g>
</g>
<!-- Node2 -->
<g id="node2" class="node">
<title>Node2</title>
<g id="a_node2"><a xlink:href="AbsMarchingPrimitives_8hpp.html" target="_top" xlink:title=" ">
<polygon fill="white" stroke="black" points="825,-224.5 825,-243.5 975,-243.5 975,-224.5 825,-224.5"/>
<text text-anchor="middle" x="900" y="-231.5" font-family="Helvetica,sans-Serif" font-size="10.00">AbsMarchingPrimitives.hpp</text>
</a>
</g>
</g>
<!-- Node1&#45;&gt;Node2 -->
<g id="edge1" class="edge">
<title>Node1&#45;&gt;Node2</title>
<path fill="none" stroke="midnightblue" d="M1044.26,-438.81C1029.45,-405.25 994.76,-332.25 952,-280 940.2,-265.59 923.48,-252.03 912.21,-243.64"/>
<polygon fill="midnightblue" stroke="midnightblue" points="1041.16,-440.46 1048.35,-448.24 1047.58,-437.68 1041.16,-440.46"/>
</g>
<!-- Node5 -->
<g id="node5" class="node">
<title>Node5</title>
<g id="a_node5"><a xlink:href="Object_8hpp.html" target="_top" xlink:title=" ">
<polygon fill="white" stroke="black" points="782.5,-392.5 782.5,-411.5 851.5,-411.5 851.5,-392.5 782.5,-392.5"/>
<text text-anchor="middle" x="817" y="-399.5" font-family="Helvetica,sans-Serif" font-size="10.00">Object.hpp</text>
</a>
</g>
</g>
<!-- Node1&#45;&gt;Node5 -->
<g id="edge4" class="edge">
<title>Node1&#45;&gt;Node5</title>
<path fill="none" stroke="midnightblue" d="M1010.05,-447.36C964.93,-436.99 894.01,-420.7 851.85,-411.01"/>
<polygon fill="midnightblue" stroke="midnightblue" points="1009.29,-450.78 1019.82,-449.6 1010.85,-443.95 1009.29,-450.78"/>
</g>
<!-- Node26 -->
<g id="node26" class="node">
<title>Node26</title>
<g id="a_node26"><a xlink:href="ContiguousSpaceTree_8hpp.html" target="_top" xlink:title=" ">
<polygon fill="white" stroke="black" points="1001,-168.5 1001,-187.5 1143,-187.5 1143,-168.5 1001,-168.5"/>
<text text-anchor="middle" x="1072" y="-175.5" font-family="Helvetica,sans-Serif" font-size="10.00">ContiguousSpaceTree.hpp</text>
</a>
</g>
</g>
<!-- Node1&#45;&gt;Node26 -->
<g id="edge65" class="edge">
<title>Node1&#45;&gt;Node26</title>
<path fill="none" stroke="midnightblue" d="M1086.4,-444.44C1124.01,-428.23 1179,-396.13 1179,-347 1179,-347 1179,-347 1179,-289 1179,-238.91 1121.29,-203.07 1090.64,-187.56"/>
<polygon fill="midnightblue" stroke="midnightblue" points="1084.7,-441.36 1076.79,-448.41 1087.37,-447.83 1084.7,-441.36"/>
</g>
<!-- Node38 -->
<g id="node38" class="node">
<title>Node38</title>
<g id="a_node38"><a xlink:href="MeshTraits_8hpp.html" target="_top" xlink:title=" ">
<polygon fill="white" stroke="black" points="1061,-280.5 1061,-299.5 1151,-299.5 1151,-280.5 1061,-280.5"/>
<text text-anchor="middle" x="1106" y="-287.5" font-family="Helvetica,sans-Serif" font-size="10.00">MeshTraits.hpp</text>
</a>
</g>
</g>
<!-- Node1&#45;&gt;Node38 -->
<g id="edge61" class="edge">
<title>Node1&#45;&gt;Node38</title>
<path fill="none" stroke="midnightblue" d="M1058.05,-438.39C1069.7,-402.59 1094.83,-325.34 1103.21,-299.57"/>
<polygon fill="midnightblue" stroke="midnightblue" points="1054.67,-437.48 1054.9,-448.08 1061.33,-439.65 1054.67,-437.48"/>
</g>
<!-- Node3 -->
<g id="node3" class="node">
<title>Node3</title>
<g id="a_node3"><a xlink:href="MarchingPrimitives_8hpp.html" target="_top" xlink:title=" ">
<polygon fill="white" stroke="black" points="1161,-168.5 1161,-187.5 1293,-187.5 1293,-168.5 1161,-168.5"/>
<text text-anchor="middle" x="1227" y="-175.5" font-family="Helvetica,sans-Serif" font-size="10.00">MarchingPrimitives.hpp</text>
</a>
</g>
</g>
<!-- Node2&#45;&gt;Node3 -->
<g id="edge2" class="edge">
<title>Node2&#45;&gt;Node3</title>
<path fill="none" stroke="midnightblue" d="M961.82,-222.79C1023.61,-212.59 1117.53,-197.08 1175.43,-187.52"/>
<polygon fill="midnightblue" stroke="midnightblue" points="961.11,-219.36 951.81,-224.44 962.25,-226.27 961.11,-219.36"/>
</g>
<!-- Node4 -->
<g id="node4" class="node">
<title>Node4</title>
<g id="a_node4"><a xlink:href="MarchingCubes_8hpp.html" target="_top" xlink:title=" ">
<polygon fill="white" stroke="black" points="852.5,-112.5 852.5,-131.5 965.5,-131.5 965.5,-112.5 852.5,-112.5"/>
<text text-anchor="middle" x="909" y="-119.5" font-family="Helvetica,sans-Serif" font-size="10.00">MarchingCubes.hpp</text>
</a>
</g>
</g>
<!-- Node3&#45;&gt;Node4 -->
<g id="edge3" class="edge">
<title>Node3&#45;&gt;Node4</title>
<path fill="none" stroke="midnightblue" d="M1166.51,-166.73C1106.41,-156.52 1015.34,-141.06 959.15,-131.52"/>
<polygon fill="midnightblue" stroke="midnightblue" points="1166.17,-170.22 1176.61,-168.44 1167.34,-163.32 1166.17,-170.22"/>
</g>
<!-- Node5&#45;&gt;Node2 -->
<g id="edge5" class="edge">
<title>Node5&#45;&gt;Node2</title>
<path fill="none" stroke="midnightblue" d="M845.6,-387.72C875.79,-371.83 921.28,-341.98 938,-300 946.51,-278.63 925.36,-255.92 911.31,-243.81"/>
<polygon fill="midnightblue" stroke="midnightblue" points="843.72,-384.75 836.39,-392.39 846.89,-390.99 843.72,-384.75"/>
</g>
<!-- Node6 -->
<g id="node6" class="node">
<title>Node6</title>
<g id="a_node6"><a xlink:href="UnaryOperator_8hpp.html" target="_top" xlink:title=" ">
<polygon fill="white" stroke="black" points="264.5,-336.5 264.5,-355.5 373.5,-355.5 373.5,-336.5 264.5,-336.5"/>
<text text-anchor="middle" x="319" y="-343.5" font-family="Helvetica,sans-Serif" font-size="10.00">UnaryOperator.hpp</text>
</a>
</g>
</g>
<!-- Node5&#45;&gt;Node6 -->
<g id="edge6" class="edge">
<title>Node5&#45;&gt;Node6</title>
<path fill="none" stroke="midnightblue" d="M772.21,-396.81C693.7,-389.35 526.15,-372.97 385,-356 381.33,-355.56 377.54,-355.09 373.73,-354.6"/>
<polygon fill="midnightblue" stroke="midnightblue" points="771.95,-400.3 782.24,-397.76 772.61,-393.33 771.95,-400.3"/>
</g>
<!-- Node13 -->
<g id="node13" class="node">
<title>Node13</title>
<g id="a_node13"><a xlink:href="boundingBox_8hpp.html" target="_top" xlink:title=" ">
<polygon fill="white" stroke="black" points="714.5,-56.5 714.5,-75.5 815.5,-75.5 815.5,-56.5 714.5,-56.5"/>
<text text-anchor="middle" x="765" y="-63.5" font-family="Helvetica,sans-Serif" font-size="10.00">boundingBox.hpp</text>
</a>
</g>
</g>
<!-- Node5&#45;&gt;Node13 -->
<g id="edge16" class="edge">
<title>Node5&#45;&gt;Node13</title>
<path fill="none" stroke="midnightblue" d="M854.98,-389.03C874.99,-381.54 899.22,-370.55 918,-356 977.27,-310.1 957.71,-260.83 1023,-224 1133.16,-161.86 1382.74,-265.34 1302,-168 1240.38,-93.71 937.39,-73.71 815.72,-68.63"/>
<polygon fill="midnightblue" stroke="midnightblue" points="853.76,-385.74 845.53,-392.42 856.13,-392.33 853.76,-385.74"/>
</g>
<!-- Node15 -->
<g id="node15" class="node">
<title>Node15</title>
<g id="a_node15"><a xlink:href="Ellipsoid_8hpp.html" target="_top" xlink:title=" ">
<polygon fill="white" stroke="black" points="849.5,-280.5 849.5,-299.5 928.5,-299.5 928.5,-280.5 849.5,-280.5"/>
<text text-anchor="middle" x="889" y="-287.5" font-family="Helvetica,sans-Serif" font-size="10.00">Ellipsoid.hpp</text>
</a>
</g>
</g>
<!-- Node5&#45;&gt;Node15 -->
<g id="edge18" class="edge">
<title>Node5&#45;&gt;Node15</title>
<path fill="none" stroke="midnightblue" d="M838.04,-386.13C848,-378.17 859.35,-367.62 867,-356 878.92,-337.89 885.01,-312.68 887.54,-299.61"/>
<polygon fill="midnightblue" stroke="midnightblue" points="835.61,-383.57 829.78,-392.42 839.85,-389.14 835.61,-383.57"/>
</g>
<!-- Node16 -->
<g id="node16" class="node">
<title>Node16</title>
<g id="a_node16"><a xlink:href="EmptyDomain_8hpp.html" target="_top" xlink:title=" ">
<polygon fill="white" stroke="black" points="394.5,-336.5 394.5,-355.5 501.5,-355.5 501.5,-336.5 394.5,-336.5"/>
<text text-anchor="middle" x="448" y="-343.5" font-family="Helvetica,sans-Serif" font-size="10.00">EmptyDomain.hpp</text>
</a>
</g>
</g>
<!-- Node5&#45;&gt;Node16 -->
<g id="edge19" class="edge">
<title>Node5&#45;&gt;Node16</title>
<path fill="none" stroke="midnightblue" d="M772.31,-394.46C704.27,-384.5 574.92,-365.57 501.82,-354.88"/>
<polygon fill="midnightblue" stroke="midnightblue" points="771.88,-397.93 782.29,-395.92 772.9,-391.01 771.88,-397.93"/>
</g>
<!-- Node17 -->
<g id="node17" class="node">
<title>Node17</title>
<g id="a_node17"><a xlink:href="InfiniteDomain_8hpp.html" target="_top" xlink:title=" ">
<polygon fill="white" stroke="black" points="520,-336.5 520,-355.5 630,-355.5 630,-336.5 520,-336.5"/>
<text text-anchor="middle" x="575" y="-343.5" font-family="Helvetica,sans-Serif" font-size="10.00">InfiniteDomain.hpp</text>
</a>
</g>
</g>
<!-- Node5&#45;&gt;Node17 -->
<g id="edge20" class="edge">
<title>Node5&#45;&gt;Node17</title>
<path fill="none" stroke="midnightblue" d="M772.4,-391.05C726.71,-380.85 656.42,-365.17 613.2,-355.52"/>
<polygon fill="midnightblue" stroke="midnightblue" points="771.81,-394.5 782.33,-393.26 773.33,-387.67 771.81,-394.5"/>
</g>
<!-- Node18 -->
<g id="node18" class="node">
<title>Node18</title>
<g id="a_node18"><a xlink:href="ObjectWrapper_8hpp.html" target="_top" xlink:title=" ">
<polygon fill="white" stroke="black" points="648,-336.5 648,-355.5 758,-355.5 758,-336.5 648,-336.5"/>
<text text-anchor="middle" x="703" y="-343.5" font-family="Helvetica,sans-Serif" font-size="10.00">ObjectWrapper.hpp</text>
</a>
</g>
</g>
<!-- Node5&#45;&gt;Node18 -->
<g id="edge21" class="edge">
<title>Node5&#45;&gt;Node18</title>
<path fill="none" stroke="midnightblue" d="M789.76,-388.1C768.46,-378.01 739.46,-364.27 720.98,-355.52"/>
<polygon fill="midnightblue" stroke="midnightblue" points="788.4,-391.33 798.94,-392.44 791.4,-385 788.4,-391.33"/>
</g>
<!-- Node19 -->
<g id="node19" class="node">
<title>Node19</title>
<g id="a_node19"><a xlink:href="Primitive_8hpp.html" target="_top" xlink:title=" ">
<polygon fill="white" stroke="black" points="776,-336.5 776,-355.5 858,-355.5 858,-336.5 776,-336.5"/>
<text text-anchor="middle" x="817" y="-343.5" font-family="Helvetica,sans-Serif" font-size="10.00">Primitive.hpp</text>
</a>
</g>
</g>
<!-- Node5&#45;&gt;Node19 -->
<g id="edge22" class="edge">
<title>Node5&#45;&gt;Node19</title>
<path fill="none" stroke="midnightblue" d="M817,-381.8C817,-372.91 817,-362.78 817,-355.75"/>
<polygon fill="midnightblue" stroke="midnightblue" points="813.5,-382.08 817,-392.08 820.5,-382.08 813.5,-382.08"/>
</g>
<!-- Node7 -->
<g id="node7" class="node">
<title>Node7</title>
<g id="a_node7"><a xlink:href="BinaryOperator_8hpp.html" target="_top" xlink:title=" ">
<polygon fill="white" stroke="black" points="108.5,-280.5 108.5,-299.5 219.5,-299.5 219.5,-280.5 108.5,-280.5"/>
<text text-anchor="middle" x="164" y="-287.5" font-family="Helvetica,sans-Serif" font-size="10.00">BinaryOperator.hpp</text>
</a>
</g>
</g>
<!-- Node6&#45;&gt;Node7 -->
<g id="edge7" class="edge">
<title>Node6&#45;&gt;Node7</title>
<path fill="none" stroke="midnightblue" d="M284.67,-333.04C255.5,-322.88 214.36,-308.55 188.45,-299.52"/>
<polygon fill="midnightblue" stroke="midnightblue" points="283.84,-336.46 294.44,-336.44 286.15,-329.85 283.84,-336.46"/>
</g>
<!-- Node12 -->
<g id="node12" class="node">
<title>Node12</title>
<g id="a_node12"><a xlink:href="Complement_8hpp.html" target="_top" xlink:title=" ">
<polygon fill="white" stroke="black" points="268.5,-280.5 268.5,-299.5 369.5,-299.5 369.5,-280.5 268.5,-280.5"/>
<text text-anchor="middle" x="319" y="-287.5" font-family="Helvetica,sans-Serif" font-size="10.00">Complement.hpp</text>
</a>
</g>
</g>
<!-- Node6&#45;&gt;Node12 -->
<g id="edge14" class="edge">
<title>Node6&#45;&gt;Node12</title>
<path fill="none" stroke="midnightblue" d="M319,-325.8C319,-316.91 319,-306.78 319,-299.75"/>
<polygon fill="midnightblue" stroke="midnightblue" points="315.5,-326.08 319,-336.08 322.5,-326.08 315.5,-326.08"/>
</g>
<!-- Node8 -->
<g id="node8" class="node">
<title>Node8</title>
<g id="a_node8"><a xlink:href="Intersection_8hpp.html" target="_top" xlink:title=" ">
<polygon fill="white" stroke="black" points="84.5,-224.5 84.5,-243.5 179.5,-243.5 179.5,-224.5 84.5,-224.5"/>
<text text-anchor="middle" x="132" y="-231.5" font-family="Helvetica,sans-Serif" font-size="10.00">Intersection.hpp</text>
</a>
</g>
</g>
<!-- Node7&#45;&gt;Node8 -->
<g id="edge8" class="edge">
<title>Node7&#45;&gt;Node8</title>
<path fill="none" stroke="midnightblue" d="M153.5,-271.27C148.03,-262.05 141.58,-251.17 137.19,-243.75"/>
<polygon fill="midnightblue" stroke="midnightblue" points="150.61,-273.26 158.72,-280.08 156.63,-269.7 150.61,-273.26"/>
</g>
<!-- Node10 -->
<g id="node10" class="node">
<title>Node10</title>
<g id="a_node10"><a xlink:href="Subtraction_8hpp.html" target="_top" xlink:title=" ">
<polygon fill="white" stroke="black" points="197.5,-224.5 197.5,-243.5 290.5,-243.5 290.5,-224.5 197.5,-224.5"/>
<text text-anchor="middle" x="244" y="-231.5" font-family="Helvetica,sans-Serif" font-size="10.00">Subtraction.hpp</text>
</a>
</g>
</g>
<!-- Node7&#45;&gt;Node10 -->
<g id="edge10" class="edge">
<title>Node7&#45;&gt;Node10</title>
<path fill="none" stroke="midnightblue" d="M185.3,-274.62C199.92,-264.76 218.83,-251.99 231.18,-243.65"/>
<polygon fill="midnightblue" stroke="midnightblue" points="183.18,-271.83 176.85,-280.32 187.1,-277.63 183.18,-271.83"/>
</g>
<!-- Node11 -->
<g id="node11" class="node">
<title>Node11</title>
<g id="a_node11"><a xlink:href="Union_8hpp.html" target="_top" xlink:title=" ">
<polygon fill="white" stroke="black" points="0,-224.5 0,-243.5 66,-243.5 66,-224.5 0,-224.5"/>
<text text-anchor="middle" x="33" y="-231.5" font-family="Helvetica,sans-Serif" font-size="10.00">Union.hpp</text>
</a>
</g>
</g>
<!-- Node7&#45;&gt;Node11 -->
<g id="edge12" class="edge">
<title>Node7&#45;&gt;Node11</title>
<path fill="none" stroke="midnightblue" d="M133.68,-276.5C109.12,-266.38 75.18,-252.39 53.66,-243.52"/>
<polygon fill="midnightblue" stroke="midnightblue" points="132.66,-279.87 143.24,-280.44 135.33,-273.4 132.66,-279.87"/>
</g>
<!-- Node9 -->
<g id="node9" class="node">
<title>Node9</title>
<g id="a_node9"><a xlink:href="overloads_8hpp.html" target="_top" xlink:title=" ">
<polygon fill="white" stroke="black" points="89,-168.5 89,-187.5 175,-187.5 175,-168.5 89,-168.5"/>
<text text-anchor="middle" x="132" y="-175.5" font-family="Helvetica,sans-Serif" font-size="10.00">overloads.hpp</text>
</a>
</g>
</g>
<!-- Node8&#45;&gt;Node9 -->
<g id="edge9" class="edge">
<title>Node8&#45;&gt;Node9</title>
<path fill="none" stroke="midnightblue" d="M132,-213.8C132,-204.91 132,-194.78 132,-187.75"/>
<polygon fill="midnightblue" stroke="midnightblue" points="128.5,-214.08 132,-224.08 135.5,-214.08 128.5,-214.08"/>
</g>
<!-- Node10&#45;&gt;Node9 -->
<g id="edge11" class="edge">
<title>Node10&#45;&gt;Node9</title>
<path fill="none" stroke="midnightblue" d="M216.75,-219.86C195.98,-209.85 167.98,-196.35 149.95,-187.65"/>
<polygon fill="midnightblue" stroke="midnightblue" points="215.48,-223.13 226.01,-224.32 218.52,-216.83 215.48,-223.13"/>
</g>
<!-- Node11&#45;&gt;Node9 -->
<g id="edge13" class="edge">
<title>Node11&#45;&gt;Node9</title>
<path fill="none" stroke="midnightblue" d="M57.84,-219.45C76.11,-209.48 100.42,-196.23 116.13,-187.65"/>
<polygon fill="midnightblue" stroke="midnightblue" points="56.01,-216.46 48.91,-224.32 59.36,-222.61 56.01,-216.46"/>
</g>
<!-- Node12&#45;&gt;Node9 -->
<g id="edge15" class="edge">
<title>Node12&#45;&gt;Node9</title>
<path fill="none" stroke="midnightblue" d="M317.99,-270.17C316.21,-255.63 311.47,-236.03 299,-224 281.39,-207 218.5,-193.41 175.13,-185.77"/>
<polygon fill="midnightblue" stroke="midnightblue" points="314.54,-270.83 318.88,-280.5 321.51,-270.24 314.54,-270.83"/>
</g>
<!-- Node14 -->
<g id="node14" class="node">
<title>Node14</title>
<g id="a_node14"><a xlink:href="AABBoxNode_8hpp.html" target="_top" xlink:title=" ">
<polygon fill="white" stroke="black" points="616,-0.5 616,-19.5 718,-19.5 718,-0.5 616,-0.5"/>
<text text-anchor="middle" x="667" y="-7.5" font-family="Helvetica,sans-Serif" font-size="10.00">AABBoxNode.hpp</text>
</a>
</g>
</g>
<!-- Node13&#45;&gt;Node14 -->
<g id="edge17" class="edge">
<title>Node13&#45;&gt;Node14</title>
<path fill="none" stroke="midnightblue" d="M740.41,-51.45C722.32,-41.48 698.27,-28.23 682.71,-19.65"/>
<polygon fill="midnightblue" stroke="midnightblue" points="738.81,-54.56 749.25,-56.32 742.19,-48.43 738.81,-54.56"/>
</g>
<!-- Node19&#45;&gt;Node2 -->
<g id="edge23" class="edge">
<title>Node19&#45;&gt;Node2</title>
<path fill="none" stroke="midnightblue" d="M820.88,-326.45C824.43,-312.65 830.73,-293.89 841,-280 852.56,-264.36 871.01,-251.51 884.2,-243.61"/>
<polygon fill="midnightblue" stroke="midnightblue" points="817.45,-325.73 818.59,-336.26 824.27,-327.31 817.45,-325.73"/>
</g>
<!-- Node19&#45;&gt;Node15 -->
<g id="edge58" class="edge">
<title>Node19&#45;&gt;Node15</title>
<path fill="none" stroke="midnightblue" d="M836.87,-330.1C849.82,-320.38 866.3,-308.03 877.22,-299.83"/>
<polygon fill="midnightblue" stroke="midnightblue" points="834.47,-327.52 828.57,-336.32 838.67,-333.12 834.47,-327.52"/>
</g>
<!-- Node20 -->
<g id="node20" class="node">
<title>Node20</title>
<g id="a_node20"><a xlink:href="Box_8hpp.html" target="_top" xlink:title=" ">
<polygon fill="white" stroke="black" points="588,-224.5 588,-243.5 644,-243.5 644,-224.5 588,-224.5"/>
<text text-anchor="middle" x="616" y="-231.5" font-family="Helvetica,sans-Serif" font-size="10.00">Box.hpp</text>
</a>
</g>
</g>
<!-- Node19&#45;&gt;Node20 -->
<g id="edge24" class="edge">
<title>Node19&#45;&gt;Node20</title>
<path fill="none" stroke="midnightblue" d="M765.77,-335.68C694.97,-322.77 575.77,-300.92 575,-300 559.56,-281.43 586.45,-256.63 603.53,-243.69"/>
<polygon fill="midnightblue" stroke="midnightblue" points="765.37,-339.17 775.84,-337.52 766.63,-332.28 765.37,-339.17"/>
</g>
<!-- Node28 -->
<g id="node28" class="node">
<title>Node28</title>
<g id="a_node28"><a xlink:href="primitives_2inc_2concepts_8hpp.html" target="_top" xlink:title=" ">
<polygon fill="white" stroke="black" points="583.5,-280.5 583.5,-299.5 664.5,-299.5 664.5,-280.5 583.5,-280.5"/>
<text text-anchor="middle" x="624" y="-287.5" font-family="Helvetica,sans-Serif" font-size="10.00">concepts.hpp</text>
</a>
</g>
</g>
<!-- Node19&#45;&gt;Node28 -->
<g id="edge36" class="edge">
<title>Node19&#45;&gt;Node28</title>
<path fill="none" stroke="midnightblue" d="M776.61,-333.7C740.18,-323.51 687.41,-308.74 654.44,-299.52"/>
<polygon fill="midnightblue" stroke="midnightblue" points="775.85,-337.12 786.42,-336.44 777.73,-330.38 775.85,-337.12"/>
</g>
<!-- Node29 -->
<g id="node29" class="node">
<title>Node29</title>
<g id="a_node29"><a xlink:href="Cube_8hpp.html" target="_top" xlink:title=" ">
<polygon fill="white" stroke="black" points="662,-224.5 662,-243.5 724,-243.5 724,-224.5 662,-224.5"/>
<text text-anchor="middle" x="693" y="-231.5" font-family="Helvetica,sans-Serif" font-size="10.00">Cube.hpp</text>
</a>
</g>
</g>
<!-- Node19&#45;&gt;Node29 -->
<g id="edge57" class="edge">
<title>Node19&#45;&gt;Node29</title>
<path fill="none" stroke="midnightblue" d="M767.7,-333.34C748.31,-326.52 727.32,-315.98 713,-300 698.51,-283.82 694.51,-257.32 693.42,-243.69"/>
<polygon fill="midnightblue" stroke="midnightblue" points="766.75,-336.71 777.35,-336.49 768.93,-330.06 766.75,-336.71"/>
</g>
<!-- Node30 -->
<g id="node30" class="node">
<title>Node30</title>
<g id="a_node30"><a xlink:href="AbsCell_8hpp.html" target="_top" xlink:title=" ">
<polygon fill="white" stroke="black" points="350,-224.5 350,-243.5 424,-243.5 424,-224.5 350,-224.5"/>
<text text-anchor="middle" x="387" y="-231.5" font-family="Helvetica,sans-Serif" font-size="10.00">AbsCell.hpp</text>
</a>
</g>
</g>
<!-- Node19&#45;&gt;Node30 -->
<g id="edge60" class="edge">
<title>Node19&#45;&gt;Node30</title>
<path fill="none" stroke="midnightblue" d="M765.72,-335.8C675.91,-320.18 650.56,-322.75 566,-300 506.94,-284.11 439.76,-257.24 407.04,-243.56"/>
<polygon fill="midnightblue" stroke="midnightblue" points="765.34,-339.29 775.8,-337.58 766.56,-332.39 765.34,-339.29"/>
</g>
<!-- Node37 -->
<g id="node37" class="node">
<title>Node37</title>
<g id="a_node37"><a xlink:href="Sphere_8hpp.html" target="_top" xlink:title=" ">
<polygon fill="white" stroke="black" points="721.5,-280.5 721.5,-299.5 792.5,-299.5 792.5,-280.5 721.5,-280.5"/>
<text text-anchor="middle" x="757" y="-287.5" font-family="Helvetica,sans-Serif" font-size="10.00">Sphere.hpp</text>
</a>
</g>
</g>
<!-- Node19&#45;&gt;Node37 -->
<g id="edge59" class="edge">
<title>Node19&#45;&gt;Node37</title>
<path fill="none" stroke="midnightblue" d="M799.82,-329.54C789.12,-319.91 775.74,-307.87 766.82,-299.83"/>
<polygon fill="midnightblue" stroke="midnightblue" points="797.59,-332.24 807.36,-336.32 802.27,-327.03 797.59,-332.24"/>
</g>
<!-- Node20&#45;&gt;Node4 -->
<g id="edge25" class="edge">
<title>Node20&#45;&gt;Node4</title>
<path fill="none" stroke="midnightblue" d="M654.03,-223.67C700.83,-212.09 775.65,-193.23 788,-188 803.79,-181.32 806.02,-176.35 821,-168 844.98,-154.63 873.36,-140.39 891.27,-131.6"/>
<polygon fill="midnightblue" stroke="midnightblue" points="653.09,-220.3 644.22,-226.09 654.76,-227.09 653.09,-220.3"/>
</g>
<!-- Node21 -->
<g id="node21" class="node">
<title>Node21</title>
<g id="a_node21"><a xlink:href="AABBox_8hpp.html" target="_top" xlink:title=" ">
<polygon fill="white" stroke="black" points="701.5,-168.5 701.5,-187.5 778.5,-187.5 778.5,-168.5 701.5,-168.5"/>
<text text-anchor="middle" x="740" y="-175.5" font-family="Helvetica,sans-Serif" font-size="10.00">AABBox.hpp</text>
</a>
</g>
</g>
<!-- Node20&#45;&gt;Node21 -->
<g id="edge26" class="edge">
<title>Node20&#45;&gt;Node21</title>
<path fill="none" stroke="midnightblue" d="M645.01,-220.37C668.23,-210.26 700.16,-196.35 720.44,-187.52"/>
<polygon fill="midnightblue" stroke="midnightblue" points="643.42,-217.24 635.65,-224.44 646.21,-223.66 643.42,-217.24"/>
</g>
<!-- Node23 -->
<g id="node23" class="node">
<title>Node23</title>
<g id="a_node23"><a xlink:href="cartesianmesh_8hpp.html" target="_top" xlink:title=" ">
<polygon fill="white" stroke="black" points="873,-168.5 873,-187.5 983,-187.5 983,-168.5 873,-168.5"/>
<text text-anchor="middle" x="928" y="-175.5" font-family="Helvetica,sans-Serif" font-size="10.00">cartesianmesh.hpp</text>
</a>
</g>
</g>
<!-- Node20&#45;&gt;Node23 -->
<g id="edge30" class="edge">
<title>Node20&#45;&gt;Node23</title>
<path fill="none" stroke="midnightblue" d="M654.16,-223.89C735.72,-207.53 819.49,-194.55 872.99,-186.74"/>
<polygon fill="midnightblue" stroke="midnightblue" points="653.34,-220.48 644.23,-225.9 654.73,-227.34 653.34,-220.48"/>
</g>
<!-- Node24 -->
<g id="node24" class="node">
<title>Node24</title>
<g id="a_node24"><a xlink:href="CartesianGridSampler_8hpp.html" target="_top" xlink:title=" ">
<polygon fill="white" stroke="black" points="539,-168.5 539,-187.5 683,-187.5 683,-168.5 539,-168.5"/>
<text text-anchor="middle" x="611" y="-175.5" font-family="Helvetica,sans-Serif" font-size="10.00">CartesianGridSampler.hpp</text>
</a>
</g>
</g>
<!-- Node20&#45;&gt;Node24 -->
<g id="edge31" class="edge">
<title>Node20&#45;&gt;Node24</title>
<path fill="none" stroke="midnightblue" d="M614.25,-214.1C613.42,-205.14 612.47,-194.86 611.81,-187.75"/>
<polygon fill="midnightblue" stroke="midnightblue" points="610.77,-214.45 615.17,-224.08 617.74,-213.8 610.77,-214.45"/>
</g>
<!-- Node25 -->
<g id="node25" class="node">
<title>Node25</title>
<g id="a_node25"><a xlink:href="Cell_8hpp.html" target="_top" xlink:title=" ">
<polygon fill="white" stroke="black" points="337,-168.5 337,-187.5 393,-187.5 393,-168.5 337,-168.5"/>
<text text-anchor="middle" x="365" y="-175.5" font-family="Helvetica,sans-Serif" font-size="10.00">Cell.hpp</text>
</a>
</g>
</g>
<!-- Node20&#45;&gt;Node25 -->
<g id="edge32" class="edge">
<title>Node20&#45;&gt;Node25</title>
<path fill="none" stroke="midnightblue" d="M578,-224.22C577.66,-224.14 577.33,-224.07 577,-224 499.42,-207.07 479.48,-205.39 402,-188 399.16,-187.36 396.21,-186.68 393.26,-185.98"/>
<polygon fill="midnightblue" stroke="midnightblue" points="577.38,-227.67 587.9,-226.43 578.9,-220.83 577.38,-227.67"/>
</g>
<!-- Node20&#45;&gt;Node26 -->
<g id="edge34" class="edge">
<title>Node20&#45;&gt;Node26</title>
<path fill="none" stroke="midnightblue" d="M654.23,-223.99C804,-198.3 844.62,-204.12 992,-188 994.92,-187.68 997.89,-187.35 1000.9,-187.02"/>
<polygon fill="midnightblue" stroke="midnightblue" points="653.46,-220.57 644.2,-225.73 654.65,-227.47 653.46,-220.57"/>
</g>
<!-- Node27 -->
<g id="node27" class="node">
<title>Node27</title>
<g id="a_node27"><a xlink:href="CornerSampler_8hpp.html" target="_top" xlink:title=" ">
<polygon fill="white" stroke="black" points="411,-168.5 411,-187.5 521,-187.5 521,-168.5 411,-168.5"/>
<text text-anchor="middle" x="466" y="-175.5" font-family="Helvetica,sans-Serif" font-size="10.00">CornerSampler.hpp</text>
</a>
</g>
</g>
<!-- Node20&#45;&gt;Node27 -->
<g id="edge35" class="edge">
<title>Node20&#45;&gt;Node27</title>
<path fill="none" stroke="midnightblue" d="M582.78,-221.04C554.55,-210.88 514.74,-196.55 489.66,-187.52"/>
<polygon fill="midnightblue" stroke="midnightblue" points="581.64,-224.35 592.23,-224.44 584.01,-217.76 581.64,-224.35"/>
</g>
<!-- Node21&#45;&gt;Node14 -->
<g id="edge27" class="edge">
<title>Node21&#45;&gt;Node14</title>
<path fill="none" stroke="midnightblue" d="M716.3,-162.51C705.67,-154.78 693.97,-144.31 687,-132 665.7,-94.39 665.6,-40.34 666.48,-19.58"/>
<polygon fill="midnightblue" stroke="midnightblue" points="714.62,-165.6 724.85,-168.35 718.56,-159.82 714.62,-165.6"/>
</g>
<!-- Node22 -->
<g id="node22" class="node">
<title>Node22</title>
<g id="a_node22"><a xlink:href="AbsBoundableObject_8hpp.html" target="_top" xlink:title=" ">
<polygon fill="white" stroke="black" points="695.5,-112.5 695.5,-131.5 834.5,-131.5 834.5,-112.5 695.5,-112.5"/>
<text text-anchor="middle" x="765" y="-119.5" font-family="Helvetica,sans-Serif" font-size="10.00">AbsBoundableObject.hpp</text>
</a>
</g>
</g>
<!-- Node21&#45;&gt;Node22 -->
<g id="edge28" class="edge">
<title>Node21&#45;&gt;Node22</title>
<path fill="none" stroke="midnightblue" d="M748.34,-158.98C752.58,-149.82 757.55,-139.09 760.95,-131.75"/>
<polygon fill="midnightblue" stroke="midnightblue" points="745.15,-157.54 744.13,-168.08 751.51,-160.48 745.15,-157.54"/>
</g>
<!-- Node22&#45;&gt;Node13 -->
<g id="edge29" class="edge">
<title>Node22&#45;&gt;Node13</title>
<path fill="none" stroke="midnightblue" d="M765,-101.8C765,-92.91 765,-82.78 765,-75.75"/>
<polygon fill="midnightblue" stroke="midnightblue" points="761.5,-102.08 765,-112.08 768.5,-102.08 761.5,-102.08"/>
</g>
<!-- Node25&#45;&gt;Node14 -->
<g id="edge33" class="edge">
<title>Node25&#45;&gt;Node14</title>
<path fill="none" stroke="midnightblue" d="M403.07,-168.03C496.65,-151.45 537.85,-186.96 610,-132 648.05,-103.01 661.77,-42.33 665.68,-19.73"/>
<polygon fill="midnightblue" stroke="midnightblue" points="402.39,-164.59 393.24,-169.92 403.72,-171.46 402.39,-164.59"/>
</g>
<!-- Node28&#45;&gt;Node2 -->
<g id="edge37" class="edge">
<title>Node28&#45;&gt;Node2</title>
<path fill="none" stroke="midnightblue" d="M674.75,-279.07C726.84,-268.88 807.04,-253.19 856.37,-243.54"/>
<polygon fill="midnightblue" stroke="midnightblue" points="673.87,-275.68 664.72,-281.03 675.21,-282.55 673.87,-275.68"/>
</g>
<!-- Node28&#45;&gt;Node20 -->
<g id="edge38" class="edge">
<title>Node28&#45;&gt;Node20</title>
<path fill="none" stroke="midnightblue" d="M621.2,-270.1C619.87,-261.14 618.35,-250.86 617.3,-243.75"/>
<polygon fill="midnightblue" stroke="midnightblue" points="617.75,-270.7 622.68,-280.08 624.68,-269.68 617.75,-270.7"/>
</g>
<!-- Node28&#45;&gt;Node29 -->
<g id="edge39" class="edge">
<title>Node28&#45;&gt;Node29</title>
<path fill="none" stroke="midnightblue" d="M643.04,-274.1C655.46,-264.38 671.24,-252.03 681.71,-243.83"/>
<polygon fill="midnightblue" stroke="midnightblue" points="640.8,-271.4 635.09,-280.32 645.12,-276.92 640.8,-271.4"/>
</g>
<!-- Node28&#45;&gt;Node30 -->
<g id="edge46" class="edge">
<title>Node28&#45;&gt;Node30</title>
<path fill="none" stroke="midnightblue" d="M576.68,-278.22C531.89,-268.01 465.56,-252.9 424.38,-243.52"/>
<polygon fill="midnightblue" stroke="midnightblue" points="575.92,-281.63 586.45,-280.44 577.47,-274.81 575.92,-281.63"/>
</g>
<!-- Node32 -->
<g id="node32" class="node">
<title>Node32</title>
<g id="a_node32"><a xlink:href="PrimitiveSampler_8hpp.html" target="_top" xlink:title=" ">
<polygon fill="white" stroke="black" points="446,-224.5 446,-243.5 568,-243.5 568,-224.5 446,-224.5"/>
<text text-anchor="middle" x="507" y="-231.5" font-family="Helvetica,sans-Serif" font-size="10.00">PrimitiveSampler.hpp</text>
</a>
</g>
</g>
<!-- Node28&#45;&gt;Node32 -->
<g id="edge49" class="edge">
<title>Node28&#45;&gt;Node32</title>
<path fill="none" stroke="midnightblue" d="M596.34,-276.23C574.45,-266.13 544.5,-252.31 525.45,-243.52"/>
<polygon fill="midnightblue" stroke="midnightblue" points="594.91,-279.43 605.46,-280.44 597.85,-273.08 594.91,-279.43"/>
</g>
<!-- Node29&#45;&gt;Node4 -->
<g id="edge40" class="edge">
<title>Node29&#45;&gt;Node4</title>
<path fill="none" stroke="midnightblue" d="M733.9,-222.03C759.69,-214.29 793.25,-202.7 821,-188 851.88,-171.64 883.83,-145.22 899.36,-131.65"/>
<polygon fill="midnightblue" stroke="midnightblue" points="732.69,-218.74 724.07,-224.9 734.65,-225.45 732.69,-218.74"/>
</g>
<!-- Node29&#45;&gt;Node23 -->
<g id="edge41" class="edge">
<title>Node29&#45;&gt;Node23</title>
<path fill="none" stroke="midnightblue" d="M734.06,-223.56C778.32,-213.39 848.16,-197.35 890.85,-187.54"/>
<polygon fill="midnightblue" stroke="midnightblue" points="733.17,-220.18 724.21,-225.83 734.74,-227 733.17,-220.18"/>
</g>
<!-- Node29&#45;&gt;Node24 -->
<g id="edge42" class="edge">
<title>Node29&#45;&gt;Node24</title>
<path fill="none" stroke="midnightblue" d="M671.17,-218.62C656.19,-208.76 636.8,-195.99 624.14,-187.65"/>
<polygon fill="midnightblue" stroke="midnightblue" points="669.55,-221.75 679.83,-224.32 673.4,-215.9 669.55,-221.75"/>
</g>
<!-- Node29&#45;&gt;Node25 -->
<g id="edge43" class="edge">
<title>Node29&#45;&gt;Node25</title>
<path fill="none" stroke="midnightblue" d="M651.67,-223.88C540.43,-203.92 509.52,-208.74 402,-188 399.14,-187.45 396.18,-186.82 393.22,-186.16"/>
<polygon fill="midnightblue" stroke="midnightblue" points="651.14,-227.34 661.61,-225.69 652.39,-220.45 651.14,-227.34"/>
</g>
<!-- Node29&#45;&gt;Node26 -->
<g id="edge44" class="edge">
<title>Node29&#45;&gt;Node26</title>
<path fill="none" stroke="midnightblue" d="M734.21,-227.13C801.38,-217.56 934.75,-198.56 1012.3,-187.51"/>
<polygon fill="midnightblue" stroke="midnightblue" points="733.42,-223.71 724.02,-228.58 734.41,-230.64 733.42,-223.71"/>
</g>
<!-- Node29&#45;&gt;Node27 -->
<g id="edge45" class="edge">
<title>Node29&#45;&gt;Node27</title>
<path fill="none" stroke="midnightblue" d="M652.1,-223.27C609.31,-213.09 542.79,-197.27 501.95,-187.55"/>
<polygon fill="midnightblue" stroke="midnightblue" points="651.37,-226.7 661.91,-225.6 652.99,-219.89 651.37,-226.7"/>
</g>
<!-- Node30&#45;&gt;Node25 -->
<g id="edge47" class="edge">
<title>Node30&#45;&gt;Node25</title>
<path fill="none" stroke="midnightblue" d="M379.54,-214.69C375.83,-205.59 371.52,-195.01 368.57,-187.75"/>
<polygon fill="midnightblue" stroke="midnightblue" points="376.35,-216.14 383.37,-224.08 382.84,-213.5 376.35,-216.14"/>
</g>
<!-- Node31 -->
<g id="node31" class="node">
<title>Node31</title>
<g id="a_node31"><a xlink:href="SpaceTreeNode_8hpp.html" target="_top" xlink:title=" ">
<polygon fill="white" stroke="black" points="52.5,-112.5 52.5,-131.5 165.5,-131.5 165.5,-112.5 52.5,-112.5"/>
<text text-anchor="middle" x="109" y="-119.5" font-family="Helvetica,sans-Serif" font-size="10.00">SpaceTreeNode.hpp</text>
</a>
</g>
</g>
<!-- Node30&#45;&gt;Node31 -->
<g id="edge48" class="edge">
<title>Node30&#45;&gt;Node31</title>
<path fill="none" stroke="midnightblue" d="M339.72,-223.49C306.14,-215.93 260.39,-203.96 222,-188 211.81,-183.76 151.58,-148.27 123.45,-131.59"/>
<polygon fill="midnightblue" stroke="midnightblue" points="339.21,-226.96 349.73,-225.7 340.72,-220.13 339.21,-226.96"/>
</g>
<!-- Node32&#45;&gt;Node24 -->
<g id="edge50" class="edge">
<title>Node32&#45;&gt;Node24</title>
<path fill="none" stroke="midnightblue" d="M532.83,-219.59C552.06,-209.61 577.74,-196.27 594.33,-187.65"/>
<polygon fill="midnightblue" stroke="midnightblue" points="530.97,-216.61 523.71,-224.32 534.2,-222.82 530.97,-216.61"/>
</g>
<!-- Node32&#45;&gt;Node27 -->
<g id="edge51" class="edge">
<title>Node32&#45;&gt;Node27</title>
<path fill="none" stroke="midnightblue" d="M493.98,-215.86C486.88,-206.5 478.4,-195.33 472.64,-187.75"/>
<polygon fill="midnightblue" stroke="midnightblue" points="491.39,-218.24 500.23,-224.08 496.97,-214 491.39,-218.24"/>
</g>
<!-- Node33 -->
<g id="node33" class="node">
<title>Node33</title>
<g id="a_node33"><a xlink:href="SplitPolicy_8hpp.html" target="_top" xlink:title=" ">
<polygon fill="white" stroke="black" points="231.5,-168.5 231.5,-187.5 318.5,-187.5 318.5,-168.5 231.5,-168.5"/>
<text text-anchor="middle" x="275" y="-175.5" font-family="Helvetica,sans-Serif" font-size="10.00">SplitPolicy.hpp</text>
</a>
</g>
</g>
<!-- Node32&#45;&gt;Node33 -->
<g id="edge52" class="edge">
<title>Node32&#45;&gt;Node33</title>
<path fill="none" stroke="midnightblue" d="M460.4,-222.15C416.56,-211.95 351.82,-196.88 311.59,-187.52"/>
<polygon fill="midnightblue" stroke="midnightblue" points="459.71,-225.59 470.24,-224.44 461.29,-218.77 459.71,-225.59"/>
</g>
<!-- Node33&#45;&gt;Node31 -->
<g id="edge55" class="edge">
<title>Node33&#45;&gt;Node31</title>
<path fill="none" stroke="midnightblue" d="M239.05,-165.3C207.77,-155.13 163.18,-140.62 135.18,-131.52"/>
<polygon fill="midnightblue" stroke="midnightblue" points="238.1,-168.68 248.7,-168.44 240.27,-162.02 238.1,-168.68"/>
</g>
<!-- Node34 -->
<g id="node34" class="node">
<title>Node34</title>
<g id="a_node34"><a xlink:href="LinearSplitPolicy_8hpp.html" target="_top" xlink:title=" ">
<polygon fill="white" stroke="black" points="483.5,-112.5 483.5,-131.5 600.5,-131.5 600.5,-112.5 483.5,-112.5"/>
<text text-anchor="middle" x="542" y="-119.5" font-family="Helvetica,sans-Serif" font-size="10.00">LinearSplitPolicy.hpp</text>
</a>
</g>
</g>
<!-- Node33&#45;&gt;Node34 -->
<g id="edge53" class="edge">
<title>Node33&#45;&gt;Node34</title>
<path fill="none" stroke="midnightblue" d="M327.36,-166.41C377.82,-156.2 453.2,-140.96 499.89,-131.52"/>
<polygon fill="midnightblue" stroke="midnightblue" points="326.41,-163.03 317.31,-168.44 327.8,-169.89 326.41,-163.03"/>
</g>
<!-- Node35 -->
<g id="node35" class="node">
<title>Node35</title>
<g id="a_node35"><a xlink:href="MidPointSplitPolicy_8hpp.html" target="_top" xlink:title=" ">
<polygon fill="white" stroke="black" points="184,-112.5 184,-131.5 314,-131.5 314,-112.5 184,-112.5"/>
<text text-anchor="middle" x="249" y="-119.5" font-family="Helvetica,sans-Serif" font-size="10.00">MidPointSplitPolicy.hpp</text>
</a>
</g>
</g>
<!-- Node33&#45;&gt;Node35 -->
<g id="edge54" class="edge">
<title>Node33&#45;&gt;Node35</title>
<path fill="none" stroke="midnightblue" d="M266.33,-158.98C261.91,-149.82 256.75,-139.09 253.21,-131.75"/>
<polygon fill="midnightblue" stroke="midnightblue" points="263.21,-160.59 270.71,-168.08 269.52,-157.55 263.21,-160.59"/>
</g>
<!-- Node36 -->
<g id="node36" class="node">
<title>Node36</title>
<g id="a_node36"><a xlink:href="WeightedSplitPolicy_8hpp.html" target="_top" xlink:title=" ">
<polygon fill="white" stroke="black" points="332.5,-112.5 332.5,-131.5 465.5,-131.5 465.5,-112.5 332.5,-112.5"/>
<text text-anchor="middle" x="399" y="-119.5" font-family="Helvetica,sans-Serif" font-size="10.00">WeightedSplitPolicy.hpp</text>
</a>
</g>
</g>
<!-- Node33&#45;&gt;Node36 -->
<g id="edge56" class="edge">
<title>Node33&#45;&gt;Node36</title>
<path fill="none" stroke="midnightblue" d="M304.01,-164.37C327.23,-154.26 359.16,-140.35 379.44,-131.52"/>
<polygon fill="midnightblue" stroke="midnightblue" points="302.42,-161.24 294.65,-168.44 305.21,-167.66 302.42,-161.24"/>
</g>
<!-- Node38&#45;&gt;Node2 -->
<g id="edge62" class="edge">
<title>Node38&#45;&gt;Node2</title>
<path fill="none" stroke="midnightblue" d="M1063.38,-277.83C1024.49,-267.63 967.84,-252.78 932.49,-243.52"/>
<polygon fill="midnightblue" stroke="midnightblue" points="1062.8,-281.29 1073.36,-280.44 1064.57,-274.52 1062.8,-281.29"/>
</g>
<!-- Node38&#45;&gt;Node23 -->
<g id="edge64" class="edge">
<title>Node38&#45;&gt;Node23</title>
<path fill="none" stroke="midnightblue" d="M1117.62,-271.67C1125.54,-257.49 1132.81,-237.6 1122,-224 1113.05,-212.73 1033.68,-197.09 979.27,-187.52"/>
<polygon fill="midnightblue" stroke="midnightblue" points="1114.48,-270.09 1112.24,-280.44 1120.45,-273.74 1114.48,-270.09"/>
</g>
<!-- Node39 -->
<g id="node39" class="node">
<title>Node39</title>
<g id="a_node39"><a xlink:href="marchingprimitives_2inc_2concepts_8hpp.html" target="_top" xlink:title=" ">
<polygon fill="white" stroke="black" points="1031.5,-224.5 1031.5,-243.5 1112.5,-243.5 1112.5,-224.5 1031.5,-224.5"/>
<text text-anchor="middle" x="1072" y="-231.5" font-family="Helvetica,sans-Serif" font-size="10.00">concepts.hpp</text>
</a>
</g>
</g>
<!-- Node38&#45;&gt;Node39 -->
<g id="edge63" class="edge">
<title>Node38&#45;&gt;Node39</title>
<path fill="none" stroke="midnightblue" d="M1095.02,-271.57C1089.17,-262.27 1082.23,-251.25 1077.51,-243.75"/>
<polygon fill="midnightblue" stroke="midnightblue" points="1092.1,-273.49 1100.39,-280.08 1098.02,-269.76 1092.1,-273.49"/>
</g>
</g>
</svg>
