<?xml version="1.0" encoding="UTF-8" standalone="no"?>
<!DOCTYPE svg PUBLIC "-//W3C//DTD SVG 1.1//EN"
 "http://www.w3.org/Graphics/SVG/1.1/DTD/svg11.dtd">
<!-- Generated by graphviz version 2.43.0 (0)
 -->
<!-- Title: Traits.hpp Pages: 1 -->
<svg width="481pt" height="106pt"
 viewBox="0.00 0.00 481.00 106.00" xmlns="http://www.w3.org/2000/svg" xmlns:xlink="http://www.w3.org/1999/xlink">
<g id="graph0" class="graph" transform="scale(1 1) rotate(0) translate(4 102)">
<title>Traits.hpp</title>
<polygon fill="white" stroke="transparent" points="-4,4 -4,-102 477,-102 477,4 -4,4"/>
<!-- Node1 -->
<g id="node1" class="node">
<title>Node1</title>
<g id="a_node1"><a xlink:title=" ">
<polygon fill="#bfbfbf" stroke="black" points="239,-78.5 239,-97.5 303,-97.5 303,-78.5 239,-78.5"/>
<text text-anchor="middle" x="271" y="-85.5" font-family="Helvetica,sans-Serif" font-size="10.00">Traits.hpp</text>
</a>
</g>
</g>
<!-- Node2 -->
<g id="node2" class="node">
<title>Node2</title>
<g id="a_node2"><a target="_parent" xlink:href="../../../cieutils/docs/html/types_8hpp.html.html" xlink:title=" ">
<polygon fill="white" stroke="black" points="0,-6 0,-36 110,-36 110,-6 0,-6"/>
<text text-anchor="start" x="8" y="-24" font-family="Helvetica,sans-Serif" font-size="10.00">packages/types/inc</text>
<text text-anchor="middle" x="55" y="-13" font-family="Helvetica,sans-Serif" font-size="10.00">/types.hpp</text>
</a>
</g>
</g>
<!-- Node1&#45;&gt;Node2 -->
<g id="edge1" class="edge">
<title>Node1&#45;&gt;Node2</title>
<path fill="none" stroke="midnightblue" d="M241.54,-78.42C210.89,-69.46 161.52,-54.94 119,-42 115.88,-41.05 112.68,-40.07 109.45,-39.08"/>
<polygon fill="midnightblue" stroke="midnightblue" points="110.32,-35.68 99.73,-36.07 108.25,-42.37 110.32,-35.68"/>
</g>
<!-- Node3 -->
<g id="node3" class="node">
<title>Node3</title>
<g id="a_node3"><a target="_parent" xlink:href="../../../cieutils/docs/html/container__concepts_8hpp.html.html" xlink:title=" ">
<polygon fill="white" stroke="black" points="128.5,-0.5 128.5,-41.5 263.5,-41.5 263.5,-0.5 128.5,-0.5"/>
<text text-anchor="start" x="136.5" y="-29.5" font-family="Helvetica,sans-Serif" font-size="10.00">packages/compile_time</text>
<text text-anchor="start" x="136.5" y="-18.5" font-family="Helvetica,sans-Serif" font-size="10.00">/packages/concepts/inc</text>
<text text-anchor="middle" x="196" y="-7.5" font-family="Helvetica,sans-Serif" font-size="10.00">/container_concepts.hpp</text>
</a>
</g>
</g>
<!-- Node1&#45;&gt;Node3 -->
<g id="edge2" class="edge">
<title>Node1&#45;&gt;Node3</title>
<path fill="none" stroke="midnightblue" d="M260.89,-78.23C252.03,-70.56 238.69,-59 226.41,-48.36"/>
<polygon fill="midnightblue" stroke="midnightblue" points="228.4,-45.45 218.55,-41.54 223.81,-50.74 228.4,-45.45"/>
</g>
<!-- Node4 -->
<g id="node4" class="node">
<title>Node4</title>
<g id="a_node4"><a target="_parent" xlink:href="../../../cieutils/docs/html/StaticArray_8hpp.html.html" xlink:title=" ">
<polygon fill="white" stroke="black" points="281.5,-6 281.5,-36 412.5,-36 412.5,-6 281.5,-6"/>
<text text-anchor="start" x="289.5" y="-24" font-family="Helvetica,sans-Serif" font-size="10.00">packages/stl_extension</text>
<text text-anchor="middle" x="347" y="-13" font-family="Helvetica,sans-Serif" font-size="10.00">/inc/StaticArray.hpp</text>
</a>
</g>
</g>
<!-- Node1&#45;&gt;Node4 -->
<g id="edge3" class="edge">
<title>Node1&#45;&gt;Node4</title>
<path fill="none" stroke="midnightblue" d="M281.25,-78.23C291.82,-69.2 308.68,-54.77 322.68,-42.8"/>
<polygon fill="midnightblue" stroke="midnightblue" points="325.2,-45.25 330.53,-36.09 320.65,-39.93 325.2,-45.25"/>
</g>
<!-- Node5 -->
<g id="node5" class="node">
<title>Node5</title>
<g id="a_node5"><a xlink:title=" ">
<polygon fill="white" stroke="#bfbfbf" points="431,-11.5 431,-30.5 473,-30.5 473,-11.5 431,-11.5"/>
<text text-anchor="middle" x="452" y="-18.5" font-family="Helvetica,sans-Serif" font-size="10.00">array</text>
</a>
</g>
</g>
<!-- Node1&#45;&gt;Node5 -->
<g id="edge4" class="edge">
<title>Node1&#45;&gt;Node5</title>
<path fill="none" stroke="midnightblue" d="M303.24,-80.34C334.53,-73.2 382.87,-60.36 422,-42 425.49,-40.36 429.04,-38.35 432.42,-36.25"/>
<polygon fill="midnightblue" stroke="midnightblue" points="434.43,-39.11 440.79,-30.63 430.54,-33.29 434.43,-39.11"/>
</g>
</g>
</svg>
