<?xml version="1.0" encoding="UTF-8" standalone="no"?>
<!DOCTYPE svg PUBLIC "-//W3C//DTD SVG 1.1//EN"
 "http://www.w3.org/Graphics/SVG/1.1/DTD/svg11.dtd">
<!-- Generated by graphviz version 2.43.0 (0)
 -->
<!-- Title: UnaryOperator.hpp Pages: 1 -->
<svg width="368pt" height="196pt"
 viewBox="0.00 0.00 368.00 196.00" xmlns="http://www.w3.org/2000/svg" xmlns:xlink="http://www.w3.org/1999/xlink">
<g id="graph0" class="graph" transform="scale(1 1) rotate(0) translate(4 192)">
<title>UnaryOperator.hpp</title>
<polygon fill="white" stroke="transparent" points="-4,4 -4,-192 364,-192 364,4 -4,4"/>
<!-- Node1 -->
<g id="node1" class="node">
<title>Node1</title>
<g id="a_node1"><a xlink:title=" ">
<polygon fill="#bfbfbf" stroke="black" points="184,-168.5 184,-187.5 293,-187.5 293,-168.5 184,-168.5"/>
<text text-anchor="middle" x="238.5" y="-175.5" font-family="Helvetica,sans-Serif" font-size="10.00">UnaryOperator.hpp</text>
</a>
</g>
</g>
<!-- Node2 -->
<g id="node2" class="node">
<title>Node2</title>
<g id="a_node2"><a xlink:href="BinaryOperator_8hpp.html" target="_top" xlink:title=" ">
<polygon fill="white" stroke="black" points="121,-112.5 121,-131.5 232,-131.5 232,-112.5 121,-112.5"/>
<text text-anchor="middle" x="176.5" y="-119.5" font-family="Helvetica,sans-Serif" font-size="10.00">BinaryOperator.hpp</text>
</a>
</g>
</g>
<!-- Node1&#45;&gt;Node2 -->
<g id="edge1" class="edge">
<title>Node1&#45;&gt;Node2</title>
<path fill="none" stroke="midnightblue" d="M220.75,-161.54C209.69,-151.91 195.87,-139.87 186.64,-131.83"/>
<polygon fill="midnightblue" stroke="midnightblue" points="218.7,-164.4 228.54,-168.32 223.3,-159.12 218.7,-164.4"/>
</g>
<!-- Node7 -->
<g id="node7" class="node">
<title>Node7</title>
<g id="a_node7"><a xlink:href="Complement_8hpp.html" target="_top" xlink:title=" ">
<polygon fill="white" stroke="black" points="259,-112.5 259,-131.5 360,-131.5 360,-112.5 259,-112.5"/>
<text text-anchor="middle" x="309.5" y="-119.5" font-family="Helvetica,sans-Serif" font-size="10.00">Complement.hpp</text>
</a>
</g>
</g>
<!-- Node1&#45;&gt;Node7 -->
<g id="edge8" class="edge">
<title>Node1&#45;&gt;Node7</title>
<path fill="none" stroke="midnightblue" d="M258.09,-162.1C270.87,-152.38 287.11,-140.03 297.89,-131.83"/>
<polygon fill="midnightblue" stroke="midnightblue" points="255.75,-159.48 249.91,-168.32 259.99,-165.06 255.75,-159.48"/>
</g>
<!-- Node3 -->
<g id="node3" class="node">
<title>Node3</title>
<g id="a_node3"><a xlink:href="Intersection_8hpp.html" target="_top" xlink:title=" ">
<polygon fill="white" stroke="black" points="0,-56.5 0,-75.5 95,-75.5 95,-56.5 0,-56.5"/>
<text text-anchor="middle" x="47.5" y="-63.5" font-family="Helvetica,sans-Serif" font-size="10.00">Intersection.hpp</text>
</a>
</g>
</g>
<!-- Node2&#45;&gt;Node3 -->
<g id="edge2" class="edge">
<title>Node2&#45;&gt;Node3</title>
<path fill="none" stroke="midnightblue" d="M146.65,-108.5C122.46,-98.38 89.04,-84.39 67.84,-75.52"/>
<polygon fill="midnightblue" stroke="midnightblue" points="145.48,-111.81 156.06,-112.44 148.19,-105.35 145.48,-111.81"/>
</g>
<!-- Node5 -->
<g id="node5" class="node">
<title>Node5</title>
<g id="a_node5"><a xlink:href="Subtraction_8hpp.html" target="_top" xlink:title=" ">
<polygon fill="white" stroke="black" points="113,-56.5 113,-75.5 206,-75.5 206,-56.5 113,-56.5"/>
<text text-anchor="middle" x="159.5" y="-63.5" font-family="Helvetica,sans-Serif" font-size="10.00">Subtraction.hpp</text>
</a>
</g>
</g>
<!-- Node2&#45;&gt;Node5 -->
<g id="edge4" class="edge">
<title>Node2&#45;&gt;Node5</title>
<path fill="none" stroke="midnightblue" d="M170.64,-102.4C167.8,-93.36 164.52,-82.94 162.25,-75.75"/>
<polygon fill="midnightblue" stroke="midnightblue" points="167.35,-103.6 173.69,-112.08 174.03,-101.49 167.35,-103.6"/>
</g>
<!-- Node6 -->
<g id="node6" class="node">
<title>Node6</title>
<g id="a_node6"><a xlink:href="Union_8hpp.html" target="_top" xlink:title=" ">
<polygon fill="white" stroke="black" points="224.5,-56.5 224.5,-75.5 290.5,-75.5 290.5,-56.5 224.5,-56.5"/>
<text text-anchor="middle" x="257.5" y="-63.5" font-family="Helvetica,sans-Serif" font-size="10.00">Union.hpp</text>
</a>
</g>
</g>
<!-- Node2&#45;&gt;Node6 -->
<g id="edge6" class="edge">
<title>Node2&#45;&gt;Node6</title>
<path fill="none" stroke="midnightblue" d="M198.07,-106.62C212.86,-96.76 232.01,-83.99 244.52,-75.65"/>
<polygon fill="midnightblue" stroke="midnightblue" points="195.89,-103.86 189.51,-112.32 199.78,-109.69 195.89,-103.86"/>
</g>
<!-- Node4 -->
<g id="node4" class="node">
<title>Node4</title>
<g id="a_node4"><a xlink:href="overloads_8hpp.html" target="_top" xlink:title=" ">
<polygon fill="white" stroke="black" points="165.5,-0.5 165.5,-19.5 251.5,-19.5 251.5,-0.5 165.5,-0.5"/>
<text text-anchor="middle" x="208.5" y="-7.5" font-family="Helvetica,sans-Serif" font-size="10.00">overloads.hpp</text>
</a>
</g>
</g>
<!-- Node3&#45;&gt;Node4 -->
<g id="edge3" class="edge">
<title>Node3&#45;&gt;Node4</title>
<path fill="none" stroke="midnightblue" d="M82.76,-53.17C113.08,-43 156.07,-28.59 183.11,-19.52"/>
<polygon fill="midnightblue" stroke="midnightblue" points="81.38,-49.95 73.01,-56.44 83.6,-56.58 81.38,-49.95"/>
</g>
<!-- Node5&#45;&gt;Node4 -->
<g id="edge5" class="edge">
<title>Node5&#45;&gt;Node4</title>
<path fill="none" stroke="midnightblue" d="M174.53,-48.43C183.12,-38.97 193.54,-27.48 200.56,-19.75"/>
<polygon fill="midnightblue" stroke="midnightblue" points="171.72,-46.33 167.59,-56.08 176.9,-51.03 171.72,-46.33"/>
</g>
<!-- Node6&#45;&gt;Node4 -->
<g id="edge7" class="edge">
<title>Node6&#45;&gt;Node4</title>
<path fill="none" stroke="midnightblue" d="M242.47,-48.43C233.88,-38.97 223.46,-27.48 216.44,-19.75"/>
<polygon fill="midnightblue" stroke="midnightblue" points="240.1,-51.03 249.41,-56.08 245.28,-46.33 240.1,-51.03"/>
</g>
<!-- Node7&#45;&gt;Node4 -->
<g id="edge9" class="edge">
<title>Node7&#45;&gt;Node4</title>
<path fill="none" stroke="midnightblue" d="M311.01,-102.11C311.16,-88.11 309.2,-69.24 299.5,-56 285.96,-37.51 262.71,-26.2 243.1,-19.54"/>
<polygon fill="midnightblue" stroke="midnightblue" points="307.5,-102.33 310.52,-112.49 314.49,-102.67 307.5,-102.33"/>
</g>
</g>
</svg>
